solid dell_fan_left
  facet normal -0.999300493351778 0 -0.0373968446114592
    outer loop
      vertex -0.136017196655273 0.0432000007629395 0.171118789672852
      vertex -0.136017196655273 0.0452000007629395 0.171118789672852
      vertex -0.135947280883789 0.0452000007629395 0.169250534057617
    endloop
  endfacet
  facet normal -0.993712453665251 0 -0.111962312545727
    outer loop
      vertex -0.135947280883789 0.0432000007629395 0.169250534057617
      vertex -0.135947280883789 0.0452000007629395 0.169250534057617
      vertex -0.13573796081543 0.0452000007629395 0.167392730712891
    endloop
  endfacet
  facet normal -0.999300493351778 0 -0.0373968446114592
    outer loop
      vertex -0.135947280883789 0.0432000007629395 0.169250534057617
      vertex -0.136017196655273 0.0432000007629395 0.171118789672852
      vertex -0.135947280883789 0.0452000007629395 0.169250534057617
    endloop
  endfacet
  facet normal -0.982567143178891 0 -0.18590806638033
    outer loop
      vertex -0.13573796081543 0.0432000007629395 0.167392730712891
      vertex -0.13573796081543 0.0452000007629395 0.167392730712891
      vertex -0.135390396118164 0.0452000007629395 0.165555770874023
    endloop
  endfacet
  facet normal -0.993712453665251 0 -0.111962312545727
    outer loop
      vertex -0.13573796081543 0.0432000007629395 0.167392730712891
      vertex -0.135947280883789 0.0432000007629395 0.169250534057617
      vertex -0.13573796081543 0.0452000007629395 0.167392730712891
    endloop
  endfacet
  facet normal -0.965924844791006 0 -0.258822708075374
    outer loop
      vertex -0.135390396118164 0.0432000007629395 0.165555770874023
      vertex -0.135390396118164 0.0452000007629395 0.165555770874023
      vertex -0.134906509399414 0.0452000007629395 0.163749908447266
    endloop
  endfacet
  facet normal -0.982567143178891 0 -0.18590806638033
    outer loop
      vertex -0.135390396118164 0.0432000007629395 0.165555770874023
      vertex -0.13573796081543 0.0432000007629395 0.167392730712891
      vertex -0.135390396118164 0.0452000007629395 0.165555770874023
    endloop
  endfacet
  facet normal -0.943883293187846 0 -0.330279168039504
    outer loop
      vertex -0.134906509399414 0.0432000007629395 0.163749908447266
      vertex -0.134906509399414 0.0452000007629395 0.163749908447266
      vertex -0.134289031982422 0.0452000007629395 0.161985260009766
    endloop
  endfacet
  facet normal -0.965924844791006 0 -0.258822708075374
    outer loop
      vertex -0.134906509399414 0.0432000007629395 0.163749908447266
      vertex -0.135390396118164 0.0432000007629395 0.165555770874023
      vertex -0.134906509399414 0.0452000007629395 0.163749908447266
    endloop
  endfacet
  facet normal -0.916562223370585 0 -0.399892098809129
    outer loop
      vertex -0.134289031982422 0.0432000007629395 0.161985260009766
      vertex -0.134289031982422 0.0452000007629395 0.161985260009766
      vertex -0.133541412353516 0.0452000007629395 0.160271697998047
    endloop
  endfacet
  facet normal -0.943883293187846 0 -0.330279168039504
    outer loop
      vertex -0.134289031982422 0.0432000007629395 0.161985260009766
      vertex -0.134906509399414 0.0432000007629395 0.163749908447266
      vertex -0.134289031982422 0.0452000007629395 0.161985260009766
    endloop
  endfacet
  facet normal -0.884116857065209 0 -0.467265859070762
    outer loop
      vertex -0.133541412353516 0.0432000007629395 0.160271697998047
      vertex -0.133541412353516 0.0452000007629395 0.160271697998047
      vertex -0.132667831420898 0.0452000007629395 0.158618789672852
    endloop
  endfacet
  facet normal -0.916562223370585 0 -0.399892098809129
    outer loop
      vertex -0.133541412353516 0.0432000007629395 0.160271697998047
      vertex -0.134289031982422 0.0432000007629395 0.161985260009766
      vertex -0.133541412353516 0.0452000007629395 0.160271697998047
    endloop
  endfacet
  facet normal -0.846723006714257 0 -0.532033974385818
    outer loop
      vertex -0.132667831420898 0.0432000007629395 0.158618789672852
      vertex -0.132667831420898 0.0452000007629395 0.158618789672852
      vertex -0.131673156738281 0.0452000007629395 0.157035781860352
    endloop
  endfacet
  facet normal -0.884116857065209 0 -0.467265859070762
    outer loop
      vertex -0.132667831420898 0.0432000007629395 0.158618789672852
      vertex -0.133541412353516 0.0432000007629395 0.160271697998047
      vertex -0.132667831420898 0.0452000007629395 0.158618789672852
    endloop
  endfacet
  facet normal -0.846723006714257 0 -0.532033974385818
    outer loop
      vertex -0.131673156738281 0.0432000007629395 0.157035781860352
      vertex -0.132667831420898 0.0432000007629395 0.158618789672852
      vertex -0.131673156738281 0.0452000007629395 0.157035781860352
    endloop
  endfacet
  facet normal -0.804597105469188 0 -0.593821099213058
    outer loop
      vertex -0.131673156738281 0.0432000007629395 0.157035781860352
      vertex -0.131673156738281 0.0452000007629395 0.157035781860352
      vertex -0.130562973022461 0.0452000007629395 0.155531539916992
    endloop
  endfacet
  facet normal -0.804597105469188 0 -0.593821099213058
    outer loop
      vertex -0.130562973022461 0.0432000007629395 0.155531539916992
      vertex -0.131673156738281 0.0432000007629395 0.157035781860352
      vertex -0.130562973022461 0.0452000007629395 0.155531539916992
    endloop
  endfacet
  facet normal -0.757972678682746 0 -0.652286300921998
    outer loop
      vertex -0.130562973022461 0.0432000007629395 0.155531539916992
      vertex -0.130562973022461 0.0452000007629395 0.155531539916992
      vertex -0.129343490600586 0.0452000007629395 0.154114471435547
    endloop
  endfacet
  facet normal -0.757972678682746 0 -0.652286300921998
    outer loop
      vertex -0.129343490600586 0.0432000007629395 0.154114471435547
      vertex -0.130562973022461 0.0432000007629395 0.155531539916992
      vertex -0.129343490600586 0.0452000007629395 0.154114471435547
    endloop
  endfacet
  facet normal -0.707106781186547 0 -0.707106781186547
    outer loop
      vertex -0.129343490600586 0.0432000007629395 0.154114471435547
      vertex -0.129343490600586 0.0452000007629395 0.154114471435547
      vertex -0.128021514892578 0.0452000007629395 0.152792495727539
    endloop
  endfacet
  facet normal -0.707106781186547 0 -0.707106781186547
    outer loop
      vertex -0.128021514892578 0.0432000007629395 0.152792495727539
      vertex -0.129343490600586 0.0432000007629395 0.154114471435547
      vertex -0.128021514892578 0.0452000007629395 0.152792495727539
    endloop
  endfacet
  facet normal -0.652288972355425 0 -0.757970379727007
    outer loop
      vertex -0.128021514892578 0.0432000007629395 0.152792495727539
      vertex -0.128021514892578 0.0452000007629395 0.152792495727539
      vertex -0.126604438781738 0.0452000007629395 0.151572998046875
    endloop
  endfacet
  facet normal -0.652288972355425 0 -0.757970379727007
    outer loop
      vertex -0.126604438781738 0.0432000007629395 0.151572998046875
      vertex -0.128021514892578 0.0432000007629395 0.152792495727539
      vertex -0.126604438781738 0.0452000007629395 0.151572998046875
    endloop
  endfacet
  facet normal -0.593821099213058 0 -0.804597105469188
    outer loop
      vertex -0.126604438781738 0.0432000007629395 0.151572998046875
      vertex -0.126604438781738 0.0452000007629395 0.151572998046875
      vertex -0.125100196838379 0.0452000007629395 0.150462814331055
    endloop
  endfacet
  facet normal -0.593821099213058 0 -0.804597105469188
    outer loop
      vertex -0.125100196838379 0.0432000007629395 0.150462814331055
      vertex -0.126604438781738 0.0432000007629395 0.151572998046875
      vertex -0.125100196838379 0.0452000007629395 0.150462814331055
    endloop
  endfacet
  facet normal -0.532028122930124 0 -0.846726683417647
    outer loop
      vertex -0.125100196838379 0.0432000007629395 0.150462814331055
      vertex -0.125100196838379 0.0452000007629395 0.150462814331055
      vertex -0.123517189025879 0.0452000007629395 0.149468154907227
    endloop
  endfacet
  facet normal -0.532028122930124 0 -0.846726683417647
    outer loop
      vertex -0.123517189025879 0.0432000007629395 0.149468154907227
      vertex -0.125100196838379 0.0432000007629395 0.150462814331055
      vertex -0.123517189025879 0.0452000007629395 0.149468154907227
    endloop
  endfacet
  facet normal -0.467267544948389 0 -0.884115966057567
    outer loop
      vertex -0.123517189025879 0.0432000007629395 0.149468154907227
      vertex -0.123517189025879 0.0452000007629395 0.149468154907227
      vertex -0.121864288330078 0.0452000007629395 0.148594573974609
    endloop
  endfacet
  facet normal -0.467267544948389 0 -0.884115966057567
    outer loop
      vertex -0.121864288330078 0.0432000007629395 0.148594573974609
      vertex -0.123517189025879 0.0432000007629395 0.149468154907227
      vertex -0.121864288330078 0.0452000007629395 0.148594573974609
    endloop
  endfacet
  facet normal -0.399890603071193 0 -0.916562875953067
    outer loop
      vertex -0.121864288330078 0.0432000007629395 0.148594573974609
      vertex -0.121864288330078 0.0452000007629395 0.148594573974609
      vertex -0.120150718688965 0.0452000007629395 0.147846954345703
    endloop
  endfacet
  facet normal -0.399890603071193 0 -0.916562875953067
    outer loop
      vertex -0.120150718688965 0.0432000007629395 0.147846954345703
      vertex -0.121864288330078 0.0432000007629395 0.148594573974609
      vertex -0.120150718688965 0.0452000007629395 0.147846954345703
    endloop
  endfacet
  facet normal -0.330279168039504 0 -0.943883293187846
    outer loop
      vertex -0.120150718688965 0.0432000007629395 0.147846954345703
      vertex -0.120150718688965 0.0452000007629395 0.147846954345703
      vertex -0.118386070251465 0.0452000007629395 0.147229476928711
    endloop
  endfacet
  facet normal -0.330279168039504 0 -0.943883293187846
    outer loop
      vertex -0.118386070251465 0.0432000007629395 0.147229476928711
      vertex -0.120150718688965 0.0432000007629395 0.147846954345703
      vertex -0.118386070251465 0.0452000007629395 0.147229476928711
    endloop
  endfacet
  facet normal -0.258823728300729 0 -0.965924571417722
    outer loop
      vertex -0.118386070251465 0.0432000007629395 0.147229476928711
      vertex -0.118386070251465 0.0452000007629395 0.147229476928711
      vertex -0.116580215454102 0.0452000007629395 0.146745590209961
    endloop
  endfacet
  facet normal -0.258823728300729 0 -0.965924571417722
    outer loop
      vertex -0.116580215454102 0.0432000007629395 0.146745590209961
      vertex -0.118386070251465 0.0432000007629395 0.147229476928711
      vertex -0.116580215454102 0.0452000007629395 0.146745590209961
    endloop
  endfacet
  facet normal -0.185907320942531 0 -0.982567284220257
    outer loop
      vertex -0.116580215454102 0.0432000007629395 0.146745590209961
      vertex -0.116580215454102 0.0452000007629395 0.146745590209961
      vertex -0.11474324798584 0.0452000007629395 0.146398025512695
    endloop
  endfacet
  facet normal -0.111970371931263 0 -0.993711545575261
    outer loop
      vertex -0.11474324798584 0.0432000007629395 0.146398025512695
      vertex -0.11474324798584 0.0452000007629395 0.146398025512695
      vertex -0.112885444641113 0.0452000007629395 0.146188690185547
    endloop
  endfacet
  facet normal -0.185907320942531 0 -0.982567284220257
    outer loop
      vertex -0.11474324798584 0.0432000007629395 0.146398025512695
      vertex -0.116580215454102 0.0432000007629395 0.146745590209961
      vertex -0.11474324798584 0.0452000007629395 0.146398025512695
    endloop
  endfacet
  facet normal -0.111970371931263 0 -0.993711545575261
    outer loop
      vertex -0.112885444641113 0.0432000007629395 0.146188690185547
      vertex -0.11474324798584 0.0432000007629395 0.146398025512695
      vertex -0.112885444641113 0.0452000007629395 0.146188690185547
    endloop
  endfacet
  facet normal -0.0373886943361813 0 -0.999300798326428
    outer loop
      vertex -0.112885444641113 0.0432000007629395 0.146188690185547
      vertex -0.112885444641113 0.0452000007629395 0.146188690185547
      vertex -0.111017189025879 0.0452000007629395 0.146118789672852
    endloop
  endfacet
  facet normal 0.0373888468075557 0 -0.999300792621722
    outer loop
      vertex -0.111017189025879 0.0432000007629395 0.146118789672852
      vertex -0.111017189025879 0.0452000007629395 0.146118789672852
      vertex -0.109148941040039 0.0452000007629395 0.146188690185547
    endloop
  endfacet
  facet normal -0.0373886943361813 0 -0.999300798326428
    outer loop
      vertex -0.111017189025879 0.0432000007629395 0.146118789672852
      vertex -0.112885444641113 0.0432000007629395 0.146188690185547
      vertex -0.111017189025879 0.0452000007629395 0.146118789672852
    endloop
  endfacet
  facet normal 0.111970371931263 0 -0.993711545575261
    outer loop
      vertex -0.109148941040039 0.0432000007629395 0.146188690185547
      vertex -0.109148941040039 0.0452000007629395 0.146188690185547
      vertex -0.107291137695312 0.0452000007629395 0.146398025512695
    endloop
  endfacet
  facet normal 0.0373888468075557 0 -0.999300792621722
    outer loop
      vertex -0.109148941040039 0.0432000007629395 0.146188690185547
      vertex -0.111017189025879 0.0432000007629395 0.146118789672852
      vertex -0.109148941040039 0.0452000007629395 0.146188690185547
    endloop
  endfacet
  facet normal 0.185907320942531 0 -0.982567284220257
    outer loop
      vertex -0.107291137695312 0.0432000007629395 0.146398025512695
      vertex -0.107291137695312 0.0452000007629395 0.146398025512695
      vertex -0.105454170227051 0.0452000007629395 0.146745590209961
    endloop
  endfacet
  facet normal 0.111970371931263 0 -0.993711545575261
    outer loop
      vertex -0.107291137695312 0.0432000007629395 0.146398025512695
      vertex -0.109148941040039 0.0432000007629395 0.146188690185547
      vertex -0.107291137695312 0.0452000007629395 0.146398025512695
    endloop
  endfacet
  facet normal 0.258823728300729 0 -0.965924571417722
    outer loop
      vertex -0.105454170227051 0.0432000007629395 0.146745590209961
      vertex -0.105454170227051 0.0452000007629395 0.146745590209961
      vertex -0.103648315429687 0.0452000007629395 0.147229476928711
    endloop
  endfacet
  facet normal 0.185907320942531 0 -0.982567284220257
    outer loop
      vertex -0.105454170227051 0.0432000007629395 0.146745590209961
      vertex -0.107291137695312 0.0432000007629395 0.146398025512695
      vertex -0.105454170227051 0.0452000007629395 0.146745590209961
    endloop
  endfacet
  facet normal 0.330279168039504 0 -0.943883293187846
    outer loop
      vertex -0.103648315429687 0.0432000007629395 0.147229476928711
      vertex -0.103648315429687 0.0452000007629395 0.147229476928711
      vertex -0.101883666992187 0.0452000007629395 0.147846954345703
    endloop
  endfacet
  facet normal 0.258823728300729 0 -0.965924571417722
    outer loop
      vertex -0.103648315429687 0.0432000007629395 0.147229476928711
      vertex -0.105454170227051 0.0432000007629395 0.146745590209961
      vertex -0.103648315429687 0.0452000007629395 0.147229476928711
    endloop
  endfacet
  facet normal 0.399890603071193 0 -0.916562875953067
    outer loop
      vertex -0.101883666992187 0.0432000007629395 0.147846954345703
      vertex -0.101883666992187 0.0452000007629395 0.147846954345703
      vertex -0.100170097351074 0.0452000007629395 0.148594573974609
    endloop
  endfacet
  facet normal 0.330279168039504 0 -0.943883293187846
    outer loop
      vertex -0.101883666992187 0.0432000007629395 0.147846954345703
      vertex -0.103648315429687 0.0432000007629395 0.147229476928711
      vertex -0.101883666992187 0.0452000007629395 0.147846954345703
    endloop
  endfacet
  facet normal 0.467265859070762 0 -0.884116857065209
    outer loop
      vertex -0.100170097351074 0.0432000007629395 0.148594573974609
      vertex -0.100170097351074 0.0452000007629395 0.148594573974609
      vertex -0.0985171890258789 0.0452000007629395 0.149468154907227
    endloop
  endfacet
  facet normal 0.399890603071193 0 -0.916562875953067
    outer loop
      vertex -0.100170097351074 0.0432000007629395 0.148594573974609
      vertex -0.101883666992187 0.0432000007629395 0.147846954345703
      vertex -0.100170097351074 0.0452000007629395 0.148594573974609
    endloop
  endfacet
  facet normal 0.532029961284791 0 -0.846725528312041
    outer loop
      vertex -0.0985171890258789 0.0432000007629395 0.149468154907227
      vertex -0.0985171890258789 0.0452000007629395 0.149468154907227
      vertex -0.0969341888427734 0.0452000007629395 0.150462814331055
    endloop
  endfacet
  facet normal 0.467265859070762 0 -0.884116857065209
    outer loop
      vertex -0.0985171890258789 0.0432000007629395 0.149468154907227
      vertex -0.100170097351074 0.0432000007629395 0.148594573974609
      vertex -0.0985171890258789 0.0452000007629395 0.149468154907227
    endloop
  endfacet
  facet normal 0.593821099213058 0 -0.804597105469188
    outer loop
      vertex -0.0969341888427734 0.0432000007629395 0.150462814331055
      vertex -0.0969341888427734 0.0452000007629395 0.150462814331055
      vertex -0.0954299468994141 0.0452000007629395 0.151572998046875
    endloop
  endfacet
  facet normal 0.532029961284791 0 -0.846725528312041
    outer loop
      vertex -0.0969341888427734 0.0432000007629395 0.150462814331055
      vertex -0.0985171890258789 0.0432000007629395 0.149468154907227
      vertex -0.0969341888427734 0.0452000007629395 0.150462814331055
    endloop
  endfacet
  facet normal 0.652288972355425 0 -0.757970379727007
    outer loop
      vertex -0.0954299468994141 0.0432000007629395 0.151572998046875
      vertex -0.0954299468994141 0.0452000007629395 0.151572998046875
      vertex -0.0940128707885742 0.0452000007629395 0.152792495727539
    endloop
  endfacet
  facet normal 0.593821099213058 0 -0.804597105469188
    outer loop
      vertex -0.0954299468994141 0.0432000007629395 0.151572998046875
      vertex -0.0969341888427734 0.0432000007629395 0.150462814331055
      vertex -0.0954299468994141 0.0452000007629395 0.151572998046875
    endloop
  endfacet
  facet normal 0.707106781186547 0 -0.707106781186547
    outer loop
      vertex -0.0940128707885742 0.0432000007629395 0.152792495727539
      vertex -0.0940128707885742 0.0452000007629395 0.152792495727539
      vertex -0.0926908950805664 0.0452000007629395 0.154114471435547
    endloop
  endfacet
  facet normal 0.652288972355425 0 -0.757970379727007
    outer loop
      vertex -0.0940128707885742 0.0432000007629395 0.152792495727539
      vertex -0.0954299468994141 0.0432000007629395 0.151572998046875
      vertex -0.0940128707885742 0.0452000007629395 0.152792495727539
    endloop
  endfacet
  facet normal 0.707106781186547 0 -0.707106781186547
    outer loop
      vertex -0.0926908950805664 0.0432000007629395 0.154114471435547
      vertex -0.0940128707885742 0.0432000007629395 0.152792495727539
      vertex -0.0926908950805664 0.0452000007629395 0.154114471435547
    endloop
  endfacet
  facet normal 0.75797066104023 0 -0.652288645464748
    outer loop
      vertex -0.0926908950805664 0.0432000007629395 0.154114471435547
      vertex -0.0926908950805664 0.0452000007629395 0.154114471435547
      vertex -0.0914714050292969 0.0452000007629395 0.155531539916992
    endloop
  endfacet
  facet normal 0.75797066104023 0 -0.652288645464748
    outer loop
      vertex -0.0914714050292969 0.0432000007629395 0.155531539916992
      vertex -0.0926908950805664 0.0432000007629395 0.154114471435547
      vertex -0.0914714050292969 0.0452000007629395 0.155531539916992
    endloop
  endfacet
  facet normal 0.804597105469188 0 -0.593821099213058
    outer loop
      vertex -0.0914714050292969 0.0432000007629395 0.155531539916992
      vertex -0.0914714050292969 0.0452000007629395 0.155531539916992
      vertex -0.0903612213134766 0.0452000007629395 0.157035781860352
    endloop
  endfacet
  facet normal 0.804597105469188 0 -0.593821099213058
    outer loop
      vertex -0.0903612213134766 0.0432000007629395 0.157035781860352
      vertex -0.0914714050292969 0.0432000007629395 0.155531539916992
      vertex -0.0903612213134766 0.0452000007629395 0.157035781860352
    endloop
  endfacet
  facet normal 0.846724845067016 0 -0.532031048667499
    outer loop
      vertex -0.0903612213134766 0.0432000007629395 0.157035781860352
      vertex -0.0903612213134766 0.0452000007629395 0.157035781860352
      vertex -0.0893665542602539 0.0452000007629395 0.158618789672852
    endloop
  endfacet
  facet normal 0.846724845067016 0 -0.532031048667499
    outer loop
      vertex -0.0893665542602539 0.0432000007629395 0.158618789672852
      vertex -0.0903612213134766 0.0432000007629395 0.157035781860352
      vertex -0.0893665542602539 0.0452000007629395 0.158618789672852
    endloop
  endfacet
  facet normal 0.884116857065209 0 -0.467265859070762
    outer loop
      vertex -0.0893665542602539 0.0432000007629395 0.158618789672852
      vertex -0.0893665542602539 0.0452000007629395 0.158618789672852
      vertex -0.0884929733276367 0.0452000007629395 0.160271697998047
    endloop
  endfacet
  facet normal 0.884116857065209 0 -0.467265859070762
    outer loop
      vertex -0.0884929733276367 0.0432000007629395 0.160271697998047
      vertex -0.0893665542602539 0.0432000007629395 0.158618789672852
      vertex -0.0884929733276367 0.0452000007629395 0.160271697998047
    endloop
  endfacet
  facet normal 0.916560727623616 0 -0.399895527079346
    outer loop
      vertex -0.0884929733276367 0.0432000007629395 0.160271697998047
      vertex -0.0884929733276367 0.0452000007629395 0.160271697998047
      vertex -0.0877453460693359 0.0452000007629395 0.161985260009766
    endloop
  endfacet
  facet normal 0.916560727623616 0 -0.399895527079346
    outer loop
      vertex -0.0877453460693359 0.0432000007629395 0.161985260009766
      vertex -0.0884929733276367 0.0432000007629395 0.160271697998047
      vertex -0.0877453460693359 0.0452000007629395 0.161985260009766
    endloop
  endfacet
  facet normal 0.943883293187846 0 -0.330279168039504
    outer loop
      vertex -0.0877453460693359 0.0432000007629395 0.161985260009766
      vertex -0.0877453460693359 0.0452000007629395 0.161985260009766
      vertex -0.0871278686523437 0.0452000007629395 0.163749908447266
    endloop
  endfacet
  facet normal 0.943883293187846 0 -0.330279168039504
    outer loop
      vertex -0.0871278686523437 0.0432000007629395 0.163749908447266
      vertex -0.0877453460693359 0.0432000007629395 0.161985260009766
      vertex -0.0871278686523437 0.0452000007629395 0.163749908447266
    endloop
  endfacet
  facet normal 0.965926885208256 0 -0.258815093129972
    outer loop
      vertex -0.0871278686523437 0.0432000007629395 0.163749908447266
      vertex -0.0871278686523437 0.0452000007629395 0.163749908447266
      vertex -0.0866439971923828 0.0452000007629395 0.165555770874023
    endloop
  endfacet
  facet normal 0.982566397730824 0 -0.185912006202593
    outer loop
      vertex -0.0866439971923828 0.0432000007629395 0.165555770874023
      vertex -0.0866439971923828 0.0452000007629395 0.165555770874023
      vertex -0.0862964248657227 0.0452000007629395 0.167392730712891
    endloop
  endfacet
  facet normal 0.965926885208256 0 -0.258815093129972
    outer loop
      vertex -0.0866439971923828 0.0432000007629395 0.165555770874023
      vertex -0.0871278686523437 0.0432000007629395 0.163749908447266
      vertex -0.0866439971923828 0.0452000007629395 0.165555770874023
    endloop
  endfacet
  facet normal 0.993711999628219 0 -0.111966342241257
    outer loop
      vertex -0.0862964248657227 0.0432000007629395 0.167392730712891
      vertex -0.0862964248657227 0.0452000007629395 0.167392730712891
      vertex -0.0860870971679688 0.0452000007629395 0.169250534057617
    endloop
  endfacet
  facet normal 0.982566397730824 0 -0.185912006202593
    outer loop
      vertex -0.0862964248657227 0.0432000007629395 0.167392730712891
      vertex -0.0866439971923828 0.0432000007629395 0.165555770874023
      vertex -0.0862964248657227 0.0452000007629395 0.167392730712891
    endloop
  endfacet
  facet normal 0.999300645847389 0 -0.037392769474753
    outer loop
      vertex -0.0860870971679688 0.0432000007629395 0.169250534057617
      vertex -0.0860870971679688 0.0452000007629395 0.169250534057617
      vertex -0.0860171890258789 0.0452000007629395 0.171118789672852
    endloop
  endfacet
  facet normal 0.993711999628219 0 -0.111966342241257
    outer loop
      vertex -0.0860870971679688 0.0432000007629395 0.169250534057617
      vertex -0.0862964248657227 0.0432000007629395 0.167392730712891
      vertex -0.0860870971679688 0.0452000007629395 0.169250534057617
    endloop
  endfacet
  facet normal 0.999300645847389 -0 0.037392769474753
    outer loop
      vertex -0.0860171890258789 0.0432000007629395 0.171118789672852
      vertex -0.0860171890258789 0.0452000007629395 0.171118789672852
      vertex -0.0860870971679688 0.0452000007629395 0.172987045288086
    endloop
  endfacet
  facet normal 0.999300645847389 0 -0.037392769474753
    outer loop
      vertex -0.0860171890258789 0.0432000007629395 0.171118789672852
      vertex -0.0860870971679688 0.0432000007629395 0.169250534057617
      vertex -0.0860171890258789 0.0452000007629395 0.171118789672852
    endloop
  endfacet
  facet normal 0.993711999628219 -0 0.111966342241257
    outer loop
      vertex -0.0860870971679688 0.0432000007629395 0.172987045288086
      vertex -0.0860870971679688 0.0452000007629395 0.172987045288086
      vertex -0.0862964248657227 0.0452000007629395 0.174844848632812
    endloop
  endfacet
  facet normal 0.999300645847389 -0 0.037392769474753
    outer loop
      vertex -0.0860870971679688 0.0432000007629395 0.172987045288086
      vertex -0.0860171890258789 0.0432000007629395 0.171118789672852
      vertex -0.0860870971679688 0.0452000007629395 0.172987045288086
    endloop
  endfacet
  facet normal 0.982566397730824 -0 0.185912006202593
    outer loop
      vertex -0.0862964248657227 0.0432000007629395 0.174844848632812
      vertex -0.0862964248657227 0.0452000007629395 0.174844848632812
      vertex -0.0866439971923828 0.0452000007629395 0.17668180847168
    endloop
  endfacet
  facet normal 0.993711999628219 -0 0.111966342241257
    outer loop
      vertex -0.0862964248657227 0.0432000007629395 0.174844848632812
      vertex -0.0860870971679688 0.0432000007629395 0.172987045288086
      vertex -0.0862964248657227 0.0452000007629395 0.174844848632812
    endloop
  endfacet
  facet normal 0.965926885208256 -0 0.258815093129972
    outer loop
      vertex -0.0866439971923828 0.0432000007629395 0.17668180847168
      vertex -0.0866439971923828 0.0452000007629395 0.17668180847168
      vertex -0.0871278686523437 0.0452000007629395 0.178487670898438
    endloop
  endfacet
  facet normal 0.982566397730824 -0 0.185912006202593
    outer loop
      vertex -0.0866439971923828 0.0432000007629395 0.17668180847168
      vertex -0.0862964248657227 0.0432000007629395 0.174844848632812
      vertex -0.0866439971923828 0.0452000007629395 0.17668180847168
    endloop
  endfacet
  facet normal 0.943883293187846 -0 0.330279168039504
    outer loop
      vertex -0.0871278686523437 0.0432000007629395 0.178487670898438
      vertex -0.0871278686523437 0.0452000007629395 0.178487670898438
      vertex -0.0877453460693359 0.0452000007629395 0.180252319335937
    endloop
  endfacet
  facet normal 0.965926885208256 -0 0.258815093129972
    outer loop
      vertex -0.0871278686523437 0.0432000007629395 0.178487670898438
      vertex -0.0866439971923828 0.0432000007629395 0.17668180847168
      vertex -0.0871278686523437 0.0452000007629395 0.178487670898438
    endloop
  endfacet
  facet normal 0.943883293187846 -0 0.330279168039504
    outer loop
      vertex -0.0877453460693359 0.0432000007629395 0.180252319335937
      vertex -0.0871278686523437 0.0432000007629395 0.178487670898438
      vertex -0.0877453460693359 0.0452000007629395 0.180252319335937
    endloop
  endfacet
  facet normal 0.884116857065209 -0 0.467265859070762
    outer loop
      vertex -0.0884929733276367 0.0432000007629395 0.181965881347656
      vertex -0.0884929733276367 0.0452000007629395 0.181965881347656
      vertex -0.0893665542602539 0.0452000007629395 0.183618789672852
    endloop
  endfacet
  facet normal 0.916560727623616 -0 0.399895527079346
    outer loop
      vertex -0.0884929733276367 0.0432000007629395 0.181965881347656
      vertex -0.0877453460693359 0.0452000007629395 0.180252319335937
      vertex -0.0884929733276367 0.0452000007629395 0.181965881347656
    endloop
  endfacet
  facet normal 0.916560727623616 0 0.399895527079346
    outer loop
      vertex -0.0884929733276367 0.0432000007629395 0.181965881347656
      vertex -0.0877453460693359 0.0432000007629395 0.180252319335937
      vertex -0.0877453460693359 0.0452000007629395 0.180252319335937
    endloop
  endfacet
  facet normal 0.846724845067016 -0 0.532031048667499
    outer loop
      vertex -0.0893665542602539 0.0432000007629395 0.183618789672852
      vertex -0.0893665542602539 0.0452000007629395 0.183618789672852
      vertex -0.0903612213134766 0.0452000007629395 0.185201797485352
    endloop
  endfacet
  facet normal 0.884116857065209 -0 0.467265859070762
    outer loop
      vertex -0.0893665542602539 0.0432000007629395 0.183618789672852
      vertex -0.0884929733276367 0.0432000007629395 0.181965881347656
      vertex -0.0893665542602539 0.0452000007629395 0.183618789672852
    endloop
  endfacet
  facet normal 0.804597105469188 -0 0.593821099213058
    outer loop
      vertex -0.0903612213134766 0.0432000007629395 0.185201797485352
      vertex -0.0903612213134766 0.0452000007629395 0.185201797485352
      vertex -0.0914714050292969 0.0452000007629395 0.186706039428711
    endloop
  endfacet
  facet normal 0.846724845067016 -0 0.532031048667499
    outer loop
      vertex -0.0903612213134766 0.0432000007629395 0.185201797485352
      vertex -0.0893665542602539 0.0432000007629395 0.183618789672852
      vertex -0.0903612213134766 0.0452000007629395 0.185201797485352
    endloop
  endfacet
  facet normal 0.75797066104023 -0 0.652288645464748
    outer loop
      vertex -0.0914714050292969 0.0432000007629395 0.186706039428711
      vertex -0.0914714050292969 0.0452000007629395 0.186706039428711
      vertex -0.0926908950805664 0.0452000007629395 0.188123107910156
    endloop
  endfacet
  facet normal 0.804597105469188 -0 0.593821099213058
    outer loop
      vertex -0.0914714050292969 0.0432000007629395 0.186706039428711
      vertex -0.0903612213134766 0.0432000007629395 0.185201797485352
      vertex -0.0914714050292969 0.0452000007629395 0.186706039428711
    endloop
  endfacet
  facet normal 0.707106781186547 -0 0.707106781186547
    outer loop
      vertex -0.0926908950805664 0.0432000007629395 0.188123107910156
      vertex -0.0926908950805664 0.0452000007629395 0.188123107910156
      vertex -0.0940128707885742 0.0452000007629395 0.189445083618164
    endloop
  endfacet
  facet normal 0.75797066104023 -0 0.652288645464748
    outer loop
      vertex -0.0926908950805664 0.0432000007629395 0.188123107910156
      vertex -0.0914714050292969 0.0432000007629395 0.186706039428711
      vertex -0.0926908950805664 0.0452000007629395 0.188123107910156
    endloop
  endfacet
  facet normal 0.652288972355425 -0 0.757970379727007
    outer loop
      vertex -0.0940128707885742 0.0432000007629395 0.189445083618164
      vertex -0.0940128707885742 0.0452000007629395 0.189445083618164
      vertex -0.0954299468994141 0.0452000007629395 0.190664581298828
    endloop
  endfacet
  facet normal 0.707106781186547 -0 0.707106781186547
    outer loop
      vertex -0.0940128707885742 0.0432000007629395 0.189445083618164
      vertex -0.0926908950805664 0.0432000007629395 0.188123107910156
      vertex -0.0940128707885742 0.0452000007629395 0.189445083618164
    endloop
  endfacet
  facet normal 0.593821099213058 -0 0.804597105469188
    outer loop
      vertex -0.0954299468994141 0.0432000007629395 0.190664581298828
      vertex -0.0954299468994141 0.0452000007629395 0.190664581298828
      vertex -0.0969341888427734 0.0452000007629395 0.191774765014648
    endloop
  endfacet
  facet normal 0.652288972355425 -0 0.757970379727007
    outer loop
      vertex -0.0954299468994141 0.0432000007629395 0.190664581298828
      vertex -0.0940128707885742 0.0432000007629395 0.189445083618164
      vertex -0.0954299468994141 0.0452000007629395 0.190664581298828
    endloop
  endfacet
  facet normal 0.532029961284791 -0 0.846725528312041
    outer loop
      vertex -0.0969341888427734 0.0432000007629395 0.191774765014648
      vertex -0.0969341888427734 0.0452000007629395 0.191774765014648
      vertex -0.0985171890258789 0.0452000007629395 0.192769424438477
    endloop
  endfacet
  facet normal 0.593821099213058 -0 0.804597105469188
    outer loop
      vertex -0.0969341888427734 0.0432000007629395 0.191774765014648
      vertex -0.0954299468994141 0.0432000007629395 0.190664581298828
      vertex -0.0969341888427734 0.0452000007629395 0.191774765014648
    endloop
  endfacet
  facet normal 0.467265859070762 -0 0.884116857065209
    outer loop
      vertex -0.0985171890258789 0.0432000007629395 0.192769424438477
      vertex -0.0985171890258789 0.0452000007629395 0.192769424438477
      vertex -0.100170097351074 0.0452000007629395 0.193643005371094
    endloop
  endfacet
  facet normal 0.532029961284791 -0 0.846725528312041
    outer loop
      vertex -0.0985171890258789 0.0432000007629395 0.192769424438477
      vertex -0.0969341888427734 0.0432000007629395 0.191774765014648
      vertex -0.0985171890258789 0.0452000007629395 0.192769424438477
    endloop
  endfacet
  facet normal 0.467265859070762 -0 0.884116857065209
    outer loop
      vertex -0.100170097351074 0.0432000007629395 0.193643005371094
      vertex -0.0985171890258789 0.0432000007629395 0.192769424438477
      vertex -0.100170097351074 0.0452000007629395 0.193643005371094
    endloop
  endfacet
  facet normal 0.39989745957896 -0 0.916559884471437
    outer loop
      vertex -0.100170097351074 0.0432000007629395 0.193643005371094
      vertex -0.100170097351074 0.0452000007629395 0.193643005371094
      vertex -0.101883666992187 0.0452000007629395 0.194390640258789
    endloop
  endfacet
  facet normal 0.39989745957896 -0 0.916559884471437
    outer loop
      vertex -0.101883666992187 0.0432000007629395 0.194390640258789
      vertex -0.100170097351074 0.0432000007629395 0.193643005371094
      vertex -0.101883666992187 0.0452000007629395 0.194390640258789
    endloop
  endfacet
  facet normal 0.330279168039504 -0 0.943883293187846
    outer loop
      vertex -0.101883666992187 0.0432000007629395 0.194390640258789
      vertex -0.101883666992187 0.0452000007629395 0.194390640258789
      vertex -0.103648315429687 0.0452000007629395 0.195008117675781
    endloop
  endfacet
  facet normal 0.258816113329621 -0 0.965926611850481
    outer loop
      vertex -0.103648315429687 0.0432000007629395 0.195008117675781
      vertex -0.103648315429687 0.0452000007629395 0.195008117675781
      vertex -0.105454170227051 0.0452000007629395 0.195491989135742
    endloop
  endfacet
  facet normal 0.330279168039504 -0 0.943883293187846
    outer loop
      vertex -0.103648315429687 0.0432000007629395 0.195008117675781
      vertex -0.101883666992187 0.0432000007629395 0.194390640258789
      vertex -0.103648315429687 0.0452000007629395 0.195008117675781
    endloop
  endfacet
  facet normal 0.185907320942531 -0 0.982567284220257
    outer loop
      vertex -0.105454170227051 0.0432000007629395 0.195491989135742
      vertex -0.105454170227051 0.0452000007629395 0.195491989135742
      vertex -0.107291137695312 0.0452000007629395 0.195839553833008
    endloop
  endfacet
  facet normal 0.258816113329621 -0 0.965926611850481
    outer loop
      vertex -0.105454170227051 0.0432000007629395 0.195491989135742
      vertex -0.103648315429687 0.0432000007629395 0.195008117675781
      vertex -0.105454170227051 0.0452000007629395 0.195491989135742
    endloop
  endfacet
  facet normal 0.111970371931263 -0 0.993711545575261
    outer loop
      vertex -0.107291137695312 0.0432000007629395 0.195839553833008
      vertex -0.107291137695312 0.0452000007629395 0.195839553833008
      vertex -0.109148941040039 0.0452000007629395 0.196048889160156
    endloop
  endfacet
  facet normal 0.185907320942531 -0 0.982567284220257
    outer loop
      vertex -0.107291137695312 0.0432000007629395 0.195839553833008
      vertex -0.105454170227051 0.0432000007629395 0.195491989135742
      vertex -0.107291137695312 0.0452000007629395 0.195839553833008
    endloop
  endfacet
  facet normal 0.111970371931263 -0 0.993711545575261
    outer loop
      vertex -0.109148941040039 0.0432000007629395 0.196048889160156
      vertex -0.107291137695312 0.0432000007629395 0.195839553833008
      vertex -0.109148941040039 0.0452000007629395 0.196048889160156
    endloop
  endfacet
  facet normal -0.0373886943361813 0 0.999300798326428
    outer loop
      vertex -0.111017189025879 0.0432000007629395 0.196118789672852
      vertex -0.111017189025879 0.0452000007629395 0.196118789672852
      vertex -0.112885444641113 0.0452000007629395 0.196048889160156
    endloop
  endfacet
  facet normal 0.0373888468075557 -0 0.999300792621722
    outer loop
      vertex -0.111017189025879 0.0432000007629395 0.196118789672852
      vertex -0.109148941040039 0.0452000007629395 0.196048889160156
      vertex -0.111017189025879 0.0452000007629395 0.196118789672852
    endloop
  endfacet
  facet normal 0.0373888468075557 0 0.999300792621722
    outer loop
      vertex -0.111017189025879 0.0432000007629395 0.196118789672852
      vertex -0.109148941040039 0.0432000007629395 0.196048889160156
      vertex -0.109148941040039 0.0452000007629395 0.196048889160156
    endloop
  endfacet
  facet normal -0.0373886943361813 0 0.999300798326428
    outer loop
      vertex -0.112885444641113 0.0432000007629395 0.196048889160156
      vertex -0.111017189025879 0.0432000007629395 0.196118789672852
      vertex -0.112885444641113 0.0452000007629395 0.196048889160156
    endloop
  endfacet
  facet normal -0.185907320942531 0 0.982567284220257
    outer loop
      vertex -0.11474324798584 0.0432000007629395 0.195839553833008
      vertex -0.11474324798584 0.0452000007629395 0.195839553833008
      vertex -0.116580215454102 0.0452000007629395 0.195491989135742
    endloop
  endfacet
  facet normal -0.111970371931263 0 0.993711545575261
    outer loop
      vertex -0.11474324798584 0.0432000007629395 0.195839553833008
      vertex -0.112885444641113 0.0452000007629395 0.196048889160156
      vertex -0.11474324798584 0.0452000007629395 0.195839553833008
    endloop
  endfacet
  facet normal -0.111970371931263 0 0.993711545575261
    outer loop
      vertex -0.11474324798584 0.0432000007629395 0.195839553833008
      vertex -0.112885444641113 0.0432000007629395 0.196048889160156
      vertex -0.112885444641113 0.0452000007629395 0.196048889160156
    endloop
  endfacet
  facet normal -0.258816113329621 0 0.965926611850481
    outer loop
      vertex -0.116580215454102 0.0432000007629395 0.195491989135742
      vertex -0.116580215454102 0.0452000007629395 0.195491989135742
      vertex -0.118386070251465 0.0452000007629395 0.195008117675781
    endloop
  endfacet
  facet normal -0.185907320942531 0 0.982567284220257
    outer loop
      vertex -0.116580215454102 0.0432000007629395 0.195491989135742
      vertex -0.11474324798584 0.0432000007629395 0.195839553833008
      vertex -0.116580215454102 0.0452000007629395 0.195491989135742
    endloop
  endfacet
  facet normal -0.258816113329621 0 0.965926611850481
    outer loop
      vertex -0.118386070251465 0.0432000007629395 0.195008117675781
      vertex -0.116580215454102 0.0432000007629395 0.195491989135742
      vertex -0.118386070251465 0.0452000007629395 0.195008117675781
    endloop
  endfacet
  facet normal -0.39989745957896 0 0.916559884471437
    outer loop
      vertex -0.120150718688965 0.0432000007629395 0.194390640258789
      vertex -0.120150718688965 0.0452000007629395 0.194390640258789
      vertex -0.121864288330078 0.0452000007629395 0.193643005371094
    endloop
  endfacet
  facet normal -0.330279168039504 0 0.943883293187846
    outer loop
      vertex -0.120150718688965 0.0432000007629395 0.194390640258789
      vertex -0.118386070251465 0.0452000007629395 0.195008117675781
      vertex -0.120150718688965 0.0452000007629395 0.194390640258789
    endloop
  endfacet
  facet normal -0.330279168039504 0 0.943883293187846
    outer loop
      vertex -0.120150718688965 0.0432000007629395 0.194390640258789
      vertex -0.118386070251465 0.0432000007629395 0.195008117675781
      vertex -0.118386070251465 0.0452000007629395 0.195008117675781
    endloop
  endfacet
  facet normal -0.39989745957896 0 0.916559884471437
    outer loop
      vertex -0.121864288330078 0.0432000007629395 0.193643005371094
      vertex -0.120150718688965 0.0432000007629395 0.194390640258789
      vertex -0.121864288330078 0.0452000007629395 0.193643005371094
    endloop
  endfacet
  facet normal -0.467267544948389 0 0.884115966057567
    outer loop
      vertex -0.123517189025879 0.0432000007629395 0.192769424438477
      vertex -0.121864288330078 0.0432000007629395 0.193643005371094
      vertex -0.121864288330078 0.0452000007629395 0.193643005371094
    endloop
  endfacet
  facet normal -0.467267544948389 0 0.884115966057567
    outer loop
      vertex -0.123517189025879 0.0432000007629395 0.192769424438477
      vertex -0.121864288330078 0.0452000007629395 0.193643005371094
      vertex -0.123517189025879 0.0452000007629395 0.192769424438477
    endloop
  endfacet
  facet normal -0.532028122930124 0 0.846726683417647
    outer loop
      vertex -0.125100196838379 0.0432000007629395 0.191774765014648
      vertex -0.123517189025879 0.0432000007629395 0.192769424438477
      vertex -0.123517189025879 0.0452000007629395 0.192769424438477
    endloop
  endfacet
  facet normal -0.532028122930124 0 0.846726683417647
    outer loop
      vertex -0.125100196838379 0.0432000007629395 0.191774765014648
      vertex -0.123517189025879 0.0452000007629395 0.192769424438477
      vertex -0.125100196838379 0.0452000007629395 0.191774765014648
    endloop
  endfacet
  facet normal -0.593821099213058 0 0.804597105469188
    outer loop
      vertex -0.126604438781738 0.0432000007629395 0.190664581298828
      vertex -0.125100196838379 0.0432000007629395 0.191774765014648
      vertex -0.125100196838379 0.0452000007629395 0.191774765014648
    endloop
  endfacet
  facet normal -0.652288972355425 0 0.757970379727007
    outer loop
      vertex -0.126604438781738 0.0432000007629395 0.190664581298828
      vertex -0.126604438781738 0.0452000007629395 0.190664581298828
      vertex -0.128021514892578 0.0452000007629395 0.189445083618164
    endloop
  endfacet
  facet normal -0.593821099213058 0 0.804597105469188
    outer loop
      vertex -0.126604438781738 0.0432000007629395 0.190664581298828
      vertex -0.125100196838379 0.0452000007629395 0.191774765014648
      vertex -0.126604438781738 0.0452000007629395 0.190664581298828
    endloop
  endfacet
  facet normal -0.652288972355425 0 0.757970379727007
    outer loop
      vertex -0.128021514892578 0.0432000007629395 0.189445083618164
      vertex -0.126604438781738 0.0432000007629395 0.190664581298828
      vertex -0.128021514892578 0.0452000007629395 0.189445083618164
    endloop
  endfacet
  facet normal -0.707106781186547 0 0.707106781186547
    outer loop
      vertex -0.128021514892578 0.0432000007629395 0.189445083618164
      vertex -0.128021514892578 0.0452000007629395 0.189445083618164
      vertex -0.129343490600586 0.0452000007629395 0.188123107910156
    endloop
  endfacet
  facet normal -0.707106781186547 0 0.707106781186547
    outer loop
      vertex -0.129343490600586 0.0432000007629395 0.188123107910156
      vertex -0.128021514892578 0.0432000007629395 0.189445083618164
      vertex -0.129343490600586 0.0452000007629395 0.188123107910156
    endloop
  endfacet
  facet normal -0.757972678682746 0 0.652286300921998
    outer loop
      vertex -0.129343490600586 0.0432000007629395 0.188123107910156
      vertex -0.129343490600586 0.0452000007629395 0.188123107910156
      vertex -0.130562973022461 0.0452000007629395 0.186706039428711
    endloop
  endfacet
  facet normal -0.757972678682746 0 0.652286300921998
    outer loop
      vertex -0.130562973022461 0.0432000007629395 0.186706039428711
      vertex -0.129343490600586 0.0432000007629395 0.188123107910156
      vertex -0.130562973022461 0.0452000007629395 0.186706039428711
    endloop
  endfacet
  facet normal -0.804597105469188 0 0.593821099213058
    outer loop
      vertex -0.130562973022461 0.0432000007629395 0.186706039428711
      vertex -0.130562973022461 0.0452000007629395 0.186706039428711
      vertex -0.131673156738281 0.0452000007629395 0.185201797485352
    endloop
  endfacet
  facet normal -0.804597105469188 0 0.593821099213058
    outer loop
      vertex -0.131673156738281 0.0432000007629395 0.185201797485352
      vertex -0.130562973022461 0.0432000007629395 0.186706039428711
      vertex -0.131673156738281 0.0452000007629395 0.185201797485352
    endloop
  endfacet
  facet normal -0.846723006714257 0 0.532033974385818
    outer loop
      vertex -0.132667831420898 0.0432000007629395 0.183618789672852
      vertex -0.131673156738281 0.0432000007629395 0.185201797485352
      vertex -0.131673156738281 0.0452000007629395 0.185201797485352
    endloop
  endfacet
  facet normal -0.846723006714257 0 0.532033974385818
    outer loop
      vertex -0.132667831420898 0.0432000007629395 0.183618789672852
      vertex -0.131673156738281 0.0452000007629395 0.185201797485352
      vertex -0.132667831420898 0.0452000007629395 0.183618789672852
    endloop
  endfacet
  facet normal -0.884116857065209 0 0.467265859070762
    outer loop
      vertex -0.133541412353516 0.0432000007629395 0.181965881347656
      vertex -0.132667831420898 0.0432000007629395 0.183618789672852
      vertex -0.132667831420898 0.0452000007629395 0.183618789672852
    endloop
  endfacet
  facet normal -0.916562223370585 0 0.399892098809129
    outer loop
      vertex -0.133541412353516 0.0432000007629395 0.181965881347656
      vertex -0.133541412353516 0.0452000007629395 0.181965881347656
      vertex -0.134289031982422 0.0452000007629395 0.180252319335937
    endloop
  endfacet
  facet normal -0.884116857065209 0 0.467265859070762
    outer loop
      vertex -0.133541412353516 0.0432000007629395 0.181965881347656
      vertex -0.132667831420898 0.0452000007629395 0.183618789672852
      vertex -0.133541412353516 0.0452000007629395 0.181965881347656
    endloop
  endfacet
  facet normal -0.916562223370585 0 0.399892098809129
    outer loop
      vertex -0.134289031982422 0.0432000007629395 0.180252319335937
      vertex -0.133541412353516 0.0432000007629395 0.181965881347656
      vertex -0.134289031982422 0.0452000007629395 0.180252319335937
    endloop
  endfacet
  facet normal -0.943883293187846 0 0.330279168039504
    outer loop
      vertex -0.134906509399414 0.0432000007629395 0.178487670898438
      vertex -0.134289031982422 0.0432000007629395 0.180252319335937
      vertex -0.134289031982422 0.0452000007629395 0.180252319335937
    endloop
  endfacet
  facet normal -0.965924844791006 0 0.258822708075374
    outer loop
      vertex -0.134906509399414 0.0432000007629395 0.178487670898438
      vertex -0.134906509399414 0.0452000007629395 0.178487670898438
      vertex -0.135390396118164 0.0452000007629395 0.17668180847168
    endloop
  endfacet
  facet normal -0.943883293187846 0 0.330279168039504
    outer loop
      vertex -0.134906509399414 0.0432000007629395 0.178487670898438
      vertex -0.134289031982422 0.0452000007629395 0.180252319335937
      vertex -0.134906509399414 0.0452000007629395 0.178487670898438
    endloop
  endfacet
  facet normal -0.982567143178891 0 0.18590806638033
    outer loop
      vertex -0.135390396118164 0.0432000007629395 0.17668180847168
      vertex -0.135390396118164 0.0452000007629395 0.17668180847168
      vertex -0.13573796081543 0.0452000007629395 0.174844848632812
    endloop
  endfacet
  facet normal -0.965924844791006 0 0.258822708075374
    outer loop
      vertex -0.135390396118164 0.0432000007629395 0.17668180847168
      vertex -0.134906509399414 0.0432000007629395 0.178487670898438
      vertex -0.135390396118164 0.0452000007629395 0.17668180847168
    endloop
  endfacet
  facet normal -0.982567143178891 0 0.18590806638033
    outer loop
      vertex -0.13573796081543 0.0432000007629395 0.174844848632812
      vertex -0.135390396118164 0.0432000007629395 0.17668180847168
      vertex -0.13573796081543 0.0452000007629395 0.174844848632812
    endloop
  endfacet
  facet normal -0.993712453665251 0 0.111962312545727
    outer loop
      vertex -0.135947280883789 0.0432000007629395 0.172987045288086
      vertex -0.13573796081543 0.0432000007629395 0.174844848632812
      vertex -0.13573796081543 0.0452000007629395 0.174844848632812
    endloop
  endfacet
  facet normal -0.993712453665251 0 0.111962312545727
    outer loop
      vertex -0.135947280883789 0.0432000007629395 0.172987045288086
      vertex -0.13573796081543 0.0452000007629395 0.174844848632812
      vertex -0.135947280883789 0.0452000007629395 0.172987045288086
    endloop
  endfacet
  facet normal -0.999300493351778 0 0.0373968446114592
    outer loop
      vertex -0.136017196655273 0.0432000007629395 0.171118789672852
      vertex -0.135947280883789 0.0432000007629395 0.172987045288086
      vertex -0.135947280883789 0.0452000007629395 0.172987045288086
    endloop
  endfacet
  facet normal -0.999300493351778 0 0.0373968446114592
    outer loop
      vertex -0.136017196655273 0.0432000007629395 0.171118789672852
      vertex -0.135947280883789 0.0452000007629395 0.172987045288086
      vertex -0.136017196655273 0.0452000007629395 0.171118789672852
    endloop
  endfacet
  facet normal 0 1 0
    outer loop
      vertex -0.131673156738281 0.0452000007629395 0.185201797485352
      vertex -0.130562973022461 0.0452000007629395 0.186706039428711
      vertex -0.129343490600586 0.0452000007629395 0.188123107910156
    endloop
  endfacet
  facet normal 0 1 0
    outer loop
      vertex -0.131673156738281 0.0452000007629395 0.185201797485352
      vertex -0.129343490600586 0.0452000007629395 0.188123107910156
      vertex -0.128021514892578 0.0452000007629395 0.189445083618164
    endloop
  endfacet
  facet normal 0 1 0
    outer loop
      vertex -0.123517189025879 0.0452000007629395 0.192769424438477
      vertex -0.126604438781738 0.0452000007629395 0.190664581298828
      vertex -0.125100196838379 0.0452000007629395 0.191774765014648
    endloop
  endfacet
  facet normal 0 1 0
    outer loop
      vertex -0.133541412353516 0.0452000007629395 0.181965881347656
      vertex -0.132667831420898 0.0452000007629395 0.183618789672852
      vertex -0.131673156738281 0.0452000007629395 0.185201797485352
    endloop
  endfacet
  facet normal 0 1 0
    outer loop
      vertex -0.118386070251465 0.0452000007629395 0.195008117675781
      vertex -0.121864288330078 0.0452000007629395 0.193643005371094
      vertex -0.120150718688965 0.0452000007629395 0.194390640258789
    endloop
  endfacet
  facet normal 0 1 0
    outer loop
      vertex -0.134906509399414 0.0452000007629395 0.178487670898438
      vertex -0.133541412353516 0.0452000007629395 0.181965881347656
      vertex -0.131673156738281 0.0452000007629395 0.185201797485352
    endloop
  endfacet
  facet normal 0 1 0
    outer loop
      vertex -0.134906509399414 0.0452000007629395 0.178487670898438
      vertex -0.134289031982422 0.0452000007629395 0.180252319335937
      vertex -0.133541412353516 0.0452000007629395 0.181965881347656
    endloop
  endfacet
  facet normal 0 1 0
    outer loop
      vertex -0.134906509399414 0.0452000007629395 0.178487670898438
      vertex -0.128021514892578 0.0452000007629395 0.189445083618164
      vertex -0.126604438781738 0.0452000007629395 0.190664581298828
    endloop
  endfacet
  facet normal 0 1 0
    outer loop
      vertex -0.134906509399414 0.0452000007629395 0.178487670898438
      vertex -0.131673156738281 0.0452000007629395 0.185201797485352
      vertex -0.128021514892578 0.0452000007629395 0.189445083618164
    endloop
  endfacet
  facet normal 0 1 0
    outer loop
      vertex -0.134906509399414 0.0452000007629395 0.178487670898438
      vertex -0.126604438781738 0.0452000007629395 0.190664581298828
      vertex -0.123517189025879 0.0452000007629395 0.192769424438477
    endloop
  endfacet
  facet normal 0 1 0
    outer loop
      vertex -0.13573796081543 0.0452000007629395 0.174844848632812
      vertex -0.135390396118164 0.0452000007629395 0.17668180847168
      vertex -0.134906509399414 0.0452000007629395 0.178487670898438
    endloop
  endfacet
  facet normal 0 1 0
    outer loop
      vertex -0.135947280883789 0.0452000007629395 0.172987045288086
      vertex -0.13573796081543 0.0452000007629395 0.174844848632812
      vertex -0.134906509399414 0.0452000007629395 0.178487670898438
    endloop
  endfacet
  facet normal 0 1 0
    outer loop
      vertex -0.112885444641113 0.0452000007629395 0.196048889160156
      vertex -0.121864288330078 0.0452000007629395 0.193643005371094
      vertex -0.118386070251465 0.0452000007629395 0.195008117675781
    endloop
  endfacet
  facet normal 0 1 0
    outer loop
      vertex -0.112885444641113 0.0452000007629395 0.196048889160156
      vertex -0.123517189025879 0.0452000007629395 0.192769424438477
      vertex -0.121864288330078 0.0452000007629395 0.193643005371094
    endloop
  endfacet
  facet normal 0 1 0
    outer loop
      vertex -0.112885444641113 0.0452000007629395 0.196048889160156
      vertex -0.118386070251465 0.0452000007629395 0.195008117675781
      vertex -0.116580215454102 0.0452000007629395 0.195491989135742
    endloop
  endfacet
  facet normal 0 1 0
    outer loop
      vertex -0.112885444641113 0.0452000007629395 0.196048889160156
      vertex -0.116580215454102 0.0452000007629395 0.195491989135742
      vertex -0.11474324798584 0.0452000007629395 0.195839553833008
    endloop
  endfacet
  facet normal 0 1 0
    outer loop
      vertex -0.109148941040039 0.0452000007629395 0.196048889160156
      vertex -0.112885444641113 0.0452000007629395 0.196048889160156
      vertex -0.111017189025879 0.0452000007629395 0.196118789672852
    endloop
  endfacet
  facet normal 0 1 0
    outer loop
      vertex -0.107291137695312 0.0452000007629395 0.195839553833008
      vertex -0.112885444641113 0.0452000007629395 0.196048889160156
      vertex -0.109148941040039 0.0452000007629395 0.196048889160156
    endloop
  endfacet
  facet normal 0 1 0
    outer loop
      vertex -0.107291137695312 0.0452000007629395 0.195839553833008
      vertex -0.123517189025879 0.0452000007629395 0.192769424438477
      vertex -0.112885444641113 0.0452000007629395 0.196048889160156
    endloop
  endfacet
  facet normal 0 1 0
    outer loop
      vertex -0.135390396118164 0.0452000007629395 0.165555770874023
      vertex -0.136017196655273 0.0452000007629395 0.171118789672852
      vertex -0.135947280883789 0.0452000007629395 0.172987045288086
    endloop
  endfacet
  facet normal 0 1 0
    outer loop
      vertex -0.135390396118164 0.0452000007629395 0.165555770874023
      vertex -0.13573796081543 0.0452000007629395 0.167392730712891
      vertex -0.135947280883789 0.0452000007629395 0.169250534057617
    endloop
  endfacet
  facet normal 0 1 0
    outer loop
      vertex -0.135390396118164 0.0452000007629395 0.165555770874023
      vertex -0.135947280883789 0.0452000007629395 0.169250534057617
      vertex -0.136017196655273 0.0452000007629395 0.171118789672852
    endloop
  endfacet
  facet normal 0 1 -0
    outer loop
      vertex -0.134906509399414 0.0452000007629395 0.163749908447266
      vertex -0.135947280883789 0.0452000007629395 0.172987045288086
      vertex -0.134906509399414 0.0452000007629395 0.178487670898438
    endloop
  endfacet
  facet normal 0 1 0
    outer loop
      vertex -0.134906509399414 0.0452000007629395 0.163749908447266
      vertex -0.135390396118164 0.0452000007629395 0.165555770874023
      vertex -0.135947280883789 0.0452000007629395 0.172987045288086
    endloop
  endfacet
  facet normal 0 1 0
    outer loop
      vertex -0.0985171890258789 0.0452000007629395 0.192769424438477
      vertex -0.107291137695312 0.0452000007629395 0.195839553833008
      vertex -0.105454170227051 0.0452000007629395 0.195491989135742
    endloop
  endfacet
  facet normal 0 1 0
    outer loop
      vertex -0.0985171890258789 0.0452000007629395 0.192769424438477
      vertex -0.105454170227051 0.0452000007629395 0.195491989135742
      vertex -0.103648315429687 0.0452000007629395 0.195008117675781
    endloop
  endfacet
  facet normal 0 1 0
    outer loop
      vertex -0.0985171890258789 0.0452000007629395 0.192769424438477
      vertex -0.103648315429687 0.0452000007629395 0.195008117675781
      vertex -0.101883666992187 0.0452000007629395 0.194390640258789
    endloop
  endfacet
  facet normal 0 1 0
    outer loop
      vertex -0.0985171890258789 0.0452000007629395 0.192769424438477
      vertex -0.101883666992187 0.0452000007629395 0.194390640258789
      vertex -0.100170097351074 0.0452000007629395 0.193643005371094
    endloop
  endfacet
  facet normal 0 1 0
    outer loop
      vertex -0.131673156738281 0.0452000007629395 0.157035781860352
      vertex -0.132667831420898 0.0452000007629395 0.158618789672852
      vertex -0.133541412353516 0.0452000007629395 0.160271697998047
    endloop
  endfacet
  facet normal 0 1 0
    outer loop
      vertex -0.131673156738281 0.0452000007629395 0.157035781860352
      vertex -0.133541412353516 0.0452000007629395 0.160271697998047
      vertex -0.134289031982422 0.0452000007629395 0.161985260009766
    endloop
  endfacet
  facet normal 0 1 0
    outer loop
      vertex -0.130562973022461 0.0452000007629395 0.155531539916992
      vertex -0.131673156738281 0.0452000007629395 0.157035781860352
      vertex -0.134289031982422 0.0452000007629395 0.161985260009766
    endloop
  endfacet
  facet normal 0 1 0
    outer loop
      vertex -0.128021514892578 0.0452000007629395 0.152792495727539
      vertex -0.129343490600586 0.0452000007629395 0.154114471435547
      vertex -0.130562973022461 0.0452000007629395 0.155531539916992
    endloop
  endfacet
  facet normal 0 1 0
    outer loop
      vertex -0.0926908950805664 0.0452000007629395 0.188123107910156
      vertex -0.0969341888427734 0.0452000007629395 0.191774765014648
      vertex -0.0954299468994141 0.0452000007629395 0.190664581298828
    endloop
  endfacet
  facet normal 0 1 0
    outer loop
      vertex -0.0926908950805664 0.0452000007629395 0.188123107910156
      vertex -0.0954299468994141 0.0452000007629395 0.190664581298828
      vertex -0.0940128707885742 0.0452000007629395 0.189445083618164
    endloop
  endfacet
  facet normal 0 1 -0
    outer loop
      vertex -0.126604438781738 0.0452000007629395 0.151572998046875
      vertex -0.134906509399414 0.0452000007629395 0.178487670898438
      vertex -0.123517189025879 0.0452000007629395 0.192769424438477
    endloop
  endfacet
  facet normal 0 1 0
    outer loop
      vertex -0.126604438781738 0.0452000007629395 0.151572998046875
      vertex -0.123517189025879 0.0452000007629395 0.192769424438477
      vertex -0.107291137695312 0.0452000007629395 0.195839553833008
    endloop
  endfacet
  facet normal 0 1 0
    outer loop
      vertex -0.126604438781738 0.0452000007629395 0.151572998046875
      vertex -0.134906509399414 0.0452000007629395 0.163749908447266
      vertex -0.134906509399414 0.0452000007629395 0.178487670898438
    endloop
  endfacet
  facet normal 0 1 0
    outer loop
      vertex -0.126604438781738 0.0452000007629395 0.151572998046875
      vertex -0.128021514892578 0.0452000007629395 0.152792495727539
      vertex -0.130562973022461 0.0452000007629395 0.155531539916992
    endloop
  endfacet
  facet normal 0 1 0
    outer loop
      vertex -0.126604438781738 0.0452000007629395 0.151572998046875
      vertex -0.130562973022461 0.0452000007629395 0.155531539916992
      vertex -0.134289031982422 0.0452000007629395 0.161985260009766
    endloop
  endfacet
  facet normal 0 1 0
    outer loop
      vertex -0.126604438781738 0.0452000007629395 0.151572998046875
      vertex -0.134289031982422 0.0452000007629395 0.161985260009766
      vertex -0.134906509399414 0.0452000007629395 0.163749908447266
    endloop
  endfacet
  facet normal 0 1 0
    outer loop
      vertex -0.121864288330078 0.0452000007629395 0.148594573974609
      vertex -0.107291137695312 0.0452000007629395 0.195839553833008
      vertex -0.0985171890258789 0.0452000007629395 0.192769424438477
    endloop
  endfacet
  facet normal 0 1 -0
    outer loop
      vertex -0.121864288330078 0.0452000007629395 0.148594573974609
      vertex -0.126604438781738 0.0452000007629395 0.151572998046875
      vertex -0.107291137695312 0.0452000007629395 0.195839553833008
    endloop
  endfacet
  facet normal 0 1 0
    outer loop
      vertex -0.121864288330078 0.0452000007629395 0.148594573974609
      vertex -0.123517189025879 0.0452000007629395 0.149468154907227
      vertex -0.125100196838379 0.0452000007629395 0.150462814331055
    endloop
  endfacet
  facet normal 0 1 0
    outer loop
      vertex -0.121864288330078 0.0452000007629395 0.148594573974609
      vertex -0.125100196838379 0.0452000007629395 0.150462814331055
      vertex -0.126604438781738 0.0452000007629395 0.151572998046875
    endloop
  endfacet
  facet normal 0 1 0
    outer loop
      vertex -0.0884929733276367 0.0452000007629395 0.181965881347656
      vertex -0.0926908950805664 0.0452000007629395 0.188123107910156
      vertex -0.0914714050292969 0.0452000007629395 0.186706039428711
    endloop
  endfacet
  facet normal 0 1 0
    outer loop
      vertex -0.0884929733276367 0.0452000007629395 0.181965881347656
      vertex -0.0914714050292969 0.0452000007629395 0.186706039428711
      vertex -0.0903612213134766 0.0452000007629395 0.185201797485352
    endloop
  endfacet
  facet normal 0 1 0
    outer loop
      vertex -0.0884929733276367 0.0452000007629395 0.181965881347656
      vertex -0.0903612213134766 0.0452000007629395 0.185201797485352
      vertex -0.0893665542602539 0.0452000007629395 0.183618789672852
    endloop
  endfacet
  facet normal 0 1 0
    outer loop
      vertex -0.0877453460693359 0.0452000007629395 0.180252319335937
      vertex -0.0969341888427734 0.0452000007629395 0.191774765014648
      vertex -0.0926908950805664 0.0452000007629395 0.188123107910156
    endloop
  endfacet
  facet normal 0 1 0
    outer loop
      vertex -0.0877453460693359 0.0452000007629395 0.180252319335937
      vertex -0.0926908950805664 0.0452000007629395 0.188123107910156
      vertex -0.0884929733276367 0.0452000007629395 0.181965881347656
    endloop
  endfacet
  facet normal 0 1 0
    outer loop
      vertex -0.118386070251465 0.0452000007629395 0.147229476928711
      vertex -0.120150718688965 0.0452000007629395 0.147846954345703
      vertex -0.121864288330078 0.0452000007629395 0.148594573974609
    endloop
  endfacet
  facet normal 0 1 -0
    outer loop
      vertex -0.118386070251465 0.0452000007629395 0.147229476928711
      vertex -0.121864288330078 0.0452000007629395 0.148594573974609
      vertex -0.0985171890258789 0.0452000007629395 0.192769424438477
    endloop
  endfacet
  facet normal 0 1 0
    outer loop
      vertex -0.116580215454102 0.0452000007629395 0.146745590209961
      vertex -0.0985171890258789 0.0452000007629395 0.192769424438477
      vertex -0.0969341888427734 0.0452000007629395 0.191774765014648
    endloop
  endfacet
  facet normal 0 1 -0
    outer loop
      vertex -0.116580215454102 0.0452000007629395 0.146745590209961
      vertex -0.118386070251465 0.0452000007629395 0.147229476928711
      vertex -0.0985171890258789 0.0452000007629395 0.192769424438477
    endloop
  endfacet
  facet normal 0 1 -0
    outer loop
      vertex -0.11474324798584 0.0452000007629395 0.146398025512695
      vertex -0.116580215454102 0.0452000007629395 0.146745590209961
      vertex -0.0969341888427734 0.0452000007629395 0.191774765014648
    endloop
  endfacet
  facet normal 0 1 0
    outer loop
      vertex -0.0862964248657227 0.0452000007629395 0.174844848632812
      vertex -0.0877453460693359 0.0452000007629395 0.180252319335937
      vertex -0.0871278686523437 0.0452000007629395 0.178487670898438
    endloop
  endfacet
  facet normal 0 1 0
    outer loop
      vertex -0.0862964248657227 0.0452000007629395 0.174844848632812
      vertex -0.0871278686523437 0.0452000007629395 0.178487670898438
      vertex -0.0866439971923828 0.0452000007629395 0.17668180847168
    endloop
  endfacet
  facet normal 0 1 0
    outer loop
      vertex -0.0860171890258789 0.0452000007629395 0.171118789672852
      vertex -0.0877453460693359 0.0452000007629395 0.180252319335937
      vertex -0.0862964248657227 0.0452000007629395 0.174844848632812
    endloop
  endfacet
  facet normal 0 1 0
    outer loop
      vertex -0.0860171890258789 0.0452000007629395 0.171118789672852
      vertex -0.0862964248657227 0.0452000007629395 0.174844848632812
      vertex -0.0860870971679688 0.0452000007629395 0.172987045288086
    endloop
  endfacet
  facet normal 0 1 0
    outer loop
      vertex -0.107291137695312 0.0452000007629395 0.146398025512695
      vertex -0.109148941040039 0.0452000007629395 0.146188690185547
      vertex -0.111017189025879 0.0452000007629395 0.146118789672852
    endloop
  endfacet
  facet normal 0 1 0
    outer loop
      vertex -0.107291137695312 0.0452000007629395 0.146398025512695
      vertex -0.111017189025879 0.0452000007629395 0.146118789672852
      vertex -0.112885444641113 0.0452000007629395 0.146188690185547
    endloop
  endfacet
  facet normal 0 1 0
    outer loop
      vertex -0.0862964248657227 0.0452000007629395 0.167392730712891
      vertex -0.0860171890258789 0.0452000007629395 0.171118789672852
      vertex -0.0860870971679688 0.0452000007629395 0.169250534057617
    endloop
  endfacet
  facet normal 0 1 0
    outer loop
      vertex -0.101883666992187 0.0452000007629395 0.147846954345703
      vertex -0.103648315429687 0.0452000007629395 0.147229476928711
      vertex -0.105454170227051 0.0452000007629395 0.146745590209961
    endloop
  endfacet
  facet normal 0 1 0
    outer loop
      vertex -0.100170097351074 0.0452000007629395 0.148594573974609
      vertex -0.101883666992187 0.0452000007629395 0.147846954345703
      vertex -0.105454170227051 0.0452000007629395 0.146745590209961
    endloop
  endfacet
  facet normal 0 1 0
    outer loop
      vertex -0.100170097351074 0.0452000007629395 0.148594573974609
      vertex -0.105454170227051 0.0452000007629395 0.146745590209961
      vertex -0.107291137695312 0.0452000007629395 0.146398025512695
    endloop
  endfacet
  facet normal 0 1 0
    outer loop
      vertex -0.0884929733276367 0.0452000007629395 0.160271697998047
      vertex -0.0877453460693359 0.0452000007629395 0.180252319335937
      vertex -0.0860171890258789 0.0452000007629395 0.171118789672852
    endloop
  endfacet
  facet normal 0 1 0
    outer loop
      vertex -0.0884929733276367 0.0452000007629395 0.160271697998047
      vertex -0.0860171890258789 0.0452000007629395 0.171118789672852
      vertex -0.0862964248657227 0.0452000007629395 0.167392730712891
    endloop
  endfacet
  facet normal 0 1 0
    outer loop
      vertex -0.0884929733276367 0.0452000007629395 0.160271697998047
      vertex -0.0862964248657227 0.0452000007629395 0.167392730712891
      vertex -0.0866439971923828 0.0452000007629395 0.165555770874023
    endloop
  endfacet
  facet normal 0 1 0
    outer loop
      vertex -0.0884929733276367 0.0452000007629395 0.160271697998047
      vertex -0.0866439971923828 0.0452000007629395 0.165555770874023
      vertex -0.0871278686523437 0.0452000007629395 0.163749908447266
    endloop
  endfacet
  facet normal 0 1 0
    outer loop
      vertex -0.0884929733276367 0.0452000007629395 0.160271697998047
      vertex -0.0871278686523437 0.0452000007629395 0.163749908447266
      vertex -0.0877453460693359 0.0452000007629395 0.161985260009766
    endloop
  endfacet
  facet normal 0 1 -0
    outer loop
      vertex -0.0884929733276367 0.0452000007629395 0.160271697998047
      vertex -0.0969341888427734 0.0452000007629395 0.191774765014648
      vertex -0.0877453460693359 0.0452000007629395 0.180252319335937
    endloop
  endfacet
  facet normal 0 1 -0
    outer loop
      vertex -0.0893665542602539 0.0452000007629395 0.158618789672852
      vertex -0.0969341888427734 0.0452000007629395 0.191774765014648
      vertex -0.0884929733276367 0.0452000007629395 0.160271697998047
    endloop
  endfacet
  facet normal 0 1 0
    outer loop
      vertex -0.0969341888427734 0.0452000007629395 0.150462814331055
      vertex -0.100170097351074 0.0452000007629395 0.148594573974609
      vertex -0.107291137695312 0.0452000007629395 0.146398025512695
    endloop
  endfacet
  facet normal 0 1 0
    outer loop
      vertex -0.0969341888427734 0.0452000007629395 0.150462814331055
      vertex -0.0985171890258789 0.0452000007629395 0.149468154907227
      vertex -0.100170097351074 0.0452000007629395 0.148594573974609
    endloop
  endfacet
  facet normal 0 1 0
    outer loop
      vertex -0.0914714050292969 0.0452000007629395 0.155531539916992
      vertex -0.0893665542602539 0.0452000007629395 0.158618789672852
      vertex -0.0903612213134766 0.0452000007629395 0.157035781860352
    endloop
  endfacet
  facet normal 0 1 0
    outer loop
      vertex -0.0940128707885742 0.0452000007629395 0.152792495727539
      vertex -0.107291137695312 0.0452000007629395 0.146398025512695
      vertex -0.112885444641113 0.0452000007629395 0.146188690185547
    endloop
  endfacet
  facet normal 0 1 0
    outer loop
      vertex -0.0940128707885742 0.0452000007629395 0.152792495727539
      vertex -0.0969341888427734 0.0452000007629395 0.150462814331055
      vertex -0.107291137695312 0.0452000007629395 0.146398025512695
    endloop
  endfacet
  facet normal 0 1 0
    outer loop
      vertex -0.0940128707885742 0.0452000007629395 0.152792495727539
      vertex -0.0954299468994141 0.0452000007629395 0.151572998046875
      vertex -0.0969341888427734 0.0452000007629395 0.150462814331055
    endloop
  endfacet
  facet normal 0 1 0
    outer loop
      vertex -0.0940128707885742 0.0452000007629395 0.152792495727539
      vertex -0.112885444641113 0.0452000007629395 0.146188690185547
      vertex -0.11474324798584 0.0452000007629395 0.146398025512695
    endloop
  endfacet
  facet normal 0 1 0
    outer loop
      vertex -0.0926908950805664 0.0452000007629395 0.154114471435547
      vertex -0.11474324798584 0.0452000007629395 0.146398025512695
      vertex -0.0969341888427734 0.0452000007629395 0.191774765014648
    endloop
  endfacet
  facet normal 0 1 -0
    outer loop
      vertex -0.0926908950805664 0.0452000007629395 0.154114471435547
      vertex -0.0969341888427734 0.0452000007629395 0.191774765014648
      vertex -0.0893665542602539 0.0452000007629395 0.158618789672852
    endloop
  endfacet
  facet normal 0 1 0
    outer loop
      vertex -0.0926908950805664 0.0452000007629395 0.154114471435547
      vertex -0.0893665542602539 0.0452000007629395 0.158618789672852
      vertex -0.0914714050292969 0.0452000007629395 0.155531539916992
    endloop
  endfacet
  facet normal 0 1 0
    outer loop
      vertex -0.0926908950805664 0.0452000007629395 0.154114471435547
      vertex -0.0940128707885742 0.0452000007629395 0.152792495727539
      vertex -0.11474324798584 0.0452000007629395 0.146398025512695
    endloop
  endfacet
  facet normal 0 -1 -0
    outer loop
      vertex -0.129343490600586 0.0432000007629395 0.188123107910156
      vertex -0.130562973022461 0.0432000007629395 0.186706039428711
      vertex -0.128021514892578 0.0432000007629395 0.189445083618164
    endloop
  endfacet
  facet normal 0 -1 0
    outer loop
      vertex -0.128021514892578 0.0432000007629395 0.189445083618164
      vertex -0.125100196838379 0.0432000007629395 0.191774765014648
      vertex -0.126604438781738 0.0432000007629395 0.190664581298828
    endloop
  endfacet
  facet normal 0 -1 0
    outer loop
      vertex -0.130562973022461 0.0432000007629395 0.186706039428711
      vertex -0.125100196838379 0.0432000007629395 0.191774765014648
      vertex -0.128021514892578 0.0432000007629395 0.189445083618164
    endloop
  endfacet
  facet normal 0 -1 0
    outer loop
      vertex -0.125100196838379 0.0432000007629395 0.191774765014648
      vertex -0.121864288330078 0.0432000007629395 0.193643005371094
      vertex -0.123517189025879 0.0432000007629395 0.192769424438477
    endloop
  endfacet
  facet normal 0 -1 -0
    outer loop
      vertex -0.131673156738281 0.0432000007629395 0.185201797485352
      vertex -0.133541412353516 0.0432000007629395 0.181965881347656
      vertex -0.130562973022461 0.0432000007629395 0.186706039428711
    endloop
  endfacet
  facet normal 0 -1 -0
    outer loop
      vertex -0.132667831420898 0.0432000007629395 0.183618789672852
      vertex -0.133541412353516 0.0432000007629395 0.181965881347656
      vertex -0.131673156738281 0.0432000007629395 0.185201797485352
    endloop
  endfacet
  facet normal 0 -1 -0
    outer loop
      vertex -0.125100196838379 0.0432000007629395 0.191774765014648
      vertex -0.133541412353516 0.0432000007629395 0.181965881347656
      vertex -0.121864288330078 0.0432000007629395 0.193643005371094
    endloop
  endfacet
  facet normal 0 -1 -0
    outer loop
      vertex -0.130562973022461 0.0432000007629395 0.186706039428711
      vertex -0.133541412353516 0.0432000007629395 0.181965881347656
      vertex -0.125100196838379 0.0432000007629395 0.191774765014648
    endloop
  endfacet
  facet normal 0 -1 0
    outer loop
      vertex -0.118386070251465 0.0432000007629395 0.195008117675781
      vertex -0.11474324798584 0.0432000007629395 0.195839553833008
      vertex -0.116580215454102 0.0432000007629395 0.195491989135742
    endloop
  endfacet
  facet normal 0 -1 0
    outer loop
      vertex -0.120150718688965 0.0432000007629395 0.194390640258789
      vertex -0.11474324798584 0.0432000007629395 0.195839553833008
      vertex -0.118386070251465 0.0432000007629395 0.195008117675781
    endloop
  endfacet
  facet normal 0 -1 0
    outer loop
      vertex -0.121864288330078 0.0432000007629395 0.193643005371094
      vertex -0.11474324798584 0.0432000007629395 0.195839553833008
      vertex -0.120150718688965 0.0432000007629395 0.194390640258789
    endloop
  endfacet
  facet normal 0 -1 -0
    outer loop
      vertex -0.135947280883789 0.0432000007629395 0.172987045288086
      vertex -0.136017196655273 0.0432000007629395 0.171118789672852
      vertex -0.13573796081543 0.0432000007629395 0.174844848632812
    endloop
  endfacet
  facet normal 0 -1 0
    outer loop
      vertex -0.112885444641113 0.0432000007629395 0.196048889160156
      vertex -0.109148941040039 0.0432000007629395 0.196048889160156
      vertex -0.111017189025879 0.0432000007629395 0.196118789672852
    endloop
  endfacet
  facet normal 0 -1 0
    outer loop
      vertex -0.136017196655273 0.0432000007629395 0.171118789672852
      vertex -0.135947280883789 0.0432000007629395 0.169250534057617
      vertex -0.13573796081543 0.0432000007629395 0.174844848632812
    endloop
  endfacet
  facet normal 0 -1 -0
    outer loop
      vertex -0.134906509399414 0.0432000007629395 0.178487670898438
      vertex -0.135947280883789 0.0432000007629395 0.169250534057617
      vertex -0.134289031982422 0.0432000007629395 0.180252319335937
    endloop
  endfacet
  facet normal 0 -1 -0
    outer loop
      vertex -0.135390396118164 0.0432000007629395 0.17668180847168
      vertex -0.135947280883789 0.0432000007629395 0.169250534057617
      vertex -0.134906509399414 0.0432000007629395 0.178487670898438
    endloop
  endfacet
  facet normal 0 -1 -0
    outer loop
      vertex -0.13573796081543 0.0432000007629395 0.174844848632812
      vertex -0.135947280883789 0.0432000007629395 0.169250534057617
      vertex -0.135390396118164 0.0432000007629395 0.17668180847168
    endloop
  endfacet
  facet normal 0 -1 0
    outer loop
      vertex -0.112885444641113 0.0432000007629395 0.196048889160156
      vertex -0.105454170227051 0.0432000007629395 0.195491989135742
      vertex -0.109148941040039 0.0432000007629395 0.196048889160156
    endloop
  endfacet
  facet normal 0 -1 0
    outer loop
      vertex -0.109148941040039 0.0432000007629395 0.196048889160156
      vertex -0.105454170227051 0.0432000007629395 0.195491989135742
      vertex -0.107291137695312 0.0432000007629395 0.195839553833008
    endloop
  endfacet
  facet normal 0 -1 0
    outer loop
      vertex -0.11474324798584 0.0432000007629395 0.195839553833008
      vertex -0.105454170227051 0.0432000007629395 0.195491989135742
      vertex -0.112885444641113 0.0432000007629395 0.196048889160156
    endloop
  endfacet
  facet normal 0 -1 0
    outer loop
      vertex -0.13573796081543 0.0432000007629395 0.167392730712891
      vertex -0.134906509399414 0.0432000007629395 0.163749908447266
      vertex -0.135947280883789 0.0432000007629395 0.169250534057617
    endloop
  endfacet
  facet normal 0 -1 0
    outer loop
      vertex -0.135390396118164 0.0432000007629395 0.165555770874023
      vertex -0.134906509399414 0.0432000007629395 0.163749908447266
      vertex -0.13573796081543 0.0432000007629395 0.167392730712891
    endloop
  endfacet
  facet normal 0 -1 -0
    outer loop
      vertex -0.133541412353516 0.0432000007629395 0.181965881347656
      vertex -0.134906509399414 0.0432000007629395 0.163749908447266
      vertex -0.121864288330078 0.0432000007629395 0.193643005371094
    endloop
  endfacet
  facet normal 0 -1 -0
    outer loop
      vertex -0.121864288330078 0.0432000007629395 0.193643005371094
      vertex -0.134906509399414 0.0432000007629395 0.163749908447266
      vertex -0.11474324798584 0.0432000007629395 0.195839553833008
    endloop
  endfacet
  facet normal 0 -1 0
    outer loop
      vertex -0.135947280883789 0.0432000007629395 0.169250534057617
      vertex -0.134906509399414 0.0432000007629395 0.163749908447266
      vertex -0.134289031982422 0.0432000007629395 0.180252319335937
    endloop
  endfacet
  facet normal 0 -1 -0
    outer loop
      vertex -0.134289031982422 0.0432000007629395 0.180252319335937
      vertex -0.134906509399414 0.0432000007629395 0.163749908447266
      vertex -0.133541412353516 0.0432000007629395 0.181965881347656
    endloop
  endfacet
  facet normal 0 -1 0
    outer loop
      vertex -0.11474324798584 0.0432000007629395 0.195839553833008
      vertex -0.101883666992187 0.0432000007629395 0.194390640258789
      vertex -0.105454170227051 0.0432000007629395 0.195491989135742
    endloop
  endfacet
  facet normal 0 -1 0
    outer loop
      vertex -0.105454170227051 0.0432000007629395 0.195491989135742
      vertex -0.101883666992187 0.0432000007629395 0.194390640258789
      vertex -0.103648315429687 0.0432000007629395 0.195008117675781
    endloop
  endfacet
  facet normal 0 -1 0
    outer loop
      vertex -0.134289031982422 0.0432000007629395 0.161985260009766
      vertex -0.133541412353516 0.0432000007629395 0.160271697998047
      vertex -0.134906509399414 0.0432000007629395 0.163749908447266
    endloop
  endfacet
  facet normal 0 -1 0
    outer loop
      vertex -0.134906509399414 0.0432000007629395 0.163749908447266
      vertex -0.133541412353516 0.0432000007629395 0.160271697998047
      vertex -0.11474324798584 0.0432000007629395 0.195839553833008
    endloop
  endfacet
  facet normal 0 -1 0
    outer loop
      vertex -0.11474324798584 0.0432000007629395 0.195839553833008
      vertex -0.0985171890258789 0.0432000007629395 0.192769424438477
      vertex -0.101883666992187 0.0432000007629395 0.194390640258789
    endloop
  endfacet
  facet normal 0 -1 0
    outer loop
      vertex -0.101883666992187 0.0432000007629395 0.194390640258789
      vertex -0.0985171890258789 0.0432000007629395 0.192769424438477
      vertex -0.100170097351074 0.0432000007629395 0.193643005371094
    endloop
  endfacet
  facet normal 0 -1 0
    outer loop
      vertex -0.132667831420898 0.0432000007629395 0.158618789672852
      vertex -0.131673156738281 0.0432000007629395 0.157035781860352
      vertex -0.133541412353516 0.0432000007629395 0.160271697998047
    endloop
  endfacet
  facet normal 0 -1 0
    outer loop
      vertex -0.130562973022461 0.0432000007629395 0.155531539916992
      vertex -0.128021514892578 0.0432000007629395 0.152792495727539
      vertex -0.131673156738281 0.0432000007629395 0.157035781860352
    endloop
  endfacet
  facet normal 0 -1 0
    outer loop
      vertex -0.129343490600586 0.0432000007629395 0.154114471435547
      vertex -0.128021514892578 0.0432000007629395 0.152792495727539
      vertex -0.130562973022461 0.0432000007629395 0.155531539916992
    endloop
  endfacet
  facet normal 0 -1 0
    outer loop
      vertex -0.131673156738281 0.0432000007629395 0.157035781860352
      vertex -0.128021514892578 0.0432000007629395 0.152792495727539
      vertex -0.133541412353516 0.0432000007629395 0.160271697998047
    endloop
  endfacet
  facet normal 0 -1 0
    outer loop
      vertex -0.0940128707885742 0.0432000007629395 0.189445083618164
      vertex -0.0914714050292969 0.0432000007629395 0.186706039428711
      vertex -0.0926908950805664 0.0432000007629395 0.188123107910156
    endloop
  endfacet
  facet normal 0 -1 0
    outer loop
      vertex -0.0954299468994141 0.0432000007629395 0.190664581298828
      vertex -0.0914714050292969 0.0432000007629395 0.186706039428711
      vertex -0.0940128707885742 0.0432000007629395 0.189445083618164
    endloop
  endfacet
  facet normal 0 -1 0
    outer loop
      vertex -0.0969341888427734 0.0432000007629395 0.191774765014648
      vertex -0.0903612213134766 0.0432000007629395 0.185201797485352
      vertex -0.0954299468994141 0.0432000007629395 0.190664581298828
    endloop
  endfacet
  facet normal 0 -1 0
    outer loop
      vertex -0.0954299468994141 0.0432000007629395 0.190664581298828
      vertex -0.0903612213134766 0.0432000007629395 0.185201797485352
      vertex -0.0914714050292969 0.0432000007629395 0.186706039428711
    endloop
  endfacet
  facet normal 0 -1 0
    outer loop
      vertex -0.126604438781738 0.0432000007629395 0.151572998046875
      vertex -0.125100196838379 0.0432000007629395 0.150462814331055
      vertex -0.128021514892578 0.0432000007629395 0.152792495727539
    endloop
  endfacet
  facet normal 0 -1 0
    outer loop
      vertex -0.11474324798584 0.0432000007629395 0.195839553833008
      vertex -0.0893665542602539 0.0432000007629395 0.183618789672852
      vertex -0.0985171890258789 0.0432000007629395 0.192769424438477
    endloop
  endfacet
  facet normal 0 -1 0
    outer loop
      vertex -0.0985171890258789 0.0432000007629395 0.192769424438477
      vertex -0.0893665542602539 0.0432000007629395 0.183618789672852
      vertex -0.0969341888427734 0.0432000007629395 0.191774765014648
    endloop
  endfacet
  facet normal 0 -1 0
    outer loop
      vertex -0.0969341888427734 0.0432000007629395 0.191774765014648
      vertex -0.0893665542602539 0.0432000007629395 0.183618789672852
      vertex -0.0903612213134766 0.0432000007629395 0.185201797485352
    endloop
  endfacet
  facet normal 0 -1 0
    outer loop
      vertex -0.123517189025879 0.0432000007629395 0.149468154907227
      vertex -0.120150718688965 0.0432000007629395 0.147846954345703
      vertex -0.125100196838379 0.0432000007629395 0.150462814331055
    endloop
  endfacet
  facet normal 0 -1 0
    outer loop
      vertex -0.121864288330078 0.0432000007629395 0.148594573974609
      vertex -0.120150718688965 0.0432000007629395 0.147846954345703
      vertex -0.123517189025879 0.0432000007629395 0.149468154907227
    endloop
  endfacet
  facet normal 0 -1 0
    outer loop
      vertex -0.125100196838379 0.0432000007629395 0.150462814331055
      vertex -0.120150718688965 0.0432000007629395 0.147846954345703
      vertex -0.128021514892578 0.0432000007629395 0.152792495727539
    endloop
  endfacet
  facet normal 0 -1 0
    outer loop
      vertex -0.0884929733276367 0.0432000007629395 0.181965881347656
      vertex -0.0871278686523437 0.0432000007629395 0.178487670898438
      vertex -0.0877453460693359 0.0432000007629395 0.180252319335937
    endloop
  endfacet
  facet normal 0 -1 0
    outer loop
      vertex -0.0893665542602539 0.0432000007629395 0.183618789672852
      vertex -0.0871278686523437 0.0432000007629395 0.178487670898438
      vertex -0.0884929733276367 0.0432000007629395 0.181965881347656
    endloop
  endfacet
  facet normal 0 -1 0
    outer loop
      vertex -0.133541412353516 0.0432000007629395 0.160271697998047
      vertex -0.118386070251465 0.0432000007629395 0.147229476928711
      vertex -0.11474324798584 0.0432000007629395 0.195839553833008
    endloop
  endfacet
  facet normal 0 -1 0
    outer loop
      vertex -0.128021514892578 0.0432000007629395 0.152792495727539
      vertex -0.118386070251465 0.0432000007629395 0.147229476928711
      vertex -0.133541412353516 0.0432000007629395 0.160271697998047
    endloop
  endfacet
  facet normal 0 -1 0
    outer loop
      vertex -0.120150718688965 0.0432000007629395 0.147846954345703
      vertex -0.118386070251465 0.0432000007629395 0.147229476928711
      vertex -0.128021514892578 0.0432000007629395 0.152792495727539
    endloop
  endfacet
  facet normal 0 -1 0
    outer loop
      vertex -0.0871278686523437 0.0432000007629395 0.178487670898438
      vertex -0.0862964248657227 0.0432000007629395 0.174844848632812
      vertex -0.0866439971923828 0.0432000007629395 0.17668180847168
    endloop
  endfacet
  facet normal 0 -1 0
    outer loop
      vertex -0.0893665542602539 0.0432000007629395 0.183618789672852
      vertex -0.0862964248657227 0.0432000007629395 0.174844848632812
      vertex -0.0871278686523437 0.0432000007629395 0.178487670898438
    endloop
  endfacet
  facet normal 0 -1 0
    outer loop
      vertex -0.116580215454102 0.0432000007629395 0.146745590209961
      vertex -0.11474324798584 0.0432000007629395 0.146398025512695
      vertex -0.118386070251465 0.0432000007629395 0.147229476928711
    endloop
  endfacet
  facet normal 0 -1 0
    outer loop
      vertex -0.0860870971679688 0.0432000007629395 0.172987045288086
      vertex -0.0860870971679688 0.0432000007629395 0.169250534057617
      vertex -0.0860171890258789 0.0432000007629395 0.171118789672852
    endloop
  endfacet
  facet normal 0 -1 0
    outer loop
      vertex -0.0862964248657227 0.0432000007629395 0.174844848632812
      vertex -0.0860870971679688 0.0432000007629395 0.169250534057617
      vertex -0.0860870971679688 0.0432000007629395 0.172987045288086
    endloop
  endfacet
  facet normal 0 -1 0
    outer loop
      vertex -0.11474324798584 0.0432000007629395 0.146398025512695
      vertex -0.107291137695312 0.0432000007629395 0.146398025512695
      vertex -0.118386070251465 0.0432000007629395 0.147229476928711
    endloop
  endfacet
  facet normal 0 -1 0
    outer loop
      vertex -0.112885444641113 0.0432000007629395 0.146188690185547
      vertex -0.107291137695312 0.0432000007629395 0.146398025512695
      vertex -0.11474324798584 0.0432000007629395 0.146398025512695
    endloop
  endfacet
  facet normal 0 -1 0
    outer loop
      vertex -0.111017189025879 0.0432000007629395 0.146118789672852
      vertex -0.107291137695312 0.0432000007629395 0.146398025512695
      vertex -0.112885444641113 0.0432000007629395 0.146188690185547
    endloop
  endfacet
  facet normal -0 -1 0
    outer loop
      vertex -0.109148941040039 0.0432000007629395 0.146188690185547
      vertex -0.107291137695312 0.0432000007629395 0.146398025512695
      vertex -0.111017189025879 0.0432000007629395 0.146118789672852
    endloop
  endfacet
  facet normal 0 -1 -0
    outer loop
      vertex -0.0862964248657227 0.0432000007629395 0.174844848632812
      vertex -0.0866439971923828 0.0432000007629395 0.165555770874023
      vertex -0.0860870971679688 0.0432000007629395 0.169250534057617
    endloop
  endfacet
  facet normal 0 -1 0
    outer loop
      vertex -0.0860870971679688 0.0432000007629395 0.169250534057617
      vertex -0.0866439971923828 0.0432000007629395 0.165555770874023
      vertex -0.0862964248657227 0.0432000007629395 0.167392730712891
    endloop
  endfacet
  facet normal 0 -1 0
    outer loop
      vertex -0.0862964248657227 0.0432000007629395 0.174844848632812
      vertex -0.0871278686523437 0.0432000007629395 0.163749908447266
      vertex -0.0866439971923828 0.0432000007629395 0.165555770874023
    endloop
  endfacet
  facet normal -0 -1 0
    outer loop
      vertex -0.105454170227051 0.0432000007629395 0.146745590209961
      vertex -0.103648315429687 0.0432000007629395 0.147229476928711
      vertex -0.107291137695312 0.0432000007629395 0.146398025512695
    endloop
  endfacet
  facet normal 0 -1 0
    outer loop
      vertex -0.107291137695312 0.0432000007629395 0.146398025512695
      vertex -0.101883666992187 0.0432000007629395 0.147846954345703
      vertex -0.118386070251465 0.0432000007629395 0.147229476928711
    endloop
  endfacet
  facet normal -0 -1 0
    outer loop
      vertex -0.103648315429687 0.0432000007629395 0.147229476928711
      vertex -0.101883666992187 0.0432000007629395 0.147846954345703
      vertex -0.107291137695312 0.0432000007629395 0.146398025512695
    endloop
  endfacet
  facet normal 0 -1 0
    outer loop
      vertex -0.0877453460693359 0.0432000007629395 0.161985260009766
      vertex -0.0893665542602539 0.0432000007629395 0.158618789672852
      vertex -0.0884929733276367 0.0432000007629395 0.160271697998047
    endloop
  endfacet
  facet normal 0 -1 0
    outer loop
      vertex -0.0871278686523437 0.0432000007629395 0.163749908447266
      vertex -0.0893665542602539 0.0432000007629395 0.158618789672852
      vertex -0.0877453460693359 0.0432000007629395 0.161985260009766
    endloop
  endfacet
  facet normal 0 -1 0
    outer loop
      vertex -0.0862964248657227 0.0432000007629395 0.174844848632812
      vertex -0.0903612213134766 0.0432000007629395 0.157035781860352
      vertex -0.0871278686523437 0.0432000007629395 0.163749908447266
    endloop
  endfacet
  facet normal 0 -1 0
    outer loop
      vertex -0.0871278686523437 0.0432000007629395 0.163749908447266
      vertex -0.0903612213134766 0.0432000007629395 0.157035781860352
      vertex -0.0893665542602539 0.0432000007629395 0.158618789672852
    endloop
  endfacet
  facet normal -0 -1 0
    outer loop
      vertex -0.100170097351074 0.0432000007629395 0.148594573974609
      vertex -0.0969341888427734 0.0432000007629395 0.150462814331055
      vertex -0.101883666992187 0.0432000007629395 0.147846954345703
    endloop
  endfacet
  facet normal -0 -1 0
    outer loop
      vertex -0.0985171890258789 0.0432000007629395 0.149468154907227
      vertex -0.0969341888427734 0.0432000007629395 0.150462814331055
      vertex -0.100170097351074 0.0432000007629395 0.148594573974609
    endloop
  endfacet
  facet normal -0 -1 0
    outer loop
      vertex -0.101883666992187 0.0432000007629395 0.147846954345703
      vertex -0.0969341888427734 0.0432000007629395 0.150462814331055
      vertex -0.118386070251465 0.0432000007629395 0.147229476928711
    endloop
  endfacet
  facet normal 0 -1 0
    outer loop
      vertex -0.118386070251465 0.0432000007629395 0.147229476928711
      vertex -0.0969341888427734 0.0432000007629395 0.150462814331055
      vertex -0.11474324798584 0.0432000007629395 0.195839553833008
    endloop
  endfacet
  facet normal 0 -1 -0
    outer loop
      vertex -0.0893665542602539 0.0432000007629395 0.183618789672852
      vertex -0.0926908950805664 0.0432000007629395 0.154114471435547
      vertex -0.0862964248657227 0.0432000007629395 0.174844848632812
    endloop
  endfacet
  facet normal 0 -1 0
    outer loop
      vertex -0.0903612213134766 0.0432000007629395 0.157035781860352
      vertex -0.0926908950805664 0.0432000007629395 0.154114471435547
      vertex -0.0914714050292969 0.0432000007629395 0.155531539916992
    endloop
  endfacet
  facet normal 0 -1 0
    outer loop
      vertex -0.0862964248657227 0.0432000007629395 0.174844848632812
      vertex -0.0926908950805664 0.0432000007629395 0.154114471435547
      vertex -0.0903612213134766 0.0432000007629395 0.157035781860352
    endloop
  endfacet
  facet normal 0 -1 0
    outer loop
      vertex -0.11474324798584 0.0432000007629395 0.195839553833008
      vertex -0.0926908950805664 0.0432000007629395 0.154114471435547
      vertex -0.0893665542602539 0.0432000007629395 0.183618789672852
    endloop
  endfacet
  facet normal -0 -1 0
    outer loop
      vertex -0.0954299468994141 0.0432000007629395 0.151572998046875
      vertex -0.0940128707885742 0.0432000007629395 0.152792495727539
      vertex -0.0969341888427734 0.0432000007629395 0.150462814331055
    endloop
  endfacet
  facet normal 0 -1 0
    outer loop
      vertex -0.0969341888427734 0.0432000007629395 0.150462814331055
      vertex -0.0940128707885742 0.0432000007629395 0.152792495727539
      vertex -0.11474324798584 0.0432000007629395 0.195839553833008
    endloop
  endfacet
  facet normal 0 -1 0
    outer loop
      vertex -0.11474324798584 0.0432000007629395 0.195839553833008
      vertex -0.0940128707885742 0.0432000007629395 0.152792495727539
      vertex -0.0926908950805664 0.0432000007629395 0.154114471435547
    endloop
  endfacet
endsolid dell_fan_left
