solid intake_grille_left
  facet normal 1 -0 0
    outer loop
      vertex -0.0759850997924805 0.0398598289489746 0.191263824462891
      vertex -0.0759850997924805 0.039959831237793 0.150973754882813
      vertex -0.0759850997924805 0.039959831237793 0.191263824462891
    endloop
  endfacet
  facet normal 1 0 0
    outer loop
      vertex -0.0759850997924805 0.0398598289489746 0.191263824462891
      vertex -0.0759850997924805 0.0398598289489746 0.150973754882813
      vertex -0.0759850997924805 0.039959831237793 0.150973754882813
    endloop
  endfacet
  facet normal 0 0 -1
    outer loop
      vertex -0.0759850997924805 0.0398598289489746 0.150973754882813
      vertex -0.146049285888672 0.039959831237793 0.150973754882813
      vertex -0.0759850997924805 0.039959831237793 0.150973754882813
    endloop
  endfacet
  facet normal 0 0 -1
    outer loop
      vertex -0.0759850997924805 0.0398598289489746 0.150973754882813
      vertex -0.146049285888672 0.0398598289489746 0.150973754882813
      vertex -0.146049285888672 0.039959831237793 0.150973754882813
    endloop
  endfacet
  facet normal -1 0 0
    outer loop
      vertex -0.146049285888672 0.0398598289489746 0.150973754882813
      vertex -0.146049285888672 0.039959831237793 0.191263824462891
      vertex -0.146049285888672 0.039959831237793 0.150973754882813
    endloop
  endfacet
  facet normal -1 0 0
    outer loop
      vertex -0.146049285888672 0.0398598289489746 0.150973754882813
      vertex -0.146049285888672 0.0398598289489746 0.191263824462891
      vertex -0.146049285888672 0.039959831237793 0.191263824462891
    endloop
  endfacet
  facet normal 0 0 1
    outer loop
      vertex -0.146049285888672 0.0398598289489746 0.191263824462891
      vertex -0.0759850997924805 0.039959831237793 0.191263824462891
      vertex -0.146049285888672 0.039959831237793 0.191263824462891
    endloop
  endfacet
  facet normal 0 0 1
    outer loop
      vertex -0.146049285888672 0.0398598289489746 0.191263824462891
      vertex -0.0759850997924805 0.0398598289489746 0.191263824462891
      vertex -0.0759850997924805 0.039959831237793 0.191263824462891
    endloop
  endfacet
  facet normal 0 1 -0
    outer loop
      vertex -0.0759850997924805 0.039959831237793 0.150973754882813
      vertex -0.146049285888672 0.039959831237793 0.191263824462891
      vertex -0.0759850997924805 0.039959831237793 0.191263824462891
    endloop
  endfacet
  facet normal 0 1 0
    outer loop
      vertex -0.0759850997924805 0.039959831237793 0.150973754882813
      vertex -0.146049285888672 0.039959831237793 0.150973754882813
      vertex -0.146049285888672 0.039959831237793 0.191263824462891
    endloop
  endfacet
  facet normal 0 -1 0
    outer loop
      vertex -0.0759850997924805 0.0398598289489746 0.150973754882813
      vertex -0.0759850997924805 0.0398598289489746 0.191263824462891
      vertex -0.146049285888672 0.0398598289489746 0.191263824462891
    endloop
  endfacet
  facet normal 0 -1 0
    outer loop
      vertex -0.0759850997924805 0.0398598289489746 0.150973754882813
      vertex -0.146049285888672 0.0398598289489746 0.191263824462891
      vertex -0.146049285888672 0.0398598289489746 0.150973754882813
    endloop
  endfacet
endsolid intake_grille_left
