ISO-10303-21;
HEADER;
FILE_DESCRIPTION(('FreeCAD Model'),'2;1');
FILE_NAME('Open CASCADE Shape Model','2026-09-08T11:47:00',('FreeCAD'),(
    'FreeCAD'),'Open CASCADE STEP processor 7.8','FreeCAD','Unknown');
FILE_SCHEMA(('AUTOMOTIVE_DESIGN { 1 0 10303 214 1 1 1 1 }'));
ENDSEC;
DATA;
#1 = APPLICATION_PROTOCOL_DEFINITION('international standard',
  'automotive_design',2000,#2);
#2 = APPLICATION_CONTEXT(
  'core data for automotive mechanical design processes');
#3 = SHAPE_DEFINITION_REPRESENTATION(#4,#10);
#4 = PRODUCT_DEFINITION_SHAPE('','',#5);
#5 = PRODUCT_DEFINITION('design','',#6,#9);
#6 = PRODUCT_DEFINITION_FORMATION('','',#7);
#7 = PRODUCT('Open CASCADE STEP translator 7.8 3',
  'Open CASCADE STEP translator 7.8 3','',(#8));
#8 = PRODUCT_CONTEXT('',#2,'mechanical');
#9 = PRODUCT_DEFINITION_CONTEXT('part definition',#2,'design');
#10 = ADVANCED_BREP_SHAPE_REPRESENTATION('',(#11,#15),#637);
#11 = AXIS2_PLACEMENT_3D('',#12,#13,#14);
#12 = CARTESIAN_POINT('',(0.,0.,0.));
#13 = DIRECTION('',(0.,0.,1.));
#14 = DIRECTION('',(1.,0.,-0.));
#15 = MANIFOLD_SOLID_BREP('',#16);
#16 = CLOSED_SHELL('',(#17,#57,#88,#119,#136,#187,#199,#230,#334,#358,
    #455,#472,#489,#506,#523,#540,#557,#574,#591,#608,#625));
#17 = ADVANCED_FACE('',(#18),#52,.F.);
#18 = FACE_BOUND('',#19,.T.);
#19 = EDGE_LOOP('',(#20,#30,#38,#46));
#20 = ORIENTED_EDGE('',*,*,#21,.T.);
#21 = EDGE_CURVE('',#22,#24,#26,.T.);
#22 = VERTEX_POINT('',#23);
#23 = CARTESIAN_POINT('',(130.5,120.55,0.));
#24 = VERTEX_POINT('',#25);
#25 = CARTESIAN_POINT('',(130.5,120.55,3.7));
#26 = LINE('',#27,#28);
#27 = CARTESIAN_POINT('',(130.5,120.55,0.));
#28 = VECTOR('',#29,1.);
#29 = DIRECTION('',(0.,0.,1.));
#30 = ORIENTED_EDGE('',*,*,#31,.T.);
#31 = EDGE_CURVE('',#24,#32,#34,.T.);
#32 = VERTEX_POINT('',#33);
#33 = CARTESIAN_POINT('',(125.5,120.55,3.7));
#34 = LINE('',#35,#36);
#35 = CARTESIAN_POINT('',(130.5,120.55,3.7));
#36 = VECTOR('',#37,1.);
#37 = DIRECTION('',(-1.,-0.,-0.));
#38 = ORIENTED_EDGE('',*,*,#39,.F.);
#39 = EDGE_CURVE('',#40,#32,#42,.T.);
#40 = VERTEX_POINT('',#41);
#41 = CARTESIAN_POINT('',(125.5,120.55,0.));
#42 = LINE('',#43,#44);
#43 = CARTESIAN_POINT('',(125.5,120.55,0.));
#44 = VECTOR('',#45,1.);
#45 = DIRECTION('',(0.,0.,1.));
#46 = ORIENTED_EDGE('',*,*,#47,.F.);
#47 = EDGE_CURVE('',#22,#40,#48,.T.);
#48 = LINE('',#49,#50);
#49 = CARTESIAN_POINT('',(130.5,120.55,0.));
#50 = VECTOR('',#51,1.);
#51 = DIRECTION('',(-1.,-0.,-0.));
#52 = PLANE('',#53);
#53 = AXIS2_PLACEMENT_3D('',#54,#55,#56);
#54 = CARTESIAN_POINT('',(130.5,120.55,0.));
#55 = DIRECTION('',(0.,1.,0.));
#56 = DIRECTION('',(1.,0.,0.));
#57 = ADVANCED_FACE('',(#58),#83,.F.);
#58 = FACE_BOUND('',#59,.T.);
#59 = EDGE_LOOP('',(#60,#70,#76,#77));
#60 = ORIENTED_EDGE('',*,*,#61,.T.);
#61 = EDGE_CURVE('',#62,#64,#66,.T.);
#62 = VERTEX_POINT('',#63);
#63 = CARTESIAN_POINT('',(130.5,135.45,0.));
#64 = VERTEX_POINT('',#65);
#65 = CARTESIAN_POINT('',(130.5,135.45,3.7));
#66 = LINE('',#67,#68);
#67 = CARTESIAN_POINT('',(130.5,135.45,0.));
#68 = VECTOR('',#69,1.);
#69 = DIRECTION('',(0.,0.,1.));
#70 = ORIENTED_EDGE('',*,*,#71,.T.);
#71 = EDGE_CURVE('',#64,#24,#72,.T.);
#72 = LINE('',#73,#74);
#73 = CARTESIAN_POINT('',(130.5,135.45,3.7));
#74 = VECTOR('',#75,1.);
#75 = DIRECTION('',(-0.,-1.,-0.));
#76 = ORIENTED_EDGE('',*,*,#21,.F.);
#77 = ORIENTED_EDGE('',*,*,#78,.F.);
#78 = EDGE_CURVE('',#62,#22,#79,.T.);
#79 = LINE('',#80,#81);
#80 = CARTESIAN_POINT('',(130.5,135.45,0.));
#81 = VECTOR('',#82,1.);
#82 = DIRECTION('',(-0.,-1.,-0.));
#83 = PLANE('',#84);
#84 = AXIS2_PLACEMENT_3D('',#85,#86,#87);
#85 = CARTESIAN_POINT('',(130.5,135.45,0.));
#86 = DIRECTION('',(-1.,-0.,-0.));
#87 = DIRECTION('',(0.,1.,0.));
#88 = ADVANCED_FACE('',(#89),#114,.F.);
#89 = FACE_BOUND('',#90,.T.);
#90 = EDGE_LOOP('',(#91,#92,#100,#108));
#91 = ORIENTED_EDGE('',*,*,#39,.T.);
#92 = ORIENTED_EDGE('',*,*,#93,.T.);
#93 = EDGE_CURVE('',#32,#94,#96,.T.);
#94 = VERTEX_POINT('',#95);
#95 = CARTESIAN_POINT('',(125.5,135.45,3.7));
#96 = LINE('',#97,#98);
#97 = CARTESIAN_POINT('',(125.5,120.55,3.7));
#98 = VECTOR('',#99,1.);
#99 = DIRECTION('',(0.,1.,0.));
#100 = ORIENTED_EDGE('',*,*,#101,.F.);
#101 = EDGE_CURVE('',#102,#94,#104,.T.);
#102 = VERTEX_POINT('',#103);
#103 = CARTESIAN_POINT('',(125.5,135.45,0.));
#104 = LINE('',#105,#106);
#105 = CARTESIAN_POINT('',(125.5,135.45,0.));
#106 = VECTOR('',#107,1.);
#107 = DIRECTION('',(0.,0.,1.));
#108 = ORIENTED_EDGE('',*,*,#109,.F.);
#109 = EDGE_CURVE('',#40,#102,#110,.T.);
#110 = LINE('',#111,#112);
#111 = CARTESIAN_POINT('',(125.5,120.55,0.));
#112 = VECTOR('',#113,1.);
#113 = DIRECTION('',(0.,1.,0.));
#114 = PLANE('',#115);
#115 = AXIS2_PLACEMENT_3D('',#116,#117,#118);
#116 = CARTESIAN_POINT('',(125.5,120.55,0.));
#117 = DIRECTION('',(1.,0.,0.));
#118 = DIRECTION('',(0.,-1.,0.));
#119 = ADVANCED_FACE('',(#120),#131,.F.);
#120 = FACE_BOUND('',#121,.T.);
#121 = EDGE_LOOP('',(#122,#123,#124,#130));
#122 = ORIENTED_EDGE('',*,*,#47,.T.);
#123 = ORIENTED_EDGE('',*,*,#109,.T.);
#124 = ORIENTED_EDGE('',*,*,#125,.T.);
#125 = EDGE_CURVE('',#102,#62,#126,.T.);
#126 = LINE('',#127,#128);
#127 = CARTESIAN_POINT('',(125.5,135.45,0.));
#128 = VECTOR('',#129,1.);
#129 = DIRECTION('',(1.,0.,0.));
#130 = ORIENTED_EDGE('',*,*,#78,.T.);
#131 = PLANE('',#132);
#132 = AXIS2_PLACEMENT_3D('',#133,#134,#135);
#133 = CARTESIAN_POINT('',(128.,128.,3.552713678801E-15));
#134 = DIRECTION('',(0.,0.,1.));
#135 = DIRECTION('',(1.,0.,0.));
#136 = ADVANCED_FACE('',(#137,#148),#182,.T.);
#137 = FACE_BOUND('',#138,.F.);
#138 = EDGE_LOOP('',(#139,#140,#141,#147));
#139 = ORIENTED_EDGE('',*,*,#31,.T.);
#140 = ORIENTED_EDGE('',*,*,#93,.T.);
#141 = ORIENTED_EDGE('',*,*,#142,.T.);
#142 = EDGE_CURVE('',#94,#64,#143,.T.);
#143 = LINE('',#144,#145);
#144 = CARTESIAN_POINT('',(125.5,135.45,3.7));
#145 = VECTOR('',#146,1.);
#146 = DIRECTION('',(1.,0.,0.));
#147 = ORIENTED_EDGE('',*,*,#71,.T.);
#148 = FACE_BOUND('',#149,.F.);
#149 = EDGE_LOOP('',(#150,#160,#168,#176));
#150 = ORIENTED_EDGE('',*,*,#151,.F.);
#151 = EDGE_CURVE('',#152,#154,#156,.T.);
#152 = VERTEX_POINT('',#153);
#153 = CARTESIAN_POINT('',(128.7,122.05,3.7));
#154 = VERTEX_POINT('',#155);
#155 = CARTESIAN_POINT('',(125.7,122.05,3.7));
#156 = LINE('',#157,#158);
#157 = CARTESIAN_POINT('',(128.7,122.05,3.7));
#158 = VECTOR('',#159,1.);
#159 = DIRECTION('',(-1.,-0.,-0.));
#160 = ORIENTED_EDGE('',*,*,#161,.F.);
#161 = EDGE_CURVE('',#162,#152,#164,.T.);
#162 = VERTEX_POINT('',#163);
#163 = CARTESIAN_POINT('',(128.7,125.05,3.7));
#164 = LINE('',#165,#166);
#165 = CARTESIAN_POINT('',(128.7,125.05,3.7));
#166 = VECTOR('',#167,1.);
#167 = DIRECTION('',(-0.,-1.,-0.));
#168 = ORIENTED_EDGE('',*,*,#169,.F.);
#169 = EDGE_CURVE('',#170,#162,#172,.T.);
#170 = VERTEX_POINT('',#171);
#171 = CARTESIAN_POINT('',(125.7,125.05,3.7));
#172 = LINE('',#173,#174);
#173 = CARTESIAN_POINT('',(125.7,125.05,3.7));
#174 = VECTOR('',#175,1.);
#175 = DIRECTION('',(1.,0.,0.));
#176 = ORIENTED_EDGE('',*,*,#177,.F.);
#177 = EDGE_CURVE('',#154,#170,#178,.T.);
#178 = LINE('',#179,#180);
#179 = CARTESIAN_POINT('',(125.7,122.05,3.7));
#180 = VECTOR('',#181,1.);
#181 = DIRECTION('',(0.,1.,0.));
#182 = PLANE('',#183);
#183 = AXIS2_PLACEMENT_3D('',#184,#185,#186);
#184 = CARTESIAN_POINT('',(128.,128.,3.7));
#185 = DIRECTION('',(0.,0.,1.));
#186 = DIRECTION('',(1.,0.,0.));
#187 = ADVANCED_FACE('',(#188),#194,.F.);
#188 = FACE_BOUND('',#189,.T.);
#189 = EDGE_LOOP('',(#190,#191,#192,#193));
#190 = ORIENTED_EDGE('',*,*,#101,.T.);
#191 = ORIENTED_EDGE('',*,*,#142,.T.);
#192 = ORIENTED_EDGE('',*,*,#61,.F.);
#193 = ORIENTED_EDGE('',*,*,#125,.F.);
#194 = PLANE('',#195);
#195 = AXIS2_PLACEMENT_3D('',#196,#197,#198);
#196 = CARTESIAN_POINT('',(125.5,135.45,0.));
#197 = DIRECTION('',(-0.,-1.,-0.));
#198 = DIRECTION('',(-1.,0.,0.));
#199 = ADVANCED_FACE('',(#200),#225,.F.);
#200 = FACE_BOUND('',#201,.T.);
#201 = EDGE_LOOP('',(#202,#210,#218,#224));
#202 = ORIENTED_EDGE('',*,*,#203,.T.);
#203 = EDGE_CURVE('',#152,#204,#206,.T.);
#204 = VERTEX_POINT('',#205);
#205 = CARTESIAN_POINT('',(128.7,122.05,9.3));
#206 = LINE('',#207,#208);
#207 = CARTESIAN_POINT('',(128.7,122.05,3.7));
#208 = VECTOR('',#209,1.);
#209 = DIRECTION('',(0.,0.,1.));
#210 = ORIENTED_EDGE('',*,*,#211,.T.);
#211 = EDGE_CURVE('',#204,#212,#214,.T.);
#212 = VERTEX_POINT('',#213);
#213 = CARTESIAN_POINT('',(125.7,122.05,9.3));
#214 = LINE('',#215,#216);
#215 = CARTESIAN_POINT('',(128.7,122.05,9.3));
#216 = VECTOR('',#217,1.);
#217 = DIRECTION('',(-1.,-0.,-0.));
#218 = ORIENTED_EDGE('',*,*,#219,.F.);
#219 = EDGE_CURVE('',#154,#212,#220,.T.);
#220 = LINE('',#221,#222);
#221 = CARTESIAN_POINT('',(125.7,122.05,3.7));
#222 = VECTOR('',#223,1.);
#223 = DIRECTION('',(0.,0.,1.));
#224 = ORIENTED_EDGE('',*,*,#151,.F.);
#225 = PLANE('',#226);
#226 = AXIS2_PLACEMENT_3D('',#227,#228,#229);
#227 = CARTESIAN_POINT('',(128.7,122.05,3.7));
#228 = DIRECTION('',(0.,1.,0.));
#229 = DIRECTION('',(1.,0.,0.));
#230 = ADVANCED_FACE('',(#231),#329,.T.);
#231 = FACE_BOUND('',#232,.F.);
#232 = EDGE_LOOP('',(#233,#234,#235,#243,#251,#259,#267,#275,#283,#291,
    #299,#307,#315,#323));
#233 = ORIENTED_EDGE('',*,*,#219,.F.);
#234 = ORIENTED_EDGE('',*,*,#177,.T.);
#235 = ORIENTED_EDGE('',*,*,#236,.T.);
#236 = EDGE_CURVE('',#170,#237,#239,.T.);
#237 = VERTEX_POINT('',#238);
#238 = CARTESIAN_POINT('',(125.7,125.05,9.3));
#239 = LINE('',#240,#241);
#240 = CARTESIAN_POINT('',(125.7,125.05,3.7));
#241 = VECTOR('',#242,1.);
#242 = DIRECTION('',(0.,0.,1.));
#243 = ORIENTED_EDGE('',*,*,#244,.F.);
#244 = EDGE_CURVE('',#245,#237,#247,.T.);
#245 = VERTEX_POINT('',#246);
#246 = CARTESIAN_POINT('',(125.7,125.45,9.3));
#247 = LINE('',#248,#249);
#248 = CARTESIAN_POINT('',(125.7,125.45,9.3));
#249 = VECTOR('',#250,1.);
#250 = DIRECTION('',(-4.440892098501E-16,-1.,-2.22044604925E-16));
#251 = ORIENTED_EDGE('',*,*,#252,.F.);
#252 = EDGE_CURVE('',#253,#245,#255,.T.);
#253 = VERTEX_POINT('',#254);
#254 = CARTESIAN_POINT('',(125.7,125.45,9.7));
#255 = LINE('',#256,#257);
#256 = CARTESIAN_POINT('',(125.7,125.45,9.7));
#257 = VECTOR('',#258,1.);
#258 = DIRECTION('',(2.22044604925E-16,2.22044604925E-16,-1.));
#259 = ORIENTED_EDGE('',*,*,#260,.F.);
#260 = EDGE_CURVE('',#261,#253,#263,.T.);
#261 = VERTEX_POINT('',#262);
#262 = CARTESIAN_POINT('',(125.7,124.85,11.1));
#263 = LINE('',#264,#265);
#264 = CARTESIAN_POINT('',(125.7,124.85,11.1));
#265 = VECTOR('',#266,1.);
#266 = DIRECTION('',(3.790265051099E-16,0.393919298579,-0.919145030018)
  );
#267 = ORIENTED_EDGE('',*,*,#268,.F.);
#268 = EDGE_CURVE('',#269,#261,#271,.T.);
#269 = VERTEX_POINT('',#270);
#270 = CARTESIAN_POINT('',(125.7,124.05,11.1));
#271 = LINE('',#272,#273);
#272 = CARTESIAN_POINT('',(125.7,122.25,11.1));
#273 = VECTOR('',#274,1.);
#274 = DIRECTION('',(4.440892098501E-16,1.,2.22044604925E-16));
#275 = ORIENTED_EDGE('',*,*,#276,.T.);
#276 = EDGE_CURVE('',#269,#277,#279,.T.);
#277 = VERTEX_POINT('',#278);
#278 = CARTESIAN_POINT('',(125.7,124.05,5.2));
#279 = LINE('',#280,#281);
#280 = CARTESIAN_POINT('',(125.7,124.05,6.318159948135));
#281 = VECTOR('',#282,1.);
#282 = DIRECTION('',(-2.952174509771E-15,-0.,-1.));
#283 = ORIENTED_EDGE('',*,*,#284,.T.);
#284 = EDGE_CURVE('',#277,#285,#287,.T.);
#285 = VERTEX_POINT('',#286);
#286 = CARTESIAN_POINT('',(125.7,123.05,5.2));
#287 = LINE('',#288,#289);
#288 = CARTESIAN_POINT('',(125.7,123.55,5.2));
#289 = VECTOR('',#290,1.);
#290 = DIRECTION('',(-0.,-1.,-0.));
#291 = ORIENTED_EDGE('',*,*,#292,.T.);
#292 = EDGE_CURVE('',#285,#293,#295,.T.);
#293 = VERTEX_POINT('',#294);
#294 = CARTESIAN_POINT('',(125.7,123.05,11.1));
#295 = LINE('',#296,#297);
#296 = CARTESIAN_POINT('',(125.7,123.05,6.318159948135));
#297 = VECTOR('',#298,1.);
#298 = DIRECTION('',(2.952174509771E-15,0.,1.));
#299 = ORIENTED_EDGE('',*,*,#300,.F.);
#300 = EDGE_CURVE('',#301,#293,#303,.T.);
#301 = VERTEX_POINT('',#302);
#302 = CARTESIAN_POINT('',(125.7,122.25,11.1));
#303 = LINE('',#304,#305);
#304 = CARTESIAN_POINT('',(125.7,122.25,11.1));
#305 = VECTOR('',#306,1.);
#306 = DIRECTION('',(4.440892098501E-16,1.,2.22044604925E-16));
#307 = ORIENTED_EDGE('',*,*,#308,.F.);
#308 = EDGE_CURVE('',#309,#301,#311,.T.);
#309 = VERTEX_POINT('',#310);
#310 = CARTESIAN_POINT('',(125.7,121.65,9.7));
#311 = LINE('',#312,#313);
#312 = CARTESIAN_POINT('',(125.7,121.65,9.7));
#313 = VECTOR('',#314,1.);
#314 = DIRECTION('',(-2.915588500845E-17,0.393919298579,0.919145030018)
  );
#315 = ORIENTED_EDGE('',*,*,#316,.F.);
#316 = EDGE_CURVE('',#317,#309,#319,.T.);
#317 = VERTEX_POINT('',#318);
#318 = CARTESIAN_POINT('',(125.7,121.65,9.3));
#319 = LINE('',#320,#321);
#320 = CARTESIAN_POINT('',(125.7,121.65,9.3));
#321 = VECTOR('',#322,1.);
#322 = DIRECTION('',(-2.22044604925E-16,-2.22044604925E-16,1.));
#323 = ORIENTED_EDGE('',*,*,#324,.F.);
#324 = EDGE_CURVE('',#212,#317,#325,.T.);
#325 = LINE('',#326,#327);
#326 = CARTESIAN_POINT('',(125.7,125.45,9.3));
#327 = VECTOR('',#328,1.);
#328 = DIRECTION('',(-4.440892098501E-16,-1.,-2.22044604925E-16));
#329 = PLANE('',#330);
#330 = AXIS2_PLACEMENT_3D('',#331,#332,#333);
#331 = CARTESIAN_POINT('',(125.7,123.55,7.436319896269));
#332 = DIRECTION('',(-1.,0.,2.952174509771E-15));
#333 = DIRECTION('',(-2.952174509771E-15,0.,-1.));
#334 = ADVANCED_FACE('',(#335),#353,.F.);
#335 = FACE_BOUND('',#336,.T.);
#336 = EDGE_LOOP('',(#337,#338,#346,#352));
#337 = ORIENTED_EDGE('',*,*,#236,.T.);
#338 = ORIENTED_EDGE('',*,*,#339,.T.);
#339 = EDGE_CURVE('',#237,#340,#342,.T.);
#340 = VERTEX_POINT('',#341);
#341 = CARTESIAN_POINT('',(128.7,125.05,9.3));
#342 = LINE('',#343,#344);
#343 = CARTESIAN_POINT('',(125.7,125.05,9.3));
#344 = VECTOR('',#345,1.);
#345 = DIRECTION('',(1.,0.,0.));
#346 = ORIENTED_EDGE('',*,*,#347,.F.);
#347 = EDGE_CURVE('',#162,#340,#348,.T.);
#348 = LINE('',#349,#350);
#349 = CARTESIAN_POINT('',(128.7,125.05,3.7));
#350 = VECTOR('',#351,1.);
#351 = DIRECTION('',(0.,0.,1.));
#352 = ORIENTED_EDGE('',*,*,#169,.F.);
#353 = PLANE('',#354);
#354 = AXIS2_PLACEMENT_3D('',#355,#356,#357);
#355 = CARTESIAN_POINT('',(125.7,125.05,3.7));
#356 = DIRECTION('',(-0.,-1.,-0.));
#357 = DIRECTION('',(-1.,0.,0.));
#358 = ADVANCED_FACE('',(#359),#450,.T.);
#359 = FACE_BOUND('',#360,.F.);
#360 = EDGE_LOOP('',(#361,#362,#363,#364,#372,#380,#388,#396,#404,#412,
    #420,#428,#436,#444));
#361 = ORIENTED_EDGE('',*,*,#347,.F.);
#362 = ORIENTED_EDGE('',*,*,#161,.T.);
#363 = ORIENTED_EDGE('',*,*,#203,.T.);
#364 = ORIENTED_EDGE('',*,*,#365,.T.);
#365 = EDGE_CURVE('',#204,#366,#368,.T.);
#366 = VERTEX_POINT('',#367);
#367 = CARTESIAN_POINT('',(128.7,121.65,9.3));
#368 = LINE('',#369,#370);
#369 = CARTESIAN_POINT('',(128.7,125.45,9.3));
#370 = VECTOR('',#371,1.);
#371 = DIRECTION('',(-4.440892098501E-16,-1.,-2.22044604925E-16));
#372 = ORIENTED_EDGE('',*,*,#373,.T.);
#373 = EDGE_CURVE('',#366,#374,#376,.T.);
#374 = VERTEX_POINT('',#375);
#375 = CARTESIAN_POINT('',(128.7,121.65,9.7));
#376 = LINE('',#377,#378);
#377 = CARTESIAN_POINT('',(128.7,121.65,9.3));
#378 = VECTOR('',#379,1.);
#379 = DIRECTION('',(-2.22044604925E-16,-2.22044604925E-16,1.));
#380 = ORIENTED_EDGE('',*,*,#381,.T.);
#381 = EDGE_CURVE('',#374,#382,#384,.T.);
#382 = VERTEX_POINT('',#383);
#383 = CARTESIAN_POINT('',(128.7,122.25,11.1));
#384 = LINE('',#385,#386);
#385 = CARTESIAN_POINT('',(128.7,121.65,9.7));
#386 = VECTOR('',#387,1.);
#387 = DIRECTION('',(-2.915588500845E-17,0.393919298579,0.919145030018)
  );
#388 = ORIENTED_EDGE('',*,*,#389,.T.);
#389 = EDGE_CURVE('',#382,#390,#392,.T.);
#390 = VERTEX_POINT('',#391);
#391 = CARTESIAN_POINT('',(128.7,123.05,11.1));
#392 = LINE('',#393,#394);
#393 = CARTESIAN_POINT('',(128.7,122.25,11.1));
#394 = VECTOR('',#395,1.);
#395 = DIRECTION('',(4.440892098501E-16,1.,2.22044604925E-16));
#396 = ORIENTED_EDGE('',*,*,#397,.T.);
#397 = EDGE_CURVE('',#390,#398,#400,.T.);
#398 = VERTEX_POINT('',#399);
#399 = CARTESIAN_POINT('',(128.7,123.05,5.2));
#400 = LINE('',#401,#402);
#401 = CARTESIAN_POINT('',(128.7,123.05,6.318159948135));
#402 = VECTOR('',#403,1.);
#403 = DIRECTION('',(-2.952174509771E-15,-0.,-1.));
#404 = ORIENTED_EDGE('',*,*,#405,.T.);
#405 = EDGE_CURVE('',#398,#406,#408,.T.);
#406 = VERTEX_POINT('',#407);
#407 = CARTESIAN_POINT('',(128.7,124.05,5.2));
#408 = LINE('',#409,#410);
#409 = CARTESIAN_POINT('',(128.7,123.55,5.2));
#410 = VECTOR('',#411,1.);
#411 = DIRECTION('',(0.,1.,0.));
#412 = ORIENTED_EDGE('',*,*,#413,.T.);
#413 = EDGE_CURVE('',#406,#414,#416,.T.);
#414 = VERTEX_POINT('',#415);
#415 = CARTESIAN_POINT('',(128.7,124.05,11.1));
#416 = LINE('',#417,#418);
#417 = CARTESIAN_POINT('',(128.7,124.05,6.318159948135));
#418 = VECTOR('',#419,1.);
#419 = DIRECTION('',(2.952174509771E-15,0.,1.));
#420 = ORIENTED_EDGE('',*,*,#421,.T.);
#421 = EDGE_CURVE('',#414,#422,#424,.T.);
#422 = VERTEX_POINT('',#423);
#423 = CARTESIAN_POINT('',(128.7,124.85,11.1));
#424 = LINE('',#425,#426);
#425 = CARTESIAN_POINT('',(128.7,122.25,11.1));
#426 = VECTOR('',#427,1.);
#427 = DIRECTION('',(4.440892098501E-16,1.,2.22044604925E-16));
#428 = ORIENTED_EDGE('',*,*,#429,.T.);
#429 = EDGE_CURVE('',#422,#430,#432,.T.);
#430 = VERTEX_POINT('',#431);
#431 = CARTESIAN_POINT('',(128.7,125.45,9.7));
#432 = LINE('',#433,#434);
#433 = CARTESIAN_POINT('',(128.7,124.85,11.1));
#434 = VECTOR('',#435,1.);
#435 = DIRECTION('',(3.790265051099E-16,0.393919298579,-0.919145030018)
  );
#436 = ORIENTED_EDGE('',*,*,#437,.T.);
#437 = EDGE_CURVE('',#430,#438,#440,.T.);
#438 = VERTEX_POINT('',#439);
#439 = CARTESIAN_POINT('',(128.7,125.45,9.3));
#440 = LINE('',#441,#442);
#441 = CARTESIAN_POINT('',(128.7,125.45,9.7));
#442 = VECTOR('',#443,1.);
#443 = DIRECTION('',(2.22044604925E-16,2.22044604925E-16,-1.));
#444 = ORIENTED_EDGE('',*,*,#445,.T.);
#445 = EDGE_CURVE('',#438,#340,#446,.T.);
#446 = LINE('',#447,#448);
#447 = CARTESIAN_POINT('',(128.7,125.45,9.3));
#448 = VECTOR('',#449,1.);
#449 = DIRECTION('',(-4.440892098501E-16,-1.,-2.22044604925E-16));
#450 = PLANE('',#451);
#451 = AXIS2_PLACEMENT_3D('',#452,#453,#454);
#452 = CARTESIAN_POINT('',(128.7,123.55,7.436319896269));
#453 = DIRECTION('',(1.,0.,-2.952174509771E-15));
#454 = DIRECTION('',(2.952174509771E-15,0.,1.));
#455 = ADVANCED_FACE('',(#456),#467,.T.);
#456 = FACE_BOUND('',#457,.F.);
#457 = EDGE_LOOP('',(#458,#459,#460,#461));
#458 = ORIENTED_EDGE('',*,*,#365,.F.);
#459 = ORIENTED_EDGE('',*,*,#211,.T.);
#460 = ORIENTED_EDGE('',*,*,#324,.T.);
#461 = ORIENTED_EDGE('',*,*,#462,.F.);
#462 = EDGE_CURVE('',#366,#317,#463,.T.);
#463 = LINE('',#464,#465);
#464 = CARTESIAN_POINT('',(128.7,121.65,9.3));
#465 = VECTOR('',#466,1.);
#466 = DIRECTION('',(-1.,-0.,-0.));
#467 = PLANE('',#468);
#468 = AXIS2_PLACEMENT_3D('',#469,#470,#471);
#469 = CARTESIAN_POINT('',(128.7,125.45,9.3));
#470 = DIRECTION('',(0.,2.22044604925E-16,-1.));
#471 = DIRECTION('',(4.440892098501E-16,1.,2.22044604925E-16));
#472 = ADVANCED_FACE('',(#473),#484,.T.);
#473 = FACE_BOUND('',#474,.F.);
#474 = EDGE_LOOP('',(#475,#476,#477,#483));
#475 = ORIENTED_EDGE('',*,*,#462,.T.);
#476 = ORIENTED_EDGE('',*,*,#316,.T.);
#477 = ORIENTED_EDGE('',*,*,#478,.F.);
#478 = EDGE_CURVE('',#374,#309,#479,.T.);
#479 = LINE('',#480,#481);
#480 = CARTESIAN_POINT('',(128.7,121.65,9.7));
#481 = VECTOR('',#482,1.);
#482 = DIRECTION('',(-1.,-0.,-0.));
#483 = ORIENTED_EDGE('',*,*,#373,.F.);
#484 = PLANE('',#485);
#485 = AXIS2_PLACEMENT_3D('',#486,#487,#488);
#486 = CARTESIAN_POINT('',(128.7,121.65,9.3));
#487 = DIRECTION('',(-0.,-1.,-2.22044604925E-16));
#488 = DIRECTION('',(2.22044604925E-16,2.22044604925E-16,-1.));
#489 = ADVANCED_FACE('',(#490),#501,.T.);
#490 = FACE_BOUND('',#491,.F.);
#491 = EDGE_LOOP('',(#492,#493,#494,#500));
#492 = ORIENTED_EDGE('',*,*,#478,.T.);
#493 = ORIENTED_EDGE('',*,*,#308,.T.);
#494 = ORIENTED_EDGE('',*,*,#495,.F.);
#495 = EDGE_CURVE('',#382,#301,#496,.T.);
#496 = LINE('',#497,#498);
#497 = CARTESIAN_POINT('',(128.7,122.25,11.1));
#498 = VECTOR('',#499,1.);
#499 = DIRECTION('',(-1.,-0.,-0.));
#500 = ORIENTED_EDGE('',*,*,#381,.F.);
#501 = PLANE('',#502);
#502 = AXIS2_PLACEMENT_3D('',#503,#504,#505);
#503 = CARTESIAN_POINT('',(128.7,121.65,9.7));
#504 = DIRECTION('',(0.,-0.919145030018,0.393919298579));
#505 = DIRECTION('',(2.915588500845E-17,-0.393919298579,-0.919145030018)
  );
#506 = ADVANCED_FACE('',(#507),#518,.T.);
#507 = FACE_BOUND('',#508,.F.);
#508 = EDGE_LOOP('',(#509,#510,#511,#512));
#509 = ORIENTED_EDGE('',*,*,#389,.F.);
#510 = ORIENTED_EDGE('',*,*,#495,.T.);
#511 = ORIENTED_EDGE('',*,*,#300,.T.);
#512 = ORIENTED_EDGE('',*,*,#513,.T.);
#513 = EDGE_CURVE('',#293,#390,#514,.T.);
#514 = LINE('',#515,#516);
#515 = CARTESIAN_POINT('',(128.85,123.05,11.1));
#516 = VECTOR('',#517,1.);
#517 = DIRECTION('',(1.,0.,0.));
#518 = PLANE('',#519);
#519 = AXIS2_PLACEMENT_3D('',#520,#521,#522);
#520 = CARTESIAN_POINT('',(128.7,122.25,11.1));
#521 = DIRECTION('',(0.,-2.22044604925E-16,1.));
#522 = DIRECTION('',(-4.440892098501E-16,-1.,-2.22044604925E-16));
#523 = ADVANCED_FACE('',(#524),#535,.T.);
#524 = FACE_BOUND('',#525,.F.);
#525 = EDGE_LOOP('',(#526,#532,#533,#534));
#526 = ORIENTED_EDGE('',*,*,#527,.F.);
#527 = EDGE_CURVE('',#398,#285,#528,.T.);
#528 = LINE('',#529,#530);
#529 = CARTESIAN_POINT('',(129.,123.05,5.2));
#530 = VECTOR('',#531,1.);
#531 = DIRECTION('',(-1.,-0.,-0.));
#532 = ORIENTED_EDGE('',*,*,#397,.F.);
#533 = ORIENTED_EDGE('',*,*,#513,.F.);
#534 = ORIENTED_EDGE('',*,*,#292,.F.);
#535 = PLANE('',#536);
#536 = AXIS2_PLACEMENT_3D('',#537,#538,#539);
#537 = CARTESIAN_POINT('',(129.,123.05,5.2));
#538 = DIRECTION('',(0.,1.,0.));
#539 = DIRECTION('',(1.,0.,0.));
#540 = ADVANCED_FACE('',(#541),#552,.T.);
#541 = FACE_BOUND('',#542,.F.);
#542 = EDGE_LOOP('',(#543,#544,#545,#546));
#543 = ORIENTED_EDGE('',*,*,#405,.F.);
#544 = ORIENTED_EDGE('',*,*,#527,.T.);
#545 = ORIENTED_EDGE('',*,*,#284,.F.);
#546 = ORIENTED_EDGE('',*,*,#547,.T.);
#547 = EDGE_CURVE('',#277,#406,#548,.T.);
#548 = LINE('',#549,#550);
#549 = CARTESIAN_POINT('',(125.4,124.05,5.2));
#550 = VECTOR('',#551,1.);
#551 = DIRECTION('',(1.,0.,0.));
#552 = PLANE('',#553);
#553 = AXIS2_PLACEMENT_3D('',#554,#555,#556);
#554 = CARTESIAN_POINT('',(127.2,123.55,5.2));
#555 = DIRECTION('',(0.,0.,1.));
#556 = DIRECTION('',(1.,0.,0.));
#557 = ADVANCED_FACE('',(#558),#569,.T.);
#558 = FACE_BOUND('',#559,.F.);
#559 = EDGE_LOOP('',(#560,#561,#562,#568));
#560 = ORIENTED_EDGE('',*,*,#547,.F.);
#561 = ORIENTED_EDGE('',*,*,#276,.F.);
#562 = ORIENTED_EDGE('',*,*,#563,.F.);
#563 = EDGE_CURVE('',#414,#269,#564,.T.);
#564 = LINE('',#565,#566);
#565 = CARTESIAN_POINT('',(127.05,124.05,11.1));
#566 = VECTOR('',#567,1.);
#567 = DIRECTION('',(-1.,-0.,-0.));
#568 = ORIENTED_EDGE('',*,*,#413,.F.);
#569 = PLANE('',#570);
#570 = AXIS2_PLACEMENT_3D('',#571,#572,#573);
#571 = CARTESIAN_POINT('',(125.4,124.05,5.2));
#572 = DIRECTION('',(-0.,-1.,-0.));
#573 = DIRECTION('',(-1.,0.,0.));
#574 = ADVANCED_FACE('',(#575),#586,.T.);
#575 = FACE_BOUND('',#576,.F.);
#576 = EDGE_LOOP('',(#577,#578,#579,#580));
#577 = ORIENTED_EDGE('',*,*,#421,.F.);
#578 = ORIENTED_EDGE('',*,*,#563,.T.);
#579 = ORIENTED_EDGE('',*,*,#268,.T.);
#580 = ORIENTED_EDGE('',*,*,#581,.F.);
#581 = EDGE_CURVE('',#422,#261,#582,.T.);
#582 = LINE('',#583,#584);
#583 = CARTESIAN_POINT('',(128.7,124.85,11.1));
#584 = VECTOR('',#585,1.);
#585 = DIRECTION('',(-1.,-0.,-0.));
#586 = PLANE('',#587);
#587 = AXIS2_PLACEMENT_3D('',#588,#589,#590);
#588 = CARTESIAN_POINT('',(128.7,122.25,11.1));
#589 = DIRECTION('',(0.,-2.22044604925E-16,1.));
#590 = DIRECTION('',(-4.440892098501E-16,-1.,-2.22044604925E-16));
#591 = ADVANCED_FACE('',(#592),#603,.T.);
#592 = FACE_BOUND('',#593,.F.);
#593 = EDGE_LOOP('',(#594,#595,#596,#602));
#594 = ORIENTED_EDGE('',*,*,#581,.T.);
#595 = ORIENTED_EDGE('',*,*,#260,.T.);
#596 = ORIENTED_EDGE('',*,*,#597,.F.);
#597 = EDGE_CURVE('',#430,#253,#598,.T.);
#598 = LINE('',#599,#600);
#599 = CARTESIAN_POINT('',(128.7,125.45,9.7));
#600 = VECTOR('',#601,1.);
#601 = DIRECTION('',(-1.,-0.,-0.));
#602 = ORIENTED_EDGE('',*,*,#429,.F.);
#603 = PLANE('',#604);
#604 = AXIS2_PLACEMENT_3D('',#605,#606,#607);
#605 = CARTESIAN_POINT('',(128.7,124.85,11.1));
#606 = DIRECTION('',(0.,0.919145030018,0.393919298579));
#607 = DIRECTION('',(-3.790265051099E-16,-0.393919298579,0.919145030018)
  );
#608 = ADVANCED_FACE('',(#609),#620,.T.);
#609 = FACE_BOUND('',#610,.F.);
#610 = EDGE_LOOP('',(#611,#612,#613,#619));
#611 = ORIENTED_EDGE('',*,*,#597,.T.);
#612 = ORIENTED_EDGE('',*,*,#252,.T.);
#613 = ORIENTED_EDGE('',*,*,#614,.F.);
#614 = EDGE_CURVE('',#438,#245,#615,.T.);
#615 = LINE('',#616,#617);
#616 = CARTESIAN_POINT('',(128.7,125.45,9.3));
#617 = VECTOR('',#618,1.);
#618 = DIRECTION('',(-1.,-0.,-0.));
#619 = ORIENTED_EDGE('',*,*,#437,.F.);
#620 = PLANE('',#621);
#621 = AXIS2_PLACEMENT_3D('',#622,#623,#624);
#622 = CARTESIAN_POINT('',(128.7,125.45,9.7));
#623 = DIRECTION('',(0.,1.,2.22044604925E-16));
#624 = DIRECTION('',(-2.22044604925E-16,-2.22044604925E-16,1.));
#625 = ADVANCED_FACE('',(#626),#632,.T.);
#626 = FACE_BOUND('',#627,.F.);
#627 = EDGE_LOOP('',(#628,#629,#630,#631));
#628 = ORIENTED_EDGE('',*,*,#445,.F.);
#629 = ORIENTED_EDGE('',*,*,#614,.T.);
#630 = ORIENTED_EDGE('',*,*,#244,.T.);
#631 = ORIENTED_EDGE('',*,*,#339,.T.);
#632 = PLANE('',#633);
#633 = AXIS2_PLACEMENT_3D('',#634,#635,#636);
#634 = CARTESIAN_POINT('',(128.7,125.45,9.3));
#635 = DIRECTION('',(0.,2.22044604925E-16,-1.));
#636 = DIRECTION('',(4.440892098501E-16,1.,2.22044604925E-16));
#637 = ( GEOMETRIC_REPRESENTATION_CONTEXT(3) 
GLOBAL_UNCERTAINTY_ASSIGNED_CONTEXT((#641)) GLOBAL_UNIT_ASSIGNED_CONTEXT
((#638,#639,#640)) REPRESENTATION_CONTEXT('Context #1',
  '3D Context with UNIT and UNCERTAINTY') );
#638 = ( LENGTH_UNIT() NAMED_UNIT(*) SI_UNIT(.MILLI.,.METRE.) );
#639 = ( NAMED_UNIT(*) PLANE_ANGLE_UNIT() SI_UNIT($,.RADIAN.) );
#640 = ( NAMED_UNIT(*) SI_UNIT($,.STERADIAN.) SOLID_ANGLE_UNIT() );
#641 = UNCERTAINTY_MEASURE_WITH_UNIT(LENGTH_MEASURE(2.E-06),#638,
  'distance_accuracy_value','confusion accuracy');
#642 = PRODUCT_RELATED_PRODUCT_CATEGORY('part',$,(#7));
ENDSEC;
END-ISO-10303-21;
