ISO-10303-21;
HEADER;
FILE_DESCRIPTION(('FreeCAD Model'),'2;1');
FILE_NAME('Open CASCADE Shape Model','2026-09-08T10:11:40',('FreeCAD'),(
    'FreeCAD'),'Open CASCADE STEP processor 7.8','FreeCAD','Unknown');
FILE_SCHEMA(('AUTOMOTIVE_DESIGN { 1 0 10303 214 1 1 1 1 }'));
ENDSEC;
DATA;
#1 = APPLICATION_PROTOCOL_DEFINITION('international standard',
  'automotive_design',2000,#2);
#2 = APPLICATION_CONTEXT(
  'core data for automotive mechanical design processes');
#3 = SHAPE_DEFINITION_REPRESENTATION(#4,#10);
#4 = PRODUCT_DEFINITION_SHAPE('','',#5);
#5 = PRODUCT_DEFINITION('design','',#6,#9);
#6 = PRODUCT_DEFINITION_FORMATION('','',#7);
#7 = PRODUCT('Open CASCADE STEP translator 7.8 18',
  'Open CASCADE STEP translator 7.8 18','',(#8));
#8 = PRODUCT_CONTEXT('',#2,'mechanical');
#9 = PRODUCT_DEFINITION_CONTEXT('part definition',#2,'design');
#10 = ADVANCED_BREP_SHAPE_REPRESENTATION('',(#11,#15),#441);
#11 = AXIS2_PLACEMENT_3D('',#12,#13,#14);
#12 = CARTESIAN_POINT('',(0.,0.,0.));
#13 = DIRECTION('',(0.,0.,1.));
#14 = DIRECTION('',(1.,0.,-0.));
#15 = MANIFOLD_SOLID_BREP('',#16);
#16 = CLOSED_SHELL('',(#17,#50,#59,#79,#172,#204,#254,#271,#324,#342,
    #360,#384,#402,#413,#431));
#17 = ADVANCED_FACE('',(#18),#45,.T.);
#18 = FACE_BOUND('',#19,.F.);
#19 = EDGE_LOOP('',(#20,#30,#37,#38));
#20 = ORIENTED_EDGE('',*,*,#21,.T.);
#21 = EDGE_CURVE('',#22,#24,#26,.T.);
#22 = VERTEX_POINT('',#23);
#23 = CARTESIAN_POINT('',(132.,128.,1.42108547152E-14));
#24 = VERTEX_POINT('',#25);
#25 = CARTESIAN_POINT('',(132.,128.,2.4));
#26 = LINE('',#27,#28);
#27 = CARTESIAN_POINT('',(132.,128.,1.42108547152E-14));
#28 = VECTOR('',#29,1.);
#29 = DIRECTION('',(0.,-7.216449660064E-16,1.));
#30 = ORIENTED_EDGE('',*,*,#31,.T.);
#31 = EDGE_CURVE('',#24,#24,#32,.T.);
#32 = CIRCLE('',#33,4.);
#33 = AXIS2_PLACEMENT_3D('',#34,#35,#36);
#34 = CARTESIAN_POINT('',(128.,128.,2.4));
#35 = DIRECTION('',(0.,-7.216449660064E-16,1.));
#36 = DIRECTION('',(1.,0.,0.));
#37 = ORIENTED_EDGE('',*,*,#21,.F.);
#38 = ORIENTED_EDGE('',*,*,#39,.F.);
#39 = EDGE_CURVE('',#22,#22,#40,.T.);
#40 = CIRCLE('',#41,4.);
#41 = AXIS2_PLACEMENT_3D('',#42,#43,#44);
#42 = CARTESIAN_POINT('',(128.,128.,1.42108547152E-14));
#43 = DIRECTION('',(0.,-7.216449660064E-16,1.));
#44 = DIRECTION('',(1.,0.,0.));
#45 = CYLINDRICAL_SURFACE('',#46,4.);
#46 = AXIS2_PLACEMENT_3D('',#47,#48,#49);
#47 = CARTESIAN_POINT('',(128.,128.,1.42108547152E-14));
#48 = DIRECTION('',(-0.,7.216449660064E-16,-1.));
#49 = DIRECTION('',(1.,0.,0.));
#50 = ADVANCED_FACE('',(#51),#54,.F.);
#51 = FACE_BOUND('',#52,.F.);
#52 = EDGE_LOOP('',(#53));
#53 = ORIENTED_EDGE('',*,*,#39,.T.);
#54 = PLANE('',#55);
#55 = AXIS2_PLACEMENT_3D('',#56,#57,#58);
#56 = CARTESIAN_POINT('',(128.,128.,1.42108547152E-14));
#57 = DIRECTION('',(0.,-7.216449660064E-16,1.));
#58 = DIRECTION('',(1.,0.,0.));
#59 = ADVANCED_FACE('',(#60,#63),#74,.T.);
#60 = FACE_BOUND('',#61,.T.);
#61 = EDGE_LOOP('',(#62));
#62 = ORIENTED_EDGE('',*,*,#31,.T.);
#63 = FACE_BOUND('',#64,.T.);
#64 = EDGE_LOOP('',(#65));
#65 = ORIENTED_EDGE('',*,*,#66,.F.);
#66 = EDGE_CURVE('',#67,#67,#69,.T.);
#67 = VERTEX_POINT('',#68);
#68 = CARTESIAN_POINT('',(130.,128.,2.4));
#69 = CIRCLE('',#70,2.);
#70 = AXIS2_PLACEMENT_3D('',#71,#72,#73);
#71 = CARTESIAN_POINT('',(128.,128.,2.4));
#72 = DIRECTION('',(0.,-7.216449660064E-16,1.));
#73 = DIRECTION('',(1.,0.,0.));
#74 = PLANE('',#75);
#75 = AXIS2_PLACEMENT_3D('',#76,#77,#78);
#76 = CARTESIAN_POINT('',(128.,128.,2.4));
#77 = DIRECTION('',(0.,-7.216449660064E-16,1.));
#78 = DIRECTION('',(1.,0.,0.));
#79 = ADVANCED_FACE('',(#80),#167,.T.);
#80 = FACE_BOUND('',#81,.F.);
#81 = EDGE_LOOP('',(#82,#83,#91,#100,#108,#117,#125,#134,#142,#151,#159,
    #166));
#82 = ORIENTED_EDGE('',*,*,#66,.F.);
#83 = ORIENTED_EDGE('',*,*,#84,.T.);
#84 = EDGE_CURVE('',#67,#85,#87,.T.);
#85 = VERTEX_POINT('',#86);
#86 = CARTESIAN_POINT('',(130.,128.,13.4));
#87 = LINE('',#88,#89);
#88 = CARTESIAN_POINT('',(130.,128.,2.4));
#89 = VECTOR('',#90,1.);
#90 = DIRECTION('',(0.,-7.216449660064E-16,1.));
#91 = ORIENTED_EDGE('',*,*,#92,.T.);
#92 = EDGE_CURVE('',#85,#93,#95,.T.);
#93 = VERTEX_POINT('',#94);
#94 = CARTESIAN_POINT('',(128.4,129.95959179422,13.4));
#95 = CIRCLE('',#96,2.);
#96 = AXIS2_PLACEMENT_3D('',#97,#98,#99);
#97 = CARTESIAN_POINT('',(128.,128.,13.4));
#98 = DIRECTION('',(0.,-7.216449660064E-16,1.));
#99 = DIRECTION('',(1.,0.,0.));
#100 = ORIENTED_EDGE('',*,*,#101,.T.);
#101 = EDGE_CURVE('',#93,#102,#104,.T.);
#102 = VERTEX_POINT('',#103);
#103 = CARTESIAN_POINT('',(128.4,129.95959179422,7.4));
#104 = LINE('',#105,#106);
#105 = CARTESIAN_POINT('',(128.4,129.95959179422,2.4));
#106 = VECTOR('',#107,1.);
#107 = DIRECTION('',(-0.,7.216449660064E-16,-1.));
#108 = ORIENTED_EDGE('',*,*,#109,.F.);
#109 = EDGE_CURVE('',#110,#102,#112,.T.);
#110 = VERTEX_POINT('',#111);
#111 = CARTESIAN_POINT('',(127.6,129.95959179422,7.4));
#112 = CIRCLE('',#113,2.);
#113 = AXIS2_PLACEMENT_3D('',#114,#115,#116);
#114 = CARTESIAN_POINT('',(128.,128.,7.4));
#115 = DIRECTION('',(0.,7.216449660064E-16,-1.));
#116 = DIRECTION('',(1.,0.,0.));
#117 = ORIENTED_EDGE('',*,*,#118,.F.);
#118 = EDGE_CURVE('',#119,#110,#121,.T.);
#119 = VERTEX_POINT('',#120);
#120 = CARTESIAN_POINT('',(127.6,129.95959179422,13.4));
#121 = LINE('',#122,#123);
#122 = CARTESIAN_POINT('',(127.6,129.95959179422,2.4));
#123 = VECTOR('',#124,1.);
#124 = DIRECTION('',(-0.,7.216449660064E-16,-1.));
#125 = ORIENTED_EDGE('',*,*,#126,.T.);
#126 = EDGE_CURVE('',#119,#127,#129,.T.);
#127 = VERTEX_POINT('',#128);
#128 = CARTESIAN_POINT('',(127.6,126.04040820577,13.4));
#129 = CIRCLE('',#130,2.);
#130 = AXIS2_PLACEMENT_3D('',#131,#132,#133);
#131 = CARTESIAN_POINT('',(128.,128.,13.4));
#132 = DIRECTION('',(0.,-7.216449660064E-16,1.));
#133 = DIRECTION('',(1.,0.,0.));
#134 = ORIENTED_EDGE('',*,*,#135,.T.);
#135 = EDGE_CURVE('',#127,#136,#138,.T.);
#136 = VERTEX_POINT('',#137);
#137 = CARTESIAN_POINT('',(127.6,126.04040820577,7.4));
#138 = LINE('',#139,#140);
#139 = CARTESIAN_POINT('',(127.6,126.04040820577,2.4));
#140 = VECTOR('',#141,1.);
#141 = DIRECTION('',(-0.,7.216449660064E-16,-1.));
#142 = ORIENTED_EDGE('',*,*,#143,.F.);
#143 = EDGE_CURVE('',#144,#136,#146,.T.);
#144 = VERTEX_POINT('',#145);
#145 = CARTESIAN_POINT('',(128.4,126.04040820577,7.4));
#146 = CIRCLE('',#147,2.);
#147 = AXIS2_PLACEMENT_3D('',#148,#149,#150);
#148 = CARTESIAN_POINT('',(128.,128.,7.4));
#149 = DIRECTION('',(0.,7.216449660064E-16,-1.));
#150 = DIRECTION('',(1.,0.,0.));
#151 = ORIENTED_EDGE('',*,*,#152,.F.);
#152 = EDGE_CURVE('',#153,#144,#155,.T.);
#153 = VERTEX_POINT('',#154);
#154 = CARTESIAN_POINT('',(128.4,126.04040820577,13.4));
#155 = LINE('',#156,#157);
#156 = CARTESIAN_POINT('',(128.4,126.04040820577,2.4));
#157 = VECTOR('',#158,1.);
#158 = DIRECTION('',(-0.,7.216449660064E-16,-1.));
#159 = ORIENTED_EDGE('',*,*,#160,.T.);
#160 = EDGE_CURVE('',#153,#85,#161,.T.);
#161 = CIRCLE('',#162,2.);
#162 = AXIS2_PLACEMENT_3D('',#163,#164,#165);
#163 = CARTESIAN_POINT('',(128.,128.,13.4));
#164 = DIRECTION('',(0.,-7.216449660064E-16,1.));
#165 = DIRECTION('',(1.,0.,0.));
#166 = ORIENTED_EDGE('',*,*,#84,.F.);
#167 = CYLINDRICAL_SURFACE('',#168,2.);
#168 = AXIS2_PLACEMENT_3D('',#169,#170,#171);
#169 = CARTESIAN_POINT('',(128.,128.,2.4));
#170 = DIRECTION('',(-0.,7.216449660064E-16,-1.));
#171 = DIRECTION('',(1.,0.,0.));
#172 = ADVANCED_FACE('',(#173),#199,.T.);
#173 = FACE_BOUND('',#174,.T.);
#174 = EDGE_LOOP('',(#175,#176,#183,#192));
#175 = ORIENTED_EDGE('',*,*,#160,.T.);
#176 = ORIENTED_EDGE('',*,*,#177,.T.);
#177 = EDGE_CURVE('',#85,#178,#180,.T.);
#178 = VERTEX_POINT('',#179);
#179 = CARTESIAN_POINT('',(130.4,128.,14.2));
#180 = B_SPLINE_CURVE_WITH_KNOTS('',1,(#181,#182),.UNSPECIFIED.,.F.,.F.,
  (2,2),(0.,1.),.PIECEWISE_BEZIER_KNOTS.);
#181 = CARTESIAN_POINT('',(130.,128.,13.4));
#182 = CARTESIAN_POINT('',(130.4,128.,14.2));
#183 = ORIENTED_EDGE('',*,*,#184,.F.);
#184 = EDGE_CURVE('',#185,#178,#187,.T.);
#185 = VERTEX_POINT('',#186);
#186 = CARTESIAN_POINT('',(128.4,125.63356808676,14.2));
#187 = CIRCLE('',#188,2.4);
#188 = AXIS2_PLACEMENT_3D('',#189,#190,#191);
#189 = CARTESIAN_POINT('',(128.,128.,14.2));
#190 = DIRECTION('',(0.,-7.216449660064E-16,1.));
#191 = DIRECTION('',(1.,0.,0.));
#192 = ORIENTED_EDGE('',*,*,#193,.T.);
#193 = EDGE_CURVE('',#185,#153,#194,.T.);
#194 = HYPERBOLA('',#195,0.8,0.4);
#195 = AXIS2_PLACEMENT_3D('',#196,#197,#198);
#196 = CARTESIAN_POINT('',(128.4,128.,9.4));
#197 = DIRECTION('',(-1.,0.,0.));
#198 = DIRECTION('',(0.,-7.216449660064E-16,1.));
#199 = CONICAL_SURFACE('',#200,2.,0.463647609001);
#200 = AXIS2_PLACEMENT_3D('',#201,#202,#203);
#201 = CARTESIAN_POINT('',(128.,128.,13.4));
#202 = DIRECTION('',(0.,-7.216449660064E-16,1.));
#203 = DIRECTION('',(1.,0.,0.));
#204 = ADVANCED_FACE('',(#205),#249,.T.);
#205 = FACE_BOUND('',#206,.T.);
#206 = EDGE_LOOP('',(#207,#213,#214,#215,#224,#232,#241,#248));
#207 = ORIENTED_EDGE('',*,*,#208,.F.);
#208 = EDGE_CURVE('',#144,#102,#209,.T.);
#209 = LINE('',#210,#211);
#210 = CARTESIAN_POINT('',(128.4,124.6,7.4));
#211 = VECTOR('',#212,1.);
#212 = DIRECTION('',(0.,1.,7.216449660064E-16));
#213 = ORIENTED_EDGE('',*,*,#152,.F.);
#214 = ORIENTED_EDGE('',*,*,#193,.F.);
#215 = ORIENTED_EDGE('',*,*,#216,.F.);
#216 = EDGE_CURVE('',#217,#185,#219,.T.);
#217 = VERTEX_POINT('',#218);
#218 = CARTESIAN_POINT('',(128.4,126.34772883581,15.4));
#219 = HYPERBOLA('',#220,0.685714285714,0.4);
#220 = AXIS2_PLACEMENT_3D('',#221,#222,#223);
#221 = CARTESIAN_POINT('',(128.4,128.,18.314285714286));
#222 = DIRECTION('',(-1.,0.,0.));
#223 = DIRECTION('',(0.,7.216449660064E-16,-1.));
#224 = ORIENTED_EDGE('',*,*,#225,.F.);
#225 = EDGE_CURVE('',#226,#217,#228,.T.);
#226 = VERTEX_POINT('',#227);
#227 = CARTESIAN_POINT('',(128.4,129.65227116418,15.4));
#228 = LINE('',#229,#230);
#229 = CARTESIAN_POINT('',(128.4,126.3,15.4));
#230 = VECTOR('',#231,1.);
#231 = DIRECTION('',(0.,-1.,-7.216449660064E-16));
#232 = ORIENTED_EDGE('',*,*,#233,.F.);
#233 = EDGE_CURVE('',#234,#226,#236,.T.);
#234 = VERTEX_POINT('',#235);
#235 = CARTESIAN_POINT('',(128.4,130.36643191324,14.2));
#236 = HYPERBOLA('',#237,0.685714285714,0.4);
#237 = AXIS2_PLACEMENT_3D('',#238,#239,#240);
#238 = CARTESIAN_POINT('',(128.4,128.,18.314285714286));
#239 = DIRECTION('',(-1.,0.,0.));
#240 = DIRECTION('',(0.,7.216449660064E-16,-1.));
#241 = ORIENTED_EDGE('',*,*,#242,.F.);
#242 = EDGE_CURVE('',#93,#234,#243,.T.);
#243 = HYPERBOLA('',#244,0.8,0.4);
#244 = AXIS2_PLACEMENT_3D('',#245,#246,#247);
#245 = CARTESIAN_POINT('',(128.4,128.,9.4));
#246 = DIRECTION('',(-1.,0.,0.));
#247 = DIRECTION('',(0.,-7.216449660064E-16,1.));
#248 = ORIENTED_EDGE('',*,*,#101,.T.);
#249 = PLANE('',#250);
#250 = AXIS2_PLACEMENT_3D('',#251,#252,#253);
#251 = CARTESIAN_POINT('',(128.4,124.6,7.4));
#252 = DIRECTION('',(-1.,0.,0.));
#253 = DIRECTION('',(0.,1.,7.216449660064E-16));
#254 = ADVANCED_FACE('',(#255),#266,.T.);
#255 = FACE_BOUND('',#256,.T.);
#256 = EDGE_LOOP('',(#257,#263,#264,#265));
#257 = ORIENTED_EDGE('',*,*,#258,.T.);
#258 = EDGE_CURVE('',#110,#136,#259,.T.);
#259 = LINE('',#260,#261);
#260 = CARTESIAN_POINT('',(127.6,131.4,7.4));
#261 = VECTOR('',#262,1.);
#262 = DIRECTION('',(0.,-1.,-7.216449660064E-16));
#263 = ORIENTED_EDGE('',*,*,#143,.F.);
#264 = ORIENTED_EDGE('',*,*,#208,.T.);
#265 = ORIENTED_EDGE('',*,*,#109,.F.);
#266 = PLANE('',#267);
#267 = AXIS2_PLACEMENT_3D('',#268,#269,#270);
#268 = CARTESIAN_POINT('',(128.,128.,7.4));
#269 = DIRECTION('',(0.,-7.216449660064E-16,1.));
#270 = DIRECTION('',(1.,0.,0.));
#271 = ADVANCED_FACE('',(#272),#319,.T.);
#272 = FACE_BOUND('',#273,.T.);
#273 = EDGE_LOOP('',(#274,#275,#276,#285,#294,#302,#311,#318));
#274 = ORIENTED_EDGE('',*,*,#258,.F.);
#275 = ORIENTED_EDGE('',*,*,#118,.F.);
#276 = ORIENTED_EDGE('',*,*,#277,.F.);
#277 = EDGE_CURVE('',#278,#119,#280,.T.);
#278 = VERTEX_POINT('',#279);
#279 = CARTESIAN_POINT('',(127.6,130.36643191324,14.2));
#280 = HYPERBOLA('',#281,0.8,0.4);
#281 = AXIS2_PLACEMENT_3D('',#282,#283,#284);
#282 = CARTESIAN_POINT('',(127.6,128.,9.4));
#283 = DIRECTION('',(1.,0.,0.));
#284 = DIRECTION('',(0.,-7.216449660064E-16,1.));
#285 = ORIENTED_EDGE('',*,*,#286,.F.);
#286 = EDGE_CURVE('',#287,#278,#289,.T.);
#287 = VERTEX_POINT('',#288);
#288 = CARTESIAN_POINT('',(127.6,129.65227116418,15.4));
#289 = HYPERBOLA('',#290,0.685714285714,0.4);
#290 = AXIS2_PLACEMENT_3D('',#291,#292,#293);
#291 = CARTESIAN_POINT('',(127.6,128.,18.314285714286));
#292 = DIRECTION('',(1.,-0.,0.));
#293 = DIRECTION('',(0.,7.216449660064E-16,-1.));
#294 = ORIENTED_EDGE('',*,*,#295,.F.);
#295 = EDGE_CURVE('',#296,#287,#298,.T.);
#296 = VERTEX_POINT('',#297);
#297 = CARTESIAN_POINT('',(127.6,126.34772883581,15.4));
#298 = LINE('',#299,#300);
#299 = CARTESIAN_POINT('',(127.6,129.7,15.4));
#300 = VECTOR('',#301,1.);
#301 = DIRECTION('',(0.,1.,7.216449660064E-16));
#302 = ORIENTED_EDGE('',*,*,#303,.F.);
#303 = EDGE_CURVE('',#304,#296,#306,.T.);
#304 = VERTEX_POINT('',#305);
#305 = CARTESIAN_POINT('',(127.6,125.63356808676,14.2));
#306 = HYPERBOLA('',#307,0.685714285714,0.4);
#307 = AXIS2_PLACEMENT_3D('',#308,#309,#310);
#308 = CARTESIAN_POINT('',(127.6,128.,18.314285714286));
#309 = DIRECTION('',(1.,-0.,0.));
#310 = DIRECTION('',(0.,7.216449660064E-16,-1.));
#311 = ORIENTED_EDGE('',*,*,#312,.F.);
#312 = EDGE_CURVE('',#127,#304,#313,.T.);
#313 = HYPERBOLA('',#314,0.8,0.4);
#314 = AXIS2_PLACEMENT_3D('',#315,#316,#317);
#315 = CARTESIAN_POINT('',(127.6,128.,9.4));
#316 = DIRECTION('',(1.,0.,0.));
#317 = DIRECTION('',(0.,-7.216449660064E-16,1.));
#318 = ORIENTED_EDGE('',*,*,#135,.T.);
#319 = PLANE('',#320);
#320 = AXIS2_PLACEMENT_3D('',#321,#322,#323);
#321 = CARTESIAN_POINT('',(127.6,131.4,7.4));
#322 = DIRECTION('',(1.,0.,0.));
#323 = DIRECTION('',(0.,-1.,-7.216449660064E-16));
#324 = ADVANCED_FACE('',(#325),#337,.T.);
#325 = FACE_BOUND('',#326,.T.);
#326 = EDGE_LOOP('',(#327,#328,#329,#330));
#327 = ORIENTED_EDGE('',*,*,#277,.T.);
#328 = ORIENTED_EDGE('',*,*,#126,.T.);
#329 = ORIENTED_EDGE('',*,*,#312,.T.);
#330 = ORIENTED_EDGE('',*,*,#331,.F.);
#331 = EDGE_CURVE('',#278,#304,#332,.T.);
#332 = CIRCLE('',#333,2.4);
#333 = AXIS2_PLACEMENT_3D('',#334,#335,#336);
#334 = CARTESIAN_POINT('',(128.,128.,14.2));
#335 = DIRECTION('',(0.,-7.216449660064E-16,1.));
#336 = DIRECTION('',(1.,0.,0.));
#337 = CONICAL_SURFACE('',#338,2.,0.463647609001);
#338 = AXIS2_PLACEMENT_3D('',#339,#340,#341);
#339 = CARTESIAN_POINT('',(128.,128.,13.4));
#340 = DIRECTION('',(0.,-7.216449660064E-16,1.));
#341 = DIRECTION('',(1.,0.,0.));
#342 = ADVANCED_FACE('',(#343),#355,.T.);
#343 = FACE_BOUND('',#344,.T.);
#344 = EDGE_LOOP('',(#345,#346,#347,#348));
#345 = ORIENTED_EDGE('',*,*,#177,.F.);
#346 = ORIENTED_EDGE('',*,*,#92,.T.);
#347 = ORIENTED_EDGE('',*,*,#242,.T.);
#348 = ORIENTED_EDGE('',*,*,#349,.F.);
#349 = EDGE_CURVE('',#178,#234,#350,.T.);
#350 = CIRCLE('',#351,2.4);
#351 = AXIS2_PLACEMENT_3D('',#352,#353,#354);
#352 = CARTESIAN_POINT('',(128.,128.,14.2));
#353 = DIRECTION('',(0.,-7.216449660064E-16,1.));
#354 = DIRECTION('',(1.,0.,0.));
#355 = CONICAL_SURFACE('',#356,2.,0.463647609001);
#356 = AXIS2_PLACEMENT_3D('',#357,#358,#359);
#357 = CARTESIAN_POINT('',(128.,128.,13.4));
#358 = DIRECTION('',(0.,-7.216449660064E-16,1.));
#359 = DIRECTION('',(1.,0.,0.));
#360 = ADVANCED_FACE('',(#361),#379,.T.);
#361 = FACE_BOUND('',#362,.T.);
#362 = EDGE_LOOP('',(#363,#364,#371,#378));
#363 = ORIENTED_EDGE('',*,*,#184,.T.);
#364 = ORIENTED_EDGE('',*,*,#365,.T.);
#365 = EDGE_CURVE('',#178,#366,#368,.T.);
#366 = VERTEX_POINT('',#367);
#367 = CARTESIAN_POINT('',(129.7,128.,15.4));
#368 = B_SPLINE_CURVE_WITH_KNOTS('',1,(#369,#370),.UNSPECIFIED.,.F.,.F.,
  (2,2),(0.,1.),.PIECEWISE_BEZIER_KNOTS.);
#369 = CARTESIAN_POINT('',(130.4,128.,14.2));
#370 = CARTESIAN_POINT('',(129.7,128.,15.4));
#371 = ORIENTED_EDGE('',*,*,#372,.F.);
#372 = EDGE_CURVE('',#217,#366,#373,.T.);
#373 = CIRCLE('',#374,1.7);
#374 = AXIS2_PLACEMENT_3D('',#375,#376,#377);
#375 = CARTESIAN_POINT('',(128.,128.,15.4));
#376 = DIRECTION('',(0.,-7.216449660064E-16,1.));
#377 = DIRECTION('',(1.,0.,0.));
#378 = ORIENTED_EDGE('',*,*,#216,.T.);
#379 = CONICAL_SURFACE('',#380,2.4,0.528074448426);
#380 = AXIS2_PLACEMENT_3D('',#381,#382,#383);
#381 = CARTESIAN_POINT('',(128.,128.,14.2));
#382 = DIRECTION('',(-0.,7.216449660064E-16,-1.));
#383 = DIRECTION('',(1.,0.,0.));
#384 = ADVANCED_FACE('',(#385),#397,.T.);
#385 = FACE_BOUND('',#386,.T.);
#386 = EDGE_LOOP('',(#387,#388,#389,#390));
#387 = ORIENTED_EDGE('',*,*,#365,.F.);
#388 = ORIENTED_EDGE('',*,*,#349,.T.);
#389 = ORIENTED_EDGE('',*,*,#233,.T.);
#390 = ORIENTED_EDGE('',*,*,#391,.F.);
#391 = EDGE_CURVE('',#366,#226,#392,.T.);
#392 = CIRCLE('',#393,1.7);
#393 = AXIS2_PLACEMENT_3D('',#394,#395,#396);
#394 = CARTESIAN_POINT('',(128.,128.,15.4));
#395 = DIRECTION('',(0.,-7.216449660064E-16,1.));
#396 = DIRECTION('',(1.,0.,0.));
#397 = CONICAL_SURFACE('',#398,2.4,0.528074448426);
#398 = AXIS2_PLACEMENT_3D('',#399,#400,#401);
#399 = CARTESIAN_POINT('',(128.,128.,14.2));
#400 = DIRECTION('',(-0.,7.216449660064E-16,-1.));
#401 = DIRECTION('',(1.,0.,0.));
#402 = ADVANCED_FACE('',(#403),#408,.T.);
#403 = FACE_BOUND('',#404,.T.);
#404 = EDGE_LOOP('',(#405,#406,#407));
#405 = ORIENTED_EDGE('',*,*,#372,.T.);
#406 = ORIENTED_EDGE('',*,*,#391,.T.);
#407 = ORIENTED_EDGE('',*,*,#225,.T.);
#408 = PLANE('',#409);
#409 = AXIS2_PLACEMENT_3D('',#410,#411,#412);
#410 = CARTESIAN_POINT('',(128.,128.,15.4));
#411 = DIRECTION('',(0.,-7.216449660064E-16,1.));
#412 = DIRECTION('',(1.,0.,0.));
#413 = ADVANCED_FACE('',(#414),#426,.T.);
#414 = FACE_BOUND('',#415,.T.);
#415 = EDGE_LOOP('',(#416,#417,#418,#419));
#416 = ORIENTED_EDGE('',*,*,#286,.T.);
#417 = ORIENTED_EDGE('',*,*,#331,.T.);
#418 = ORIENTED_EDGE('',*,*,#303,.T.);
#419 = ORIENTED_EDGE('',*,*,#420,.F.);
#420 = EDGE_CURVE('',#287,#296,#421,.T.);
#421 = CIRCLE('',#422,1.7);
#422 = AXIS2_PLACEMENT_3D('',#423,#424,#425);
#423 = CARTESIAN_POINT('',(128.,128.,15.4));
#424 = DIRECTION('',(0.,-7.216449660064E-16,1.));
#425 = DIRECTION('',(1.,0.,0.));
#426 = CONICAL_SURFACE('',#427,2.4,0.528074448426);
#427 = AXIS2_PLACEMENT_3D('',#428,#429,#430);
#428 = CARTESIAN_POINT('',(128.,128.,14.2));
#429 = DIRECTION('',(-0.,7.216449660064E-16,-1.));
#430 = DIRECTION('',(1.,0.,0.));
#431 = ADVANCED_FACE('',(#432),#436,.T.);
#432 = FACE_BOUND('',#433,.T.);
#433 = EDGE_LOOP('',(#434,#435));
#434 = ORIENTED_EDGE('',*,*,#295,.T.);
#435 = ORIENTED_EDGE('',*,*,#420,.T.);
#436 = PLANE('',#437);
#437 = AXIS2_PLACEMENT_3D('',#438,#439,#440);
#438 = CARTESIAN_POINT('',(128.,128.,15.4));
#439 = DIRECTION('',(0.,-7.216449660064E-16,1.));
#440 = DIRECTION('',(1.,0.,0.));
#441 = ( GEOMETRIC_REPRESENTATION_CONTEXT(3) 
GLOBAL_UNCERTAINTY_ASSIGNED_CONTEXT((#445)) GLOBAL_UNIT_ASSIGNED_CONTEXT
((#442,#443,#444)) REPRESENTATION_CONTEXT('Context #1',
  '3D Context with UNIT and UNCERTAINTY') );
#442 = ( LENGTH_UNIT() NAMED_UNIT(*) SI_UNIT(.MILLI.,.METRE.) );
#443 = ( NAMED_UNIT(*) PLANE_ANGLE_UNIT() SI_UNIT($,.RADIAN.) );
#444 = ( NAMED_UNIT(*) SI_UNIT($,.STERADIAN.) SOLID_ANGLE_UNIT() );
#445 = UNCERTAINTY_MEASURE_WITH_UNIT(LENGTH_MEASURE(2.E-06),#442,
  'distance_accuracy_value','confusion accuracy');
#446 = PRODUCT_RELATED_PRODUCT_CATEGORY('part',$,(#7));
ENDSEC;
END-ISO-10303-21;
