ISO-10303-21;
HEADER;
/* Generated by software containing ST-Developer
 * from STEP Tools, Inc. (www.steptools.com) 
 */

FILE_DESCRIPTION(
/* description */ (''),
/* implementation_level */ '2;1');

FILE_NAME(
/* name */ 'Fusion_native_pin.step',
/* time_stamp */ '2026-09-07T16:06:04-04:00',
/* author */ (''),
/* organization */ (''),
/* preprocessor_version */ 'ST-DEVELOPER v20.1',
/* originating_system */ 'Autodesk Translation Framework v15.8.0.0',
/* authorisation */ '');

FILE_SCHEMA (('AUTOMOTIVE_DESIGN { 1 0 10303 214 3 1 1 }'));
ENDSEC;

DATA;
#10=MECHANICAL_DESIGN_GEOMETRIC_PRESENTATION_REPRESENTATION('',(#13),#428);
#11=SHAPE_REPRESENTATION_RELATIONSHIP('SRR','None',#435,#12);
#12=ADVANCED_BREP_SHAPE_REPRESENTATION('',(#14),#427);
#13=STYLED_ITEM('',(#444),#14);
#14=MANIFOLD_SOLID_BREP('Revision F split push pin',#237);
#15=FACE_BOUND('',#61,.T.);
#16=CYLINDRICAL_SURFACE('',#271,4.);
#17=CYLINDRICAL_SURFACE('',#277,2.);
#18=CONICAL_SURFACE('',#260,1.85,0.244978663126864);
#19=CONICAL_SURFACE('',#262,1.85,0.244978663126864);
#20=CONICAL_SURFACE('',#273,3.7,0.785398163397448);
#21=CIRCLE('',#254,2.);
#22=CIRCLE('',#255,2.);
#23=CIRCLE('',#257,1.6);
#24=CIRCLE('',#259,1.6);
#25=CIRCLE('',#261,2.1);
#26=CIRCLE('',#263,2.1);
#27=CIRCLE('',#265,2.);
#28=CIRCLE('',#266,2.);
#29=CIRCLE('',#268,2.);
#30=CIRCLE('',#270,4.);
#31=CIRCLE('',#272,4.);
#32=CIRCLE('',#274,3.4);
#33=CIRCLE('',#276,2.);
#34=FACE_OUTER_BOUND('',#48,.T.);
#35=FACE_OUTER_BOUND('',#49,.T.);
#36=FACE_OUTER_BOUND('',#50,.T.);
#37=FACE_OUTER_BOUND('',#51,.T.);
#38=FACE_OUTER_BOUND('',#52,.T.);
#39=FACE_OUTER_BOUND('',#53,.T.);
#40=FACE_OUTER_BOUND('',#54,.T.);
#41=FACE_OUTER_BOUND('',#55,.T.);
#42=FACE_OUTER_BOUND('',#56,.T.);
#43=FACE_OUTER_BOUND('',#57,.T.);
#44=FACE_OUTER_BOUND('',#58,.T.);
#45=FACE_OUTER_BOUND('',#59,.T.);
#46=FACE_OUTER_BOUND('',#60,.T.);
#47=FACE_OUTER_BOUND('',#62,.T.);
#48=EDGE_LOOP('',(#150,#151,#152,#153,#154,#155,#156,#157));
#49=EDGE_LOOP('',(#158,#159,#160,#161,#162,#163,#164,#165));
#50=EDGE_LOOP('',(#166,#167,#168,#169));
#51=EDGE_LOOP('',(#170,#171));
#52=EDGE_LOOP('',(#172,#173));
#53=EDGE_LOOP('',(#174,#175,#176,#177));
#54=EDGE_LOOP('',(#178,#179,#180,#181));
#55=EDGE_LOOP('',(#182,#183,#184,#185,#186));
#56=EDGE_LOOP('',(#187,#188,#189,#190));
#57=EDGE_LOOP('',(#191));
#58=EDGE_LOOP('',(#192,#193,#194,#195));
#59=EDGE_LOOP('',(#196,#197,#198,#199));
#60=EDGE_LOOP('',(#200));
#61=EDGE_LOOP('',(#201));
#62=EDGE_LOOP('',(#202,#203,#204,#205,#206,#207,#208,#209,#210,#211,#212,
#213));
#63=(
BOUNDED_CURVE()
B_SPLINE_CURVE(2,(#361,#362,#363),.UNSPECIFIED.,.F.,.F.)
B_SPLINE_CURVE_WITH_KNOTS((3,3),(0.,0.206643089362247),.UNSPECIFIED.)
CURVE()
GEOMETRIC_REPRESENTATION_ITEM()
RATIONAL_B_SPLINE_CURVE((1.,1.0100143729692,1.))
REPRESENTATION_ITEM('')
);
#64=(
BOUNDED_CURVE()
B_SPLINE_CURVE(2,(#367,#368,#369),.UNSPECIFIED.,.F.,.F.)
B_SPLINE_CURVE_WITH_KNOTS((3,3),(0.,0.206643089362247),.UNSPECIFIED.)
CURVE()
GEOMETRIC_REPRESENTATION_ITEM()
RATIONAL_B_SPLINE_CURVE((1.,1.0100143729692,1.))
REPRESENTATION_ITEM('')
);
#65=(
BOUNDED_CURVE()
B_SPLINE_CURVE(2,(#378,#379,#380),.UNSPECIFIED.,.F.,.F.)
B_SPLINE_CURVE_WITH_KNOTS((3,3),(0.,0.206643089362247),.UNSPECIFIED.)
CURVE()
GEOMETRIC_REPRESENTATION_ITEM()
RATIONAL_B_SPLINE_CURVE((1.,1.0100143729692,1.))
REPRESENTATION_ITEM('')
);
#66=(
BOUNDED_CURVE()
B_SPLINE_CURVE(2,(#384,#385,#386),.UNSPECIFIED.,.F.,.F.)
B_SPLINE_CURVE_WITH_KNOTS((3,3),(0.,0.206643089362247),.UNSPECIFIED.)
CURVE()
GEOMETRIC_REPRESENTATION_ITEM()
RATIONAL_B_SPLINE_CURVE((1.,1.0100143729692,1.))
REPRESENTATION_ITEM('')
);
#67=LINE('',#353,#82);
#68=LINE('',#355,#83);
#69=LINE('',#357,#84);
#70=LINE('',#359,#85);
#71=LINE('',#365,#86);
#72=LINE('',#370,#87);
#73=LINE('',#374,#88);
#74=LINE('',#376,#89);
#75=LINE('',#382,#90);
#76=LINE('',#388,#91);
#77=LINE('',#390,#92);
#78=LINE('',#391,#93);
#79=LINE('',#415,#94);
#80=LINE('',#419,#95);
#81=LINE('',#424,#96);
#82=VECTOR('',#282,10.);
#83=VECTOR('',#283,10.);
#84=VECTOR('',#284,10.);
#85=VECTOR('',#285,10.);
#86=VECTOR('',#286,10.);
#87=VECTOR('',#287,10.);
#88=VECTOR('',#290,10.);
#89=VECTOR('',#291,10.);
#90=VECTOR('',#292,10.);
#91=VECTOR('',#293,10.);
#92=VECTOR('',#294,10.);
#93=VECTOR('',#295,10.);
#94=VECTOR('',#336,4.);
#95=VECTOR('',#341,3.7);
#96=VECTOR('',#348,2.);
#97=VERTEX_POINT('',#351);
#98=VERTEX_POINT('',#352);
#99=VERTEX_POINT('',#354);
#100=VERTEX_POINT('',#356);
#101=VERTEX_POINT('',#358);
#102=VERTEX_POINT('',#360);
#103=VERTEX_POINT('',#364);
#104=VERTEX_POINT('',#366);
#105=VERTEX_POINT('',#372);
#106=VERTEX_POINT('',#373);
#107=VERTEX_POINT('',#375);
#108=VERTEX_POINT('',#377);
#109=VERTEX_POINT('',#381);
#110=VERTEX_POINT('',#383);
#111=VERTEX_POINT('',#387);
#112=VERTEX_POINT('',#389);
#113=VERTEX_POINT('',#404);
#114=VERTEX_POINT('',#410);
#115=VERTEX_POINT('',#413);
#116=VERTEX_POINT('',#417);
#117=VERTEX_POINT('',#421);
#118=EDGE_CURVE('',#97,#98,#67,.T.);
#119=EDGE_CURVE('',#99,#97,#68,.T.);
#120=EDGE_CURVE('',#100,#99,#69,.T.);
#121=EDGE_CURVE('',#101,#100,#70,.T.);
#122=EDGE_CURVE('',#102,#101,#63,.T.);
#123=EDGE_CURVE('',#103,#102,#71,.T.);
#124=EDGE_CURVE('',#104,#103,#64,.T.);
#125=EDGE_CURVE('',#98,#104,#72,.T.);
#126=EDGE_CURVE('',#105,#106,#73,.T.);
#127=EDGE_CURVE('',#107,#105,#74,.T.);
#128=EDGE_CURVE('',#108,#107,#65,.T.);
#129=EDGE_CURVE('',#109,#108,#75,.T.);
#130=EDGE_CURVE('',#110,#109,#66,.T.);
#131=EDGE_CURVE('',#111,#110,#76,.T.);
#132=EDGE_CURVE('',#112,#111,#77,.T.);
#133=EDGE_CURVE('',#112,#106,#78,.T.);
#134=EDGE_CURVE('',#106,#97,#21,.T.);
#135=EDGE_CURVE('',#99,#112,#22,.T.);
#136=EDGE_CURVE('',#108,#109,#23,.T.);
#137=EDGE_CURVE('',#102,#103,#24,.T.);
#138=EDGE_CURVE('',#107,#110,#25,.T.);
#139=EDGE_CURVE('',#101,#104,#26,.T.);
#140=EDGE_CURVE('',#105,#113,#27,.T.);
#141=EDGE_CURVE('',#113,#111,#28,.T.);
#142=EDGE_CURVE('',#100,#98,#29,.T.);
#143=EDGE_CURVE('',#114,#114,#30,.T.);
#144=EDGE_CURVE('',#115,#115,#31,.T.);
#145=EDGE_CURVE('',#115,#114,#79,.T.);
#146=EDGE_CURVE('',#116,#116,#32,.T.);
#147=EDGE_CURVE('',#116,#115,#80,.T.);
#148=EDGE_CURVE('',#117,#117,#33,.T.);
#149=EDGE_CURVE('',#113,#117,#81,.T.);
#150=ORIENTED_EDGE('',*,*,#118,.F.);
#151=ORIENTED_EDGE('',*,*,#119,.F.);
#152=ORIENTED_EDGE('',*,*,#120,.F.);
#153=ORIENTED_EDGE('',*,*,#121,.F.);
#154=ORIENTED_EDGE('',*,*,#122,.F.);
#155=ORIENTED_EDGE('',*,*,#123,.F.);
#156=ORIENTED_EDGE('',*,*,#124,.F.);
#157=ORIENTED_EDGE('',*,*,#125,.F.);
#158=ORIENTED_EDGE('',*,*,#126,.F.);
#159=ORIENTED_EDGE('',*,*,#127,.F.);
#160=ORIENTED_EDGE('',*,*,#128,.F.);
#161=ORIENTED_EDGE('',*,*,#129,.F.);
#162=ORIENTED_EDGE('',*,*,#130,.F.);
#163=ORIENTED_EDGE('',*,*,#131,.F.);
#164=ORIENTED_EDGE('',*,*,#132,.F.);
#165=ORIENTED_EDGE('',*,*,#133,.T.);
#166=ORIENTED_EDGE('',*,*,#134,.F.);
#167=ORIENTED_EDGE('',*,*,#133,.F.);
#168=ORIENTED_EDGE('',*,*,#135,.F.);
#169=ORIENTED_EDGE('',*,*,#119,.T.);
#170=ORIENTED_EDGE('',*,*,#129,.T.);
#171=ORIENTED_EDGE('',*,*,#136,.T.);
#172=ORIENTED_EDGE('',*,*,#123,.T.);
#173=ORIENTED_EDGE('',*,*,#137,.T.);
#174=ORIENTED_EDGE('',*,*,#128,.T.);
#175=ORIENTED_EDGE('',*,*,#138,.T.);
#176=ORIENTED_EDGE('',*,*,#130,.T.);
#177=ORIENTED_EDGE('',*,*,#136,.F.);
#178=ORIENTED_EDGE('',*,*,#124,.T.);
#179=ORIENTED_EDGE('',*,*,#137,.F.);
#180=ORIENTED_EDGE('',*,*,#122,.T.);
#181=ORIENTED_EDGE('',*,*,#139,.T.);
#182=ORIENTED_EDGE('',*,*,#127,.T.);
#183=ORIENTED_EDGE('',*,*,#140,.T.);
#184=ORIENTED_EDGE('',*,*,#141,.T.);
#185=ORIENTED_EDGE('',*,*,#131,.T.);
#186=ORIENTED_EDGE('',*,*,#138,.F.);
#187=ORIENTED_EDGE('',*,*,#125,.T.);
#188=ORIENTED_EDGE('',*,*,#139,.F.);
#189=ORIENTED_EDGE('',*,*,#121,.T.);
#190=ORIENTED_EDGE('',*,*,#142,.T.);
#191=ORIENTED_EDGE('',*,*,#143,.F.);
#192=ORIENTED_EDGE('',*,*,#144,.F.);
#193=ORIENTED_EDGE('',*,*,#145,.T.);
#194=ORIENTED_EDGE('',*,*,#143,.T.);
#195=ORIENTED_EDGE('',*,*,#145,.F.);
#196=ORIENTED_EDGE('',*,*,#146,.F.);
#197=ORIENTED_EDGE('',*,*,#147,.T.);
#198=ORIENTED_EDGE('',*,*,#144,.T.);
#199=ORIENTED_EDGE('',*,*,#147,.F.);
#200=ORIENTED_EDGE('',*,*,#146,.T.);
#201=ORIENTED_EDGE('',*,*,#148,.F.);
#202=ORIENTED_EDGE('',*,*,#118,.T.);
#203=ORIENTED_EDGE('',*,*,#142,.F.);
#204=ORIENTED_EDGE('',*,*,#120,.T.);
#205=ORIENTED_EDGE('',*,*,#135,.T.);
#206=ORIENTED_EDGE('',*,*,#132,.T.);
#207=ORIENTED_EDGE('',*,*,#141,.F.);
#208=ORIENTED_EDGE('',*,*,#149,.T.);
#209=ORIENTED_EDGE('',*,*,#148,.T.);
#210=ORIENTED_EDGE('',*,*,#149,.F.);
#211=ORIENTED_EDGE('',*,*,#140,.F.);
#212=ORIENTED_EDGE('',*,*,#126,.T.);
#213=ORIENTED_EDGE('',*,*,#134,.T.);
#214=PLANE('',#251);
#215=PLANE('',#252);
#216=PLANE('',#253);
#217=PLANE('',#256);
#218=PLANE('',#258);
#219=PLANE('',#264);
#220=PLANE('',#267);
#221=PLANE('',#269);
#222=PLANE('',#275);
#223=ADVANCED_FACE('',(#34),#214,.F.);
#224=ADVANCED_FACE('',(#35),#215,.F.);
#225=ADVANCED_FACE('',(#36),#216,.F.);
#226=ADVANCED_FACE('',(#37),#217,.T.);
#227=ADVANCED_FACE('',(#38),#218,.T.);
#228=ADVANCED_FACE('',(#39),#18,.T.);
#229=ADVANCED_FACE('',(#40),#19,.T.);
#230=ADVANCED_FACE('',(#41),#219,.T.);
#231=ADVANCED_FACE('',(#42),#220,.T.);
#232=ADVANCED_FACE('',(#43),#221,.T.);
#233=ADVANCED_FACE('',(#44),#16,.T.);
#234=ADVANCED_FACE('',(#45),#20,.T.);
#235=ADVANCED_FACE('',(#46,#15),#222,.T.);
#236=ADVANCED_FACE('',(#47),#17,.T.);
#237=CLOSED_SHELL('',(#223,#224,#225,#226,#227,#228,#229,#230,#231,#232,
#233,#234,#235,#236));
#238=DERIVED_UNIT_ELEMENT(#240,1.);
#239=DERIVED_UNIT_ELEMENT(#430,-3.);
#240=(
MASS_UNIT()
NAMED_UNIT(*)
SI_UNIT(.KILO.,.GRAM.)
);
#241=DERIVED_UNIT((#238,#239));
#242=MEASURE_REPRESENTATION_ITEM('density measure',
POSITIVE_RATIO_MEASURE(7850.),#241);
#243=PROPERTY_DEFINITION_REPRESENTATION(#248,#245);
#244=PROPERTY_DEFINITION_REPRESENTATION(#249,#246);
#245=REPRESENTATION('material name',(#247),#427);
#246=REPRESENTATION('density',(#242),#427);
#247=DESCRIPTIVE_REPRESENTATION_ITEM('Steel','Steel');
#248=PROPERTY_DEFINITION('material property','material name',#437);
#249=PROPERTY_DEFINITION('material property','density of part',#437);
#250=AXIS2_PLACEMENT_3D('',#349,#278,#279);
#251=AXIS2_PLACEMENT_3D('',#350,#280,#281);
#252=AXIS2_PLACEMENT_3D('',#371,#288,#289);
#253=AXIS2_PLACEMENT_3D('',#392,#296,#297);
#254=AXIS2_PLACEMENT_3D('',#393,#298,#299);
#255=AXIS2_PLACEMENT_3D('',#394,#300,#301);
#256=AXIS2_PLACEMENT_3D('',#395,#302,#303);
#257=AXIS2_PLACEMENT_3D('',#396,#304,#305);
#258=AXIS2_PLACEMENT_3D('',#397,#306,#307);
#259=AXIS2_PLACEMENT_3D('',#398,#308,#309);
#260=AXIS2_PLACEMENT_3D('',#399,#310,#311);
#261=AXIS2_PLACEMENT_3D('',#400,#312,#313);
#262=AXIS2_PLACEMENT_3D('',#401,#314,#315);
#263=AXIS2_PLACEMENT_3D('',#402,#316,#317);
#264=AXIS2_PLACEMENT_3D('',#403,#318,#319);
#265=AXIS2_PLACEMENT_3D('',#405,#320,#321);
#266=AXIS2_PLACEMENT_3D('',#406,#322,#323);
#267=AXIS2_PLACEMENT_3D('',#407,#324,#325);
#268=AXIS2_PLACEMENT_3D('',#408,#326,#327);
#269=AXIS2_PLACEMENT_3D('',#409,#328,#329);
#270=AXIS2_PLACEMENT_3D('',#411,#330,#331);
#271=AXIS2_PLACEMENT_3D('',#412,#332,#333);
#272=AXIS2_PLACEMENT_3D('',#414,#334,#335);
#273=AXIS2_PLACEMENT_3D('',#416,#337,#338);
#274=AXIS2_PLACEMENT_3D('',#418,#339,#340);
#275=AXIS2_PLACEMENT_3D('',#420,#342,#343);
#276=AXIS2_PLACEMENT_3D('',#422,#344,#345);
#277=AXIS2_PLACEMENT_3D('',#423,#346,#347);
#278=DIRECTION('axis',(0.,0.,1.));
#279=DIRECTION('refdir',(1.,0.,0.));
#280=DIRECTION('center_axis',(1.,0.,0.));
#281=DIRECTION('ref_axis',(0.,0.,-1.));
#282=DIRECTION('',(0.,0.,1.));
#283=DIRECTION('',(0.,1.,0.));
#284=DIRECTION('',(0.,0.,-1.));
#285=DIRECTION('',(0.,1.,0.));
#286=DIRECTION('',(0.,-1.,0.));
#287=DIRECTION('',(0.,1.,0.));
#288=DIRECTION('center_axis',(-1.,0.,0.));
#289=DIRECTION('ref_axis',(0.,0.,1.));
#290=DIRECTION('',(0.,0.,-1.));
#291=DIRECTION('',(0.,-1.,0.));
#292=DIRECTION('',(0.,1.,0.));
#293=DIRECTION('',(0.,-1.,0.));
#294=DIRECTION('',(0.,0.,1.));
#295=DIRECTION('',(0.,1.,0.));
#296=DIRECTION('center_axis',(0.,0.,-1.));
#297=DIRECTION('ref_axis',(-1.,0.,0.));
#298=DIRECTION('center_axis',(0.,0.,-1.));
#299=DIRECTION('ref_axis',(1.,0.,0.));
#300=DIRECTION('center_axis',(0.,0.,-1.));
#301=DIRECTION('ref_axis',(1.,0.,0.));
#302=DIRECTION('center_axis',(0.,0.,1.));
#303=DIRECTION('ref_axis',(1.,0.,0.));
#304=DIRECTION('center_axis',(0.,0.,1.));
#305=DIRECTION('ref_axis',(1.,0.,0.));
#306=DIRECTION('center_axis',(0.,0.,1.));
#307=DIRECTION('ref_axis',(1.,0.,0.));
#308=DIRECTION('center_axis',(0.,0.,1.));
#309=DIRECTION('ref_axis',(1.,0.,0.));
#310=DIRECTION('center_axis',(0.,0.,-1.));
#311=DIRECTION('ref_axis',(-1.,1.22464679914735E-16,0.));
#312=DIRECTION('center_axis',(0.,0.,1.));
#313=DIRECTION('ref_axis',(1.,0.,0.));
#314=DIRECTION('center_axis',(0.,0.,-1.));
#315=DIRECTION('ref_axis',(1.,0.,0.));
#316=DIRECTION('center_axis',(0.,0.,1.));
#317=DIRECTION('ref_axis',(1.,0.,0.));
#318=DIRECTION('center_axis',(0.,0.,-1.));
#319=DIRECTION('ref_axis',(-1.,0.,0.));
#320=DIRECTION('center_axis',(0.,0.,1.));
#321=DIRECTION('ref_axis',(1.,0.,0.));
#322=DIRECTION('center_axis',(0.,0.,1.));
#323=DIRECTION('ref_axis',(1.,0.,0.));
#324=DIRECTION('center_axis',(0.,0.,-1.));
#325=DIRECTION('ref_axis',(-1.,0.,0.));
#326=DIRECTION('center_axis',(0.,0.,1.));
#327=DIRECTION('ref_axis',(1.,0.,0.));
#328=DIRECTION('center_axis',(0.,0.,-1.));
#329=DIRECTION('ref_axis',(-1.,0.,0.));
#330=DIRECTION('center_axis',(0.,0.,1.));
#331=DIRECTION('ref_axis',(1.,0.,0.));
#332=DIRECTION('center_axis',(0.,0.,1.));
#333=DIRECTION('ref_axis',(1.,0.,0.));
#334=DIRECTION('center_axis',(0.,0.,1.));
#335=DIRECTION('ref_axis',(1.,0.,0.));
#336=DIRECTION('',(0.,0.,-1.));
#337=DIRECTION('center_axis',(0.,0.,-1.));
#338=DIRECTION('ref_axis',(1.,0.,0.));
#339=DIRECTION('center_axis',(0.,0.,1.));
#340=DIRECTION('ref_axis',(1.,0.,0.));
#341=DIRECTION('',(-0.707106781186548,-8.65956056235493E-17,-0.707106781186547));
#342=DIRECTION('center_axis',(0.,0.,1.));
#343=DIRECTION('ref_axis',(1.,0.,0.));
#344=DIRECTION('center_axis',(0.,0.,1.));
#345=DIRECTION('ref_axis',(1.,0.,0.));
#346=DIRECTION('center_axis',(0.,0.,1.));
#347=DIRECTION('ref_axis',(1.,0.,0.));
#348=DIRECTION('',(0.,0.,-1.));
#349=CARTESIAN_POINT('',(0.,0.,0.));
#350=CARTESIAN_POINT('Origin',(0.5,0.,14.1));
#351=CARTESIAN_POINT('',(0.5,1.93649167310371,4.));
#352=CARTESIAN_POINT('',(0.5,1.93649167310371,12.));
#353=CARTESIAN_POINT('',(0.5,1.93649167310371,7.));
#354=CARTESIAN_POINT('',(0.5,-1.93649167310371,4.));
#355=CARTESIAN_POINT('',(0.5,0.,4.));
#356=CARTESIAN_POINT('',(0.5,-1.93649167310371,12.));
#357=CARTESIAN_POINT('',(0.5,-1.93649167310371,7.));
#358=CARTESIAN_POINT('',(0.5,-2.03960780543711,12.));
#359=CARTESIAN_POINT('',(0.5,0.,12.));
#360=CARTESIAN_POINT('',(0.5,-1.51986841535707,14.));
#361=CARTESIAN_POINT('Ctrl Pts',(0.5,-1.51986841535707,14.));
#362=CARTESIAN_POINT('Ctrl Pts',(0.5,-1.74462058403957,13.1460156938412));
#363=CARTESIAN_POINT('Ctrl Pts',(0.5,-2.03960780543711,12.));
#364=CARTESIAN_POINT('',(0.5,1.51986841535707,14.));
#365=CARTESIAN_POINT('',(0.5,0.,14.));
#366=CARTESIAN_POINT('',(0.5,2.03960780543711,12.));
#367=CARTESIAN_POINT('Ctrl Pts',(0.5,2.03960780543711,12.));
#368=CARTESIAN_POINT('Ctrl Pts',(0.5,1.74462058403957,13.1460156938412));
#369=CARTESIAN_POINT('Ctrl Pts',(0.5,1.51986841535707,14.));
#370=CARTESIAN_POINT('',(0.5,0.,12.));
#371=CARTESIAN_POINT('Origin',(-0.5,0.,4.));
#372=CARTESIAN_POINT('',(-0.5,1.93649167310371,12.));
#373=CARTESIAN_POINT('',(-0.5,1.93649167310371,4.));
#374=CARTESIAN_POINT('',(-0.5,1.93649167310371,7.));
#375=CARTESIAN_POINT('',(-0.5,2.03960780543711,12.));
#376=CARTESIAN_POINT('',(-0.5,0.,12.));
#377=CARTESIAN_POINT('',(-0.5,1.51986841535707,14.));
#378=CARTESIAN_POINT('Ctrl Pts',(-0.5,1.51986841535707,14.));
#379=CARTESIAN_POINT('Ctrl Pts',(-0.5,1.74462058403957,13.1460156938412));
#380=CARTESIAN_POINT('Ctrl Pts',(-0.5,2.03960780543711,12.));
#381=CARTESIAN_POINT('',(-0.5,-1.51986841535707,14.));
#382=CARTESIAN_POINT('',(-0.5,0.,14.));
#383=CARTESIAN_POINT('',(-0.5,-2.03960780543711,12.));
#384=CARTESIAN_POINT('Ctrl Pts',(-0.5,-2.03960780543711,12.));
#385=CARTESIAN_POINT('Ctrl Pts',(-0.5,-1.74462058403957,13.1460156938412));
#386=CARTESIAN_POINT('Ctrl Pts',(-0.5,-1.51986841535707,14.));
#387=CARTESIAN_POINT('',(-0.5,-1.93649167310371,12.));
#388=CARTESIAN_POINT('',(-0.5,0.,12.));
#389=CARTESIAN_POINT('',(-0.5,-1.93649167310371,4.));
#390=CARTESIAN_POINT('',(-0.5,-1.93649167310371,7.));
#391=CARTESIAN_POINT('',(-0.5,0.,4.));
#392=CARTESIAN_POINT('Origin',(0.5,0.,4.));
#393=CARTESIAN_POINT('Origin',(0.,0.,4.));
#394=CARTESIAN_POINT('Origin',(0.,0.,4.));
#395=CARTESIAN_POINT('Origin',(0.,0.,14.));
#396=CARTESIAN_POINT('Origin',(0.,0.,14.));
#397=CARTESIAN_POINT('Origin',(0.,0.,14.));
#398=CARTESIAN_POINT('Origin',(0.,0.,14.));
#399=CARTESIAN_POINT('Origin',(0.,0.,13.));
#400=CARTESIAN_POINT('Origin',(0.,0.,12.));
#401=CARTESIAN_POINT('Origin',(0.,0.,13.));
#402=CARTESIAN_POINT('Origin',(0.,0.,12.));
#403=CARTESIAN_POINT('Origin',(2.1,0.,12.));
#404=CARTESIAN_POINT('',(-2.,-2.44929359829471E-16,12.));
#405=CARTESIAN_POINT('Origin',(0.,0.,12.));
#406=CARTESIAN_POINT('Origin',(0.,0.,12.));
#407=CARTESIAN_POINT('Origin',(2.1,0.,12.));
#408=CARTESIAN_POINT('Origin',(0.,0.,12.));
#409=CARTESIAN_POINT('Origin',(4.,0.,0.));
#410=CARTESIAN_POINT('',(-4.,-4.89858719658941E-16,0.));
#411=CARTESIAN_POINT('Origin',(0.,0.,0.));
#412=CARTESIAN_POINT('Origin',(0.,0.,0.700000000000001));
#413=CARTESIAN_POINT('',(-4.,-4.89858719658941E-16,1.4));
#414=CARTESIAN_POINT('Origin',(0.,0.,1.4));
#415=CARTESIAN_POINT('',(-4.,-4.89858719658941E-16,0.700000000000001));
#416=CARTESIAN_POINT('Origin',(0.,0.,1.7));
#417=CARTESIAN_POINT('',(-3.4,-4.163799117101E-16,2.));
#418=CARTESIAN_POINT('Origin',(0.,0.,2.));
#419=CARTESIAN_POINT('',(-3.7,-4.53119315684521E-16,1.7));
#420=CARTESIAN_POINT('Origin',(2.,0.,2.));
#421=CARTESIAN_POINT('',(-2.,-2.44929359829471E-16,2.));
#422=CARTESIAN_POINT('Origin',(0.,0.,2.));
#423=CARTESIAN_POINT('Origin',(0.,0.,7.));
#424=CARTESIAN_POINT('',(-2.,-2.44929359829471E-16,7.));
#425=UNCERTAINTY_MEASURE_WITH_UNIT(LENGTH_MEASURE(0.01),#429,
'DISTANCE_ACCURACY_VALUE',
'Maximum model space distance between geometric entities at asserted c
onnectivities');
#426=UNCERTAINTY_MEASURE_WITH_UNIT(LENGTH_MEASURE(0.01),#429,
'DISTANCE_ACCURACY_VALUE',
'Maximum model space distance between geometric entities at asserted c
onnectivities');
#427=(
GEOMETRIC_REPRESENTATION_CONTEXT(3)
GLOBAL_UNCERTAINTY_ASSIGNED_CONTEXT((#425))
GLOBAL_UNIT_ASSIGNED_CONTEXT((#429,#431,#432))
REPRESENTATION_CONTEXT('','3D')
);
#428=(
GEOMETRIC_REPRESENTATION_CONTEXT(3)
GLOBAL_UNCERTAINTY_ASSIGNED_CONTEXT((#426))
GLOBAL_UNIT_ASSIGNED_CONTEXT((#429,#431,#432))
REPRESENTATION_CONTEXT('','3D')
);
#429=(
LENGTH_UNIT()
NAMED_UNIT(*)
SI_UNIT(.MILLI.,.METRE.)
);
#430=(
LENGTH_UNIT()
NAMED_UNIT(*)
SI_UNIT($,.METRE.)
);
#431=(
NAMED_UNIT(*)
PLANE_ANGLE_UNIT()
SI_UNIT($,.RADIAN.)
);
#432=(
NAMED_UNIT(*)
SI_UNIT($,.STERADIAN.)
SOLID_ANGLE_UNIT()
);
#433=SHAPE_DEFINITION_REPRESENTATION(#434,#435);
#434=PRODUCT_DEFINITION_SHAPE('',$,#437);
#435=SHAPE_REPRESENTATION('',(#250),#427);
#436=PRODUCT_DEFINITION_CONTEXT('part definition',#441,'design');
#437=PRODUCT_DEFINITION('Push pin - native','Push pin - native',#438,#436);
#438=PRODUCT_DEFINITION_FORMATION('',$,#443);
#439=PRODUCT_RELATED_PRODUCT_CATEGORY('Push pin - native',
'Push pin - native',(#443));
#440=APPLICATION_PROTOCOL_DEFINITION('international standard',
'automotive_design',2009,#441);
#441=APPLICATION_CONTEXT(
'Core Data for Automotive Mechanical Design Process');
#442=PRODUCT_CONTEXT('part definition',#441,'mechanical');
#443=PRODUCT('Push pin - native','Push pin - native',$,(#442));
#444=PRESENTATION_STYLE_ASSIGNMENT((#445));
#445=SURFACE_STYLE_USAGE(.BOTH.,#446);
#446=SURFACE_SIDE_STYLE('',(#447));
#447=SURFACE_STYLE_FILL_AREA(#448);
#448=FILL_AREA_STYLE('Steel - Satin',(#449));
#449=FILL_AREA_STYLE_COLOUR('Steel - Satin',#450);
#450=COLOUR_RGB('Steel - Satin',0.627450980392157,0.627450980392157,0.627450980392157);
ENDSEC;
END-ISO-10303-21;
