ISO-10303-21;
HEADER;
/* Generated by software containing ST-Developer
 * from STEP Tools, Inc. (www.steptools.com) 
 */

FILE_DESCRIPTION(
/* description */ (''),
/* implementation_level */ '2;1');

FILE_NAME(
/* name */ 'cfd_helpers.step',
/* time_stamp */ '2026-09-07T17:10:01-04:00',
/* author */ (''),
/* organization */ (''),
/* preprocessor_version */ 'ST-DEVELOPER v20.1',
/* originating_system */ 'Autodesk Translation Framework v15.8.0.0',
/* authorisation */ '');

FILE_SCHEMA (('AUTOMOTIVE_DESIGN { 1 0 10303 214 3 1 1 }'));
ENDSEC;

DATA;
#10=MECHANICAL_DESIGN_GEOMETRIC_PRESENTATION_REPRESENTATION('',(#13),#999);
#11=SHAPE_REPRESENTATION_RELATIONSHIP('SRR','None',#1006,#12);
#12=ADVANCED_BREP_SHAPE_REPRESENTATION('',(#14),#998);
#13=STYLED_ITEM('',(#1015),#14);
#14=MANIFOLD_SOLID_BREP('LAPTOP | vented airflow surrogate',#603);
#15=FACE_BOUND('',#86,.T.);
#16=FACE_BOUND('',#96,.T.);
#17=FACE_BOUND('',#97,.T.);
#18=FACE_BOUND('',#99,.T.);
#19=CIRCLE('',#629,2.);
#20=CIRCLE('',#630,2.);
#21=CIRCLE('',#632,2.);
#22=CIRCLE('',#633,2.);
#23=CIRCLE('',#634,2.);
#24=CIRCLE('',#636,2.);
#25=CIRCLE('',#639,2.);
#26=CIRCLE('',#641,2.);
#27=CIRCLE('',#646,4.);
#28=CIRCLE('',#647,4.);
#29=CIRCLE('',#650,4.);
#30=CIRCLE('',#651,4.);
#31=CIRCLE('',#652,4.);
#32=CIRCLE('',#654,4.);
#33=CIRCLE('',#657,4.);
#34=CIRCLE('',#659,4.);
#35=CYLINDRICAL_SURFACE('',#628,2.);
#36=CYLINDRICAL_SURFACE('',#635,2.);
#37=CYLINDRICAL_SURFACE('',#638,2.);
#38=CYLINDRICAL_SURFACE('',#640,2.);
#39=CYLINDRICAL_SURFACE('',#645,4.);
#40=CYLINDRICAL_SURFACE('',#653,4.);
#41=CYLINDRICAL_SURFACE('',#656,4.);
#42=CYLINDRICAL_SURFACE('',#658,4.);
#43=FACE_OUTER_BOUND('',#73,.T.);
#44=FACE_OUTER_BOUND('',#74,.T.);
#45=FACE_OUTER_BOUND('',#75,.T.);
#46=FACE_OUTER_BOUND('',#76,.T.);
#47=FACE_OUTER_BOUND('',#77,.T.);
#48=FACE_OUTER_BOUND('',#78,.T.);
#49=FACE_OUTER_BOUND('',#79,.T.);
#50=FACE_OUTER_BOUND('',#80,.T.);
#51=FACE_OUTER_BOUND('',#81,.T.);
#52=FACE_OUTER_BOUND('',#82,.T.);
#53=FACE_OUTER_BOUND('',#83,.T.);
#54=FACE_OUTER_BOUND('',#84,.T.);
#55=FACE_OUTER_BOUND('',#85,.T.);
#56=FACE_OUTER_BOUND('',#87,.T.);
#57=FACE_OUTER_BOUND('',#88,.T.);
#58=FACE_OUTER_BOUND('',#89,.T.);
#59=FACE_OUTER_BOUND('',#90,.T.);
#60=FACE_OUTER_BOUND('',#91,.T.);
#61=FACE_OUTER_BOUND('',#92,.T.);
#62=FACE_OUTER_BOUND('',#93,.T.);
#63=FACE_OUTER_BOUND('',#94,.T.);
#64=FACE_OUTER_BOUND('',#95,.T.);
#65=FACE_OUTER_BOUND('',#98,.T.);
#66=FACE_OUTER_BOUND('',#100,.T.);
#67=FACE_OUTER_BOUND('',#101,.T.);
#68=FACE_OUTER_BOUND('',#102,.T.);
#69=FACE_OUTER_BOUND('',#103,.T.);
#70=FACE_OUTER_BOUND('',#104,.T.);
#71=FACE_OUTER_BOUND('',#105,.T.);
#72=FACE_OUTER_BOUND('',#106,.T.);
#73=EDGE_LOOP('',(#383,#384,#385,#386));
#74=EDGE_LOOP('',(#387,#388,#389,#390));
#75=EDGE_LOOP('',(#391,#392,#393,#394));
#76=EDGE_LOOP('',(#395,#396,#397,#398,#399,#400,#401,#402,#403,#404,#405,
#406));
#77=EDGE_LOOP('',(#407,#408,#409,#410));
#78=EDGE_LOOP('',(#411,#412,#413,#414));
#79=EDGE_LOOP('',(#415,#416,#417,#418));
#80=EDGE_LOOP('',(#419,#420,#421,#422));
#81=EDGE_LOOP('',(#423,#424,#425,#426));
#82=EDGE_LOOP('',(#427,#428,#429,#430));
#83=EDGE_LOOP('',(#431,#432,#433,#434));
#84=EDGE_LOOP('',(#435,#436,#437,#438));
#85=EDGE_LOOP('',(#439,#440,#441,#442,#443,#444,#445,#446,#447,#448,#449,
#450,#451,#452,#453,#454));
#86=EDGE_LOOP('',(#455,#456,#457,#458));
#87=EDGE_LOOP('',(#459,#460,#461,#462));
#88=EDGE_LOOP('',(#463,#464,#465,#466));
#89=EDGE_LOOP('',(#467,#468,#469,#470));
#90=EDGE_LOOP('',(#471,#472,#473,#474));
#91=EDGE_LOOP('',(#475,#476,#477,#478));
#92=EDGE_LOOP('',(#479,#480,#481,#482));
#93=EDGE_LOOP('',(#483,#484,#485,#486,#487,#488,#489,#490));
#94=EDGE_LOOP('',(#491,#492,#493,#494));
#95=EDGE_LOOP('',(#495,#496,#497,#498));
#96=EDGE_LOOP('',(#499,#500,#501,#502));
#97=EDGE_LOOP('',(#503,#504,#505,#506));
#98=EDGE_LOOP('',(#507,#508,#509,#510,#511,#512,#513,#514));
#99=EDGE_LOOP('',(#515,#516,#517,#518));
#100=EDGE_LOOP('',(#519,#520,#521,#522));
#101=EDGE_LOOP('',(#523,#524,#525,#526));
#102=EDGE_LOOP('',(#527,#528,#529,#530));
#103=EDGE_LOOP('',(#531,#532,#533,#534));
#104=EDGE_LOOP('',(#535,#536,#537,#538));
#105=EDGE_LOOP('',(#539,#540,#541,#542));
#106=EDGE_LOOP('',(#543,#544,#545,#546,#547,#548,#549,#550));
#107=LINE('',#829,#175);
#108=LINE('',#831,#176);
#109=LINE('',#833,#177);
#110=LINE('',#834,#178);
#111=LINE('',#837,#179);
#112=LINE('',#839,#180);
#113=LINE('',#840,#181);
#114=LINE('',#843,#182);
#115=LINE('',#845,#183);
#116=LINE('',#846,#184);
#117=LINE('',#849,#185);
#118=LINE('',#851,#186);
#119=LINE('',#853,#187);
#120=LINE('',#855,#188);
#121=LINE('',#857,#189);
#122=LINE('',#859,#190);
#123=LINE('',#861,#191);
#124=LINE('',#863,#192);
#125=LINE('',#864,#193);
#126=LINE('',#867,#194);
#127=LINE('',#869,#195);
#128=LINE('',#870,#196);
#129=LINE('',#873,#197);
#130=LINE('',#874,#198);
#131=LINE('',#877,#199);
#132=LINE('',#878,#200);
#133=LINE('',#882,#201);
#134=LINE('',#884,#202);
#135=LINE('',#886,#203);
#136=LINE('',#887,#204);
#137=LINE('',#890,#205);
#138=LINE('',#892,#206);
#139=LINE('',#893,#207);
#140=LINE('',#896,#208);
#141=LINE('',#898,#209);
#142=LINE('',#899,#210);
#143=LINE('',#901,#211);
#144=LINE('',#902,#212);
#145=LINE('',#907,#213);
#146=LINE('',#913,#214);
#147=LINE('',#917,#215);
#148=LINE('',#920,#216);
#149=LINE('',#921,#217);
#150=LINE('',#922,#218);
#151=LINE('',#925,#219);
#152=LINE('',#928,#220);
#153=LINE('',#931,#221);
#154=LINE('',#932,#222);
#155=LINE('',#935,#223);
#156=LINE('',#940,#224);
#157=LINE('',#942,#225);
#158=LINE('',#944,#226);
#159=LINE('',#951,#227);
#160=LINE('',#954,#228);
#161=LINE('',#957,#229);
#162=LINE('',#959,#230);
#163=LINE('',#960,#231);
#164=LINE('',#963,#232);
#165=LINE('',#967,#233);
#166=LINE('',#971,#234);
#167=LINE('',#975,#235);
#168=LINE('',#978,#236);
#169=LINE('',#981,#237);
#170=LINE('',#982,#238);
#171=LINE('',#986,#239);
#172=LINE('',#989,#240);
#173=LINE('',#992,#241);
#174=LINE('',#994,#242);
#175=VECTOR('',#667,10.);
#176=VECTOR('',#668,10.);
#177=VECTOR('',#669,10.);
#178=VECTOR('',#670,10.);
#179=VECTOR('',#673,10.);
#180=VECTOR('',#674,10.);
#181=VECTOR('',#675,10.);
#182=VECTOR('',#678,10.);
#183=VECTOR('',#679,10.);
#184=VECTOR('',#680,10.);
#185=VECTOR('',#683,10.);
#186=VECTOR('',#684,10.);
#187=VECTOR('',#685,10.);
#188=VECTOR('',#686,10.);
#189=VECTOR('',#687,10.);
#190=VECTOR('',#688,10.);
#191=VECTOR('',#689,10.);
#192=VECTOR('',#690,10.);
#193=VECTOR('',#691,10.);
#194=VECTOR('',#694,10.);
#195=VECTOR('',#695,10.);
#196=VECTOR('',#696,10.);
#197=VECTOR('',#699,10.);
#198=VECTOR('',#700,10.);
#199=VECTOR('',#703,10.);
#200=VECTOR('',#704,10.);
#201=VECTOR('',#707,10.);
#202=VECTOR('',#708,10.);
#203=VECTOR('',#709,10.);
#204=VECTOR('',#710,10.);
#205=VECTOR('',#713,10.);
#206=VECTOR('',#714,10.);
#207=VECTOR('',#715,10.);
#208=VECTOR('',#718,10.);
#209=VECTOR('',#719,10.);
#210=VECTOR('',#720,10.);
#211=VECTOR('',#723,10.);
#212=VECTOR('',#724,10.);
#213=VECTOR('',#729,10.);
#214=VECTOR('',#736,10.);
#215=VECTOR('',#739,10.);
#216=VECTOR('',#742,10.);
#217=VECTOR('',#743,10.);
#218=VECTOR('',#744,10.);
#219=VECTOR('',#747,10.);
#220=VECTOR('',#750,10.);
#221=VECTOR('',#753,10.);
#222=VECTOR('',#754,10.);
#223=VECTOR('',#757,10.);
#224=VECTOR('',#764,10.);
#225=VECTOR('',#767,10.);
#226=VECTOR('',#770,10.);
#227=VECTOR('',#777,10.);
#228=VECTOR('',#780,10.);
#229=VECTOR('',#783,10.);
#230=VECTOR('',#784,10.);
#231=VECTOR('',#785,10.);
#232=VECTOR('',#788,10.);
#233=VECTOR('',#791,10.);
#234=VECTOR('',#794,10.);
#235=VECTOR('',#799,10.);
#236=VECTOR('',#802,10.);
#237=VECTOR('',#805,10.);
#238=VECTOR('',#806,10.);
#239=VECTOR('',#811,10.);
#240=VECTOR('',#814,10.);
#241=VECTOR('',#819,10.);
#242=VECTOR('',#822,10.);
#243=VERTEX_POINT('',#827);
#244=VERTEX_POINT('',#828);
#245=VERTEX_POINT('',#830);
#246=VERTEX_POINT('',#832);
#247=VERTEX_POINT('',#836);
#248=VERTEX_POINT('',#838);
#249=VERTEX_POINT('',#842);
#250=VERTEX_POINT('',#844);
#251=VERTEX_POINT('',#848);
#252=VERTEX_POINT('',#850);
#253=VERTEX_POINT('',#852);
#254=VERTEX_POINT('',#854);
#255=VERTEX_POINT('',#856);
#256=VERTEX_POINT('',#858);
#257=VERTEX_POINT('',#860);
#258=VERTEX_POINT('',#862);
#259=VERTEX_POINT('',#866);
#260=VERTEX_POINT('',#868);
#261=VERTEX_POINT('',#872);
#262=VERTEX_POINT('',#876);
#263=VERTEX_POINT('',#880);
#264=VERTEX_POINT('',#881);
#265=VERTEX_POINT('',#883);
#266=VERTEX_POINT('',#885);
#267=VERTEX_POINT('',#889);
#268=VERTEX_POINT('',#891);
#269=VERTEX_POINT('',#895);
#270=VERTEX_POINT('',#897);
#271=VERTEX_POINT('',#904);
#272=VERTEX_POINT('',#906);
#273=VERTEX_POINT('',#910);
#274=VERTEX_POINT('',#912);
#275=VERTEX_POINT('',#914);
#276=VERTEX_POINT('',#916);
#277=VERTEX_POINT('',#918);
#278=VERTEX_POINT('',#924);
#279=VERTEX_POINT('',#926);
#280=VERTEX_POINT('',#930);
#281=VERTEX_POINT('',#934);
#282=VERTEX_POINT('',#938);
#283=VERTEX_POINT('',#947);
#284=VERTEX_POINT('',#948);
#285=VERTEX_POINT('',#950);
#286=VERTEX_POINT('',#952);
#287=VERTEX_POINT('',#956);
#288=VERTEX_POINT('',#958);
#289=VERTEX_POINT('',#962);
#290=VERTEX_POINT('',#964);
#291=VERTEX_POINT('',#966);
#292=VERTEX_POINT('',#968);
#293=VERTEX_POINT('',#970);
#294=VERTEX_POINT('',#974);
#295=VERTEX_POINT('',#976);
#296=VERTEX_POINT('',#980);
#297=VERTEX_POINT('',#984);
#298=VERTEX_POINT('',#988);
#299=EDGE_CURVE('',#243,#244,#107,.T.);
#300=EDGE_CURVE('',#243,#245,#108,.T.);
#301=EDGE_CURVE('',#246,#245,#109,.T.);
#302=EDGE_CURVE('',#244,#246,#110,.T.);
#303=EDGE_CURVE('',#244,#247,#111,.T.);
#304=EDGE_CURVE('',#248,#246,#112,.T.);
#305=EDGE_CURVE('',#248,#247,#113,.T.);
#306=EDGE_CURVE('',#247,#249,#114,.T.);
#307=EDGE_CURVE('',#250,#248,#115,.T.);
#308=EDGE_CURVE('',#250,#249,#116,.T.);
#309=EDGE_CURVE('',#249,#251,#117,.T.);
#310=EDGE_CURVE('',#251,#252,#118,.T.);
#311=EDGE_CURVE('',#252,#253,#119,.T.);
#312=EDGE_CURVE('',#253,#254,#120,.T.);
#313=EDGE_CURVE('',#254,#255,#121,.T.);
#314=EDGE_CURVE('',#255,#256,#122,.T.);
#315=EDGE_CURVE('',#257,#256,#123,.T.);
#316=EDGE_CURVE('',#257,#258,#124,.T.);
#317=EDGE_CURVE('',#258,#243,#125,.T.);
#318=EDGE_CURVE('',#251,#259,#126,.T.);
#319=EDGE_CURVE('',#260,#259,#127,.T.);
#320=EDGE_CURVE('',#252,#260,#128,.T.);
#321=EDGE_CURVE('',#261,#260,#129,.T.);
#322=EDGE_CURVE('',#261,#253,#130,.T.);
#323=EDGE_CURVE('',#262,#261,#131,.T.);
#324=EDGE_CURVE('',#262,#254,#132,.T.);
#325=EDGE_CURVE('',#263,#264,#133,.T.);
#326=EDGE_CURVE('',#265,#263,#134,.T.);
#327=EDGE_CURVE('',#266,#265,#135,.T.);
#328=EDGE_CURVE('',#266,#264,#136,.T.);
#329=EDGE_CURVE('',#264,#267,#137,.T.);
#330=EDGE_CURVE('',#268,#266,#138,.T.);
#331=EDGE_CURVE('',#268,#267,#139,.T.);
#332=EDGE_CURVE('',#267,#269,#140,.T.);
#333=EDGE_CURVE('',#270,#268,#141,.T.);
#334=EDGE_CURVE('',#270,#269,#142,.T.);
#335=EDGE_CURVE('',#269,#263,#143,.T.);
#336=EDGE_CURVE('',#265,#270,#144,.T.);
#337=EDGE_CURVE('',#271,#255,#19,.T.);
#338=EDGE_CURVE('',#272,#271,#145,.T.);
#339=EDGE_CURVE('',#256,#272,#20,.T.);
#340=EDGE_CURVE('',#258,#273,#21,.T.);
#341=EDGE_CURVE('',#274,#273,#146,.T.);
#342=EDGE_CURVE('',#274,#275,#22,.T.);
#343=EDGE_CURVE('',#276,#275,#147,.T.);
#344=EDGE_CURVE('',#276,#277,#23,.T.);
#345=EDGE_CURVE('',#271,#277,#148,.T.);
#346=EDGE_CURVE('',#259,#262,#149,.T.);
#347=EDGE_CURVE('',#245,#250,#150,.T.);
#348=EDGE_CURVE('',#278,#276,#151,.T.);
#349=EDGE_CURVE('',#279,#278,#24,.T.);
#350=EDGE_CURVE('',#277,#279,#152,.T.);
#351=EDGE_CURVE('',#275,#280,#153,.T.);
#352=EDGE_CURVE('',#278,#280,#154,.T.);
#353=EDGE_CURVE('',#281,#274,#155,.T.);
#354=EDGE_CURVE('',#280,#281,#25,.T.);
#355=EDGE_CURVE('',#282,#257,#26,.T.);
#356=EDGE_CURVE('',#273,#282,#156,.T.);
#357=EDGE_CURVE('',#281,#282,#157,.T.);
#358=EDGE_CURVE('',#272,#279,#158,.T.);
#359=EDGE_CURVE('',#283,#284,#27,.T.);
#360=EDGE_CURVE('',#284,#285,#159,.T.);
#361=EDGE_CURVE('',#285,#286,#28,.T.);
#362=EDGE_CURVE('',#286,#283,#160,.T.);
#363=EDGE_CURVE('',#287,#284,#161,.T.);
#364=EDGE_CURVE('',#288,#287,#162,.T.);
#365=EDGE_CURVE('',#288,#285,#163,.T.);
#366=EDGE_CURVE('',#283,#289,#164,.T.);
#367=EDGE_CURVE('',#290,#289,#29,.T.);
#368=EDGE_CURVE('',#290,#291,#165,.T.);
#369=EDGE_CURVE('',#292,#291,#30,.T.);
#370=EDGE_CURVE('',#292,#293,#166,.T.);
#371=EDGE_CURVE('',#287,#293,#31,.T.);
#372=EDGE_CURVE('',#289,#294,#167,.T.);
#373=EDGE_CURVE('',#294,#295,#32,.T.);
#374=EDGE_CURVE('',#295,#290,#168,.T.);
#375=EDGE_CURVE('',#295,#296,#169,.T.);
#376=EDGE_CURVE('',#291,#296,#170,.T.);
#377=EDGE_CURVE('',#296,#297,#33,.T.);
#378=EDGE_CURVE('',#297,#292,#171,.T.);
#379=EDGE_CURVE('',#293,#298,#172,.T.);
#380=EDGE_CURVE('',#298,#288,#34,.T.);
#381=EDGE_CURVE('',#297,#298,#173,.T.);
#382=EDGE_CURVE('',#286,#294,#174,.T.);
#383=ORIENTED_EDGE('',*,*,#299,.F.);
#384=ORIENTED_EDGE('',*,*,#300,.T.);
#385=ORIENTED_EDGE('',*,*,#301,.F.);
#386=ORIENTED_EDGE('',*,*,#302,.F.);
#387=ORIENTED_EDGE('',*,*,#303,.F.);
#388=ORIENTED_EDGE('',*,*,#302,.T.);
#389=ORIENTED_EDGE('',*,*,#304,.F.);
#390=ORIENTED_EDGE('',*,*,#305,.T.);
#391=ORIENTED_EDGE('',*,*,#306,.F.);
#392=ORIENTED_EDGE('',*,*,#305,.F.);
#393=ORIENTED_EDGE('',*,*,#307,.F.);
#394=ORIENTED_EDGE('',*,*,#308,.T.);
#395=ORIENTED_EDGE('',*,*,#299,.T.);
#396=ORIENTED_EDGE('',*,*,#303,.T.);
#397=ORIENTED_EDGE('',*,*,#306,.T.);
#398=ORIENTED_EDGE('',*,*,#309,.T.);
#399=ORIENTED_EDGE('',*,*,#310,.T.);
#400=ORIENTED_EDGE('',*,*,#311,.T.);
#401=ORIENTED_EDGE('',*,*,#312,.T.);
#402=ORIENTED_EDGE('',*,*,#313,.T.);
#403=ORIENTED_EDGE('',*,*,#314,.T.);
#404=ORIENTED_EDGE('',*,*,#315,.F.);
#405=ORIENTED_EDGE('',*,*,#316,.T.);
#406=ORIENTED_EDGE('',*,*,#317,.T.);
#407=ORIENTED_EDGE('',*,*,#310,.F.);
#408=ORIENTED_EDGE('',*,*,#318,.T.);
#409=ORIENTED_EDGE('',*,*,#319,.F.);
#410=ORIENTED_EDGE('',*,*,#320,.F.);
#411=ORIENTED_EDGE('',*,*,#311,.F.);
#412=ORIENTED_EDGE('',*,*,#320,.T.);
#413=ORIENTED_EDGE('',*,*,#321,.F.);
#414=ORIENTED_EDGE('',*,*,#322,.T.);
#415=ORIENTED_EDGE('',*,*,#312,.F.);
#416=ORIENTED_EDGE('',*,*,#322,.F.);
#417=ORIENTED_EDGE('',*,*,#323,.F.);
#418=ORIENTED_EDGE('',*,*,#324,.T.);
#419=ORIENTED_EDGE('',*,*,#325,.F.);
#420=ORIENTED_EDGE('',*,*,#326,.F.);
#421=ORIENTED_EDGE('',*,*,#327,.F.);
#422=ORIENTED_EDGE('',*,*,#328,.T.);
#423=ORIENTED_EDGE('',*,*,#329,.F.);
#424=ORIENTED_EDGE('',*,*,#328,.F.);
#425=ORIENTED_EDGE('',*,*,#330,.F.);
#426=ORIENTED_EDGE('',*,*,#331,.T.);
#427=ORIENTED_EDGE('',*,*,#332,.F.);
#428=ORIENTED_EDGE('',*,*,#331,.F.);
#429=ORIENTED_EDGE('',*,*,#333,.F.);
#430=ORIENTED_EDGE('',*,*,#334,.T.);
#431=ORIENTED_EDGE('',*,*,#335,.F.);
#432=ORIENTED_EDGE('',*,*,#334,.F.);
#433=ORIENTED_EDGE('',*,*,#336,.F.);
#434=ORIENTED_EDGE('',*,*,#326,.T.);
#435=ORIENTED_EDGE('',*,*,#337,.F.);
#436=ORIENTED_EDGE('',*,*,#338,.F.);
#437=ORIENTED_EDGE('',*,*,#339,.F.);
#438=ORIENTED_EDGE('',*,*,#314,.F.);
#439=ORIENTED_EDGE('',*,*,#317,.F.);
#440=ORIENTED_EDGE('',*,*,#340,.T.);
#441=ORIENTED_EDGE('',*,*,#341,.F.);
#442=ORIENTED_EDGE('',*,*,#342,.T.);
#443=ORIENTED_EDGE('',*,*,#343,.F.);
#444=ORIENTED_EDGE('',*,*,#344,.T.);
#445=ORIENTED_EDGE('',*,*,#345,.F.);
#446=ORIENTED_EDGE('',*,*,#337,.T.);
#447=ORIENTED_EDGE('',*,*,#313,.F.);
#448=ORIENTED_EDGE('',*,*,#324,.F.);
#449=ORIENTED_EDGE('',*,*,#346,.F.);
#450=ORIENTED_EDGE('',*,*,#318,.F.);
#451=ORIENTED_EDGE('',*,*,#309,.F.);
#452=ORIENTED_EDGE('',*,*,#308,.F.);
#453=ORIENTED_EDGE('',*,*,#347,.F.);
#454=ORIENTED_EDGE('',*,*,#300,.F.);
#455=ORIENTED_EDGE('',*,*,#333,.T.);
#456=ORIENTED_EDGE('',*,*,#330,.T.);
#457=ORIENTED_EDGE('',*,*,#327,.T.);
#458=ORIENTED_EDGE('',*,*,#336,.T.);
#459=ORIENTED_EDGE('',*,*,#344,.F.);
#460=ORIENTED_EDGE('',*,*,#348,.F.);
#461=ORIENTED_EDGE('',*,*,#349,.F.);
#462=ORIENTED_EDGE('',*,*,#350,.F.);
#463=ORIENTED_EDGE('',*,*,#348,.T.);
#464=ORIENTED_EDGE('',*,*,#343,.T.);
#465=ORIENTED_EDGE('',*,*,#351,.T.);
#466=ORIENTED_EDGE('',*,*,#352,.F.);
#467=ORIENTED_EDGE('',*,*,#342,.F.);
#468=ORIENTED_EDGE('',*,*,#353,.F.);
#469=ORIENTED_EDGE('',*,*,#354,.F.);
#470=ORIENTED_EDGE('',*,*,#351,.F.);
#471=ORIENTED_EDGE('',*,*,#340,.F.);
#472=ORIENTED_EDGE('',*,*,#316,.F.);
#473=ORIENTED_EDGE('',*,*,#355,.F.);
#474=ORIENTED_EDGE('',*,*,#356,.F.);
#475=ORIENTED_EDGE('',*,*,#353,.T.);
#476=ORIENTED_EDGE('',*,*,#341,.T.);
#477=ORIENTED_EDGE('',*,*,#356,.T.);
#478=ORIENTED_EDGE('',*,*,#357,.F.);
#479=ORIENTED_EDGE('',*,*,#338,.T.);
#480=ORIENTED_EDGE('',*,*,#345,.T.);
#481=ORIENTED_EDGE('',*,*,#350,.T.);
#482=ORIENTED_EDGE('',*,*,#358,.F.);
#483=ORIENTED_EDGE('',*,*,#339,.T.);
#484=ORIENTED_EDGE('',*,*,#358,.T.);
#485=ORIENTED_EDGE('',*,*,#349,.T.);
#486=ORIENTED_EDGE('',*,*,#352,.T.);
#487=ORIENTED_EDGE('',*,*,#354,.T.);
#488=ORIENTED_EDGE('',*,*,#357,.T.);
#489=ORIENTED_EDGE('',*,*,#355,.T.);
#490=ORIENTED_EDGE('',*,*,#315,.T.);
#491=ORIENTED_EDGE('',*,*,#359,.T.);
#492=ORIENTED_EDGE('',*,*,#360,.T.);
#493=ORIENTED_EDGE('',*,*,#361,.T.);
#494=ORIENTED_EDGE('',*,*,#362,.T.);
#495=ORIENTED_EDGE('',*,*,#360,.F.);
#496=ORIENTED_EDGE('',*,*,#363,.F.);
#497=ORIENTED_EDGE('',*,*,#364,.F.);
#498=ORIENTED_EDGE('',*,*,#365,.T.);
#499=ORIENTED_EDGE('',*,*,#307,.T.);
#500=ORIENTED_EDGE('',*,*,#304,.T.);
#501=ORIENTED_EDGE('',*,*,#301,.T.);
#502=ORIENTED_EDGE('',*,*,#347,.T.);
#503=ORIENTED_EDGE('',*,*,#323,.T.);
#504=ORIENTED_EDGE('',*,*,#321,.T.);
#505=ORIENTED_EDGE('',*,*,#319,.T.);
#506=ORIENTED_EDGE('',*,*,#346,.T.);
#507=ORIENTED_EDGE('',*,*,#359,.F.);
#508=ORIENTED_EDGE('',*,*,#366,.T.);
#509=ORIENTED_EDGE('',*,*,#367,.F.);
#510=ORIENTED_EDGE('',*,*,#368,.T.);
#511=ORIENTED_EDGE('',*,*,#369,.F.);
#512=ORIENTED_EDGE('',*,*,#370,.T.);
#513=ORIENTED_EDGE('',*,*,#371,.F.);
#514=ORIENTED_EDGE('',*,*,#363,.T.);
#515=ORIENTED_EDGE('',*,*,#332,.T.);
#516=ORIENTED_EDGE('',*,*,#335,.T.);
#517=ORIENTED_EDGE('',*,*,#325,.T.);
#518=ORIENTED_EDGE('',*,*,#329,.T.);
#519=ORIENTED_EDGE('',*,*,#367,.T.);
#520=ORIENTED_EDGE('',*,*,#372,.T.);
#521=ORIENTED_EDGE('',*,*,#373,.T.);
#522=ORIENTED_EDGE('',*,*,#374,.T.);
#523=ORIENTED_EDGE('',*,*,#374,.F.);
#524=ORIENTED_EDGE('',*,*,#375,.T.);
#525=ORIENTED_EDGE('',*,*,#376,.F.);
#526=ORIENTED_EDGE('',*,*,#368,.F.);
#527=ORIENTED_EDGE('',*,*,#369,.T.);
#528=ORIENTED_EDGE('',*,*,#376,.T.);
#529=ORIENTED_EDGE('',*,*,#377,.T.);
#530=ORIENTED_EDGE('',*,*,#378,.T.);
#531=ORIENTED_EDGE('',*,*,#371,.T.);
#532=ORIENTED_EDGE('',*,*,#379,.T.);
#533=ORIENTED_EDGE('',*,*,#380,.T.);
#534=ORIENTED_EDGE('',*,*,#364,.T.);
#535=ORIENTED_EDGE('',*,*,#378,.F.);
#536=ORIENTED_EDGE('',*,*,#381,.T.);
#537=ORIENTED_EDGE('',*,*,#379,.F.);
#538=ORIENTED_EDGE('',*,*,#370,.F.);
#539=ORIENTED_EDGE('',*,*,#362,.F.);
#540=ORIENTED_EDGE('',*,*,#382,.T.);
#541=ORIENTED_EDGE('',*,*,#372,.F.);
#542=ORIENTED_EDGE('',*,*,#366,.F.);
#543=ORIENTED_EDGE('',*,*,#361,.F.);
#544=ORIENTED_EDGE('',*,*,#365,.F.);
#545=ORIENTED_EDGE('',*,*,#380,.F.);
#546=ORIENTED_EDGE('',*,*,#381,.F.);
#547=ORIENTED_EDGE('',*,*,#377,.F.);
#548=ORIENTED_EDGE('',*,*,#375,.F.);
#549=ORIENTED_EDGE('',*,*,#373,.F.);
#550=ORIENTED_EDGE('',*,*,#382,.F.);
#551=PLANE('',#617);
#552=PLANE('',#618);
#553=PLANE('',#619);
#554=PLANE('',#620);
#555=PLANE('',#621);
#556=PLANE('',#622);
#557=PLANE('',#623);
#558=PLANE('',#624);
#559=PLANE('',#625);
#560=PLANE('',#626);
#561=PLANE('',#627);
#562=PLANE('',#631);
#563=PLANE('',#637);
#564=PLANE('',#642);
#565=PLANE('',#643);
#566=PLANE('',#644);
#567=PLANE('',#648);
#568=PLANE('',#649);
#569=PLANE('',#655);
#570=PLANE('',#660);
#571=PLANE('',#661);
#572=PLANE('',#662);
#573=ADVANCED_FACE('',(#43),#551,.F.);
#574=ADVANCED_FACE('',(#44),#552,.F.);
#575=ADVANCED_FACE('',(#45),#553,.F.);
#576=ADVANCED_FACE('',(#46),#554,.F.);
#577=ADVANCED_FACE('',(#47),#555,.F.);
#578=ADVANCED_FACE('',(#48),#556,.F.);
#579=ADVANCED_FACE('',(#49),#557,.F.);
#580=ADVANCED_FACE('',(#50),#558,.F.);
#581=ADVANCED_FACE('',(#51),#559,.F.);
#582=ADVANCED_FACE('',(#52),#560,.F.);
#583=ADVANCED_FACE('',(#53),#561,.F.);
#584=ADVANCED_FACE('',(#54),#35,.F.);
#585=ADVANCED_FACE('',(#55,#15),#562,.F.);
#586=ADVANCED_FACE('',(#56),#36,.F.);
#587=ADVANCED_FACE('',(#57),#563,.F.);
#588=ADVANCED_FACE('',(#58),#37,.F.);
#589=ADVANCED_FACE('',(#59),#38,.F.);
#590=ADVANCED_FACE('',(#60),#564,.F.);
#591=ADVANCED_FACE('',(#61),#565,.F.);
#592=ADVANCED_FACE('',(#62),#566,.F.);
#593=ADVANCED_FACE('',(#63),#39,.T.);
#594=ADVANCED_FACE('',(#64,#16,#17),#567,.T.);
#595=ADVANCED_FACE('',(#65,#18),#568,.T.);
#596=ADVANCED_FACE('',(#66),#40,.T.);
#597=ADVANCED_FACE('',(#67),#569,.T.);
#598=ADVANCED_FACE('',(#68),#41,.T.);
#599=ADVANCED_FACE('',(#69),#42,.T.);
#600=ADVANCED_FACE('',(#70),#570,.T.);
#601=ADVANCED_FACE('',(#71),#571,.T.);
#602=ADVANCED_FACE('',(#72),#572,.T.);
#603=CLOSED_SHELL('',(#573,#574,#575,#576,#577,#578,#579,#580,#581,#582,
#583,#584,#585,#586,#587,#588,#589,#590,#591,#592,#593,#594,#595,#596,#597,
#598,#599,#600,#601,#602));
#604=DERIVED_UNIT_ELEMENT(#606,1.);
#605=DERIVED_UNIT_ELEMENT(#1001,-3.);
#606=(
MASS_UNIT()
NAMED_UNIT(*)
SI_UNIT(.KILO.,.GRAM.)
);
#607=DERIVED_UNIT((#604,#605));
#608=MEASURE_REPRESENTATION_ITEM('density measure',
POSITIVE_RATIO_MEASURE(7850.),#607);
#609=PROPERTY_DEFINITION_REPRESENTATION(#614,#611);
#610=PROPERTY_DEFINITION_REPRESENTATION(#615,#612);
#611=REPRESENTATION('material name',(#613),#998);
#612=REPRESENTATION('density',(#608),#998);
#613=DESCRIPTIVE_REPRESENTATION_ITEM('Steel','Steel');
#614=PROPERTY_DEFINITION('material property','material name',#1008);
#615=PROPERTY_DEFINITION('material property','density of part',#1008);
#616=AXIS2_PLACEMENT_3D('',#825,#663,#664);
#617=AXIS2_PLACEMENT_3D('',#826,#665,#666);
#618=AXIS2_PLACEMENT_3D('',#835,#671,#672);
#619=AXIS2_PLACEMENT_3D('',#841,#676,#677);
#620=AXIS2_PLACEMENT_3D('',#847,#681,#682);
#621=AXIS2_PLACEMENT_3D('',#865,#692,#693);
#622=AXIS2_PLACEMENT_3D('',#871,#697,#698);
#623=AXIS2_PLACEMENT_3D('',#875,#701,#702);
#624=AXIS2_PLACEMENT_3D('',#879,#705,#706);
#625=AXIS2_PLACEMENT_3D('',#888,#711,#712);
#626=AXIS2_PLACEMENT_3D('',#894,#716,#717);
#627=AXIS2_PLACEMENT_3D('',#900,#721,#722);
#628=AXIS2_PLACEMENT_3D('',#903,#725,#726);
#629=AXIS2_PLACEMENT_3D('',#905,#727,#728);
#630=AXIS2_PLACEMENT_3D('',#908,#730,#731);
#631=AXIS2_PLACEMENT_3D('',#909,#732,#733);
#632=AXIS2_PLACEMENT_3D('',#911,#734,#735);
#633=AXIS2_PLACEMENT_3D('',#915,#737,#738);
#634=AXIS2_PLACEMENT_3D('',#919,#740,#741);
#635=AXIS2_PLACEMENT_3D('',#923,#745,#746);
#636=AXIS2_PLACEMENT_3D('',#927,#748,#749);
#637=AXIS2_PLACEMENT_3D('',#929,#751,#752);
#638=AXIS2_PLACEMENT_3D('',#933,#755,#756);
#639=AXIS2_PLACEMENT_3D('',#936,#758,#759);
#640=AXIS2_PLACEMENT_3D('',#937,#760,#761);
#641=AXIS2_PLACEMENT_3D('',#939,#762,#763);
#642=AXIS2_PLACEMENT_3D('',#941,#765,#766);
#643=AXIS2_PLACEMENT_3D('',#943,#768,#769);
#644=AXIS2_PLACEMENT_3D('',#945,#771,#772);
#645=AXIS2_PLACEMENT_3D('',#946,#773,#774);
#646=AXIS2_PLACEMENT_3D('',#949,#775,#776);
#647=AXIS2_PLACEMENT_3D('',#953,#778,#779);
#648=AXIS2_PLACEMENT_3D('',#955,#781,#782);
#649=AXIS2_PLACEMENT_3D('',#961,#786,#787);
#650=AXIS2_PLACEMENT_3D('',#965,#789,#790);
#651=AXIS2_PLACEMENT_3D('',#969,#792,#793);
#652=AXIS2_PLACEMENT_3D('',#972,#795,#796);
#653=AXIS2_PLACEMENT_3D('',#973,#797,#798);
#654=AXIS2_PLACEMENT_3D('',#977,#800,#801);
#655=AXIS2_PLACEMENT_3D('',#979,#803,#804);
#656=AXIS2_PLACEMENT_3D('',#983,#807,#808);
#657=AXIS2_PLACEMENT_3D('',#985,#809,#810);
#658=AXIS2_PLACEMENT_3D('',#987,#812,#813);
#659=AXIS2_PLACEMENT_3D('',#990,#815,#816);
#660=AXIS2_PLACEMENT_3D('',#991,#817,#818);
#661=AXIS2_PLACEMENT_3D('',#993,#820,#821);
#662=AXIS2_PLACEMENT_3D('',#995,#823,#824);
#663=DIRECTION('axis',(0.,0.,1.));
#664=DIRECTION('refdir',(1.,0.,0.));
#665=DIRECTION('center_axis',(1.,0.,0.));
#666=DIRECTION('ref_axis',(0.,0.,1.));
#667=DIRECTION('',(0.,1.,0.));
#668=DIRECTION('',(0.,0.,1.));
#669=DIRECTION('',(0.,-1.,0.));
#670=DIRECTION('',(0.,0.,1.));
#671=DIRECTION('center_axis',(0.,1.,0.));
#672=DIRECTION('ref_axis',(1.,0.,0.));
#673=DIRECTION('',(-1.,0.,0.));
#674=DIRECTION('',(1.,0.,0.));
#675=DIRECTION('',(0.,0.,-1.));
#676=DIRECTION('center_axis',(-1.,0.,0.));
#677=DIRECTION('ref_axis',(0.,0.,-1.));
#678=DIRECTION('',(0.,-1.,0.));
#679=DIRECTION('',(0.,1.,0.));
#680=DIRECTION('',(0.,0.,-1.));
#681=DIRECTION('center_axis',(0.,0.,1.));
#682=DIRECTION('ref_axis',(-1.,0.,0.));
#683=DIRECTION('',(-1.,0.,0.));
#684=DIRECTION('',(0.,1.,0.));
#685=DIRECTION('',(-1.,0.,0.));
#686=DIRECTION('',(0.,-1.,0.));
#687=DIRECTION('',(-1.,0.,0.));
#688=DIRECTION('',(0.,1.,0.));
#689=DIRECTION('',(-1.,0.,0.));
#690=DIRECTION('',(0.,-1.,0.));
#691=DIRECTION('',(-1.,0.,0.));
#692=DIRECTION('center_axis',(1.,0.,0.));
#693=DIRECTION('ref_axis',(0.,0.,1.));
#694=DIRECTION('',(0.,0.,1.));
#695=DIRECTION('',(0.,-1.,0.));
#696=DIRECTION('',(0.,0.,1.));
#697=DIRECTION('center_axis',(0.,1.,0.));
#698=DIRECTION('ref_axis',(1.,0.,0.));
#699=DIRECTION('',(1.,0.,0.));
#700=DIRECTION('',(0.,0.,-1.));
#701=DIRECTION('center_axis',(-1.,0.,0.));
#702=DIRECTION('ref_axis',(0.,0.,-1.));
#703=DIRECTION('',(0.,1.,0.));
#704=DIRECTION('',(0.,0.,-1.));
#705=DIRECTION('center_axis',(-1.,0.,0.));
#706=DIRECTION('ref_axis',(0.,0.,-1.));
#707=DIRECTION('',(0.,0.,1.));
#708=DIRECTION('',(0.,-1.,0.));
#709=DIRECTION('',(0.,0.,-1.));
#710=DIRECTION('',(0.,-1.,0.));
#711=DIRECTION('center_axis',(0.,0.,1.));
#712=DIRECTION('ref_axis',(-1.,0.,0.));
#713=DIRECTION('',(1.,0.,0.));
#714=DIRECTION('',(-1.,0.,0.));
#715=DIRECTION('',(0.,-1.,0.));
#716=DIRECTION('center_axis',(1.,0.,0.));
#717=DIRECTION('ref_axis',(0.,0.,1.));
#718=DIRECTION('',(0.,0.,-1.));
#719=DIRECTION('',(0.,0.,1.));
#720=DIRECTION('',(0.,-1.,0.));
#721=DIRECTION('center_axis',(0.,0.,-1.));
#722=DIRECTION('ref_axis',(1.,0.,0.));
#723=DIRECTION('',(-1.,0.,0.));
#724=DIRECTION('',(1.,0.,0.));
#725=DIRECTION('center_axis',(0.,-1.,0.));
#726=DIRECTION('ref_axis',(-0.707106781186548,0.,0.707106781186548));
#727=DIRECTION('center_axis',(0.,1.,0.));
#728=DIRECTION('ref_axis',(-0.707106781186548,0.,0.707106781186548));
#729=DIRECTION('',(0.,-1.,0.));
#730=DIRECTION('center_axis',(0.,-1.,0.));
#731=DIRECTION('ref_axis',(-0.707106781186548,0.,0.707106781186548));
#732=DIRECTION('center_axis',(0.,-1.,0.));
#733=DIRECTION('ref_axis',(0.,0.,-1.));
#734=DIRECTION('center_axis',(0.,1.,0.));
#735=DIRECTION('ref_axis',(0.70710678118656,0.,0.707106781186535));
#736=DIRECTION('',(0.,0.,1.));
#737=DIRECTION('center_axis',(0.,1.,0.));
#738=DIRECTION('ref_axis',(0.707106781186552,0.,-0.707106781186543));
#739=DIRECTION('',(1.,0.,0.));
#740=DIRECTION('center_axis',(0.,1.,0.));
#741=DIRECTION('ref_axis',(-0.707106781186552,0.,-0.707106781186543));
#742=DIRECTION('',(0.,0.,-1.));
#743=DIRECTION('',(-1.,0.,0.));
#744=DIRECTION('',(-1.,0.,0.));
#745=DIRECTION('center_axis',(0.,-1.,0.));
#746=DIRECTION('ref_axis',(-0.707106781186552,0.,-0.707106781186543));
#747=DIRECTION('',(0.,-1.,0.));
#748=DIRECTION('center_axis',(0.,-1.,0.));
#749=DIRECTION('ref_axis',(-0.707106781186552,0.,-0.707106781186543));
#750=DIRECTION('',(0.,1.,0.));
#751=DIRECTION('center_axis',(0.,0.,-1.));
#752=DIRECTION('ref_axis',(1.,0.,0.));
#753=DIRECTION('',(0.,1.,0.));
#754=DIRECTION('',(1.,0.,0.));
#755=DIRECTION('center_axis',(0.,-1.,0.));
#756=DIRECTION('ref_axis',(0.707106781186552,0.,-0.707106781186543));
#757=DIRECTION('',(0.,-1.,0.));
#758=DIRECTION('center_axis',(0.,-1.,0.));
#759=DIRECTION('ref_axis',(0.707106781186552,0.,-0.707106781186543));
#760=DIRECTION('center_axis',(0.,-1.,0.));
#761=DIRECTION('ref_axis',(0.70710678118656,0.,0.707106781186535));
#762=DIRECTION('center_axis',(0.,-1.,0.));
#763=DIRECTION('ref_axis',(0.70710678118656,0.,0.707106781186535));
#764=DIRECTION('',(0.,1.,0.));
#765=DIRECTION('center_axis',(1.,0.,0.));
#766=DIRECTION('ref_axis',(0.,0.,1.));
#767=DIRECTION('',(0.,0.,1.));
#768=DIRECTION('center_axis',(-1.,0.,0.));
#769=DIRECTION('ref_axis',(0.,0.,-1.));
#770=DIRECTION('',(0.,0.,-1.));
#771=DIRECTION('center_axis',(0.,1.,0.));
#772=DIRECTION('ref_axis',(1.,0.,0.));
#773=DIRECTION('center_axis',(0.,-1.,0.));
#774=DIRECTION('ref_axis',(-0.707106781186548,0.,0.707106781186548));
#775=DIRECTION('center_axis',(0.,1.,0.));
#776=DIRECTION('ref_axis',(-0.707106781186548,0.,0.707106781186548));
#777=DIRECTION('',(0.,1.,0.));
#778=DIRECTION('center_axis',(0.,-1.,0.));
#779=DIRECTION('ref_axis',(-0.707106781186548,0.,0.707106781186548));
#780=DIRECTION('',(0.,-1.,0.));
#781=DIRECTION('center_axis',(0.,0.,1.));
#782=DIRECTION('ref_axis',(-1.,0.,0.));
#783=DIRECTION('',(-1.,0.,0.));
#784=DIRECTION('',(0.,-1.,0.));
#785=DIRECTION('',(-1.,0.,0.));
#786=DIRECTION('center_axis',(0.,-1.,0.));
#787=DIRECTION('ref_axis',(0.,0.,-1.));
#788=DIRECTION('',(0.,0.,-1.));
#789=DIRECTION('center_axis',(0.,1.,0.));
#790=DIRECTION('ref_axis',(-0.707106781186547,0.,-0.707106781186548));
#791=DIRECTION('',(1.,0.,0.));
#792=DIRECTION('center_axis',(0.,1.,0.));
#793=DIRECTION('ref_axis',(0.707106781186546,0.,-0.707106781186549));
#794=DIRECTION('',(0.,0.,1.));
#795=DIRECTION('center_axis',(0.,1.,0.));
#796=DIRECTION('ref_axis',(0.707106781186548,0.,0.707106781186548));
#797=DIRECTION('center_axis',(0.,-1.,0.));
#798=DIRECTION('ref_axis',(-0.707106781186547,0.,-0.707106781186548));
#799=DIRECTION('',(0.,1.,0.));
#800=DIRECTION('center_axis',(0.,-1.,0.));
#801=DIRECTION('ref_axis',(-0.707106781186547,0.,-0.707106781186548));
#802=DIRECTION('',(0.,-1.,0.));
#803=DIRECTION('center_axis',(0.,0.,-1.));
#804=DIRECTION('ref_axis',(1.,0.,0.));
#805=DIRECTION('',(1.,0.,0.));
#806=DIRECTION('',(0.,1.,0.));
#807=DIRECTION('center_axis',(0.,-1.,0.));
#808=DIRECTION('ref_axis',(0.707106781186546,0.,-0.707106781186549));
#809=DIRECTION('center_axis',(0.,-1.,0.));
#810=DIRECTION('ref_axis',(0.707106781186546,0.,-0.707106781186549));
#811=DIRECTION('',(0.,-1.,0.));
#812=DIRECTION('center_axis',(0.,-1.,0.));
#813=DIRECTION('ref_axis',(0.707106781186548,0.,0.707106781186548));
#814=DIRECTION('',(0.,1.,0.));
#815=DIRECTION('center_axis',(0.,-1.,0.));
#816=DIRECTION('ref_axis',(0.707106781186548,0.,0.707106781186548));
#817=DIRECTION('center_axis',(1.,0.,0.));
#818=DIRECTION('ref_axis',(0.,0.,1.));
#819=DIRECTION('',(0.,0.,1.));
#820=DIRECTION('center_axis',(-1.,0.,0.));
#821=DIRECTION('ref_axis',(0.,0.,-1.));
#822=DIRECTION('',(0.,0.,-1.));
#823=DIRECTION('center_axis',(0.,1.,0.));
#824=DIRECTION('ref_axis',(1.,0.,0.));
#825=CARTESIAN_POINT('',(0.,0.,0.));
#826=CARTESIAN_POINT('Origin',(142.5,46.2,227.3));
#827=CARTESIAN_POINT('',(142.5,41.2,231.1));
#828=CARTESIAN_POINT('',(142.5,46.2,231.1));
#829=CARTESIAN_POINT('',(142.5,47.7,231.1));
#830=CARTESIAN_POINT('',(142.5,41.2,232.3));
#831=CARTESIAN_POINT('',(142.5,41.2,227.3));
#832=CARTESIAN_POINT('',(142.5,46.2,232.3));
#833=CARTESIAN_POINT('',(142.5,53.1,232.3));
#834=CARTESIAN_POINT('',(142.5,46.2,227.3));
#835=CARTESIAN_POINT('Origin',(110.,46.2,229.9));
#836=CARTESIAN_POINT('',(77.5,46.2,231.1));
#837=CARTESIAN_POINT('',(139.1,46.2,231.1));
#838=CARTESIAN_POINT('',(77.5,46.2,232.3));
#839=CARTESIAN_POINT('',(141.1,46.2,232.3));
#840=CARTESIAN_POINT('',(77.5,46.2,232.5));
#841=CARTESIAN_POINT('Origin',(77.5,46.2,232.5));
#842=CARTESIAN_POINT('',(77.5,41.2,231.1));
#843=CARTESIAN_POINT('',(77.5,47.7,231.1));
#844=CARTESIAN_POINT('',(77.5,41.2,232.3));
#845=CARTESIAN_POINT('',(77.5,53.1,232.3));
#846=CARTESIAN_POINT('',(77.5,41.2,232.5));
#847=CARTESIAN_POINT('Origin',(168.2,49.2,231.1));
#848=CARTESIAN_POINT('',(-77.5,41.2,231.1));
#849=CARTESIAN_POINT('',(168.2,41.2,231.1));
#850=CARTESIAN_POINT('',(-77.5,46.2,231.1));
#851=CARTESIAN_POINT('',(-77.5,47.7,231.1));
#852=CARTESIAN_POINT('',(-142.5,46.2,231.1));
#853=CARTESIAN_POINT('',(29.1,46.2,231.1));
#854=CARTESIAN_POINT('',(-142.5,41.2,231.1));
#855=CARTESIAN_POINT('',(-142.5,47.7,231.1));
#856=CARTESIAN_POINT('',(-166.2,41.2,231.1));
#857=CARTESIAN_POINT('',(168.2,41.2,231.1));
#858=CARTESIAN_POINT('',(-166.2,49.2,231.1));
#859=CARTESIAN_POINT('',(-166.2,49.2,231.1));
#860=CARTESIAN_POINT('',(166.2,49.2,231.1));
#861=CARTESIAN_POINT('',(168.2,49.2,231.1));
#862=CARTESIAN_POINT('',(166.2,41.2,231.1));
#863=CARTESIAN_POINT('',(166.2,49.2,231.1));
#864=CARTESIAN_POINT('',(168.2,41.2,231.1));
#865=CARTESIAN_POINT('Origin',(-77.5,46.2,227.3));
#866=CARTESIAN_POINT('',(-77.5,41.2,232.3));
#867=CARTESIAN_POINT('',(-77.5,41.2,227.3));
#868=CARTESIAN_POINT('',(-77.5,46.2,232.3));
#869=CARTESIAN_POINT('',(-77.5,53.1,232.3));
#870=CARTESIAN_POINT('',(-77.5,46.2,227.3));
#871=CARTESIAN_POINT('Origin',(-110.,46.2,229.9));
#872=CARTESIAN_POINT('',(-142.5,46.2,232.3));
#873=CARTESIAN_POINT('',(31.1,46.2,232.3));
#874=CARTESIAN_POINT('',(-142.5,46.2,232.5));
#875=CARTESIAN_POINT('Origin',(-142.5,46.2,232.5));
#876=CARTESIAN_POINT('',(-142.5,41.2,232.3));
#877=CARTESIAN_POINT('',(-142.5,53.1,232.3));
#878=CARTESIAN_POINT('',(-142.5,41.2,232.5));
#879=CARTESIAN_POINT('Origin',(-145.,41.4,212.3));
#880=CARTESIAN_POINT('',(-145.,40.,182.3));
#881=CARTESIAN_POINT('',(-145.,40.,212.3));
#882=CARTESIAN_POINT('',(-145.,40.,164.725));
#883=CARTESIAN_POINT('',(-145.,41.2,182.3));
#884=CARTESIAN_POINT('',(-145.,41.4,182.3));
#885=CARTESIAN_POINT('',(-145.,41.2,212.3));
#886=CARTESIAN_POINT('',(-145.,41.2,169.425));
#887=CARTESIAN_POINT('',(-145.,41.4,212.3));
#888=CARTESIAN_POINT('Origin',(145.,41.4,212.3));
#889=CARTESIAN_POINT('',(145.,40.,212.3));
#890=CARTESIAN_POINT('',(72.5,40.,212.3));
#891=CARTESIAN_POINT('',(145.,41.2,212.3));
#892=CARTESIAN_POINT('',(72.5,41.2,212.3));
#893=CARTESIAN_POINT('',(145.,41.4,212.3));
#894=CARTESIAN_POINT('Origin',(145.,41.4,182.3));
#895=CARTESIAN_POINT('',(145.,40.,182.3));
#896=CARTESIAN_POINT('',(145.,40.,149.725));
#897=CARTESIAN_POINT('',(145.,41.2,182.3));
#898=CARTESIAN_POINT('',(145.,41.2,154.425));
#899=CARTESIAN_POINT('',(145.,41.4,182.3));
#900=CARTESIAN_POINT('Origin',(-145.,41.4,182.3));
#901=CARTESIAN_POINT('',(-72.5,40.,182.3));
#902=CARTESIAN_POINT('',(-72.5,41.2,182.3));
#903=CARTESIAN_POINT('Origin',(-166.2,49.2,229.1));
#904=CARTESIAN_POINT('',(-168.2,41.2,229.1));
#905=CARTESIAN_POINT('Origin',(-166.2,41.2,229.1));
#906=CARTESIAN_POINT('',(-168.2,49.2,229.1));
#907=CARTESIAN_POINT('',(-168.2,49.2,229.1));
#908=CARTESIAN_POINT('Origin',(-166.2,49.2,229.1));
#909=CARTESIAN_POINT('Origin',(0.,41.2,126.55));
#910=CARTESIAN_POINT('',(168.2,41.2,229.1));
#911=CARTESIAN_POINT('Origin',(166.2,41.2,229.1));
#912=CARTESIAN_POINT('',(168.2,41.2,24.));
#913=CARTESIAN_POINT('',(168.2,41.2,22.));
#914=CARTESIAN_POINT('',(166.2,41.2,22.));
#915=CARTESIAN_POINT('Origin',(166.2,41.2,24.));
#916=CARTESIAN_POINT('',(-166.2,41.2,22.));
#917=CARTESIAN_POINT('',(-168.2,41.2,22.));
#918=CARTESIAN_POINT('',(-168.2,41.2,24.));
#919=CARTESIAN_POINT('Origin',(-166.2,41.2,24.));
#920=CARTESIAN_POINT('',(-168.2,41.2,231.1));
#921=CARTESIAN_POINT('',(31.1,41.2,232.3));
#922=CARTESIAN_POINT('',(141.1,41.2,232.3));
#923=CARTESIAN_POINT('Origin',(-166.2,49.2,24.));
#924=CARTESIAN_POINT('',(-166.2,49.2,22.));
#925=CARTESIAN_POINT('',(-166.2,49.2,22.));
#926=CARTESIAN_POINT('',(-168.2,49.2,24.));
#927=CARTESIAN_POINT('Origin',(-166.2,49.2,24.));
#928=CARTESIAN_POINT('',(-168.2,49.2,24.));
#929=CARTESIAN_POINT('Origin',(-168.2,49.2,22.));
#930=CARTESIAN_POINT('',(166.2,49.2,22.));
#931=CARTESIAN_POINT('',(166.2,49.2,22.));
#932=CARTESIAN_POINT('',(-168.2,49.2,22.));
#933=CARTESIAN_POINT('Origin',(166.2,49.2,24.));
#934=CARTESIAN_POINT('',(168.2,49.2,24.));
#935=CARTESIAN_POINT('',(168.2,49.2,24.));
#936=CARTESIAN_POINT('Origin',(166.2,49.2,24.));
#937=CARTESIAN_POINT('Origin',(166.2,49.2,229.1));
#938=CARTESIAN_POINT('',(168.2,49.2,229.1));
#939=CARTESIAN_POINT('Origin',(166.2,49.2,229.1));
#940=CARTESIAN_POINT('',(168.2,49.2,229.1));
#941=CARTESIAN_POINT('Origin',(168.2,49.2,22.));
#942=CARTESIAN_POINT('',(168.2,49.2,22.));
#943=CARTESIAN_POINT('Origin',(-168.2,49.2,231.1));
#944=CARTESIAN_POINT('',(-168.2,49.2,231.1));
#945=CARTESIAN_POINT('Origin',(0.,49.2,126.55));
#946=CARTESIAN_POINT('Origin',(-168.2,60.,228.3));
#947=CARTESIAN_POINT('',(-172.2,40.,228.3));
#948=CARTESIAN_POINT('',(-168.2,40.,232.3));
#949=CARTESIAN_POINT('Origin',(-168.2,40.,228.3));
#950=CARTESIAN_POINT('',(-168.2,60.,232.3));
#951=CARTESIAN_POINT('',(-168.2,60.,232.3));
#952=CARTESIAN_POINT('',(-172.2,60.,228.3));
#953=CARTESIAN_POINT('Origin',(-168.2,60.,228.3));
#954=CARTESIAN_POINT('',(-172.2,60.,228.3));
#955=CARTESIAN_POINT('Origin',(172.2,60.,232.3));
#956=CARTESIAN_POINT('',(168.2,40.,232.3));
#957=CARTESIAN_POINT('',(172.2,40.,232.3));
#958=CARTESIAN_POINT('',(168.2,60.,232.3));
#959=CARTESIAN_POINT('',(168.2,60.,232.3));
#960=CARTESIAN_POINT('',(172.2,60.,232.3));
#961=CARTESIAN_POINT('Origin',(0.,40.,117.15));
#962=CARTESIAN_POINT('',(-172.2,40.,5.99999999999998));
#963=CARTESIAN_POINT('',(-172.2,40.,232.3));
#964=CARTESIAN_POINT('',(-168.2,40.,2.));
#965=CARTESIAN_POINT('Origin',(-168.2,40.,6.));
#966=CARTESIAN_POINT('',(168.2,40.,2.));
#967=CARTESIAN_POINT('',(-172.2,40.,2.));
#968=CARTESIAN_POINT('',(172.2,40.,6.));
#969=CARTESIAN_POINT('Origin',(168.2,40.,6.));
#970=CARTESIAN_POINT('',(172.2,40.,228.3));
#971=CARTESIAN_POINT('',(172.2,40.,2.));
#972=CARTESIAN_POINT('Origin',(168.2,40.,228.3));
#973=CARTESIAN_POINT('Origin',(-168.2,60.,6.));
#974=CARTESIAN_POINT('',(-172.2,60.,5.99999999999998));
#975=CARTESIAN_POINT('',(-172.2,60.,6.));
#976=CARTESIAN_POINT('',(-168.2,60.,2.));
#977=CARTESIAN_POINT('Origin',(-168.2,60.,6.));
#978=CARTESIAN_POINT('',(-168.2,60.,2.));
#979=CARTESIAN_POINT('Origin',(-172.2,60.,2.));
#980=CARTESIAN_POINT('',(168.2,60.,2.));
#981=CARTESIAN_POINT('',(-172.2,60.,2.));
#982=CARTESIAN_POINT('',(168.2,60.,2.));
#983=CARTESIAN_POINT('Origin',(168.2,60.,6.));
#984=CARTESIAN_POINT('',(172.2,60.,6.));
#985=CARTESIAN_POINT('Origin',(168.2,60.,6.));
#986=CARTESIAN_POINT('',(172.2,60.,6.));
#987=CARTESIAN_POINT('Origin',(168.2,60.,228.3));
#988=CARTESIAN_POINT('',(172.2,60.,228.3));
#989=CARTESIAN_POINT('',(172.2,60.,228.3));
#990=CARTESIAN_POINT('Origin',(168.2,60.,228.3));
#991=CARTESIAN_POINT('Origin',(172.2,60.,2.));
#992=CARTESIAN_POINT('',(172.2,60.,2.));
#993=CARTESIAN_POINT('Origin',(-172.2,60.,232.3));
#994=CARTESIAN_POINT('',(-172.2,60.,232.3));
#995=CARTESIAN_POINT('Origin',(0.,60.,117.15));
#996=UNCERTAINTY_MEASURE_WITH_UNIT(LENGTH_MEASURE(0.01),#1000,
'DISTANCE_ACCURACY_VALUE',
'Maximum model space distance between geometric entities at asserted c
onnectivities');
#997=UNCERTAINTY_MEASURE_WITH_UNIT(LENGTH_MEASURE(0.01),#1000,
'DISTANCE_ACCURACY_VALUE',
'Maximum model space distance between geometric entities at asserted c
onnectivities');
#998=(
GEOMETRIC_REPRESENTATION_CONTEXT(3)
GLOBAL_UNCERTAINTY_ASSIGNED_CONTEXT((#996))
GLOBAL_UNIT_ASSIGNED_CONTEXT((#1000,#1002,#1003))
REPRESENTATION_CONTEXT('','3D')
);
#999=(
GEOMETRIC_REPRESENTATION_CONTEXT(3)
GLOBAL_UNCERTAINTY_ASSIGNED_CONTEXT((#997))
GLOBAL_UNIT_ASSIGNED_CONTEXT((#1000,#1002,#1003))
REPRESENTATION_CONTEXT('','3D')
);
#1000=(
LENGTH_UNIT()
NAMED_UNIT(*)
SI_UNIT(.MILLI.,.METRE.)
);
#1001=(
LENGTH_UNIT()
NAMED_UNIT(*)
SI_UNIT($,.METRE.)
);
#1002=(
NAMED_UNIT(*)
PLANE_ANGLE_UNIT()
SI_UNIT($,.RADIAN.)
);
#1003=(
NAMED_UNIT(*)
SI_UNIT($,.STERADIAN.)
SOLID_ANGLE_UNIT()
);
#1004=SHAPE_DEFINITION_REPRESENTATION(#1005,#1006);
#1005=PRODUCT_DEFINITION_SHAPE('',$,#1008);
#1006=SHAPE_REPRESENTATION('',(#616),#998);
#1007=PRODUCT_DEFINITION_CONTEXT('part definition',#1012,'design');
#1008=PRODUCT_DEFINITION('90 CFD helpers | NOT PRINTED',
'90 CFD helpers | NOT PRINTED',#1009,#1007);
#1009=PRODUCT_DEFINITION_FORMATION('',$,#1014);
#1010=PRODUCT_RELATED_PRODUCT_CATEGORY('90 CFD helpers | NOT PRINTED',
'90 CFD helpers | NOT PRINTED',(#1014));
#1011=APPLICATION_PROTOCOL_DEFINITION('international standard',
'automotive_design',2009,#1012);
#1012=APPLICATION_CONTEXT(
'Core Data for Automotive Mechanical Design Process');
#1013=PRODUCT_CONTEXT('part definition',#1012,'mechanical');
#1014=PRODUCT('90 CFD helpers | NOT PRINTED',
'90 CFD helpers | NOT PRINTED',$,(#1013));
#1015=PRESENTATION_STYLE_ASSIGNMENT((#1016));
#1016=SURFACE_STYLE_USAGE(.BOTH.,#1017);
#1017=SURFACE_SIDE_STYLE('',(#1018));
#1018=SURFACE_STYLE_FILL_AREA(#1019);
#1019=FILL_AREA_STYLE('Steel - Satin',(#1020));
#1020=FILL_AREA_STYLE_COLOUR('Steel - Satin',#1021);
#1021=COLOUR_RGB('Steel - Satin',0.627450980392157,0.627450980392157,0.627450980392157);
ENDSEC;
END-ISO-10303-21;
