ISO-10303-21;
HEADER;
/* Generated by software containing ST-Developer
 * from STEP Tools, Inc. (www.steptools.com) 
 */

FILE_DESCRIPTION(
/* description */ (''),
/* implementation_level */ '2;1');

FILE_NAME(
/* name */ 'cfd_helpers_traced.step',
/* time_stamp */ '2026-09-07T17:51:01-04:00',
/* author */ (''),
/* organization */ (''),
/* preprocessor_version */ 'ST-DEVELOPER v20.1',
/* originating_system */ 'Autodesk Translation Framework v15.8.0.0',
/* authorisation */ '');

FILE_SCHEMA (('AUTOMOTIVE_DESIGN { 1 0 10303 214 3 1 1 }'));
ENDSEC;

DATA;
#10=MECHANICAL_DESIGN_GEOMETRIC_PRESENTATION_REPRESENTATION('',(#21,#22,
#23,#24,#25,#26),#1986);
#11=SHAPE_REPRESENTATION_RELATIONSHIP('SRR','None',#1993,#12);
#12=ADVANCED_BREP_SHAPE_REPRESENTATION('',(#27,#28,#29,#30,#31,#32),#1985);
#13=CIRCLE('',#1309,25.);
#14=CIRCLE('',#1310,25.);
#15=CIRCLE('',#1320,25.);
#16=CIRCLE('',#1321,25.);
#17=CYLINDRICAL_SURFACE('',#1308,25.);
#18=CYLINDRICAL_SURFACE('',#1319,25.);
#19=FACE_BOUND('',#139,.T.);
#20=FACE_BOUND('',#140,.T.);
#21=STYLED_ITEM('',(#2002),#27);
#22=STYLED_ITEM('',(#2002),#28);
#23=STYLED_ITEM('',(#2002),#29);
#24=STYLED_ITEM('',(#2002),#30);
#25=STYLED_ITEM('',(#2002),#31);
#26=STYLED_ITEM('',(#2002),#32);
#27=MANIFOLD_SOLID_BREP('WALL | Y=0',#1241);
#28=MANIFOLD_SOLID_BREP(
'LAPTOP | traced shell with twin internal ducts',#1242);
#29=MANIFOLD_SOLID_BREP('LH DELL FAN | actuator, not obstruction',#1243);
#30=MANIFOLD_SOLID_BREP('LH INTAKE GRILLE | porous marker',#1244);
#31=MANIFOLD_SOLID_BREP('RH DELL FAN | actuator, not obstruction',#1245);
#32=MANIFOLD_SOLID_BREP('RH INTAKE GRILLE | porous marker',#1246);
#33=FACE_OUTER_BOUND('',#99,.T.);
#34=FACE_OUTER_BOUND('',#100,.T.);
#35=FACE_OUTER_BOUND('',#101,.T.);
#36=FACE_OUTER_BOUND('',#102,.T.);
#37=FACE_OUTER_BOUND('',#103,.T.);
#38=FACE_OUTER_BOUND('',#104,.T.);
#39=FACE_OUTER_BOUND('',#105,.T.);
#40=FACE_OUTER_BOUND('',#106,.T.);
#41=FACE_OUTER_BOUND('',#107,.T.);
#42=FACE_OUTER_BOUND('',#108,.T.);
#43=FACE_OUTER_BOUND('',#109,.T.);
#44=FACE_OUTER_BOUND('',#110,.T.);
#45=FACE_OUTER_BOUND('',#111,.T.);
#46=FACE_OUTER_BOUND('',#112,.T.);
#47=FACE_OUTER_BOUND('',#113,.T.);
#48=FACE_OUTER_BOUND('',#114,.T.);
#49=FACE_OUTER_BOUND('',#115,.T.);
#50=FACE_OUTER_BOUND('',#116,.T.);
#51=FACE_OUTER_BOUND('',#117,.T.);
#52=FACE_OUTER_BOUND('',#118,.T.);
#53=FACE_OUTER_BOUND('',#119,.T.);
#54=FACE_OUTER_BOUND('',#120,.T.);
#55=FACE_OUTER_BOUND('',#121,.T.);
#56=FACE_OUTER_BOUND('',#122,.T.);
#57=FACE_OUTER_BOUND('',#123,.T.);
#58=FACE_OUTER_BOUND('',#124,.T.);
#59=FACE_OUTER_BOUND('',#125,.T.);
#60=FACE_OUTER_BOUND('',#126,.T.);
#61=FACE_OUTER_BOUND('',#127,.T.);
#62=FACE_OUTER_BOUND('',#128,.T.);
#63=FACE_OUTER_BOUND('',#129,.T.);
#64=FACE_OUTER_BOUND('',#130,.T.);
#65=FACE_OUTER_BOUND('',#131,.T.);
#66=FACE_OUTER_BOUND('',#132,.T.);
#67=FACE_OUTER_BOUND('',#133,.T.);
#68=FACE_OUTER_BOUND('',#134,.T.);
#69=FACE_OUTER_BOUND('',#135,.T.);
#70=FACE_OUTER_BOUND('',#136,.T.);
#71=FACE_OUTER_BOUND('',#137,.T.);
#72=FACE_OUTER_BOUND('',#138,.T.);
#73=FACE_OUTER_BOUND('',#141,.T.);
#74=FACE_OUTER_BOUND('',#142,.T.);
#75=FACE_OUTER_BOUND('',#143,.T.);
#76=FACE_OUTER_BOUND('',#144,.T.);
#77=FACE_OUTER_BOUND('',#145,.T.);
#78=FACE_OUTER_BOUND('',#146,.T.);
#79=FACE_OUTER_BOUND('',#147,.T.);
#80=FACE_OUTER_BOUND('',#148,.T.);
#81=FACE_OUTER_BOUND('',#149,.T.);
#82=FACE_OUTER_BOUND('',#150,.T.);
#83=FACE_OUTER_BOUND('',#151,.T.);
#84=FACE_OUTER_BOUND('',#152,.T.);
#85=FACE_OUTER_BOUND('',#153,.T.);
#86=FACE_OUTER_BOUND('',#154,.T.);
#87=FACE_OUTER_BOUND('',#155,.T.);
#88=FACE_OUTER_BOUND('',#156,.T.);
#89=FACE_OUTER_BOUND('',#157,.T.);
#90=FACE_OUTER_BOUND('',#158,.T.);
#91=FACE_OUTER_BOUND('',#159,.T.);
#92=FACE_OUTER_BOUND('',#160,.T.);
#93=FACE_OUTER_BOUND('',#161,.T.);
#94=FACE_OUTER_BOUND('',#162,.T.);
#95=FACE_OUTER_BOUND('',#163,.T.);
#96=FACE_OUTER_BOUND('',#164,.T.);
#97=FACE_OUTER_BOUND('',#165,.T.);
#98=FACE_OUTER_BOUND('',#166,.T.);
#99=EDGE_LOOP('',(#775,#776,#777,#778));
#100=EDGE_LOOP('',(#779,#780,#781,#782));
#101=EDGE_LOOP('',(#783,#784,#785,#786));
#102=EDGE_LOOP('',(#787,#788,#789,#790));
#103=EDGE_LOOP('',(#791,#792,#793,#794));
#104=EDGE_LOOP('',(#795,#796,#797,#798));
#105=EDGE_LOOP('',(#799,#800,#801,#802));
#106=EDGE_LOOP('',(#803,#804,#805,#806));
#107=EDGE_LOOP('',(#807,#808,#809,#810,#811,#812,#813,#814));
#108=EDGE_LOOP('',(#815,#816,#817,#818));
#109=EDGE_LOOP('',(#819,#820,#821,#822));
#110=EDGE_LOOP('',(#823,#824,#825,#826,#827,#828,#829,#830));
#111=EDGE_LOOP('',(#831,#832,#833,#834,#835,#836));
#112=EDGE_LOOP('',(#837,#838,#839,#840));
#113=EDGE_LOOP('',(#841,#842,#843,#844));
#114=EDGE_LOOP('',(#845,#846,#847,#848));
#115=EDGE_LOOP('',(#849,#850,#851,#852));
#116=EDGE_LOOP('',(#853,#854,#855,#856));
#117=EDGE_LOOP('',(#857,#858,#859,#860));
#118=EDGE_LOOP('',(#861,#862,#863,#864,#865,#866,#867,#868));
#119=EDGE_LOOP('',(#869,#870,#871,#872,#873,#874));
#120=EDGE_LOOP('',(#875,#876,#877,#878));
#121=EDGE_LOOP('',(#879,#880,#881,#882));
#122=EDGE_LOOP('',(#883,#884,#885,#886));
#123=EDGE_LOOP('',(#887,#888,#889,#890));
#124=EDGE_LOOP('',(#891,#892,#893,#894));
#125=EDGE_LOOP('',(#895,#896,#897,#898));
#126=EDGE_LOOP('',(#899,#900,#901,#902,#903,#904,#905,#906,#907,#908));
#127=EDGE_LOOP('',(#909,#910,#911,#912));
#128=EDGE_LOOP('',(#913,#914,#915,#916,#917,#918,#919,#920,#921,#922));
#129=EDGE_LOOP('',(#923,#924,#925,#926,#927,#928,#929,#930,#931,#932,#933,
#934));
#130=EDGE_LOOP('',(#935,#936,#937,#938,#939,#940,#941,#942,#943,#944));
#131=EDGE_LOOP('',(#945,#946,#947,#948));
#132=EDGE_LOOP('',(#949,#950,#951,#952,#953,#954,#955,#956,#957,#958));
#133=EDGE_LOOP('',(#959,#960,#961,#962));
#134=EDGE_LOOP('',(#963,#964,#965,#966));
#135=EDGE_LOOP('',(#967,#968,#969,#970));
#136=EDGE_LOOP('',(#971,#972,#973,#974));
#137=EDGE_LOOP('',(#975,#976,#977,#978));
#138=EDGE_LOOP('',(#979,#980,#981,#982));
#139=EDGE_LOOP('',(#983,#984,#985,#986));
#140=EDGE_LOOP('',(#987,#988,#989,#990));
#141=EDGE_LOOP('',(#991,#992,#993,#994));
#142=EDGE_LOOP('',(#995,#996,#997,#998));
#143=EDGE_LOOP('',(#999,#1000,#1001,#1002));
#144=EDGE_LOOP('',(#1003,#1004,#1005,#1006,#1007,#1008,#1009,#1010,#1011,
#1012,#1013,#1014));
#145=EDGE_LOOP('',(#1015,#1016,#1017,#1018));
#146=EDGE_LOOP('',(#1019,#1020,#1021,#1022));
#147=EDGE_LOOP('',(#1023,#1024,#1025,#1026,#1027,#1028,#1029,#1030,#1031,
#1032,#1033,#1034,#1035,#1036));
#148=EDGE_LOOP('',(#1037,#1038,#1039,#1040,#1041,#1042,#1043,#1044,#1045,
#1046,#1047,#1048,#1049,#1050));
#149=EDGE_LOOP('',(#1051,#1052,#1053,#1054));
#150=EDGE_LOOP('',(#1055));
#151=EDGE_LOOP('',(#1056));
#152=EDGE_LOOP('',(#1057,#1058,#1059,#1060));
#153=EDGE_LOOP('',(#1061,#1062,#1063,#1064));
#154=EDGE_LOOP('',(#1065,#1066,#1067,#1068));
#155=EDGE_LOOP('',(#1069,#1070,#1071,#1072));
#156=EDGE_LOOP('',(#1073,#1074,#1075,#1076));
#157=EDGE_LOOP('',(#1077,#1078,#1079,#1080));
#158=EDGE_LOOP('',(#1081,#1082,#1083,#1084));
#159=EDGE_LOOP('',(#1085));
#160=EDGE_LOOP('',(#1086));
#161=EDGE_LOOP('',(#1087,#1088,#1089,#1090));
#162=EDGE_LOOP('',(#1091,#1092,#1093,#1094));
#163=EDGE_LOOP('',(#1095,#1096,#1097,#1098));
#164=EDGE_LOOP('',(#1099,#1100,#1101,#1102));
#165=EDGE_LOOP('',(#1103,#1104,#1105,#1106));
#166=EDGE_LOOP('',(#1107,#1108,#1109,#1110));
#167=LINE('',#1640,#331);
#168=LINE('',#1642,#332);
#169=LINE('',#1644,#333);
#170=LINE('',#1645,#334);
#171=LINE('',#1648,#335);
#172=LINE('',#1650,#336);
#173=LINE('',#1651,#337);
#174=LINE('',#1654,#338);
#175=LINE('',#1656,#339);
#176=LINE('',#1657,#340);
#177=LINE('',#1659,#341);
#178=LINE('',#1660,#342);
#179=LINE('',#1666,#343);
#180=LINE('',#1668,#344);
#181=LINE('',#1670,#345);
#182=LINE('',#1671,#346);
#183=LINE('',#1675,#347);
#184=LINE('',#1677,#348);
#185=LINE('',#1679,#349);
#186=LINE('',#1680,#350);
#187=LINE('',#1683,#351);
#188=LINE('',#1685,#352);
#189=LINE('',#1687,#353);
#190=LINE('',#1689,#354);
#191=LINE('',#1690,#355);
#192=LINE('',#1691,#356);
#193=LINE('',#1694,#357);
#194=LINE('',#1695,#358);
#195=LINE('',#1698,#359);
#196=LINE('',#1699,#360);
#197=LINE('',#1702,#361);
#198=LINE('',#1704,#362);
#199=LINE('',#1706,#363);
#200=LINE('',#1708,#364);
#201=LINE('',#1710,#365);
#202=LINE('',#1711,#366);
#203=LINE('',#1714,#367);
#204=LINE('',#1716,#368);
#205=LINE('',#1718,#369);
#206=LINE('',#1719,#370);
#207=LINE('',#1723,#371);
#208=LINE('',#1725,#372);
#209=LINE('',#1727,#373);
#210=LINE('',#1728,#374);
#211=LINE('',#1732,#375);
#212=LINE('',#1734,#376);
#213=LINE('',#1736,#377);
#214=LINE('',#1737,#378);
#215=LINE('',#1740,#379);
#216=LINE('',#1742,#380);
#217=LINE('',#1743,#381);
#218=LINE('',#1746,#382);
#219=LINE('',#1748,#383);
#220=LINE('',#1749,#384);
#221=LINE('',#1752,#385);
#222=LINE('',#1754,#386);
#223=LINE('',#1755,#387);
#224=LINE('',#1759,#388);
#225=LINE('',#1761,#389);
#226=LINE('',#1763,#390);
#227=LINE('',#1764,#391);
#228=LINE('',#1767,#392);
#229=LINE('',#1769,#393);
#230=LINE('',#1771,#394);
#231=LINE('',#1773,#395);
#232=LINE('',#1774,#396);
#233=LINE('',#1775,#397);
#234=LINE('',#1778,#398);
#235=LINE('',#1780,#399);
#236=LINE('',#1782,#400);
#237=LINE('',#1784,#401);
#238=LINE('',#1785,#402);
#239=LINE('',#1787,#403);
#240=LINE('',#1789,#404);
#241=LINE('',#1793,#405);
#242=LINE('',#1795,#406);
#243=LINE('',#1797,#407);
#244=LINE('',#1798,#408);
#245=LINE('',#1802,#409);
#246=LINE('',#1804,#410);
#247=LINE('',#1806,#411);
#248=LINE('',#1807,#412);
#249=LINE('',#1810,#413);
#250=LINE('',#1812,#414);
#251=LINE('',#1813,#415);
#252=LINE('',#1816,#416);
#253=LINE('',#1818,#417);
#254=LINE('',#1819,#418);
#255=LINE('',#1821,#419);
#256=LINE('',#1822,#420);
#257=LINE('',#1823,#421);
#258=LINE('',#1825,#422);
#259=LINE('',#1827,#423);
#260=LINE('',#1828,#424);
#261=LINE('',#1830,#425);
#262=LINE('',#1831,#426);
#263=LINE('',#1833,#427);
#264=LINE('',#1835,#428);
#265=LINE('',#1836,#429);
#266=LINE('',#1838,#430);
#267=LINE('',#1839,#431);
#268=LINE('',#1841,#432);
#269=LINE('',#1843,#433);
#270=LINE('',#1847,#434);
#271=LINE('',#1849,#435);
#272=LINE('',#1851,#436);
#273=LINE('',#1852,#437);
#274=LINE('',#1855,#438);
#275=LINE('',#1857,#439);
#276=LINE('',#1858,#440);
#277=LINE('',#1861,#441);
#278=LINE('',#1863,#442);
#279=LINE('',#1864,#443);
#280=LINE('',#1867,#444);
#281=LINE('',#1869,#445);
#282=LINE('',#1870,#446);
#283=LINE('',#1873,#447);
#284=LINE('',#1875,#448);
#285=LINE('',#1876,#449);
#286=LINE('',#1879,#450);
#287=LINE('',#1881,#451);
#288=LINE('',#1882,#452);
#289=LINE('',#1885,#453);
#290=LINE('',#1887,#454);
#291=LINE('',#1888,#455);
#292=LINE('',#1891,#456);
#293=LINE('',#1893,#457);
#294=LINE('',#1894,#458);
#295=LINE('',#1896,#459);
#296=LINE('',#1897,#460);
#297=LINE('',#1900,#461);
#298=LINE('',#1902,#462);
#299=LINE('',#1903,#463);
#300=LINE('',#1906,#464);
#301=LINE('',#1908,#465);
#302=LINE('',#1909,#466);
#303=LINE('',#1911,#467);
#304=LINE('',#1912,#468);
#305=LINE('',#1919,#469);
#306=LINE('',#1926,#470);
#307=LINE('',#1928,#471);
#308=LINE('',#1930,#472);
#309=LINE('',#1931,#473);
#310=LINE('',#1934,#474);
#311=LINE('',#1936,#475);
#312=LINE('',#1937,#476);
#313=LINE('',#1940,#477);
#314=LINE('',#1942,#478);
#315=LINE('',#1943,#479);
#316=LINE('',#1945,#480);
#317=LINE('',#1946,#481);
#318=LINE('',#1953,#482);
#319=LINE('',#1960,#483);
#320=LINE('',#1962,#484);
#321=LINE('',#1964,#485);
#322=LINE('',#1965,#486);
#323=LINE('',#1968,#487);
#324=LINE('',#1970,#488);
#325=LINE('',#1971,#489);
#326=LINE('',#1974,#490);
#327=LINE('',#1976,#491);
#328=LINE('',#1977,#492);
#329=LINE('',#1979,#493);
#330=LINE('',#1980,#494);
#331=VECTOR('',#1334,10.);
#332=VECTOR('',#1335,10.);
#333=VECTOR('',#1336,10.);
#334=VECTOR('',#1337,10.);
#335=VECTOR('',#1340,10.);
#336=VECTOR('',#1341,10.);
#337=VECTOR('',#1342,10.);
#338=VECTOR('',#1345,10.);
#339=VECTOR('',#1346,10.);
#340=VECTOR('',#1347,10.);
#341=VECTOR('',#1350,10.);
#342=VECTOR('',#1351,10.);
#343=VECTOR('',#1358,10.);
#344=VECTOR('',#1359,10.);
#345=VECTOR('',#1360,10.);
#346=VECTOR('',#1361,10.);
#347=VECTOR('',#1364,10.);
#348=VECTOR('',#1365,10.);
#349=VECTOR('',#1366,10.);
#350=VECTOR('',#1367,10.);
#351=VECTOR('',#1370,10.);
#352=VECTOR('',#1371,10.);
#353=VECTOR('',#1372,10.);
#354=VECTOR('',#1373,10.);
#355=VECTOR('',#1374,10.);
#356=VECTOR('',#1375,10.);
#357=VECTOR('',#1378,10.);
#358=VECTOR('',#1379,10.);
#359=VECTOR('',#1382,10.);
#360=VECTOR('',#1383,10.);
#361=VECTOR('',#1386,10.);
#362=VECTOR('',#1387,10.);
#363=VECTOR('',#1388,10.);
#364=VECTOR('',#1389,10.);
#365=VECTOR('',#1390,10.);
#366=VECTOR('',#1391,10.);
#367=VECTOR('',#1394,10.);
#368=VECTOR('',#1395,10.);
#369=VECTOR('',#1396,10.);
#370=VECTOR('',#1397,10.);
#371=VECTOR('',#1400,10.);
#372=VECTOR('',#1401,10.);
#373=VECTOR('',#1402,10.);
#374=VECTOR('',#1403,10.);
#375=VECTOR('',#1406,10.);
#376=VECTOR('',#1407,10.);
#377=VECTOR('',#1408,10.);
#378=VECTOR('',#1409,10.);
#379=VECTOR('',#1412,10.);
#380=VECTOR('',#1413,10.);
#381=VECTOR('',#1414,10.);
#382=VECTOR('',#1417,10.);
#383=VECTOR('',#1418,10.);
#384=VECTOR('',#1419,10.);
#385=VECTOR('',#1422,10.);
#386=VECTOR('',#1423,10.);
#387=VECTOR('',#1424,10.);
#388=VECTOR('',#1427,10.);
#389=VECTOR('',#1428,10.);
#390=VECTOR('',#1429,10.);
#391=VECTOR('',#1430,10.);
#392=VECTOR('',#1433,10.);
#393=VECTOR('',#1434,10.);
#394=VECTOR('',#1435,10.);
#395=VECTOR('',#1436,10.);
#396=VECTOR('',#1437,10.);
#397=VECTOR('',#1438,10.);
#398=VECTOR('',#1441,10.);
#399=VECTOR('',#1442,10.);
#400=VECTOR('',#1443,10.);
#401=VECTOR('',#1444,10.);
#402=VECTOR('',#1445,10.);
#403=VECTOR('',#1448,10.);
#404=VECTOR('',#1451,10.);
#405=VECTOR('',#1454,10.);
#406=VECTOR('',#1455,10.);
#407=VECTOR('',#1456,10.);
#408=VECTOR('',#1457,10.);
#409=VECTOR('',#1460,10.);
#410=VECTOR('',#1461,10.);
#411=VECTOR('',#1462,10.);
#412=VECTOR('',#1463,10.);
#413=VECTOR('',#1466,10.);
#414=VECTOR('',#1467,10.);
#415=VECTOR('',#1468,10.);
#416=VECTOR('',#1471,10.);
#417=VECTOR('',#1472,10.);
#418=VECTOR('',#1473,10.);
#419=VECTOR('',#1476,10.);
#420=VECTOR('',#1477,10.);
#421=VECTOR('',#1478,10.);
#422=VECTOR('',#1481,10.);
#423=VECTOR('',#1484,10.);
#424=VECTOR('',#1485,10.);
#425=VECTOR('',#1488,10.);
#426=VECTOR('',#1489,10.);
#427=VECTOR('',#1490,10.);
#428=VECTOR('',#1491,10.);
#429=VECTOR('',#1492,10.);
#430=VECTOR('',#1495,10.);
#431=VECTOR('',#1496,10.);
#432=VECTOR('',#1499,10.);
#433=VECTOR('',#1502,10.);
#434=VECTOR('',#1505,10.);
#435=VECTOR('',#1506,10.);
#436=VECTOR('',#1507,10.);
#437=VECTOR('',#1508,10.);
#438=VECTOR('',#1511,10.);
#439=VECTOR('',#1512,10.);
#440=VECTOR('',#1513,10.);
#441=VECTOR('',#1516,10.);
#442=VECTOR('',#1517,10.);
#443=VECTOR('',#1518,10.);
#444=VECTOR('',#1521,10.);
#445=VECTOR('',#1522,10.);
#446=VECTOR('',#1523,10.);
#447=VECTOR('',#1526,10.);
#448=VECTOR('',#1527,10.);
#449=VECTOR('',#1528,10.);
#450=VECTOR('',#1531,10.);
#451=VECTOR('',#1532,10.);
#452=VECTOR('',#1533,10.);
#453=VECTOR('',#1536,10.);
#454=VECTOR('',#1537,10.);
#455=VECTOR('',#1538,10.);
#456=VECTOR('',#1541,10.);
#457=VECTOR('',#1542,10.);
#458=VECTOR('',#1543,10.);
#459=VECTOR('',#1546,10.);
#460=VECTOR('',#1547,10.);
#461=VECTOR('',#1550,10.);
#462=VECTOR('',#1551,10.);
#463=VECTOR('',#1552,10.);
#464=VECTOR('',#1555,10.);
#465=VECTOR('',#1556,10.);
#466=VECTOR('',#1557,10.);
#467=VECTOR('',#1560,10.);
#468=VECTOR('',#1561,10.);
#469=VECTOR('',#1570,25.);
#470=VECTOR('',#1579,10.);
#471=VECTOR('',#1580,10.);
#472=VECTOR('',#1581,10.);
#473=VECTOR('',#1582,10.);
#474=VECTOR('',#1585,10.);
#475=VECTOR('',#1586,10.);
#476=VECTOR('',#1587,10.);
#477=VECTOR('',#1590,10.);
#478=VECTOR('',#1591,10.);
#479=VECTOR('',#1592,10.);
#480=VECTOR('',#1595,10.);
#481=VECTOR('',#1596,10.);
#482=VECTOR('',#1605,25.);
#483=VECTOR('',#1614,10.);
#484=VECTOR('',#1615,10.);
#485=VECTOR('',#1616,10.);
#486=VECTOR('',#1617,10.);
#487=VECTOR('',#1620,10.);
#488=VECTOR('',#1621,10.);
#489=VECTOR('',#1622,10.);
#490=VECTOR('',#1625,10.);
#491=VECTOR('',#1626,10.);
#492=VECTOR('',#1627,10.);
#493=VECTOR('',#1630,10.);
#494=VECTOR('',#1631,10.);
#495=VERTEX_POINT('',#1638);
#496=VERTEX_POINT('',#1639);
#497=VERTEX_POINT('',#1641);
#498=VERTEX_POINT('',#1643);
#499=VERTEX_POINT('',#1647);
#500=VERTEX_POINT('',#1649);
#501=VERTEX_POINT('',#1653);
#502=VERTEX_POINT('',#1655);
#503=VERTEX_POINT('',#1664);
#504=VERTEX_POINT('',#1665);
#505=VERTEX_POINT('',#1667);
#506=VERTEX_POINT('',#1669);
#507=VERTEX_POINT('',#1673);
#508=VERTEX_POINT('',#1674);
#509=VERTEX_POINT('',#1676);
#510=VERTEX_POINT('',#1678);
#511=VERTEX_POINT('',#1682);
#512=VERTEX_POINT('',#1684);
#513=VERTEX_POINT('',#1686);
#514=VERTEX_POINT('',#1688);
#515=VERTEX_POINT('',#1693);
#516=VERTEX_POINT('',#1697);
#517=VERTEX_POINT('',#1701);
#518=VERTEX_POINT('',#1703);
#519=VERTEX_POINT('',#1705);
#520=VERTEX_POINT('',#1707);
#521=VERTEX_POINT('',#1709);
#522=VERTEX_POINT('',#1713);
#523=VERTEX_POINT('',#1715);
#524=VERTEX_POINT('',#1717);
#525=VERTEX_POINT('',#1721);
#526=VERTEX_POINT('',#1722);
#527=VERTEX_POINT('',#1724);
#528=VERTEX_POINT('',#1726);
#529=VERTEX_POINT('',#1730);
#530=VERTEX_POINT('',#1731);
#531=VERTEX_POINT('',#1733);
#532=VERTEX_POINT('',#1735);
#533=VERTEX_POINT('',#1739);
#534=VERTEX_POINT('',#1741);
#535=VERTEX_POINT('',#1745);
#536=VERTEX_POINT('',#1747);
#537=VERTEX_POINT('',#1751);
#538=VERTEX_POINT('',#1753);
#539=VERTEX_POINT('',#1757);
#540=VERTEX_POINT('',#1758);
#541=VERTEX_POINT('',#1760);
#542=VERTEX_POINT('',#1762);
#543=VERTEX_POINT('',#1766);
#544=VERTEX_POINT('',#1768);
#545=VERTEX_POINT('',#1770);
#546=VERTEX_POINT('',#1772);
#547=VERTEX_POINT('',#1777);
#548=VERTEX_POINT('',#1779);
#549=VERTEX_POINT('',#1781);
#550=VERTEX_POINT('',#1783);
#551=VERTEX_POINT('',#1791);
#552=VERTEX_POINT('',#1792);
#553=VERTEX_POINT('',#1794);
#554=VERTEX_POINT('',#1796);
#555=VERTEX_POINT('',#1800);
#556=VERTEX_POINT('',#1801);
#557=VERTEX_POINT('',#1803);
#558=VERTEX_POINT('',#1805);
#559=VERTEX_POINT('',#1809);
#560=VERTEX_POINT('',#1811);
#561=VERTEX_POINT('',#1815);
#562=VERTEX_POINT('',#1817);
#563=VERTEX_POINT('',#1832);
#564=VERTEX_POINT('',#1834);
#565=VERTEX_POINT('',#1845);
#566=VERTEX_POINT('',#1846);
#567=VERTEX_POINT('',#1848);
#568=VERTEX_POINT('',#1850);
#569=VERTEX_POINT('',#1854);
#570=VERTEX_POINT('',#1856);
#571=VERTEX_POINT('',#1860);
#572=VERTEX_POINT('',#1862);
#573=VERTEX_POINT('',#1866);
#574=VERTEX_POINT('',#1868);
#575=VERTEX_POINT('',#1872);
#576=VERTEX_POINT('',#1874);
#577=VERTEX_POINT('',#1878);
#578=VERTEX_POINT('',#1880);
#579=VERTEX_POINT('',#1884);
#580=VERTEX_POINT('',#1886);
#581=VERTEX_POINT('',#1890);
#582=VERTEX_POINT('',#1892);
#583=VERTEX_POINT('',#1899);
#584=VERTEX_POINT('',#1901);
#585=VERTEX_POINT('',#1905);
#586=VERTEX_POINT('',#1907);
#587=VERTEX_POINT('',#1916);
#588=VERTEX_POINT('',#1918);
#589=VERTEX_POINT('',#1924);
#590=VERTEX_POINT('',#1925);
#591=VERTEX_POINT('',#1927);
#592=VERTEX_POINT('',#1929);
#593=VERTEX_POINT('',#1933);
#594=VERTEX_POINT('',#1935);
#595=VERTEX_POINT('',#1939);
#596=VERTEX_POINT('',#1941);
#597=VERTEX_POINT('',#1950);
#598=VERTEX_POINT('',#1952);
#599=VERTEX_POINT('',#1958);
#600=VERTEX_POINT('',#1959);
#601=VERTEX_POINT('',#1961);
#602=VERTEX_POINT('',#1963);
#603=VERTEX_POINT('',#1967);
#604=VERTEX_POINT('',#1969);
#605=VERTEX_POINT('',#1973);
#606=VERTEX_POINT('',#1975);
#607=EDGE_CURVE('',#495,#496,#167,.T.);
#608=EDGE_CURVE('',#496,#497,#168,.T.);
#609=EDGE_CURVE('',#498,#497,#169,.T.);
#610=EDGE_CURVE('',#495,#498,#170,.T.);
#611=EDGE_CURVE('',#499,#495,#171,.T.);
#612=EDGE_CURVE('',#500,#498,#172,.T.);
#613=EDGE_CURVE('',#499,#500,#173,.T.);
#614=EDGE_CURVE('',#501,#499,#174,.T.);
#615=EDGE_CURVE('',#502,#500,#175,.T.);
#616=EDGE_CURVE('',#501,#502,#176,.T.);
#617=EDGE_CURVE('',#496,#501,#177,.T.);
#618=EDGE_CURVE('',#497,#502,#178,.T.);
#619=EDGE_CURVE('',#503,#504,#179,.T.);
#620=EDGE_CURVE('',#505,#503,#180,.T.);
#621=EDGE_CURVE('',#506,#505,#181,.T.);
#622=EDGE_CURVE('',#504,#506,#182,.T.);
#623=EDGE_CURVE('',#507,#508,#183,.T.);
#624=EDGE_CURVE('',#509,#507,#184,.T.);
#625=EDGE_CURVE('',#510,#509,#185,.T.);
#626=EDGE_CURVE('',#508,#510,#186,.T.);
#627=EDGE_CURVE('',#510,#511,#187,.T.);
#628=EDGE_CURVE('',#511,#512,#188,.T.);
#629=EDGE_CURVE('',#512,#513,#189,.T.);
#630=EDGE_CURVE('',#513,#514,#190,.T.);
#631=EDGE_CURVE('',#514,#505,#191,.T.);
#632=EDGE_CURVE('',#508,#503,#192,.T.);
#633=EDGE_CURVE('',#515,#509,#193,.T.);
#634=EDGE_CURVE('',#511,#515,#194,.T.);
#635=EDGE_CURVE('',#514,#516,#195,.T.);
#636=EDGE_CURVE('',#506,#516,#196,.T.);
#637=EDGE_CURVE('',#517,#507,#197,.T.);
#638=EDGE_CURVE('',#517,#518,#198,.T.);
#639=EDGE_CURVE('',#518,#519,#199,.T.);
#640=EDGE_CURVE('',#519,#520,#200,.T.);
#641=EDGE_CURVE('',#520,#521,#201,.T.);
#642=EDGE_CURVE('',#521,#515,#202,.T.);
#643=EDGE_CURVE('',#516,#522,#203,.T.);
#644=EDGE_CURVE('',#522,#523,#204,.T.);
#645=EDGE_CURVE('',#524,#523,#205,.T.);
#646=EDGE_CURVE('',#504,#524,#206,.T.);
#647=EDGE_CURVE('',#525,#526,#207,.T.);
#648=EDGE_CURVE('',#525,#527,#208,.T.);
#649=EDGE_CURVE('',#528,#527,#209,.T.);
#650=EDGE_CURVE('',#526,#528,#210,.T.);
#651=EDGE_CURVE('',#529,#530,#211,.T.);
#652=EDGE_CURVE('',#529,#531,#212,.T.);
#653=EDGE_CURVE('',#532,#531,#213,.T.);
#654=EDGE_CURVE('',#530,#532,#214,.T.);
#655=EDGE_CURVE('',#533,#530,#215,.T.);
#656=EDGE_CURVE('',#534,#533,#216,.T.);
#657=EDGE_CURVE('',#529,#534,#217,.T.);
#658=EDGE_CURVE('',#535,#526,#218,.T.);
#659=EDGE_CURVE('',#536,#535,#219,.T.);
#660=EDGE_CURVE('',#525,#536,#220,.T.);
#661=EDGE_CURVE('',#537,#517,#221,.T.);
#662=EDGE_CURVE('',#538,#537,#222,.T.);
#663=EDGE_CURVE('',#518,#538,#223,.T.);
#664=EDGE_CURVE('',#539,#540,#224,.T.);
#665=EDGE_CURVE('',#541,#539,#225,.T.);
#666=EDGE_CURVE('',#542,#541,#226,.T.);
#667=EDGE_CURVE('',#540,#542,#227,.T.);
#668=EDGE_CURVE('',#542,#543,#228,.T.);
#669=EDGE_CURVE('',#543,#544,#229,.T.);
#670=EDGE_CURVE('',#544,#545,#230,.T.);
#671=EDGE_CURVE('',#545,#546,#231,.T.);
#672=EDGE_CURVE('',#546,#538,#232,.T.);
#673=EDGE_CURVE('',#540,#537,#233,.T.);
#674=EDGE_CURVE('',#547,#539,#234,.T.);
#675=EDGE_CURVE('',#547,#548,#235,.T.);
#676=EDGE_CURVE('',#548,#549,#236,.T.);
#677=EDGE_CURVE('',#549,#550,#237,.T.);
#678=EDGE_CURVE('',#550,#541,#238,.T.);
#679=EDGE_CURVE('',#543,#550,#239,.T.);
#680=EDGE_CURVE('',#546,#519,#240,.T.);
#681=EDGE_CURVE('',#551,#552,#241,.T.);
#682=EDGE_CURVE('',#551,#553,#242,.T.);
#683=EDGE_CURVE('',#554,#553,#243,.T.);
#684=EDGE_CURVE('',#552,#554,#244,.T.);
#685=EDGE_CURVE('',#555,#556,#245,.T.);
#686=EDGE_CURVE('',#555,#557,#246,.T.);
#687=EDGE_CURVE('',#558,#557,#247,.T.);
#688=EDGE_CURVE('',#556,#558,#248,.T.);
#689=EDGE_CURVE('',#559,#556,#249,.T.);
#690=EDGE_CURVE('',#560,#559,#250,.T.);
#691=EDGE_CURVE('',#555,#560,#251,.T.);
#692=EDGE_CURVE('',#561,#552,#252,.T.);
#693=EDGE_CURVE('',#562,#561,#253,.T.);
#694=EDGE_CURVE('',#551,#562,#254,.T.);
#695=EDGE_CURVE('',#522,#534,#255,.T.);
#696=EDGE_CURVE('',#513,#535,#256,.T.);
#697=EDGE_CURVE('',#531,#528,#257,.T.);
#698=EDGE_CURVE('',#512,#536,#258,.T.);
#699=EDGE_CURVE('',#533,#521,#259,.T.);
#700=EDGE_CURVE('',#527,#532,#260,.T.);
#701=EDGE_CURVE('',#520,#560,#261,.T.);
#702=EDGE_CURVE('',#559,#549,#262,.T.);
#703=EDGE_CURVE('',#548,#563,#263,.T.);
#704=EDGE_CURVE('',#563,#564,#264,.T.);
#705=EDGE_CURVE('',#523,#564,#265,.T.);
#706=EDGE_CURVE('',#545,#561,#266,.T.);
#707=EDGE_CURVE('',#557,#554,#267,.T.);
#708=EDGE_CURVE('',#544,#562,#268,.T.);
#709=EDGE_CURVE('',#553,#558,#269,.T.);
#710=EDGE_CURVE('',#565,#566,#270,.T.);
#711=EDGE_CURVE('',#566,#567,#271,.T.);
#712=EDGE_CURVE('',#568,#567,#272,.T.);
#713=EDGE_CURVE('',#565,#568,#273,.T.);
#714=EDGE_CURVE('',#569,#565,#274,.T.);
#715=EDGE_CURVE('',#570,#568,#275,.T.);
#716=EDGE_CURVE('',#569,#570,#276,.T.);
#717=EDGE_CURVE('',#571,#569,#277,.T.);
#718=EDGE_CURVE('',#572,#570,#278,.T.);
#719=EDGE_CURVE('',#571,#572,#279,.T.);
#720=EDGE_CURVE('',#573,#571,#280,.T.);
#721=EDGE_CURVE('',#574,#572,#281,.T.);
#722=EDGE_CURVE('',#573,#574,#282,.T.);
#723=EDGE_CURVE('',#575,#573,#283,.T.);
#724=EDGE_CURVE('',#576,#574,#284,.T.);
#725=EDGE_CURVE('',#575,#576,#285,.T.);
#726=EDGE_CURVE('',#577,#575,#286,.T.);
#727=EDGE_CURVE('',#578,#576,#287,.T.);
#728=EDGE_CURVE('',#577,#578,#288,.T.);
#729=EDGE_CURVE('',#579,#577,#289,.T.);
#730=EDGE_CURVE('',#580,#578,#290,.T.);
#731=EDGE_CURVE('',#579,#580,#291,.T.);
#732=EDGE_CURVE('',#581,#579,#292,.T.);
#733=EDGE_CURVE('',#582,#580,#293,.T.);
#734=EDGE_CURVE('',#581,#582,#294,.T.);
#735=EDGE_CURVE('',#563,#581,#295,.T.);
#736=EDGE_CURVE('',#564,#582,#296,.T.);
#737=EDGE_CURVE('',#583,#524,#297,.T.);
#738=EDGE_CURVE('',#584,#583,#298,.T.);
#739=EDGE_CURVE('',#584,#547,#299,.T.);
#740=EDGE_CURVE('',#585,#584,#300,.T.);
#741=EDGE_CURVE('',#586,#583,#301,.T.);
#742=EDGE_CURVE('',#585,#586,#302,.T.);
#743=EDGE_CURVE('',#566,#585,#303,.T.);
#744=EDGE_CURVE('',#567,#586,#304,.T.);
#745=EDGE_CURVE('',#587,#587,#13,.T.);
#746=EDGE_CURVE('',#587,#588,#305,.T.);
#747=EDGE_CURVE('',#588,#588,#14,.T.);
#748=EDGE_CURVE('',#589,#590,#306,.T.);
#749=EDGE_CURVE('',#590,#591,#307,.T.);
#750=EDGE_CURVE('',#592,#591,#308,.T.);
#751=EDGE_CURVE('',#589,#592,#309,.T.);
#752=EDGE_CURVE('',#593,#589,#310,.T.);
#753=EDGE_CURVE('',#594,#592,#311,.T.);
#754=EDGE_CURVE('',#593,#594,#312,.T.);
#755=EDGE_CURVE('',#595,#593,#313,.T.);
#756=EDGE_CURVE('',#596,#594,#314,.T.);
#757=EDGE_CURVE('',#595,#596,#315,.T.);
#758=EDGE_CURVE('',#590,#595,#316,.T.);
#759=EDGE_CURVE('',#591,#596,#317,.T.);
#760=EDGE_CURVE('',#597,#597,#15,.T.);
#761=EDGE_CURVE('',#597,#598,#318,.T.);
#762=EDGE_CURVE('',#598,#598,#16,.T.);
#763=EDGE_CURVE('',#599,#600,#319,.T.);
#764=EDGE_CURVE('',#600,#601,#320,.T.);
#765=EDGE_CURVE('',#602,#601,#321,.T.);
#766=EDGE_CURVE('',#599,#602,#322,.T.);
#767=EDGE_CURVE('',#603,#599,#323,.T.);
#768=EDGE_CURVE('',#604,#602,#324,.T.);
#769=EDGE_CURVE('',#603,#604,#325,.T.);
#770=EDGE_CURVE('',#605,#603,#326,.T.);
#771=EDGE_CURVE('',#606,#604,#327,.T.);
#772=EDGE_CURVE('',#605,#606,#328,.T.);
#773=EDGE_CURVE('',#600,#605,#329,.T.);
#774=EDGE_CURVE('',#601,#606,#330,.T.);
#775=ORIENTED_EDGE('',*,*,#607,.T.);
#776=ORIENTED_EDGE('',*,*,#608,.T.);
#777=ORIENTED_EDGE('',*,*,#609,.F.);
#778=ORIENTED_EDGE('',*,*,#610,.F.);
#779=ORIENTED_EDGE('',*,*,#611,.T.);
#780=ORIENTED_EDGE('',*,*,#610,.T.);
#781=ORIENTED_EDGE('',*,*,#612,.F.);
#782=ORIENTED_EDGE('',*,*,#613,.F.);
#783=ORIENTED_EDGE('',*,*,#614,.T.);
#784=ORIENTED_EDGE('',*,*,#613,.T.);
#785=ORIENTED_EDGE('',*,*,#615,.F.);
#786=ORIENTED_EDGE('',*,*,#616,.F.);
#787=ORIENTED_EDGE('',*,*,#617,.T.);
#788=ORIENTED_EDGE('',*,*,#616,.T.);
#789=ORIENTED_EDGE('',*,*,#618,.F.);
#790=ORIENTED_EDGE('',*,*,#608,.F.);
#791=ORIENTED_EDGE('',*,*,#618,.T.);
#792=ORIENTED_EDGE('',*,*,#615,.T.);
#793=ORIENTED_EDGE('',*,*,#612,.T.);
#794=ORIENTED_EDGE('',*,*,#609,.T.);
#795=ORIENTED_EDGE('',*,*,#617,.F.);
#796=ORIENTED_EDGE('',*,*,#607,.F.);
#797=ORIENTED_EDGE('',*,*,#611,.F.);
#798=ORIENTED_EDGE('',*,*,#614,.F.);
#799=ORIENTED_EDGE('',*,*,#619,.F.);
#800=ORIENTED_EDGE('',*,*,#620,.F.);
#801=ORIENTED_EDGE('',*,*,#621,.F.);
#802=ORIENTED_EDGE('',*,*,#622,.F.);
#803=ORIENTED_EDGE('',*,*,#623,.F.);
#804=ORIENTED_EDGE('',*,*,#624,.F.);
#805=ORIENTED_EDGE('',*,*,#625,.F.);
#806=ORIENTED_EDGE('',*,*,#626,.F.);
#807=ORIENTED_EDGE('',*,*,#627,.T.);
#808=ORIENTED_EDGE('',*,*,#628,.T.);
#809=ORIENTED_EDGE('',*,*,#629,.T.);
#810=ORIENTED_EDGE('',*,*,#630,.T.);
#811=ORIENTED_EDGE('',*,*,#631,.T.);
#812=ORIENTED_EDGE('',*,*,#620,.T.);
#813=ORIENTED_EDGE('',*,*,#632,.F.);
#814=ORIENTED_EDGE('',*,*,#626,.T.);
#815=ORIENTED_EDGE('',*,*,#625,.T.);
#816=ORIENTED_EDGE('',*,*,#633,.F.);
#817=ORIENTED_EDGE('',*,*,#634,.F.);
#818=ORIENTED_EDGE('',*,*,#627,.F.);
#819=ORIENTED_EDGE('',*,*,#621,.T.);
#820=ORIENTED_EDGE('',*,*,#631,.F.);
#821=ORIENTED_EDGE('',*,*,#635,.T.);
#822=ORIENTED_EDGE('',*,*,#636,.F.);
#823=ORIENTED_EDGE('',*,*,#624,.T.);
#824=ORIENTED_EDGE('',*,*,#637,.F.);
#825=ORIENTED_EDGE('',*,*,#638,.T.);
#826=ORIENTED_EDGE('',*,*,#639,.T.);
#827=ORIENTED_EDGE('',*,*,#640,.T.);
#828=ORIENTED_EDGE('',*,*,#641,.T.);
#829=ORIENTED_EDGE('',*,*,#642,.T.);
#830=ORIENTED_EDGE('',*,*,#633,.T.);
#831=ORIENTED_EDGE('',*,*,#622,.T.);
#832=ORIENTED_EDGE('',*,*,#636,.T.);
#833=ORIENTED_EDGE('',*,*,#643,.T.);
#834=ORIENTED_EDGE('',*,*,#644,.T.);
#835=ORIENTED_EDGE('',*,*,#645,.F.);
#836=ORIENTED_EDGE('',*,*,#646,.F.);
#837=ORIENTED_EDGE('',*,*,#647,.F.);
#838=ORIENTED_EDGE('',*,*,#648,.T.);
#839=ORIENTED_EDGE('',*,*,#649,.F.);
#840=ORIENTED_EDGE('',*,*,#650,.F.);
#841=ORIENTED_EDGE('',*,*,#651,.F.);
#842=ORIENTED_EDGE('',*,*,#652,.T.);
#843=ORIENTED_EDGE('',*,*,#653,.F.);
#844=ORIENTED_EDGE('',*,*,#654,.F.);
#845=ORIENTED_EDGE('',*,*,#651,.T.);
#846=ORIENTED_EDGE('',*,*,#655,.F.);
#847=ORIENTED_EDGE('',*,*,#656,.F.);
#848=ORIENTED_EDGE('',*,*,#657,.F.);
#849=ORIENTED_EDGE('',*,*,#647,.T.);
#850=ORIENTED_EDGE('',*,*,#658,.F.);
#851=ORIENTED_EDGE('',*,*,#659,.F.);
#852=ORIENTED_EDGE('',*,*,#660,.F.);
#853=ORIENTED_EDGE('',*,*,#661,.F.);
#854=ORIENTED_EDGE('',*,*,#662,.F.);
#855=ORIENTED_EDGE('',*,*,#663,.F.);
#856=ORIENTED_EDGE('',*,*,#638,.F.);
#857=ORIENTED_EDGE('',*,*,#664,.F.);
#858=ORIENTED_EDGE('',*,*,#665,.F.);
#859=ORIENTED_EDGE('',*,*,#666,.F.);
#860=ORIENTED_EDGE('',*,*,#667,.F.);
#861=ORIENTED_EDGE('',*,*,#668,.T.);
#862=ORIENTED_EDGE('',*,*,#669,.T.);
#863=ORIENTED_EDGE('',*,*,#670,.T.);
#864=ORIENTED_EDGE('',*,*,#671,.T.);
#865=ORIENTED_EDGE('',*,*,#672,.T.);
#866=ORIENTED_EDGE('',*,*,#662,.T.);
#867=ORIENTED_EDGE('',*,*,#673,.F.);
#868=ORIENTED_EDGE('',*,*,#667,.T.);
#869=ORIENTED_EDGE('',*,*,#665,.T.);
#870=ORIENTED_EDGE('',*,*,#674,.F.);
#871=ORIENTED_EDGE('',*,*,#675,.T.);
#872=ORIENTED_EDGE('',*,*,#676,.T.);
#873=ORIENTED_EDGE('',*,*,#677,.T.);
#874=ORIENTED_EDGE('',*,*,#678,.T.);
#875=ORIENTED_EDGE('',*,*,#666,.T.);
#876=ORIENTED_EDGE('',*,*,#678,.F.);
#877=ORIENTED_EDGE('',*,*,#679,.F.);
#878=ORIENTED_EDGE('',*,*,#668,.F.);
#879=ORIENTED_EDGE('',*,*,#663,.T.);
#880=ORIENTED_EDGE('',*,*,#672,.F.);
#881=ORIENTED_EDGE('',*,*,#680,.T.);
#882=ORIENTED_EDGE('',*,*,#639,.F.);
#883=ORIENTED_EDGE('',*,*,#681,.F.);
#884=ORIENTED_EDGE('',*,*,#682,.T.);
#885=ORIENTED_EDGE('',*,*,#683,.F.);
#886=ORIENTED_EDGE('',*,*,#684,.F.);
#887=ORIENTED_EDGE('',*,*,#685,.F.);
#888=ORIENTED_EDGE('',*,*,#686,.T.);
#889=ORIENTED_EDGE('',*,*,#687,.F.);
#890=ORIENTED_EDGE('',*,*,#688,.F.);
#891=ORIENTED_EDGE('',*,*,#685,.T.);
#892=ORIENTED_EDGE('',*,*,#689,.F.);
#893=ORIENTED_EDGE('',*,*,#690,.F.);
#894=ORIENTED_EDGE('',*,*,#691,.F.);
#895=ORIENTED_EDGE('',*,*,#681,.T.);
#896=ORIENTED_EDGE('',*,*,#692,.F.);
#897=ORIENTED_EDGE('',*,*,#693,.F.);
#898=ORIENTED_EDGE('',*,*,#694,.F.);
#899=ORIENTED_EDGE('',*,*,#657,.T.);
#900=ORIENTED_EDGE('',*,*,#695,.F.);
#901=ORIENTED_EDGE('',*,*,#643,.F.);
#902=ORIENTED_EDGE('',*,*,#635,.F.);
#903=ORIENTED_EDGE('',*,*,#630,.F.);
#904=ORIENTED_EDGE('',*,*,#696,.T.);
#905=ORIENTED_EDGE('',*,*,#658,.T.);
#906=ORIENTED_EDGE('',*,*,#650,.T.);
#907=ORIENTED_EDGE('',*,*,#697,.F.);
#908=ORIENTED_EDGE('',*,*,#652,.F.);
#909=ORIENTED_EDGE('',*,*,#629,.F.);
#910=ORIENTED_EDGE('',*,*,#698,.T.);
#911=ORIENTED_EDGE('',*,*,#659,.T.);
#912=ORIENTED_EDGE('',*,*,#696,.F.);
#913=ORIENTED_EDGE('',*,*,#660,.T.);
#914=ORIENTED_EDGE('',*,*,#698,.F.);
#915=ORIENTED_EDGE('',*,*,#628,.F.);
#916=ORIENTED_EDGE('',*,*,#634,.T.);
#917=ORIENTED_EDGE('',*,*,#642,.F.);
#918=ORIENTED_EDGE('',*,*,#699,.F.);
#919=ORIENTED_EDGE('',*,*,#655,.T.);
#920=ORIENTED_EDGE('',*,*,#654,.T.);
#921=ORIENTED_EDGE('',*,*,#700,.F.);
#922=ORIENTED_EDGE('',*,*,#648,.F.);
#923=ORIENTED_EDGE('',*,*,#695,.T.);
#924=ORIENTED_EDGE('',*,*,#656,.T.);
#925=ORIENTED_EDGE('',*,*,#699,.T.);
#926=ORIENTED_EDGE('',*,*,#641,.F.);
#927=ORIENTED_EDGE('',*,*,#701,.T.);
#928=ORIENTED_EDGE('',*,*,#690,.T.);
#929=ORIENTED_EDGE('',*,*,#702,.T.);
#930=ORIENTED_EDGE('',*,*,#676,.F.);
#931=ORIENTED_EDGE('',*,*,#703,.T.);
#932=ORIENTED_EDGE('',*,*,#704,.T.);
#933=ORIENTED_EDGE('',*,*,#705,.F.);
#934=ORIENTED_EDGE('',*,*,#644,.F.);
#935=ORIENTED_EDGE('',*,*,#691,.T.);
#936=ORIENTED_EDGE('',*,*,#701,.F.);
#937=ORIENTED_EDGE('',*,*,#640,.F.);
#938=ORIENTED_EDGE('',*,*,#680,.F.);
#939=ORIENTED_EDGE('',*,*,#671,.F.);
#940=ORIENTED_EDGE('',*,*,#706,.T.);
#941=ORIENTED_EDGE('',*,*,#692,.T.);
#942=ORIENTED_EDGE('',*,*,#684,.T.);
#943=ORIENTED_EDGE('',*,*,#707,.F.);
#944=ORIENTED_EDGE('',*,*,#686,.F.);
#945=ORIENTED_EDGE('',*,*,#670,.F.);
#946=ORIENTED_EDGE('',*,*,#708,.T.);
#947=ORIENTED_EDGE('',*,*,#693,.T.);
#948=ORIENTED_EDGE('',*,*,#706,.F.);
#949=ORIENTED_EDGE('',*,*,#694,.T.);
#950=ORIENTED_EDGE('',*,*,#708,.F.);
#951=ORIENTED_EDGE('',*,*,#669,.F.);
#952=ORIENTED_EDGE('',*,*,#679,.T.);
#953=ORIENTED_EDGE('',*,*,#677,.F.);
#954=ORIENTED_EDGE('',*,*,#702,.F.);
#955=ORIENTED_EDGE('',*,*,#689,.T.);
#956=ORIENTED_EDGE('',*,*,#688,.T.);
#957=ORIENTED_EDGE('',*,*,#709,.F.);
#958=ORIENTED_EDGE('',*,*,#682,.F.);
#959=ORIENTED_EDGE('',*,*,#710,.T.);
#960=ORIENTED_EDGE('',*,*,#711,.T.);
#961=ORIENTED_EDGE('',*,*,#712,.F.);
#962=ORIENTED_EDGE('',*,*,#713,.F.);
#963=ORIENTED_EDGE('',*,*,#714,.T.);
#964=ORIENTED_EDGE('',*,*,#713,.T.);
#965=ORIENTED_EDGE('',*,*,#715,.F.);
#966=ORIENTED_EDGE('',*,*,#716,.F.);
#967=ORIENTED_EDGE('',*,*,#717,.T.);
#968=ORIENTED_EDGE('',*,*,#716,.T.);
#969=ORIENTED_EDGE('',*,*,#718,.F.);
#970=ORIENTED_EDGE('',*,*,#719,.F.);
#971=ORIENTED_EDGE('',*,*,#720,.T.);
#972=ORIENTED_EDGE('',*,*,#719,.T.);
#973=ORIENTED_EDGE('',*,*,#721,.F.);
#974=ORIENTED_EDGE('',*,*,#722,.F.);
#975=ORIENTED_EDGE('',*,*,#723,.T.);
#976=ORIENTED_EDGE('',*,*,#722,.T.);
#977=ORIENTED_EDGE('',*,*,#724,.F.);
#978=ORIENTED_EDGE('',*,*,#725,.F.);
#979=ORIENTED_EDGE('',*,*,#726,.T.);
#980=ORIENTED_EDGE('',*,*,#725,.T.);
#981=ORIENTED_EDGE('',*,*,#727,.F.);
#982=ORIENTED_EDGE('',*,*,#728,.F.);
#983=ORIENTED_EDGE('',*,*,#697,.T.);
#984=ORIENTED_EDGE('',*,*,#649,.T.);
#985=ORIENTED_EDGE('',*,*,#700,.T.);
#986=ORIENTED_EDGE('',*,*,#653,.T.);
#987=ORIENTED_EDGE('',*,*,#707,.T.);
#988=ORIENTED_EDGE('',*,*,#683,.T.);
#989=ORIENTED_EDGE('',*,*,#709,.T.);
#990=ORIENTED_EDGE('',*,*,#687,.T.);
#991=ORIENTED_EDGE('',*,*,#729,.T.);
#992=ORIENTED_EDGE('',*,*,#728,.T.);
#993=ORIENTED_EDGE('',*,*,#730,.F.);
#994=ORIENTED_EDGE('',*,*,#731,.F.);
#995=ORIENTED_EDGE('',*,*,#732,.T.);
#996=ORIENTED_EDGE('',*,*,#731,.T.);
#997=ORIENTED_EDGE('',*,*,#733,.F.);
#998=ORIENTED_EDGE('',*,*,#734,.F.);
#999=ORIENTED_EDGE('',*,*,#735,.T.);
#1000=ORIENTED_EDGE('',*,*,#734,.T.);
#1001=ORIENTED_EDGE('',*,*,#736,.F.);
#1002=ORIENTED_EDGE('',*,*,#704,.F.);
#1003=ORIENTED_EDGE('',*,*,#619,.T.);
#1004=ORIENTED_EDGE('',*,*,#646,.T.);
#1005=ORIENTED_EDGE('',*,*,#737,.F.);
#1006=ORIENTED_EDGE('',*,*,#738,.F.);
#1007=ORIENTED_EDGE('',*,*,#739,.T.);
#1008=ORIENTED_EDGE('',*,*,#674,.T.);
#1009=ORIENTED_EDGE('',*,*,#664,.T.);
#1010=ORIENTED_EDGE('',*,*,#673,.T.);
#1011=ORIENTED_EDGE('',*,*,#661,.T.);
#1012=ORIENTED_EDGE('',*,*,#637,.T.);
#1013=ORIENTED_EDGE('',*,*,#623,.T.);
#1014=ORIENTED_EDGE('',*,*,#632,.T.);
#1015=ORIENTED_EDGE('',*,*,#740,.T.);
#1016=ORIENTED_EDGE('',*,*,#738,.T.);
#1017=ORIENTED_EDGE('',*,*,#741,.F.);
#1018=ORIENTED_EDGE('',*,*,#742,.F.);
#1019=ORIENTED_EDGE('',*,*,#743,.T.);
#1020=ORIENTED_EDGE('',*,*,#742,.T.);
#1021=ORIENTED_EDGE('',*,*,#744,.F.);
#1022=ORIENTED_EDGE('',*,*,#711,.F.);
#1023=ORIENTED_EDGE('',*,*,#744,.T.);
#1024=ORIENTED_EDGE('',*,*,#741,.T.);
#1025=ORIENTED_EDGE('',*,*,#737,.T.);
#1026=ORIENTED_EDGE('',*,*,#645,.T.);
#1027=ORIENTED_EDGE('',*,*,#705,.T.);
#1028=ORIENTED_EDGE('',*,*,#736,.T.);
#1029=ORIENTED_EDGE('',*,*,#733,.T.);
#1030=ORIENTED_EDGE('',*,*,#730,.T.);
#1031=ORIENTED_EDGE('',*,*,#727,.T.);
#1032=ORIENTED_EDGE('',*,*,#724,.T.);
#1033=ORIENTED_EDGE('',*,*,#721,.T.);
#1034=ORIENTED_EDGE('',*,*,#718,.T.);
#1035=ORIENTED_EDGE('',*,*,#715,.T.);
#1036=ORIENTED_EDGE('',*,*,#712,.T.);
#1037=ORIENTED_EDGE('',*,*,#743,.F.);
#1038=ORIENTED_EDGE('',*,*,#710,.F.);
#1039=ORIENTED_EDGE('',*,*,#714,.F.);
#1040=ORIENTED_EDGE('',*,*,#717,.F.);
#1041=ORIENTED_EDGE('',*,*,#720,.F.);
#1042=ORIENTED_EDGE('',*,*,#723,.F.);
#1043=ORIENTED_EDGE('',*,*,#726,.F.);
#1044=ORIENTED_EDGE('',*,*,#729,.F.);
#1045=ORIENTED_EDGE('',*,*,#732,.F.);
#1046=ORIENTED_EDGE('',*,*,#735,.F.);
#1047=ORIENTED_EDGE('',*,*,#703,.F.);
#1048=ORIENTED_EDGE('',*,*,#675,.F.);
#1049=ORIENTED_EDGE('',*,*,#739,.F.);
#1050=ORIENTED_EDGE('',*,*,#740,.F.);
#1051=ORIENTED_EDGE('',*,*,#745,.F.);
#1052=ORIENTED_EDGE('',*,*,#746,.T.);
#1053=ORIENTED_EDGE('',*,*,#747,.F.);
#1054=ORIENTED_EDGE('',*,*,#746,.F.);
#1055=ORIENTED_EDGE('',*,*,#747,.T.);
#1056=ORIENTED_EDGE('',*,*,#745,.T.);
#1057=ORIENTED_EDGE('',*,*,#748,.T.);
#1058=ORIENTED_EDGE('',*,*,#749,.T.);
#1059=ORIENTED_EDGE('',*,*,#750,.F.);
#1060=ORIENTED_EDGE('',*,*,#751,.F.);
#1061=ORIENTED_EDGE('',*,*,#752,.T.);
#1062=ORIENTED_EDGE('',*,*,#751,.T.);
#1063=ORIENTED_EDGE('',*,*,#753,.F.);
#1064=ORIENTED_EDGE('',*,*,#754,.F.);
#1065=ORIENTED_EDGE('',*,*,#755,.T.);
#1066=ORIENTED_EDGE('',*,*,#754,.T.);
#1067=ORIENTED_EDGE('',*,*,#756,.F.);
#1068=ORIENTED_EDGE('',*,*,#757,.F.);
#1069=ORIENTED_EDGE('',*,*,#758,.T.);
#1070=ORIENTED_EDGE('',*,*,#757,.T.);
#1071=ORIENTED_EDGE('',*,*,#759,.F.);
#1072=ORIENTED_EDGE('',*,*,#749,.F.);
#1073=ORIENTED_EDGE('',*,*,#758,.F.);
#1074=ORIENTED_EDGE('',*,*,#748,.F.);
#1075=ORIENTED_EDGE('',*,*,#752,.F.);
#1076=ORIENTED_EDGE('',*,*,#755,.F.);
#1077=ORIENTED_EDGE('',*,*,#759,.T.);
#1078=ORIENTED_EDGE('',*,*,#756,.T.);
#1079=ORIENTED_EDGE('',*,*,#753,.T.);
#1080=ORIENTED_EDGE('',*,*,#750,.T.);
#1081=ORIENTED_EDGE('',*,*,#760,.F.);
#1082=ORIENTED_EDGE('',*,*,#761,.T.);
#1083=ORIENTED_EDGE('',*,*,#762,.F.);
#1084=ORIENTED_EDGE('',*,*,#761,.F.);
#1085=ORIENTED_EDGE('',*,*,#762,.T.);
#1086=ORIENTED_EDGE('',*,*,#760,.T.);
#1087=ORIENTED_EDGE('',*,*,#763,.T.);
#1088=ORIENTED_EDGE('',*,*,#764,.T.);
#1089=ORIENTED_EDGE('',*,*,#765,.F.);
#1090=ORIENTED_EDGE('',*,*,#766,.F.);
#1091=ORIENTED_EDGE('',*,*,#767,.T.);
#1092=ORIENTED_EDGE('',*,*,#766,.T.);
#1093=ORIENTED_EDGE('',*,*,#768,.F.);
#1094=ORIENTED_EDGE('',*,*,#769,.F.);
#1095=ORIENTED_EDGE('',*,*,#770,.T.);
#1096=ORIENTED_EDGE('',*,*,#769,.T.);
#1097=ORIENTED_EDGE('',*,*,#771,.F.);
#1098=ORIENTED_EDGE('',*,*,#772,.F.);
#1099=ORIENTED_EDGE('',*,*,#773,.T.);
#1100=ORIENTED_EDGE('',*,*,#772,.T.);
#1101=ORIENTED_EDGE('',*,*,#774,.F.);
#1102=ORIENTED_EDGE('',*,*,#764,.F.);
#1103=ORIENTED_EDGE('',*,*,#773,.F.);
#1104=ORIENTED_EDGE('',*,*,#763,.F.);
#1105=ORIENTED_EDGE('',*,*,#767,.F.);
#1106=ORIENTED_EDGE('',*,*,#770,.F.);
#1107=ORIENTED_EDGE('',*,*,#774,.T.);
#1108=ORIENTED_EDGE('',*,*,#771,.T.);
#1109=ORIENTED_EDGE('',*,*,#768,.T.);
#1110=ORIENTED_EDGE('',*,*,#765,.T.);
#1111=PLANE('',#1260);
#1112=PLANE('',#1261);
#1113=PLANE('',#1262);
#1114=PLANE('',#1263);
#1115=PLANE('',#1264);
#1116=PLANE('',#1265);
#1117=PLANE('',#1266);
#1118=PLANE('',#1267);
#1119=PLANE('',#1268);
#1120=PLANE('',#1269);
#1121=PLANE('',#1270);
#1122=PLANE('',#1271);
#1123=PLANE('',#1272);
#1124=PLANE('',#1273);
#1125=PLANE('',#1274);
#1126=PLANE('',#1275);
#1127=PLANE('',#1276);
#1128=PLANE('',#1277);
#1129=PLANE('',#1278);
#1130=PLANE('',#1279);
#1131=PLANE('',#1280);
#1132=PLANE('',#1281);
#1133=PLANE('',#1282);
#1134=PLANE('',#1283);
#1135=PLANE('',#1284);
#1136=PLANE('',#1285);
#1137=PLANE('',#1286);
#1138=PLANE('',#1287);
#1139=PLANE('',#1288);
#1140=PLANE('',#1289);
#1141=PLANE('',#1290);
#1142=PLANE('',#1291);
#1143=PLANE('',#1292);
#1144=PLANE('',#1293);
#1145=PLANE('',#1294);
#1146=PLANE('',#1295);
#1147=PLANE('',#1296);
#1148=PLANE('',#1297);
#1149=PLANE('',#1298);
#1150=PLANE('',#1299);
#1151=PLANE('',#1300);
#1152=PLANE('',#1301);
#1153=PLANE('',#1302);
#1154=PLANE('',#1303);
#1155=PLANE('',#1304);
#1156=PLANE('',#1305);
#1157=PLANE('',#1306);
#1158=PLANE('',#1307);
#1159=PLANE('',#1311);
#1160=PLANE('',#1312);
#1161=PLANE('',#1313);
#1162=PLANE('',#1314);
#1163=PLANE('',#1315);
#1164=PLANE('',#1316);
#1165=PLANE('',#1317);
#1166=PLANE('',#1318);
#1167=PLANE('',#1322);
#1168=PLANE('',#1323);
#1169=PLANE('',#1324);
#1170=PLANE('',#1325);
#1171=PLANE('',#1326);
#1172=PLANE('',#1327);
#1173=PLANE('',#1328);
#1174=PLANE('',#1329);
#1175=ADVANCED_FACE('',(#33),#1111,.T.);
#1176=ADVANCED_FACE('',(#34),#1112,.T.);
#1177=ADVANCED_FACE('',(#35),#1113,.T.);
#1178=ADVANCED_FACE('',(#36),#1114,.T.);
#1179=ADVANCED_FACE('',(#37),#1115,.T.);
#1180=ADVANCED_FACE('',(#38),#1116,.F.);
#1181=ADVANCED_FACE('',(#39),#1117,.F.);
#1182=ADVANCED_FACE('',(#40),#1118,.F.);
#1183=ADVANCED_FACE('',(#41),#1119,.F.);
#1184=ADVANCED_FACE('',(#42),#1120,.F.);
#1185=ADVANCED_FACE('',(#43),#1121,.F.);
#1186=ADVANCED_FACE('',(#44),#1122,.T.);
#1187=ADVANCED_FACE('',(#45),#1123,.T.);
#1188=ADVANCED_FACE('',(#46),#1124,.F.);
#1189=ADVANCED_FACE('',(#47),#1125,.F.);
#1190=ADVANCED_FACE('',(#48),#1126,.F.);
#1191=ADVANCED_FACE('',(#49),#1127,.F.);
#1192=ADVANCED_FACE('',(#50),#1128,.F.);
#1193=ADVANCED_FACE('',(#51),#1129,.F.);
#1194=ADVANCED_FACE('',(#52),#1130,.F.);
#1195=ADVANCED_FACE('',(#53),#1131,.T.);
#1196=ADVANCED_FACE('',(#54),#1132,.F.);
#1197=ADVANCED_FACE('',(#55),#1133,.F.);
#1198=ADVANCED_FACE('',(#56),#1134,.F.);
#1199=ADVANCED_FACE('',(#57),#1135,.F.);
#1200=ADVANCED_FACE('',(#58),#1136,.F.);
#1201=ADVANCED_FACE('',(#59),#1137,.F.);
#1202=ADVANCED_FACE('',(#60),#1138,.F.);
#1203=ADVANCED_FACE('',(#61),#1139,.F.);
#1204=ADVANCED_FACE('',(#62),#1140,.F.);
#1205=ADVANCED_FACE('',(#63),#1141,.T.);
#1206=ADVANCED_FACE('',(#64),#1142,.F.);
#1207=ADVANCED_FACE('',(#65),#1143,.F.);
#1208=ADVANCED_FACE('',(#66),#1144,.F.);
#1209=ADVANCED_FACE('',(#67),#1145,.T.);
#1210=ADVANCED_FACE('',(#68),#1146,.T.);
#1211=ADVANCED_FACE('',(#69),#1147,.T.);
#1212=ADVANCED_FACE('',(#70),#1148,.T.);
#1213=ADVANCED_FACE('',(#71),#1149,.T.);
#1214=ADVANCED_FACE('',(#72,#19,#20),#1150,.T.);
#1215=ADVANCED_FACE('',(#73),#1151,.T.);
#1216=ADVANCED_FACE('',(#74),#1152,.T.);
#1217=ADVANCED_FACE('',(#75),#1153,.T.);
#1218=ADVANCED_FACE('',(#76),#1154,.T.);
#1219=ADVANCED_FACE('',(#77),#1155,.T.);
#1220=ADVANCED_FACE('',(#78),#1156,.T.);
#1221=ADVANCED_FACE('',(#79),#1157,.T.);
#1222=ADVANCED_FACE('',(#80),#1158,.F.);
#1223=ADVANCED_FACE('',(#81),#17,.T.);
#1224=ADVANCED_FACE('',(#82),#1159,.T.);
#1225=ADVANCED_FACE('',(#83),#1160,.F.);
#1226=ADVANCED_FACE('',(#84),#1161,.T.);
#1227=ADVANCED_FACE('',(#85),#1162,.T.);
#1228=ADVANCED_FACE('',(#86),#1163,.T.);
#1229=ADVANCED_FACE('',(#87),#1164,.T.);
#1230=ADVANCED_FACE('',(#88),#1165,.T.);
#1231=ADVANCED_FACE('',(#89),#1166,.T.);
#1232=ADVANCED_FACE('',(#90),#18,.T.);
#1233=ADVANCED_FACE('',(#91),#1167,.T.);
#1234=ADVANCED_FACE('',(#92),#1168,.F.);
#1235=ADVANCED_FACE('',(#93),#1169,.T.);
#1236=ADVANCED_FACE('',(#94),#1170,.T.);
#1237=ADVANCED_FACE('',(#95),#1171,.T.);
#1238=ADVANCED_FACE('',(#96),#1172,.T.);
#1239=ADVANCED_FACE('',(#97),#1173,.T.);
#1240=ADVANCED_FACE('',(#98),#1174,.T.);
#1241=CLOSED_SHELL('',(#1175,#1176,#1177,#1178,#1179,#1180));
#1242=CLOSED_SHELL('',(#1181,#1182,#1183,#1184,#1185,#1186,#1187,#1188,
#1189,#1190,#1191,#1192,#1193,#1194,#1195,#1196,#1197,#1198,#1199,#1200,
#1201,#1202,#1203,#1204,#1205,#1206,#1207,#1208,#1209,#1210,#1211,#1212,
#1213,#1214,#1215,#1216,#1217,#1218,#1219,#1220,#1221,#1222));
#1243=CLOSED_SHELL('',(#1223,#1224,#1225));
#1244=CLOSED_SHELL('',(#1226,#1227,#1228,#1229,#1230,#1231));
#1245=CLOSED_SHELL('',(#1232,#1233,#1234));
#1246=CLOSED_SHELL('',(#1235,#1236,#1237,#1238,#1239,#1240));
#1247=DERIVED_UNIT_ELEMENT(#1249,1.);
#1248=DERIVED_UNIT_ELEMENT(#1988,-3.);
#1249=(
MASS_UNIT()
NAMED_UNIT(*)
SI_UNIT(.KILO.,.GRAM.)
);
#1250=DERIVED_UNIT((#1247,#1248));
#1251=MEASURE_REPRESENTATION_ITEM('density measure',
POSITIVE_RATIO_MEASURE(7850.),#1250);
#1252=PROPERTY_DEFINITION_REPRESENTATION(#1257,#1254);
#1253=PROPERTY_DEFINITION_REPRESENTATION(#1258,#1255);
#1254=REPRESENTATION('material name',(#1256),#1985);
#1255=REPRESENTATION('density',(#1251),#1985);
#1256=DESCRIPTIVE_REPRESENTATION_ITEM('Steel','Steel');
#1257=PROPERTY_DEFINITION('material property','material name',#1995);
#1258=PROPERTY_DEFINITION('material property','density of part',#1995);
#1259=AXIS2_PLACEMENT_3D('',#1636,#1330,#1331);
#1260=AXIS2_PLACEMENT_3D('',#1637,#1332,#1333);
#1261=AXIS2_PLACEMENT_3D('',#1646,#1338,#1339);
#1262=AXIS2_PLACEMENT_3D('',#1652,#1343,#1344);
#1263=AXIS2_PLACEMENT_3D('',#1658,#1348,#1349);
#1264=AXIS2_PLACEMENT_3D('',#1661,#1352,#1353);
#1265=AXIS2_PLACEMENT_3D('',#1662,#1354,#1355);
#1266=AXIS2_PLACEMENT_3D('',#1663,#1356,#1357);
#1267=AXIS2_PLACEMENT_3D('',#1672,#1362,#1363);
#1268=AXIS2_PLACEMENT_3D('',#1681,#1368,#1369);
#1269=AXIS2_PLACEMENT_3D('',#1692,#1376,#1377);
#1270=AXIS2_PLACEMENT_3D('',#1696,#1380,#1381);
#1271=AXIS2_PLACEMENT_3D('',#1700,#1384,#1385);
#1272=AXIS2_PLACEMENT_3D('',#1712,#1392,#1393);
#1273=AXIS2_PLACEMENT_3D('',#1720,#1398,#1399);
#1274=AXIS2_PLACEMENT_3D('',#1729,#1404,#1405);
#1275=AXIS2_PLACEMENT_3D('',#1738,#1410,#1411);
#1276=AXIS2_PLACEMENT_3D('',#1744,#1415,#1416);
#1277=AXIS2_PLACEMENT_3D('',#1750,#1420,#1421);
#1278=AXIS2_PLACEMENT_3D('',#1756,#1425,#1426);
#1279=AXIS2_PLACEMENT_3D('',#1765,#1431,#1432);
#1280=AXIS2_PLACEMENT_3D('',#1776,#1439,#1440);
#1281=AXIS2_PLACEMENT_3D('',#1786,#1446,#1447);
#1282=AXIS2_PLACEMENT_3D('',#1788,#1449,#1450);
#1283=AXIS2_PLACEMENT_3D('',#1790,#1452,#1453);
#1284=AXIS2_PLACEMENT_3D('',#1799,#1458,#1459);
#1285=AXIS2_PLACEMENT_3D('',#1808,#1464,#1465);
#1286=AXIS2_PLACEMENT_3D('',#1814,#1469,#1470);
#1287=AXIS2_PLACEMENT_3D('',#1820,#1474,#1475);
#1288=AXIS2_PLACEMENT_3D('',#1824,#1479,#1480);
#1289=AXIS2_PLACEMENT_3D('',#1826,#1482,#1483);
#1290=AXIS2_PLACEMENT_3D('',#1829,#1486,#1487);
#1291=AXIS2_PLACEMENT_3D('',#1837,#1493,#1494);
#1292=AXIS2_PLACEMENT_3D('',#1840,#1497,#1498);
#1293=AXIS2_PLACEMENT_3D('',#1842,#1500,#1501);
#1294=AXIS2_PLACEMENT_3D('',#1844,#1503,#1504);
#1295=AXIS2_PLACEMENT_3D('',#1853,#1509,#1510);
#1296=AXIS2_PLACEMENT_3D('',#1859,#1514,#1515);
#1297=AXIS2_PLACEMENT_3D('',#1865,#1519,#1520);
#1298=AXIS2_PLACEMENT_3D('',#1871,#1524,#1525);
#1299=AXIS2_PLACEMENT_3D('',#1877,#1529,#1530);
#1300=AXIS2_PLACEMENT_3D('',#1883,#1534,#1535);
#1301=AXIS2_PLACEMENT_3D('',#1889,#1539,#1540);
#1302=AXIS2_PLACEMENT_3D('',#1895,#1544,#1545);
#1303=AXIS2_PLACEMENT_3D('',#1898,#1548,#1549);
#1304=AXIS2_PLACEMENT_3D('',#1904,#1553,#1554);
#1305=AXIS2_PLACEMENT_3D('',#1910,#1558,#1559);
#1306=AXIS2_PLACEMENT_3D('',#1913,#1562,#1563);
#1307=AXIS2_PLACEMENT_3D('',#1914,#1564,#1565);
#1308=AXIS2_PLACEMENT_3D('',#1915,#1566,#1567);
#1309=AXIS2_PLACEMENT_3D('',#1917,#1568,#1569);
#1310=AXIS2_PLACEMENT_3D('',#1920,#1571,#1572);
#1311=AXIS2_PLACEMENT_3D('',#1921,#1573,#1574);
#1312=AXIS2_PLACEMENT_3D('',#1922,#1575,#1576);
#1313=AXIS2_PLACEMENT_3D('',#1923,#1577,#1578);
#1314=AXIS2_PLACEMENT_3D('',#1932,#1583,#1584);
#1315=AXIS2_PLACEMENT_3D('',#1938,#1588,#1589);
#1316=AXIS2_PLACEMENT_3D('',#1944,#1593,#1594);
#1317=AXIS2_PLACEMENT_3D('',#1947,#1597,#1598);
#1318=AXIS2_PLACEMENT_3D('',#1948,#1599,#1600);
#1319=AXIS2_PLACEMENT_3D('',#1949,#1601,#1602);
#1320=AXIS2_PLACEMENT_3D('',#1951,#1603,#1604);
#1321=AXIS2_PLACEMENT_3D('',#1954,#1606,#1607);
#1322=AXIS2_PLACEMENT_3D('',#1955,#1608,#1609);
#1323=AXIS2_PLACEMENT_3D('',#1956,#1610,#1611);
#1324=AXIS2_PLACEMENT_3D('',#1957,#1612,#1613);
#1325=AXIS2_PLACEMENT_3D('',#1966,#1618,#1619);
#1326=AXIS2_PLACEMENT_3D('',#1972,#1623,#1624);
#1327=AXIS2_PLACEMENT_3D('',#1978,#1628,#1629);
#1328=AXIS2_PLACEMENT_3D('',#1981,#1632,#1633);
#1329=AXIS2_PLACEMENT_3D('',#1982,#1634,#1635);
#1330=DIRECTION('axis',(0.,0.,1.));
#1331=DIRECTION('refdir',(1.,0.,0.));
#1332=DIRECTION('center_axis',(0.,0.,1.));
#1333=DIRECTION('ref_axis',(0.,-1.,0.));
#1334=DIRECTION('',(0.,-1.,0.));
#1335=DIRECTION('',(1.,0.,0.));
#1336=DIRECTION('',(0.,-1.,0.));
#1337=DIRECTION('',(1.,0.,0.));
#1338=DIRECTION('center_axis',(0.,1.,0.));
#1339=DIRECTION('ref_axis',(0.,0.,1.));
#1340=DIRECTION('',(0.,0.,1.));
#1341=DIRECTION('',(0.,0.,1.));
#1342=DIRECTION('',(1.,0.,0.));
#1343=DIRECTION('center_axis',(0.,0.,-1.));
#1344=DIRECTION('ref_axis',(0.,1.,0.));
#1345=DIRECTION('',(0.,1.,0.));
#1346=DIRECTION('',(0.,1.,0.));
#1347=DIRECTION('',(1.,0.,0.));
#1348=DIRECTION('center_axis',(0.,-1.,0.));
#1349=DIRECTION('ref_axis',(0.,0.,-1.));
#1350=DIRECTION('',(0.,0.,-1.));
#1351=DIRECTION('',(0.,0.,-1.));
#1352=DIRECTION('center_axis',(1.,0.,0.));
#1353=DIRECTION('ref_axis',(0.,0.,-1.));
#1354=DIRECTION('center_axis',(1.,0.,0.));
#1355=DIRECTION('ref_axis',(0.,0.,-1.));
#1356=DIRECTION('center_axis',(1.,0.,0.));
#1357=DIRECTION('ref_axis',(0.,0.,1.));
#1358=DIRECTION('',(0.,-0.958452078447899,0.285253594751936));
#1359=DIRECTION('',(0.,0.,1.));
#1360=DIRECTION('',(0.,1.,0.));
#1361=DIRECTION('',(0.,-0.529998943401923,-0.847998301880874));
#1362=DIRECTION('center_axis',(-1.,0.,0.));
#1363=DIRECTION('ref_axis',(0.,0.,-1.));
#1364=DIRECTION('',(0.,0.958452078447899,-0.285253594751936));
#1365=DIRECTION('',(0.,0.529998943401923,0.847998301880874));
#1366=DIRECTION('',(0.,-1.,0.));
#1367=DIRECTION('',(0.,0.,-1.));
#1368=DIRECTION('center_axis',(0.,1.,0.));
#1369=DIRECTION('ref_axis',(1.,0.,0.));
#1370=DIRECTION('',(-1.,0.,0.));
#1371=DIRECTION('',(0.,0.,-1.));
#1372=DIRECTION('',(1.,0.,0.));
#1373=DIRECTION('',(0.,0.,1.));
#1374=DIRECTION('',(-1.,0.,0.));
#1375=DIRECTION('',(1.,0.,0.));
#1376=DIRECTION('center_axis',(0.,0.,1.));
#1377=DIRECTION('ref_axis',(-1.,0.,0.));
#1378=DIRECTION('',(1.,0.,0.));
#1379=DIRECTION('',(0.,-1.,0.));
#1380=DIRECTION('center_axis',(0.,0.,1.));
#1381=DIRECTION('ref_axis',(-1.,0.,0.));
#1382=DIRECTION('',(0.,-1.,0.));
#1383=DIRECTION('',(1.,0.,0.));
#1384=DIRECTION('center_axis',(0.,-0.847998301880874,0.529998943401923));
#1385=DIRECTION('ref_axis',(0.,-0.529998943401923,-0.847998301880874));
#1386=DIRECTION('',(1.,0.,0.));
#1387=DIRECTION('',(0.,-0.529998943401923,-0.847998301880874));
#1388=DIRECTION('',(1.,0.,0.));
#1389=DIRECTION('',(0.,-0.529998943401923,-0.847998301880874));
#1390=DIRECTION('',(1.,0.,0.));
#1391=DIRECTION('',(0.,0.529998943401923,0.847998301880874));
#1392=DIRECTION('center_axis',(0.,-0.847998301880874,0.529998943401923));
#1393=DIRECTION('ref_axis',(0.,-0.529998943401923,-0.847998301880874));
#1394=DIRECTION('',(0.,-0.529998943401923,-0.847998301880874));
#1395=DIRECTION('',(1.,0.,0.));
#1396=DIRECTION('',(0.,-0.529998943401923,-0.847998301880874));
#1397=DIRECTION('',(1.,0.,0.));
#1398=DIRECTION('center_axis',(0.,0.,-1.));
#1399=DIRECTION('ref_axis',(1.,0.,0.));
#1400=DIRECTION('',(1.,0.,0.));
#1401=DIRECTION('',(0.,-1.,0.));
#1402=DIRECTION('',(-1.,0.,0.));
#1403=DIRECTION('',(0.,-1.,0.));
#1404=DIRECTION('center_axis',(0.,0.,1.));
#1405=DIRECTION('ref_axis',(-1.,0.,0.));
#1406=DIRECTION('',(-1.,0.,0.));
#1407=DIRECTION('',(0.,-1.,0.));
#1408=DIRECTION('',(1.,0.,0.));
#1409=DIRECTION('',(0.,-1.,0.));
#1410=DIRECTION('center_axis',(0.,-1.,0.));
#1411=DIRECTION('ref_axis',(0.,0.,-1.));
#1412=DIRECTION('',(0.,0.,-1.));
#1413=DIRECTION('',(-1.,0.,0.));
#1414=DIRECTION('',(0.,0.,1.));
#1415=DIRECTION('center_axis',(0.,-1.,0.));
#1416=DIRECTION('ref_axis',(0.,0.,-1.));
#1417=DIRECTION('',(0.,0.,1.));
#1418=DIRECTION('',(1.,0.,0.));
#1419=DIRECTION('',(0.,0.,-1.));
#1420=DIRECTION('center_axis',(1.,0.,0.));
#1421=DIRECTION('ref_axis',(0.,0.,1.));
#1422=DIRECTION('',(0.,-0.958452078447899,0.285253594751936));
#1423=DIRECTION('',(0.,0.,1.));
#1424=DIRECTION('',(0.,1.,0.));
#1425=DIRECTION('center_axis',(-1.,0.,0.));
#1426=DIRECTION('ref_axis',(0.,0.,-1.));
#1427=DIRECTION('',(0.,0.958452078447899,-0.285253594751936));
#1428=DIRECTION('',(0.,0.529998943401923,0.847998301880874));
#1429=DIRECTION('',(0.,-1.,0.));
#1430=DIRECTION('',(0.,0.,-1.));
#1431=DIRECTION('center_axis',(0.,1.,0.));
#1432=DIRECTION('ref_axis',(1.,0.,0.));
#1433=DIRECTION('',(-1.,0.,0.));
#1434=DIRECTION('',(0.,0.,-1.));
#1435=DIRECTION('',(1.,0.,0.));
#1436=DIRECTION('',(0.,0.,1.));
#1437=DIRECTION('',(-1.,0.,0.));
#1438=DIRECTION('',(1.,0.,0.));
#1439=DIRECTION('center_axis',(0.,-0.847998301880874,0.529998943401923));
#1440=DIRECTION('ref_axis',(0.,-0.529998943401923,-0.847998301880874));
#1441=DIRECTION('',(1.,0.,0.));
#1442=DIRECTION('',(0.,-0.529998943401923,-0.847998301880874));
#1443=DIRECTION('',(1.,0.,0.));
#1444=DIRECTION('',(0.,0.529998943401923,0.847998301880874));
#1445=DIRECTION('',(1.,0.,0.));
#1446=DIRECTION('center_axis',(0.,0.,1.));
#1447=DIRECTION('ref_axis',(-1.,0.,0.));
#1448=DIRECTION('',(0.,-1.,0.));
#1449=DIRECTION('center_axis',(0.,0.,1.));
#1450=DIRECTION('ref_axis',(-1.,0.,0.));
#1451=DIRECTION('',(0.,-1.,0.));
#1452=DIRECTION('center_axis',(0.,0.,-1.));
#1453=DIRECTION('ref_axis',(1.,0.,0.));
#1454=DIRECTION('',(1.,0.,0.));
#1455=DIRECTION('',(0.,-1.,0.));
#1456=DIRECTION('',(-1.,0.,0.));
#1457=DIRECTION('',(0.,-1.,0.));
#1458=DIRECTION('center_axis',(0.,0.,1.));
#1459=DIRECTION('ref_axis',(-1.,0.,0.));
#1460=DIRECTION('',(-1.,0.,0.));
#1461=DIRECTION('',(0.,-1.,0.));
#1462=DIRECTION('',(1.,0.,0.));
#1463=DIRECTION('',(0.,-1.,0.));
#1464=DIRECTION('center_axis',(0.,-1.,0.));
#1465=DIRECTION('ref_axis',(0.,0.,-1.));
#1466=DIRECTION('',(0.,0.,-1.));
#1467=DIRECTION('',(-1.,0.,0.));
#1468=DIRECTION('',(0.,0.,1.));
#1469=DIRECTION('center_axis',(0.,-1.,0.));
#1470=DIRECTION('ref_axis',(0.,0.,-1.));
#1471=DIRECTION('',(0.,0.,1.));
#1472=DIRECTION('',(1.,0.,0.));
#1473=DIRECTION('',(0.,0.,-1.));
#1474=DIRECTION('center_axis',(1.,0.,0.));
#1475=DIRECTION('ref_axis',(0.,0.,1.));
#1476=DIRECTION('',(0.,-0.447213595372339,-0.894427191063725));
#1477=DIRECTION('',(0.,-1.,0.));
#1478=DIRECTION('',(0.,0.,-1.));
#1479=DIRECTION('center_axis',(0.,0.,-1.));
#1480=DIRECTION('ref_axis',(1.,0.,0.));
#1481=DIRECTION('',(0.,-1.,0.));
#1482=DIRECTION('center_axis',(-1.,0.,0.));
#1483=DIRECTION('ref_axis',(0.,0.,-1.));
#1484=DIRECTION('',(0.,0.447213595372339,0.894427191063725));
#1485=DIRECTION('',(0.,0.,1.));
#1486=DIRECTION('center_axis',(0.,-0.894427191063725,0.447213595372339));
#1487=DIRECTION('ref_axis',(0.,-0.447213595372339,-0.894427191063725));
#1488=DIRECTION('',(0.,-0.447213595372339,-0.894427191063725));
#1489=DIRECTION('',(0.,0.447213595372339,0.894427191063725));
#1490=DIRECTION('',(0.,-0.447213595372339,-0.894427191063725));
#1491=DIRECTION('',(1.,0.,0.));
#1492=DIRECTION('',(0.,-0.447213595372339,-0.894427191063725));
#1493=DIRECTION('center_axis',(1.,0.,0.));
#1494=DIRECTION('ref_axis',(0.,0.,1.));
#1495=DIRECTION('',(0.,-1.,0.));
#1496=DIRECTION('',(0.,0.,-1.));
#1497=DIRECTION('center_axis',(0.,0.,-1.));
#1498=DIRECTION('ref_axis',(1.,0.,0.));
#1499=DIRECTION('',(0.,-1.,0.));
#1500=DIRECTION('center_axis',(-1.,0.,0.));
#1501=DIRECTION('ref_axis',(0.,0.,-1.));
#1502=DIRECTION('',(0.,0.,1.));
#1503=DIRECTION('center_axis',(0.,-0.873363874407654,-0.487068314386855));
#1504=DIRECTION('ref_axis',(0.,0.487068314386854,-0.873363874407654));
#1505=DIRECTION('',(0.,0.487068314386854,-0.873363874407654));
#1506=DIRECTION('',(1.,0.,0.));
#1507=DIRECTION('',(0.,0.487068314386854,-0.873363874407654));
#1508=DIRECTION('',(1.,0.,0.));
#1509=DIRECTION('center_axis',(0.,-0.929490711202111,-0.368845520223567));
#1510=DIRECTION('ref_axis',(0.,0.368845520223567,-0.929490711202111));
#1511=DIRECTION('',(0.,0.368845520223567,-0.929490711202111));
#1512=DIRECTION('',(0.,0.368845520223567,-0.929490711202111));
#1513=DIRECTION('',(1.,0.,0.));
#1514=DIRECTION('center_axis',(0.,-0.995118283945616,-0.0986894166419681));
#1515=DIRECTION('ref_axis',(0.,0.0986894166419681,-0.995118283945616));
#1516=DIRECTION('',(0.,0.0986894166419681,-0.995118283945616));
#1517=DIRECTION('',(0.,0.0986894166419681,-0.995118283945616));
#1518=DIRECTION('',(1.,0.,0.));
#1519=DIRECTION('center_axis',(0.,-0.955779008721949,-0.294085848837528));
#1520=DIRECTION('ref_axis',(0.,0.294085848837528,-0.955779008721949));
#1521=DIRECTION('',(0.,0.294085848837528,-0.955779008721949));
#1522=DIRECTION('',(0.,0.294085848837528,-0.955779008721949));
#1523=DIRECTION('',(1.,0.,0.));
#1524=DIRECTION('center_axis',(0.,-0.979133837466745,0.203216456832722));
#1525=DIRECTION('ref_axis',(0.,-0.203216456832722,-0.979133837466745));
#1526=DIRECTION('',(0.,-0.203216456832722,-0.979133837466745));
#1527=DIRECTION('',(0.,-0.203216456832722,-0.979133837466745));
#1528=DIRECTION('',(1.,0.,0.));
#1529=DIRECTION('center_axis',(0.,-1.,0.));
#1530=DIRECTION('ref_axis',(0.,0.,-1.));
#1531=DIRECTION('',(0.,0.,-1.));
#1532=DIRECTION('',(0.,0.,-1.));
#1533=DIRECTION('',(1.,0.,0.));
#1534=DIRECTION('center_axis',(0.,-0.894427190999914,-0.447213595499963));
#1535=DIRECTION('ref_axis',(0.,0.447213595499963,-0.894427190999914));
#1536=DIRECTION('',(0.,0.447213595499963,-0.894427190999914));
#1537=DIRECTION('',(0.,0.447213595499963,-0.894427190999914));
#1538=DIRECTION('',(1.,0.,0.));
#1539=DIRECTION('center_axis',(0.,-0.998052578621415,-0.062378283938753));
#1540=DIRECTION('ref_axis',(0.,0.062378283938753,-0.998052578621415));
#1541=DIRECTION('',(0.,0.062378283938753,-0.998052578621415));
#1542=DIRECTION('',(0.,0.062378283938753,-0.998052578621415));
#1543=DIRECTION('',(1.,0.,0.));
#1544=DIRECTION('center_axis',(0.,-0.857492925712547,0.514495755427522));
#1545=DIRECTION('ref_axis',(0.,-0.514495755427522,-0.857492925712547));
#1546=DIRECTION('',(0.,-0.514495755427522,-0.857492925712547));
#1547=DIRECTION('',(0.,-0.514495755427522,-0.857492925712547));
#1548=DIRECTION('center_axis',(0.,0.285253594751936,0.958452078447899));
#1549=DIRECTION('ref_axis',(0.,-0.958452078447899,0.285253594751936));
#1550=DIRECTION('',(0.,-0.958452078447899,0.285253594751936));
#1551=DIRECTION('',(1.,0.,0.));
#1552=DIRECTION('',(0.,-0.958452078447899,0.285253594751936));
#1553=DIRECTION('center_axis',(0.,0.99995702978815,-0.00927030621186056));
#1554=DIRECTION('ref_axis',(0.,0.00927030621186056,0.99995702978815));
#1555=DIRECTION('',(0.,0.00927030621186056,0.99995702978815));
#1556=DIRECTION('',(0.,0.00927030621186056,0.99995702978815));
#1557=DIRECTION('',(1.,0.,0.));
#1558=DIRECTION('center_axis',(0.,-0.349109022972073,-0.937082114907485));
#1559=DIRECTION('ref_axis',(0.,0.937082114907485,-0.349109022972073));
#1560=DIRECTION('',(0.,0.937082114907485,-0.349109022972073));
#1561=DIRECTION('',(0.,0.937082114907485,-0.349109022972073));
#1562=DIRECTION('center_axis',(1.,0.,0.));
#1563=DIRECTION('ref_axis',(0.,0.,-1.));
#1564=DIRECTION('center_axis',(1.,0.,0.));
#1565=DIRECTION('ref_axis',(0.,0.,-1.));
#1566=DIRECTION('center_axis',(0.,-1.,0.));
#1567=DIRECTION('ref_axis',(1.,0.,0.));
#1568=DIRECTION('center_axis',(0.,-1.,0.));
#1569=DIRECTION('ref_axis',(1.,0.,0.));
#1570=DIRECTION('',(0.,1.,0.));
#1571=DIRECTION('center_axis',(0.,1.,0.));
#1572=DIRECTION('ref_axis',(1.,0.,0.));
#1573=DIRECTION('center_axis',(0.,1.,0.));
#1574=DIRECTION('ref_axis',(1.,0.,0.));
#1575=DIRECTION('center_axis',(0.,1.,0.));
#1576=DIRECTION('ref_axis',(1.,0.,0.));
#1577=DIRECTION('center_axis',(1.,0.,0.));
#1578=DIRECTION('ref_axis',(0.,0.,1.));
#1579=DIRECTION('',(0.,0.,1.));
#1580=DIRECTION('',(0.,-1.,0.));
#1581=DIRECTION('',(0.,0.,1.));
#1582=DIRECTION('',(0.,-1.,0.));
#1583=DIRECTION('center_axis',(0.,0.,-1.));
#1584=DIRECTION('ref_axis',(1.,0.,0.));
#1585=DIRECTION('',(1.,0.,0.));
#1586=DIRECTION('',(1.,0.,0.));
#1587=DIRECTION('',(0.,-1.,0.));
#1588=DIRECTION('center_axis',(-1.,0.,0.));
#1589=DIRECTION('ref_axis',(0.,0.,-1.));
#1590=DIRECTION('',(0.,0.,-1.));
#1591=DIRECTION('',(0.,0.,-1.));
#1592=DIRECTION('',(0.,-1.,0.));
#1593=DIRECTION('center_axis',(0.,0.,1.));
#1594=DIRECTION('ref_axis',(-1.,0.,0.));
#1595=DIRECTION('',(-1.,0.,0.));
#1596=DIRECTION('',(-1.,0.,0.));
#1597=DIRECTION('center_axis',(0.,1.,0.));
#1598=DIRECTION('ref_axis',(1.,0.,0.));
#1599=DIRECTION('center_axis',(0.,-1.,0.));
#1600=DIRECTION('ref_axis',(0.,0.,-1.));
#1601=DIRECTION('center_axis',(0.,-1.,0.));
#1602=DIRECTION('ref_axis',(1.,0.,0.));
#1603=DIRECTION('center_axis',(0.,-1.,0.));
#1604=DIRECTION('ref_axis',(1.,0.,0.));
#1605=DIRECTION('',(0.,1.,0.));
#1606=DIRECTION('center_axis',(0.,1.,0.));
#1607=DIRECTION('ref_axis',(1.,0.,0.));
#1608=DIRECTION('center_axis',(0.,1.,0.));
#1609=DIRECTION('ref_axis',(1.,0.,0.));
#1610=DIRECTION('center_axis',(0.,1.,0.));
#1611=DIRECTION('ref_axis',(1.,0.,0.));
#1612=DIRECTION('center_axis',(1.,0.,0.));
#1613=DIRECTION('ref_axis',(0.,0.,1.));
#1614=DIRECTION('',(0.,0.,1.));
#1615=DIRECTION('',(0.,-1.,0.));
#1616=DIRECTION('',(0.,0.,1.));
#1617=DIRECTION('',(0.,-1.,0.));
#1618=DIRECTION('center_axis',(0.,0.,-1.));
#1619=DIRECTION('ref_axis',(1.,0.,0.));
#1620=DIRECTION('',(1.,0.,0.));
#1621=DIRECTION('',(1.,0.,0.));
#1622=DIRECTION('',(0.,-1.,0.));
#1623=DIRECTION('center_axis',(-1.,0.,0.));
#1624=DIRECTION('ref_axis',(0.,0.,-1.));
#1625=DIRECTION('',(0.,0.,-1.));
#1626=DIRECTION('',(0.,0.,-1.));
#1627=DIRECTION('',(0.,-1.,0.));
#1628=DIRECTION('center_axis',(0.,0.,1.));
#1629=DIRECTION('ref_axis',(-1.,0.,0.));
#1630=DIRECTION('',(-1.,0.,0.));
#1631=DIRECTION('',(-1.,0.,0.));
#1632=DIRECTION('center_axis',(0.,1.,0.));
#1633=DIRECTION('ref_axis',(1.,0.,0.));
#1634=DIRECTION('center_axis',(0.,-1.,0.));
#1635=DIRECTION('ref_axis',(0.,0.,-1.));
#1636=CARTESIAN_POINT('',(0.,0.,0.));
#1637=CARTESIAN_POINT('Origin',(-400.,0.,500.));
#1638=CARTESIAN_POINT('',(-400.,0.,500.));
#1639=CARTESIAN_POINT('',(-400.,-20.,500.));
#1640=CARTESIAN_POINT('',(-400.,0.,500.));
#1641=CARTESIAN_POINT('',(400.,-20.,500.));
#1642=CARTESIAN_POINT('',(-400.,-20.,500.));
#1643=CARTESIAN_POINT('',(400.,0.,500.));
#1644=CARTESIAN_POINT('',(400.,0.,500.));
#1645=CARTESIAN_POINT('',(-400.,0.,500.));
#1646=CARTESIAN_POINT('Origin',(-400.,0.,-300.));
#1647=CARTESIAN_POINT('',(-400.,0.,-300.));
#1648=CARTESIAN_POINT('',(-400.,0.,-300.));
#1649=CARTESIAN_POINT('',(400.,0.,-300.));
#1650=CARTESIAN_POINT('',(400.,0.,-300.));
#1651=CARTESIAN_POINT('',(-400.,0.,-300.));
#1652=CARTESIAN_POINT('Origin',(-400.,-20.,-300.));
#1653=CARTESIAN_POINT('',(-400.,-20.,-300.));
#1654=CARTESIAN_POINT('',(-400.,-20.,-300.));
#1655=CARTESIAN_POINT('',(400.,-20.,-300.));
#1656=CARTESIAN_POINT('',(400.,-20.,-300.));
#1657=CARTESIAN_POINT('',(-400.,-20.,-300.));
#1658=CARTESIAN_POINT('Origin',(-400.,-20.,500.));
#1659=CARTESIAN_POINT('',(-400.,-20.,500.));
#1660=CARTESIAN_POINT('',(400.,-20.,500.));
#1661=CARTESIAN_POINT('Origin',(400.,-10.,100.));
#1662=CARTESIAN_POINT('Origin',(-400.,-10.,100.));
#1663=CARTESIAN_POINT('Origin',(143.7959885,49.2,227.));
#1664=CARTESIAN_POINT('',(143.7959885,49.2,231.230600237888));
#1665=CARTESIAN_POINT('',(143.7959885,45.606816799,232.3));
#1666=CARTESIAN_POINT('',(143.7959885,53.8688931132284,229.841048716212));
#1667=CARTESIAN_POINT('',(143.7959885,49.2,229.));
#1668=CARTESIAN_POINT('',(143.7959885,49.2,227.));
#1669=CARTESIAN_POINT('',(143.7959885,43.5443167806072,229.));
#1670=CARTESIAN_POINT('',(143.7959885,49.2,229.));
#1671=CARTESIAN_POINT('',(143.7959885,44.9204661268015,231.201838934275));
#1672=CARTESIAN_POINT('Origin',(78.73180516,49.2,234.));
#1673=CARTESIAN_POINT('',(78.73180516,45.606816799,232.3));
#1674=CARTESIAN_POINT('',(78.73180516,49.2,231.230600237888));
#1675=CARTESIAN_POINT('',(78.73180516,52.9119864605168,230.125842362828));
#1676=CARTESIAN_POINT('',(78.73180516,43.5443167806072,229.));
#1677=CARTESIAN_POINT('',(78.73180516,46.4934998408137,233.71869285425));
#1678=CARTESIAN_POINT('',(78.73180516,49.2,229.));
#1679=CARTESIAN_POINT('',(78.73180516,49.2,229.));
#1680=CARTESIAN_POINT('',(78.73180516,49.2,234.));
#1681=CARTESIAN_POINT('Origin',(111.26389683,49.2,184.98687905));
#1682=CARTESIAN_POINT('',(76.23180516,49.2,229.));
#1683=CARTESIAN_POINT('',(146.2959885,49.2,229.));
#1684=CARTESIAN_POINT('',(76.23180516,49.2,140.9737581));
#1685=CARTESIAN_POINT('',(76.23180516,49.2,229.));
#1686=CARTESIAN_POINT('',(146.2959885,49.2,140.9737581));
#1687=CARTESIAN_POINT('',(76.23180516,49.2,140.9737581));
#1688=CARTESIAN_POINT('',(146.2959885,49.2,229.));
#1689=CARTESIAN_POINT('',(146.2959885,49.2,140.9737581));
#1690=CARTESIAN_POINT('',(146.2959885,49.2,229.));
#1691=CARTESIAN_POINT('',(-30.468051585,49.2,231.230600237888));
#1692=CARTESIAN_POINT('Origin',(146.2959885,49.2,229.));
#1693=CARTESIAN_POINT('',(76.23180516,43.5443167806072,229.));
#1694=CARTESIAN_POINT('',(-12.95200575,43.5443167806072,229.));
#1695=CARTESIAN_POINT('',(76.23180516,49.2,229.));
#1696=CARTESIAN_POINT('Origin',(146.2959885,49.2,229.));
#1697=CARTESIAN_POINT('',(146.2959885,43.5443167806072,229.));
#1698=CARTESIAN_POINT('',(146.2959885,49.2,229.));
#1699=CARTESIAN_POINT('',(-12.95200575,43.5443167806072,229.));
#1700=CARTESIAN_POINT('Origin',(-172.2,45.606816799,232.3));
#1701=CARTESIAN_POINT('',(-78.48510029,45.606816799,232.3));
#1702=CARTESIAN_POINT('',(-172.2,45.606816799,232.3));
#1703=CARTESIAN_POINT('',(-78.48510029,43.5443167806072,229.));
#1704=CARTESIAN_POINT('',(-78.48510029,44.9204661268015,231.201838934275));
#1705=CARTESIAN_POINT('',(-75.98510029,43.5443167806072,229.));
#1706=CARTESIAN_POINT('',(-124.092550145,43.5443167806072,229.));
#1707=CARTESIAN_POINT('',(-75.98510029,42.803408399,227.8145466));
#1708=CARTESIAN_POINT('',(-75.98510029,25.5887262984487,200.271055484743));
#1709=CARTESIAN_POINT('',(76.23180516,42.803408399,227.8145466));
#1710=CARTESIAN_POINT('',(-172.2,42.803408399,227.8145466));
#1711=CARTESIAN_POINT('',(76.23180516,45.369904330805,231.920940054268));
#1712=CARTESIAN_POINT('Origin',(-172.2,45.606816799,232.3));
#1713=CARTESIAN_POINT('',(146.2959885,42.803408399,227.8145466));
#1714=CARTESIAN_POINT('',(146.2959885,25.5887262984487,200.271055484743));
#1715=CARTESIAN_POINT('',(172.2,42.803408399,227.8145466));
#1716=CARTESIAN_POINT('',(-172.2,42.803408399,227.8145466));
#1717=CARTESIAN_POINT('',(172.2,45.606816799,232.3));
#1718=CARTESIAN_POINT('',(172.2,45.606816799,232.3));
#1719=CARTESIAN_POINT('',(-172.2,45.606816799,232.3));
#1720=CARTESIAN_POINT('Origin',(76.23180516,41.4,150.9737581));
#1721=CARTESIAN_POINT('',(76.23180516,41.2,150.9737581));
#1722=CARTESIAN_POINT('',(146.2959885,41.2,150.9737581));
#1723=CARTESIAN_POINT('',(93.747850995,41.2,150.9737581));
#1724=CARTESIAN_POINT('',(76.23180516,39.85982958,150.9737581));
#1725=CARTESIAN_POINT('',(76.23180516,41.4,150.9737581));
#1726=CARTESIAN_POINT('',(146.2959885,39.85982958,150.9737581));
#1727=CARTESIAN_POINT('',(-47.98409742,39.85982958,150.9737581));
#1728=CARTESIAN_POINT('',(146.2959885,41.4,150.9737581));
#1729=CARTESIAN_POINT('Origin',(146.2959885,41.4,191.2638229));
#1730=CARTESIAN_POINT('',(146.2959885,41.2,191.2638229));
#1731=CARTESIAN_POINT('',(76.23180516,41.2,191.2638229));
#1732=CARTESIAN_POINT('',(128.779942665,41.2,191.2638229));
#1733=CARTESIAN_POINT('',(146.2959885,39.85982958,191.2638229));
#1734=CARTESIAN_POINT('',(146.2959885,41.4,191.2638229));
#1735=CARTESIAN_POINT('',(76.23180516,39.85982958,191.2638229));
#1736=CARTESIAN_POINT('',(-12.95200575,39.85982958,191.2638229));
#1737=CARTESIAN_POINT('',(76.23180516,41.4,191.2638229));
#1738=CARTESIAN_POINT('Origin',(111.26389683,41.2,184.98687905));
#1739=CARTESIAN_POINT('',(76.23180516,41.2,224.607729800856));
#1740=CARTESIAN_POINT('',(76.23180516,41.2,229.));
#1741=CARTESIAN_POINT('',(146.2959885,41.2,224.607729800856));
#1742=CARTESIAN_POINT('',(-30.468051585,41.2,224.607729800856));
#1743=CARTESIAN_POINT('',(146.2959885,41.2,140.9737581));
#1744=CARTESIAN_POINT('Origin',(111.26389683,41.2,184.98687905));
#1745=CARTESIAN_POINT('',(146.2959885,41.2,140.9737581));
#1746=CARTESIAN_POINT('',(146.2959885,41.2,140.9737581));
#1747=CARTESIAN_POINT('',(76.23180516,41.2,140.9737581));
#1748=CARTESIAN_POINT('',(76.23180516,41.2,140.9737581));
#1749=CARTESIAN_POINT('',(76.23180516,41.2,229.));
#1750=CARTESIAN_POINT('Origin',(-78.48510029,49.2,227.));
#1751=CARTESIAN_POINT('',(-78.48510029,49.2,231.230600237888));
#1752=CARTESIAN_POINT('',(-78.48510029,53.8688931132284,229.841048716212));
#1753=CARTESIAN_POINT('',(-78.48510029,49.2,229.));
#1754=CARTESIAN_POINT('',(-78.48510029,49.2,227.));
#1755=CARTESIAN_POINT('',(-78.48510029,49.2,229.));
#1756=CARTESIAN_POINT('Origin',(-143.5492837,49.2,234.));
#1757=CARTESIAN_POINT('',(-143.5492837,45.606816799,232.3));
#1758=CARTESIAN_POINT('',(-143.5492837,49.2,231.230600237888));
#1759=CARTESIAN_POINT('',(-143.5492837,52.9119864605168,230.125842362828));
#1760=CARTESIAN_POINT('',(-143.5492837,43.5443167806072,229.));
#1761=CARTESIAN_POINT('',(-143.5492837,46.4934998408137,233.71869285425));
#1762=CARTESIAN_POINT('',(-143.5492837,49.2,229.));
#1763=CARTESIAN_POINT('',(-143.5492837,49.2,229.));
#1764=CARTESIAN_POINT('',(-143.5492837,49.2,234.));
#1765=CARTESIAN_POINT('Origin',(-111.017191995,49.2,184.98687905));
#1766=CARTESIAN_POINT('',(-146.0492837,49.2,229.));
#1767=CARTESIAN_POINT('',(-75.98510029,49.2,229.));
#1768=CARTESIAN_POINT('',(-146.0492837,49.2,140.9737581));
#1769=CARTESIAN_POINT('',(-146.0492837,49.2,229.));
#1770=CARTESIAN_POINT('',(-75.98510029,49.2,140.9737581));
#1771=CARTESIAN_POINT('',(-146.0492837,49.2,140.9737581));
#1772=CARTESIAN_POINT('',(-75.98510029,49.2,229.));
#1773=CARTESIAN_POINT('',(-75.98510029,49.2,140.9737581));
#1774=CARTESIAN_POINT('',(-75.98510029,49.2,229.));
#1775=CARTESIAN_POINT('',(-141.6085959975,49.2,231.230600237888));
#1776=CARTESIAN_POINT('Origin',(-172.2,45.606816799,232.3));
#1777=CARTESIAN_POINT('',(-172.2,45.606816799,232.3));
#1778=CARTESIAN_POINT('',(-172.2,45.606816799,232.3));
#1779=CARTESIAN_POINT('',(-172.2,42.803408399,227.8145466));
#1780=CARTESIAN_POINT('',(-172.2,45.606816799,232.3));
#1781=CARTESIAN_POINT('',(-146.0492837,42.803408399,227.8145466));
#1782=CARTESIAN_POINT('',(-172.2,42.803408399,227.8145466));
#1783=CARTESIAN_POINT('',(-146.0492837,43.5443167806072,229.));
#1784=CARTESIAN_POINT('',(-146.0492837,45.369904330805,231.920940054268));
#1785=CARTESIAN_POINT('',(-124.092550145,43.5443167806072,229.));
#1786=CARTESIAN_POINT('Origin',(-75.98510029,49.2,229.));
#1787=CARTESIAN_POINT('',(-146.0492837,49.2,229.));
#1788=CARTESIAN_POINT('Origin',(-75.98510029,49.2,229.));
#1789=CARTESIAN_POINT('',(-75.98510029,49.2,229.));
#1790=CARTESIAN_POINT('Origin',(-146.0492837,41.4,150.9737581));
#1791=CARTESIAN_POINT('',(-146.0492837,41.2,150.9737581));
#1792=CARTESIAN_POINT('',(-75.98510029,41.2,150.9737581));
#1793=CARTESIAN_POINT('',(-128.5332378475,41.2,150.9737581));
#1794=CARTESIAN_POINT('',(-146.0492837,39.85982958,150.9737581));
#1795=CARTESIAN_POINT('',(-146.0492837,41.4,150.9737581));
#1796=CARTESIAN_POINT('',(-75.98510029,39.85982958,150.9737581));
#1797=CARTESIAN_POINT('',(-159.12464185,39.85982958,150.9737581));
#1798=CARTESIAN_POINT('',(-75.98510029,41.4,150.9737581));
#1799=CARTESIAN_POINT('Origin',(-75.98510029,41.4,191.2638229));
#1800=CARTESIAN_POINT('',(-75.98510029,41.2,191.2638229));
#1801=CARTESIAN_POINT('',(-146.0492837,41.2,191.2638229));
#1802=CARTESIAN_POINT('',(-93.5011461425,41.2,191.2638229));
#1803=CARTESIAN_POINT('',(-75.98510029,39.85982958,191.2638229));
#1804=CARTESIAN_POINT('',(-75.98510029,41.4,191.2638229));
#1805=CARTESIAN_POINT('',(-146.0492837,39.85982958,191.2638229));
#1806=CARTESIAN_POINT('',(-124.092550145,39.85982958,191.2638229));
#1807=CARTESIAN_POINT('',(-146.0492837,41.4,191.2638229));
#1808=CARTESIAN_POINT('Origin',(-111.017191995,41.2,184.98687905));
#1809=CARTESIAN_POINT('',(-146.0492837,41.2,224.607729800856));
#1810=CARTESIAN_POINT('',(-146.0492837,41.2,229.));
#1811=CARTESIAN_POINT('',(-75.98510029,41.2,224.607729800856));
#1812=CARTESIAN_POINT('',(-141.6085959975,41.2,224.607729800856));
#1813=CARTESIAN_POINT('',(-75.98510029,41.2,140.9737581));
#1814=CARTESIAN_POINT('Origin',(-111.017191995,41.2,184.98687905));
#1815=CARTESIAN_POINT('',(-75.98510029,41.2,140.9737581));
#1816=CARTESIAN_POINT('',(-75.98510029,41.2,140.9737581));
#1817=CARTESIAN_POINT('',(-146.0492837,41.2,140.9737581));
#1818=CARTESIAN_POINT('',(-146.0492837,41.2,140.9737581));
#1819=CARTESIAN_POINT('',(-146.0492837,41.2,229.));
#1820=CARTESIAN_POINT('Origin',(146.2959885,49.2,140.9737581));
#1821=CARTESIAN_POINT('',(146.2959885,26.0749098624521,194.35754951497));
#1822=CARTESIAN_POINT('',(146.2959885,49.2,140.9737581));
#1823=CARTESIAN_POINT('',(146.2959885,39.85982958,182.66597215));
#1824=CARTESIAN_POINT('Origin',(76.23180516,49.2,140.9737581));
#1825=CARTESIAN_POINT('',(76.23180516,49.2,140.9737581));
#1826=CARTESIAN_POINT('Origin',(76.23180516,49.2,229.));
#1827=CARTESIAN_POINT('',(76.23180516,43.6801582386842,229.568046279994));
#1828=CARTESIAN_POINT('',(76.23180516,39.85982958,202.81100455));
#1829=CARTESIAN_POINT('Origin',(-172.2,42.803408399,227.8145466));
#1830=CARTESIAN_POINT('',(-75.98510029,26.0749098624521,194.35754951497));
#1831=CARTESIAN_POINT('',(-146.0492837,43.6801582386842,229.568046279994));
#1832=CARTESIAN_POINT('',(-172.2,40.,222.2077298));
#1833=CARTESIAN_POINT('',(-172.2,42.803408399,227.8145466));
#1834=CARTESIAN_POINT('',(172.2,40.,222.2077298));
#1835=CARTESIAN_POINT('',(-172.2,40.,222.2077298));
#1836=CARTESIAN_POINT('',(172.2,42.803408399,227.8145466));
#1837=CARTESIAN_POINT('Origin',(-75.98510029,49.2,140.9737581));
#1838=CARTESIAN_POINT('',(-75.98510029,49.2,140.9737581));
#1839=CARTESIAN_POINT('',(-75.98510029,39.85982958,182.66597215));
#1840=CARTESIAN_POINT('Origin',(-146.0492837,49.2,140.9737581));
#1841=CARTESIAN_POINT('',(-146.0492837,49.2,140.9737581));
#1842=CARTESIAN_POINT('Origin',(-146.0492837,49.2,229.));
#1843=CARTESIAN_POINT('',(-146.0492837,39.85982958,202.81100455));
#1844=CARTESIAN_POINT('Origin',(-172.2,44.064942179,11.95209982));
#1845=CARTESIAN_POINT('',(-172.2,44.064942179,11.95209982));
#1846=CARTESIAN_POINT('',(-172.2,48.129884358,4.663237979));
#1847=CARTESIAN_POINT('',(-172.2,44.064942179,11.95209982));
#1848=CARTESIAN_POINT('',(172.2,48.129884358,4.663237979));
#1849=CARTESIAN_POINT('',(-172.2,48.129884358,4.663237979));
#1850=CARTESIAN_POINT('',(172.2,44.064942179,11.95209982));
#1851=CARTESIAN_POINT('',(172.2,44.064942179,11.95209982));
#1852=CARTESIAN_POINT('',(-172.2,44.064942179,11.95209982));
#1853=CARTESIAN_POINT('Origin',(-172.2,40.5606816799,20.78283628));
#1854=CARTESIAN_POINT('',(-172.2,40.5606816799,20.78283628));
#1855=CARTESIAN_POINT('',(-172.2,40.5606816799,20.78283628));
#1856=CARTESIAN_POINT('',(172.2,40.5606816799,20.78283628));
#1857=CARTESIAN_POINT('',(172.2,40.5606816799,20.78283628));
#1858=CARTESIAN_POINT('',(-172.2,40.5606816799,20.78283628));
#1859=CARTESIAN_POINT('Origin',(-172.2,38.87863664,37.74345709));
#1860=CARTESIAN_POINT('',(-172.2,38.87863664,37.74345709));
#1861=CARTESIAN_POINT('',(-172.2,38.87863664,37.74345709));
#1862=CARTESIAN_POINT('',(172.2,38.87863664,37.74345709));
#1863=CARTESIAN_POINT('',(172.2,38.87863664,37.74345709));
#1864=CARTESIAN_POINT('',(-172.2,38.87863664,37.74345709));
#1865=CARTESIAN_POINT('Origin',(-172.2,38.31795496,39.56567255));
#1866=CARTESIAN_POINT('',(-172.2,38.31795496,39.56567255));
#1867=CARTESIAN_POINT('',(-172.2,38.31795496,39.56567255));
#1868=CARTESIAN_POINT('',(172.2,38.31795496,39.56567255));
#1869=CARTESIAN_POINT('',(172.2,38.31795496,39.56567255));
#1870=CARTESIAN_POINT('',(-172.2,38.31795496,39.56567255));
#1871=CARTESIAN_POINT('Origin',(-172.2,39.85982958,46.99470481));
#1872=CARTESIAN_POINT('',(-172.2,39.85982958,46.99470481));
#1873=CARTESIAN_POINT('',(-172.2,39.85982958,46.99470481));
#1874=CARTESIAN_POINT('',(172.2,39.85982958,46.99470481));
#1875=CARTESIAN_POINT('',(172.2,39.85982958,46.99470481));
#1876=CARTESIAN_POINT('',(-172.2,39.85982958,46.99470481));
#1877=CARTESIAN_POINT('Origin',(-172.2,39.85982958,214.3581862));
#1878=CARTESIAN_POINT('',(-172.2,39.85982958,214.3581862));
#1879=CARTESIAN_POINT('',(-172.2,39.85982958,214.3581862));
#1880=CARTESIAN_POINT('',(172.2,39.85982958,214.3581862));
#1881=CARTESIAN_POINT('',(172.2,39.85982958,214.3581862));
#1882=CARTESIAN_POINT('',(-172.2,39.85982958,214.3581862));
#1883=CARTESIAN_POINT('Origin',(-172.2,38.45812538,217.1615946));
#1884=CARTESIAN_POINT('',(-172.2,38.45812538,217.1615946));
#1885=CARTESIAN_POINT('',(-172.2,38.45812538,217.1615946));
#1886=CARTESIAN_POINT('',(172.2,38.45812538,217.1615946));
#1887=CARTESIAN_POINT('',(172.2,38.45812538,217.1615946));
#1888=CARTESIAN_POINT('',(-172.2,38.45812538,217.1615946));
#1889=CARTESIAN_POINT('Origin',(-172.2,38.31795496,219.4043214));
#1890=CARTESIAN_POINT('',(-172.2,38.31795496,219.4043214));
#1891=CARTESIAN_POINT('',(-172.2,38.31795496,219.4043214));
#1892=CARTESIAN_POINT('',(172.2,38.31795496,219.4043214));
#1893=CARTESIAN_POINT('',(172.2,38.31795496,219.4043214));
#1894=CARTESIAN_POINT('',(-172.2,38.31795496,219.4043214));
#1895=CARTESIAN_POINT('Origin',(-172.2,40.,222.2077298));
#1896=CARTESIAN_POINT('',(-172.2,40.,222.2077298));
#1897=CARTESIAN_POINT('',(172.2,40.,222.2077298));
#1898=CARTESIAN_POINT('Origin',(-172.2,57.38113208,228.7957395));
#1899=CARTESIAN_POINT('',(172.2,57.38113208,228.7957395));
#1900=CARTESIAN_POINT('',(172.2,57.38113208,228.7957395));
#1901=CARTESIAN_POINT('',(-172.2,57.38113208,228.7957395));
#1902=CARTESIAN_POINT('',(-172.2,57.38113208,228.7957395));
#1903=CARTESIAN_POINT('',(-172.2,57.38113208,228.7957395));
#1904=CARTESIAN_POINT('Origin',(-172.2,55.27857578,2.));
#1905=CARTESIAN_POINT('',(-172.2,55.27857578,2.));
#1906=CARTESIAN_POINT('',(-172.2,55.27857578,2.));
#1907=CARTESIAN_POINT('',(172.2,55.27857578,2.));
#1908=CARTESIAN_POINT('',(172.2,55.27857578,2.));
#1909=CARTESIAN_POINT('',(-172.2,55.27857578,2.));
#1910=CARTESIAN_POINT('Origin',(-172.2,48.129884358,4.663237979));
#1911=CARTESIAN_POINT('',(-172.2,48.129884358,4.663237979));
#1912=CARTESIAN_POINT('',(172.2,48.129884358,4.663237979));
#1913=CARTESIAN_POINT('Origin',(172.2,47.84954352,117.15));
#1914=CARTESIAN_POINT('Origin',(-172.2,47.84954352,117.15));
#1915=CARTESIAN_POINT('Origin',(-111.017191995,45.2,171.1187905));
#1916=CARTESIAN_POINT('',(-136.017191995,43.2,171.1187905));
#1917=CARTESIAN_POINT('Origin',(-111.017191995,43.2,171.1187905));
#1918=CARTESIAN_POINT('',(-136.017191995,45.2,171.1187905));
#1919=CARTESIAN_POINT('',(-136.017191995,45.2,171.1187905));
#1920=CARTESIAN_POINT('Origin',(-111.017191995,45.2,171.1187905));
#1921=CARTESIAN_POINT('Origin',(-111.017191995,45.2,171.1187905));
#1922=CARTESIAN_POINT('Origin',(-111.017191995,43.2,171.1187905));
#1923=CARTESIAN_POINT('Origin',(-75.98510029,39.95982958004,150.9737581));
#1924=CARTESIAN_POINT('',(-75.98510029,39.95982958004,150.9737581));
#1925=CARTESIAN_POINT('',(-75.98510029,39.95982958004,191.2638229));
#1926=CARTESIAN_POINT('',(-75.98510029,39.95982958004,150.9737581));
#1927=CARTESIAN_POINT('',(-75.98510029,39.85982958004,191.2638229));
#1928=CARTESIAN_POINT('',(-75.98510029,39.95982958004,191.2638229));
#1929=CARTESIAN_POINT('',(-75.98510029,39.85982958004,150.9737581));
#1930=CARTESIAN_POINT('',(-75.98510029,39.85982958004,150.9737581));
#1931=CARTESIAN_POINT('',(-75.98510029,39.95982958004,150.9737581));
#1932=CARTESIAN_POINT('Origin',(-146.0492837,39.95982958004,150.9737581));
#1933=CARTESIAN_POINT('',(-146.0492837,39.95982958004,150.9737581));
#1934=CARTESIAN_POINT('',(-146.0492837,39.95982958004,150.9737581));
#1935=CARTESIAN_POINT('',(-146.0492837,39.85982958004,150.9737581));
#1936=CARTESIAN_POINT('',(-146.0492837,39.85982958004,150.9737581));
#1937=CARTESIAN_POINT('',(-146.0492837,39.95982958004,150.9737581));
#1938=CARTESIAN_POINT('Origin',(-146.0492837,39.95982958004,191.2638229));
#1939=CARTESIAN_POINT('',(-146.0492837,39.95982958004,191.2638229));
#1940=CARTESIAN_POINT('',(-146.0492837,39.95982958004,191.2638229));
#1941=CARTESIAN_POINT('',(-146.0492837,39.85982958004,191.2638229));
#1942=CARTESIAN_POINT('',(-146.0492837,39.85982958004,191.2638229));
#1943=CARTESIAN_POINT('',(-146.0492837,39.95982958004,191.2638229));
#1944=CARTESIAN_POINT('Origin',(-75.98510029,39.95982958004,191.2638229));
#1945=CARTESIAN_POINT('',(-75.98510029,39.95982958004,191.2638229));
#1946=CARTESIAN_POINT('',(-75.98510029,39.85982958004,191.2638229));
#1947=CARTESIAN_POINT('Origin',(-111.017191995,39.95982958004,171.1187905));
#1948=CARTESIAN_POINT('Origin',(-111.017191995,39.85982958004,171.1187905));
#1949=CARTESIAN_POINT('Origin',(111.26389683,45.2,171.1187905));
#1950=CARTESIAN_POINT('',(86.26389683,43.2,171.1187905));
#1951=CARTESIAN_POINT('Origin',(111.26389683,43.2,171.1187905));
#1952=CARTESIAN_POINT('',(86.26389683,45.2,171.1187905));
#1953=CARTESIAN_POINT('',(86.26389683,45.2,171.1187905));
#1954=CARTESIAN_POINT('Origin',(111.26389683,45.2,171.1187905));
#1955=CARTESIAN_POINT('Origin',(111.26389683,45.2,171.1187905));
#1956=CARTESIAN_POINT('Origin',(111.26389683,43.2,171.1187905));
#1957=CARTESIAN_POINT('Origin',(146.2959885,39.95982958004,150.9737581));
#1958=CARTESIAN_POINT('',(146.2959885,39.95982958004,150.9737581));
#1959=CARTESIAN_POINT('',(146.2959885,39.95982958004,191.2638229));
#1960=CARTESIAN_POINT('',(146.2959885,39.95982958004,150.9737581));
#1961=CARTESIAN_POINT('',(146.2959885,39.85982958004,191.2638229));
#1962=CARTESIAN_POINT('',(146.2959885,39.95982958004,191.2638229));
#1963=CARTESIAN_POINT('',(146.2959885,39.85982958004,150.9737581));
#1964=CARTESIAN_POINT('',(146.2959885,39.85982958004,150.9737581));
#1965=CARTESIAN_POINT('',(146.2959885,39.95982958004,150.9737581));
#1966=CARTESIAN_POINT('Origin',(76.23180516,39.95982958004,150.9737581));
#1967=CARTESIAN_POINT('',(76.23180516,39.95982958004,150.9737581));
#1968=CARTESIAN_POINT('',(76.23180516,39.95982958004,150.9737581));
#1969=CARTESIAN_POINT('',(76.23180516,39.85982958004,150.9737581));
#1970=CARTESIAN_POINT('',(76.23180516,39.85982958004,150.9737581));
#1971=CARTESIAN_POINT('',(76.23180516,39.95982958004,150.9737581));
#1972=CARTESIAN_POINT('Origin',(76.23180516,39.95982958004,191.2638229));
#1973=CARTESIAN_POINT('',(76.23180516,39.95982958004,191.2638229));
#1974=CARTESIAN_POINT('',(76.23180516,39.95982958004,191.2638229));
#1975=CARTESIAN_POINT('',(76.23180516,39.85982958004,191.2638229));
#1976=CARTESIAN_POINT('',(76.23180516,39.85982958004,191.2638229));
#1977=CARTESIAN_POINT('',(76.23180516,39.95982958004,191.2638229));
#1978=CARTESIAN_POINT('Origin',(146.2959885,39.95982958004,191.2638229));
#1979=CARTESIAN_POINT('',(146.2959885,39.95982958004,191.2638229));
#1980=CARTESIAN_POINT('',(146.2959885,39.85982958004,191.2638229));
#1981=CARTESIAN_POINT('Origin',(111.26389683,39.95982958004,171.1187905));
#1982=CARTESIAN_POINT('Origin',(111.26389683,39.85982958004,171.1187905));
#1983=UNCERTAINTY_MEASURE_WITH_UNIT(LENGTH_MEASURE(0.01),#1987,
'DISTANCE_ACCURACY_VALUE',
'Maximum model space distance between geometric entities at asserted c
onnectivities');
#1984=UNCERTAINTY_MEASURE_WITH_UNIT(LENGTH_MEASURE(0.01),#1987,
'DISTANCE_ACCURACY_VALUE',
'Maximum model space distance between geometric entities at asserted c
onnectivities');
#1985=(
GEOMETRIC_REPRESENTATION_CONTEXT(3)
GLOBAL_UNCERTAINTY_ASSIGNED_CONTEXT((#1983))
GLOBAL_UNIT_ASSIGNED_CONTEXT((#1987,#1989,#1990))
REPRESENTATION_CONTEXT('','3D')
);
#1986=(
GEOMETRIC_REPRESENTATION_CONTEXT(3)
GLOBAL_UNCERTAINTY_ASSIGNED_CONTEXT((#1984))
GLOBAL_UNIT_ASSIGNED_CONTEXT((#1987,#1989,#1990))
REPRESENTATION_CONTEXT('','3D')
);
#1987=(
LENGTH_UNIT()
NAMED_UNIT(*)
SI_UNIT(.MILLI.,.METRE.)
);
#1988=(
LENGTH_UNIT()
NAMED_UNIT(*)
SI_UNIT($,.METRE.)
);
#1989=(
NAMED_UNIT(*)
PLANE_ANGLE_UNIT()
SI_UNIT($,.RADIAN.)
);
#1990=(
NAMED_UNIT(*)
SI_UNIT($,.STERADIAN.)
SOLID_ANGLE_UNIT()
);
#1991=SHAPE_DEFINITION_REPRESENTATION(#1992,#1993);
#1992=PRODUCT_DEFINITION_SHAPE('',$,#1995);
#1993=SHAPE_REPRESENTATION('',(#1259),#1985);
#1994=PRODUCT_DEFINITION_CONTEXT('part definition',#1999,'design');
#1995=PRODUCT_DEFINITION(
'90 CFD | Dell traced shell and twin blower ducts',
'90 CFD | Dell traced shell and twin blower ducts',#1996,#1994);
#1996=PRODUCT_DEFINITION_FORMATION('',$,#2001);
#1997=PRODUCT_RELATED_PRODUCT_CATEGORY(
'90 CFD | Dell traced shell and twin blower ducts',
'90 CFD | Dell traced shell and twin blower ducts',(#2001));
#1998=APPLICATION_PROTOCOL_DEFINITION('international standard',
'automotive_design',2009,#1999);
#1999=APPLICATION_CONTEXT(
'Core Data for Automotive Mechanical Design Process');
#2000=PRODUCT_CONTEXT('part definition',#1999,'mechanical');
#2001=PRODUCT('90 CFD | Dell traced shell and twin blower ducts',
'90 CFD | Dell traced shell and twin blower ducts',$,(#2000));
#2002=PRESENTATION_STYLE_ASSIGNMENT((#2003));
#2003=SURFACE_STYLE_USAGE(.BOTH.,#2004);
#2004=SURFACE_SIDE_STYLE('',(#2005));
#2005=SURFACE_STYLE_FILL_AREA(#2006);
#2006=FILL_AREA_STYLE('Steel - Satin',(#2007));
#2007=FILL_AREA_STYLE_COLOUR('Steel - Satin',#2008);
#2008=COLOUR_RGB('Steel - Satin',0.627450980392157,0.627450980392157,0.627450980392157);
ENDSEC;
END-ISO-10303-21;
