ISO-10303-21;
HEADER;
/* Generated by software containing ST-Developer
 * from STEP Tools, Inc. (www.steptools.com) 
 */

FILE_DESCRIPTION(
/* description */ (
'Native Revision F | dimensions in mm | see fusion/README.md'),
/* implementation_level */ '2;1');

FILE_NAME(
/* name */ 'pin.step',
/* time_stamp */ '2026-09-07T16:28:12-04:00',
/* author */ (''),
/* organization */ (''),
/* preprocessor_version */ 'ST-DEVELOPER v20.1',
/* originating_system */ 'Autodesk Translation Framework v15.8.0.0',
/* authorisation */ '');

FILE_SCHEMA (('AUTOMOTIVE_DESIGN { 1 0 10303 214 3 1 1 }'));
ENDSEC;

DATA;
#10=MECHANICAL_DESIGN_GEOMETRIC_PRESENTATION_REPRESENTATION('',(#13),#428);
#11=SHAPE_REPRESENTATION_RELATIONSHIP('SRR','None',#435,#12);
#12=ADVANCED_BREP_SHAPE_REPRESENTATION('',(#14),#427);
#13=STYLED_ITEM('',(#444),#14);
#14=MANIFOLD_SOLID_BREP('pin | finished print',#237);
#15=FACE_BOUND('',#59,.T.);
#16=CONICAL_SURFACE('',#263,1.85,0.244978663126864);
#17=CONICAL_SURFACE('',#270,3.7,0.785398163397448);
#18=CONICAL_SURFACE('',#275,1.85,0.244978663126864);
#19=CYLINDRICAL_SURFACE('',#258,2.);
#20=CYLINDRICAL_SURFACE('',#268,4.);
#21=CIRCLE('',#253,2.);
#22=CIRCLE('',#254,2.);
#23=CIRCLE('',#257,1.6);
#24=CIRCLE('',#259,2.);
#25=CIRCLE('',#260,2.);
#26=CIRCLE('',#261,2.);
#27=CIRCLE('',#262,2.);
#28=CIRCLE('',#264,2.1);
#29=CIRCLE('',#267,4.);
#30=CIRCLE('',#269,4.);
#31=CIRCLE('',#271,3.4);
#32=CIRCLE('',#274,2.1);
#33=CIRCLE('',#276,1.6);
#34=FACE_OUTER_BOUND('',#48,.T.);
#35=FACE_OUTER_BOUND('',#49,.T.);
#36=FACE_OUTER_BOUND('',#50,.T.);
#37=FACE_OUTER_BOUND('',#51,.T.);
#38=FACE_OUTER_BOUND('',#52,.T.);
#39=FACE_OUTER_BOUND('',#53,.T.);
#40=FACE_OUTER_BOUND('',#54,.T.);
#41=FACE_OUTER_BOUND('',#55,.T.);
#42=FACE_OUTER_BOUND('',#56,.T.);
#43=FACE_OUTER_BOUND('',#57,.T.);
#44=FACE_OUTER_BOUND('',#58,.T.);
#45=FACE_OUTER_BOUND('',#60,.T.);
#46=FACE_OUTER_BOUND('',#61,.T.);
#47=FACE_OUTER_BOUND('',#62,.T.);
#48=EDGE_LOOP('',(#150,#151,#152,#153,#154,#155,#156,#157));
#49=EDGE_LOOP('',(#158,#159,#160,#161));
#50=EDGE_LOOP('',(#162,#163,#164,#165,#166,#167,#168,#169));
#51=EDGE_LOOP('',(#170,#171));
#52=EDGE_LOOP('',(#172,#173,#174,#175,#176,#177,#178,#179,#180,#181,#182,
#183));
#53=EDGE_LOOP('',(#184,#185,#186,#187));
#54=EDGE_LOOP('',(#188,#189,#190,#191));
#55=EDGE_LOOP('',(#192));
#56=EDGE_LOOP('',(#193,#194,#195,#196));
#57=EDGE_LOOP('',(#197,#198,#199,#200));
#58=EDGE_LOOP('',(#201));
#59=EDGE_LOOP('',(#202));
#60=EDGE_LOOP('',(#203,#204,#205,#206,#207));
#61=EDGE_LOOP('',(#208,#209,#210,#211));
#62=EDGE_LOOP('',(#212,#213));
#63=(
BOUNDED_CURVE()
B_SPLINE_CURVE(2,(#361,#362,#363),.UNSPECIFIED.,.F.,.F.)
B_SPLINE_CURVE_WITH_KNOTS((3,3),(0.,0.206643089362247),.UNSPECIFIED.)
CURVE()
GEOMETRIC_REPRESENTATION_ITEM()
RATIONAL_B_SPLINE_CURVE((1.,1.01001437296766,1.))
REPRESENTATION_ITEM('')
);
#64=(
BOUNDED_CURVE()
B_SPLINE_CURVE(2,(#367,#368,#369),.UNSPECIFIED.,.F.,.F.)
B_SPLINE_CURVE_WITH_KNOTS((3,3),(0.,0.206643089362247),.UNSPECIFIED.)
CURVE()
GEOMETRIC_REPRESENTATION_ITEM()
RATIONAL_B_SPLINE_CURVE((1.,1.01001437296766,1.))
REPRESENTATION_ITEM('')
);
#65=(
BOUNDED_CURVE()
B_SPLINE_CURVE(2,(#383,#384,#385),.UNSPECIFIED.,.F.,.F.)
B_SPLINE_CURVE_WITH_KNOTS((3,3),(0.,0.206643089362247),.UNSPECIFIED.)
CURVE()
GEOMETRIC_REPRESENTATION_ITEM()
RATIONAL_B_SPLINE_CURVE((1.,1.01001437296766,1.))
REPRESENTATION_ITEM('')
);
#66=(
BOUNDED_CURVE()
B_SPLINE_CURVE(2,(#389,#390,#391),.UNSPECIFIED.,.F.,.F.)
B_SPLINE_CURVE_WITH_KNOTS((3,3),(0.,0.206643089362247),.UNSPECIFIED.)
CURVE()
GEOMETRIC_REPRESENTATION_ITEM()
RATIONAL_B_SPLINE_CURVE((1.,1.01001437296766,1.))
REPRESENTATION_ITEM('')
);
#67=LINE('',#353,#82);
#68=LINE('',#355,#83);
#69=LINE('',#357,#84);
#70=LINE('',#359,#85);
#71=LINE('',#365,#86);
#72=LINE('',#370,#87);
#73=LINE('',#375,#88);
#74=LINE('',#379,#89);
#75=LINE('',#381,#90);
#76=LINE('',#387,#91);
#77=LINE('',#393,#92);
#78=LINE('',#394,#93);
#79=LINE('',#402,#94);
#80=LINE('',#414,#95);
#81=LINE('',#418,#96);
#82=VECTOR('',#282,10.);
#83=VECTOR('',#283,10.);
#84=VECTOR('',#284,10.);
#85=VECTOR('',#285,10.);
#86=VECTOR('',#286,10.);
#87=VECTOR('',#287,10.);
#88=VECTOR('',#292,10.);
#89=VECTOR('',#297,10.);
#90=VECTOR('',#298,10.);
#91=VECTOR('',#299,10.);
#92=VECTOR('',#300,10.);
#93=VECTOR('',#301,10.);
#94=VECTOR('',#312,2.);
#95=VECTOR('',#331,4.);
#96=VECTOR('',#336,3.7);
#97=VERTEX_POINT('',#351);
#98=VERTEX_POINT('',#352);
#99=VERTEX_POINT('',#354);
#100=VERTEX_POINT('',#356);
#101=VERTEX_POINT('',#358);
#102=VERTEX_POINT('',#360);
#103=VERTEX_POINT('',#364);
#104=VERTEX_POINT('',#366);
#105=VERTEX_POINT('',#372);
#106=VERTEX_POINT('',#374);
#107=VERTEX_POINT('',#378);
#108=VERTEX_POINT('',#380);
#109=VERTEX_POINT('',#382);
#110=VERTEX_POINT('',#386);
#111=VERTEX_POINT('',#388);
#112=VERTEX_POINT('',#392);
#113=VERTEX_POINT('',#399);
#114=VERTEX_POINT('',#401);
#115=VERTEX_POINT('',#409);
#116=VERTEX_POINT('',#412);
#117=VERTEX_POINT('',#416);
#118=EDGE_CURVE('',#97,#98,#67,.T.);
#119=EDGE_CURVE('',#97,#99,#68,.T.);
#120=EDGE_CURVE('',#100,#99,#69,.T.);
#121=EDGE_CURVE('',#101,#100,#70,.T.);
#122=EDGE_CURVE('',#102,#101,#63,.T.);
#123=EDGE_CURVE('',#103,#102,#71,.T.);
#124=EDGE_CURVE('',#104,#103,#64,.T.);
#125=EDGE_CURVE('',#98,#104,#72,.T.);
#126=EDGE_CURVE('',#105,#97,#21,.T.);
#127=EDGE_CURVE('',#105,#106,#73,.T.);
#128=EDGE_CURVE('',#99,#106,#22,.T.);
#129=EDGE_CURVE('',#107,#105,#74,.T.);
#130=EDGE_CURVE('',#108,#107,#75,.T.);
#131=EDGE_CURVE('',#109,#108,#65,.T.);
#132=EDGE_CURVE('',#110,#109,#76,.T.);
#133=EDGE_CURVE('',#111,#110,#66,.T.);
#134=EDGE_CURVE('',#112,#111,#77,.T.);
#135=EDGE_CURVE('',#106,#112,#78,.T.);
#136=EDGE_CURVE('',#102,#103,#23,.T.);
#137=EDGE_CURVE('',#100,#98,#24,.T.);
#138=EDGE_CURVE('',#113,#112,#25,.T.);
#139=EDGE_CURVE('',#113,#114,#79,.T.);
#140=EDGE_CURVE('',#114,#114,#26,.T.);
#141=EDGE_CURVE('',#107,#113,#27,.T.);
#142=EDGE_CURVE('',#101,#104,#28,.T.);
#143=EDGE_CURVE('',#115,#115,#29,.T.);
#144=EDGE_CURVE('',#116,#116,#30,.T.);
#145=EDGE_CURVE('',#116,#115,#80,.T.);
#146=EDGE_CURVE('',#117,#117,#31,.T.);
#147=EDGE_CURVE('',#117,#116,#81,.T.);
#148=EDGE_CURVE('',#108,#111,#32,.T.);
#149=EDGE_CURVE('',#109,#110,#33,.T.);
#150=ORIENTED_EDGE('',*,*,#118,.F.);
#151=ORIENTED_EDGE('',*,*,#119,.T.);
#152=ORIENTED_EDGE('',*,*,#120,.F.);
#153=ORIENTED_EDGE('',*,*,#121,.F.);
#154=ORIENTED_EDGE('',*,*,#122,.F.);
#155=ORIENTED_EDGE('',*,*,#123,.F.);
#156=ORIENTED_EDGE('',*,*,#124,.F.);
#157=ORIENTED_EDGE('',*,*,#125,.F.);
#158=ORIENTED_EDGE('',*,*,#126,.F.);
#159=ORIENTED_EDGE('',*,*,#127,.T.);
#160=ORIENTED_EDGE('',*,*,#128,.F.);
#161=ORIENTED_EDGE('',*,*,#119,.F.);
#162=ORIENTED_EDGE('',*,*,#129,.F.);
#163=ORIENTED_EDGE('',*,*,#130,.F.);
#164=ORIENTED_EDGE('',*,*,#131,.F.);
#165=ORIENTED_EDGE('',*,*,#132,.F.);
#166=ORIENTED_EDGE('',*,*,#133,.F.);
#167=ORIENTED_EDGE('',*,*,#134,.F.);
#168=ORIENTED_EDGE('',*,*,#135,.F.);
#169=ORIENTED_EDGE('',*,*,#127,.F.);
#170=ORIENTED_EDGE('',*,*,#123,.T.);
#171=ORIENTED_EDGE('',*,*,#136,.T.);
#172=ORIENTED_EDGE('',*,*,#129,.T.);
#173=ORIENTED_EDGE('',*,*,#126,.T.);
#174=ORIENTED_EDGE('',*,*,#118,.T.);
#175=ORIENTED_EDGE('',*,*,#137,.F.);
#176=ORIENTED_EDGE('',*,*,#120,.T.);
#177=ORIENTED_EDGE('',*,*,#128,.T.);
#178=ORIENTED_EDGE('',*,*,#135,.T.);
#179=ORIENTED_EDGE('',*,*,#138,.F.);
#180=ORIENTED_EDGE('',*,*,#139,.T.);
#181=ORIENTED_EDGE('',*,*,#140,.T.);
#182=ORIENTED_EDGE('',*,*,#139,.F.);
#183=ORIENTED_EDGE('',*,*,#141,.F.);
#184=ORIENTED_EDGE('',*,*,#124,.T.);
#185=ORIENTED_EDGE('',*,*,#136,.F.);
#186=ORIENTED_EDGE('',*,*,#122,.T.);
#187=ORIENTED_EDGE('',*,*,#142,.T.);
#188=ORIENTED_EDGE('',*,*,#125,.T.);
#189=ORIENTED_EDGE('',*,*,#142,.F.);
#190=ORIENTED_EDGE('',*,*,#121,.T.);
#191=ORIENTED_EDGE('',*,*,#137,.T.);
#192=ORIENTED_EDGE('',*,*,#143,.F.);
#193=ORIENTED_EDGE('',*,*,#144,.F.);
#194=ORIENTED_EDGE('',*,*,#145,.T.);
#195=ORIENTED_EDGE('',*,*,#143,.T.);
#196=ORIENTED_EDGE('',*,*,#145,.F.);
#197=ORIENTED_EDGE('',*,*,#146,.F.);
#198=ORIENTED_EDGE('',*,*,#147,.T.);
#199=ORIENTED_EDGE('',*,*,#144,.T.);
#200=ORIENTED_EDGE('',*,*,#147,.F.);
#201=ORIENTED_EDGE('',*,*,#146,.T.);
#202=ORIENTED_EDGE('',*,*,#140,.F.);
#203=ORIENTED_EDGE('',*,*,#130,.T.);
#204=ORIENTED_EDGE('',*,*,#141,.T.);
#205=ORIENTED_EDGE('',*,*,#138,.T.);
#206=ORIENTED_EDGE('',*,*,#134,.T.);
#207=ORIENTED_EDGE('',*,*,#148,.F.);
#208=ORIENTED_EDGE('',*,*,#131,.T.);
#209=ORIENTED_EDGE('',*,*,#148,.T.);
#210=ORIENTED_EDGE('',*,*,#133,.T.);
#211=ORIENTED_EDGE('',*,*,#149,.F.);
#212=ORIENTED_EDGE('',*,*,#132,.T.);
#213=ORIENTED_EDGE('',*,*,#149,.T.);
#214=PLANE('',#251);
#215=PLANE('',#252);
#216=PLANE('',#255);
#217=PLANE('',#256);
#218=PLANE('',#265);
#219=PLANE('',#266);
#220=PLANE('',#272);
#221=PLANE('',#273);
#222=PLANE('',#277);
#223=ADVANCED_FACE('',(#34),#214,.F.);
#224=ADVANCED_FACE('',(#35),#215,.F.);
#225=ADVANCED_FACE('',(#36),#216,.F.);
#226=ADVANCED_FACE('',(#37),#217,.T.);
#227=ADVANCED_FACE('',(#38),#19,.T.);
#228=ADVANCED_FACE('',(#39),#16,.T.);
#229=ADVANCED_FACE('',(#40),#218,.T.);
#230=ADVANCED_FACE('',(#41),#219,.T.);
#231=ADVANCED_FACE('',(#42),#20,.T.);
#232=ADVANCED_FACE('',(#43),#17,.T.);
#233=ADVANCED_FACE('',(#44,#15),#220,.T.);
#234=ADVANCED_FACE('',(#45),#221,.T.);
#235=ADVANCED_FACE('',(#46),#18,.T.);
#236=ADVANCED_FACE('',(#47),#222,.T.);
#237=CLOSED_SHELL('',(#223,#224,#225,#226,#227,#228,#229,#230,#231,#232,
#233,#234,#235,#236));
#238=DERIVED_UNIT_ELEMENT(#240,1.);
#239=DERIVED_UNIT_ELEMENT(#430,-3.);
#240=(
MASS_UNIT()
NAMED_UNIT(*)
SI_UNIT(.KILO.,.GRAM.)
);
#241=DERIVED_UNIT((#238,#239));
#242=MEASURE_REPRESENTATION_ITEM('density measure',
POSITIVE_RATIO_MEASURE(7850.),#241);
#243=PROPERTY_DEFINITION_REPRESENTATION(#248,#245);
#244=PROPERTY_DEFINITION_REPRESENTATION(#249,#246);
#245=REPRESENTATION('material name',(#247),#427);
#246=REPRESENTATION('density',(#242),#427);
#247=DESCRIPTIVE_REPRESENTATION_ITEM('Steel','Steel');
#248=PROPERTY_DEFINITION('material property','material name',#437);
#249=PROPERTY_DEFINITION('material property','density of part',#437);
#250=AXIS2_PLACEMENT_3D('',#349,#278,#279);
#251=AXIS2_PLACEMENT_3D('',#350,#280,#281);
#252=AXIS2_PLACEMENT_3D('',#371,#288,#289);
#253=AXIS2_PLACEMENT_3D('',#373,#290,#291);
#254=AXIS2_PLACEMENT_3D('',#376,#293,#294);
#255=AXIS2_PLACEMENT_3D('',#377,#295,#296);
#256=AXIS2_PLACEMENT_3D('',#395,#302,#303);
#257=AXIS2_PLACEMENT_3D('',#396,#304,#305);
#258=AXIS2_PLACEMENT_3D('',#397,#306,#307);
#259=AXIS2_PLACEMENT_3D('',#398,#308,#309);
#260=AXIS2_PLACEMENT_3D('',#400,#310,#311);
#261=AXIS2_PLACEMENT_3D('',#403,#313,#314);
#262=AXIS2_PLACEMENT_3D('',#404,#315,#316);
#263=AXIS2_PLACEMENT_3D('',#405,#317,#318);
#264=AXIS2_PLACEMENT_3D('',#406,#319,#320);
#265=AXIS2_PLACEMENT_3D('',#407,#321,#322);
#266=AXIS2_PLACEMENT_3D('',#408,#323,#324);
#267=AXIS2_PLACEMENT_3D('',#410,#325,#326);
#268=AXIS2_PLACEMENT_3D('',#411,#327,#328);
#269=AXIS2_PLACEMENT_3D('',#413,#329,#330);
#270=AXIS2_PLACEMENT_3D('',#415,#332,#333);
#271=AXIS2_PLACEMENT_3D('',#417,#334,#335);
#272=AXIS2_PLACEMENT_3D('',#419,#337,#338);
#273=AXIS2_PLACEMENT_3D('',#420,#339,#340);
#274=AXIS2_PLACEMENT_3D('',#421,#341,#342);
#275=AXIS2_PLACEMENT_3D('',#422,#343,#344);
#276=AXIS2_PLACEMENT_3D('',#423,#345,#346);
#277=AXIS2_PLACEMENT_3D('',#424,#347,#348);
#278=DIRECTION('axis',(0.,0.,1.));
#279=DIRECTION('refdir',(1.,0.,0.));
#280=DIRECTION('center_axis',(1.,0.,0.));
#281=DIRECTION('ref_axis',(0.,0.,1.));
#282=DIRECTION('',(0.,0.,1.));
#283=DIRECTION('',(0.,-1.,0.));
#284=DIRECTION('',(0.,0.,-1.));
#285=DIRECTION('',(0.,1.,0.));
#286=DIRECTION('',(0.,-1.,0.));
#287=DIRECTION('',(0.,1.,0.));
#288=DIRECTION('center_axis',(0.,0.,-1.));
#289=DIRECTION('ref_axis',(1.,0.,0.));
#290=DIRECTION('center_axis',(0.,0.,-1.));
#291=DIRECTION('ref_axis',(1.,0.,0.));
#292=DIRECTION('',(0.,-1.,0.));
#293=DIRECTION('center_axis',(0.,0.,-1.));
#294=DIRECTION('ref_axis',(1.,0.,0.));
#295=DIRECTION('center_axis',(-1.,0.,0.));
#296=DIRECTION('ref_axis',(0.,0.,-1.));
#297=DIRECTION('',(0.,0.,-1.));
#298=DIRECTION('',(0.,-1.,0.));
#299=DIRECTION('',(0.,1.,0.));
#300=DIRECTION('',(0.,-1.,0.));
#301=DIRECTION('',(0.,0.,1.));
#302=DIRECTION('center_axis',(0.,0.,1.));
#303=DIRECTION('ref_axis',(1.,0.,0.));
#304=DIRECTION('center_axis',(0.,0.,1.));
#305=DIRECTION('ref_axis',(1.,0.,0.));
#306=DIRECTION('center_axis',(0.,0.,1.));
#307=DIRECTION('ref_axis',(1.,0.,0.));
#308=DIRECTION('center_axis',(0.,0.,1.));
#309=DIRECTION('ref_axis',(1.,0.,0.));
#310=DIRECTION('center_axis',(0.,0.,1.));
#311=DIRECTION('ref_axis',(1.,0.,0.));
#312=DIRECTION('',(0.,0.,-1.));
#313=DIRECTION('center_axis',(0.,0.,1.));
#314=DIRECTION('ref_axis',(1.,0.,0.));
#315=DIRECTION('center_axis',(0.,0.,1.));
#316=DIRECTION('ref_axis',(1.,0.,0.));
#317=DIRECTION('center_axis',(0.,0.,-1.));
#318=DIRECTION('ref_axis',(1.,0.,0.));
#319=DIRECTION('center_axis',(0.,0.,1.));
#320=DIRECTION('ref_axis',(1.,0.,0.));
#321=DIRECTION('center_axis',(0.,0.,-1.));
#322=DIRECTION('ref_axis',(-1.,0.,0.));
#323=DIRECTION('center_axis',(0.,0.,-1.));
#324=DIRECTION('ref_axis',(-1.,0.,0.));
#325=DIRECTION('center_axis',(0.,0.,1.));
#326=DIRECTION('ref_axis',(1.,0.,0.));
#327=DIRECTION('center_axis',(0.,0.,1.));
#328=DIRECTION('ref_axis',(1.,0.,0.));
#329=DIRECTION('center_axis',(0.,0.,1.));
#330=DIRECTION('ref_axis',(1.,0.,0.));
#331=DIRECTION('',(0.,0.,-1.));
#332=DIRECTION('center_axis',(0.,0.,-1.));
#333=DIRECTION('ref_axis',(1.,0.,0.));
#334=DIRECTION('center_axis',(0.,0.,1.));
#335=DIRECTION('ref_axis',(1.,0.,0.));
#336=DIRECTION('',(-0.707106781186548,-8.65956056235493E-17,-0.707106781186547));
#337=DIRECTION('center_axis',(0.,0.,1.));
#338=DIRECTION('ref_axis',(1.,0.,0.));
#339=DIRECTION('center_axis',(0.,0.,-1.));
#340=DIRECTION('ref_axis',(-1.,0.,0.));
#341=DIRECTION('center_axis',(0.,0.,1.));
#342=DIRECTION('ref_axis',(1.,0.,0.));
#343=DIRECTION('center_axis',(0.,0.,-1.));
#344=DIRECTION('ref_axis',(-1.,1.22464679914735E-16,0.));
#345=DIRECTION('center_axis',(0.,0.,1.));
#346=DIRECTION('ref_axis',(1.,0.,0.));
#347=DIRECTION('center_axis',(0.,0.,1.));
#348=DIRECTION('ref_axis',(1.,0.,0.));
#349=CARTESIAN_POINT('',(0.,0.,0.));
#350=CARTESIAN_POINT('Origin',(0.5,3.,4.));
#351=CARTESIAN_POINT('',(0.5,1.93649167310371,4.));
#352=CARTESIAN_POINT('',(0.5,1.93649167310371,12.));
#353=CARTESIAN_POINT('',(0.5,1.93649167310371,7.));
#354=CARTESIAN_POINT('',(0.5,-1.93649167310371,4.));
#355=CARTESIAN_POINT('',(0.5,3.,4.));
#356=CARTESIAN_POINT('',(0.5,-1.93649167310371,12.));
#357=CARTESIAN_POINT('',(0.5,-1.93649167310371,7.));
#358=CARTESIAN_POINT('',(0.5,-2.03960780543711,12.));
#359=CARTESIAN_POINT('',(0.5,1.5,12.));
#360=CARTESIAN_POINT('',(0.5,-1.51986841535707,14.));
#361=CARTESIAN_POINT('Ctrl Pts',(0.5,-1.51986841535707,14.));
#362=CARTESIAN_POINT('Ctrl Pts',(0.5,-1.7446205840413,13.1460156938345));
#363=CARTESIAN_POINT('Ctrl Pts',(0.5,-2.03960780543711,12.));
#364=CARTESIAN_POINT('',(0.5,1.51986841535707,14.));
#365=CARTESIAN_POINT('',(0.5,1.5,14.));
#366=CARTESIAN_POINT('',(0.5,2.03960780543711,12.));
#367=CARTESIAN_POINT('Ctrl Pts',(0.5,2.03960780543711,12.));
#368=CARTESIAN_POINT('Ctrl Pts',(0.5,1.7446205840413,13.1460156938345));
#369=CARTESIAN_POINT('Ctrl Pts',(0.5,1.51986841535707,14.));
#370=CARTESIAN_POINT('',(0.5,1.5,12.));
#371=CARTESIAN_POINT('Origin',(-0.5,3.,4.));
#372=CARTESIAN_POINT('',(-0.5,1.93649167310371,4.));
#373=CARTESIAN_POINT('Origin',(0.,0.,4.));
#374=CARTESIAN_POINT('',(-0.5,-1.93649167310371,4.));
#375=CARTESIAN_POINT('',(-0.5,3.,4.));
#376=CARTESIAN_POINT('Origin',(0.,0.,4.));
#377=CARTESIAN_POINT('Origin',(-0.5,3.,14.1));
#378=CARTESIAN_POINT('',(-0.5,1.93649167310371,12.));
#379=CARTESIAN_POINT('',(-0.5,1.93649167310371,7.));
#380=CARTESIAN_POINT('',(-0.5,2.03960780543711,12.));
#381=CARTESIAN_POINT('',(-0.5,1.5,12.));
#382=CARTESIAN_POINT('',(-0.5,1.51986841535707,14.));
#383=CARTESIAN_POINT('Ctrl Pts',(-0.5,1.51986841535707,14.));
#384=CARTESIAN_POINT('Ctrl Pts',(-0.5,1.7446205840413,13.1460156938345));
#385=CARTESIAN_POINT('Ctrl Pts',(-0.5,2.03960780543711,12.));
#386=CARTESIAN_POINT('',(-0.5,-1.51986841535707,14.));
#387=CARTESIAN_POINT('',(-0.5,1.5,14.));
#388=CARTESIAN_POINT('',(-0.5,-2.03960780543711,12.));
#389=CARTESIAN_POINT('Ctrl Pts',(-0.5,-2.03960780543711,12.));
#390=CARTESIAN_POINT('Ctrl Pts',(-0.5,-1.7446205840413,13.1460156938345));
#391=CARTESIAN_POINT('Ctrl Pts',(-0.5,-1.51986841535707,14.));
#392=CARTESIAN_POINT('',(-0.5,-1.93649167310371,12.));
#393=CARTESIAN_POINT('',(-0.5,1.5,12.));
#394=CARTESIAN_POINT('',(-0.5,-1.93649167310371,7.));
#395=CARTESIAN_POINT('Origin',(0.,0.,14.));
#396=CARTESIAN_POINT('Origin',(0.,0.,14.));
#397=CARTESIAN_POINT('Origin',(0.,0.,7.));
#398=CARTESIAN_POINT('Origin',(0.,0.,12.));
#399=CARTESIAN_POINT('',(-2.,-2.44929359829471E-16,12.));
#400=CARTESIAN_POINT('Origin',(0.,0.,12.));
#401=CARTESIAN_POINT('',(-2.,-2.44929359829471E-16,2.));
#402=CARTESIAN_POINT('',(-2.,-2.44929359829471E-16,7.));
#403=CARTESIAN_POINT('Origin',(0.,0.,2.));
#404=CARTESIAN_POINT('Origin',(0.,0.,12.));
#405=CARTESIAN_POINT('Origin',(0.,0.,13.));
#406=CARTESIAN_POINT('Origin',(0.,0.,12.));
#407=CARTESIAN_POINT('Origin',(2.1,0.,12.));
#408=CARTESIAN_POINT('Origin',(4.,0.,0.));
#409=CARTESIAN_POINT('',(-4.,-4.89858719658941E-16,0.));
#410=CARTESIAN_POINT('Origin',(0.,0.,0.));
#411=CARTESIAN_POINT('Origin',(0.,0.,0.700000000000001));
#412=CARTESIAN_POINT('',(-4.,-4.89858719658941E-16,1.4));
#413=CARTESIAN_POINT('Origin',(0.,0.,1.4));
#414=CARTESIAN_POINT('',(-4.,-4.89858719658941E-16,0.700000000000001));
#415=CARTESIAN_POINT('Origin',(0.,0.,1.7));
#416=CARTESIAN_POINT('',(-3.4,-4.163799117101E-16,2.));
#417=CARTESIAN_POINT('Origin',(0.,0.,2.));
#418=CARTESIAN_POINT('',(-3.7,-4.53119315684521E-16,1.7));
#419=CARTESIAN_POINT('Origin',(2.,0.,2.));
#420=CARTESIAN_POINT('Origin',(2.1,0.,12.));
#421=CARTESIAN_POINT('Origin',(0.,0.,12.));
#422=CARTESIAN_POINT('Origin',(0.,0.,13.));
#423=CARTESIAN_POINT('Origin',(0.,0.,14.));
#424=CARTESIAN_POINT('Origin',(0.,0.,14.));
#425=UNCERTAINTY_MEASURE_WITH_UNIT(LENGTH_MEASURE(0.01),#429,
'DISTANCE_ACCURACY_VALUE',
'Maximum model space distance between geometric entities at asserted c
onnectivities');
#426=UNCERTAINTY_MEASURE_WITH_UNIT(LENGTH_MEASURE(0.01),#429,
'DISTANCE_ACCURACY_VALUE',
'Maximum model space distance between geometric entities at asserted c
onnectivities');
#427=(
GEOMETRIC_REPRESENTATION_CONTEXT(3)
GLOBAL_UNCERTAINTY_ASSIGNED_CONTEXT((#425))
GLOBAL_UNIT_ASSIGNED_CONTEXT((#429,#431,#432))
REPRESENTATION_CONTEXT('','3D')
);
#428=(
GEOMETRIC_REPRESENTATION_CONTEXT(3)
GLOBAL_UNCERTAINTY_ASSIGNED_CONTEXT((#426))
GLOBAL_UNIT_ASSIGNED_CONTEXT((#429,#431,#432))
REPRESENTATION_CONTEXT('','3D')
);
#429=(
LENGTH_UNIT()
NAMED_UNIT(*)
SI_UNIT(.MILLI.,.METRE.)
);
#430=(
LENGTH_UNIT()
NAMED_UNIT(*)
SI_UNIT($,.METRE.)
);
#431=(
NAMED_UNIT(*)
PLANE_ANGLE_UNIT()
SI_UNIT($,.RADIAN.)
);
#432=(
NAMED_UNIT(*)
SI_UNIT($,.STERADIAN.)
SOLID_ANGLE_UNIT()
);
#433=SHAPE_DEFINITION_REPRESENTATION(#434,#435);
#434=PRODUCT_DEFINITION_SHAPE('',$,#437);
#435=SHAPE_REPRESENTATION('',(#250),#427);
#436=PRODUCT_DEFINITION_CONTEXT('part definition',#441,'design');
#437=PRODUCT_DEFINITION('5560-F-PIN-R','pin | reusable',#438,#436);
#438=PRODUCT_DEFINITION_FORMATION('',$,#443);
#439=PRODUCT_RELATED_PRODUCT_CATEGORY('pin | reusable','pin | reusable',
(#443));
#440=APPLICATION_PROTOCOL_DEFINITION('international standard',
'automotive_design',2009,#441);
#441=APPLICATION_CONTEXT(
'Core Data for Automotive Mechanical Design Process');
#442=PRODUCT_CONTEXT('part definition',#441,'mechanical');
#443=PRODUCT('5560-F-PIN-R','pin | reusable',
'Native Revision F | dimensions in mm | see fusion/README.md',(#442));
#444=PRESENTATION_STYLE_ASSIGNMENT((#445));
#445=SURFACE_STYLE_USAGE(.BOTH.,#446);
#446=SURFACE_SIDE_STYLE('',(#447));
#447=SURFACE_STYLE_FILL_AREA(#448);
#448=FILL_AREA_STYLE('Steel - Satin',(#449));
#449=FILL_AREA_STYLE_COLOUR('Steel - Satin',#450);
#450=COLOUR_RGB('Steel - Satin',0.627450980392157,0.627450980392157,0.627450980392157);
ENDSEC;
END-ISO-10303-21;
