ISO-10303-21;
HEADER;
/* Generated by software containing ST-Developer
 * from STEP Tools, Inc. (www.steptools.com) 
 */

FILE_DESCRIPTION(
/* description */ (
'Native Revision F | dimensions in mm | see fusion/README.md'),
/* implementation_level */ '2;1');

FILE_NAME(
/* name */ 'rail_LH.step',
/* time_stamp */ '2026-09-07T16:43:51-04:00',
/* author */ (''),
/* organization */ (''),
/* preprocessor_version */ 'ST-DEVELOPER v20.1',
/* originating_system */ 'Autodesk Translation Framework v15.8.0.0',
/* authorisation */ '');

FILE_SCHEMA (('AUTOMOTIVE_DESIGN { 1 0 10303 214 3 1 1 }'));
ENDSEC;

DATA;
#10=MECHANICAL_DESIGN_GEOMETRIC_PRESENTATION_REPRESENTATION('',(#13),#1431);
#11=SHAPE_REPRESENTATION_RELATIONSHIP('SRR','None',#1438,#12);
#12=ADVANCED_BREP_SHAPE_REPRESENTATION('',(#14),#1430);
#13=STYLED_ITEM('',(#1447),#14);
#14=MANIFOLD_SOLID_BREP('rail | finished print',#897);
#15=ELLIPSE('',#919,14.1421356237309,10.);
#16=CYLINDRICAL_SURFACE('',#917,10.);
#17=FACE_BOUND('',#70,.T.);
#18=FACE_BOUND('',#89,.T.);
#19=FACE_BOUND('',#96,.T.);
#20=FACE_BOUND('',#107,.T.);
#21=CIRCLE('',#913,10.);
#22=CIRCLE('',#914,10.);
#23=CIRCLE('',#918,10.);
#24=FACE_OUTER_BOUND('',#68,.T.);
#25=FACE_OUTER_BOUND('',#69,.T.);
#26=FACE_OUTER_BOUND('',#71,.T.);
#27=FACE_OUTER_BOUND('',#72,.T.);
#28=FACE_OUTER_BOUND('',#73,.T.);
#29=FACE_OUTER_BOUND('',#74,.T.);
#30=FACE_OUTER_BOUND('',#75,.T.);
#31=FACE_OUTER_BOUND('',#76,.T.);
#32=FACE_OUTER_BOUND('',#77,.T.);
#33=FACE_OUTER_BOUND('',#78,.T.);
#34=FACE_OUTER_BOUND('',#79,.T.);
#35=FACE_OUTER_BOUND('',#80,.T.);
#36=FACE_OUTER_BOUND('',#81,.T.);
#37=FACE_OUTER_BOUND('',#82,.T.);
#38=FACE_OUTER_BOUND('',#83,.T.);
#39=FACE_OUTER_BOUND('',#84,.T.);
#40=FACE_OUTER_BOUND('',#85,.T.);
#41=FACE_OUTER_BOUND('',#86,.T.);
#42=FACE_OUTER_BOUND('',#87,.T.);
#43=FACE_OUTER_BOUND('',#88,.T.);
#44=FACE_OUTER_BOUND('',#90,.T.);
#45=FACE_OUTER_BOUND('',#91,.T.);
#46=FACE_OUTER_BOUND('',#92,.T.);
#47=FACE_OUTER_BOUND('',#93,.T.);
#48=FACE_OUTER_BOUND('',#94,.T.);
#49=FACE_OUTER_BOUND('',#95,.T.);
#50=FACE_OUTER_BOUND('',#97,.T.);
#51=FACE_OUTER_BOUND('',#98,.T.);
#52=FACE_OUTER_BOUND('',#99,.T.);
#53=FACE_OUTER_BOUND('',#100,.T.);
#54=FACE_OUTER_BOUND('',#101,.T.);
#55=FACE_OUTER_BOUND('',#102,.T.);
#56=FACE_OUTER_BOUND('',#103,.T.);
#57=FACE_OUTER_BOUND('',#104,.T.);
#58=FACE_OUTER_BOUND('',#105,.T.);
#59=FACE_OUTER_BOUND('',#106,.T.);
#60=FACE_OUTER_BOUND('',#108,.T.);
#61=FACE_OUTER_BOUND('',#109,.T.);
#62=FACE_OUTER_BOUND('',#110,.T.);
#63=FACE_OUTER_BOUND('',#111,.T.);
#64=FACE_OUTER_BOUND('',#112,.T.);
#65=FACE_OUTER_BOUND('',#113,.T.);
#66=FACE_OUTER_BOUND('',#114,.T.);
#67=FACE_OUTER_BOUND('',#115,.T.);
#68=EDGE_LOOP('',(#562,#563,#564,#565));
#69=EDGE_LOOP('',(#566,#567,#568,#569,#570,#571,#572));
#70=EDGE_LOOP('',(#573,#574,#575,#576,#577,#578,#579,#580,#581,#582,#583,
#584,#585,#586));
#71=EDGE_LOOP('',(#587,#588,#589,#590,#591,#592,#593,#594));
#72=EDGE_LOOP('',(#595,#596,#597,#598,#599));
#73=EDGE_LOOP('',(#600,#601,#602,#603,#604,#605));
#74=EDGE_LOOP('',(#606,#607,#608,#609));
#75=EDGE_LOOP('',(#610,#611,#612,#613));
#76=EDGE_LOOP('',(#614,#615,#616,#617,#618,#619));
#77=EDGE_LOOP('',(#620,#621,#622,#623,#624));
#78=EDGE_LOOP('',(#625,#626,#627,#628));
#79=EDGE_LOOP('',(#629,#630,#631,#632,#633,#634));
#80=EDGE_LOOP('',(#635,#636,#637,#638));
#81=EDGE_LOOP('',(#639,#640,#641,#642));
#82=EDGE_LOOP('',(#643,#644,#645,#646));
#83=EDGE_LOOP('',(#647,#648,#649,#650));
#84=EDGE_LOOP('',(#651,#652,#653,#654));
#85=EDGE_LOOP('',(#655,#656,#657,#658));
#86=EDGE_LOOP('',(#659,#660,#661,#662,#663));
#87=EDGE_LOOP('',(#664,#665,#666,#667,#668,#669));
#88=EDGE_LOOP('',(#670,#671,#672,#673,#674,#675,#676,#677,#678,#679,#680));
#89=EDGE_LOOP('',(#681,#682,#683,#684));
#90=EDGE_LOOP('',(#685,#686,#687,#688,#689,#690));
#91=EDGE_LOOP('',(#691,#692,#693,#694));
#92=EDGE_LOOP('',(#695,#696,#697,#698));
#93=EDGE_LOOP('',(#699,#700,#701,#702));
#94=EDGE_LOOP('',(#703,#704,#705,#706));
#95=EDGE_LOOP('',(#707,#708,#709,#710,#711,#712,#713,#714,#715,#716));
#96=EDGE_LOOP('',(#717,#718,#719,#720));
#97=EDGE_LOOP('',(#721,#722,#723,#724));
#98=EDGE_LOOP('',(#725,#726,#727,#728));
#99=EDGE_LOOP('',(#729,#730,#731,#732));
#100=EDGE_LOOP('',(#733,#734,#735,#736,#737,#738));
#101=EDGE_LOOP('',(#739,#740,#741,#742));
#102=EDGE_LOOP('',(#743,#744,#745,#746));
#103=EDGE_LOOP('',(#747,#748,#749,#750,#751,#752));
#104=EDGE_LOOP('',(#753,#754,#755,#756));
#105=EDGE_LOOP('',(#757,#758,#759,#760));
#106=EDGE_LOOP('',(#761,#762,#763,#764));
#107=EDGE_LOOP('',(#765,#766,#767,#768));
#108=EDGE_LOOP('',(#769,#770,#771,#772,#773,#774));
#109=EDGE_LOOP('',(#775,#776,#777,#778));
#110=EDGE_LOOP('',(#779,#780,#781,#782));
#111=EDGE_LOOP('',(#783,#784,#785,#786,#787,#788));
#112=EDGE_LOOP('',(#789,#790,#791,#792));
#113=EDGE_LOOP('',(#793,#794,#795,#796));
#114=EDGE_LOOP('',(#797,#798,#799,#800));
#115=EDGE_LOOP('',(#801,#802,#803,#804,#805,#806,#807,#808,#809));
#116=LINE('',#1181,#236);
#117=LINE('',#1183,#237);
#118=LINE('',#1185,#238);
#119=LINE('',#1186,#239);
#120=LINE('',#1190,#240);
#121=LINE('',#1192,#241);
#122=LINE('',#1194,#242);
#123=LINE('',#1196,#243);
#124=LINE('',#1197,#244);
#125=LINE('',#1198,#245);
#126=LINE('',#1201,#246);
#127=LINE('',#1203,#247);
#128=LINE('',#1205,#248);
#129=LINE('',#1207,#249);
#130=LINE('',#1209,#250);
#131=LINE('',#1213,#251);
#132=LINE('',#1215,#252);
#133=LINE('',#1217,#253);
#134=LINE('',#1219,#254);
#135=LINE('',#1220,#255);
#136=LINE('',#1224,#256);
#137=LINE('',#1225,#257);
#138=LINE('',#1228,#258);
#139=LINE('',#1230,#259);
#140=LINE('',#1232,#260);
#141=LINE('',#1234,#261);
#142=LINE('',#1236,#262);
#143=LINE('',#1238,#263);
#144=LINE('',#1239,#264);
#145=LINE('',#1242,#265);
#146=LINE('',#1244,#266);
#147=LINE('',#1245,#267);
#148=LINE('',#1250,#268);
#149=LINE('',#1253,#269);
#150=LINE('',#1256,#270);
#151=LINE('',#1257,#271);
#152=LINE('',#1260,#272);
#153=LINE('',#1261,#273);
#154=LINE('',#1263,#274);
#155=LINE('',#1265,#275);
#156=LINE('',#1266,#276);
#157=LINE('',#1269,#277);
#158=LINE('',#1271,#278);
#159=LINE('',#1272,#279);
#160=LINE('',#1275,#280);
#161=LINE('',#1276,#281);
#162=LINE('',#1279,#282);
#163=LINE('',#1280,#283);
#164=LINE('',#1282,#284);
#165=LINE('',#1286,#285);
#166=LINE('',#1288,#286);
#167=LINE('',#1289,#287);
#168=LINE('',#1292,#288);
#169=LINE('',#1293,#289);
#170=LINE('',#1296,#290);
#171=LINE('',#1297,#291);
#172=LINE('',#1299,#292);
#173=LINE('',#1304,#293);
#174=LINE('',#1306,#294);
#175=LINE('',#1308,#295);
#176=LINE('',#1310,#296);
#177=LINE('',#1312,#297);
#178=LINE('',#1313,#298);
#179=LINE('',#1317,#299);
#180=LINE('',#1319,#300);
#181=LINE('',#1321,#301);
#182=LINE('',#1323,#302);
#183=LINE('',#1325,#303);
#184=LINE('',#1327,#304);
#185=LINE('',#1329,#305);
#186=LINE('',#1331,#306);
#187=LINE('',#1333,#307);
#188=LINE('',#1335,#308);
#189=LINE('',#1336,#309);
#190=LINE('',#1338,#310);
#191=LINE('',#1340,#311);
#192=LINE('',#1341,#312);
#193=LINE('',#1344,#313);
#194=LINE('',#1346,#314);
#195=LINE('',#1348,#315);
#196=LINE('',#1349,#316);
#197=LINE('',#1352,#317);
#198=LINE('',#1354,#318);
#199=LINE('',#1355,#319);
#200=LINE('',#1358,#320);
#201=LINE('',#1359,#321);
#202=LINE('',#1362,#322);
#203=LINE('',#1364,#323);
#204=LINE('',#1365,#324);
#205=LINE('',#1368,#325);
#206=LINE('',#1369,#326);
#207=LINE('',#1372,#327);
#208=LINE('',#1374,#328);
#209=LINE('',#1376,#329);
#210=LINE('',#1377,#330);
#211=LINE('',#1378,#331);
#212=LINE('',#1379,#332);
#213=LINE('',#1381,#333);
#214=LINE('',#1382,#334);
#215=LINE('',#1385,#335);
#216=LINE('',#1386,#336);
#217=LINE('',#1388,#337);
#218=LINE('',#1392,#338);
#219=LINE('',#1393,#339);
#220=LINE('',#1395,#340);
#221=LINE('',#1397,#341);
#222=LINE('',#1400,#342);
#223=LINE('',#1403,#343);
#224=LINE('',#1404,#344);
#225=LINE('',#1406,#345);
#226=LINE('',#1407,#346);
#227=LINE('',#1410,#347);
#228=LINE('',#1414,#348);
#229=LINE('',#1415,#349);
#230=LINE('',#1416,#350);
#231=LINE('',#1419,#351);
#232=LINE('',#1421,#352);
#233=LINE('',#1422,#353);
#234=LINE('',#1424,#354);
#235=LINE('',#1426,#355);
#236=VECTOR('',#963,10.);
#237=VECTOR('',#964,10.);
#238=VECTOR('',#965,10.);
#239=VECTOR('',#966,10.);
#240=VECTOR('',#969,10.);
#241=VECTOR('',#970,10.);
#242=VECTOR('',#971,10.);
#243=VECTOR('',#972,10.);
#244=VECTOR('',#973,10.);
#245=VECTOR('',#974,10.);
#246=VECTOR('',#975,10.);
#247=VECTOR('',#976,10.);
#248=VECTOR('',#977,10.);
#249=VECTOR('',#978,10.);
#250=VECTOR('',#979,10.);
#251=VECTOR('',#982,10.);
#252=VECTOR('',#983,10.);
#253=VECTOR('',#984,10.);
#254=VECTOR('',#985,10.);
#255=VECTOR('',#986,10.);
#256=VECTOR('',#989,10.);
#257=VECTOR('',#990,10.);
#258=VECTOR('',#993,10.);
#259=VECTOR('',#994,10.);
#260=VECTOR('',#995,10.);
#261=VECTOR('',#996,10.);
#262=VECTOR('',#997,10.);
#263=VECTOR('',#998,10.);
#264=VECTOR('',#999,10.);
#265=VECTOR('',#1002,10.);
#266=VECTOR('',#1003,10.);
#267=VECTOR('',#1004,10.);
#268=VECTOR('',#1009,10.);
#269=VECTOR('',#1012,10.);
#270=VECTOR('',#1015,10.);
#271=VECTOR('',#1016,10.);
#272=VECTOR('',#1019,10.);
#273=VECTOR('',#1020,10.);
#274=VECTOR('',#1023,10.);
#275=VECTOR('',#1024,10.);
#276=VECTOR('',#1025,10.);
#277=VECTOR('',#1028,10.);
#278=VECTOR('',#1029,10.);
#279=VECTOR('',#1030,10.);
#280=VECTOR('',#1033,10.);
#281=VECTOR('',#1034,10.);
#282=VECTOR('',#1037,10.);
#283=VECTOR('',#1038,10.);
#284=VECTOR('',#1041,10.);
#285=VECTOR('',#1046,10.);
#286=VECTOR('',#1047,10.);
#287=VECTOR('',#1048,10.);
#288=VECTOR('',#1051,10.);
#289=VECTOR('',#1052,10.);
#290=VECTOR('',#1055,10.);
#291=VECTOR('',#1056,10.);
#292=VECTOR('',#1059,10.);
#293=VECTOR('',#1064,10.);
#294=VECTOR('',#1065,10.);
#295=VECTOR('',#1066,10.);
#296=VECTOR('',#1067,10.);
#297=VECTOR('',#1068,10.);
#298=VECTOR('',#1069,10.);
#299=VECTOR('',#1072,10.);
#300=VECTOR('',#1073,10.);
#301=VECTOR('',#1074,10.);
#302=VECTOR('',#1075,10.);
#303=VECTOR('',#1076,10.);
#304=VECTOR('',#1077,10.);
#305=VECTOR('',#1078,10.);
#306=VECTOR('',#1079,10.);
#307=VECTOR('',#1080,10.);
#308=VECTOR('',#1081,10.);
#309=VECTOR('',#1082,10.);
#310=VECTOR('',#1083,10.);
#311=VECTOR('',#1084,10.);
#312=VECTOR('',#1085,10.);
#313=VECTOR('',#1088,10.);
#314=VECTOR('',#1089,10.);
#315=VECTOR('',#1090,10.);
#316=VECTOR('',#1091,10.);
#317=VECTOR('',#1094,10.);
#318=VECTOR('',#1095,10.);
#319=VECTOR('',#1096,10.);
#320=VECTOR('',#1099,10.);
#321=VECTOR('',#1100,10.);
#322=VECTOR('',#1103,10.);
#323=VECTOR('',#1104,10.);
#324=VECTOR('',#1105,10.);
#325=VECTOR('',#1108,10.);
#326=VECTOR('',#1109,10.);
#327=VECTOR('',#1112,10.);
#328=VECTOR('',#1113,10.);
#329=VECTOR('',#1114,10.);
#330=VECTOR('',#1115,10.);
#331=VECTOR('',#1116,10.);
#332=VECTOR('',#1117,10.);
#333=VECTOR('',#1118,10.);
#334=VECTOR('',#1119,10.);
#335=VECTOR('',#1122,10.);
#336=VECTOR('',#1123,10.);
#337=VECTOR('',#1126,10.);
#338=VECTOR('',#1133,10.);
#339=VECTOR('',#1134,10.);
#340=VECTOR('',#1137,10.);
#341=VECTOR('',#1140,10.);
#342=VECTOR('',#1145,10.);
#343=VECTOR('',#1148,10.);
#344=VECTOR('',#1149,10.);
#345=VECTOR('',#1152,10.);
#346=VECTOR('',#1153,10.);
#347=VECTOR('',#1158,10.);
#348=VECTOR('',#1161,10.);
#349=VECTOR('',#1162,10.);
#350=VECTOR('',#1163,10.);
#351=VECTOR('',#1166,10.);
#352=VECTOR('',#1167,10.);
#353=VECTOR('',#1168,10.);
#354=VECTOR('',#1171,10.);
#355=VECTOR('',#1174,10.);
#356=VERTEX_POINT('',#1179);
#357=VERTEX_POINT('',#1180);
#358=VERTEX_POINT('',#1182);
#359=VERTEX_POINT('',#1184);
#360=VERTEX_POINT('',#1188);
#361=VERTEX_POINT('',#1189);
#362=VERTEX_POINT('',#1191);
#363=VERTEX_POINT('',#1193);
#364=VERTEX_POINT('',#1195);
#365=VERTEX_POINT('',#1199);
#366=VERTEX_POINT('',#1200);
#367=VERTEX_POINT('',#1202);
#368=VERTEX_POINT('',#1204);
#369=VERTEX_POINT('',#1206);
#370=VERTEX_POINT('',#1208);
#371=VERTEX_POINT('',#1210);
#372=VERTEX_POINT('',#1212);
#373=VERTEX_POINT('',#1214);
#374=VERTEX_POINT('',#1216);
#375=VERTEX_POINT('',#1218);
#376=VERTEX_POINT('',#1221);
#377=VERTEX_POINT('',#1223);
#378=VERTEX_POINT('',#1227);
#379=VERTEX_POINT('',#1229);
#380=VERTEX_POINT('',#1231);
#381=VERTEX_POINT('',#1233);
#382=VERTEX_POINT('',#1235);
#383=VERTEX_POINT('',#1237);
#384=VERTEX_POINT('',#1241);
#385=VERTEX_POINT('',#1243);
#386=VERTEX_POINT('',#1247);
#387=VERTEX_POINT('',#1248);
#388=VERTEX_POINT('',#1251);
#389=VERTEX_POINT('',#1255);
#390=VERTEX_POINT('',#1259);
#391=VERTEX_POINT('',#1264);
#392=VERTEX_POINT('',#1268);
#393=VERTEX_POINT('',#1270);
#394=VERTEX_POINT('',#1274);
#395=VERTEX_POINT('',#1278);
#396=VERTEX_POINT('',#1285);
#397=VERTEX_POINT('',#1287);
#398=VERTEX_POINT('',#1291);
#399=VERTEX_POINT('',#1295);
#400=VERTEX_POINT('',#1302);
#401=VERTEX_POINT('',#1303);
#402=VERTEX_POINT('',#1305);
#403=VERTEX_POINT('',#1307);
#404=VERTEX_POINT('',#1309);
#405=VERTEX_POINT('',#1311);
#406=VERTEX_POINT('',#1315);
#407=VERTEX_POINT('',#1316);
#408=VERTEX_POINT('',#1318);
#409=VERTEX_POINT('',#1320);
#410=VERTEX_POINT('',#1322);
#411=VERTEX_POINT('',#1324);
#412=VERTEX_POINT('',#1326);
#413=VERTEX_POINT('',#1328);
#414=VERTEX_POINT('',#1330);
#415=VERTEX_POINT('',#1332);
#416=VERTEX_POINT('',#1334);
#417=VERTEX_POINT('',#1337);
#418=VERTEX_POINT('',#1339);
#419=VERTEX_POINT('',#1343);
#420=VERTEX_POINT('',#1345);
#421=VERTEX_POINT('',#1347);
#422=VERTEX_POINT('',#1351);
#423=VERTEX_POINT('',#1353);
#424=VERTEX_POINT('',#1357);
#425=VERTEX_POINT('',#1361);
#426=VERTEX_POINT('',#1363);
#427=VERTEX_POINT('',#1367);
#428=VERTEX_POINT('',#1371);
#429=VERTEX_POINT('',#1373);
#430=VERTEX_POINT('',#1375);
#431=VERTEX_POINT('',#1380);
#432=VERTEX_POINT('',#1384);
#433=VERTEX_POINT('',#1402);
#434=VERTEX_POINT('',#1412);
#435=VERTEX_POINT('',#1413);
#436=VERTEX_POINT('',#1418);
#437=VERTEX_POINT('',#1420);
#438=EDGE_CURVE('',#356,#357,#116,.T.);
#439=EDGE_CURVE('',#358,#357,#117,.T.);
#440=EDGE_CURVE('',#358,#359,#118,.T.);
#441=EDGE_CURVE('',#359,#356,#119,.T.);
#442=EDGE_CURVE('',#360,#361,#120,.T.);
#443=EDGE_CURVE('',#362,#360,#121,.T.);
#444=EDGE_CURVE('',#363,#362,#122,.T.);
#445=EDGE_CURVE('',#363,#364,#123,.T.);
#446=EDGE_CURVE('',#358,#364,#124,.T.);
#447=EDGE_CURVE('',#357,#361,#125,.T.);
#448=EDGE_CURVE('',#365,#366,#126,.T.);
#449=EDGE_CURVE('',#367,#365,#127,.T.);
#450=EDGE_CURVE('',#368,#367,#128,.T.);
#451=EDGE_CURVE('',#369,#368,#129,.T.);
#452=EDGE_CURVE('',#370,#369,#130,.T.);
#453=EDGE_CURVE('',#371,#370,#21,.T.);
#454=EDGE_CURVE('',#372,#371,#131,.T.);
#455=EDGE_CURVE('',#373,#372,#132,.T.);
#456=EDGE_CURVE('',#374,#373,#133,.T.);
#457=EDGE_CURVE('',#375,#374,#134,.T.);
#458=EDGE_CURVE('',#371,#375,#135,.T.);
#459=EDGE_CURVE('',#376,#371,#22,.T.);
#460=EDGE_CURVE('',#377,#376,#136,.T.);
#461=EDGE_CURVE('',#366,#377,#137,.T.);
#462=EDGE_CURVE('',#361,#378,#138,.T.);
#463=EDGE_CURVE('',#379,#378,#139,.T.);
#464=EDGE_CURVE('',#380,#379,#140,.T.);
#465=EDGE_CURVE('',#380,#381,#141,.T.);
#466=EDGE_CURVE('',#382,#381,#142,.T.);
#467=EDGE_CURVE('',#383,#382,#143,.T.);
#468=EDGE_CURVE('',#383,#360,#144,.T.);
#469=EDGE_CURVE('',#384,#364,#145,.T.);
#470=EDGE_CURVE('',#385,#384,#146,.T.);
#471=EDGE_CURVE('',#385,#359,#147,.T.);
#472=EDGE_CURVE('',#386,#387,#23,.T.);
#473=EDGE_CURVE('',#387,#376,#148,.T.);
#474=EDGE_CURVE('',#370,#388,#15,.T.);
#475=EDGE_CURVE('',#388,#386,#149,.T.);
#476=EDGE_CURVE('',#387,#389,#150,.T.);
#477=EDGE_CURVE('',#389,#377,#151,.T.);
#478=EDGE_CURVE('',#389,#390,#152,.T.);
#479=EDGE_CURVE('',#390,#366,#153,.T.);
#480=EDGE_CURVE('',#390,#386,#154,.T.);
#481=EDGE_CURVE('',#388,#391,#155,.T.);
#482=EDGE_CURVE('',#391,#365,#156,.T.);
#483=EDGE_CURVE('',#391,#392,#157,.T.);
#484=EDGE_CURVE('',#392,#393,#158,.T.);
#485=EDGE_CURVE('',#393,#367,#159,.T.);
#486=EDGE_CURVE('',#393,#394,#160,.T.);
#487=EDGE_CURVE('',#394,#368,#161,.T.);
#488=EDGE_CURVE('',#369,#395,#162,.T.);
#489=EDGE_CURVE('',#392,#395,#163,.T.);
#490=EDGE_CURVE('',#395,#394,#164,.T.);
#491=EDGE_CURVE('',#373,#396,#165,.T.);
#492=EDGE_CURVE('',#396,#397,#166,.T.);
#493=EDGE_CURVE('',#397,#374,#167,.T.);
#494=EDGE_CURVE('',#397,#398,#168,.T.);
#495=EDGE_CURVE('',#398,#375,#169,.T.);
#496=EDGE_CURVE('',#372,#399,#170,.T.);
#497=EDGE_CURVE('',#396,#399,#171,.T.);
#498=EDGE_CURVE('',#399,#398,#172,.T.);
#499=EDGE_CURVE('',#400,#401,#173,.T.);
#500=EDGE_CURVE('',#402,#401,#174,.T.);
#501=EDGE_CURVE('',#402,#403,#175,.T.);
#502=EDGE_CURVE('',#403,#404,#176,.T.);
#503=EDGE_CURVE('',#405,#404,#177,.T.);
#504=EDGE_CURVE('',#405,#400,#178,.T.);
#505=EDGE_CURVE('',#406,#407,#179,.T.);
#506=EDGE_CURVE('',#408,#406,#180,.T.);
#507=EDGE_CURVE('',#409,#408,#181,.T.);
#508=EDGE_CURVE('',#409,#410,#182,.T.);
#509=EDGE_CURVE('',#411,#410,#183,.T.);
#510=EDGE_CURVE('',#412,#411,#184,.T.);
#511=EDGE_CURVE('',#413,#412,#185,.T.);
#512=EDGE_CURVE('',#414,#413,#186,.T.);
#513=EDGE_CURVE('',#414,#415,#187,.T.);
#514=EDGE_CURVE('',#415,#416,#188,.T.);
#515=EDGE_CURVE('',#407,#416,#189,.T.);
#516=EDGE_CURVE('',#401,#417,#190,.T.);
#517=EDGE_CURVE('',#418,#417,#191,.T.);
#518=EDGE_CURVE('',#402,#418,#192,.T.);
#519=EDGE_CURVE('',#419,#384,#193,.T.);
#520=EDGE_CURVE('',#420,#363,#194,.T.);
#521=EDGE_CURVE('',#421,#420,#195,.T.);
#522=EDGE_CURVE('',#419,#421,#196,.T.);
#523=EDGE_CURVE('',#422,#406,#197,.T.);
#524=EDGE_CURVE('',#423,#422,#198,.T.);
#525=EDGE_CURVE('',#408,#423,#199,.T.);
#526=EDGE_CURVE('',#418,#424,#200,.T.);
#527=EDGE_CURVE('',#403,#424,#201,.T.);
#528=EDGE_CURVE('',#425,#422,#202,.T.);
#529=EDGE_CURVE('',#426,#425,#203,.T.);
#530=EDGE_CURVE('',#423,#426,#204,.T.);
#531=EDGE_CURVE('',#424,#427,#205,.T.);
#532=EDGE_CURVE('',#404,#427,#206,.T.);
#533=EDGE_CURVE('',#428,#385,#207,.T.);
#534=EDGE_CURVE('',#428,#429,#208,.T.);
#535=EDGE_CURVE('',#430,#429,#209,.T.);
#536=EDGE_CURVE('',#426,#430,#210,.T.);
#537=EDGE_CURVE('',#407,#425,#211,.T.);
#538=EDGE_CURVE('',#416,#356,#212,.T.);
#539=EDGE_CURVE('',#405,#431,#213,.T.);
#540=EDGE_CURVE('',#431,#427,#214,.T.);
#541=EDGE_CURVE('',#431,#432,#215,.T.);
#542=EDGE_CURVE('',#400,#432,#216,.T.);
#543=EDGE_CURVE('',#432,#417,#217,.T.);
#544=EDGE_CURVE('',#412,#381,#218,.T.);
#545=EDGE_CURVE('',#413,#380,#219,.T.);
#546=EDGE_CURVE('',#379,#414,#220,.T.);
#547=EDGE_CURVE('',#378,#415,#221,.T.);
#548=EDGE_CURVE('',#411,#382,#222,.T.);
#549=EDGE_CURVE('',#411,#433,#223,.T.);
#550=EDGE_CURVE('',#433,#383,#224,.T.);
#551=EDGE_CURVE('',#433,#362,#225,.T.);
#552=EDGE_CURVE('',#410,#420,#226,.T.);
#553=EDGE_CURVE('',#421,#409,#227,.T.);
#554=EDGE_CURVE('',#434,#435,#228,.T.);
#555=EDGE_CURVE('',#435,#428,#229,.T.);
#556=EDGE_CURVE('',#434,#419,#230,.T.);
#557=EDGE_CURVE('',#436,#434,#231,.T.);
#558=EDGE_CURVE('',#436,#437,#232,.T.);
#559=EDGE_CURVE('',#437,#435,#233,.T.);
#560=EDGE_CURVE('',#429,#437,#234,.T.);
#561=EDGE_CURVE('',#430,#436,#235,.T.);
#562=ORIENTED_EDGE('',*,*,#438,.T.);
#563=ORIENTED_EDGE('',*,*,#439,.F.);
#564=ORIENTED_EDGE('',*,*,#440,.T.);
#565=ORIENTED_EDGE('',*,*,#441,.T.);
#566=ORIENTED_EDGE('',*,*,#442,.F.);
#567=ORIENTED_EDGE('',*,*,#443,.F.);
#568=ORIENTED_EDGE('',*,*,#444,.F.);
#569=ORIENTED_EDGE('',*,*,#445,.T.);
#570=ORIENTED_EDGE('',*,*,#446,.F.);
#571=ORIENTED_EDGE('',*,*,#439,.T.);
#572=ORIENTED_EDGE('',*,*,#447,.T.);
#573=ORIENTED_EDGE('',*,*,#448,.F.);
#574=ORIENTED_EDGE('',*,*,#449,.F.);
#575=ORIENTED_EDGE('',*,*,#450,.F.);
#576=ORIENTED_EDGE('',*,*,#451,.F.);
#577=ORIENTED_EDGE('',*,*,#452,.F.);
#578=ORIENTED_EDGE('',*,*,#453,.F.);
#579=ORIENTED_EDGE('',*,*,#454,.F.);
#580=ORIENTED_EDGE('',*,*,#455,.F.);
#581=ORIENTED_EDGE('',*,*,#456,.F.);
#582=ORIENTED_EDGE('',*,*,#457,.F.);
#583=ORIENTED_EDGE('',*,*,#458,.F.);
#584=ORIENTED_EDGE('',*,*,#459,.F.);
#585=ORIENTED_EDGE('',*,*,#460,.F.);
#586=ORIENTED_EDGE('',*,*,#461,.F.);
#587=ORIENTED_EDGE('',*,*,#442,.T.);
#588=ORIENTED_EDGE('',*,*,#462,.T.);
#589=ORIENTED_EDGE('',*,*,#463,.F.);
#590=ORIENTED_EDGE('',*,*,#464,.F.);
#591=ORIENTED_EDGE('',*,*,#465,.T.);
#592=ORIENTED_EDGE('',*,*,#466,.F.);
#593=ORIENTED_EDGE('',*,*,#467,.F.);
#594=ORIENTED_EDGE('',*,*,#468,.T.);
#595=ORIENTED_EDGE('',*,*,#440,.F.);
#596=ORIENTED_EDGE('',*,*,#446,.T.);
#597=ORIENTED_EDGE('',*,*,#469,.F.);
#598=ORIENTED_EDGE('',*,*,#470,.F.);
#599=ORIENTED_EDGE('',*,*,#471,.T.);
#600=ORIENTED_EDGE('',*,*,#472,.T.);
#601=ORIENTED_EDGE('',*,*,#473,.T.);
#602=ORIENTED_EDGE('',*,*,#459,.T.);
#603=ORIENTED_EDGE('',*,*,#453,.T.);
#604=ORIENTED_EDGE('',*,*,#474,.T.);
#605=ORIENTED_EDGE('',*,*,#475,.T.);
#606=ORIENTED_EDGE('',*,*,#476,.T.);
#607=ORIENTED_EDGE('',*,*,#477,.T.);
#608=ORIENTED_EDGE('',*,*,#460,.T.);
#609=ORIENTED_EDGE('',*,*,#473,.F.);
#610=ORIENTED_EDGE('',*,*,#478,.T.);
#611=ORIENTED_EDGE('',*,*,#479,.T.);
#612=ORIENTED_EDGE('',*,*,#461,.T.);
#613=ORIENTED_EDGE('',*,*,#477,.F.);
#614=ORIENTED_EDGE('',*,*,#480,.T.);
#615=ORIENTED_EDGE('',*,*,#475,.F.);
#616=ORIENTED_EDGE('',*,*,#481,.T.);
#617=ORIENTED_EDGE('',*,*,#482,.T.);
#618=ORIENTED_EDGE('',*,*,#448,.T.);
#619=ORIENTED_EDGE('',*,*,#479,.F.);
#620=ORIENTED_EDGE('',*,*,#482,.F.);
#621=ORIENTED_EDGE('',*,*,#483,.T.);
#622=ORIENTED_EDGE('',*,*,#484,.T.);
#623=ORIENTED_EDGE('',*,*,#485,.T.);
#624=ORIENTED_EDGE('',*,*,#449,.T.);
#625=ORIENTED_EDGE('',*,*,#450,.T.);
#626=ORIENTED_EDGE('',*,*,#485,.F.);
#627=ORIENTED_EDGE('',*,*,#486,.T.);
#628=ORIENTED_EDGE('',*,*,#487,.T.);
#629=ORIENTED_EDGE('',*,*,#481,.F.);
#630=ORIENTED_EDGE('',*,*,#474,.F.);
#631=ORIENTED_EDGE('',*,*,#452,.T.);
#632=ORIENTED_EDGE('',*,*,#488,.T.);
#633=ORIENTED_EDGE('',*,*,#489,.F.);
#634=ORIENTED_EDGE('',*,*,#483,.F.);
#635=ORIENTED_EDGE('',*,*,#484,.F.);
#636=ORIENTED_EDGE('',*,*,#489,.T.);
#637=ORIENTED_EDGE('',*,*,#490,.T.);
#638=ORIENTED_EDGE('',*,*,#486,.F.);
#639=ORIENTED_EDGE('',*,*,#451,.T.);
#640=ORIENTED_EDGE('',*,*,#487,.F.);
#641=ORIENTED_EDGE('',*,*,#490,.F.);
#642=ORIENTED_EDGE('',*,*,#488,.F.);
#643=ORIENTED_EDGE('',*,*,#456,.T.);
#644=ORIENTED_EDGE('',*,*,#491,.T.);
#645=ORIENTED_EDGE('',*,*,#492,.T.);
#646=ORIENTED_EDGE('',*,*,#493,.T.);
#647=ORIENTED_EDGE('',*,*,#457,.T.);
#648=ORIENTED_EDGE('',*,*,#493,.F.);
#649=ORIENTED_EDGE('',*,*,#494,.T.);
#650=ORIENTED_EDGE('',*,*,#495,.T.);
#651=ORIENTED_EDGE('',*,*,#455,.T.);
#652=ORIENTED_EDGE('',*,*,#496,.T.);
#653=ORIENTED_EDGE('',*,*,#497,.F.);
#654=ORIENTED_EDGE('',*,*,#491,.F.);
#655=ORIENTED_EDGE('',*,*,#492,.F.);
#656=ORIENTED_EDGE('',*,*,#497,.T.);
#657=ORIENTED_EDGE('',*,*,#498,.T.);
#658=ORIENTED_EDGE('',*,*,#494,.F.);
#659=ORIENTED_EDGE('',*,*,#496,.F.);
#660=ORIENTED_EDGE('',*,*,#454,.T.);
#661=ORIENTED_EDGE('',*,*,#458,.T.);
#662=ORIENTED_EDGE('',*,*,#495,.F.);
#663=ORIENTED_EDGE('',*,*,#498,.F.);
#664=ORIENTED_EDGE('',*,*,#499,.T.);
#665=ORIENTED_EDGE('',*,*,#500,.F.);
#666=ORIENTED_EDGE('',*,*,#501,.T.);
#667=ORIENTED_EDGE('',*,*,#502,.T.);
#668=ORIENTED_EDGE('',*,*,#503,.F.);
#669=ORIENTED_EDGE('',*,*,#504,.T.);
#670=ORIENTED_EDGE('',*,*,#505,.F.);
#671=ORIENTED_EDGE('',*,*,#506,.F.);
#672=ORIENTED_EDGE('',*,*,#507,.F.);
#673=ORIENTED_EDGE('',*,*,#508,.T.);
#674=ORIENTED_EDGE('',*,*,#509,.F.);
#675=ORIENTED_EDGE('',*,*,#510,.F.);
#676=ORIENTED_EDGE('',*,*,#511,.F.);
#677=ORIENTED_EDGE('',*,*,#512,.F.);
#678=ORIENTED_EDGE('',*,*,#513,.T.);
#679=ORIENTED_EDGE('',*,*,#514,.T.);
#680=ORIENTED_EDGE('',*,*,#515,.F.);
#681=ORIENTED_EDGE('',*,*,#500,.T.);
#682=ORIENTED_EDGE('',*,*,#516,.T.);
#683=ORIENTED_EDGE('',*,*,#517,.F.);
#684=ORIENTED_EDGE('',*,*,#518,.F.);
#685=ORIENTED_EDGE('',*,*,#519,.T.);
#686=ORIENTED_EDGE('',*,*,#469,.T.);
#687=ORIENTED_EDGE('',*,*,#445,.F.);
#688=ORIENTED_EDGE('',*,*,#520,.F.);
#689=ORIENTED_EDGE('',*,*,#521,.F.);
#690=ORIENTED_EDGE('',*,*,#522,.F.);
#691=ORIENTED_EDGE('',*,*,#523,.F.);
#692=ORIENTED_EDGE('',*,*,#524,.F.);
#693=ORIENTED_EDGE('',*,*,#525,.F.);
#694=ORIENTED_EDGE('',*,*,#506,.T.);
#695=ORIENTED_EDGE('',*,*,#501,.F.);
#696=ORIENTED_EDGE('',*,*,#518,.T.);
#697=ORIENTED_EDGE('',*,*,#526,.T.);
#698=ORIENTED_EDGE('',*,*,#527,.F.);
#699=ORIENTED_EDGE('',*,*,#528,.F.);
#700=ORIENTED_EDGE('',*,*,#529,.F.);
#701=ORIENTED_EDGE('',*,*,#530,.F.);
#702=ORIENTED_EDGE('',*,*,#524,.T.);
#703=ORIENTED_EDGE('',*,*,#502,.F.);
#704=ORIENTED_EDGE('',*,*,#527,.T.);
#705=ORIENTED_EDGE('',*,*,#531,.T.);
#706=ORIENTED_EDGE('',*,*,#532,.F.);
#707=ORIENTED_EDGE('',*,*,#441,.F.);
#708=ORIENTED_EDGE('',*,*,#471,.F.);
#709=ORIENTED_EDGE('',*,*,#533,.F.);
#710=ORIENTED_EDGE('',*,*,#534,.T.);
#711=ORIENTED_EDGE('',*,*,#535,.F.);
#712=ORIENTED_EDGE('',*,*,#536,.F.);
#713=ORIENTED_EDGE('',*,*,#529,.T.);
#714=ORIENTED_EDGE('',*,*,#537,.F.);
#715=ORIENTED_EDGE('',*,*,#515,.T.);
#716=ORIENTED_EDGE('',*,*,#538,.T.);
#717=ORIENTED_EDGE('',*,*,#539,.F.);
#718=ORIENTED_EDGE('',*,*,#503,.T.);
#719=ORIENTED_EDGE('',*,*,#532,.T.);
#720=ORIENTED_EDGE('',*,*,#540,.F.);
#721=ORIENTED_EDGE('',*,*,#504,.F.);
#722=ORIENTED_EDGE('',*,*,#539,.T.);
#723=ORIENTED_EDGE('',*,*,#541,.T.);
#724=ORIENTED_EDGE('',*,*,#542,.F.);
#725=ORIENTED_EDGE('',*,*,#499,.F.);
#726=ORIENTED_EDGE('',*,*,#542,.T.);
#727=ORIENTED_EDGE('',*,*,#543,.T.);
#728=ORIENTED_EDGE('',*,*,#516,.F.);
#729=ORIENTED_EDGE('',*,*,#537,.T.);
#730=ORIENTED_EDGE('',*,*,#528,.T.);
#731=ORIENTED_EDGE('',*,*,#523,.T.);
#732=ORIENTED_EDGE('',*,*,#505,.T.);
#733=ORIENTED_EDGE('',*,*,#541,.F.);
#734=ORIENTED_EDGE('',*,*,#540,.T.);
#735=ORIENTED_EDGE('',*,*,#531,.F.);
#736=ORIENTED_EDGE('',*,*,#526,.F.);
#737=ORIENTED_EDGE('',*,*,#517,.T.);
#738=ORIENTED_EDGE('',*,*,#543,.F.);
#739=ORIENTED_EDGE('',*,*,#544,.T.);
#740=ORIENTED_EDGE('',*,*,#465,.F.);
#741=ORIENTED_EDGE('',*,*,#545,.F.);
#742=ORIENTED_EDGE('',*,*,#511,.T.);
#743=ORIENTED_EDGE('',*,*,#545,.T.);
#744=ORIENTED_EDGE('',*,*,#464,.T.);
#745=ORIENTED_EDGE('',*,*,#546,.T.);
#746=ORIENTED_EDGE('',*,*,#512,.T.);
#747=ORIENTED_EDGE('',*,*,#447,.F.);
#748=ORIENTED_EDGE('',*,*,#438,.F.);
#749=ORIENTED_EDGE('',*,*,#538,.F.);
#750=ORIENTED_EDGE('',*,*,#514,.F.);
#751=ORIENTED_EDGE('',*,*,#547,.F.);
#752=ORIENTED_EDGE('',*,*,#462,.F.);
#753=ORIENTED_EDGE('',*,*,#513,.F.);
#754=ORIENTED_EDGE('',*,*,#546,.F.);
#755=ORIENTED_EDGE('',*,*,#463,.T.);
#756=ORIENTED_EDGE('',*,*,#547,.T.);
#757=ORIENTED_EDGE('',*,*,#544,.F.);
#758=ORIENTED_EDGE('',*,*,#510,.T.);
#759=ORIENTED_EDGE('',*,*,#548,.T.);
#760=ORIENTED_EDGE('',*,*,#466,.T.);
#761=ORIENTED_EDGE('',*,*,#548,.F.);
#762=ORIENTED_EDGE('',*,*,#549,.T.);
#763=ORIENTED_EDGE('',*,*,#550,.T.);
#764=ORIENTED_EDGE('',*,*,#467,.T.);
#765=ORIENTED_EDGE('',*,*,#478,.F.);
#766=ORIENTED_EDGE('',*,*,#476,.F.);
#767=ORIENTED_EDGE('',*,*,#472,.F.);
#768=ORIENTED_EDGE('',*,*,#480,.F.);
#769=ORIENTED_EDGE('',*,*,#520,.T.);
#770=ORIENTED_EDGE('',*,*,#444,.T.);
#771=ORIENTED_EDGE('',*,*,#551,.F.);
#772=ORIENTED_EDGE('',*,*,#549,.F.);
#773=ORIENTED_EDGE('',*,*,#509,.T.);
#774=ORIENTED_EDGE('',*,*,#552,.T.);
#775=ORIENTED_EDGE('',*,*,#550,.F.);
#776=ORIENTED_EDGE('',*,*,#551,.T.);
#777=ORIENTED_EDGE('',*,*,#443,.T.);
#778=ORIENTED_EDGE('',*,*,#468,.F.);
#779=ORIENTED_EDGE('',*,*,#521,.T.);
#780=ORIENTED_EDGE('',*,*,#552,.F.);
#781=ORIENTED_EDGE('',*,*,#508,.F.);
#782=ORIENTED_EDGE('',*,*,#553,.F.);
#783=ORIENTED_EDGE('',*,*,#554,.T.);
#784=ORIENTED_EDGE('',*,*,#555,.T.);
#785=ORIENTED_EDGE('',*,*,#533,.T.);
#786=ORIENTED_EDGE('',*,*,#470,.T.);
#787=ORIENTED_EDGE('',*,*,#519,.F.);
#788=ORIENTED_EDGE('',*,*,#556,.F.);
#789=ORIENTED_EDGE('',*,*,#554,.F.);
#790=ORIENTED_EDGE('',*,*,#557,.F.);
#791=ORIENTED_EDGE('',*,*,#558,.T.);
#792=ORIENTED_EDGE('',*,*,#559,.T.);
#793=ORIENTED_EDGE('',*,*,#555,.F.);
#794=ORIENTED_EDGE('',*,*,#559,.F.);
#795=ORIENTED_EDGE('',*,*,#560,.F.);
#796=ORIENTED_EDGE('',*,*,#534,.F.);
#797=ORIENTED_EDGE('',*,*,#561,.F.);
#798=ORIENTED_EDGE('',*,*,#535,.T.);
#799=ORIENTED_EDGE('',*,*,#560,.T.);
#800=ORIENTED_EDGE('',*,*,#558,.F.);
#801=ORIENTED_EDGE('',*,*,#557,.T.);
#802=ORIENTED_EDGE('',*,*,#556,.T.);
#803=ORIENTED_EDGE('',*,*,#522,.T.);
#804=ORIENTED_EDGE('',*,*,#553,.T.);
#805=ORIENTED_EDGE('',*,*,#507,.T.);
#806=ORIENTED_EDGE('',*,*,#525,.T.);
#807=ORIENTED_EDGE('',*,*,#530,.T.);
#808=ORIENTED_EDGE('',*,*,#536,.T.);
#809=ORIENTED_EDGE('',*,*,#561,.T.);
#810=PLANE('',#911);
#811=PLANE('',#912);
#812=PLANE('',#915);
#813=PLANE('',#916);
#814=PLANE('',#920);
#815=PLANE('',#921);
#816=PLANE('',#922);
#817=PLANE('',#923);
#818=PLANE('',#924);
#819=PLANE('',#925);
#820=PLANE('',#926);
#821=PLANE('',#927);
#822=PLANE('',#928);
#823=PLANE('',#929);
#824=PLANE('',#930);
#825=PLANE('',#931);
#826=PLANE('',#932);
#827=PLANE('',#933);
#828=PLANE('',#934);
#829=PLANE('',#935);
#830=PLANE('',#936);
#831=PLANE('',#937);
#832=PLANE('',#938);
#833=PLANE('',#939);
#834=PLANE('',#940);
#835=PLANE('',#941);
#836=PLANE('',#942);
#837=PLANE('',#943);
#838=PLANE('',#944);
#839=PLANE('',#945);
#840=PLANE('',#946);
#841=PLANE('',#947);
#842=PLANE('',#948);
#843=PLANE('',#949);
#844=PLANE('',#950);
#845=PLANE('',#951);
#846=PLANE('',#952);
#847=PLANE('',#953);
#848=PLANE('',#954);
#849=PLANE('',#955);
#850=PLANE('',#956);
#851=PLANE('',#957);
#852=PLANE('',#958);
#853=ADVANCED_FACE('',(#24),#810,.T.);
#854=ADVANCED_FACE('',(#25,#17),#811,.F.);
#855=ADVANCED_FACE('',(#26),#812,.F.);
#856=ADVANCED_FACE('',(#27),#813,.T.);
#857=ADVANCED_FACE('',(#28),#16,.F.);
#858=ADVANCED_FACE('',(#29),#814,.T.);
#859=ADVANCED_FACE('',(#30),#815,.T.);
#860=ADVANCED_FACE('',(#31),#816,.T.);
#861=ADVANCED_FACE('',(#32),#817,.T.);
#862=ADVANCED_FACE('',(#33),#818,.F.);
#863=ADVANCED_FACE('',(#34),#819,.F.);
#864=ADVANCED_FACE('',(#35),#820,.F.);
#865=ADVANCED_FACE('',(#36),#821,.F.);
#866=ADVANCED_FACE('',(#37),#822,.T.);
#867=ADVANCED_FACE('',(#38),#823,.F.);
#868=ADVANCED_FACE('',(#39),#824,.F.);
#869=ADVANCED_FACE('',(#40),#825,.F.);
#870=ADVANCED_FACE('',(#41),#826,.F.);
#871=ADVANCED_FACE('',(#42),#827,.F.);
#872=ADVANCED_FACE('',(#43,#18),#828,.F.);
#873=ADVANCED_FACE('',(#44),#829,.F.);
#874=ADVANCED_FACE('',(#45),#830,.F.);
#875=ADVANCED_FACE('',(#46),#831,.F.);
#876=ADVANCED_FACE('',(#47),#832,.F.);
#877=ADVANCED_FACE('',(#48),#833,.F.);
#878=ADVANCED_FACE('',(#49,#19),#834,.F.);
#879=ADVANCED_FACE('',(#50),#835,.F.);
#880=ADVANCED_FACE('',(#51),#836,.F.);
#881=ADVANCED_FACE('',(#52),#837,.T.);
#882=ADVANCED_FACE('',(#53),#838,.T.);
#883=ADVANCED_FACE('',(#54),#839,.F.);
#884=ADVANCED_FACE('',(#55),#840,.T.);
#885=ADVANCED_FACE('',(#56),#841,.F.);
#886=ADVANCED_FACE('',(#57),#842,.F.);
#887=ADVANCED_FACE('',(#58),#843,.T.);
#888=ADVANCED_FACE('',(#59,#20),#844,.F.);
#889=ADVANCED_FACE('',(#60),#845,.F.);
#890=ADVANCED_FACE('',(#61),#846,.F.);
#891=ADVANCED_FACE('',(#62),#847,.F.);
#892=ADVANCED_FACE('',(#63),#848,.F.);
#893=ADVANCED_FACE('',(#64),#849,.F.);
#894=ADVANCED_FACE('',(#65),#850,.F.);
#895=ADVANCED_FACE('',(#66),#851,.F.);
#896=ADVANCED_FACE('',(#67),#852,.T.);
#897=CLOSED_SHELL('',(#853,#854,#855,#856,#857,#858,#859,#860,#861,#862,
#863,#864,#865,#866,#867,#868,#869,#870,#871,#872,#873,#874,#875,#876,#877,
#878,#879,#880,#881,#882,#883,#884,#885,#886,#887,#888,#889,#890,#891,#892,
#893,#894,#895,#896));
#898=DERIVED_UNIT_ELEMENT(#900,1.);
#899=DERIVED_UNIT_ELEMENT(#1433,-3.);
#900=(
MASS_UNIT()
NAMED_UNIT(*)
SI_UNIT(.KILO.,.GRAM.)
);
#901=DERIVED_UNIT((#898,#899));
#902=MEASURE_REPRESENTATION_ITEM('density measure',
POSITIVE_RATIO_MEASURE(7850.),#901);
#903=PROPERTY_DEFINITION_REPRESENTATION(#908,#905);
#904=PROPERTY_DEFINITION_REPRESENTATION(#909,#906);
#905=REPRESENTATION('material name',(#907),#1430);
#906=REPRESENTATION('density',(#902),#1430);
#907=DESCRIPTIVE_REPRESENTATION_ITEM('Steel','Steel');
#908=PROPERTY_DEFINITION('material property','material name',#1440);
#909=PROPERTY_DEFINITION('material property','density of part',#1440);
#910=AXIS2_PLACEMENT_3D('',#1177,#959,#960);
#911=AXIS2_PLACEMENT_3D('',#1178,#961,#962);
#912=AXIS2_PLACEMENT_3D('',#1187,#967,#968);
#913=AXIS2_PLACEMENT_3D('',#1211,#980,#981);
#914=AXIS2_PLACEMENT_3D('',#1222,#987,#988);
#915=AXIS2_PLACEMENT_3D('',#1226,#991,#992);
#916=AXIS2_PLACEMENT_3D('',#1240,#1000,#1001);
#917=AXIS2_PLACEMENT_3D('',#1246,#1005,#1006);
#918=AXIS2_PLACEMENT_3D('',#1249,#1007,#1008);
#919=AXIS2_PLACEMENT_3D('',#1252,#1010,#1011);
#920=AXIS2_PLACEMENT_3D('',#1254,#1013,#1014);
#921=AXIS2_PLACEMENT_3D('',#1258,#1017,#1018);
#922=AXIS2_PLACEMENT_3D('',#1262,#1021,#1022);
#923=AXIS2_PLACEMENT_3D('',#1267,#1026,#1027);
#924=AXIS2_PLACEMENT_3D('',#1273,#1031,#1032);
#925=AXIS2_PLACEMENT_3D('',#1277,#1035,#1036);
#926=AXIS2_PLACEMENT_3D('',#1281,#1039,#1040);
#927=AXIS2_PLACEMENT_3D('',#1283,#1042,#1043);
#928=AXIS2_PLACEMENT_3D('',#1284,#1044,#1045);
#929=AXIS2_PLACEMENT_3D('',#1290,#1049,#1050);
#930=AXIS2_PLACEMENT_3D('',#1294,#1053,#1054);
#931=AXIS2_PLACEMENT_3D('',#1298,#1057,#1058);
#932=AXIS2_PLACEMENT_3D('',#1300,#1060,#1061);
#933=AXIS2_PLACEMENT_3D('',#1301,#1062,#1063);
#934=AXIS2_PLACEMENT_3D('',#1314,#1070,#1071);
#935=AXIS2_PLACEMENT_3D('',#1342,#1086,#1087);
#936=AXIS2_PLACEMENT_3D('',#1350,#1092,#1093);
#937=AXIS2_PLACEMENT_3D('',#1356,#1097,#1098);
#938=AXIS2_PLACEMENT_3D('',#1360,#1101,#1102);
#939=AXIS2_PLACEMENT_3D('',#1366,#1106,#1107);
#940=AXIS2_PLACEMENT_3D('',#1370,#1110,#1111);
#941=AXIS2_PLACEMENT_3D('',#1383,#1120,#1121);
#942=AXIS2_PLACEMENT_3D('',#1387,#1124,#1125);
#943=AXIS2_PLACEMENT_3D('',#1389,#1127,#1128);
#944=AXIS2_PLACEMENT_3D('',#1390,#1129,#1130);
#945=AXIS2_PLACEMENT_3D('',#1391,#1131,#1132);
#946=AXIS2_PLACEMENT_3D('',#1394,#1135,#1136);
#947=AXIS2_PLACEMENT_3D('',#1396,#1138,#1139);
#948=AXIS2_PLACEMENT_3D('',#1398,#1141,#1142);
#949=AXIS2_PLACEMENT_3D('',#1399,#1143,#1144);
#950=AXIS2_PLACEMENT_3D('',#1401,#1146,#1147);
#951=AXIS2_PLACEMENT_3D('',#1405,#1150,#1151);
#952=AXIS2_PLACEMENT_3D('',#1408,#1154,#1155);
#953=AXIS2_PLACEMENT_3D('',#1409,#1156,#1157);
#954=AXIS2_PLACEMENT_3D('',#1411,#1159,#1160);
#955=AXIS2_PLACEMENT_3D('',#1417,#1164,#1165);
#956=AXIS2_PLACEMENT_3D('',#1423,#1169,#1170);
#957=AXIS2_PLACEMENT_3D('',#1425,#1172,#1173);
#958=AXIS2_PLACEMENT_3D('',#1427,#1175,#1176);
#959=DIRECTION('axis',(0.,0.,1.));
#960=DIRECTION('refdir',(1.,0.,0.));
#961=DIRECTION('center_axis',(0.,0.,1.));
#962=DIRECTION('ref_axis',(0.,-1.,0.));
#963=DIRECTION('',(0.,1.,0.));
#964=DIRECTION('',(1.,0.,0.));
#965=DIRECTION('',(0.,-1.,0.));
#966=DIRECTION('',(1.,0.,0.));
#967=DIRECTION('center_axis',(0.,1.,0.));
#968=DIRECTION('ref_axis',(0.,0.,1.));
#969=DIRECTION('',(1.,0.,0.));
#970=DIRECTION('',(0.,0.,1.));
#971=DIRECTION('',(-0.672672793996313,0.,0.739940073395944));
#972=DIRECTION('',(1.,0.,0.));
#973=DIRECTION('',(0.,0.,-1.));
#974=DIRECTION('',(0.,0.,1.));
#975=DIRECTION('',(-0.707106781186545,0.,0.70710678118655));
#976=DIRECTION('',(0.,0.,-1.));
#977=DIRECTION('',(-1.,0.,0.));
#978=DIRECTION('',(0.,0.,1.));
#979=DIRECTION('',(1.,0.,0.));
#980=DIRECTION('center_axis',(0.,-1.,0.));
#981=DIRECTION('ref_axis',(1.,0.,0.));
#982=DIRECTION('',(0.,0.,1.));
#983=DIRECTION('',(1.,0.,0.));
#984=DIRECTION('',(0.,0.,-1.));
#985=DIRECTION('',(-1.,0.,0.));
#986=DIRECTION('',(0.,0.,1.));
#987=DIRECTION('center_axis',(0.,-1.,0.));
#988=DIRECTION('ref_axis',(1.,0.,0.));
#989=DIRECTION('',(-0.707106781186545,0.,-0.70710678118655));
#990=DIRECTION('',(-1.,0.,0.));
#991=DIRECTION('center_axis',(0.,0.,-1.));
#992=DIRECTION('ref_axis',(1.,0.,0.));
#993=DIRECTION('',(0.,1.,0.));
#994=DIRECTION('',(1.,0.,0.));
#995=DIRECTION('',(0.,1.,0.));
#996=DIRECTION('',(1.,0.,0.));
#997=DIRECTION('',(0.,1.,0.));
#998=DIRECTION('',(1.,0.,0.));
#999=DIRECTION('',(0.,-1.,0.));
#1000=DIRECTION('center_axis',(-1.,0.,0.));
#1001=DIRECTION('ref_axis',(0.,0.,1.));
#1002=DIRECTION('',(0.,0.650791373455968,-0.759256602365297));
#1003=DIRECTION('',(0.,0.894427190999917,-0.447213595499957));
#1004=DIRECTION('',(0.,0.,1.));
#1005=DIRECTION('center_axis',(0.,1.,0.));
#1006=DIRECTION('ref_axis',(6.12323399573677E-17,0.,-1.));
#1007=DIRECTION('center_axis',(0.,1.,0.));
#1008=DIRECTION('ref_axis',(1.,0.,0.));
#1009=DIRECTION('',(0.,-1.,0.));
#1010=DIRECTION('center_axis',(0.,-0.707106781186548,-0.707106781186547));
#1011=DIRECTION('ref_axis',(0.,0.707106781186547,-0.707106781186548));
#1012=DIRECTION('',(0.,1.,0.));
#1013=DIRECTION('center_axis',(0.70710678118655,0.,-0.707106781186545));
#1014=DIRECTION('ref_axis',(0.707106781186545,0.,0.70710678118655));
#1015=DIRECTION('',(0.707106781186545,0.,0.70710678118655));
#1016=DIRECTION('',(0.,-1.,0.));
#1017=DIRECTION('center_axis',(0.,0.,-1.));
#1018=DIRECTION('ref_axis',(1.,0.,0.));
#1019=DIRECTION('',(1.,0.,0.));
#1020=DIRECTION('',(0.,-1.,0.));
#1021=DIRECTION('center_axis',(-0.70710678118655,0.,-0.707106781186545));
#1022=DIRECTION('ref_axis',(0.707106781186545,0.,-0.70710678118655));
#1023=DIRECTION('',(0.707106781186545,0.,-0.70710678118655));
#1024=DIRECTION('',(-0.577350269189623,-0.577350269189627,0.577350269189627));
#1025=DIRECTION('',(0.,1.,0.));
#1026=DIRECTION('center_axis',(-1.,0.,0.));
#1027=DIRECTION('ref_axis',(0.,0.,1.));
#1028=DIRECTION('',(0.,-0.707106781186547,0.707106781186548));
#1029=DIRECTION('',(0.,0.,1.));
#1030=DIRECTION('',(0.,1.,0.));
#1031=DIRECTION('center_axis',(0.,0.,-1.));
#1032=DIRECTION('ref_axis',(0.,1.,0.));
#1033=DIRECTION('',(1.,0.,0.));
#1034=DIRECTION('',(0.,1.,0.));
#1035=DIRECTION('center_axis',(0.,0.707106781186548,0.707106781186547));
#1036=DIRECTION('ref_axis',(0.,-0.707106781186547,0.707106781186548));
#1037=DIRECTION('',(0.,-0.707106781186547,0.707106781186548));
#1038=DIRECTION('',(1.,0.,0.));
#1039=DIRECTION('center_axis',(0.,1.,0.));
#1040=DIRECTION('ref_axis',(0.,0.,1.));
#1041=DIRECTION('',(0.,0.,1.));
#1042=DIRECTION('center_axis',(-1.,0.,0.));
#1043=DIRECTION('ref_axis',(0.,0.,1.));
#1044=DIRECTION('center_axis',(-1.,0.,0.));
#1045=DIRECTION('ref_axis',(0.,0.,1.));
#1046=DIRECTION('',(0.,-0.707106781186547,0.707106781186548));
#1047=DIRECTION('',(0.,0.,1.));
#1048=DIRECTION('',(0.,1.,0.));
#1049=DIRECTION('center_axis',(0.,0.,-1.));
#1050=DIRECTION('ref_axis',(0.,1.,0.));
#1051=DIRECTION('',(1.,0.,0.));
#1052=DIRECTION('',(0.,1.,0.));
#1053=DIRECTION('center_axis',(0.,0.707106781186548,0.707106781186547));
#1054=DIRECTION('ref_axis',(0.,-0.707106781186547,0.707106781186548));
#1055=DIRECTION('',(0.,-0.707106781186547,0.707106781186548));
#1056=DIRECTION('',(1.,0.,0.));
#1057=DIRECTION('center_axis',(0.,1.,0.));
#1058=DIRECTION('ref_axis',(0.,0.,1.));
#1059=DIRECTION('',(0.,0.,1.));
#1060=DIRECTION('center_axis',(-1.,0.,0.));
#1061=DIRECTION('ref_axis',(0.,0.,1.));
#1062=DIRECTION('center_axis',(-1.,0.,0.));
#1063=DIRECTION('ref_axis',(0.,0.,1.));
#1064=DIRECTION('',(0.,0.,-1.));
#1065=DIRECTION('',(0.,-1.,0.));
#1066=DIRECTION('',(0.,0.,1.));
#1067=DIRECTION('',(0.,-0.701604252995358,0.712566819448411));
#1068=DIRECTION('',(0.,0.,1.));
#1069=DIRECTION('',(0.,1.,0.));
#1070=DIRECTION('center_axis',(0.,0.,1.));
#1071=DIRECTION('ref_axis',(0.,-1.,0.));
#1072=DIRECTION('',(0.,-1.,0.));
#1073=DIRECTION('',(1.,0.,0.));
#1074=DIRECTION('',(0.,-1.,0.));
#1075=DIRECTION('',(1.,0.,0.));
#1076=DIRECTION('',(0.,-1.,0.));
#1077=DIRECTION('',(0.,-1.,0.));
#1078=DIRECTION('',(1.,0.,0.));
#1079=DIRECTION('',(0.,-1.,0.));
#1080=DIRECTION('',(1.,0.,0.));
#1081=DIRECTION('',(0.,-1.,0.));
#1082=DIRECTION('',(1.,0.,0.));
#1083=DIRECTION('',(1.,0.,0.));
#1084=DIRECTION('',(0.,-1.,0.));
#1085=DIRECTION('',(1.,0.,0.));
#1086=DIRECTION('center_axis',(0.,-0.759256602365297,-0.650791373455968));
#1087=DIRECTION('ref_axis',(0.,0.650791373455968,-0.759256602365297));
#1088=DIRECTION('',(1.,0.,0.));
#1089=DIRECTION('',(-0.568055333603077,-0.535595028825758,0.624860866963384));
#1090=DIRECTION('',(1.,0.,0.));
#1091=DIRECTION('',(0.,0.650791373455968,-0.759256602365297));
#1092=DIRECTION('center_axis',(0.,1.,0.));
#1093=DIRECTION('ref_axis',(0.,0.,1.));
#1094=DIRECTION('',(0.,0.,-1.));
#1095=DIRECTION('',(1.,0.,0.));
#1096=DIRECTION('',(0.,0.,1.));
#1097=DIRECTION('center_axis',(0.,1.,0.));
#1098=DIRECTION('ref_axis',(0.,0.,1.));
#1099=DIRECTION('',(0.,0.,1.));
#1100=DIRECTION('',(1.,0.,0.));
#1101=DIRECTION('center_axis',(0.,0.712566819448411,0.701604252995359));
#1102=DIRECTION('ref_axis',(0.,-0.701604252995358,0.712566819448411));
#1103=DIRECTION('',(0.,0.701604252995358,-0.712566819448411));
#1104=DIRECTION('',(1.,0.,0.));
#1105=DIRECTION('',(0.,-0.701604252995358,0.712566819448411));
#1106=DIRECTION('center_axis',(0.,0.712566819448411,0.701604252995359));
#1107=DIRECTION('ref_axis',(0.,-0.701604252995358,0.712566819448411));
#1108=DIRECTION('',(0.,-0.701604252995358,0.712566819448411));
#1109=DIRECTION('',(1.,0.,0.));
#1110=DIRECTION('center_axis',(0.,1.,0.));
#1111=DIRECTION('ref_axis',(0.,0.,1.));
#1112=DIRECTION('',(1.,0.,0.));
#1113=DIRECTION('',(0.,0.,1.));
#1114=DIRECTION('',(1.,0.,0.));
#1115=DIRECTION('',(0.,0.,1.));
#1116=DIRECTION('',(0.,0.,1.));
#1117=DIRECTION('',(0.,0.,1.));
#1118=DIRECTION('',(1.,0.,0.));
#1119=DIRECTION('',(0.,0.,1.));
#1120=DIRECTION('center_axis',(0.,0.,-1.));
#1121=DIRECTION('ref_axis',(0.,1.,0.));
#1122=DIRECTION('',(0.,1.,0.));
#1123=DIRECTION('',(1.,0.,0.));
#1124=DIRECTION('center_axis',(0.,-1.,0.));
#1125=DIRECTION('ref_axis',(0.,0.,-1.));
#1126=DIRECTION('',(0.,0.,-1.));
#1127=DIRECTION('center_axis',(-1.,0.,0.));
#1128=DIRECTION('ref_axis',(0.,0.,1.));
#1129=DIRECTION('center_axis',(-1.,0.,0.));
#1130=DIRECTION('ref_axis',(0.,0.,1.));
#1131=DIRECTION('center_axis',(0.,1.,0.));
#1132=DIRECTION('ref_axis',(0.,0.,1.));
#1133=DIRECTION('',(0.,0.,1.));
#1134=DIRECTION('',(0.,0.,1.));
#1135=DIRECTION('center_axis',(-1.,0.,0.));
#1136=DIRECTION('ref_axis',(0.,0.,1.));
#1137=DIRECTION('',(0.,0.,-1.));
#1138=DIRECTION('center_axis',(-1.,0.,0.));
#1139=DIRECTION('ref_axis',(0.,0.,-1.));
#1140=DIRECTION('',(0.,0.,-1.));
#1141=DIRECTION('center_axis',(0.,-1.,0.));
#1142=DIRECTION('ref_axis',(0.,0.,-1.));
#1143=DIRECTION('center_axis',(-1.,0.,0.));
#1144=DIRECTION('ref_axis',(0.,0.,1.));
#1145=DIRECTION('',(0.,0.,1.));
#1146=DIRECTION('center_axis',(0.,-1.,0.));
#1147=DIRECTION('ref_axis',(1.,0.,0.));
#1148=DIRECTION('',(-0.672672793996313,0.,0.739940073395944));
#1149=DIRECTION('',(0.,0.,1.));
#1150=DIRECTION('center_axis',(0.739940073395944,0.,0.672672793996313));
#1151=DIRECTION('ref_axis',(-0.672672793996313,0.,0.739940073395944));
#1152=DIRECTION('',(0.,-1.,0.));
#1153=DIRECTION('',(-0.672672793996313,0.,0.739940073395944));
#1154=DIRECTION('center_axis',(1.,0.,0.));
#1155=DIRECTION('ref_axis',(0.,0.,1.));
#1156=DIRECTION('center_axis',(0.,-1.,0.));
#1157=DIRECTION('ref_axis',(0.,0.,-1.));
#1158=DIRECTION('',(0.,0.,-1.));
#1159=DIRECTION('center_axis',(0.,-0.447213595499957,-0.894427190999917));
#1160=DIRECTION('ref_axis',(0.,0.894427190999916,-0.447213595499957));
#1161=DIRECTION('',(1.,0.,0.));
#1162=DIRECTION('',(0.,-0.894427190999916,0.447213595499957));
#1163=DIRECTION('',(0.,0.894427190999916,-0.447213595499957));
#1164=DIRECTION('center_axis',(0.,-1.,0.));
#1165=DIRECTION('ref_axis',(0.,0.,-1.));
#1166=DIRECTION('',(0.,0.,-1.));
#1167=DIRECTION('',(1.,0.,0.));
#1168=DIRECTION('',(0.,0.,-1.));
#1169=DIRECTION('center_axis',(-1.,0.,0.));
#1170=DIRECTION('ref_axis',(0.,0.,1.));
#1171=DIRECTION('',(0.,1.,0.));
#1172=DIRECTION('center_axis',(0.,0.,-1.));
#1173=DIRECTION('ref_axis',(0.,1.,0.));
#1174=DIRECTION('',(0.,1.,0.));
#1175=DIRECTION('center_axis',(-1.,0.,0.));
#1176=DIRECTION('ref_axis',(0.,0.,1.));
#1177=CARTESIAN_POINT('',(0.,0.,0.));
#1178=CARTESIAN_POINT('Origin',(179.7,26.3,-184.3));
#1179=CARTESIAN_POINT('',(184.,0.,-184.3));
#1180=CARTESIAN_POINT('',(184.,26.3,-184.3));
#1181=CARTESIAN_POINT('',(184.,28.3,-184.3));
#1182=CARTESIAN_POINT('',(180.,26.3,-184.3));
#1183=CARTESIAN_POINT('',(179.7,26.3,-184.3));
#1184=CARTESIAN_POINT('',(180.,0.,-184.3));
#1185=CARTESIAN_POINT('',(180.,22.9,-184.3));
#1186=CARTESIAN_POINT('',(89.95,0.,-184.3));
#1187=CARTESIAN_POINT('Origin',(162.,26.3,-193.));
#1188=CARTESIAN_POINT('',(140.,26.3,-154.));
#1189=CARTESIAN_POINT('',(184.,26.3,-154.));
#1190=CARTESIAN_POINT('',(140.,26.3,-154.));
#1191=CARTESIAN_POINT('',(140.,26.3,-188.));
#1192=CARTESIAN_POINT('',(140.,26.3,-188.));
#1193=CARTESIAN_POINT('',(172.742424242424,26.3,-224.016666666667));
#1194=CARTESIAN_POINT('',(180.,26.3,-232.));
#1195=CARTESIAN_POINT('',(180.,26.3,-224.016666666667));
#1196=CARTESIAN_POINT('',(81.1,26.3,-224.016666666667));
#1197=CARTESIAN_POINT('',(180.,26.3,-193.));
#1198=CARTESIAN_POINT('',(184.,26.3,-153.85));
#1199=CARTESIAN_POINT('',(168.,26.3,-165.857864376269));
#1200=CARTESIAN_POINT('',(164.,26.3,-161.857864376269));
#1201=CARTESIAN_POINT('',(171.285533905933,26.3,-169.143398282202));
#1202=CARTESIAN_POINT('',(168.,26.3,-156.));
#1203=CARTESIAN_POINT('',(168.,26.3,-179.65));
#1204=CARTESIAN_POINT('',(177.,26.3,-156.));
#1205=CARTESIAN_POINT('',(165.,26.3,-156.));
#1206=CARTESIAN_POINT('',(177.,26.3,-176.3));
#1207=CARTESIAN_POINT('',(177.,26.3,-179.65));
#1208=CARTESIAN_POINT('',(171.731906288081,26.3,-176.3));
#1209=CARTESIAN_POINT('',(165.,26.3,-176.3));
#1210=CARTESIAN_POINT('',(152.,26.3,-174.));
#1211=CARTESIAN_POINT('Origin',(162.,26.3,-174.));
#1212=CARTESIAN_POINT('',(152.,26.3,-176.3));
#1213=CARTESIAN_POINT('',(152.,26.3,-179.65));
#1214=CARTESIAN_POINT('',(143.,26.3,-176.3));
#1215=CARTESIAN_POINT('',(152.5,26.3,-176.3));
#1216=CARTESIAN_POINT('',(143.,26.3,-156.));
#1217=CARTESIAN_POINT('',(143.,26.3,-179.65));
#1218=CARTESIAN_POINT('',(152.,26.3,-156.));
#1219=CARTESIAN_POINT('',(152.5,26.3,-156.));
#1220=CARTESIAN_POINT('',(152.,26.3,-179.65));
#1221=CARTESIAN_POINT('',(154.928932188134,26.3,-166.928932188135));
#1222=CARTESIAN_POINT('Origin',(162.,26.3,-174.));
#1223=CARTESIAN_POINT('',(160.,26.3,-161.857864376269));
#1224=CARTESIAN_POINT('',(150.178932188135,26.3,-171.678932188135));
#1225=CARTESIAN_POINT('',(161.,26.3,-161.857864376269));
#1226=CARTESIAN_POINT('Origin',(140.,30.3,-154.));
#1227=CARTESIAN_POINT('',(184.,39.,-154.));
#1228=CARTESIAN_POINT('',(184.,0.,-154.));
#1229=CARTESIAN_POINT('',(173.4,39.,-154.));
#1230=CARTESIAN_POINT('',(180.,39.,-154.));
#1231=CARTESIAN_POINT('',(173.4,37.,-154.));
#1232=CARTESIAN_POINT('',(173.4,37.,-154.));
#1233=CARTESIAN_POINT('',(180.,37.,-154.));
#1234=CARTESIAN_POINT('',(173.4,37.,-154.));
#1235=CARTESIAN_POINT('',(180.,30.3,-154.));
#1236=CARTESIAN_POINT('',(180.,0.,-154.));
#1237=CARTESIAN_POINT('',(140.,30.3,-154.));
#1238=CARTESIAN_POINT('',(140.,30.3,-154.));
#1239=CARTESIAN_POINT('',(140.,30.3,-154.));
#1240=CARTESIAN_POINT('Origin',(180.,19.5,-193.));
#1241=CARTESIAN_POINT('',(180.,4.,-198.));
#1242=CARTESIAN_POINT('',(180.,4.,-198.));
#1243=CARTESIAN_POINT('',(180.,0.,-196.));
#1244=CARTESIAN_POINT('',(180.,0.,-196.));
#1245=CARTESIAN_POINT('',(180.,0.,-232.));
#1246=CARTESIAN_POINT('Origin',(162.,41.,-174.));
#1247=CARTESIAN_POINT('',(169.071067811865,30.3,-166.928932188135));
#1248=CARTESIAN_POINT('',(154.928932188134,30.3,-166.928932188135));
#1249=CARTESIAN_POINT('Origin',(162.,30.3,-174.));
#1250=CARTESIAN_POINT('',(154.928932188134,41.,-166.928932188135));
#1251=CARTESIAN_POINT('',(169.071067811865,16.9289321881345,-166.928932188135));
#1252=CARTESIAN_POINT('Origin',(162.,24.,-174.));
#1253=CARTESIAN_POINT('',(169.071067811865,41.,-166.928932188135));
#1254=CARTESIAN_POINT('Origin',(154.928932188135,41.,-166.928932188135));
#1255=CARTESIAN_POINT('',(160.,30.3,-161.857864376269));
#1256=CARTESIAN_POINT('',(150.178932188135,30.3,-171.678932188135));
#1257=CARTESIAN_POINT('',(160.,41.,-161.857864376269));
#1258=CARTESIAN_POINT('Origin',(160.,41.,-161.857864376269));
#1259=CARTESIAN_POINT('',(164.,30.3,-161.857864376269));
#1260=CARTESIAN_POINT('',(161.,30.3,-161.857864376269));
#1261=CARTESIAN_POINT('',(164.,41.,-161.857864376269));
#1262=CARTESIAN_POINT('Origin',(164.,41.,-161.857864376269));
#1263=CARTESIAN_POINT('',(171.285533905933,30.3,-169.143398282202));
#1264=CARTESIAN_POINT('',(168.,15.8578643762691,-165.857864376269));
#1265=CARTESIAN_POINT('',(174.437734478532,22.2955988548012,-172.295598854801));
#1266=CARTESIAN_POINT('',(168.,30.65,-165.857864376269));
#1267=CARTESIAN_POINT('Origin',(168.,20.3,-166.3));
#1268=CARTESIAN_POINT('',(168.,14.,-164.));
#1269=CARTESIAN_POINT('',(168.,26.6,-176.6));
#1270=CARTESIAN_POINT('',(168.,14.,-156.));
#1271=CARTESIAN_POINT('',(168.,14.,-164.));
#1272=CARTESIAN_POINT('',(168.,14.,-156.));
#1273=CARTESIAN_POINT('Origin',(168.,14.,-156.));
#1274=CARTESIAN_POINT('',(177.,14.,-156.));
#1275=CARTESIAN_POINT('',(168.,14.,-156.));
#1276=CARTESIAN_POINT('',(177.,14.,-156.));
#1277=CARTESIAN_POINT('Origin',(168.,26.6,-176.6));
#1278=CARTESIAN_POINT('',(177.,14.,-164.));
#1279=CARTESIAN_POINT('',(177.,26.6,-176.6));
#1280=CARTESIAN_POINT('',(168.,14.,-164.));
#1281=CARTESIAN_POINT('Origin',(168.,14.,-164.));
#1282=CARTESIAN_POINT('',(177.,14.,-164.));
#1283=CARTESIAN_POINT('Origin',(177.,20.3,-166.3));
#1284=CARTESIAN_POINT('Origin',(143.,20.3,-166.3));
#1285=CARTESIAN_POINT('',(143.,14.,-164.));
#1286=CARTESIAN_POINT('',(143.,26.6,-176.6));
#1287=CARTESIAN_POINT('',(143.,14.,-156.));
#1288=CARTESIAN_POINT('',(143.,14.,-164.));
#1289=CARTESIAN_POINT('',(143.,14.,-156.));
#1290=CARTESIAN_POINT('Origin',(143.,14.,-156.));
#1291=CARTESIAN_POINT('',(152.,14.,-156.));
#1292=CARTESIAN_POINT('',(143.,14.,-156.));
#1293=CARTESIAN_POINT('',(152.,14.,-156.));
#1294=CARTESIAN_POINT('Origin',(143.,26.6,-176.6));
#1295=CARTESIAN_POINT('',(152.,14.,-164.));
#1296=CARTESIAN_POINT('',(152.,26.6,-176.6));
#1297=CARTESIAN_POINT('',(143.,14.,-164.));
#1298=CARTESIAN_POINT('Origin',(143.,14.,-164.));
#1299=CARTESIAN_POINT('',(152.,14.,-164.));
#1300=CARTESIAN_POINT('Origin',(152.,20.3,-166.3));
#1301=CARTESIAN_POINT('Origin',(140.,14.,-214.));
#1302=CARTESIAN_POINT('',(140.,4.,-226.));
#1303=CARTESIAN_POINT('',(140.,4.,-232.));
#1304=CARTESIAN_POINT('',(140.,4.,-220.));
#1305=CARTESIAN_POINT('',(140.,25.6,-232.));
#1306=CARTESIAN_POINT('',(140.,28.,-232.));
#1307=CARTESIAN_POINT('',(140.,25.6,-227.));
#1308=CARTESIAN_POINT('',(140.,25.6,-223.));
#1309=CARTESIAN_POINT('',(140.,0.,-201.));
#1310=CARTESIAN_POINT('',(140.,19.4953491166927,-220.799963946641));
#1311=CARTESIAN_POINT('',(140.,0.,-226.));
#1312=CARTESIAN_POINT('',(140.,0.,-232.));
#1313=CARTESIAN_POINT('',(140.,7.,-226.));
#1314=CARTESIAN_POINT('Origin',(0.2,28.,-232.));
#1315=CARTESIAN_POINT('',(136.,25.6,-232.));
#1316=CARTESIAN_POINT('',(136.,0.,-232.));
#1317=CARTESIAN_POINT('',(136.,28.,-232.));
#1318=CARTESIAN_POINT('',(0.2,25.6,-232.));
#1319=CARTESIAN_POINT('',(0.2,25.6,-232.));
#1320=CARTESIAN_POINT('',(0.2,28.,-232.));
#1321=CARTESIAN_POINT('',(0.2,28.,-232.));
#1322=CARTESIAN_POINT('',(180.,28.,-232.));
#1323=CARTESIAN_POINT('',(0.2,28.,-232.));
#1324=CARTESIAN_POINT('',(180.,30.3,-232.));
#1325=CARTESIAN_POINT('',(180.,30.3,-232.));
#1326=CARTESIAN_POINT('',(180.,37.,-232.));
#1327=CARTESIAN_POINT('',(180.,39.,-232.));
#1328=CARTESIAN_POINT('',(173.4,37.,-232.));
#1329=CARTESIAN_POINT('',(173.4,37.,-232.));
#1330=CARTESIAN_POINT('',(173.4,39.,-232.));
#1331=CARTESIAN_POINT('',(173.4,39.,-232.));
#1332=CARTESIAN_POINT('',(184.,39.,-232.));
#1333=CARTESIAN_POINT('',(180.,39.,-232.));
#1334=CARTESIAN_POINT('',(184.,0.,-232.));
#1335=CARTESIAN_POINT('',(184.,39.,-232.));
#1336=CARTESIAN_POINT('',(136.,0.,-232.));
#1337=CARTESIAN_POINT('',(180.,4.,-232.));
#1338=CARTESIAN_POINT('',(136.,4.,-232.));
#1339=CARTESIAN_POINT('',(180.,25.6,-232.));
#1340=CARTESIAN_POINT('',(180.,39.,-232.));
#1341=CARTESIAN_POINT('',(0.2,25.6,-232.));
#1342=CARTESIAN_POINT('Origin',(0.2,4.,-198.));
#1343=CARTESIAN_POINT('',(0.2,4.,-198.));
#1344=CARTESIAN_POINT('',(0.2,4.,-198.));
#1345=CARTESIAN_POINT('',(174.545454545455,28.,-226.));
#1346=CARTESIAN_POINT('',(140.090418175831,-4.48617714850181,-188.099459993415));
#1347=CARTESIAN_POINT('',(0.2,28.,-226.));
#1348=CARTESIAN_POINT('',(0.2,28.,-226.));
#1349=CARTESIAN_POINT('',(0.2,4.,-198.));
#1350=CARTESIAN_POINT('Origin',(0.2,25.6,-232.));
#1351=CARTESIAN_POINT('',(136.,25.6,-227.));
#1352=CARTESIAN_POINT('',(136.,25.6,-223.));
#1353=CARTESIAN_POINT('',(0.2,25.6,-227.));
#1354=CARTESIAN_POINT('',(0.2,25.6,-227.));
#1355=CARTESIAN_POINT('',(0.2,25.6,-232.));
#1356=CARTESIAN_POINT('Origin',(0.2,25.6,-232.));
#1357=CARTESIAN_POINT('',(180.,25.6,-227.));
#1358=CARTESIAN_POINT('',(180.,25.6,-232.));
#1359=CARTESIAN_POINT('',(0.2,25.6,-227.));
#1360=CARTESIAN_POINT('Origin',(0.2,25.6,-227.));
#1361=CARTESIAN_POINT('',(136.,0.,-201.));
#1362=CARTESIAN_POINT('',(136.,19.4953491166927,-220.799963946641));
#1363=CARTESIAN_POINT('',(0.2,0.,-201.));
#1364=CARTESIAN_POINT('',(0.2,0.,-201.));
#1365=CARTESIAN_POINT('',(0.2,25.6,-227.));
#1366=CARTESIAN_POINT('Origin',(0.2,25.6,-227.));
#1367=CARTESIAN_POINT('',(180.,0.,-201.));
#1368=CARTESIAN_POINT('',(180.,25.6,-227.));
#1369=CARTESIAN_POINT('',(0.2,0.,-201.));
#1370=CARTESIAN_POINT('Origin',(0.2,0.,-198.));
#1371=CARTESIAN_POINT('',(139.,0.,-196.));
#1372=CARTESIAN_POINT('',(0.2,0.,-196.));
#1373=CARTESIAN_POINT('',(139.,0.,-154.));
#1374=CARTESIAN_POINT('',(139.,0.,-198.));
#1375=CARTESIAN_POINT('',(0.2,0.,-154.));
#1376=CARTESIAN_POINT('',(0.2,0.,-154.));
#1377=CARTESIAN_POINT('',(0.2,0.,-198.));
#1378=CARTESIAN_POINT('',(136.,0.,-232.));
#1379=CARTESIAN_POINT('',(184.,0.,-232.));
#1380=CARTESIAN_POINT('',(180.,0.,-226.));
#1381=CARTESIAN_POINT('',(136.,0.,-226.));
#1382=CARTESIAN_POINT('',(180.,0.,-232.));
#1383=CARTESIAN_POINT('Origin',(136.,0.,-226.));
#1384=CARTESIAN_POINT('',(180.,4.,-226.));
#1385=CARTESIAN_POINT('',(180.,9.75,-226.));
#1386=CARTESIAN_POINT('',(136.,4.,-226.));
#1387=CARTESIAN_POINT('Origin',(136.,4.,-226.));
#1388=CARTESIAN_POINT('',(180.,4.,-209.5));
#1389=CARTESIAN_POINT('Origin',(136.,2.,-229.));
#1390=CARTESIAN_POINT('Origin',(180.,19.5,-193.));
#1391=CARTESIAN_POINT('Origin',(173.4,37.,-232.));
#1392=CARTESIAN_POINT('',(180.,37.,-212.5));
#1393=CARTESIAN_POINT('',(173.4,37.,-232.));
#1394=CARTESIAN_POINT('Origin',(173.4,38.,-193.));
#1395=CARTESIAN_POINT('',(173.4,39.,-154.));
#1396=CARTESIAN_POINT('Origin',(184.,30.3,-154.));
#1397=CARTESIAN_POINT('',(184.,39.,-154.));
#1398=CARTESIAN_POINT('Origin',(180.,39.,-154.));
#1399=CARTESIAN_POINT('Origin',(180.,19.5,-193.));
#1400=CARTESIAN_POINT('',(180.,30.3,-193.));
#1401=CARTESIAN_POINT('Origin',(162.,30.3,-193.));
#1402=CARTESIAN_POINT('',(140.,30.3,-188.));
#1403=CARTESIAN_POINT('',(180.,30.3,-232.));
#1404=CARTESIAN_POINT('',(140.,30.3,-188.));
#1405=CARTESIAN_POINT('Origin',(180.,30.3,-232.));
#1406=CARTESIAN_POINT('',(140.,30.3,-188.));
#1407=CARTESIAN_POINT('',(137.828054298643,28.,-185.610859728507));
#1408=CARTESIAN_POINT('Origin',(140.,30.3,-188.));
#1409=CARTESIAN_POINT('Origin',(0.2,28.,-226.));
#1410=CARTESIAN_POINT('',(0.2,28.,-226.));
#1411=CARTESIAN_POINT('Origin',(0.2,0.,-196.));
#1412=CARTESIAN_POINT('',(0.2,2.,-197.));
#1413=CARTESIAN_POINT('',(139.,2.,-197.));
#1414=CARTESIAN_POINT('',(0.2,2.,-197.));
#1415=CARTESIAN_POINT('',(139.,-3.59999999999999,-194.2));
#1416=CARTESIAN_POINT('',(0.2,0.,-196.));
#1417=CARTESIAN_POINT('Origin',(0.2,2.,-154.));
#1418=CARTESIAN_POINT('',(0.2,2.,-154.));
#1419=CARTESIAN_POINT('',(0.2,2.,-154.));
#1420=CARTESIAN_POINT('',(139.,2.,-154.));
#1421=CARTESIAN_POINT('',(0.2,2.,-154.));
#1422=CARTESIAN_POINT('',(139.,2.,-154.));
#1423=CARTESIAN_POINT('Origin',(139.,1.,-176.));
#1424=CARTESIAN_POINT('',(139.,0.,-154.));
#1425=CARTESIAN_POINT('Origin',(0.2,0.,-154.));
#1426=CARTESIAN_POINT('',(0.2,0.,-154.));
#1427=CARTESIAN_POINT('Origin',(0.2,1.,-176.));
#1428=UNCERTAINTY_MEASURE_WITH_UNIT(LENGTH_MEASURE(0.01),#1432,
'DISTANCE_ACCURACY_VALUE',
'Maximum model space distance between geometric entities at asserted c
onnectivities');
#1429=UNCERTAINTY_MEASURE_WITH_UNIT(LENGTH_MEASURE(0.01),#1432,
'DISTANCE_ACCURACY_VALUE',
'Maximum model space distance between geometric entities at asserted c
onnectivities');
#1430=(
GEOMETRIC_REPRESENTATION_CONTEXT(3)
GLOBAL_UNCERTAINTY_ASSIGNED_CONTEXT((#1428))
GLOBAL_UNIT_ASSIGNED_CONTEXT((#1432,#1434,#1435))
REPRESENTATION_CONTEXT('','3D')
);
#1431=(
GEOMETRIC_REPRESENTATION_CONTEXT(3)
GLOBAL_UNCERTAINTY_ASSIGNED_CONTEXT((#1429))
GLOBAL_UNIT_ASSIGNED_CONTEXT((#1432,#1434,#1435))
REPRESENTATION_CONTEXT('','3D')
);
#1432=(
LENGTH_UNIT()
NAMED_UNIT(*)
SI_UNIT(.MILLI.,.METRE.)
);
#1433=(
LENGTH_UNIT()
NAMED_UNIT(*)
SI_UNIT($,.METRE.)
);
#1434=(
NAMED_UNIT(*)
PLANE_ANGLE_UNIT()
SI_UNIT($,.RADIAN.)
);
#1435=(
NAMED_UNIT(*)
SI_UNIT($,.STERADIAN.)
SOLID_ANGLE_UNIT()
);
#1436=SHAPE_DEFINITION_REPRESENTATION(#1437,#1438);
#1437=PRODUCT_DEFINITION_SHAPE('',$,#1440);
#1438=SHAPE_REPRESENTATION('',(#910),#1430);
#1439=PRODUCT_DEFINITION_CONTEXT('part definition',#1444,'design');
#1440=PRODUCT_DEFINITION('5560-F-RAIL-L','rail LH',#1441,#1439);
#1441=PRODUCT_DEFINITION_FORMATION('',$,#1446);
#1442=PRODUCT_RELATED_PRODUCT_CATEGORY('rail LH','rail LH',(#1446));
#1443=APPLICATION_PROTOCOL_DEFINITION('international standard',
'automotive_design',2009,#1444);
#1444=APPLICATION_CONTEXT(
'Core Data for Automotive Mechanical Design Process');
#1445=PRODUCT_CONTEXT('part definition',#1444,'mechanical');
#1446=PRODUCT('5560-F-RAIL-L','rail LH',
'Native Revision F | dimensions in mm | see fusion/README.md',(#1445));
#1447=PRESENTATION_STYLE_ASSIGNMENT((#1448));
#1448=SURFACE_STYLE_USAGE(.BOTH.,#1449);
#1449=SURFACE_SIDE_STYLE('',(#1450));
#1450=SURFACE_STYLE_FILL_AREA(#1451);
#1451=FILL_AREA_STYLE('Steel - Satin',(#1452));
#1452=FILL_AREA_STYLE_COLOUR('Steel - Satin',#1453);
#1453=COLOUR_RGB('Steel - Satin',0.627450980392157,0.627450980392157,0.627450980392157);
ENDSEC;
END-ISO-10303-21;
