ISO-10303-21;
HEADER;
FILE_DESCRIPTION(('FreeCAD Model'),'2;1');
FILE_NAME('Open CASCADE Shape Model','2026-09-08T10:22:30',('FreeCAD'),(
    'FreeCAD'),'Open CASCADE STEP processor 7.8','FreeCAD','Unknown');
FILE_SCHEMA(('AUTOMOTIVE_DESIGN { 1 0 10303 214 1 1 1 1 }'));
ENDSEC;
DATA;
#1 = APPLICATION_PROTOCOL_DEFINITION('international standard',
  'automotive_design',2000,#2);
#2 = APPLICATION_CONTEXT(
  'core data for automotive mechanical design processes');
#3 = SHAPE_DEFINITION_REPRESENTATION(#4,#10);
#4 = PRODUCT_DEFINITION_SHAPE('','',#5);
#5 = PRODUCT_DEFINITION('design','',#6,#9);
#6 = PRODUCT_DEFINITION_FORMATION('','',#7);
#7 = PRODUCT('Open CASCADE STEP translator 7.8 1',
  'Open CASCADE STEP translator 7.8 1','',(#8));
#8 = PRODUCT_CONTEXT('',#2,'mechanical');
#9 = PRODUCT_DEFINITION_CONTEXT('part definition',#2,'design');
#10 = ADVANCED_BREP_SHAPE_REPRESENTATION('',(#11,#15),#639);
#11 = AXIS2_PLACEMENT_3D('',#12,#13,#14);
#12 = CARTESIAN_POINT('',(0.,0.,0.));
#13 = DIRECTION('',(0.,0.,1.));
#14 = DIRECTION('',(1.,0.,-0.));
#15 = MANIFOLD_SOLID_BREP('',#16);
#16 = CLOSED_SHELL('',(#17,#175,#206,#230,#254,#278,#302,#319,#350,#374,
    #398,#415,#446,#470,#494,#511,#542,#566,#590,#607));
#17 = ADVANCED_FACE('',(#18,#68,#102,#136),#170,.T.);
#18 = FACE_BOUND('',#19,.T.);
#19 = EDGE_LOOP('',(#20,#30,#38,#46,#54,#62));
#20 = ORIENTED_EDGE('',*,*,#21,.T.);
#21 = EDGE_CURVE('',#22,#24,#26,.T.);
#22 = VERTEX_POINT('',#23);
#23 = CARTESIAN_POINT('',(46.5,93.,5.684341886081E-14));
#24 = VERTEX_POINT('',#25);
#25 = CARTESIAN_POINT('',(83.5,93.,5.684341886081E-14));
#26 = LINE('',#27,#28);
#27 = CARTESIAN_POINT('',(-93.5,93.,2.84217094304E-14));
#28 = VECTOR('',#29,1.);
#29 = DIRECTION('',(1.,0.,1.110223024625E-16));
#30 = ORIENTED_EDGE('',*,*,#31,.T.);
#31 = EDGE_CURVE('',#24,#32,#34,.T.);
#32 = VERTEX_POINT('',#33);
#33 = CARTESIAN_POINT('',(83.5,77.,0.));
#34 = LINE('',#35,#36);
#35 = CARTESIAN_POINT('',(83.5,78.805008672715,5.684341886081E-14));
#36 = VECTOR('',#37,1.);
#37 = DIRECTION('',(4.662936703426E-32,-1.,-4.2E-16));
#38 = ORIENTED_EDGE('',*,*,#39,.T.);
#39 = EDGE_CURVE('',#32,#40,#42,.T.);
#40 = VERTEX_POINT('',#41);
#41 = CARTESIAN_POINT('',(66.74,77.,2.84217094304E-14));
#42 = LINE('',#43,#44);
#43 = CARTESIAN_POINT('',(17.554428037294,77.,2.378122772976E-14));
#44 = VECTOR('',#45,1.);
#45 = DIRECTION('',(-1.,2.2E-16,1.089776975375E-16));
#46 = ORIENTED_EDGE('',*,*,#47,.F.);
#47 = EDGE_CURVE('',#48,#40,#50,.T.);
#48 = VERTEX_POINT('',#49);
#49 = CARTESIAN_POINT('',(54.74,77.,2.84217094304E-14));
#50 = LINE('',#51,#52);
#51 = CARTESIAN_POINT('',(8.688423975598,77.,2.84217094304E-14));
#52 = VECTOR('',#53,1.);
#53 = DIRECTION('',(1.,0.,1.110223024625E-16));
#54 = ORIENTED_EDGE('',*,*,#55,.T.);
#55 = EDGE_CURVE('',#48,#56,#58,.T.);
#56 = VERTEX_POINT('',#57);
#57 = CARTESIAN_POINT('',(46.5,77.,5.684341886081E-14));
#58 = LINE('',#59,#60);
#59 = CARTESIAN_POINT('',(-0.475571962706,77.,2.533949561636E-14));
#60 = VECTOR('',#61,1.);
#61 = DIRECTION('',(-1.,2.2E-16,1.089776975375E-16));
#62 = ORIENTED_EDGE('',*,*,#63,.F.);
#63 = EDGE_CURVE('',#22,#56,#64,.T.);
#64 = LINE('',#65,#66);
#65 = CARTESIAN_POINT('',(46.5,78.805008672715,5.684341886081E-14));
#66 = VECTOR('',#67,1.);
#67 = DIRECTION('',(4.662936703426E-32,-1.,-4.2E-16));
#68 = FACE_BOUND('',#69,.T.);
#69 = EDGE_LOOP('',(#70,#80,#88,#96));
#70 = ORIENTED_EDGE('',*,*,#71,.T.);
#71 = EDGE_CURVE('',#72,#74,#76,.T.);
#72 = VERTEX_POINT('',#73);
#73 = CARTESIAN_POINT('',(55.3,90.3,5.684341886081E-14));
#74 = VERTEX_POINT('',#75);
#75 = CARTESIAN_POINT('',(49.7,90.3,5.684341886081E-14));
#76 = LINE('',#77,#78);
#77 = CARTESIAN_POINT('',(10.288423975598,90.3,4.018453922913E-14));
#78 = VECTOR('',#79,1.);
#79 = DIRECTION('',(-1.,2.2E-16,-1.110223024625E-16));
#80 = ORIENTED_EDGE('',*,*,#81,.T.);
#81 = EDGE_CURVE('',#74,#82,#84,.T.);
#82 = VERTEX_POINT('',#83);
#83 = CARTESIAN_POINT('',(49.7,81.7,5.684341886081E-14));
#84 = LINE('',#85,#86);
#85 = CARTESIAN_POINT('',(49.7,81.155008672715,4.076010314304E-14));
#86 = VECTOR('',#87,1.);
#87 = DIRECTION('',(-2.2E-16,-1.,-4.2E-16));
#88 = ORIENTED_EDGE('',*,*,#89,.T.);
#89 = EDGE_CURVE('',#82,#90,#92,.T.);
#90 = VERTEX_POINT('',#91);
#91 = CARTESIAN_POINT('',(55.3,81.7,5.684341886081E-14));
#92 = LINE('',#93,#94);
#93 = CARTESIAN_POINT('',(13.088423975598,81.7,3.692540167603E-14));
#94 = VECTOR('',#95,1.);
#95 = DIRECTION('',(1.,-2.2E-16,1.110223024625E-16));
#96 = ORIENTED_EDGE('',*,*,#97,.T.);
#97 = EDGE_CURVE('',#90,#72,#98,.T.);
#98 = LINE('',#99,#100);
#99 = CARTESIAN_POINT('',(55.3,85.455008672715,4.316182803683E-14));
#100 = VECTOR('',#101,1.);
#101 = DIRECTION('',(2.2E-16,1.,4.2E-16));
#102 = FACE_BOUND('',#103,.T.);
#103 = EDGE_LOOP('',(#104,#114,#122,#130));
#104 = ORIENTED_EDGE('',*,*,#105,.T.);
#105 = EDGE_CURVE('',#106,#108,#110,.T.);
#106 = VERTEX_POINT('',#107);
#107 = CARTESIAN_POINT('',(67.3,90.3,5.684341886081E-14));
#108 = VERTEX_POINT('',#109);
#109 = CARTESIAN_POINT('',(61.7,90.3,5.684341886081E-14));
#110 = LINE('',#111,#112);
#111 = CARTESIAN_POINT('',(16.288423975598,90.3,4.085067304391E-14));
#112 = VECTOR('',#113,1.);
#113 = DIRECTION('',(-1.,2.2E-16,-1.110223024625E-16));
#114 = ORIENTED_EDGE('',*,*,#115,.T.);
#115 = EDGE_CURVE('',#108,#116,#118,.T.);
#116 = VERTEX_POINT('',#117);
#117 = CARTESIAN_POINT('',(61.7,81.7,5.684341886081E-14));
#118 = LINE('',#119,#120);
#119 = CARTESIAN_POINT('',(61.7,81.155008672715,4.209237077259E-14));
#120 = VECTOR('',#121,1.);
#121 = DIRECTION('',(-2.2E-16,-1.,-4.2E-16));
#122 = ORIENTED_EDGE('',*,*,#123,.T.);
#123 = EDGE_CURVE('',#116,#124,#126,.T.);
#124 = VERTEX_POINT('',#125);
#125 = CARTESIAN_POINT('',(67.3,81.7,5.684341886081E-14));
#126 = LINE('',#127,#128);
#127 = CARTESIAN_POINT('',(19.088423975598,81.7,3.75915354908E-14));
#128 = VECTOR('',#129,1.);
#129 = DIRECTION('',(1.,-2.2E-16,1.110223024625E-16));
#130 = ORIENTED_EDGE('',*,*,#131,.T.);
#131 = EDGE_CURVE('',#124,#106,#132,.T.);
#132 = LINE('',#133,#134);
#133 = CARTESIAN_POINT('',(67.3,85.455008672715,4.449409566638E-14));
#134 = VECTOR('',#135,1.);
#135 = DIRECTION('',(2.2E-16,1.,4.2E-16));
#136 = FACE_BOUND('',#137,.T.);
#137 = EDGE_LOOP('',(#138,#148,#156,#164));
#138 = ORIENTED_EDGE('',*,*,#139,.T.);
#139 = EDGE_CURVE('',#140,#142,#144,.T.);
#140 = VERTEX_POINT('',#141);
#141 = CARTESIAN_POINT('',(79.3,90.3,5.684341886081E-14));
#142 = VERTEX_POINT('',#143);
#143 = CARTESIAN_POINT('',(73.7,90.3,5.684341886081E-14));
#144 = LINE('',#145,#146);
#145 = CARTESIAN_POINT('',(22.288423975598,90.3,4.151680685868E-14));
#146 = VECTOR('',#147,1.);
#147 = DIRECTION('',(-1.,2.2E-16,-1.110223024625E-16));
#148 = ORIENTED_EDGE('',*,*,#149,.T.);
#149 = EDGE_CURVE('',#142,#150,#152,.T.);
#150 = VERTEX_POINT('',#151);
#151 = CARTESIAN_POINT('',(73.7,81.7,5.684341886081E-14));
#152 = LINE('',#153,#154);
#153 = CARTESIAN_POINT('',(73.7,81.155008672715,4.342463840214E-14));
#154 = VECTOR('',#155,1.);
#155 = DIRECTION('',(-2.2E-16,-1.,-4.2E-16));
#156 = ORIENTED_EDGE('',*,*,#157,.T.);
#157 = EDGE_CURVE('',#150,#158,#160,.T.);
#158 = VERTEX_POINT('',#159);
#159 = CARTESIAN_POINT('',(79.3,81.7,5.684341886081E-14));
#160 = LINE('',#161,#162);
#161 = CARTESIAN_POINT('',(25.088423975598,81.7,3.825766930558E-14));
#162 = VECTOR('',#163,1.);
#163 = DIRECTION('',(1.,-2.2E-16,1.110223024625E-16));
#164 = ORIENTED_EDGE('',*,*,#165,.T.);
#165 = EDGE_CURVE('',#158,#140,#166,.T.);
#166 = LINE('',#167,#168);
#167 = CARTESIAN_POINT('',(79.3,85.455008672715,4.582636329593E-14));
#168 = VECTOR('',#169,1.);
#169 = DIRECTION('',(2.2E-16,1.,4.2E-16));
#170 = PLANE('',#171);
#171 = AXIS2_PLACEMENT_3D('',#172,#173,#174);
#172 = CARTESIAN_POINT('',(-29.1231520488,80.610017345431,
    3.200897531523E-14));
#173 = DIRECTION('',(1.110223024625E-16,4.2E-16,-1.));
#174 = DIRECTION('',(-4.662936703426E-32,1.,4.2E-16));
#175 = ADVANCED_FACE('',(#176),#201,.F.);
#176 = FACE_BOUND('',#177,.F.);
#177 = EDGE_LOOP('',(#178,#188,#194,#195));
#178 = ORIENTED_EDGE('',*,*,#179,.F.);
#179 = EDGE_CURVE('',#180,#182,#184,.T.);
#180 = VERTEX_POINT('',#181);
#181 = CARTESIAN_POINT('',(46.5,93.,12.));
#182 = VERTEX_POINT('',#183);
#183 = CARTESIAN_POINT('',(83.5,93.,12.));
#184 = LINE('',#185,#186);
#185 = CARTESIAN_POINT('',(-93.5,93.,12.));
#186 = VECTOR('',#187,1.);
#187 = DIRECTION('',(1.,0.,1.110223024625E-16));
#188 = ORIENTED_EDGE('',*,*,#189,.T.);
#189 = EDGE_CURVE('',#180,#22,#190,.T.);
#190 = LINE('',#191,#192);
#191 = CARTESIAN_POINT('',(46.5,93.,35.));
#192 = VECTOR('',#193,1.);
#193 = DIRECTION('',(1.110223024625E-16,0.,-1.));
#194 = ORIENTED_EDGE('',*,*,#21,.T.);
#195 = ORIENTED_EDGE('',*,*,#196,.F.);
#196 = EDGE_CURVE('',#182,#24,#197,.T.);
#197 = LINE('',#198,#199);
#198 = CARTESIAN_POINT('',(83.5,93.,35.));
#199 = VECTOR('',#200,1.);
#200 = DIRECTION('',(1.110223024625E-16,0.,-1.));
#201 = PLANE('',#202);
#202 = AXIS2_PLACEMENT_3D('',#203,#204,#205);
#203 = CARTESIAN_POINT('',(-93.5,93.,12.));
#204 = DIRECTION('',(-2.2E-16,-1.,-2.442490654175E-32));
#205 = DIRECTION('',(1.,-2.2E-16,-1.089776975375E-16));
#206 = ADVANCED_FACE('',(#207),#225,.F.);
#207 = FACE_BOUND('',#208,.F.);
#208 = EDGE_LOOP('',(#209,#210,#218,#224));
#209 = ORIENTED_EDGE('',*,*,#189,.F.);
#210 = ORIENTED_EDGE('',*,*,#211,.T.);
#211 = EDGE_CURVE('',#180,#212,#214,.T.);
#212 = VERTEX_POINT('',#213);
#213 = CARTESIAN_POINT('',(46.5,77.,12.));
#214 = LINE('',#215,#216);
#215 = CARTESIAN_POINT('',(46.5,79.234669875936,12.));
#216 = VECTOR('',#217,1.);
#217 = DIRECTION('',(4.884981308351E-32,-1.,-4.4E-16));
#218 = ORIENTED_EDGE('',*,*,#219,.T.);
#219 = EDGE_CURVE('',#212,#56,#220,.T.);
#220 = LINE('',#221,#222);
#221 = CARTESIAN_POINT('',(46.5,77.,35.));
#222 = VECTOR('',#223,1.);
#223 = DIRECTION('',(1.110223024625E-16,0.,-1.));
#224 = ORIENTED_EDGE('',*,*,#63,.F.);
#225 = PLANE('',#226);
#226 = AXIS2_PLACEMENT_3D('',#227,#228,#229);
#227 = CARTESIAN_POINT('',(46.5,77.,35.));
#228 = DIRECTION('',(1.,0.,1.110223024625E-16));
#229 = DIRECTION('',(1.110223024625E-16,0.,-1.));
#230 = ADVANCED_FACE('',(#231),#249,.T.);
#231 = FACE_BOUND('',#232,.T.);
#232 = EDGE_LOOP('',(#233,#241,#242,#243));
#233 = ORIENTED_EDGE('',*,*,#234,.T.);
#234 = EDGE_CURVE('',#235,#212,#237,.T.);
#235 = VERTEX_POINT('',#236);
#236 = CARTESIAN_POINT('',(54.74,77.,12.));
#237 = LINE('',#238,#239);
#238 = CARTESIAN_POINT('',(-0.475571962706,77.,12.));
#239 = VECTOR('',#240,1.);
#240 = DIRECTION('',(-1.,2.2E-16,1.089776975375E-16));
#241 = ORIENTED_EDGE('',*,*,#219,.T.);
#242 = ORIENTED_EDGE('',*,*,#55,.F.);
#243 = ORIENTED_EDGE('',*,*,#244,.F.);
#244 = EDGE_CURVE('',#235,#48,#245,.T.);
#245 = LINE('',#246,#247);
#246 = CARTESIAN_POINT('',(54.74,77.,13.));
#247 = VECTOR('',#248,1.);
#248 = DIRECTION('',(1.110223024625E-16,0.,-1.));
#249 = PLANE('',#250);
#250 = AXIS2_PLACEMENT_3D('',#251,#252,#253);
#251 = CARTESIAN_POINT('',(30.68,77.,13.));
#252 = DIRECTION('',(-2.2E-16,-1.,-2.442490654175E-32));
#253 = DIRECTION('',(1.,-2.2E-16,-1.089776975375E-16));
#254 = ADVANCED_FACE('',(#255),#273,.F.);
#255 = FACE_BOUND('',#256,.F.);
#256 = EDGE_LOOP('',(#257,#258,#266,#272));
#257 = ORIENTED_EDGE('',*,*,#244,.F.);
#258 = ORIENTED_EDGE('',*,*,#259,.T.);
#259 = EDGE_CURVE('',#235,#260,#262,.T.);
#260 = VERTEX_POINT('',#261);
#261 = CARTESIAN_POINT('',(66.74,77.,12.));
#262 = LINE('',#263,#264);
#263 = CARTESIAN_POINT('',(7.434428037294,77.,12.));
#264 = VECTOR('',#265,1.);
#265 = DIRECTION('',(1.,0.,-1.089776975375E-16));
#266 = ORIENTED_EDGE('',*,*,#267,.T.);
#267 = EDGE_CURVE('',#260,#40,#268,.T.);
#268 = LINE('',#269,#270);
#269 = CARTESIAN_POINT('',(66.74,77.,13.));
#270 = VECTOR('',#271,1.);
#271 = DIRECTION('',(1.110223024625E-16,0.,-1.));
#272 = ORIENTED_EDGE('',*,*,#47,.F.);
#273 = PLANE('',#274);
#274 = AXIS2_PLACEMENT_3D('',#275,#276,#277);
#275 = CARTESIAN_POINT('',(46.5,77.,35.));
#276 = DIRECTION('',(0.,1.,0.));
#277 = DIRECTION('',(1.,0.,1.110223024625E-16));
#278 = ADVANCED_FACE('',(#279),#297,.T.);
#279 = FACE_BOUND('',#280,.T.);
#280 = EDGE_LOOP('',(#281,#289,#295,#296));
#281 = ORIENTED_EDGE('',*,*,#282,.F.);
#282 = EDGE_CURVE('',#283,#32,#285,.T.);
#283 = VERTEX_POINT('',#284);
#284 = CARTESIAN_POINT('',(83.5,77.,12.));
#285 = LINE('',#286,#287);
#286 = CARTESIAN_POINT('',(83.5,77.,35.));
#287 = VECTOR('',#288,1.);
#288 = DIRECTION('',(1.110223024625E-16,0.,-1.));
#289 = ORIENTED_EDGE('',*,*,#290,.T.);
#290 = EDGE_CURVE('',#283,#260,#291,.T.);
#291 = LINE('',#292,#293);
#292 = CARTESIAN_POINT('',(17.554428037294,77.,12.));
#293 = VECTOR('',#294,1.);
#294 = DIRECTION('',(-1.,2.2E-16,1.089776975375E-16));
#295 = ORIENTED_EDGE('',*,*,#267,.T.);
#296 = ORIENTED_EDGE('',*,*,#39,.F.);
#297 = PLANE('',#298);
#298 = AXIS2_PLACEMENT_3D('',#299,#300,#301);
#299 = CARTESIAN_POINT('',(66.74,77.,13.));
#300 = DIRECTION('',(-2.2E-16,-1.,-2.442490654175E-32));
#301 = DIRECTION('',(1.,-2.2E-16,-1.089776975375E-16));
#302 = ADVANCED_FACE('',(#303),#314,.T.);
#303 = FACE_BOUND('',#304,.T.);
#304 = EDGE_LOOP('',(#305,#306,#312,#313));
#305 = ORIENTED_EDGE('',*,*,#196,.F.);
#306 = ORIENTED_EDGE('',*,*,#307,.T.);
#307 = EDGE_CURVE('',#182,#283,#308,.T.);
#308 = LINE('',#309,#310);
#309 = CARTESIAN_POINT('',(83.5,79.234669875936,12.));
#310 = VECTOR('',#311,1.);
#311 = DIRECTION('',(4.884981308351E-32,-1.,-4.4E-16));
#312 = ORIENTED_EDGE('',*,*,#282,.T.);
#313 = ORIENTED_EDGE('',*,*,#31,.F.);
#314 = PLANE('',#315);
#315 = AXIS2_PLACEMENT_3D('',#316,#317,#318);
#316 = CARTESIAN_POINT('',(83.5,77.,35.));
#317 = DIRECTION('',(1.,0.,1.110223024625E-16));
#318 = DIRECTION('',(1.110223024625E-16,0.,-1.));
#319 = ADVANCED_FACE('',(#320),#345,.T.);
#320 = FACE_BOUND('',#321,.T.);
#321 = EDGE_LOOP('',(#322,#332,#338,#339));
#322 = ORIENTED_EDGE('',*,*,#323,.T.);
#323 = EDGE_CURVE('',#324,#326,#328,.T.);
#324 = VERTEX_POINT('',#325);
#325 = CARTESIAN_POINT('',(55.3,90.3,12.));
#326 = VERTEX_POINT('',#327);
#327 = CARTESIAN_POINT('',(49.7,90.3,12.));
#328 = LINE('',#329,#330);
#329 = CARTESIAN_POINT('',(9.034428037294,90.3,12.));
#330 = VECTOR('',#331,1.);
#331 = DIRECTION('',(-1.,2.2E-16,1.089776975375E-16));
#332 = ORIENTED_EDGE('',*,*,#333,.T.);
#333 = EDGE_CURVE('',#326,#74,#334,.T.);
#334 = LINE('',#335,#336);
#335 = CARTESIAN_POINT('',(49.7,90.3,13.));
#336 = VECTOR('',#337,1.);
#337 = DIRECTION('',(1.110223024625E-16,0.,-1.));
#338 = ORIENTED_EDGE('',*,*,#71,.F.);
#339 = ORIENTED_EDGE('',*,*,#340,.F.);
#340 = EDGE_CURVE('',#324,#72,#341,.T.);
#341 = LINE('',#342,#343);
#342 = CARTESIAN_POINT('',(55.3,90.3,13.));
#343 = VECTOR('',#344,1.);
#344 = DIRECTION('',(1.110223024625E-16,0.,-1.));
#345 = PLANE('',#346);
#346 = AXIS2_PLACEMENT_3D('',#347,#348,#349);
#347 = CARTESIAN_POINT('',(49.7,90.3,13.));
#348 = DIRECTION('',(-2.2E-16,-1.,-2.442490654175E-32));
#349 = DIRECTION('',(1.,-2.2E-16,-1.089776975375E-16));
#350 = ADVANCED_FACE('',(#351),#369,.T.);
#351 = FACE_BOUND('',#352,.T.);
#352 = EDGE_LOOP('',(#353,#361,#362,#363));
#353 = ORIENTED_EDGE('',*,*,#354,.T.);
#354 = EDGE_CURVE('',#355,#324,#357,.T.);
#355 = VERTEX_POINT('',#356);
#356 = CARTESIAN_POINT('',(55.3,81.7,12.));
#357 = LINE('',#358,#359);
#358 = CARTESIAN_POINT('',(55.3,85.884669875936,12.));
#359 = VECTOR('',#360,1.);
#360 = DIRECTION('',(2.2E-16,1.,4.4E-16));
#361 = ORIENTED_EDGE('',*,*,#340,.T.);
#362 = ORIENTED_EDGE('',*,*,#97,.F.);
#363 = ORIENTED_EDGE('',*,*,#364,.F.);
#364 = EDGE_CURVE('',#355,#90,#365,.T.);
#365 = LINE('',#366,#367);
#366 = CARTESIAN_POINT('',(55.3,81.7,13.));
#367 = VECTOR('',#368,1.);
#368 = DIRECTION('',(1.110223024625E-16,0.,-1.));
#369 = PLANE('',#370);
#370 = AXIS2_PLACEMENT_3D('',#371,#372,#373);
#371 = CARTESIAN_POINT('',(55.3,90.3,13.));
#372 = DIRECTION('',(-1.,2.2E-16,-1.110223024625E-16));
#373 = DIRECTION('',(-2.2E-16,-1.,-4.4E-16));
#374 = ADVANCED_FACE('',(#375),#393,.T.);
#375 = FACE_BOUND('',#376,.T.);
#376 = EDGE_LOOP('',(#377,#385,#391,#392));
#377 = ORIENTED_EDGE('',*,*,#378,.T.);
#378 = EDGE_CURVE('',#326,#379,#381,.T.);
#379 = VERTEX_POINT('',#380);
#380 = CARTESIAN_POINT('',(49.7,81.7,12.));
#381 = LINE('',#382,#383);
#382 = CARTESIAN_POINT('',(49.7,81.584669875936,12.));
#383 = VECTOR('',#384,1.);
#384 = DIRECTION('',(-2.2E-16,-1.,-4.4E-16));
#385 = ORIENTED_EDGE('',*,*,#386,.T.);
#386 = EDGE_CURVE('',#379,#82,#387,.T.);
#387 = LINE('',#388,#389);
#388 = CARTESIAN_POINT('',(49.7,81.7,13.));
#389 = VECTOR('',#390,1.);
#390 = DIRECTION('',(1.110223024625E-16,0.,-1.));
#391 = ORIENTED_EDGE('',*,*,#81,.F.);
#392 = ORIENTED_EDGE('',*,*,#333,.F.);
#393 = PLANE('',#394);
#394 = AXIS2_PLACEMENT_3D('',#395,#396,#397);
#395 = CARTESIAN_POINT('',(49.7,81.7,13.));
#396 = DIRECTION('',(1.,-2.2E-16,1.110223024625E-16));
#397 = DIRECTION('',(2.2E-16,1.,4.4E-16));
#398 = ADVANCED_FACE('',(#399),#410,.T.);
#399 = FACE_BOUND('',#400,.T.);
#400 = EDGE_LOOP('',(#401,#407,#408,#409));
#401 = ORIENTED_EDGE('',*,*,#402,.T.);
#402 = EDGE_CURVE('',#379,#355,#403,.T.);
#403 = LINE('',#404,#405);
#404 = CARTESIAN_POINT('',(11.834428037294,81.7,12.));
#405 = VECTOR('',#406,1.);
#406 = DIRECTION('',(1.,-2.2E-16,-1.089776975375E-16));
#407 = ORIENTED_EDGE('',*,*,#364,.T.);
#408 = ORIENTED_EDGE('',*,*,#89,.F.);
#409 = ORIENTED_EDGE('',*,*,#386,.F.);
#410 = PLANE('',#411);
#411 = AXIS2_PLACEMENT_3D('',#412,#413,#414);
#412 = CARTESIAN_POINT('',(55.3,81.7,13.));
#413 = DIRECTION('',(2.2E-16,1.,2.442490654175E-32));
#414 = DIRECTION('',(-1.,2.2E-16,1.089776975375E-16));
#415 = ADVANCED_FACE('',(#416),#441,.T.);
#416 = FACE_BOUND('',#417,.T.);
#417 = EDGE_LOOP('',(#418,#428,#434,#435));
#418 = ORIENTED_EDGE('',*,*,#419,.T.);
#419 = EDGE_CURVE('',#420,#422,#424,.T.);
#420 = VERTEX_POINT('',#421);
#421 = CARTESIAN_POINT('',(67.3,90.3,12.));
#422 = VERTEX_POINT('',#423);
#423 = CARTESIAN_POINT('',(61.7,90.3,12.));
#424 = LINE('',#425,#426);
#425 = CARTESIAN_POINT('',(15.034428037294,90.3,12.));
#426 = VECTOR('',#427,1.);
#427 = DIRECTION('',(-1.,2.2E-16,1.089776975375E-16));
#428 = ORIENTED_EDGE('',*,*,#429,.T.);
#429 = EDGE_CURVE('',#422,#108,#430,.T.);
#430 = LINE('',#431,#432);
#431 = CARTESIAN_POINT('',(61.7,90.3,13.));
#432 = VECTOR('',#433,1.);
#433 = DIRECTION('',(1.110223024625E-16,0.,-1.));
#434 = ORIENTED_EDGE('',*,*,#105,.F.);
#435 = ORIENTED_EDGE('',*,*,#436,.F.);
#436 = EDGE_CURVE('',#420,#106,#437,.T.);
#437 = LINE('',#438,#439);
#438 = CARTESIAN_POINT('',(67.3,90.3,13.));
#439 = VECTOR('',#440,1.);
#440 = DIRECTION('',(1.110223024625E-16,0.,-1.));
#441 = PLANE('',#442);
#442 = AXIS2_PLACEMENT_3D('',#443,#444,#445);
#443 = CARTESIAN_POINT('',(61.7,90.3,13.));
#444 = DIRECTION('',(-2.2E-16,-1.,-2.442490654175E-32));
#445 = DIRECTION('',(1.,-2.2E-16,-1.089776975375E-16));
#446 = ADVANCED_FACE('',(#447),#465,.T.);
#447 = FACE_BOUND('',#448,.T.);
#448 = EDGE_LOOP('',(#449,#457,#458,#459));
#449 = ORIENTED_EDGE('',*,*,#450,.T.);
#450 = EDGE_CURVE('',#451,#420,#453,.T.);
#451 = VERTEX_POINT('',#452);
#452 = CARTESIAN_POINT('',(67.3,81.7,12.));
#453 = LINE('',#454,#455);
#454 = CARTESIAN_POINT('',(67.3,85.884669875936,12.));
#455 = VECTOR('',#456,1.);
#456 = DIRECTION('',(2.2E-16,1.,4.4E-16));
#457 = ORIENTED_EDGE('',*,*,#436,.T.);
#458 = ORIENTED_EDGE('',*,*,#131,.F.);
#459 = ORIENTED_EDGE('',*,*,#460,.F.);
#460 = EDGE_CURVE('',#451,#124,#461,.T.);
#461 = LINE('',#462,#463);
#462 = CARTESIAN_POINT('',(67.3,81.7,13.));
#463 = VECTOR('',#464,1.);
#464 = DIRECTION('',(1.110223024625E-16,0.,-1.));
#465 = PLANE('',#466);
#466 = AXIS2_PLACEMENT_3D('',#467,#468,#469);
#467 = CARTESIAN_POINT('',(67.3,90.3,13.));
#468 = DIRECTION('',(-1.,2.2E-16,-1.110223024625E-16));
#469 = DIRECTION('',(-2.2E-16,-1.,-4.4E-16));
#470 = ADVANCED_FACE('',(#471),#489,.T.);
#471 = FACE_BOUND('',#472,.T.);
#472 = EDGE_LOOP('',(#473,#481,#487,#488));
#473 = ORIENTED_EDGE('',*,*,#474,.T.);
#474 = EDGE_CURVE('',#422,#475,#477,.T.);
#475 = VERTEX_POINT('',#476);
#476 = CARTESIAN_POINT('',(61.7,81.7,12.));
#477 = LINE('',#478,#479);
#478 = CARTESIAN_POINT('',(61.7,81.584669875936,12.));
#479 = VECTOR('',#480,1.);
#480 = DIRECTION('',(-2.2E-16,-1.,-4.4E-16));
#481 = ORIENTED_EDGE('',*,*,#482,.T.);
#482 = EDGE_CURVE('',#475,#116,#483,.T.);
#483 = LINE('',#484,#485);
#484 = CARTESIAN_POINT('',(61.7,81.7,13.));
#485 = VECTOR('',#486,1.);
#486 = DIRECTION('',(1.110223024625E-16,0.,-1.));
#487 = ORIENTED_EDGE('',*,*,#115,.F.);
#488 = ORIENTED_EDGE('',*,*,#429,.F.);
#489 = PLANE('',#490);
#490 = AXIS2_PLACEMENT_3D('',#491,#492,#493);
#491 = CARTESIAN_POINT('',(61.7,81.7,13.));
#492 = DIRECTION('',(1.,-2.2E-16,1.110223024625E-16));
#493 = DIRECTION('',(2.2E-16,1.,4.4E-16));
#494 = ADVANCED_FACE('',(#495),#506,.T.);
#495 = FACE_BOUND('',#496,.T.);
#496 = EDGE_LOOP('',(#497,#503,#504,#505));
#497 = ORIENTED_EDGE('',*,*,#498,.T.);
#498 = EDGE_CURVE('',#475,#451,#499,.T.);
#499 = LINE('',#500,#501);
#500 = CARTESIAN_POINT('',(17.834428037294,81.7,12.));
#501 = VECTOR('',#502,1.);
#502 = DIRECTION('',(1.,-2.2E-16,-1.089776975375E-16));
#503 = ORIENTED_EDGE('',*,*,#460,.T.);
#504 = ORIENTED_EDGE('',*,*,#123,.F.);
#505 = ORIENTED_EDGE('',*,*,#482,.F.);
#506 = PLANE('',#507);
#507 = AXIS2_PLACEMENT_3D('',#508,#509,#510);
#508 = CARTESIAN_POINT('',(67.3,81.7,13.));
#509 = DIRECTION('',(2.2E-16,1.,2.442490654175E-32));
#510 = DIRECTION('',(-1.,2.2E-16,1.089776975375E-16));
#511 = ADVANCED_FACE('',(#512),#537,.T.);
#512 = FACE_BOUND('',#513,.T.);
#513 = EDGE_LOOP('',(#514,#524,#530,#531));
#514 = ORIENTED_EDGE('',*,*,#515,.T.);
#515 = EDGE_CURVE('',#516,#518,#520,.T.);
#516 = VERTEX_POINT('',#517);
#517 = CARTESIAN_POINT('',(79.3,90.3,12.));
#518 = VERTEX_POINT('',#519);
#519 = CARTESIAN_POINT('',(73.7,90.3,12.));
#520 = LINE('',#521,#522);
#521 = CARTESIAN_POINT('',(21.034428037294,90.3,12.));
#522 = VECTOR('',#523,1.);
#523 = DIRECTION('',(-1.,2.2E-16,1.089776975375E-16));
#524 = ORIENTED_EDGE('',*,*,#525,.T.);
#525 = EDGE_CURVE('',#518,#142,#526,.T.);
#526 = LINE('',#527,#528);
#527 = CARTESIAN_POINT('',(73.7,90.3,13.));
#528 = VECTOR('',#529,1.);
#529 = DIRECTION('',(1.110223024625E-16,0.,-1.));
#530 = ORIENTED_EDGE('',*,*,#139,.F.);
#531 = ORIENTED_EDGE('',*,*,#532,.F.);
#532 = EDGE_CURVE('',#516,#140,#533,.T.);
#533 = LINE('',#534,#535);
#534 = CARTESIAN_POINT('',(79.3,90.3,13.));
#535 = VECTOR('',#536,1.);
#536 = DIRECTION('',(1.110223024625E-16,0.,-1.));
#537 = PLANE('',#538);
#538 = AXIS2_PLACEMENT_3D('',#539,#540,#541);
#539 = CARTESIAN_POINT('',(73.7,90.3,13.));
#540 = DIRECTION('',(-2.2E-16,-1.,-2.442490654175E-32));
#541 = DIRECTION('',(1.,-2.2E-16,-1.089776975375E-16));
#542 = ADVANCED_FACE('',(#543),#561,.T.);
#543 = FACE_BOUND('',#544,.T.);
#544 = EDGE_LOOP('',(#545,#553,#554,#555));
#545 = ORIENTED_EDGE('',*,*,#546,.T.);
#546 = EDGE_CURVE('',#547,#516,#549,.T.);
#547 = VERTEX_POINT('',#548);
#548 = CARTESIAN_POINT('',(79.3,81.7,12.));
#549 = LINE('',#550,#551);
#550 = CARTESIAN_POINT('',(79.3,85.884669875936,12.));
#551 = VECTOR('',#552,1.);
#552 = DIRECTION('',(2.2E-16,1.,4.4E-16));
#553 = ORIENTED_EDGE('',*,*,#532,.T.);
#554 = ORIENTED_EDGE('',*,*,#165,.F.);
#555 = ORIENTED_EDGE('',*,*,#556,.F.);
#556 = EDGE_CURVE('',#547,#158,#557,.T.);
#557 = LINE('',#558,#559);
#558 = CARTESIAN_POINT('',(79.3,81.7,13.));
#559 = VECTOR('',#560,1.);
#560 = DIRECTION('',(1.110223024625E-16,0.,-1.));
#561 = PLANE('',#562);
#562 = AXIS2_PLACEMENT_3D('',#563,#564,#565);
#563 = CARTESIAN_POINT('',(79.3,90.3,13.));
#564 = DIRECTION('',(-1.,2.2E-16,-1.110223024625E-16));
#565 = DIRECTION('',(-2.2E-16,-1.,-4.4E-16));
#566 = ADVANCED_FACE('',(#567),#585,.T.);
#567 = FACE_BOUND('',#568,.T.);
#568 = EDGE_LOOP('',(#569,#577,#583,#584));
#569 = ORIENTED_EDGE('',*,*,#570,.T.);
#570 = EDGE_CURVE('',#518,#571,#573,.T.);
#571 = VERTEX_POINT('',#572);
#572 = CARTESIAN_POINT('',(73.7,81.7,12.));
#573 = LINE('',#574,#575);
#574 = CARTESIAN_POINT('',(73.7,81.584669875936,12.));
#575 = VECTOR('',#576,1.);
#576 = DIRECTION('',(-2.2E-16,-1.,-4.4E-16));
#577 = ORIENTED_EDGE('',*,*,#578,.T.);
#578 = EDGE_CURVE('',#571,#150,#579,.T.);
#579 = LINE('',#580,#581);
#580 = CARTESIAN_POINT('',(73.7,81.7,13.));
#581 = VECTOR('',#582,1.);
#582 = DIRECTION('',(1.110223024625E-16,0.,-1.));
#583 = ORIENTED_EDGE('',*,*,#149,.F.);
#584 = ORIENTED_EDGE('',*,*,#525,.F.);
#585 = PLANE('',#586);
#586 = AXIS2_PLACEMENT_3D('',#587,#588,#589);
#587 = CARTESIAN_POINT('',(73.7,81.7,13.));
#588 = DIRECTION('',(1.,-2.2E-16,1.110223024625E-16));
#589 = DIRECTION('',(2.2E-16,1.,4.4E-16));
#590 = ADVANCED_FACE('',(#591),#602,.T.);
#591 = FACE_BOUND('',#592,.T.);
#592 = EDGE_LOOP('',(#593,#599,#600,#601));
#593 = ORIENTED_EDGE('',*,*,#594,.T.);
#594 = EDGE_CURVE('',#571,#547,#595,.T.);
#595 = LINE('',#596,#597);
#596 = CARTESIAN_POINT('',(23.834428037294,81.7,12.));
#597 = VECTOR('',#598,1.);
#598 = DIRECTION('',(1.,-2.2E-16,-1.089776975375E-16));
#599 = ORIENTED_EDGE('',*,*,#556,.T.);
#600 = ORIENTED_EDGE('',*,*,#157,.F.);
#601 = ORIENTED_EDGE('',*,*,#578,.F.);
#602 = PLANE('',#603);
#603 = AXIS2_PLACEMENT_3D('',#604,#605,#606);
#604 = CARTESIAN_POINT('',(79.3,81.7,13.));
#605 = DIRECTION('',(2.2E-16,1.,2.442490654175E-32));
#606 = DIRECTION('',(-1.,2.2E-16,1.089776975375E-16));
#607 = ADVANCED_FACE('',(#608,#616,#622,#628),#634,.F.);
#608 = FACE_BOUND('',#609,.F.);
#609 = EDGE_LOOP('',(#610,#611,#612,#613,#614,#615));
#610 = ORIENTED_EDGE('',*,*,#211,.F.);
#611 = ORIENTED_EDGE('',*,*,#179,.T.);
#612 = ORIENTED_EDGE('',*,*,#307,.T.);
#613 = ORIENTED_EDGE('',*,*,#290,.T.);
#614 = ORIENTED_EDGE('',*,*,#259,.F.);
#615 = ORIENTED_EDGE('',*,*,#234,.T.);
#616 = FACE_BOUND('',#617,.F.);
#617 = EDGE_LOOP('',(#618,#619,#620,#621));
#618 = ORIENTED_EDGE('',*,*,#323,.T.);
#619 = ORIENTED_EDGE('',*,*,#378,.T.);
#620 = ORIENTED_EDGE('',*,*,#402,.T.);
#621 = ORIENTED_EDGE('',*,*,#354,.T.);
#622 = FACE_BOUND('',#623,.F.);
#623 = EDGE_LOOP('',(#624,#625,#626,#627));
#624 = ORIENTED_EDGE('',*,*,#419,.T.);
#625 = ORIENTED_EDGE('',*,*,#474,.T.);
#626 = ORIENTED_EDGE('',*,*,#498,.T.);
#627 = ORIENTED_EDGE('',*,*,#450,.T.);
#628 = FACE_BOUND('',#629,.F.);
#629 = EDGE_LOOP('',(#630,#631,#632,#633));
#630 = ORIENTED_EDGE('',*,*,#515,.T.);
#631 = ORIENTED_EDGE('',*,*,#570,.T.);
#632 = ORIENTED_EDGE('',*,*,#594,.T.);
#633 = ORIENTED_EDGE('',*,*,#546,.T.);
#634 = PLANE('',#635);
#635 = AXIS2_PLACEMENT_3D('',#636,#637,#638);
#636 = CARTESIAN_POINT('',(-31.63114392541,81.469339751872,12.));
#637 = DIRECTION('',(-1.089776975375E-16,4.4E-16,-1.));
#638 = DIRECTION('',(-4.884981308351E-32,1.,4.4E-16));
#639 = ( GEOMETRIC_REPRESENTATION_CONTEXT(3) 
GLOBAL_UNCERTAINTY_ASSIGNED_CONTEXT((#643)) GLOBAL_UNIT_ASSIGNED_CONTEXT
((#640,#641,#642)) REPRESENTATION_CONTEXT('Context #1',
  '3D Context with UNIT and UNCERTAINTY') );
#640 = ( LENGTH_UNIT() NAMED_UNIT(*) SI_UNIT(.MILLI.,.METRE.) );
#641 = ( NAMED_UNIT(*) PLANE_ANGLE_UNIT() SI_UNIT($,.RADIAN.) );
#642 = ( NAMED_UNIT(*) SI_UNIT($,.STERADIAN.) SOLID_ANGLE_UNIT() );
#643 = UNCERTAINTY_MEASURE_WITH_UNIT(LENGTH_MEASURE(1.E-04),#640,
  'distance_accuracy_value','confusion accuracy');
#644 = PRODUCT_RELATED_PRODUCT_CATEGORY('part',$,(#7));
ENDSEC;
END-ISO-10303-21;
