ISO-10303-21;
HEADER;
FILE_DESCRIPTION(('FreeCAD Model'),'2;1');
FILE_NAME('Open CASCADE Shape Model','2026-09-08T10:22:30',('FreeCAD'),(
    'FreeCAD'),'Open CASCADE STEP processor 7.8','FreeCAD','Unknown');
FILE_SCHEMA(('AUTOMOTIVE_DESIGN { 1 0 10303 214 1 1 1 1 }'));
ENDSEC;
DATA;
#1 = APPLICATION_PROTOCOL_DEFINITION('international standard',
  'automotive_design',2000,#2);
#2 = APPLICATION_CONTEXT(
  'core data for automotive mechanical design processes');
#3 = SHAPE_DEFINITION_REPRESENTATION(#4,#10);
#4 = PRODUCT_DEFINITION_SHAPE('','',#5);
#5 = PRODUCT_DEFINITION('design','',#6,#9);
#6 = PRODUCT_DEFINITION_FORMATION('','',#7);
#7 = PRODUCT('Open CASCADE STEP translator 7.8 2',
  'Open CASCADE STEP translator 7.8 2','',(#8));
#8 = PRODUCT_CONTEXT('',#2,'mechanical');
#9 = PRODUCT_DEFINITION_CONTEXT('part definition',#2,'design');
#10 = ADVANCED_BREP_SHAPE_REPRESENTATION('',(#11,#15),#867);
#11 = AXIS2_PLACEMENT_3D('',#12,#13,#14);
#12 = CARTESIAN_POINT('',(0.,0.,0.));
#13 = DIRECTION('',(0.,0.,1.));
#14 = DIRECTION('',(1.,0.,-0.));
#15 = MANIFOLD_SOLID_BREP('',#16);
#16 = CLOSED_SHELL('',(#17,#145,#202,#226,#267,#301,#342,#366,#416,#451,
    #483,#516,#559,#600,#624,#674,#693,#743,#760,#812,#824,#842,#855));
#17 = ADVANCED_FACE('',(#18),#140,.F.);
#18 = FACE_BOUND('',#19,.F.);
#19 = EDGE_LOOP('',(#20,#30,#38,#46,#54,#62,#70,#78,#86,#94,#102,#110,
    #118,#126,#134));
#20 = ORIENTED_EDGE('',*,*,#21,.F.);
#21 = EDGE_CURVE('',#22,#24,#26,.T.);
#22 = VERTEX_POINT('',#23);
#23 = CARTESIAN_POINT('',(105.,86.264911064067,36.));
#24 = VERTEX_POINT('',#25);
#25 = CARTESIAN_POINT('',(105.,92.,36.));
#26 = LINE('',#27,#28);
#27 = CARTESIAN_POINT('',(105.,78.,36.));
#28 = VECTOR('',#29,1.);
#29 = DIRECTION('',(0.,1.,-1.224646799147E-16));
#30 = ORIENTED_EDGE('',*,*,#31,.F.);
#31 = EDGE_CURVE('',#32,#22,#34,.T.);
#32 = VERTEX_POINT('',#33);
#33 = CARTESIAN_POINT('',(105.,86.264911064067,33.8));
#34 = LINE('',#35,#36);
#35 = CARTESIAN_POINT('',(105.,86.264911064067,41.));
#36 = VECTOR('',#37,1.);
#37 = DIRECTION('',(-0.,1.224646799147E-16,1.));
#38 = ORIENTED_EDGE('',*,*,#39,.T.);
#39 = EDGE_CURVE('',#32,#40,#42,.T.);
#40 = VERTEX_POINT('',#41);
#41 = CARTESIAN_POINT('',(105.,89.3,33.8));
#42 = LINE('',#43,#44);
#43 = CARTESIAN_POINT('',(105.,83.65,33.8));
#44 = VECTOR('',#45,1.);
#45 = DIRECTION('',(0.,1.,9.753532008526E-17));
#46 = ORIENTED_EDGE('',*,*,#47,.T.);
#47 = EDGE_CURVE('',#40,#48,#50,.T.);
#48 = VERTEX_POINT('',#49);
#49 = CARTESIAN_POINT('',(105.,89.3,28.2));
#50 = LINE('',#51,#52);
#51 = CARTESIAN_POINT('',(105.,89.3,32.1));
#52 = VECTOR('',#53,1.);
#53 = DIRECTION('',(0.,9.753532008526E-17,-1.));
#54 = ORIENTED_EDGE('',*,*,#55,.T.);
#55 = EDGE_CURVE('',#48,#56,#58,.T.);
#56 = VERTEX_POINT('',#57);
#57 = CARTESIAN_POINT('',(105.,86.264911064067,28.2));
#58 = LINE('',#59,#60);
#59 = CARTESIAN_POINT('',(105.,79.35,28.2));
#60 = VECTOR('',#61,1.);
#61 = DIRECTION('',(0.,-1.,-9.753532008526E-17));
#62 = ORIENTED_EDGE('',*,*,#63,.F.);
#63 = EDGE_CURVE('',#64,#56,#66,.T.);
#64 = VERTEX_POINT('',#65);
#65 = CARTESIAN_POINT('',(105.,86.264911064067,21.313451914577));
#66 = LINE('',#67,#68);
#67 = CARTESIAN_POINT('',(105.,86.264911064067,41.));
#68 = VECTOR('',#69,1.);
#69 = DIRECTION('',(-0.,1.224646799147E-16,1.));
#70 = ORIENTED_EDGE('',*,*,#71,.T.);
#71 = EDGE_CURVE('',#64,#72,#74,.T.);
#72 = VERTEX_POINT('',#73);
#73 = CARTESIAN_POINT('',(105.,88.,19.));
#74 = LINE('',#75,#76);
#75 = CARTESIAN_POINT('',(105.,82.12,26.84));
#76 = VECTOR('',#77,1.);
#77 = DIRECTION('',(0.,0.6,-0.8));
#78 = ORIENTED_EDGE('',*,*,#79,.T.);
#79 = EDGE_CURVE('',#72,#80,#82,.T.);
#80 = VERTEX_POINT('',#81);
#81 = CARTESIAN_POINT('',(105.,86.264911064067,16.686548085423));
#82 = LINE('',#83,#84);
#83 = CARTESIAN_POINT('',(105.,88.78,20.04));
#84 = VECTOR('',#85,1.);
#85 = DIRECTION('',(0.,-0.6,-0.8));
#86 = ORIENTED_EDGE('',*,*,#87,.F.);
#87 = EDGE_CURVE('',#88,#80,#90,.T.);
#88 = VERTEX_POINT('',#89);
#89 = CARTESIAN_POINT('',(105.,86.264911064067,9.8));
#90 = LINE('',#91,#92);
#91 = CARTESIAN_POINT('',(105.,86.264911064067,41.));
#92 = VECTOR('',#93,1.);
#93 = DIRECTION('',(-0.,1.224646799147E-16,1.));
#94 = ORIENTED_EDGE('',*,*,#95,.T.);
#95 = EDGE_CURVE('',#88,#96,#98,.T.);
#96 = VERTEX_POINT('',#97);
#97 = CARTESIAN_POINT('',(105.,89.3,9.8));
#98 = LINE('',#99,#100);
#99 = CARTESIAN_POINT('',(105.,83.65,9.8));
#100 = VECTOR('',#101,1.);
#101 = DIRECTION('',(0.,1.,9.753532008526E-17));
#102 = ORIENTED_EDGE('',*,*,#103,.T.);
#103 = EDGE_CURVE('',#96,#104,#106,.T.);
#104 = VERTEX_POINT('',#105);
#105 = CARTESIAN_POINT('',(105.,89.3,4.2));
#106 = LINE('',#107,#108);
#107 = CARTESIAN_POINT('',(105.,89.3,20.1));
#108 = VECTOR('',#109,1.);
#109 = DIRECTION('',(0.,9.753532008526E-17,-1.));
#110 = ORIENTED_EDGE('',*,*,#111,.T.);
#111 = EDGE_CURVE('',#104,#112,#114,.T.);
#112 = VERTEX_POINT('',#113);
#113 = CARTESIAN_POINT('',(105.,86.264911064067,4.2));
#114 = LINE('',#115,#116);
#115 = CARTESIAN_POINT('',(105.,79.35,4.2));
#116 = VECTOR('',#117,1.);
#117 = DIRECTION('',(0.,-1.,-9.753532008526E-17));
#118 = ORIENTED_EDGE('',*,*,#119,.F.);
#119 = EDGE_CURVE('',#120,#112,#122,.T.);
#120 = VERTEX_POINT('',#121);
#121 = CARTESIAN_POINT('',(105.,86.264911064067,0.));
#122 = LINE('',#123,#124);
#123 = CARTESIAN_POINT('',(105.,86.264911064067,41.));
#124 = VECTOR('',#125,1.);
#125 = DIRECTION('',(-0.,1.224646799147E-16,1.));
#126 = ORIENTED_EDGE('',*,*,#127,.T.);
#127 = EDGE_CURVE('',#120,#128,#130,.T.);
#128 = VERTEX_POINT('',#129);
#129 = CARTESIAN_POINT('',(105.,92.,0.));
#130 = LINE('',#131,#132);
#131 = CARTESIAN_POINT('',(105.,86.,0.));
#132 = VECTOR('',#133,1.);
#133 = DIRECTION('',(0.,1.,-1.224646799147E-16));
#134 = ORIENTED_EDGE('',*,*,#135,.F.);
#135 = EDGE_CURVE('',#24,#128,#136,.T.);
#136 = LINE('',#137,#138);
#137 = CARTESIAN_POINT('',(105.,92.,36.));
#138 = VECTOR('',#139,1.);
#139 = DIRECTION('',(0.,-1.224646799147E-16,-1.));
#140 = PLANE('',#141);
#141 = AXIS2_PLACEMENT_3D('',#142,#143,#144);
#142 = CARTESIAN_POINT('',(105.,78.,36.));
#143 = DIRECTION('',(1.,0.,0.));
#144 = DIRECTION('',(0.,1.,-1.224646799147E-16));
#145 = ADVANCED_FACE('',(#146),#197,.F.);
#146 = FACE_BOUND('',#147,.F.);
#147 = EDGE_LOOP('',(#148,#149,#157,#165,#173,#181,#190));
#148 = ORIENTED_EDGE('',*,*,#21,.T.);
#149 = ORIENTED_EDGE('',*,*,#150,.T.);
#150 = EDGE_CURVE('',#24,#151,#153,.T.);
#151 = VERTEX_POINT('',#152);
#152 = CARTESIAN_POINT('',(109.,92.,36.));
#153 = LINE('',#154,#155);
#154 = CARTESIAN_POINT('',(105.,92.,36.));
#155 = VECTOR('',#156,1.);
#156 = DIRECTION('',(1.,0.,0.));
#157 = ORIENTED_EDGE('',*,*,#158,.T.);
#158 = EDGE_CURVE('',#151,#159,#161,.T.);
#159 = VERTEX_POINT('',#160);
#160 = CARTESIAN_POINT('',(109.,78.,36.));
#161 = LINE('',#162,#163);
#162 = CARTESIAN_POINT('',(109.,92.,36.));
#163 = VECTOR('',#164,1.);
#164 = DIRECTION('',(0.,-1.,1.224646799147E-16));
#165 = ORIENTED_EDGE('',*,*,#166,.T.);
#166 = EDGE_CURVE('',#159,#167,#169,.T.);
#167 = VERTEX_POINT('',#168);
#168 = CARTESIAN_POINT('',(105.,78.,36.));
#169 = LINE('',#170,#171);
#170 = CARTESIAN_POINT('',(109.,78.,36.));
#171 = VECTOR('',#172,1.);
#172 = DIRECTION('',(-1.,-0.,0.));
#173 = ORIENTED_EDGE('',*,*,#174,.T.);
#174 = EDGE_CURVE('',#167,#175,#177,.T.);
#175 = VERTEX_POINT('',#176);
#176 = CARTESIAN_POINT('',(105.,83.735088935933,36.));
#177 = LINE('',#178,#179);
#178 = CARTESIAN_POINT('',(105.,78.,36.));
#179 = VECTOR('',#180,1.);
#180 = DIRECTION('',(0.,1.,-1.224646799147E-16));
#181 = ORIENTED_EDGE('',*,*,#182,.T.);
#182 = EDGE_CURVE('',#175,#183,#185,.T.);
#183 = VERTEX_POINT('',#184);
#184 = CARTESIAN_POINT('',(105.4,85.,36.));
#185 = CIRCLE('',#186,2.2);
#186 = AXIS2_PLACEMENT_3D('',#187,#188,#189);
#187 = CARTESIAN_POINT('',(103.2,85.,36.));
#188 = DIRECTION('',(-0.,1.224646799147E-16,1.));
#189 = DIRECTION('',(1.,0.,0.));
#190 = ORIENTED_EDGE('',*,*,#191,.T.);
#191 = EDGE_CURVE('',#183,#22,#192,.T.);
#192 = CIRCLE('',#193,2.2);
#193 = AXIS2_PLACEMENT_3D('',#194,#195,#196);
#194 = CARTESIAN_POINT('',(103.2,85.,36.));
#195 = DIRECTION('',(-0.,1.224646799147E-16,1.));
#196 = DIRECTION('',(1.,0.,0.));
#197 = PLANE('',#198);
#198 = AXIS2_PLACEMENT_3D('',#199,#200,#201);
#199 = CARTESIAN_POINT('',(107.,85.,36.));
#200 = DIRECTION('',(0.,-1.224646799147E-16,-1.));
#201 = DIRECTION('',(1.,0.,0.));
#202 = ADVANCED_FACE('',(#203),#221,.F.);
#203 = FACE_BOUND('',#204,.F.);
#204 = EDGE_LOOP('',(#205,#206,#207,#215));
#205 = ORIENTED_EDGE('',*,*,#150,.F.);
#206 = ORIENTED_EDGE('',*,*,#135,.T.);
#207 = ORIENTED_EDGE('',*,*,#208,.T.);
#208 = EDGE_CURVE('',#128,#209,#211,.T.);
#209 = VERTEX_POINT('',#210);
#210 = CARTESIAN_POINT('',(109.,92.,0.));
#211 = LINE('',#212,#213);
#212 = CARTESIAN_POINT('',(95.65,92.,0.));
#213 = VECTOR('',#214,1.);
#214 = DIRECTION('',(1.,0.,0.));
#215 = ORIENTED_EDGE('',*,*,#216,.F.);
#216 = EDGE_CURVE('',#151,#209,#217,.T.);
#217 = LINE('',#218,#219);
#218 = CARTESIAN_POINT('',(109.,92.,36.));
#219 = VECTOR('',#220,1.);
#220 = DIRECTION('',(0.,-1.224646799147E-16,-1.));
#221 = PLANE('',#222);
#222 = AXIS2_PLACEMENT_3D('',#223,#224,#225);
#223 = CARTESIAN_POINT('',(105.,92.,36.));
#224 = DIRECTION('',(0.,-1.,1.224646799147E-16));
#225 = DIRECTION('',(1.,0.,0.));
#226 = ADVANCED_FACE('',(#227),#262,.T.);
#227 = FACE_BOUND('',#228,.T.);
#228 = EDGE_LOOP('',(#229,#239,#247,#254,#255,#256));
#229 = ORIENTED_EDGE('',*,*,#230,.F.);
#230 = EDGE_CURVE('',#231,#233,#235,.T.);
#231 = VERTEX_POINT('',#232);
#232 = CARTESIAN_POINT('',(105.,78.,0.));
#233 = VERTEX_POINT('',#234);
#234 = CARTESIAN_POINT('',(109.,78.,0.));
#235 = LINE('',#236,#237);
#236 = CARTESIAN_POINT('',(86.3,78.,0.));
#237 = VECTOR('',#238,1.);
#238 = DIRECTION('',(1.,0.,0.));
#239 = ORIENTED_EDGE('',*,*,#240,.T.);
#240 = EDGE_CURVE('',#231,#241,#243,.T.);
#241 = VERTEX_POINT('',#242);
#242 = CARTESIAN_POINT('',(105.,83.735088935933,0.));
#243 = LINE('',#244,#245);
#244 = CARTESIAN_POINT('',(105.,86.,0.));
#245 = VECTOR('',#246,1.);
#246 = DIRECTION('',(0.,1.,-1.224646799147E-16));
#247 = ORIENTED_EDGE('',*,*,#248,.T.);
#248 = EDGE_CURVE('',#241,#120,#249,.T.);
#249 = CIRCLE('',#250,2.2);
#250 = AXIS2_PLACEMENT_3D('',#251,#252,#253);
#251 = CARTESIAN_POINT('',(103.2,85.,0.));
#252 = DIRECTION('',(-0.,1.224646799147E-16,1.));
#253 = DIRECTION('',(1.,0.,0.));
#254 = ORIENTED_EDGE('',*,*,#127,.T.);
#255 = ORIENTED_EDGE('',*,*,#208,.T.);
#256 = ORIENTED_EDGE('',*,*,#257,.F.);
#257 = EDGE_CURVE('',#233,#209,#258,.T.);
#258 = LINE('',#259,#260);
#259 = CARTESIAN_POINT('',(109.,91.741150217574,0.));
#260 = VECTOR('',#261,1.);
#261 = DIRECTION('',(8.4E-16,1.,-1.224646799147E-16));
#262 = PLANE('',#263);
#263 = AXIS2_PLACEMENT_3D('',#264,#265,#266);
#264 = CARTESIAN_POINT('',(86.3,94.,0.));
#265 = DIRECTION('',(0.,-1.224646799147E-16,-1.));
#266 = DIRECTION('',(1.,0.,0.));
#267 = ADVANCED_FACE('',(#268),#296,.F.);
#268 = FACE_BOUND('',#269,.T.);
#269 = EDGE_LOOP('',(#270,#271,#279,#288,#295));
#270 = ORIENTED_EDGE('',*,*,#248,.F.);
#271 = ORIENTED_EDGE('',*,*,#272,.T.);
#272 = EDGE_CURVE('',#241,#273,#275,.T.);
#273 = VERTEX_POINT('',#274);
#274 = CARTESIAN_POINT('',(105.,83.735088935933,4.2));
#275 = LINE('',#276,#277);
#276 = CARTESIAN_POINT('',(105.,83.735088935933,41.));
#277 = VECTOR('',#278,1.);
#278 = DIRECTION('',(-0.,1.224646799147E-16,1.));
#279 = ORIENTED_EDGE('',*,*,#280,.T.);
#280 = EDGE_CURVE('',#273,#281,#283,.T.);
#281 = VERTEX_POINT('',#282);
#282 = CARTESIAN_POINT('',(105.4,85.,4.2));
#283 = CIRCLE('',#284,2.2);
#284 = AXIS2_PLACEMENT_3D('',#285,#286,#287);
#285 = CARTESIAN_POINT('',(103.2,85.,4.2));
#286 = DIRECTION('',(-0.,1.224646799147E-16,1.));
#287 = DIRECTION('',(1.,0.,0.));
#288 = ORIENTED_EDGE('',*,*,#289,.T.);
#289 = EDGE_CURVE('',#281,#112,#290,.T.);
#290 = CIRCLE('',#291,2.2);
#291 = AXIS2_PLACEMENT_3D('',#292,#293,#294);
#292 = CARTESIAN_POINT('',(103.2,85.,4.2));
#293 = DIRECTION('',(-0.,1.224646799147E-16,1.));
#294 = DIRECTION('',(1.,0.,0.));
#295 = ORIENTED_EDGE('',*,*,#119,.F.);
#296 = CYLINDRICAL_SURFACE('',#297,2.2);
#297 = AXIS2_PLACEMENT_3D('',#298,#299,#300);
#298 = CARTESIAN_POINT('',(103.2,85.,41.));
#299 = DIRECTION('',(-0.,1.224646799147E-16,1.));
#300 = DIRECTION('',(1.,0.,0.));
#301 = ADVANCED_FACE('',(#302),#337,.T.);
#302 = FACE_BOUND('',#303,.T.);
#303 = EDGE_LOOP('',(#304,#312,#313,#314,#315,#323,#331));
#304 = ORIENTED_EDGE('',*,*,#305,.F.);
#305 = EDGE_CURVE('',#104,#306,#308,.T.);
#306 = VERTEX_POINT('',#307);
#307 = CARTESIAN_POINT('',(109.,89.3,4.2));
#308 = LINE('',#309,#310);
#309 = CARTESIAN_POINT('',(104.,89.3,4.2));
#310 = VECTOR('',#311,1.);
#311 = DIRECTION('',(1.,0.,0.));
#312 = ORIENTED_EDGE('',*,*,#111,.T.);
#313 = ORIENTED_EDGE('',*,*,#289,.F.);
#314 = ORIENTED_EDGE('',*,*,#280,.F.);
#315 = ORIENTED_EDGE('',*,*,#316,.T.);
#316 = EDGE_CURVE('',#273,#317,#319,.T.);
#317 = VERTEX_POINT('',#318);
#318 = CARTESIAN_POINT('',(105.,80.7,4.2));
#319 = LINE('',#320,#321);
#320 = CARTESIAN_POINT('',(105.,79.35,4.2));
#321 = VECTOR('',#322,1.);
#322 = DIRECTION('',(0.,-1.,-9.753532008526E-17));
#323 = ORIENTED_EDGE('',*,*,#324,.T.);
#324 = EDGE_CURVE('',#317,#325,#327,.T.);
#325 = VERTEX_POINT('',#326);
#326 = CARTESIAN_POINT('',(109.,80.7,4.2));
#327 = LINE('',#328,#329);
#328 = CARTESIAN_POINT('',(104.,80.7,4.2));
#329 = VECTOR('',#330,1.);
#330 = DIRECTION('',(1.,0.,0.));
#331 = ORIENTED_EDGE('',*,*,#332,.T.);
#332 = EDGE_CURVE('',#325,#306,#333,.T.);
#333 = LINE('',#334,#335);
#334 = CARTESIAN_POINT('',(109.,86.35,4.2));
#335 = VECTOR('',#336,1.);
#336 = DIRECTION('',(-0.,1.,9.753532008526E-17));
#337 = PLANE('',#338);
#338 = AXIS2_PLACEMENT_3D('',#339,#340,#341);
#339 = CARTESIAN_POINT('',(104.,80.7,4.2));
#340 = DIRECTION('',(0.,-9.753532008526E-17,1.));
#341 = DIRECTION('',(4.4E-16,1.,9.753532008526E-17));
#342 = ADVANCED_FACE('',(#343),#361,.T.);
#343 = FACE_BOUND('',#344,.T.);
#344 = EDGE_LOOP('',(#345,#346,#347,#355));
#345 = ORIENTED_EDGE('',*,*,#103,.T.);
#346 = ORIENTED_EDGE('',*,*,#305,.T.);
#347 = ORIENTED_EDGE('',*,*,#348,.T.);
#348 = EDGE_CURVE('',#306,#349,#351,.T.);
#349 = VERTEX_POINT('',#350);
#350 = CARTESIAN_POINT('',(109.,89.3,9.8));
#351 = LINE('',#352,#353);
#352 = CARTESIAN_POINT('',(109.,89.3,20.1));
#353 = VECTOR('',#354,1.);
#354 = DIRECTION('',(0.,-9.753532008526E-17,1.));
#355 = ORIENTED_EDGE('',*,*,#356,.F.);
#356 = EDGE_CURVE('',#96,#349,#357,.T.);
#357 = LINE('',#358,#359);
#358 = CARTESIAN_POINT('',(104.,89.3,9.8));
#359 = VECTOR('',#360,1.);
#360 = DIRECTION('',(1.,0.,0.));
#361 = PLANE('',#362);
#362 = AXIS2_PLACEMENT_3D('',#363,#364,#365);
#363 = CARTESIAN_POINT('',(104.,89.3,4.2));
#364 = DIRECTION('',(0.,-1.,-9.753532008526E-17));
#365 = DIRECTION('',(-2.2E-16,-9.753532008526E-17,1.));
#366 = ADVANCED_FACE('',(#367),#411,.T.);
#367 = FACE_BOUND('',#368,.T.);
#368 = EDGE_LOOP('',(#369,#379,#387,#396,#403,#404,#405));
#369 = ORIENTED_EDGE('',*,*,#370,.F.);
#370 = EDGE_CURVE('',#371,#373,#375,.T.);
#371 = VERTEX_POINT('',#372);
#372 = CARTESIAN_POINT('',(105.,80.7,9.8));
#373 = VERTEX_POINT('',#374);
#374 = CARTESIAN_POINT('',(109.,80.7,9.8));
#375 = LINE('',#376,#377);
#376 = CARTESIAN_POINT('',(104.,80.7,9.8));
#377 = VECTOR('',#378,1.);
#378 = DIRECTION('',(1.,0.,0.));
#379 = ORIENTED_EDGE('',*,*,#380,.T.);
#380 = EDGE_CURVE('',#371,#381,#383,.T.);
#381 = VERTEX_POINT('',#382);
#382 = CARTESIAN_POINT('',(105.,83.735088935933,9.8));
#383 = LINE('',#384,#385);
#384 = CARTESIAN_POINT('',(105.,83.65,9.8));
#385 = VECTOR('',#386,1.);
#386 = DIRECTION('',(0.,1.,9.753532008526E-17));
#387 = ORIENTED_EDGE('',*,*,#388,.T.);
#388 = EDGE_CURVE('',#381,#389,#391,.T.);
#389 = VERTEX_POINT('',#390);
#390 = CARTESIAN_POINT('',(105.4,85.,9.8));
#391 = CIRCLE('',#392,2.2);
#392 = AXIS2_PLACEMENT_3D('',#393,#394,#395);
#393 = CARTESIAN_POINT('',(103.2,85.,9.8));
#394 = DIRECTION('',(-0.,1.224646799147E-16,1.));
#395 = DIRECTION('',(1.,0.,0.));
#396 = ORIENTED_EDGE('',*,*,#397,.T.);
#397 = EDGE_CURVE('',#389,#88,#398,.T.);
#398 = CIRCLE('',#399,2.2);
#399 = AXIS2_PLACEMENT_3D('',#400,#401,#402);
#400 = CARTESIAN_POINT('',(103.2,85.,9.8));
#401 = DIRECTION('',(-0.,1.224646799147E-16,1.));
#402 = DIRECTION('',(1.,0.,0.));
#403 = ORIENTED_EDGE('',*,*,#95,.T.);
#404 = ORIENTED_EDGE('',*,*,#356,.T.);
#405 = ORIENTED_EDGE('',*,*,#406,.T.);
#406 = EDGE_CURVE('',#349,#373,#407,.T.);
#407 = LINE('',#408,#409);
#408 = CARTESIAN_POINT('',(109.,90.65,9.8));
#409 = VECTOR('',#410,1.);
#410 = DIRECTION('',(0.,-1.,-9.753532008526E-17));
#411 = PLANE('',#412);
#412 = AXIS2_PLACEMENT_3D('',#413,#414,#415);
#413 = CARTESIAN_POINT('',(104.,89.3,9.8));
#414 = DIRECTION('',(0.,9.753532008526E-17,-1.));
#415 = DIRECTION('',(-4.4E-16,-1.,-9.753532008526E-17));
#416 = ADVANCED_FACE('',(#417),#446,.F.);
#417 = FACE_BOUND('',#418,.T.);
#418 = EDGE_LOOP('',(#419,#420,#428,#437,#444,#445));
#419 = ORIENTED_EDGE('',*,*,#388,.F.);
#420 = ORIENTED_EDGE('',*,*,#421,.T.);
#421 = EDGE_CURVE('',#381,#422,#424,.T.);
#422 = VERTEX_POINT('',#423);
#423 = CARTESIAN_POINT('',(105.,83.735088935933,16.686548085423));
#424 = LINE('',#425,#426);
#425 = CARTESIAN_POINT('',(105.,83.735088935933,41.));
#426 = VECTOR('',#427,1.);
#427 = DIRECTION('',(-0.,1.224646799147E-16,1.));
#428 = ORIENTED_EDGE('',*,*,#429,.T.);
#429 = EDGE_CURVE('',#422,#430,#432,.T.);
#430 = VERTEX_POINT('',#431);
#431 = CARTESIAN_POINT('',(105.4,85.,15.));
#432 = ELLIPSE('',#433,3.666666666667,2.2);
#433 = AXIS2_PLACEMENT_3D('',#434,#435,#436);
#434 = CARTESIAN_POINT('',(103.2,85.,15.));
#435 = DIRECTION('',(-0.,0.8,0.6));
#436 = DIRECTION('',(0.,-0.6,0.8));
#437 = ORIENTED_EDGE('',*,*,#438,.T.);
#438 = EDGE_CURVE('',#430,#80,#439,.T.);
#439 = ELLIPSE('',#440,3.666666666667,2.2);
#440 = AXIS2_PLACEMENT_3D('',#441,#442,#443);
#441 = CARTESIAN_POINT('',(103.2,85.,15.));
#442 = DIRECTION('',(0.,-0.8,0.6));
#443 = DIRECTION('',(0.,0.6,0.8));
#444 = ORIENTED_EDGE('',*,*,#87,.F.);
#445 = ORIENTED_EDGE('',*,*,#397,.F.);
#446 = CYLINDRICAL_SURFACE('',#447,2.2);
#447 = AXIS2_PLACEMENT_3D('',#448,#449,#450);
#448 = CARTESIAN_POINT('',(103.2,85.,41.));
#449 = DIRECTION('',(-0.,1.224646799147E-16,1.));
#450 = DIRECTION('',(1.,0.,0.));
#451 = ADVANCED_FACE('',(#452),#478,.T.);
#452 = FACE_BOUND('',#453,.T.);
#453 = EDGE_LOOP('',(#454,#462,#463,#464,#472));
#454 = ORIENTED_EDGE('',*,*,#455,.F.);
#455 = EDGE_CURVE('',#72,#456,#458,.T.);
#456 = VERTEX_POINT('',#457);
#457 = CARTESIAN_POINT('',(109.,88.,19.));
#458 = LINE('',#459,#460);
#459 = CARTESIAN_POINT('',(104.,88.,19.));
#460 = VECTOR('',#461,1.);
#461 = DIRECTION('',(1.,0.,0.));
#462 = ORIENTED_EDGE('',*,*,#79,.T.);
#463 = ORIENTED_EDGE('',*,*,#438,.F.);
#464 = ORIENTED_EDGE('',*,*,#465,.T.);
#465 = EDGE_CURVE('',#430,#466,#468,.T.);
#466 = VERTEX_POINT('',#467);
#467 = CARTESIAN_POINT('',(109.,85.,15.));
#468 = LINE('',#469,#470);
#469 = CARTESIAN_POINT('',(104.,85.,15.));
#470 = VECTOR('',#471,1.);
#471 = DIRECTION('',(1.,0.,0.));
#472 = ORIENTED_EDGE('',*,*,#473,.T.);
#473 = EDGE_CURVE('',#466,#456,#474,.T.);
#474 = LINE('',#475,#476);
#475 = CARTESIAN_POINT('',(109.,91.3,23.4));
#476 = VECTOR('',#477,1.);
#477 = DIRECTION('',(-0.,0.6,0.8));
#478 = PLANE('',#479);
#479 = AXIS2_PLACEMENT_3D('',#480,#481,#482);
#480 = CARTESIAN_POINT('',(104.,85.,15.));
#481 = DIRECTION('',(0.,-0.8,0.6));
#482 = DIRECTION('',(9.E-17,0.6,0.8));
#483 = ADVANCED_FACE('',(#484),#511,.T.);
#484 = FACE_BOUND('',#485,.T.);
#485 = EDGE_LOOP('',(#486,#495,#496,#497,#505));
#486 = ORIENTED_EDGE('',*,*,#487,.F.);
#487 = EDGE_CURVE('',#64,#488,#490,.T.);
#488 = VERTEX_POINT('',#489);
#489 = CARTESIAN_POINT('',(105.4,85.,23.));
#490 = ELLIPSE('',#491,3.666666666667,2.2);
#491 = AXIS2_PLACEMENT_3D('',#492,#493,#494);
#492 = CARTESIAN_POINT('',(103.2,85.,23.));
#493 = DIRECTION('',(0.,-0.8,-0.6));
#494 = DIRECTION('',(0.,-0.6,0.8));
#495 = ORIENTED_EDGE('',*,*,#71,.T.);
#496 = ORIENTED_EDGE('',*,*,#455,.T.);
#497 = ORIENTED_EDGE('',*,*,#498,.T.);
#498 = EDGE_CURVE('',#456,#499,#501,.T.);
#499 = VERTEX_POINT('',#500);
#500 = CARTESIAN_POINT('',(109.,85.,23.));
#501 = LINE('',#502,#503);
#502 = CARTESIAN_POINT('',(109.,84.64,23.48));
#503 = VECTOR('',#504,1.);
#504 = DIRECTION('',(0.,-0.6,0.8));
#505 = ORIENTED_EDGE('',*,*,#506,.F.);
#506 = EDGE_CURVE('',#488,#499,#507,.T.);
#507 = LINE('',#508,#509);
#508 = CARTESIAN_POINT('',(104.,85.,23.));
#509 = VECTOR('',#510,1.);
#510 = DIRECTION('',(1.,0.,0.));
#511 = PLANE('',#512);
#512 = AXIS2_PLACEMENT_3D('',#513,#514,#515);
#513 = CARTESIAN_POINT('',(104.,88.,19.));
#514 = DIRECTION('',(0.,-0.8,-0.6));
#515 = DIRECTION('',(-4.4E-16,-0.6,0.8));
#516 = ADVANCED_FACE('',(#517),#554,.F.);
#517 = FACE_BOUND('',#518,.T.);
#518 = EDGE_LOOP('',(#519,#528,#536,#545,#552,#553));
#519 = ORIENTED_EDGE('',*,*,#520,.T.);
#520 = EDGE_CURVE('',#488,#521,#523,.T.);
#521 = VERTEX_POINT('',#522);
#522 = CARTESIAN_POINT('',(105.,83.735088935933,21.313451914577));
#523 = ELLIPSE('',#524,3.666666666667,2.2);
#524 = AXIS2_PLACEMENT_3D('',#525,#526,#527);
#525 = CARTESIAN_POINT('',(103.2,85.,23.));
#526 = DIRECTION('',(0.,0.8,-0.6));
#527 = DIRECTION('',(0.,0.6,0.8));
#528 = ORIENTED_EDGE('',*,*,#529,.T.);
#529 = EDGE_CURVE('',#521,#530,#532,.T.);
#530 = VERTEX_POINT('',#531);
#531 = CARTESIAN_POINT('',(105.,83.735088935933,28.2));
#532 = LINE('',#533,#534);
#533 = CARTESIAN_POINT('',(105.,83.735088935933,41.));
#534 = VECTOR('',#535,1.);
#535 = DIRECTION('',(-0.,1.224646799147E-16,1.));
#536 = ORIENTED_EDGE('',*,*,#537,.T.);
#537 = EDGE_CURVE('',#530,#538,#540,.T.);
#538 = VERTEX_POINT('',#539);
#539 = CARTESIAN_POINT('',(105.4,85.,28.2));
#540 = CIRCLE('',#541,2.2);
#541 = AXIS2_PLACEMENT_3D('',#542,#543,#544);
#542 = CARTESIAN_POINT('',(103.2,85.,28.2));
#543 = DIRECTION('',(-0.,1.224646799147E-16,1.));
#544 = DIRECTION('',(1.,0.,0.));
#545 = ORIENTED_EDGE('',*,*,#546,.T.);
#546 = EDGE_CURVE('',#538,#56,#547,.T.);
#547 = CIRCLE('',#548,2.2);
#548 = AXIS2_PLACEMENT_3D('',#549,#550,#551);
#549 = CARTESIAN_POINT('',(103.2,85.,28.2));
#550 = DIRECTION('',(-0.,1.224646799147E-16,1.));
#551 = DIRECTION('',(1.,0.,0.));
#552 = ORIENTED_EDGE('',*,*,#63,.F.);
#553 = ORIENTED_EDGE('',*,*,#487,.T.);
#554 = CYLINDRICAL_SURFACE('',#555,2.2);
#555 = AXIS2_PLACEMENT_3D('',#556,#557,#558);
#556 = CARTESIAN_POINT('',(103.2,85.,41.));
#557 = DIRECTION('',(-0.,1.224646799147E-16,1.));
#558 = DIRECTION('',(1.,0.,0.));
#559 = ADVANCED_FACE('',(#560),#595,.T.);
#560 = FACE_BOUND('',#561,.T.);
#561 = EDGE_LOOP('',(#562,#570,#571,#572,#573,#581,#589));
#562 = ORIENTED_EDGE('',*,*,#563,.F.);
#563 = EDGE_CURVE('',#48,#564,#566,.T.);
#564 = VERTEX_POINT('',#565);
#565 = CARTESIAN_POINT('',(109.,89.3,28.2));
#566 = LINE('',#567,#568);
#567 = CARTESIAN_POINT('',(104.,89.3,28.2));
#568 = VECTOR('',#569,1.);
#569 = DIRECTION('',(1.,0.,0.));
#570 = ORIENTED_EDGE('',*,*,#55,.T.);
#571 = ORIENTED_EDGE('',*,*,#546,.F.);
#572 = ORIENTED_EDGE('',*,*,#537,.F.);
#573 = ORIENTED_EDGE('',*,*,#574,.T.);
#574 = EDGE_CURVE('',#530,#575,#577,.T.);
#575 = VERTEX_POINT('',#576);
#576 = CARTESIAN_POINT('',(105.,80.7,28.2));
#577 = LINE('',#578,#579);
#578 = CARTESIAN_POINT('',(105.,79.35,28.2));
#579 = VECTOR('',#580,1.);
#580 = DIRECTION('',(0.,-1.,-9.753532008526E-17));
#581 = ORIENTED_EDGE('',*,*,#582,.T.);
#582 = EDGE_CURVE('',#575,#583,#585,.T.);
#583 = VERTEX_POINT('',#584);
#584 = CARTESIAN_POINT('',(109.,80.7,28.2));
#585 = LINE('',#586,#587);
#586 = CARTESIAN_POINT('',(104.,80.7,28.2));
#587 = VECTOR('',#588,1.);
#588 = DIRECTION('',(1.,0.,0.));
#589 = ORIENTED_EDGE('',*,*,#590,.T.);
#590 = EDGE_CURVE('',#583,#564,#591,.T.);
#591 = LINE('',#592,#593);
#592 = CARTESIAN_POINT('',(109.,86.35,28.2));
#593 = VECTOR('',#594,1.);
#594 = DIRECTION('',(-0.,1.,9.753532008526E-17));
#595 = PLANE('',#596);
#596 = AXIS2_PLACEMENT_3D('',#597,#598,#599);
#597 = CARTESIAN_POINT('',(104.,80.7,28.2));
#598 = DIRECTION('',(0.,-9.753532008526E-17,1.));
#599 = DIRECTION('',(4.4E-16,1.,9.753532008526E-17));
#600 = ADVANCED_FACE('',(#601),#619,.T.);
#601 = FACE_BOUND('',#602,.T.);
#602 = EDGE_LOOP('',(#603,#604,#605,#613));
#603 = ORIENTED_EDGE('',*,*,#47,.T.);
#604 = ORIENTED_EDGE('',*,*,#563,.T.);
#605 = ORIENTED_EDGE('',*,*,#606,.T.);
#606 = EDGE_CURVE('',#564,#607,#609,.T.);
#607 = VERTEX_POINT('',#608);
#608 = CARTESIAN_POINT('',(109.,89.3,33.8));
#609 = LINE('',#610,#611);
#610 = CARTESIAN_POINT('',(109.,89.3,32.1));
#611 = VECTOR('',#612,1.);
#612 = DIRECTION('',(0.,-9.753532008526E-17,1.));
#613 = ORIENTED_EDGE('',*,*,#614,.F.);
#614 = EDGE_CURVE('',#40,#607,#615,.T.);
#615 = LINE('',#616,#617);
#616 = CARTESIAN_POINT('',(104.,89.3,33.8));
#617 = VECTOR('',#618,1.);
#618 = DIRECTION('',(1.,0.,0.));
#619 = PLANE('',#620);
#620 = AXIS2_PLACEMENT_3D('',#621,#622,#623);
#621 = CARTESIAN_POINT('',(104.,89.3,28.2));
#622 = DIRECTION('',(0.,-1.,-9.753532008526E-17));
#623 = DIRECTION('',(-2.2E-16,-9.753532008526E-17,1.));
#624 = ADVANCED_FACE('',(#625),#669,.T.);
#625 = FACE_BOUND('',#626,.T.);
#626 = EDGE_LOOP('',(#627,#637,#645,#654,#661,#662,#663));
#627 = ORIENTED_EDGE('',*,*,#628,.F.);
#628 = EDGE_CURVE('',#629,#631,#633,.T.);
#629 = VERTEX_POINT('',#630);
#630 = CARTESIAN_POINT('',(105.,80.7,33.8));
#631 = VERTEX_POINT('',#632);
#632 = CARTESIAN_POINT('',(109.,80.7,33.8));
#633 = LINE('',#634,#635);
#634 = CARTESIAN_POINT('',(104.,80.7,33.8));
#635 = VECTOR('',#636,1.);
#636 = DIRECTION('',(1.,0.,0.));
#637 = ORIENTED_EDGE('',*,*,#638,.T.);
#638 = EDGE_CURVE('',#629,#639,#641,.T.);
#639 = VERTEX_POINT('',#640);
#640 = CARTESIAN_POINT('',(105.,83.735088935933,33.8));
#641 = LINE('',#642,#643);
#642 = CARTESIAN_POINT('',(105.,83.65,33.8));
#643 = VECTOR('',#644,1.);
#644 = DIRECTION('',(0.,1.,9.753532008526E-17));
#645 = ORIENTED_EDGE('',*,*,#646,.T.);
#646 = EDGE_CURVE('',#639,#647,#649,.T.);
#647 = VERTEX_POINT('',#648);
#648 = CARTESIAN_POINT('',(105.4,85.,33.8));
#649 = CIRCLE('',#650,2.2);
#650 = AXIS2_PLACEMENT_3D('',#651,#652,#653);
#651 = CARTESIAN_POINT('',(103.2,85.,33.8));
#652 = DIRECTION('',(-0.,1.224646799147E-16,1.));
#653 = DIRECTION('',(1.,0.,0.));
#654 = ORIENTED_EDGE('',*,*,#655,.T.);
#655 = EDGE_CURVE('',#647,#32,#656,.T.);
#656 = CIRCLE('',#657,2.2);
#657 = AXIS2_PLACEMENT_3D('',#658,#659,#660);
#658 = CARTESIAN_POINT('',(103.2,85.,33.8));
#659 = DIRECTION('',(-0.,1.224646799147E-16,1.));
#660 = DIRECTION('',(1.,0.,0.));
#661 = ORIENTED_EDGE('',*,*,#39,.T.);
#662 = ORIENTED_EDGE('',*,*,#614,.T.);
#663 = ORIENTED_EDGE('',*,*,#664,.T.);
#664 = EDGE_CURVE('',#607,#631,#665,.T.);
#665 = LINE('',#666,#667);
#666 = CARTESIAN_POINT('',(109.,90.65,33.8));
#667 = VECTOR('',#668,1.);
#668 = DIRECTION('',(0.,-1.,-9.753532008526E-17));
#669 = PLANE('',#670);
#670 = AXIS2_PLACEMENT_3D('',#671,#672,#673);
#671 = CARTESIAN_POINT('',(104.,89.3,33.8));
#672 = DIRECTION('',(0.,9.753532008526E-17,-1.));
#673 = DIRECTION('',(-4.4E-16,-1.,-9.753532008526E-17));
#674 = ADVANCED_FACE('',(#675),#688,.F.);
#675 = FACE_BOUND('',#676,.T.);
#676 = EDGE_LOOP('',(#677,#678,#684,#685,#686,#687));
#677 = ORIENTED_EDGE('',*,*,#646,.F.);
#678 = ORIENTED_EDGE('',*,*,#679,.T.);
#679 = EDGE_CURVE('',#639,#175,#680,.T.);
#680 = LINE('',#681,#682);
#681 = CARTESIAN_POINT('',(105.,83.735088935933,41.));
#682 = VECTOR('',#683,1.);
#683 = DIRECTION('',(-0.,1.224646799147E-16,1.));
#684 = ORIENTED_EDGE('',*,*,#182,.T.);
#685 = ORIENTED_EDGE('',*,*,#191,.T.);
#686 = ORIENTED_EDGE('',*,*,#31,.F.);
#687 = ORIENTED_EDGE('',*,*,#655,.F.);
#688 = CYLINDRICAL_SURFACE('',#689,2.2);
#689 = AXIS2_PLACEMENT_3D('',#690,#691,#692);
#690 = CARTESIAN_POINT('',(103.2,85.,41.));
#691 = DIRECTION('',(-0.,1.224646799147E-16,1.));
#692 = DIRECTION('',(1.,0.,0.));
#693 = ADVANCED_FACE('',(#694),#738,.F.);
#694 = FACE_BOUND('',#695,.F.);
#695 = EDGE_LOOP('',(#696,#697,#703,#704,#705,#706,#712,#713,#714,#722,
    #728,#729,#730,#736,#737));
#696 = ORIENTED_EDGE('',*,*,#174,.F.);
#697 = ORIENTED_EDGE('',*,*,#698,.T.);
#698 = EDGE_CURVE('',#167,#231,#699,.T.);
#699 = LINE('',#700,#701);
#700 = CARTESIAN_POINT('',(105.,78.,36.));
#701 = VECTOR('',#702,1.);
#702 = DIRECTION('',(0.,-1.224646799147E-16,-1.));
#703 = ORIENTED_EDGE('',*,*,#240,.T.);
#704 = ORIENTED_EDGE('',*,*,#272,.T.);
#705 = ORIENTED_EDGE('',*,*,#316,.T.);
#706 = ORIENTED_EDGE('',*,*,#707,.T.);
#707 = EDGE_CURVE('',#317,#371,#708,.T.);
#708 = LINE('',#709,#710);
#709 = CARTESIAN_POINT('',(105.,80.7,22.9));
#710 = VECTOR('',#711,1.);
#711 = DIRECTION('',(0.,-9.753532008526E-17,1.));
#712 = ORIENTED_EDGE('',*,*,#380,.T.);
#713 = ORIENTED_EDGE('',*,*,#421,.T.);
#714 = ORIENTED_EDGE('',*,*,#715,.T.);
#715 = EDGE_CURVE('',#422,#716,#718,.T.);
#716 = VERTEX_POINT('',#717);
#717 = CARTESIAN_POINT('',(105.,82.,19.));
#718 = LINE('',#719,#720);
#719 = CARTESIAN_POINT('',(105.,77.2,25.4));
#720 = VECTOR('',#721,1.);
#721 = DIRECTION('',(0.,-0.6,0.8));
#722 = ORIENTED_EDGE('',*,*,#723,.T.);
#723 = EDGE_CURVE('',#716,#521,#724,.T.);
#724 = LINE('',#725,#726);
#725 = CARTESIAN_POINT('',(105.,86.86,25.48));
#726 = VECTOR('',#727,1.);
#727 = DIRECTION('',(0.,0.6,0.8));
#728 = ORIENTED_EDGE('',*,*,#529,.T.);
#729 = ORIENTED_EDGE('',*,*,#574,.T.);
#730 = ORIENTED_EDGE('',*,*,#731,.T.);
#731 = EDGE_CURVE('',#575,#629,#732,.T.);
#732 = LINE('',#733,#734);
#733 = CARTESIAN_POINT('',(105.,80.7,34.9));
#734 = VECTOR('',#735,1.);
#735 = DIRECTION('',(0.,-9.753532008526E-17,1.));
#736 = ORIENTED_EDGE('',*,*,#638,.T.);
#737 = ORIENTED_EDGE('',*,*,#679,.T.);
#738 = PLANE('',#739);
#739 = AXIS2_PLACEMENT_3D('',#740,#741,#742);
#740 = CARTESIAN_POINT('',(105.,78.,36.));
#741 = DIRECTION('',(1.,0.,0.));
#742 = DIRECTION('',(0.,1.,-1.224646799147E-16));
#743 = ADVANCED_FACE('',(#744),#755,.F.);
#744 = FACE_BOUND('',#745,.F.);
#745 = EDGE_LOOP('',(#746,#747,#753,#754));
#746 = ORIENTED_EDGE('',*,*,#166,.F.);
#747 = ORIENTED_EDGE('',*,*,#748,.T.);
#748 = EDGE_CURVE('',#159,#233,#749,.T.);
#749 = LINE('',#750,#751);
#750 = CARTESIAN_POINT('',(109.,78.,36.));
#751 = VECTOR('',#752,1.);
#752 = DIRECTION('',(0.,-1.224646799147E-16,-1.));
#753 = ORIENTED_EDGE('',*,*,#230,.F.);
#754 = ORIENTED_EDGE('',*,*,#698,.F.);
#755 = PLANE('',#756);
#756 = AXIS2_PLACEMENT_3D('',#757,#758,#759);
#757 = CARTESIAN_POINT('',(109.,78.,36.));
#758 = DIRECTION('',(0.,1.,-1.224646799147E-16));
#759 = DIRECTION('',(-1.,-0.,0.));
#760 = ADVANCED_FACE('',(#761,#767,#778,#789),#807,.T.);
#761 = FACE_BOUND('',#762,.T.);
#762 = EDGE_LOOP('',(#763,#764,#765,#766));
#763 = ORIENTED_EDGE('',*,*,#748,.T.);
#764 = ORIENTED_EDGE('',*,*,#257,.T.);
#765 = ORIENTED_EDGE('',*,*,#216,.F.);
#766 = ORIENTED_EDGE('',*,*,#158,.T.);
#767 = FACE_BOUND('',#768,.T.);
#768 = EDGE_LOOP('',(#769,#770,#771,#777));
#769 = ORIENTED_EDGE('',*,*,#606,.F.);
#770 = ORIENTED_EDGE('',*,*,#590,.F.);
#771 = ORIENTED_EDGE('',*,*,#772,.F.);
#772 = EDGE_CURVE('',#631,#583,#773,.T.);
#773 = LINE('',#774,#775);
#774 = CARTESIAN_POINT('',(109.,80.7,34.9));
#775 = VECTOR('',#776,1.);
#776 = DIRECTION('',(0.,9.753532008526E-17,-1.));
#777 = ORIENTED_EDGE('',*,*,#664,.F.);
#778 = FACE_BOUND('',#779,.T.);
#779 = EDGE_LOOP('',(#780,#781,#782,#788));
#780 = ORIENTED_EDGE('',*,*,#348,.F.);
#781 = ORIENTED_EDGE('',*,*,#332,.F.);
#782 = ORIENTED_EDGE('',*,*,#783,.F.);
#783 = EDGE_CURVE('',#373,#325,#784,.T.);
#784 = LINE('',#785,#786);
#785 = CARTESIAN_POINT('',(109.,80.7,22.9));
#786 = VECTOR('',#787,1.);
#787 = DIRECTION('',(0.,9.753532008526E-17,-1.));
#788 = ORIENTED_EDGE('',*,*,#406,.F.);
#789 = FACE_BOUND('',#790,.T.);
#790 = EDGE_LOOP('',(#791,#792,#800,#806));
#791 = ORIENTED_EDGE('',*,*,#473,.F.);
#792 = ORIENTED_EDGE('',*,*,#793,.F.);
#793 = EDGE_CURVE('',#794,#466,#796,.T.);
#794 = VERTEX_POINT('',#795);
#795 = CARTESIAN_POINT('',(109.,82.,19.));
#796 = LINE('',#797,#798);
#797 = CARTESIAN_POINT('',(109.,79.72,22.04));
#798 = VECTOR('',#799,1.);
#799 = DIRECTION('',(0.,0.6,-0.8));
#800 = ORIENTED_EDGE('',*,*,#801,.F.);
#801 = EDGE_CURVE('',#499,#794,#802,.T.);
#802 = LINE('',#803,#804);
#803 = CARTESIAN_POINT('',(109.,89.38,28.84));
#804 = VECTOR('',#805,1.);
#805 = DIRECTION('',(0.,-0.6,-0.8));
#806 = ORIENTED_EDGE('',*,*,#498,.F.);
#807 = PLANE('',#808);
#808 = AXIS2_PLACEMENT_3D('',#809,#810,#811);
#809 = CARTESIAN_POINT('',(109.,89.482300435147,-16.28642946165));
#810 = DIRECTION('',(1.,-8.4E-16,1.028703311284E-31));
#811 = DIRECTION('',(-8.4E-16,-1.,1.224646799147E-16));
#812 = ADVANCED_FACE('',(#813),#819,.T.);
#813 = FACE_BOUND('',#814,.T.);
#814 = EDGE_LOOP('',(#815,#816,#817,#818));
#815 = ORIENTED_EDGE('',*,*,#707,.T.);
#816 = ORIENTED_EDGE('',*,*,#370,.T.);
#817 = ORIENTED_EDGE('',*,*,#783,.T.);
#818 = ORIENTED_EDGE('',*,*,#324,.F.);
#819 = PLANE('',#820);
#820 = AXIS2_PLACEMENT_3D('',#821,#822,#823);
#821 = CARTESIAN_POINT('',(104.,80.7,9.8));
#822 = DIRECTION('',(0.,1.,9.753532008526E-17));
#823 = DIRECTION('',(2.2E-16,9.753532008526E-17,-1.));
#824 = ADVANCED_FACE('',(#825),#837,.T.);
#825 = FACE_BOUND('',#826,.T.);
#826 = EDGE_LOOP('',(#827,#828,#829,#835,#836));
#827 = ORIENTED_EDGE('',*,*,#429,.F.);
#828 = ORIENTED_EDGE('',*,*,#715,.T.);
#829 = ORIENTED_EDGE('',*,*,#830,.T.);
#830 = EDGE_CURVE('',#716,#794,#831,.T.);
#831 = LINE('',#832,#833);
#832 = CARTESIAN_POINT('',(104.,82.,19.));
#833 = VECTOR('',#834,1.);
#834 = DIRECTION('',(1.,0.,0.));
#835 = ORIENTED_EDGE('',*,*,#793,.T.);
#836 = ORIENTED_EDGE('',*,*,#465,.F.);
#837 = PLANE('',#838);
#838 = AXIS2_PLACEMENT_3D('',#839,#840,#841);
#839 = CARTESIAN_POINT('',(104.,82.,19.));
#840 = DIRECTION('',(0.,0.8,0.6));
#841 = DIRECTION('',(4.4E-16,0.6,-0.8));
#842 = ADVANCED_FACE('',(#843),#850,.T.);
#843 = FACE_BOUND('',#844,.T.);
#844 = EDGE_LOOP('',(#845,#846,#847,#848,#849));
#845 = ORIENTED_EDGE('',*,*,#830,.F.);
#846 = ORIENTED_EDGE('',*,*,#723,.T.);
#847 = ORIENTED_EDGE('',*,*,#520,.F.);
#848 = ORIENTED_EDGE('',*,*,#506,.T.);
#849 = ORIENTED_EDGE('',*,*,#801,.T.);
#850 = PLANE('',#851);
#851 = AXIS2_PLACEMENT_3D('',#852,#853,#854);
#852 = CARTESIAN_POINT('',(104.,85.,23.));
#853 = DIRECTION('',(0.,0.8,-0.6));
#854 = DIRECTION('',(-9.E-17,-0.6,-0.8));
#855 = ADVANCED_FACE('',(#856),#862,.T.);
#856 = FACE_BOUND('',#857,.T.);
#857 = EDGE_LOOP('',(#858,#859,#860,#861));
#858 = ORIENTED_EDGE('',*,*,#731,.T.);
#859 = ORIENTED_EDGE('',*,*,#628,.T.);
#860 = ORIENTED_EDGE('',*,*,#772,.T.);
#861 = ORIENTED_EDGE('',*,*,#582,.F.);
#862 = PLANE('',#863);
#863 = AXIS2_PLACEMENT_3D('',#864,#865,#866);
#864 = CARTESIAN_POINT('',(104.,80.7,33.8));
#865 = DIRECTION('',(0.,1.,9.753532008526E-17));
#866 = DIRECTION('',(2.2E-16,9.753532008526E-17,-1.));
#867 = ( GEOMETRIC_REPRESENTATION_CONTEXT(3) 
GLOBAL_UNCERTAINTY_ASSIGNED_CONTEXT((#871)) GLOBAL_UNIT_ASSIGNED_CONTEXT
((#868,#869,#870)) REPRESENTATION_CONTEXT('Context #1',
  '3D Context with UNIT and UNCERTAINTY') );
#868 = ( LENGTH_UNIT() NAMED_UNIT(*) SI_UNIT(.MILLI.,.METRE.) );
#869 = ( NAMED_UNIT(*) PLANE_ANGLE_UNIT() SI_UNIT($,.RADIAN.) );
#870 = ( NAMED_UNIT(*) SI_UNIT($,.STERADIAN.) SOLID_ANGLE_UNIT() );
#871 = UNCERTAINTY_MEASURE_WITH_UNIT(LENGTH_MEASURE(2.E-05),#868,
  'distance_accuracy_value','confusion accuracy');
#872 = PRODUCT_RELATED_PRODUCT_CATEGORY('part',$,(#7));
ENDSEC;
END-ISO-10303-21;
