ISO-10303-21;
HEADER;
FILE_DESCRIPTION(('FreeCAD Model'),'2;1');
FILE_NAME('Open CASCADE Shape Model','2026-09-08T10:22:31',('FreeCAD'),(
    'FreeCAD'),'Open CASCADE STEP processor 7.8','FreeCAD','Unknown');
FILE_SCHEMA(('AUTOMOTIVE_DESIGN { 1 0 10303 214 1 1 1 1 }'));
ENDSEC;
DATA;
#1 = APPLICATION_PROTOCOL_DEFINITION('international standard',
  'automotive_design',2000,#2);
#2 = APPLICATION_CONTEXT(
  'core data for automotive mechanical design processes');
#3 = SHAPE_DEFINITION_REPRESENTATION(#4,#10);
#4 = PRODUCT_DEFINITION_SHAPE('','',#5);
#5 = PRODUCT_DEFINITION('design','',#6,#9);
#6 = PRODUCT_DEFINITION_FORMATION('','',#7);
#7 = PRODUCT('Open CASCADE STEP translator 7.8 4',
  'Open CASCADE STEP translator 7.8 4','',(#8));
#8 = PRODUCT_CONTEXT('',#2,'mechanical');
#9 = PRODUCT_DEFINITION_CONTEXT('part definition',#2,'design');
#10 = ADVANCED_BREP_SHAPE_REPRESENTATION('',(#11,#15),#481);
#11 = AXIS2_PLACEMENT_3D('',#12,#13,#14);
#12 = CARTESIAN_POINT('',(0.,0.,0.));
#13 = DIRECTION('',(0.,0.,1.));
#14 = DIRECTION('',(1.,0.,-0.));
#15 = MANIFOLD_SOLID_BREP('',#16);
#16 = CLOSED_SHELL('',(#17,#118,#152,#184,#234,#251,#304,#322,#340,#372,
    #390,#414,#432,#443,#461,#471));
#17 = ADVANCED_FACE('',(#18),#113,.T.);
#18 = FACE_BOUND('',#19,.F.);
#19 = EDGE_LOOP('',(#20,#29,#37,#46,#54,#63,#71,#80,#88,#97,#105,#112));
#20 = ORIENTED_EDGE('',*,*,#21,.F.);
#21 = EDGE_CURVE('',#22,#22,#24,.T.);
#22 = VERTEX_POINT('',#23);
#23 = CARTESIAN_POINT('',(109.3,210.,2.4));
#24 = CIRCLE('',#25,1.5);
#25 = AXIS2_PLACEMENT_3D('',#26,#27,#28);
#26 = CARTESIAN_POINT('',(107.8,210.,2.4));
#27 = DIRECTION('',(-0.,1.224646799147E-16,1.));
#28 = DIRECTION('',(1.,0.,0.));
#29 = ORIENTED_EDGE('',*,*,#30,.T.);
#30 = EDGE_CURVE('',#22,#31,#33,.T.);
#31 = VERTEX_POINT('',#32);
#32 = CARTESIAN_POINT('',(109.3,210.,31.4));
#33 = LINE('',#34,#35);
#34 = CARTESIAN_POINT('',(109.3,210.,2.4));
#35 = VECTOR('',#36,1.);
#36 = DIRECTION('',(0.,1.224646799147E-16,1.));
#37 = ORIENTED_EDGE('',*,*,#38,.T.);
#38 = EDGE_CURVE('',#31,#39,#41,.T.);
#39 = VERTEX_POINT('',#40);
#40 = CARTESIAN_POINT('',(108.2,211.44568322948,31.4));
#41 = CIRCLE('',#42,1.5);
#42 = AXIS2_PLACEMENT_3D('',#43,#44,#45);
#43 = CARTESIAN_POINT('',(107.8,210.,31.4));
#44 = DIRECTION('',(-0.,1.224646799147E-16,1.));
#45 = DIRECTION('',(1.,0.,0.));
#46 = ORIENTED_EDGE('',*,*,#47,.T.);
#47 = EDGE_CURVE('',#39,#48,#50,.T.);
#48 = VERTEX_POINT('',#49);
#49 = CARTESIAN_POINT('',(108.2,211.44568322948,7.4));
#50 = LINE('',#51,#52);
#51 = CARTESIAN_POINT('',(108.2,211.44568322948,2.4));
#52 = VECTOR('',#53,1.);
#53 = DIRECTION('',(-0.,-1.224646799147E-16,-1.));
#54 = ORIENTED_EDGE('',*,*,#55,.F.);
#55 = EDGE_CURVE('',#56,#48,#58,.T.);
#56 = VERTEX_POINT('',#57);
#57 = CARTESIAN_POINT('',(107.4,211.44568322948,7.4));
#58 = CIRCLE('',#59,1.5);
#59 = AXIS2_PLACEMENT_3D('',#60,#61,#62);
#60 = CARTESIAN_POINT('',(107.8,210.,7.4));
#61 = DIRECTION('',(0.,-1.224646799147E-16,-1.));
#62 = DIRECTION('',(1.,0.,0.));
#63 = ORIENTED_EDGE('',*,*,#64,.F.);
#64 = EDGE_CURVE('',#65,#56,#67,.T.);
#65 = VERTEX_POINT('',#66);
#66 = CARTESIAN_POINT('',(107.4,211.44568322948,31.4));
#67 = LINE('',#68,#69);
#68 = CARTESIAN_POINT('',(107.4,211.44568322948,2.4));
#69 = VECTOR('',#70,1.);
#70 = DIRECTION('',(-0.,-1.224646799147E-16,-1.));
#71 = ORIENTED_EDGE('',*,*,#72,.T.);
#72 = EDGE_CURVE('',#65,#73,#75,.T.);
#73 = VERTEX_POINT('',#74);
#74 = CARTESIAN_POINT('',(107.4,208.55431677052,31.4));
#75 = CIRCLE('',#76,1.5);
#76 = AXIS2_PLACEMENT_3D('',#77,#78,#79);
#77 = CARTESIAN_POINT('',(107.8,210.,31.4));
#78 = DIRECTION('',(-0.,1.224646799147E-16,1.));
#79 = DIRECTION('',(1.,0.,0.));
#80 = ORIENTED_EDGE('',*,*,#81,.T.);
#81 = EDGE_CURVE('',#73,#82,#84,.T.);
#82 = VERTEX_POINT('',#83);
#83 = CARTESIAN_POINT('',(107.4,208.55431677052,7.4));
#84 = LINE('',#85,#86);
#85 = CARTESIAN_POINT('',(107.4,208.55431677052,2.4));
#86 = VECTOR('',#87,1.);
#87 = DIRECTION('',(-0.,-1.224646799147E-16,-1.));
#88 = ORIENTED_EDGE('',*,*,#89,.F.);
#89 = EDGE_CURVE('',#90,#82,#92,.T.);
#90 = VERTEX_POINT('',#91);
#91 = CARTESIAN_POINT('',(108.2,208.55431677052,7.4));
#92 = CIRCLE('',#93,1.5);
#93 = AXIS2_PLACEMENT_3D('',#94,#95,#96);
#94 = CARTESIAN_POINT('',(107.8,210.,7.4));
#95 = DIRECTION('',(0.,-1.224646799147E-16,-1.));
#96 = DIRECTION('',(1.,0.,0.));
#97 = ORIENTED_EDGE('',*,*,#98,.F.);
#98 = EDGE_CURVE('',#99,#90,#101,.T.);
#99 = VERTEX_POINT('',#100);
#100 = CARTESIAN_POINT('',(108.2,208.55431677052,31.4));
#101 = LINE('',#102,#103);
#102 = CARTESIAN_POINT('',(108.2,208.55431677052,2.4));
#103 = VECTOR('',#104,1.);
#104 = DIRECTION('',(-0.,-1.224646799147E-16,-1.));
#105 = ORIENTED_EDGE('',*,*,#106,.T.);
#106 = EDGE_CURVE('',#99,#31,#107,.T.);
#107 = CIRCLE('',#108,1.5);
#108 = AXIS2_PLACEMENT_3D('',#109,#110,#111);
#109 = CARTESIAN_POINT('',(107.8,210.,31.4));
#110 = DIRECTION('',(-0.,1.224646799147E-16,1.));
#111 = DIRECTION('',(1.,0.,0.));
#112 = ORIENTED_EDGE('',*,*,#30,.F.);
#113 = CYLINDRICAL_SURFACE('',#114,1.5);
#114 = AXIS2_PLACEMENT_3D('',#115,#116,#117);
#115 = CARTESIAN_POINT('',(107.8,210.,2.4));
#116 = DIRECTION('',(-0.,-1.224646799147E-16,-1.));
#117 = DIRECTION('',(1.,0.,0.));
#118 = ADVANCED_FACE('',(#119,#144),#147,.T.);
#119 = FACE_BOUND('',#120,.T.);
#120 = EDGE_LOOP('',(#121,#132,#138));
#121 = ORIENTED_EDGE('',*,*,#122,.T.);
#122 = EDGE_CURVE('',#123,#125,#127,.T.);
#123 = VERTEX_POINT('',#124);
#124 = CARTESIAN_POINT('',(109.3,213.16227766016,2.4));
#125 = VERTEX_POINT('',#126);
#126 = CARTESIAN_POINT('',(109.3,206.83772233983,2.4));
#127 = CIRCLE('',#128,3.5);
#128 = AXIS2_PLACEMENT_3D('',#129,#130,#131);
#129 = CARTESIAN_POINT('',(107.8,210.,2.4));
#130 = DIRECTION('',(-0.,1.224646799147E-16,1.));
#131 = DIRECTION('',(1.,0.,0.));
#132 = ORIENTED_EDGE('',*,*,#133,.T.);
#133 = EDGE_CURVE('',#125,#22,#134,.T.);
#134 = LINE('',#135,#136);
#135 = CARTESIAN_POINT('',(109.3,212.25,2.4));
#136 = VECTOR('',#137,1.);
#137 = DIRECTION('',(0.,1.,-1.224646799147E-16));
#138 = ORIENTED_EDGE('',*,*,#139,.T.);
#139 = EDGE_CURVE('',#22,#123,#140,.T.);
#140 = LINE('',#141,#142);
#141 = CARTESIAN_POINT('',(109.3,212.25,2.4));
#142 = VECTOR('',#143,1.);
#143 = DIRECTION('',(0.,1.,-1.224646799147E-16));
#144 = FACE_BOUND('',#145,.T.);
#145 = EDGE_LOOP('',(#146));
#146 = ORIENTED_EDGE('',*,*,#21,.F.);
#147 = PLANE('',#148);
#148 = AXIS2_PLACEMENT_3D('',#149,#150,#151);
#149 = CARTESIAN_POINT('',(107.8,210.,2.4));
#150 = DIRECTION('',(0.,1.224646799147E-16,1.));
#151 = DIRECTION('',(1.,0.,0.));
#152 = ADVANCED_FACE('',(#153),#179,.T.);
#153 = FACE_BOUND('',#154,.T.);
#154 = EDGE_LOOP('',(#155,#156,#163,#172));
#155 = ORIENTED_EDGE('',*,*,#106,.T.);
#156 = ORIENTED_EDGE('',*,*,#157,.T.);
#157 = EDGE_CURVE('',#31,#158,#160,.T.);
#158 = VERTEX_POINT('',#159);
#159 = CARTESIAN_POINT('',(109.7,210.,32.2));
#160 = B_SPLINE_CURVE_WITH_KNOTS('',1,(#161,#162),.UNSPECIFIED.,.F.,.F.,
  (2,2),(0.,1.),.PIECEWISE_BEZIER_KNOTS.);
#161 = CARTESIAN_POINT('',(109.3,210.,31.4));
#162 = CARTESIAN_POINT('',(109.7,210.,32.2));
#163 = ORIENTED_EDGE('',*,*,#164,.F.);
#164 = EDGE_CURVE('',#165,#158,#167,.T.);
#165 = VERTEX_POINT('',#166);
#166 = CARTESIAN_POINT('',(108.2,208.14258243789,32.2));
#167 = CIRCLE('',#168,1.9);
#168 = AXIS2_PLACEMENT_3D('',#169,#170,#171);
#169 = CARTESIAN_POINT('',(107.8,210.,32.2));
#170 = DIRECTION('',(-0.,1.224646799147E-16,1.));
#171 = DIRECTION('',(1.,0.,0.));
#172 = ORIENTED_EDGE('',*,*,#173,.T.);
#173 = EDGE_CURVE('',#165,#99,#174,.T.);
#174 = HYPERBOLA('',#175,0.8,0.4);
#175 = AXIS2_PLACEMENT_3D('',#176,#177,#178);
#176 = CARTESIAN_POINT('',(108.2,210.,28.4));
#177 = DIRECTION('',(-1.,0.,0.));
#178 = DIRECTION('',(0.,1.224646799147E-16,1.));
#179 = CONICAL_SURFACE('',#180,1.5,0.463647609001);
#180 = AXIS2_PLACEMENT_3D('',#181,#182,#183);
#181 = CARTESIAN_POINT('',(107.8,210.,31.4));
#182 = DIRECTION('',(0.,1.224646799147E-16,1.));
#183 = DIRECTION('',(1.,0.,0.));
#184 = ADVANCED_FACE('',(#185),#229,.T.);
#185 = FACE_BOUND('',#186,.T.);
#186 = EDGE_LOOP('',(#187,#193,#194,#195,#204,#212,#221,#228));
#187 = ORIENTED_EDGE('',*,*,#188,.F.);
#188 = EDGE_CURVE('',#90,#48,#189,.T.);
#189 = LINE('',#190,#191);
#190 = CARTESIAN_POINT('',(108.2,207.1,7.4));
#191 = VECTOR('',#192,1.);
#192 = DIRECTION('',(0.,1.,-1.224646799147E-16));
#193 = ORIENTED_EDGE('',*,*,#98,.F.);
#194 = ORIENTED_EDGE('',*,*,#173,.F.);
#195 = ORIENTED_EDGE('',*,*,#196,.F.);
#196 = EDGE_CURVE('',#197,#165,#199,.T.);
#197 = VERTEX_POINT('',#198);
#198 = CARTESIAN_POINT('',(108.2,208.8686291501,33.4));
#199 = HYPERBOLA('',#200,0.685714285714,0.4);
#200 = AXIS2_PLACEMENT_3D('',#201,#202,#203);
#201 = CARTESIAN_POINT('',(108.2,210.,35.457142857143));
#202 = DIRECTION('',(-1.,0.,-0.));
#203 = DIRECTION('',(0.,-1.224646799147E-16,-1.));
#204 = ORIENTED_EDGE('',*,*,#205,.F.);
#205 = EDGE_CURVE('',#206,#197,#208,.T.);
#206 = VERTEX_POINT('',#207);
#207 = CARTESIAN_POINT('',(108.2,211.13137084989,33.4));
#208 = LINE('',#209,#210);
#209 = CARTESIAN_POINT('',(108.2,208.55,33.4));
#210 = VECTOR('',#211,1.);
#211 = DIRECTION('',(0.,-1.,1.224646799147E-16));
#212 = ORIENTED_EDGE('',*,*,#213,.F.);
#213 = EDGE_CURVE('',#214,#206,#216,.T.);
#214 = VERTEX_POINT('',#215);
#215 = CARTESIAN_POINT('',(108.2,211.8574175621,32.2));
#216 = HYPERBOLA('',#217,0.685714285714,0.4);
#217 = AXIS2_PLACEMENT_3D('',#218,#219,#220);
#218 = CARTESIAN_POINT('',(108.2,210.,35.457142857143));
#219 = DIRECTION('',(-1.,0.,-0.));
#220 = DIRECTION('',(0.,-1.224646799147E-16,-1.));
#221 = ORIENTED_EDGE('',*,*,#222,.F.);
#222 = EDGE_CURVE('',#39,#214,#223,.T.);
#223 = HYPERBOLA('',#224,0.8,0.4);
#224 = AXIS2_PLACEMENT_3D('',#225,#226,#227);
#225 = CARTESIAN_POINT('',(108.2,210.,28.4));
#226 = DIRECTION('',(-1.,0.,0.));
#227 = DIRECTION('',(0.,1.224646799147E-16,1.));
#228 = ORIENTED_EDGE('',*,*,#47,.T.);
#229 = PLANE('',#230);
#230 = AXIS2_PLACEMENT_3D('',#231,#232,#233);
#231 = CARTESIAN_POINT('',(108.2,207.1,7.4));
#232 = DIRECTION('',(-1.,0.,0.));
#233 = DIRECTION('',(0.,1.,-1.224646799147E-16));
#234 = ADVANCED_FACE('',(#235),#246,.T.);
#235 = FACE_BOUND('',#236,.T.);
#236 = EDGE_LOOP('',(#237,#243,#244,#245));
#237 = ORIENTED_EDGE('',*,*,#238,.T.);
#238 = EDGE_CURVE('',#56,#82,#239,.T.);
#239 = LINE('',#240,#241);
#240 = CARTESIAN_POINT('',(107.4,212.9,7.4));
#241 = VECTOR('',#242,1.);
#242 = DIRECTION('',(0.,-1.,1.224646799147E-16));
#243 = ORIENTED_EDGE('',*,*,#89,.F.);
#244 = ORIENTED_EDGE('',*,*,#188,.T.);
#245 = ORIENTED_EDGE('',*,*,#55,.F.);
#246 = PLANE('',#247);
#247 = AXIS2_PLACEMENT_3D('',#248,#249,#250);
#248 = CARTESIAN_POINT('',(107.8,210.,7.4));
#249 = DIRECTION('',(0.,1.224646799147E-16,1.));
#250 = DIRECTION('',(1.,0.,0.));
#251 = ADVANCED_FACE('',(#252),#299,.T.);
#252 = FACE_BOUND('',#253,.T.);
#253 = EDGE_LOOP('',(#254,#255,#256,#265,#274,#282,#291,#298));
#254 = ORIENTED_EDGE('',*,*,#238,.F.);
#255 = ORIENTED_EDGE('',*,*,#64,.F.);
#256 = ORIENTED_EDGE('',*,*,#257,.F.);
#257 = EDGE_CURVE('',#258,#65,#260,.T.);
#258 = VERTEX_POINT('',#259);
#259 = CARTESIAN_POINT('',(107.4,211.8574175621,32.2));
#260 = HYPERBOLA('',#261,0.8,0.4);
#261 = AXIS2_PLACEMENT_3D('',#262,#263,#264);
#262 = CARTESIAN_POINT('',(107.4,210.,28.4));
#263 = DIRECTION('',(1.,0.,-0.));
#264 = DIRECTION('',(0.,1.224646799147E-16,1.));
#265 = ORIENTED_EDGE('',*,*,#266,.F.);
#266 = EDGE_CURVE('',#267,#258,#269,.T.);
#267 = VERTEX_POINT('',#268);
#268 = CARTESIAN_POINT('',(107.4,211.13137084989,33.4));
#269 = HYPERBOLA('',#270,0.685714285714,0.4);
#270 = AXIS2_PLACEMENT_3D('',#271,#272,#273);
#271 = CARTESIAN_POINT('',(107.4,210.,35.457142857143));
#272 = DIRECTION('',(1.,0.,0.));
#273 = DIRECTION('',(0.,-1.224646799147E-16,-1.));
#274 = ORIENTED_EDGE('',*,*,#275,.F.);
#275 = EDGE_CURVE('',#276,#267,#278,.T.);
#276 = VERTEX_POINT('',#277);
#277 = CARTESIAN_POINT('',(107.4,208.8686291501,33.4));
#278 = LINE('',#279,#280);
#279 = CARTESIAN_POINT('',(107.4,211.45,33.4));
#280 = VECTOR('',#281,1.);
#281 = DIRECTION('',(0.,1.,-1.224646799147E-16));
#282 = ORIENTED_EDGE('',*,*,#283,.F.);
#283 = EDGE_CURVE('',#284,#276,#286,.T.);
#284 = VERTEX_POINT('',#285);
#285 = CARTESIAN_POINT('',(107.4,208.14258243789,32.2));
#286 = HYPERBOLA('',#287,0.685714285714,0.4);
#287 = AXIS2_PLACEMENT_3D('',#288,#289,#290);
#288 = CARTESIAN_POINT('',(107.4,210.,35.457142857143));
#289 = DIRECTION('',(1.,0.,0.));
#290 = DIRECTION('',(0.,-1.224646799147E-16,-1.));
#291 = ORIENTED_EDGE('',*,*,#292,.F.);
#292 = EDGE_CURVE('',#73,#284,#293,.T.);
#293 = HYPERBOLA('',#294,0.8,0.4);
#294 = AXIS2_PLACEMENT_3D('',#295,#296,#297);
#295 = CARTESIAN_POINT('',(107.4,210.,28.4));
#296 = DIRECTION('',(1.,0.,-0.));
#297 = DIRECTION('',(0.,1.224646799147E-16,1.));
#298 = ORIENTED_EDGE('',*,*,#81,.T.);
#299 = PLANE('',#300);
#300 = AXIS2_PLACEMENT_3D('',#301,#302,#303);
#301 = CARTESIAN_POINT('',(107.4,212.9,7.4));
#302 = DIRECTION('',(1.,0.,0.));
#303 = DIRECTION('',(0.,-1.,1.224646799147E-16));
#304 = ADVANCED_FACE('',(#305),#317,.T.);
#305 = FACE_BOUND('',#306,.T.);
#306 = EDGE_LOOP('',(#307,#308,#309,#310));
#307 = ORIENTED_EDGE('',*,*,#257,.T.);
#308 = ORIENTED_EDGE('',*,*,#72,.T.);
#309 = ORIENTED_EDGE('',*,*,#292,.T.);
#310 = ORIENTED_EDGE('',*,*,#311,.F.);
#311 = EDGE_CURVE('',#258,#284,#312,.T.);
#312 = CIRCLE('',#313,1.9);
#313 = AXIS2_PLACEMENT_3D('',#314,#315,#316);
#314 = CARTESIAN_POINT('',(107.8,210.,32.2));
#315 = DIRECTION('',(-0.,1.224646799147E-16,1.));
#316 = DIRECTION('',(1.,0.,0.));
#317 = CONICAL_SURFACE('',#318,1.5,0.463647609001);
#318 = AXIS2_PLACEMENT_3D('',#319,#320,#321);
#319 = CARTESIAN_POINT('',(107.8,210.,31.4));
#320 = DIRECTION('',(0.,1.224646799147E-16,1.));
#321 = DIRECTION('',(1.,0.,0.));
#322 = ADVANCED_FACE('',(#323),#335,.T.);
#323 = FACE_BOUND('',#324,.T.);
#324 = EDGE_LOOP('',(#325,#326,#327,#328));
#325 = ORIENTED_EDGE('',*,*,#157,.F.);
#326 = ORIENTED_EDGE('',*,*,#38,.T.);
#327 = ORIENTED_EDGE('',*,*,#222,.T.);
#328 = ORIENTED_EDGE('',*,*,#329,.F.);
#329 = EDGE_CURVE('',#158,#214,#330,.T.);
#330 = CIRCLE('',#331,1.9);
#331 = AXIS2_PLACEMENT_3D('',#332,#333,#334);
#332 = CARTESIAN_POINT('',(107.8,210.,32.2));
#333 = DIRECTION('',(-0.,1.224646799147E-16,1.));
#334 = DIRECTION('',(1.,0.,0.));
#335 = CONICAL_SURFACE('',#336,1.5,0.463647609001);
#336 = AXIS2_PLACEMENT_3D('',#337,#338,#339);
#337 = CARTESIAN_POINT('',(107.8,210.,31.4));
#338 = DIRECTION('',(0.,1.224646799147E-16,1.));
#339 = DIRECTION('',(1.,0.,0.));
#340 = ADVANCED_FACE('',(#341),#367,.T.);
#341 = FACE_BOUND('',#342,.F.);
#342 = EDGE_LOOP('',(#343,#354,#360,#361));
#343 = ORIENTED_EDGE('',*,*,#344,.F.);
#344 = EDGE_CURVE('',#345,#347,#349,.T.);
#345 = VERTEX_POINT('',#346);
#346 = CARTESIAN_POINT('',(109.3,213.16227766016,0.));
#347 = VERTEX_POINT('',#348);
#348 = CARTESIAN_POINT('',(109.3,206.83772233983,0.));
#349 = CIRCLE('',#350,3.5);
#350 = AXIS2_PLACEMENT_3D('',#351,#352,#353);
#351 = CARTESIAN_POINT('',(107.8,210.,0.));
#352 = DIRECTION('',(-0.,1.224646799147E-16,1.));
#353 = DIRECTION('',(1.,0.,0.));
#354 = ORIENTED_EDGE('',*,*,#355,.F.);
#355 = EDGE_CURVE('',#123,#345,#356,.T.);
#356 = LINE('',#357,#358);
#357 = CARTESIAN_POINT('',(109.3,213.16227766016,-3.87267321454E-16));
#358 = VECTOR('',#359,1.);
#359 = DIRECTION('',(-0.,-1.224646799147E-16,-1.));
#360 = ORIENTED_EDGE('',*,*,#122,.T.);
#361 = ORIENTED_EDGE('',*,*,#362,.T.);
#362 = EDGE_CURVE('',#125,#347,#363,.T.);
#363 = LINE('',#364,#365);
#364 = CARTESIAN_POINT('',(109.3,206.83772233983,3.87267321454E-16));
#365 = VECTOR('',#366,1.);
#366 = DIRECTION('',(-0.,-1.224646799147E-16,-1.));
#367 = CYLINDRICAL_SURFACE('',#368,3.5);
#368 = AXIS2_PLACEMENT_3D('',#369,#370,#371);
#369 = CARTESIAN_POINT('',(107.8,210.,0.));
#370 = DIRECTION('',(-0.,-1.224646799147E-16,-1.));
#371 = DIRECTION('',(1.,0.,0.));
#372 = ADVANCED_FACE('',(#373),#385,.T.);
#373 = FACE_BOUND('',#374,.T.);
#374 = EDGE_LOOP('',(#375,#376,#377,#378,#379));
#375 = ORIENTED_EDGE('',*,*,#355,.F.);
#376 = ORIENTED_EDGE('',*,*,#139,.F.);
#377 = ORIENTED_EDGE('',*,*,#133,.F.);
#378 = ORIENTED_EDGE('',*,*,#362,.T.);
#379 = ORIENTED_EDGE('',*,*,#380,.T.);
#380 = EDGE_CURVE('',#347,#345,#381,.T.);
#381 = LINE('',#382,#383);
#382 = CARTESIAN_POINT('',(109.3,212.25,-2.755455298082E-16));
#383 = VECTOR('',#384,1.);
#384 = DIRECTION('',(0.,1.,-1.224646799147E-16));
#385 = PLANE('',#386);
#386 = AXIS2_PLACEMENT_3D('',#387,#388,#389);
#387 = CARTESIAN_POINT('',(109.3,214.5,-1.));
#388 = DIRECTION('',(1.,0.,0.));
#389 = DIRECTION('',(0.,-1.,1.224646799147E-16));
#390 = ADVANCED_FACE('',(#391),#409,.T.);
#391 = FACE_BOUND('',#392,.T.);
#392 = EDGE_LOOP('',(#393,#394,#401,#408));
#393 = ORIENTED_EDGE('',*,*,#164,.T.);
#394 = ORIENTED_EDGE('',*,*,#395,.T.);
#395 = EDGE_CURVE('',#158,#396,#398,.T.);
#396 = VERTEX_POINT('',#397);
#397 = CARTESIAN_POINT('',(109.,210.,33.4));
#398 = B_SPLINE_CURVE_WITH_KNOTS('',1,(#399,#400),.UNSPECIFIED.,.F.,.F.,
  (2,2),(0.,1.),.PIECEWISE_BEZIER_KNOTS.);
#399 = CARTESIAN_POINT('',(109.7,210.,32.2));
#400 = CARTESIAN_POINT('',(109.,210.,33.4));
#401 = ORIENTED_EDGE('',*,*,#402,.F.);
#402 = EDGE_CURVE('',#197,#396,#403,.T.);
#403 = CIRCLE('',#404,1.2);
#404 = AXIS2_PLACEMENT_3D('',#405,#406,#407);
#405 = CARTESIAN_POINT('',(107.8,210.,33.4));
#406 = DIRECTION('',(-0.,1.224646799147E-16,1.));
#407 = DIRECTION('',(1.,0.,0.));
#408 = ORIENTED_EDGE('',*,*,#196,.T.);
#409 = CONICAL_SURFACE('',#410,1.9,0.528074448426);
#410 = AXIS2_PLACEMENT_3D('',#411,#412,#413);
#411 = CARTESIAN_POINT('',(107.8,210.,32.2));
#412 = DIRECTION('',(-0.,-1.224646799147E-16,-1.));
#413 = DIRECTION('',(1.,0.,0.));
#414 = ADVANCED_FACE('',(#415),#427,.T.);
#415 = FACE_BOUND('',#416,.T.);
#416 = EDGE_LOOP('',(#417,#418,#419,#420));
#417 = ORIENTED_EDGE('',*,*,#395,.F.);
#418 = ORIENTED_EDGE('',*,*,#329,.T.);
#419 = ORIENTED_EDGE('',*,*,#213,.T.);
#420 = ORIENTED_EDGE('',*,*,#421,.F.);
#421 = EDGE_CURVE('',#396,#206,#422,.T.);
#422 = CIRCLE('',#423,1.2);
#423 = AXIS2_PLACEMENT_3D('',#424,#425,#426);
#424 = CARTESIAN_POINT('',(107.8,210.,33.4));
#425 = DIRECTION('',(-0.,1.224646799147E-16,1.));
#426 = DIRECTION('',(1.,0.,0.));
#427 = CONICAL_SURFACE('',#428,1.9,0.528074448426);
#428 = AXIS2_PLACEMENT_3D('',#429,#430,#431);
#429 = CARTESIAN_POINT('',(107.8,210.,32.2));
#430 = DIRECTION('',(-0.,-1.224646799147E-16,-1.));
#431 = DIRECTION('',(1.,0.,0.));
#432 = ADVANCED_FACE('',(#433),#438,.T.);
#433 = FACE_BOUND('',#434,.T.);
#434 = EDGE_LOOP('',(#435,#436,#437));
#435 = ORIENTED_EDGE('',*,*,#402,.T.);
#436 = ORIENTED_EDGE('',*,*,#421,.T.);
#437 = ORIENTED_EDGE('',*,*,#205,.T.);
#438 = PLANE('',#439);
#439 = AXIS2_PLACEMENT_3D('',#440,#441,#442);
#440 = CARTESIAN_POINT('',(107.8,210.,33.4));
#441 = DIRECTION('',(0.,1.224646799147E-16,1.));
#442 = DIRECTION('',(1.,0.,0.));
#443 = ADVANCED_FACE('',(#444),#456,.T.);
#444 = FACE_BOUND('',#445,.T.);
#445 = EDGE_LOOP('',(#446,#447,#448,#449));
#446 = ORIENTED_EDGE('',*,*,#266,.T.);
#447 = ORIENTED_EDGE('',*,*,#311,.T.);
#448 = ORIENTED_EDGE('',*,*,#283,.T.);
#449 = ORIENTED_EDGE('',*,*,#450,.F.);
#450 = EDGE_CURVE('',#267,#276,#451,.T.);
#451 = CIRCLE('',#452,1.2);
#452 = AXIS2_PLACEMENT_3D('',#453,#454,#455);
#453 = CARTESIAN_POINT('',(107.8,210.,33.4));
#454 = DIRECTION('',(-0.,1.224646799147E-16,1.));
#455 = DIRECTION('',(1.,0.,0.));
#456 = CONICAL_SURFACE('',#457,1.9,0.528074448426);
#457 = AXIS2_PLACEMENT_3D('',#458,#459,#460);
#458 = CARTESIAN_POINT('',(107.8,210.,32.2));
#459 = DIRECTION('',(-0.,-1.224646799147E-16,-1.));
#460 = DIRECTION('',(1.,0.,0.));
#461 = ADVANCED_FACE('',(#462),#466,.T.);
#462 = FACE_BOUND('',#463,.T.);
#463 = EDGE_LOOP('',(#464,#465));
#464 = ORIENTED_EDGE('',*,*,#275,.T.);
#465 = ORIENTED_EDGE('',*,*,#450,.T.);
#466 = PLANE('',#467);
#467 = AXIS2_PLACEMENT_3D('',#468,#469,#470);
#468 = CARTESIAN_POINT('',(107.8,210.,33.4));
#469 = DIRECTION('',(0.,1.224646799147E-16,1.));
#470 = DIRECTION('',(1.,0.,0.));
#471 = ADVANCED_FACE('',(#472),#476,.F.);
#472 = FACE_BOUND('',#473,.F.);
#473 = EDGE_LOOP('',(#474,#475));
#474 = ORIENTED_EDGE('',*,*,#380,.T.);
#475 = ORIENTED_EDGE('',*,*,#344,.T.);
#476 = PLANE('',#477);
#477 = AXIS2_PLACEMENT_3D('',#478,#479,#480);
#478 = CARTESIAN_POINT('',(107.8,210.,1.714505518806E-32));
#479 = DIRECTION('',(0.,1.224646799147E-16,1.));
#480 = DIRECTION('',(1.,0.,0.));
#481 = ( GEOMETRIC_REPRESENTATION_CONTEXT(3) 
GLOBAL_UNCERTAINTY_ASSIGNED_CONTEXT((#485)) GLOBAL_UNIT_ASSIGNED_CONTEXT
((#482,#483,#484)) REPRESENTATION_CONTEXT('Context #1',
  '3D Context with UNIT and UNCERTAINTY') );
#482 = ( LENGTH_UNIT() NAMED_UNIT(*) SI_UNIT(.MILLI.,.METRE.) );
#483 = ( NAMED_UNIT(*) PLANE_ANGLE_UNIT() SI_UNIT($,.RADIAN.) );
#484 = ( NAMED_UNIT(*) SI_UNIT($,.STERADIAN.) SOLID_ANGLE_UNIT() );
#485 = UNCERTAINTY_MEASURE_WITH_UNIT(LENGTH_MEASURE(2.E-06),#482,
  'distance_accuracy_value','confusion accuracy');
#486 = PRODUCT_RELATED_PRODUCT_CATEGORY('part',$,(#7));
ENDSEC;
END-ISO-10303-21;
