ISO-10303-21;
HEADER;
FILE_DESCRIPTION(('FreeCAD Model'),'2;1');
FILE_NAME('Open CASCADE Shape Model','2026-09-08T10:22:31',('FreeCAD'),(
    'FreeCAD'),'Open CASCADE STEP processor 7.8','FreeCAD','Unknown');
FILE_SCHEMA(('AUTOMOTIVE_DESIGN { 1 0 10303 214 1 1 1 1 }'));
ENDSEC;
DATA;
#1 = APPLICATION_PROTOCOL_DEFINITION('international standard',
  'automotive_design',2000,#2);
#2 = APPLICATION_CONTEXT(
  'core data for automotive mechanical design processes');
#3 = SHAPE_DEFINITION_REPRESENTATION(#4,#10);
#4 = PRODUCT_DEFINITION_SHAPE('','',#5);
#5 = PRODUCT_DEFINITION('design','',#6,#9);
#6 = PRODUCT_DEFINITION_FORMATION('','',#7);
#7 = PRODUCT('Open CASCADE STEP translator 7.8 5',
  'Open CASCADE STEP translator 7.8 5','',(#8));
#8 = PRODUCT_CONTEXT('',#2,'mechanical');
#9 = PRODUCT_DEFINITION_CONTEXT('part definition',#2,'design');
#10 = ADVANCED_BREP_SHAPE_REPRESENTATION('',(#11,#15),#412);
#11 = AXIS2_PLACEMENT_3D('',#12,#13,#14);
#12 = CARTESIAN_POINT('',(0.,0.,0.));
#13 = DIRECTION('',(0.,0.,1.));
#14 = DIRECTION('',(1.,0.,-0.));
#15 = MANIFOLD_SOLID_BREP('',#16);
#16 = CLOSED_SHELL('',(#17,#73,#133,#157,#198,#222,#239,#272,#297,#324,
    #367,#394));
#17 = ADVANCED_FACE('',(#18),#68,.F.);
#18 = FACE_BOUND('',#19,.F.);
#19 = EDGE_LOOP('',(#20,#30,#38,#46,#54,#62));
#20 = ORIENTED_EDGE('',*,*,#21,.F.);
#21 = EDGE_CURVE('',#22,#24,#26,.T.);
#22 = VERTEX_POINT('',#23);
#23 = CARTESIAN_POINT('',(68.7,155.5,1.42108547152E-14));
#24 = VERTEX_POINT('',#25);
#25 = CARTESIAN_POINT('',(68.7,155.5,6.5));
#26 = LINE('',#27,#28);
#27 = CARTESIAN_POINT('',(68.7,155.5,-9.5));
#28 = VECTOR('',#29,1.);
#29 = DIRECTION('',(0.,-6.661338147751E-16,1.));
#30 = ORIENTED_EDGE('',*,*,#31,.F.);
#31 = EDGE_CURVE('',#32,#22,#34,.T.);
#32 = VERTEX_POINT('',#33);
#33 = CARTESIAN_POINT('',(68.7,145.0125,1.42108547152E-14));
#34 = LINE('',#35,#36);
#35 = CARTESIAN_POINT('',(68.7,150.,0.));
#36 = VECTOR('',#37,1.);
#37 = DIRECTION('',(0.,1.,0.));
#38 = ORIENTED_EDGE('',*,*,#39,.T.);
#39 = EDGE_CURVE('',#32,#40,#42,.T.);
#40 = VERTEX_POINT('',#41);
#41 = CARTESIAN_POINT('',(68.7,144.5,0.82));
#42 = LINE('',#43,#44);
#43 = CARTESIAN_POINT('',(68.7,149.71404494382,-7.522471910112));
#44 = VECTOR('',#45,1.);
#45 = DIRECTION('',(0.,-0.529998940003,0.847998304005));
#46 = ORIENTED_EDGE('',*,*,#47,.F.);
#47 = EDGE_CURVE('',#48,#40,#50,.T.);
#48 = VERTEX_POINT('',#49);
#49 = CARTESIAN_POINT('',(68.7,144.5,13.));
#50 = LINE('',#51,#52);
#51 = CARTESIAN_POINT('',(68.7,144.5,-4.75));
#52 = VECTOR('',#53,1.);
#53 = DIRECTION('',(0.,0.,-1.));
#54 = ORIENTED_EDGE('',*,*,#55,.T.);
#55 = EDGE_CURVE('',#48,#56,#58,.T.);
#56 = VERTEX_POINT('',#57);
#57 = CARTESIAN_POINT('',(68.7,155.5,13.));
#58 = LINE('',#59,#60);
#59 = CARTESIAN_POINT('',(68.7,150.,13.));
#60 = VECTOR('',#61,1.);
#61 = DIRECTION('',(0.,1.,0.));
#62 = ORIENTED_EDGE('',*,*,#63,.F.);
#63 = EDGE_CURVE('',#24,#56,#64,.T.);
#64 = LINE('',#65,#66);
#65 = CARTESIAN_POINT('',(68.7,155.5,-9.5));
#66 = VECTOR('',#67,1.);
#67 = DIRECTION('',(0.,-6.661338147751E-16,1.));
#68 = PLANE('',#69);
#69 = AXIS2_PLACEMENT_3D('',#70,#71,#72);
#70 = CARTESIAN_POINT('',(68.7,155.5,-9.5));
#71 = DIRECTION('',(-1.,0.,0.));
#72 = DIRECTION('',(0.,-8.861338147751E-16,1.));
#73 = ADVANCED_FACE('',(#74,#117),#128,.T.);
#74 = FACE_BOUND('',#75,.T.);
#75 = EDGE_LOOP('',(#76,#77,#85,#93,#102,#110,#116));
#76 = ORIENTED_EDGE('',*,*,#21,.F.);
#77 = ORIENTED_EDGE('',*,*,#78,.F.);
#78 = EDGE_CURVE('',#79,#22,#81,.T.);
#79 = VERTEX_POINT('',#80);
#80 = CARTESIAN_POINT('',(65.7,155.5,0.));
#81 = LINE('',#82,#83);
#82 = CARTESIAN_POINT('',(94.554906439337,155.5,1.42108547152E-14));
#83 = VECTOR('',#84,1.);
#84 = DIRECTION('',(1.,0.,0.));
#85 = ORIENTED_EDGE('',*,*,#86,.F.);
#86 = EDGE_CURVE('',#87,#79,#89,.T.);
#87 = VERTEX_POINT('',#88);
#88 = CARTESIAN_POINT('',(65.7,155.5,2.866819575083));
#89 = LINE('',#90,#91);
#90 = CARTESIAN_POINT('',(65.7,155.5,25.6));
#91 = VECTOR('',#92,1.);
#92 = DIRECTION('',(0.,8.861338147751E-16,-1.));
#93 = ORIENTED_EDGE('',*,*,#94,.F.);
#94 = EDGE_CURVE('',#95,#87,#97,.T.);
#95 = VERTEX_POINT('',#96);
#96 = CARTESIAN_POINT('',(65.7,155.5,10.133180424917));
#97 = CIRCLE('',#98,3.7);
#98 = AXIS2_PLACEMENT_3D('',#99,#100,#101);
#99 = CARTESIAN_POINT('',(65.,155.5,6.5));
#100 = DIRECTION('',(0.,-1.,-6.661338147751E-16));
#101 = DIRECTION('',(1.,0.,0.));
#102 = ORIENTED_EDGE('',*,*,#103,.F.);
#103 = EDGE_CURVE('',#104,#95,#106,.T.);
#104 = VERTEX_POINT('',#105);
#105 = CARTESIAN_POINT('',(65.7,155.5,13.));
#106 = LINE('',#107,#108);
#107 = CARTESIAN_POINT('',(65.7,155.5,25.6));
#108 = VECTOR('',#109,1.);
#109 = DIRECTION('',(0.,8.861338147751E-16,-1.));
#110 = ORIENTED_EDGE('',*,*,#111,.T.);
#111 = EDGE_CURVE('',#104,#56,#112,.T.);
#112 = LINE('',#113,#114);
#113 = CARTESIAN_POINT('',(94.554906439337,155.5,13.));
#114 = VECTOR('',#115,1.);
#115 = DIRECTION('',(1.,0.,0.));
#116 = ORIENTED_EDGE('',*,*,#63,.F.);
#117 = FACE_BOUND('',#118,.T.);
#118 = EDGE_LOOP('',(#119));
#119 = ORIENTED_EDGE('',*,*,#120,.F.);
#120 = EDGE_CURVE('',#121,#121,#123,.T.);
#121 = VERTEX_POINT('',#122);
#122 = CARTESIAN_POINT('',(67.3,155.5,6.5));
#123 = CIRCLE('',#124,2.3);
#124 = AXIS2_PLACEMENT_3D('',#125,#126,#127);
#125 = CARTESIAN_POINT('',(65.,155.5,6.5));
#126 = DIRECTION('',(-0.,1.,8.861338147751E-16));
#127 = DIRECTION('',(1.,0.,0.));
#128 = PLANE('',#129);
#129 = AXIS2_PLACEMENT_3D('',#130,#131,#132);
#130 = CARTESIAN_POINT('',(129.40981287867,155.5,-0.640134027042));
#131 = DIRECTION('',(0.,1.,0.));
#132 = DIRECTION('',(0.,0.,-1.));
#133 = ADVANCED_FACE('',(#134),#152,.T.);
#134 = FACE_BOUND('',#135,.T.);
#135 = EDGE_LOOP('',(#136,#144,#150,#151));
#136 = ORIENTED_EDGE('',*,*,#137,.F.);
#137 = EDGE_CURVE('',#138,#104,#140,.T.);
#138 = VERTEX_POINT('',#139);
#139 = CARTESIAN_POINT('',(65.7,144.5,13.));
#140 = LINE('',#141,#142);
#141 = CARTESIAN_POINT('',(65.7,119.111342155,13.));
#142 = VECTOR('',#143,1.);
#143 = DIRECTION('',(2.465190328816E-31,1.,0.));
#144 = ORIENTED_EDGE('',*,*,#145,.T.);
#145 = EDGE_CURVE('',#138,#48,#146,.T.);
#146 = LINE('',#147,#148);
#147 = CARTESIAN_POINT('',(59.7,144.5,13.));
#148 = VECTOR('',#149,1.);
#149 = DIRECTION('',(1.,0.,0.));
#150 = ORIENTED_EDGE('',*,*,#55,.T.);
#151 = ORIENTED_EDGE('',*,*,#111,.F.);
#152 = PLANE('',#153);
#153 = AXIS2_PLACEMENT_3D('',#154,#155,#156);
#154 = CARTESIAN_POINT('',(59.7,144.5,13.));
#155 = DIRECTION('',(0.,0.,1.));
#156 = DIRECTION('',(1.,0.,0.));
#157 = ADVANCED_FACE('',(#158),#193,.F.);
#158 = FACE_BOUND('',#159,.F.);
#159 = EDGE_LOOP('',(#160,#161,#162,#170,#178,#187));
#160 = ORIENTED_EDGE('',*,*,#145,.T.);
#161 = ORIENTED_EDGE('',*,*,#47,.T.);
#162 = ORIENTED_EDGE('',*,*,#163,.F.);
#163 = EDGE_CURVE('',#164,#40,#166,.T.);
#164 = VERTEX_POINT('',#165);
#165 = CARTESIAN_POINT('',(65.7,144.5,0.82));
#166 = LINE('',#167,#168);
#167 = CARTESIAN_POINT('',(62.2,144.5,0.82));
#168 = VECTOR('',#169,1.);
#169 = DIRECTION('',(1.,0.,0.));
#170 = ORIENTED_EDGE('',*,*,#171,.F.);
#171 = EDGE_CURVE('',#172,#164,#174,.T.);
#172 = VERTEX_POINT('',#173);
#173 = CARTESIAN_POINT('',(65.7,144.5,3.892319037919));
#174 = LINE('',#175,#176);
#175 = CARTESIAN_POINT('',(65.7,144.5,4.013657844991));
#176 = VECTOR('',#177,1.);
#177 = DIRECTION('',(3.4E-16,0.,-1.));
#178 = ORIENTED_EDGE('',*,*,#179,.F.);
#179 = EDGE_CURVE('',#180,#172,#182,.T.);
#180 = VERTEX_POINT('',#181);
#181 = CARTESIAN_POINT('',(65.7,144.5,9.107680962081));
#182 = CIRCLE('',#183,2.7);
#183 = AXIS2_PLACEMENT_3D('',#184,#185,#186);
#184 = CARTESIAN_POINT('',(65.,144.5,6.5));
#185 = DIRECTION('',(-0.,1.,8.326672684689E-16));
#186 = DIRECTION('',(1.,0.,0.));
#187 = ORIENTED_EDGE('',*,*,#188,.F.);
#188 = EDGE_CURVE('',#138,#180,#189,.T.);
#189 = LINE('',#190,#191);
#190 = CARTESIAN_POINT('',(65.7,144.5,4.013657844991));
#191 = VECTOR('',#192,1.);
#192 = DIRECTION('',(3.4E-16,0.,-1.));
#193 = PLANE('',#194);
#194 = AXIS2_PLACEMENT_3D('',#195,#196,#197);
#195 = CARTESIAN_POINT('',(59.7,144.5,1.06581410364E-14));
#196 = DIRECTION('',(0.,1.,0.));
#197 = DIRECTION('',(0.,0.,1.));
#198 = ADVANCED_FACE('',(#199),#217,.T.);
#199 = FACE_BOUND('',#200,.T.);
#200 = EDGE_LOOP('',(#201,#209,#215,#216));
#201 = ORIENTED_EDGE('',*,*,#202,.F.);
#202 = EDGE_CURVE('',#203,#164,#205,.T.);
#203 = VERTEX_POINT('',#204);
#204 = CARTESIAN_POINT('',(65.7,145.0125,0.));
#205 = LINE('',#206,#207);
#206 = CARTESIAN_POINT('',(65.7,137.09873303455,12.662027144708));
#207 = VECTOR('',#208,1.);
#208 = DIRECTION('',(-2.9E-16,-0.529998940003,0.847998304005));
#209 = ORIENTED_EDGE('',*,*,#210,.F.);
#210 = EDGE_CURVE('',#32,#203,#211,.T.);
#211 = LINE('',#212,#213);
#212 = CARTESIAN_POINT('',(62.2,145.0125,1.42108547152E-14));
#213 = VECTOR('',#214,1.);
#214 = DIRECTION('',(-1.,0.,0.));
#215 = ORIENTED_EDGE('',*,*,#39,.T.);
#216 = ORIENTED_EDGE('',*,*,#163,.F.);
#217 = PLANE('',#218);
#218 = AXIS2_PLACEMENT_3D('',#219,#220,#221);
#219 = CARTESIAN_POINT('',(64.7,147.2,-3.5));
#220 = DIRECTION('',(0.,-0.847998304005,-0.529998940003));
#221 = DIRECTION('',(4.2E-16,-0.529998940003,0.847998304005));
#222 = ADVANCED_FACE('',(#223),#234,.F.);
#223 = FACE_BOUND('',#224,.F.);
#224 = EDGE_LOOP('',(#225,#226,#227,#228));
#225 = ORIENTED_EDGE('',*,*,#210,.F.);
#226 = ORIENTED_EDGE('',*,*,#31,.T.);
#227 = ORIENTED_EDGE('',*,*,#78,.F.);
#228 = ORIENTED_EDGE('',*,*,#229,.F.);
#229 = EDGE_CURVE('',#203,#79,#230,.T.);
#230 = LINE('',#231,#232);
#231 = CARTESIAN_POINT('',(65.7,119.111342155,1.42108547152E-14));
#232 = VECTOR('',#233,1.);
#233 = DIRECTION('',(2.465190328816E-31,1.,0.));
#234 = PLANE('',#235);
#235 = AXIS2_PLACEMENT_3D('',#236,#237,#238);
#236 = CARTESIAN_POINT('',(59.7,144.5,1.06581410364E-14));
#237 = DIRECTION('',(0.,0.,1.));
#238 = DIRECTION('',(1.,0.,0.));
#239 = ADVANCED_FACE('',(#240),#267,.T.);
#240 = FACE_BOUND('',#241,.T.);
#241 = EDGE_LOOP('',(#242,#243,#244,#252,#260,#266));
#242 = ORIENTED_EDGE('',*,*,#137,.T.);
#243 = ORIENTED_EDGE('',*,*,#103,.T.);
#244 = ORIENTED_EDGE('',*,*,#245,.F.);
#245 = EDGE_CURVE('',#246,#95,#248,.T.);
#246 = VERTEX_POINT('',#247);
#247 = CARTESIAN_POINT('',(65.7,147.5,10.133180424917));
#248 = LINE('',#249,#250);
#249 = CARTESIAN_POINT('',(65.7,155.5,10.133180424917));
#250 = VECTOR('',#251,1.);
#251 = DIRECTION('',(0.,1.,8.861338147751E-16));
#252 = ORIENTED_EDGE('',*,*,#253,.T.);
#253 = EDGE_CURVE('',#246,#254,#256,.T.);
#254 = VERTEX_POINT('',#255);
#255 = CARTESIAN_POINT('',(65.7,147.5,9.107680962081));
#256 = LINE('',#257,#258);
#257 = CARTESIAN_POINT('',(65.7,147.5,7.263657844991));
#258 = VECTOR('',#259,1.);
#259 = DIRECTION('',(3.4E-16,1.776133814775E-15,-1.));
#260 = ORIENTED_EDGE('',*,*,#261,.F.);
#261 = EDGE_CURVE('',#180,#254,#262,.T.);
#262 = LINE('',#263,#264);
#263 = CARTESIAN_POINT('',(65.7,147.5,9.107680962081));
#264 = VECTOR('',#265,1.);
#265 = DIRECTION('',(0.,1.,8.861338147751E-16));
#266 = ORIENTED_EDGE('',*,*,#188,.F.);
#267 = PLANE('',#268);
#268 = AXIS2_PLACEMENT_3D('',#269,#270,#271);
#269 = CARTESIAN_POINT('',(65.7,93.722684310019,8.027315689981));
#270 = DIRECTION('',(-1.,2.264854970235E-31,-3.4E-16));
#271 = DIRECTION('',(3.4E-16,6.661338147751E-16,-1.));
#272 = ADVANCED_FACE('',(#273),#292,.T.);
#273 = FACE_BOUND('',#274,.F.);
#274 = EDGE_LOOP('',(#275,#276,#277,#286));
#275 = ORIENTED_EDGE('',*,*,#94,.F.);
#276 = ORIENTED_EDGE('',*,*,#245,.F.);
#277 = ORIENTED_EDGE('',*,*,#278,.T.);
#278 = EDGE_CURVE('',#246,#279,#281,.T.);
#279 = VERTEX_POINT('',#280);
#280 = CARTESIAN_POINT('',(65.7,147.5,2.866819575083));
#281 = CIRCLE('',#282,3.7);
#282 = AXIS2_PLACEMENT_3D('',#283,#284,#285);
#283 = CARTESIAN_POINT('',(65.,147.5,6.5));
#284 = DIRECTION('',(0.,-1.,-6.661338147751E-16));
#285 = DIRECTION('',(1.,0.,0.));
#286 = ORIENTED_EDGE('',*,*,#287,.T.);
#287 = EDGE_CURVE('',#279,#87,#288,.T.);
#288 = LINE('',#289,#290);
#289 = CARTESIAN_POINT('',(65.7,155.5,2.866819575083));
#290 = VECTOR('',#291,1.);
#291 = DIRECTION('',(0.,1.,8.861338147751E-16));
#292 = CYLINDRICAL_SURFACE('',#293,3.7);
#293 = AXIS2_PLACEMENT_3D('',#294,#295,#296);
#294 = CARTESIAN_POINT('',(65.,155.5,6.5));
#295 = DIRECTION('',(0.,1.,8.861338147751E-16));
#296 = DIRECTION('',(1.,0.,0.));
#297 = ADVANCED_FACE('',(#298),#319,.T.);
#298 = FACE_BOUND('',#299,.T.);
#299 = EDGE_LOOP('',(#300,#308,#309,#310,#311,#312,#313));
#300 = ORIENTED_EDGE('',*,*,#301,.T.);
#301 = EDGE_CURVE('',#302,#279,#304,.T.);
#302 = VERTEX_POINT('',#303);
#303 = CARTESIAN_POINT('',(65.7,147.5,3.892319037919));
#304 = LINE('',#305,#306);
#305 = CARTESIAN_POINT('',(65.7,147.5,7.263657844991));
#306 = VECTOR('',#307,1.);
#307 = DIRECTION('',(3.4E-16,1.776133814775E-15,-1.));
#308 = ORIENTED_EDGE('',*,*,#287,.T.);
#309 = ORIENTED_EDGE('',*,*,#86,.T.);
#310 = ORIENTED_EDGE('',*,*,#229,.F.);
#311 = ORIENTED_EDGE('',*,*,#202,.T.);
#312 = ORIENTED_EDGE('',*,*,#171,.F.);
#313 = ORIENTED_EDGE('',*,*,#314,.T.);
#314 = EDGE_CURVE('',#172,#302,#315,.T.);
#315 = LINE('',#316,#317);
#316 = CARTESIAN_POINT('',(65.7,147.5,3.892319037919));
#317 = VECTOR('',#318,1.);
#318 = DIRECTION('',(0.,1.,8.861338147751E-16));
#319 = PLANE('',#320);
#320 = AXIS2_PLACEMENT_3D('',#321,#322,#323);
#321 = CARTESIAN_POINT('',(65.7,93.722684310019,8.027315689981));
#322 = DIRECTION('',(-1.,2.264854970235E-31,-3.4E-16));
#323 = DIRECTION('',(3.4E-16,6.661338147751E-16,-1.));
#324 = ADVANCED_FACE('',(#325),#362,.F.);
#325 = FACE_BOUND('',#326,.T.);
#326 = EDGE_LOOP('',(#327,#335,#336,#337,#346,#355));
#327 = ORIENTED_EDGE('',*,*,#328,.F.);
#328 = EDGE_CURVE('',#121,#329,#331,.T.);
#329 = VERTEX_POINT('',#330);
#330 = CARTESIAN_POINT('',(67.3,147.5,6.5));
#331 = LINE('',#332,#333);
#332 = CARTESIAN_POINT('',(67.3,156.5,6.5));
#333 = VECTOR('',#334,1.);
#334 = DIRECTION('',(0.,-1.,-4.461338147751E-16));
#335 = ORIENTED_EDGE('',*,*,#120,.T.);
#336 = ORIENTED_EDGE('',*,*,#328,.T.);
#337 = ORIENTED_EDGE('',*,*,#338,.F.);
#338 = EDGE_CURVE('',#339,#329,#341,.T.);
#339 = VERTEX_POINT('',#340);
#340 = CARTESIAN_POINT('',(65.7,147.5,8.69089023002));
#341 = CIRCLE('',#342,2.3);
#342 = AXIS2_PLACEMENT_3D('',#343,#344,#345);
#343 = CARTESIAN_POINT('',(65.,147.5,6.5));
#344 = DIRECTION('',(-0.,1.,8.861338147751E-16));
#345 = DIRECTION('',(1.,0.,0.));
#346 = ORIENTED_EDGE('',*,*,#347,.F.);
#347 = EDGE_CURVE('',#348,#339,#350,.T.);
#348 = VERTEX_POINT('',#349);
#349 = CARTESIAN_POINT('',(65.7,147.5,4.30910976998));
#350 = CIRCLE('',#351,2.3);
#351 = AXIS2_PLACEMENT_3D('',#352,#353,#354);
#352 = CARTESIAN_POINT('',(65.,147.5,6.5));
#353 = DIRECTION('',(-0.,1.,8.861338147751E-16));
#354 = DIRECTION('',(1.,0.,0.));
#355 = ORIENTED_EDGE('',*,*,#356,.F.);
#356 = EDGE_CURVE('',#329,#348,#357,.T.);
#357 = CIRCLE('',#358,2.3);
#358 = AXIS2_PLACEMENT_3D('',#359,#360,#361);
#359 = CARTESIAN_POINT('',(65.,147.5,6.5));
#360 = DIRECTION('',(-0.,1.,8.861338147751E-16));
#361 = DIRECTION('',(1.,0.,0.));
#362 = CYLINDRICAL_SURFACE('',#363,2.3);
#363 = AXIS2_PLACEMENT_3D('',#364,#365,#366);
#364 = CARTESIAN_POINT('',(65.,156.5,6.5));
#365 = DIRECTION('',(0.,1.,8.861338147751E-16));
#366 = DIRECTION('',(1.,0.,0.));
#367 = ADVANCED_FACE('',(#368),#389,.F.);
#368 = FACE_BOUND('',#369,.T.);
#369 = EDGE_LOOP('',(#370,#371,#372,#381,#388));
#370 = ORIENTED_EDGE('',*,*,#179,.F.);
#371 = ORIENTED_EDGE('',*,*,#261,.T.);
#372 = ORIENTED_EDGE('',*,*,#373,.F.);
#373 = EDGE_CURVE('',#374,#254,#376,.T.);
#374 = VERTEX_POINT('',#375);
#375 = CARTESIAN_POINT('',(67.7,147.5,6.5));
#376 = CIRCLE('',#377,2.7);
#377 = AXIS2_PLACEMENT_3D('',#378,#379,#380);
#378 = CARTESIAN_POINT('',(65.,147.5,6.5));
#379 = DIRECTION('',(0.,-1.,-6.661338147751E-16));
#380 = DIRECTION('',(1.,0.,0.));
#381 = ORIENTED_EDGE('',*,*,#382,.F.);
#382 = EDGE_CURVE('',#302,#374,#383,.T.);
#383 = CIRCLE('',#384,2.7);
#384 = AXIS2_PLACEMENT_3D('',#385,#386,#387);
#385 = CARTESIAN_POINT('',(65.,147.5,6.5));
#386 = DIRECTION('',(0.,-1.,-6.661338147751E-16));
#387 = DIRECTION('',(1.,0.,0.));
#388 = ORIENTED_EDGE('',*,*,#314,.F.);
#389 = CYLINDRICAL_SURFACE('',#390,2.7);
#390 = AXIS2_PLACEMENT_3D('',#391,#392,#393);
#391 = CARTESIAN_POINT('',(65.,147.5,6.5));
#392 = DIRECTION('',(0.,1.,8.861338147751E-16));
#393 = DIRECTION('',(1.,0.,0.));
#394 = ADVANCED_FACE('',(#395,#402),#407,.T.);
#395 = FACE_BOUND('',#396,.T.);
#396 = EDGE_LOOP('',(#397,#398,#399,#400,#401));
#397 = ORIENTED_EDGE('',*,*,#278,.T.);
#398 = ORIENTED_EDGE('',*,*,#301,.F.);
#399 = ORIENTED_EDGE('',*,*,#382,.T.);
#400 = ORIENTED_EDGE('',*,*,#373,.T.);
#401 = ORIENTED_EDGE('',*,*,#253,.F.);
#402 = FACE_BOUND('',#403,.T.);
#403 = EDGE_LOOP('',(#404,#405,#406));
#404 = ORIENTED_EDGE('',*,*,#347,.T.);
#405 = ORIENTED_EDGE('',*,*,#338,.T.);
#406 = ORIENTED_EDGE('',*,*,#356,.T.);
#407 = PLANE('',#408);
#408 = AXIS2_PLACEMENT_3D('',#409,#410,#411);
#409 = CARTESIAN_POINT('',(64.662851341554,147.5,6.5));
#410 = DIRECTION('',(-0.,-1.,-1.926133814775E-15));
#411 = DIRECTION('',(0.,1.926133814775E-15,-1.));
#412 = ( GEOMETRIC_REPRESENTATION_CONTEXT(3) 
GLOBAL_UNCERTAINTY_ASSIGNED_CONTEXT((#416)) GLOBAL_UNIT_ASSIGNED_CONTEXT
((#413,#414,#415)) REPRESENTATION_CONTEXT('Context #1',
  '3D Context with UNIT and UNCERTAINTY') );
#413 = ( LENGTH_UNIT() NAMED_UNIT(*) SI_UNIT(.MILLI.,.METRE.) );
#414 = ( NAMED_UNIT(*) PLANE_ANGLE_UNIT() SI_UNIT($,.RADIAN.) );
#415 = ( NAMED_UNIT(*) SI_UNIT($,.STERADIAN.) SOLID_ANGLE_UNIT() );
#416 = UNCERTAINTY_MEASURE_WITH_UNIT(LENGTH_MEASURE(1.E-04),#413,
  'distance_accuracy_value','confusion accuracy');
#417 = PRODUCT_RELATED_PRODUCT_CATEGORY('part',$,(#7));
ENDSEC;
END-ISO-10303-21;
