ISO-10303-21;
HEADER;
FILE_DESCRIPTION(('FreeCAD Model'),'2;1');
FILE_NAME('Open CASCADE Shape Model','2026-09-08T10:22:31',('FreeCAD'),(
    'FreeCAD'),'Open CASCADE STEP processor 7.8','FreeCAD','Unknown');
FILE_SCHEMA(('AUTOMOTIVE_DESIGN { 1 0 10303 214 1 1 1 1 }'));
ENDSEC;
DATA;
#1 = APPLICATION_PROTOCOL_DEFINITION('international standard',
  'automotive_design',2000,#2);
#2 = APPLICATION_CONTEXT(
  'core data for automotive mechanical design processes');
#3 = SHAPE_DEFINITION_REPRESENTATION(#4,#10);
#4 = PRODUCT_DEFINITION_SHAPE('','',#5);
#5 = PRODUCT_DEFINITION('design','',#6,#9);
#6 = PRODUCT_DEFINITION_FORMATION('','',#7);
#7 = PRODUCT('Open CASCADE STEP translator 7.8 6',
  'Open CASCADE STEP translator 7.8 6','',(#8));
#8 = PRODUCT_CONTEXT('',#2,'mechanical');
#9 = PRODUCT_DEFINITION_CONTEXT('part definition',#2,'design');
#10 = ADVANCED_BREP_SHAPE_REPRESENTATION('',(#11,#15),#204);
#11 = AXIS2_PLACEMENT_3D('',#12,#13,#14);
#12 = CARTESIAN_POINT('',(0.,0.,0.));
#13 = DIRECTION('',(0.,0.,1.));
#14 = DIRECTION('',(1.,0.,-0.));
#15 = MANIFOLD_SOLID_BREP('',#16);
#16 = CLOSED_SHELL('',(#17,#68,#99,#123,#147,#164,#189));
#17 = ADVANCED_FACE('',(#18,#52),#63,.T.);
#18 = FACE_BOUND('',#19,.T.);
#19 = EDGE_LOOP('',(#20,#30,#38,#46));
#20 = ORIENTED_EDGE('',*,*,#21,.F.);
#21 = EDGE_CURVE('',#22,#24,#26,.T.);
#22 = VERTEX_POINT('',#23);
#23 = CARTESIAN_POINT('',(102.3,143.5,1.42108547152E-14));
#24 = VERTEX_POINT('',#25);
#25 = CARTESIAN_POINT('',(111.7,143.5,0.));
#26 = LINE('',#27,#28);
#27 = CARTESIAN_POINT('',(135.35,143.5,0.));
#28 = VECTOR('',#29,1.);
#29 = DIRECTION('',(1.,0.,0.));
#30 = ORIENTED_EDGE('',*,*,#31,.F.);
#31 = EDGE_CURVE('',#32,#22,#34,.T.);
#32 = VERTEX_POINT('',#33);
#33 = CARTESIAN_POINT('',(102.3,156.5,2.84217094304E-14));
#34 = LINE('',#35,#36);
#35 = CARTESIAN_POINT('',(102.3,169.1,2.499667139944E-14));
#36 = VECTOR('',#37,1.);
#37 = DIRECTION('',(0.,-1.,-7.216449660064E-16));
#38 = ORIENTED_EDGE('',*,*,#39,.T.);
#39 = EDGE_CURVE('',#32,#40,#42,.T.);
#40 = VERTEX_POINT('',#41);
#41 = CARTESIAN_POINT('',(111.7,156.5,2.84217094304E-14));
#42 = LINE('',#43,#44);
#43 = CARTESIAN_POINT('',(135.35,156.5,2.84217094304E-14));
#44 = VECTOR('',#45,1.);
#45 = DIRECTION('',(1.,0.,0.));
#46 = ORIENTED_EDGE('',*,*,#47,.T.);
#47 = EDGE_CURVE('',#40,#24,#48,.T.);
#48 = LINE('',#49,#50);
#49 = CARTESIAN_POINT('',(111.7,147.525,0.));
#50 = VECTOR('',#51,1.);
#51 = DIRECTION('',(0.,-1.,-9.436895709314E-16));
#52 = FACE_BOUND('',#53,.T.);
#53 = EDGE_LOOP('',(#54));
#54 = ORIENTED_EDGE('',*,*,#55,.F.);
#55 = EDGE_CURVE('',#56,#56,#58,.T.);
#56 = VERTEX_POINT('',#57);
#57 = CARTESIAN_POINT('',(108.3,150.,1.42108547152E-14));
#58 = CIRCLE('',#59,2.3);
#59 = AXIS2_PLACEMENT_3D('',#60,#61,#62);
#60 = CARTESIAN_POINT('',(106.,150.,1.42108547152E-14));
#61 = DIRECTION('',(0.,9.416449660064E-16,-1.));
#62 = DIRECTION('',(1.,0.,0.));
#63 = PLANE('',#64);
#64 = AXIS2_PLACEMENT_3D('',#65,#66,#67);
#65 = CARTESIAN_POINT('',(170.,151.55,1.42108547152E-14));
#66 = DIRECTION('',(0.,9.516449660064E-16,-1.));
#67 = DIRECTION('',(0.,1.,9.516449660064E-16));
#68 = ADVANCED_FACE('',(#69),#94,.F.);
#69 = FACE_BOUND('',#70,.F.);
#70 = EDGE_LOOP('',(#71,#79,#80,#88));
#71 = ORIENTED_EDGE('',*,*,#72,.T.);
#72 = EDGE_CURVE('',#73,#24,#75,.T.);
#73 = VERTEX_POINT('',#74);
#74 = CARTESIAN_POINT('',(111.7,143.5,3.));
#75 = LINE('',#76,#77);
#76 = CARTESIAN_POINT('',(111.7,143.5,14.3));
#77 = VECTOR('',#78,1.);
#78 = DIRECTION('',(0.,1.110223024625E-16,-1.));
#79 = ORIENTED_EDGE('',*,*,#21,.F.);
#80 = ORIENTED_EDGE('',*,*,#81,.T.);
#81 = EDGE_CURVE('',#22,#82,#84,.T.);
#82 = VERTEX_POINT('',#83);
#83 = CARTESIAN_POINT('',(102.3,143.5,3.));
#84 = LINE('',#85,#86);
#85 = CARTESIAN_POINT('',(102.3,143.5,7.15));
#86 = VECTOR('',#87,1.);
#87 = DIRECTION('',(0.,-1.110223024625E-16,1.));
#88 = ORIENTED_EDGE('',*,*,#89,.T.);
#89 = EDGE_CURVE('',#82,#73,#90,.T.);
#90 = LINE('',#91,#92);
#91 = CARTESIAN_POINT('',(135.35,143.5,3.));
#92 = VECTOR('',#93,1.);
#93 = DIRECTION('',(1.,0.,0.));
#94 = PLANE('',#95);
#95 = AXIS2_PLACEMENT_3D('',#96,#97,#98);
#96 = CARTESIAN_POINT('',(100.7,143.5,14.3));
#97 = DIRECTION('',(0.,1.,1.110223024625E-16));
#98 = DIRECTION('',(1.,0.,0.));
#99 = ADVANCED_FACE('',(#100),#118,.T.);
#100 = FACE_BOUND('',#101,.T.);
#101 = EDGE_LOOP('',(#102,#110,#116,#117));
#102 = ORIENTED_EDGE('',*,*,#103,.F.);
#103 = EDGE_CURVE('',#104,#40,#106,.T.);
#104 = VERTEX_POINT('',#105);
#105 = CARTESIAN_POINT('',(111.7,156.5,3.));
#106 = LINE('',#107,#108);
#107 = CARTESIAN_POINT('',(111.7,156.5,14.3));
#108 = VECTOR('',#109,1.);
#109 = DIRECTION('',(0.,1.110223024625E-16,-1.));
#110 = ORIENTED_EDGE('',*,*,#111,.T.);
#111 = EDGE_CURVE('',#104,#73,#112,.T.);
#112 = LINE('',#113,#114);
#113 = CARTESIAN_POINT('',(111.7,147.525,3.));
#114 = VECTOR('',#115,1.);
#115 = DIRECTION('',(0.,-1.,-9.436895709314E-16));
#116 = ORIENTED_EDGE('',*,*,#72,.T.);
#117 = ORIENTED_EDGE('',*,*,#47,.F.);
#118 = PLANE('',#119);
#119 = AXIS2_PLACEMENT_3D('',#120,#121,#122);
#120 = CARTESIAN_POINT('',(111.7,143.5,14.3));
#121 = DIRECTION('',(1.,0.,0.));
#122 = DIRECTION('',(0.,1.,1.110223024625E-16));
#123 = ADVANCED_FACE('',(#124),#142,.T.);
#124 = FACE_BOUND('',#125,.T.);
#125 = EDGE_LOOP('',(#126,#127,#128,#136));
#126 = ORIENTED_EDGE('',*,*,#103,.T.);
#127 = ORIENTED_EDGE('',*,*,#39,.F.);
#128 = ORIENTED_EDGE('',*,*,#129,.T.);
#129 = EDGE_CURVE('',#32,#130,#132,.T.);
#130 = VERTEX_POINT('',#131);
#131 = CARTESIAN_POINT('',(102.3,156.5,3.));
#132 = LINE('',#133,#134);
#133 = CARTESIAN_POINT('',(102.3,156.5,7.15));
#134 = VECTOR('',#135,1.);
#135 = DIRECTION('',(0.,-1.110223024625E-16,1.));
#136 = ORIENTED_EDGE('',*,*,#137,.T.);
#137 = EDGE_CURVE('',#130,#104,#138,.T.);
#138 = LINE('',#139,#140);
#139 = CARTESIAN_POINT('',(135.35,156.5,3.));
#140 = VECTOR('',#141,1.);
#141 = DIRECTION('',(1.,0.,0.));
#142 = PLANE('',#143);
#143 = AXIS2_PLACEMENT_3D('',#144,#145,#146);
#144 = CARTESIAN_POINT('',(100.7,156.5,14.3));
#145 = DIRECTION('',(0.,1.,1.110223024625E-16));
#146 = DIRECTION('',(1.,0.,0.));
#147 = ADVANCED_FACE('',(#148),#159,.F.);
#148 = FACE_BOUND('',#149,.F.);
#149 = EDGE_LOOP('',(#150,#151,#152,#158));
#150 = ORIENTED_EDGE('',*,*,#31,.F.);
#151 = ORIENTED_EDGE('',*,*,#129,.T.);
#152 = ORIENTED_EDGE('',*,*,#153,.T.);
#153 = EDGE_CURVE('',#130,#82,#154,.T.);
#154 = LINE('',#155,#156);
#155 = CARTESIAN_POINT('',(102.3,169.1,3.));
#156 = VECTOR('',#157,1.);
#157 = DIRECTION('',(0.,-1.,-7.216449660064E-16));
#158 = ORIENTED_EDGE('',*,*,#81,.F.);
#159 = PLANE('',#160);
#160 = AXIS2_PLACEMENT_3D('',#161,#162,#163);
#161 = CARTESIAN_POINT('',(102.3,169.1,2.84217094304E-14));
#162 = DIRECTION('',(1.,0.,0.));
#163 = DIRECTION('',(0.,-1.,-9.416449660064E-16));
#164 = ADVANCED_FACE('',(#165),#184,.F.);
#165 = FACE_BOUND('',#166,.T.);
#166 = EDGE_LOOP('',(#167,#168,#176,#183));
#167 = ORIENTED_EDGE('',*,*,#55,.T.);
#168 = ORIENTED_EDGE('',*,*,#169,.T.);
#169 = EDGE_CURVE('',#56,#170,#172,.T.);
#170 = VERTEX_POINT('',#171);
#171 = CARTESIAN_POINT('',(108.3,150.,3.));
#172 = LINE('',#173,#174);
#173 = CARTESIAN_POINT('',(108.3,150.,-1.));
#174 = VECTOR('',#175,1.);
#175 = DIRECTION('',(0.,-5.016449660064E-16,1.));
#176 = ORIENTED_EDGE('',*,*,#177,.F.);
#177 = EDGE_CURVE('',#170,#170,#178,.T.);
#178 = CIRCLE('',#179,2.3);
#179 = AXIS2_PLACEMENT_3D('',#180,#181,#182);
#180 = CARTESIAN_POINT('',(106.,150.,3.));
#181 = DIRECTION('',(0.,9.416449660064E-16,-1.));
#182 = DIRECTION('',(1.,0.,0.));
#183 = ORIENTED_EDGE('',*,*,#169,.F.);
#184 = CYLINDRICAL_SURFACE('',#185,2.3);
#185 = AXIS2_PLACEMENT_3D('',#186,#187,#188);
#186 = CARTESIAN_POINT('',(106.,150.,-1.));
#187 = DIRECTION('',(0.,9.416449660064E-16,-1.));
#188 = DIRECTION('',(1.,0.,0.));
#189 = ADVANCED_FACE('',(#190,#196),#199,.F.);
#190 = FACE_BOUND('',#191,.F.);
#191 = EDGE_LOOP('',(#192,#193,#194,#195));
#192 = ORIENTED_EDGE('',*,*,#89,.F.);
#193 = ORIENTED_EDGE('',*,*,#153,.F.);
#194 = ORIENTED_EDGE('',*,*,#137,.T.);
#195 = ORIENTED_EDGE('',*,*,#111,.T.);
#196 = FACE_BOUND('',#197,.F.);
#197 = EDGE_LOOP('',(#198));
#198 = ORIENTED_EDGE('',*,*,#177,.F.);
#199 = PLANE('',#200);
#200 = AXIS2_PLACEMENT_3D('',#201,#202,#203);
#201 = CARTESIAN_POINT('',(170.,151.55,3.));
#202 = DIRECTION('',(0.,9.516449660064E-16,-1.));
#203 = DIRECTION('',(0.,1.,9.516449660064E-16));
#204 = ( GEOMETRIC_REPRESENTATION_CONTEXT(3) 
GLOBAL_UNCERTAINTY_ASSIGNED_CONTEXT((#208)) GLOBAL_UNIT_ASSIGNED_CONTEXT
((#205,#206,#207)) REPRESENTATION_CONTEXT('Context #1',
  '3D Context with UNIT and UNCERTAINTY') );
#205 = ( LENGTH_UNIT() NAMED_UNIT(*) SI_UNIT(.MILLI.,.METRE.) );
#206 = ( NAMED_UNIT(*) PLANE_ANGLE_UNIT() SI_UNIT($,.RADIAN.) );
#207 = ( NAMED_UNIT(*) SI_UNIT($,.STERADIAN.) SOLID_ANGLE_UNIT() );
#208 = UNCERTAINTY_MEASURE_WITH_UNIT(LENGTH_MEASURE(1.E-07),#205,
  'distance_accuracy_value','confusion accuracy');
#209 = PRODUCT_RELATED_PRODUCT_CATEGORY('part',$,(#7));
ENDSEC;
END-ISO-10303-21;
