ISO-10303-21;
HEADER;
FILE_DESCRIPTION(('FreeCAD Model'),'2;1');
FILE_NAME('Open CASCADE Shape Model','2026-09-08T07:02:37',('FreeCAD'),(
    'FreeCAD'),'Open CASCADE STEP processor 7.8','FreeCAD','Unknown');
FILE_SCHEMA(('AUTOMOTIVE_DESIGN { 1 0 10303 214 1 1 1 1 }'));
ENDSEC;
DATA;
#1 = APPLICATION_PROTOCOL_DEFINITION('international standard',
  'automotive_design',2000,#2);
#2 = APPLICATION_CONTEXT(
  'core data for automotive mechanical design processes');
#3 = SHAPE_DEFINITION_REPRESENTATION(#4,#10);
#4 = PRODUCT_DEFINITION_SHAPE('','',#5);
#5 = PRODUCT_DEFINITION('design','',#6,#9);
#6 = PRODUCT_DEFINITION_FORMATION('','',#7);
#7 = PRODUCT('Open CASCADE STEP translator 7.8 6',
  'Open CASCADE STEP translator 7.8 6','',(#8));
#8 = PRODUCT_CONTEXT('',#2,'mechanical');
#9 = PRODUCT_DEFINITION_CONTEXT('part definition',#2,'design');
#10 = ADVANCED_BREP_SHAPE_REPRESENTATION('',(#11,#15),#2250);
#11 = AXIS2_PLACEMENT_3D('',#12,#13,#14);
#12 = CARTESIAN_POINT('',(0.,0.,0.));
#13 = DIRECTION('',(0.,0.,1.));
#14 = DIRECTION('',(1.,0.,-0.));
#15 = MANIFOLD_SOLID_BREP('',#16);
#16 = CLOSED_SHELL('',(#17,#57,#90,#123,#334,#645,#662,#679,#696,#713,
    #725,#748,#772,#789,#800,#823,#847,#864,#875,#892,#924,#948,#972,
    #997,#1022,#1046,#1078,#1096,#1113,#1142,#1167,#1191,#1216,#1240,
    #1265,#1305,#1329,#1369,#1394,#1418,#1443,#1483,#1507,#1547,#1572,
    #1596,#1621,#1645,#1670,#1694,#1719,#1743,#1768,#1792,#1817,#1841,
    #1859,#1909,#1936,#1978,#2028,#2055,#2097,#2119,#2141,#2158,#2170,
    #2187,#2199));
#17 = ADVANCED_FACE('',(#18),#52,.F.);
#18 = FACE_BOUND('',#19,.F.);
#19 = EDGE_LOOP('',(#20,#30,#38,#46));
#20 = ORIENTED_EDGE('',*,*,#21,.T.);
#21 = EDGE_CURVE('',#22,#24,#26,.T.);
#22 = VERTEX_POINT('',#23);
#23 = CARTESIAN_POINT('',(58.5,148.5,7.815970093361E-14));
#24 = VERTEX_POINT('',#25);
#25 = CARTESIAN_POINT('',(58.5,148.5,8.));
#26 = LINE('',#27,#28);
#27 = CARTESIAN_POINT('',(58.5,148.5,5.684341886081E-14));
#28 = VECTOR('',#29,1.);
#29 = DIRECTION('',(0.,-5.016449660064E-16,1.));
#30 = ORIENTED_EDGE('',*,*,#31,.T.);
#31 = EDGE_CURVE('',#24,#32,#34,.T.);
#32 = VERTEX_POINT('',#33);
#33 = CARTESIAN_POINT('',(58.5,107.5,8.));
#34 = LINE('',#35,#36);
#35 = CARTESIAN_POINT('',(58.5,148.5,8.));
#36 = VECTOR('',#37,1.);
#37 = DIRECTION('',(6.E-17,-1.,-7.216449660064E-16));
#38 = ORIENTED_EDGE('',*,*,#39,.F.);
#39 = EDGE_CURVE('',#40,#32,#42,.T.);
#40 = VERTEX_POINT('',#41);
#41 = CARTESIAN_POINT('',(58.5,107.5,2.84217094304E-14));
#42 = LINE('',#43,#44);
#43 = CARTESIAN_POINT('',(58.5,107.5,2.84217094304E-14));
#44 = VECTOR('',#45,1.);
#45 = DIRECTION('',(0.,-5.016449660064E-16,1.));
#46 = ORIENTED_EDGE('',*,*,#47,.F.);
#47 = EDGE_CURVE('',#22,#40,#48,.T.);
#48 = LINE('',#49,#50);
#49 = CARTESIAN_POINT('',(58.5,148.5,9.764411501578E-14));
#50 = VECTOR('',#51,1.);
#51 = DIRECTION('',(6.E-17,-1.,-7.216449660064E-16));
#52 = PLANE('',#53);
#53 = AXIS2_PLACEMENT_3D('',#54,#55,#56);
#54 = CARTESIAN_POINT('',(58.5,148.5,5.684341886081E-14));
#55 = DIRECTION('',(1.,6.E-17,4.329869796038E-32));
#56 = DIRECTION('',(6.E-17,-1.,-9.416449660064E-16));
#57 = ADVANCED_FACE('',(#58),#85,.T.);
#58 = FACE_BOUND('',#59,.F.);
#59 = EDGE_LOOP('',(#60,#70,#77,#78));
#60 = ORIENTED_EDGE('',*,*,#61,.T.);
#61 = EDGE_CURVE('',#62,#64,#66,.T.);
#62 = VERTEX_POINT('',#63);
#63 = CARTESIAN_POINT('',(62.5,152.5,7.105427357601E-14));
#64 = VERTEX_POINT('',#65);
#65 = CARTESIAN_POINT('',(62.5,152.5,8.));
#66 = LINE('',#67,#68);
#67 = CARTESIAN_POINT('',(62.5,152.5,8.526512829121E-14));
#68 = VECTOR('',#69,1.);
#69 = DIRECTION('',(0.,-5.016449660064E-16,1.));
#70 = ORIENTED_EDGE('',*,*,#71,.T.);
#71 = EDGE_CURVE('',#64,#24,#72,.T.);
#72 = CIRCLE('',#73,4.);
#73 = AXIS2_PLACEMENT_3D('',#74,#75,#76);
#74 = CARTESIAN_POINT('',(62.5,148.5,8.));
#75 = DIRECTION('',(0.,-7.216449660064E-16,1.));
#76 = DIRECTION('',(-2.44E-15,1.,7.216449660064E-16));
#77 = ORIENTED_EDGE('',*,*,#21,.F.);
#78 = ORIENTED_EDGE('',*,*,#79,.F.);
#79 = EDGE_CURVE('',#62,#22,#80,.T.);
#80 = CIRCLE('',#81,4.);
#81 = AXIS2_PLACEMENT_3D('',#82,#83,#84);
#82 = CARTESIAN_POINT('',(62.5,148.5,9.764411501578E-14));
#83 = DIRECTION('',(0.,-7.216449660064E-16,1.));
#84 = DIRECTION('',(-2.44E-15,1.,7.216449660064E-16));
#85 = CYLINDRICAL_SURFACE('',#86,4.);
#86 = AXIS2_PLACEMENT_3D('',#87,#88,#89);
#87 = CARTESIAN_POINT('',(62.5,148.5,5.684341886081E-14));
#88 = DIRECTION('',(0.,9.416449660064E-16,-1.));
#89 = DIRECTION('',(-2.44E-15,1.,9.416449660064E-16));
#90 = ADVANCED_FACE('',(#91),#118,.T.);
#91 = FACE_BOUND('',#92,.F.);
#92 = EDGE_LOOP('',(#93,#94,#103,#111));
#93 = ORIENTED_EDGE('',*,*,#39,.T.);
#94 = ORIENTED_EDGE('',*,*,#95,.T.);
#95 = EDGE_CURVE('',#32,#96,#98,.T.);
#96 = VERTEX_POINT('',#97);
#97 = CARTESIAN_POINT('',(62.5,103.5,8.));
#98 = CIRCLE('',#99,4.);
#99 = AXIS2_PLACEMENT_3D('',#100,#101,#102);
#100 = CARTESIAN_POINT('',(62.5,107.5,8.));
#101 = DIRECTION('',(0.,-7.216449660064E-16,1.));
#102 = DIRECTION('',(-1.,-1.2E-16,-8.659739592076E-32));
#103 = ORIENTED_EDGE('',*,*,#104,.F.);
#104 = EDGE_CURVE('',#105,#96,#107,.T.);
#105 = VERTEX_POINT('',#106);
#106 = CARTESIAN_POINT('',(62.5,103.5,3.552713678801E-14));
#107 = LINE('',#108,#109);
#108 = CARTESIAN_POINT('',(62.5,103.5,2.84217094304E-14));
#109 = VECTOR('',#110,1.);
#110 = DIRECTION('',(0.,-5.016449660064E-16,1.));
#111 = ORIENTED_EDGE('',*,*,#112,.F.);
#112 = EDGE_CURVE('',#40,#105,#113,.T.);
#113 = CIRCLE('',#114,4.);
#114 = AXIS2_PLACEMENT_3D('',#115,#116,#117);
#115 = CARTESIAN_POINT('',(62.5,107.5,6.805667140952E-14));
#116 = DIRECTION('',(0.,-7.216449660064E-16,1.));
#117 = DIRECTION('',(-1.,-1.2E-16,-8.659739592076E-32));
#118 = CYLINDRICAL_SURFACE('',#119,4.);
#119 = AXIS2_PLACEMENT_3D('',#120,#121,#122);
#120 = CARTESIAN_POINT('',(62.5,107.5,2.84217094304E-14));
#121 = DIRECTION('',(0.,9.416449660064E-16,-1.));
#122 = DIRECTION('',(-1.,-1.2E-16,-1.129973959208E-31));
#123 = ADVANCED_FACE('',(#124,#169,#203,#237,#248,#318),#329,.T.);
#124 = FACE_BOUND('',#125,.T.);
#125 = EDGE_LOOP('',(#126,#127,#128,#136,#145,#153,#162,#168));
#126 = ORIENTED_EDGE('',*,*,#47,.F.);
#127 = ORIENTED_EDGE('',*,*,#79,.F.);
#128 = ORIENTED_EDGE('',*,*,#129,.F.);
#129 = EDGE_CURVE('',#130,#62,#132,.T.);
#130 = VERTEX_POINT('',#131);
#131 = CARTESIAN_POINT('',(193.5,152.5,7.815970093361E-14));
#132 = LINE('',#133,#134);
#133 = CARTESIAN_POINT('',(193.5,152.5,1.005306948798E-13));
#134 = VECTOR('',#135,1.);
#135 = DIRECTION('',(-1.,1.1E-16,7.93809462607E-32));
#136 = ORIENTED_EDGE('',*,*,#137,.F.);
#137 = EDGE_CURVE('',#138,#130,#140,.T.);
#138 = VERTEX_POINT('',#139);
#139 = CARTESIAN_POINT('',(197.5,148.5,7.815970093361E-14));
#140 = CIRCLE('',#141,4.);
#141 = AXIS2_PLACEMENT_3D('',#142,#143,#144);
#142 = CARTESIAN_POINT('',(193.5,148.5,9.764411501578E-14));
#143 = DIRECTION('',(0.,-7.216449660064E-16,1.));
#144 = DIRECTION('',(1.,3.6E-15,2.597921877623E-30));
#145 = ORIENTED_EDGE('',*,*,#146,.F.);
#146 = EDGE_CURVE('',#147,#138,#149,.T.);
#147 = VERTEX_POINT('',#148);
#148 = CARTESIAN_POINT('',(197.5,107.5,2.84217094304E-14));
#149 = LINE('',#150,#151);
#150 = CARTESIAN_POINT('',(197.5,107.5,6.805667140952E-14));
#151 = VECTOR('',#152,1.);
#152 = DIRECTION('',(-6.9E-16,1.,7.216449660064E-16));
#153 = ORIENTED_EDGE('',*,*,#154,.F.);
#154 = EDGE_CURVE('',#155,#147,#157,.T.);
#155 = VERTEX_POINT('',#156);
#156 = CARTESIAN_POINT('',(193.5,103.5,3.552713678801E-14));
#157 = CIRCLE('',#158,4.);
#158 = AXIS2_PLACEMENT_3D('',#159,#160,#161);
#159 = CARTESIAN_POINT('',(193.5,107.5,6.805667140952E-14));
#160 = DIRECTION('',(0.,-7.216449660064E-16,1.));
#161 = DIRECTION('',(1.1E-16,-1.,-7.216449660064E-16));
#162 = ORIENTED_EDGE('',*,*,#163,.F.);
#163 = EDGE_CURVE('',#105,#155,#164,.T.);
#164 = LINE('',#165,#166);
#165 = CARTESIAN_POINT('',(62.5,103.5,6.51700915455E-14));
#166 = VECTOR('',#167,1.);
#167 = DIRECTION('',(1.,0.,0.));
#168 = ORIENTED_EDGE('',*,*,#112,.F.);
#169 = FACE_BOUND('',#170,.T.);
#170 = EDGE_LOOP('',(#171,#181,#189,#197));
#171 = ORIENTED_EDGE('',*,*,#172,.F.);
#172 = EDGE_CURVE('',#173,#175,#177,.T.);
#173 = VERTEX_POINT('',#174);
#174 = CARTESIAN_POINT('',(167.5,119.9,2.84217094304E-14));
#175 = VERTEX_POINT('',#176);
#176 = CARTESIAN_POINT('',(167.5,117.1,7.105427357601E-15));
#177 = LINE('',#178,#179);
#178 = CARTESIAN_POINT('',(167.5,123.25,2.84217094304E-14));
#179 = VECTOR('',#180,1.);
#180 = DIRECTION('',(0.,-1.,-7.216449660064E-16));
#181 = ORIENTED_EDGE('',*,*,#182,.T.);
#182 = EDGE_CURVE('',#173,#183,#185,.T.);
#183 = VERTEX_POINT('',#184);
#184 = CARTESIAN_POINT('',(87.5,119.9,2.84217094304E-14));
#185 = LINE('',#186,#187);
#186 = CARTESIAN_POINT('',(107.75,119.9,2.84217094304E-14));
#187 = VECTOR('',#188,1.);
#188 = DIRECTION('',(-1.,0.,0.));
#189 = ORIENTED_EDGE('',*,*,#190,.T.);
#190 = EDGE_CURVE('',#183,#191,#193,.T.);
#191 = VERTEX_POINT('',#192);
#192 = CARTESIAN_POINT('',(87.5,117.1,7.105427357601E-15));
#193 = LINE('',#194,#195);
#194 = CARTESIAN_POINT('',(87.5,123.25,2.84217094304E-14));
#195 = VECTOR('',#196,1.);
#196 = DIRECTION('',(0.,-1.,-7.216449660064E-16));
#197 = ORIENTED_EDGE('',*,*,#198,.T.);
#198 = EDGE_CURVE('',#191,#175,#199,.T.);
#199 = LINE('',#200,#201);
#200 = CARTESIAN_POINT('',(107.75,117.1,2.84217094304E-14));
#201 = VECTOR('',#202,1.);
#202 = DIRECTION('',(1.,0.,0.));
#203 = FACE_BOUND('',#204,.T.);
#204 = EDGE_LOOP('',(#205,#215,#223,#231));
#205 = ORIENTED_EDGE('',*,*,#206,.F.);
#206 = EDGE_CURVE('',#207,#209,#211,.T.);
#207 = VERTEX_POINT('',#208);
#208 = CARTESIAN_POINT('',(167.5,125.9,1.42108547152E-14));
#209 = VERTEX_POINT('',#210);
#210 = CARTESIAN_POINT('',(167.5,123.1,2.84217094304E-14));
#211 = LINE('',#212,#213);
#212 = CARTESIAN_POINT('',(167.5,126.25,2.84217094304E-14));
#213 = VECTOR('',#214,1.);
#214 = DIRECTION('',(0.,-1.,-7.216449660064E-16));
#215 = ORIENTED_EDGE('',*,*,#216,.T.);
#216 = EDGE_CURVE('',#207,#217,#219,.T.);
#217 = VERTEX_POINT('',#218);
#218 = CARTESIAN_POINT('',(87.5,125.9,1.42108547152E-14));
#219 = LINE('',#220,#221);
#220 = CARTESIAN_POINT('',(107.75,125.9,2.84217094304E-14));
#221 = VECTOR('',#222,1.);
#222 = DIRECTION('',(-1.,0.,0.));
#223 = ORIENTED_EDGE('',*,*,#224,.T.);
#224 = EDGE_CURVE('',#217,#225,#227,.T.);
#225 = VERTEX_POINT('',#226);
#226 = CARTESIAN_POINT('',(87.5,123.1,2.84217094304E-14));
#227 = LINE('',#228,#229);
#228 = CARTESIAN_POINT('',(87.5,126.25,2.84217094304E-14));
#229 = VECTOR('',#230,1.);
#230 = DIRECTION('',(0.,-1.,-7.216449660064E-16));
#231 = ORIENTED_EDGE('',*,*,#232,.T.);
#232 = EDGE_CURVE('',#225,#209,#233,.T.);
#233 = LINE('',#234,#235);
#234 = CARTESIAN_POINT('',(107.75,123.1,2.84217094304E-14));
#235 = VECTOR('',#236,1.);
#236 = DIRECTION('',(1.,0.,0.));
#237 = FACE_BOUND('',#238,.T.);
#238 = EDGE_LOOP('',(#239));
#239 = ORIENTED_EDGE('',*,*,#240,.T.);
#240 = EDGE_CURVE('',#241,#241,#243,.T.);
#241 = VERTEX_POINT('',#242);
#242 = CARTESIAN_POINT('',(64.75,146.5,4.263256414561E-14));
#243 = CIRCLE('',#244,2.25);
#244 = AXIS2_PLACEMENT_3D('',#245,#246,#247);
#245 = CARTESIAN_POINT('',(62.5,146.5,2.84217094304E-14));
#246 = DIRECTION('',(0.,-5.016449660064E-16,1.));
#247 = DIRECTION('',(1.,0.,0.));
#248 = FACE_BOUND('',#249,.T.);
#249 = EDGE_LOOP('',(#250,#261,#269,#278,#286,#295,#303,#312));
#250 = ORIENTED_EDGE('',*,*,#251,.F.);
#251 = EDGE_CURVE('',#252,#254,#256,.T.);
#252 = VERTEX_POINT('',#253);
#253 = CARTESIAN_POINT('',(174.5,141.5,4.263256414561E-14));
#254 = VERTEX_POINT('',#255);
#255 = CARTESIAN_POINT('',(176.5,143.5,3.552713678801E-14));
#256 = CIRCLE('',#257,2.);
#257 = AXIS2_PLACEMENT_3D('',#258,#259,#260);
#258 = CARTESIAN_POINT('',(176.5,141.5,2.84217094304E-14));
#259 = DIRECTION('',(2.189528850508E-47,9.416449660064E-16,-1.));
#260 = DIRECTION('',(1.1E-16,1.,9.416449660064E-16));
#261 = ORIENTED_EDGE('',*,*,#262,.T.);
#262 = EDGE_CURVE('',#252,#263,#265,.T.);
#263 = VERTEX_POINT('',#264);
#264 = CARTESIAN_POINT('',(174.5,136.5,3.552713678801E-14));
#265 = LINE('',#266,#267);
#266 = CARTESIAN_POINT('',(174.5,134.75,2.84217094304E-14));
#267 = VECTOR('',#268,1.);
#268 = DIRECTION('',(0.,-1.,-7.216449660064E-16));
#269 = ORIENTED_EDGE('',*,*,#270,.F.);
#270 = EDGE_CURVE('',#271,#263,#273,.T.);
#271 = VERTEX_POINT('',#272);
#272 = CARTESIAN_POINT('',(176.5,134.5,1.42108547152E-14));
#273 = CIRCLE('',#274,2.);
#274 = AXIS2_PLACEMENT_3D('',#275,#276,#277);
#275 = CARTESIAN_POINT('',(176.5,136.5,2.84217094304E-14));
#276 = DIRECTION('',(0.,9.416449660064E-16,-1.));
#277 = DIRECTION('',(-1.,-1.2E-16,-1.129973959208E-31));
#278 = ORIENTED_EDGE('',*,*,#279,.T.);
#279 = EDGE_CURVE('',#271,#280,#282,.T.);
#280 = VERTEX_POINT('',#281);
#281 = CARTESIAN_POINT('',(182.5,134.5,1.42108547152E-14));
#282 = LINE('',#283,#284);
#283 = CARTESIAN_POINT('',(152.25,134.5,2.84217094304E-14));
#284 = VECTOR('',#285,1.);
#285 = DIRECTION('',(1.,0.,0.));
#286 = ORIENTED_EDGE('',*,*,#287,.F.);
#287 = EDGE_CURVE('',#288,#280,#290,.T.);
#288 = VERTEX_POINT('',#289);
#289 = CARTESIAN_POINT('',(184.5,136.5,3.552713678801E-14));
#290 = CIRCLE('',#291,2.);
#291 = AXIS2_PLACEMENT_3D('',#292,#293,#294);
#292 = CARTESIAN_POINT('',(182.5,136.5,2.84217094304E-14));
#293 = DIRECTION('',(-2.189528850508E-47,9.416449660064E-16,-1.));
#294 = DIRECTION('',(1.1E-16,-1.,-9.416449660064E-16));
#295 = ORIENTED_EDGE('',*,*,#296,.T.);
#296 = EDGE_CURVE('',#288,#297,#299,.T.);
#297 = VERTEX_POINT('',#298);
#298 = CARTESIAN_POINT('',(184.5,141.5,3.552713678801E-14));
#299 = LINE('',#300,#301);
#300 = CARTESIAN_POINT('',(184.5,132.25,2.84217094304E-14));
#301 = VECTOR('',#302,1.);
#302 = DIRECTION('',(-2.84E-15,1.,7.216449660064E-16));
#303 = ORIENTED_EDGE('',*,*,#304,.F.);
#304 = EDGE_CURVE('',#305,#297,#307,.T.);
#305 = VERTEX_POINT('',#306);
#306 = CARTESIAN_POINT('',(182.5,143.5,4.263256414561E-14));
#307 = CIRCLE('',#308,2.);
#308 = AXIS2_PLACEMENT_3D('',#309,#310,#311);
#309 = CARTESIAN_POINT('',(182.5,141.5,2.84217094304E-14));
#310 = DIRECTION('',(0.,9.416449660064E-16,-1.));
#311 = DIRECTION('',(1.,0.,0.));
#312 = ORIENTED_EDGE('',*,*,#313,.T.);
#313 = EDGE_CURVE('',#305,#254,#314,.T.);
#314 = LINE('',#315,#316);
#315 = CARTESIAN_POINT('',(155.25,143.5,2.84217094304E-14));
#316 = VECTOR('',#317,1.);
#317 = DIRECTION('',(-1.,-2.37E-15,-1.710298569435E-30));
#318 = FACE_BOUND('',#319,.T.);
#319 = EDGE_LOOP('',(#320));
#320 = ORIENTED_EDGE('',*,*,#321,.T.);
#321 = EDGE_CURVE('',#322,#322,#324,.T.);
#322 = VERTEX_POINT('',#323);
#323 = CARTESIAN_POINT('',(194.75,146.5,4.263256414561E-14));
#324 = CIRCLE('',#325,2.25);
#325 = AXIS2_PLACEMENT_3D('',#326,#327,#328);
#326 = CARTESIAN_POINT('',(192.5,146.5,2.84217094304E-14));
#327 = DIRECTION('',(0.,-5.016449660064E-16,1.));
#328 = DIRECTION('',(1.,0.,0.));
#329 = PLANE('',#330);
#330 = AXIS2_PLACEMENT_3D('',#331,#332,#333);
#331 = CARTESIAN_POINT('',(128.,128.,2.84217094304E-14));
#332 = DIRECTION('',(0.,7.216449660064E-16,-1.));
#333 = DIRECTION('',(0.,1.,7.216449660064E-16));
#334 = ADVANCED_FACE('',(#335,#380,#391,#629),#640,.F.);
#335 = FACE_BOUND('',#336,.F.);
#336 = EDGE_LOOP('',(#337,#338,#339,#347,#356,#364,#373,#379));
#337 = ORIENTED_EDGE('',*,*,#31,.F.);
#338 = ORIENTED_EDGE('',*,*,#71,.F.);
#339 = ORIENTED_EDGE('',*,*,#340,.F.);
#340 = EDGE_CURVE('',#341,#64,#343,.T.);
#341 = VERTEX_POINT('',#342);
#342 = CARTESIAN_POINT('',(193.5,152.5,8.));
#343 = LINE('',#344,#345);
#344 = CARTESIAN_POINT('',(193.5,152.5,8.));
#345 = VECTOR('',#346,1.);
#346 = DIRECTION('',(-1.,1.1E-16,7.93809462607E-32));
#347 = ORIENTED_EDGE('',*,*,#348,.F.);
#348 = EDGE_CURVE('',#349,#341,#351,.T.);
#349 = VERTEX_POINT('',#350);
#350 = CARTESIAN_POINT('',(197.5,148.5,8.));
#351 = CIRCLE('',#352,4.);
#352 = AXIS2_PLACEMENT_3D('',#353,#354,#355);
#353 = CARTESIAN_POINT('',(193.5,148.5,8.));
#354 = DIRECTION('',(0.,-7.216449660064E-16,1.));
#355 = DIRECTION('',(1.,3.6E-15,2.597921877623E-30));
#356 = ORIENTED_EDGE('',*,*,#357,.F.);
#357 = EDGE_CURVE('',#358,#349,#360,.T.);
#358 = VERTEX_POINT('',#359);
#359 = CARTESIAN_POINT('',(197.5,107.5,8.));
#360 = LINE('',#361,#362);
#361 = CARTESIAN_POINT('',(197.5,107.5,8.));
#362 = VECTOR('',#363,1.);
#363 = DIRECTION('',(-6.9E-16,1.,7.216449660064E-16));
#364 = ORIENTED_EDGE('',*,*,#365,.F.);
#365 = EDGE_CURVE('',#366,#358,#368,.T.);
#366 = VERTEX_POINT('',#367);
#367 = CARTESIAN_POINT('',(193.5,103.5,8.));
#368 = CIRCLE('',#369,4.);
#369 = AXIS2_PLACEMENT_3D('',#370,#371,#372);
#370 = CARTESIAN_POINT('',(193.5,107.5,8.));
#371 = DIRECTION('',(0.,-7.216449660064E-16,1.));
#372 = DIRECTION('',(1.1E-16,-1.,-7.216449660064E-16));
#373 = ORIENTED_EDGE('',*,*,#374,.F.);
#374 = EDGE_CURVE('',#96,#366,#375,.T.);
#375 = LINE('',#376,#377);
#376 = CARTESIAN_POINT('',(62.5,103.5,8.));
#377 = VECTOR('',#378,1.);
#378 = DIRECTION('',(1.,0.,0.));
#379 = ORIENTED_EDGE('',*,*,#95,.F.);
#380 = FACE_BOUND('',#381,.F.);
#381 = EDGE_LOOP('',(#382));
#382 = ORIENTED_EDGE('',*,*,#383,.T.);
#383 = EDGE_CURVE('',#384,#384,#386,.T.);
#384 = VERTEX_POINT('',#385);
#385 = CARTESIAN_POINT('',(64.75,146.5,8.));
#386 = CIRCLE('',#387,2.25);
#387 = AXIS2_PLACEMENT_3D('',#388,#389,#390);
#388 = CARTESIAN_POINT('',(62.5,146.5,8.));
#389 = DIRECTION('',(0.,-5.016449660064E-16,1.));
#390 = DIRECTION('',(1.,0.,0.));
#391 = FACE_BOUND('',#392,.F.);
#392 = EDGE_LOOP('',(#393,#403,#412,#420,#429,#437,#446,#454,#463,#471,
    #480,#488,#497,#505,#514,#522,#530,#538,#547,#555,#564,#572,#580,
    #588,#597,#605,#614,#622));
#393 = ORIENTED_EDGE('',*,*,#394,.T.);
#394 = EDGE_CURVE('',#395,#397,#399,.T.);
#395 = VERTEX_POINT('',#396);
#396 = CARTESIAN_POINT('',(191.5,138.5,8.));
#397 = VERTEX_POINT('',#398);
#398 = CARTESIAN_POINT('',(184.5,138.5,8.));
#399 = LINE('',#400,#401);
#400 = CARTESIAN_POINT('',(159.75,138.5,8.));
#401 = VECTOR('',#402,1.);
#402 = DIRECTION('',(-1.,-3.9E-16,-2.814415367425E-31));
#403 = ORIENTED_EDGE('',*,*,#404,.F.);
#404 = EDGE_CURVE('',#405,#397,#407,.T.);
#405 = VERTEX_POINT('',#406);
#406 = CARTESIAN_POINT('',(186.5,140.5,8.));
#407 = CIRCLE('',#408,2.);
#408 = AXIS2_PLACEMENT_3D('',#409,#410,#411);
#409 = CARTESIAN_POINT('',(184.5,140.5,8.));
#410 = DIRECTION('',(0.,9.416449660064E-16,-1.));
#411 = DIRECTION('',(-7.11E-15,-1.,-9.416449660064E-16));
#412 = ORIENTED_EDGE('',*,*,#413,.T.);
#413 = EDGE_CURVE('',#405,#414,#416,.T.);
#414 = VERTEX_POINT('',#415);
#415 = CARTESIAN_POINT('',(186.5,148.5,8.));
#416 = LINE('',#417,#418);
#417 = CARTESIAN_POINT('',(186.5,134.25,8.));
#418 = VECTOR('',#419,1.);
#419 = DIRECTION('',(0.,1.,7.216449660064E-16));
#420 = ORIENTED_EDGE('',*,*,#421,.F.);
#421 = EDGE_CURVE('',#422,#414,#424,.T.);
#422 = VERTEX_POINT('',#423);
#423 = CARTESIAN_POINT('',(184.5,150.5,8.));
#424 = CIRCLE('',#425,2.);
#425 = AXIS2_PLACEMENT_3D('',#426,#427,#428);
#426 = CARTESIAN_POINT('',(184.5,148.5,8.));
#427 = DIRECTION('',(0.,9.416449660064E-16,-1.));
#428 = DIRECTION('',(1.,-1.42E-14,-1.337135851729E-29));
#429 = ORIENTED_EDGE('',*,*,#430,.T.);
#430 = EDGE_CURVE('',#422,#431,#433,.T.);
#431 = VERTEX_POINT('',#432);
#432 = CARTESIAN_POINT('',(71.5,150.5,8.));
#433 = LINE('',#434,#435);
#434 = CARTESIAN_POINT('',(156.25,150.5,8.));
#435 = VECTOR('',#436,1.);
#436 = DIRECTION('',(-1.,0.,-0.));
#437 = ORIENTED_EDGE('',*,*,#438,.F.);
#438 = EDGE_CURVE('',#439,#431,#441,.T.);
#439 = VERTEX_POINT('',#440);
#440 = CARTESIAN_POINT('',(69.5,148.5,8.));
#441 = CIRCLE('',#442,2.);
#442 = AXIS2_PLACEMENT_3D('',#443,#444,#445);
#443 = CARTESIAN_POINT('',(71.5,148.5,8.));
#444 = DIRECTION('',(0.,9.416449660064E-16,-1.));
#445 = DIRECTION('',(-1.78E-15,1.,9.416449660064E-16));
#446 = ORIENTED_EDGE('',*,*,#447,.T.);
#447 = EDGE_CURVE('',#439,#448,#450,.T.);
#448 = VERTEX_POINT('',#449);
#449 = CARTESIAN_POINT('',(69.5,140.5,8.));
#450 = LINE('',#451,#452);
#451 = CARTESIAN_POINT('',(69.5,138.25,8.));
#452 = VECTOR('',#453,1.);
#453 = DIRECTION('',(4.4E-16,-1.,-7.216449660064E-16));
#454 = ORIENTED_EDGE('',*,*,#455,.F.);
#455 = EDGE_CURVE('',#456,#448,#458,.T.);
#456 = VERTEX_POINT('',#457);
#457 = CARTESIAN_POINT('',(71.5,138.5,8.));
#458 = CIRCLE('',#459,2.);
#459 = AXIS2_PLACEMENT_3D('',#460,#461,#462);
#460 = CARTESIAN_POINT('',(71.5,140.5,8.));
#461 = DIRECTION('',(0.,9.416449660064E-16,-1.));
#462 = DIRECTION('',(-1.,-1.2E-16,-1.129973959208E-31));
#463 = ORIENTED_EDGE('',*,*,#464,.T.);
#464 = EDGE_CURVE('',#456,#465,#467,.T.);
#465 = VERTEX_POINT('',#466);
#466 = CARTESIAN_POINT('',(63.5,138.5,8.));
#467 = LINE('',#468,#469);
#468 = CARTESIAN_POINT('',(114.25,138.5,8.));
#469 = VECTOR('',#470,1.);
#470 = DIRECTION('',(-1.,0.,-0.));
#471 = ORIENTED_EDGE('',*,*,#472,.F.);
#472 = EDGE_CURVE('',#473,#465,#475,.T.);
#473 = VERTEX_POINT('',#474);
#474 = CARTESIAN_POINT('',(61.5,136.5,8.));
#475 = CIRCLE('',#476,2.);
#476 = AXIS2_PLACEMENT_3D('',#477,#478,#479);
#477 = CARTESIAN_POINT('',(63.5,136.5,8.));
#478 = DIRECTION('',(0.,9.416449660064E-16,-1.));
#479 = DIRECTION('',(-2.22E-15,1.,9.416449660064E-16));
#480 = ORIENTED_EDGE('',*,*,#481,.T.);
#481 = EDGE_CURVE('',#473,#482,#484,.T.);
#482 = VERTEX_POINT('',#483);
#483 = CARTESIAN_POINT('',(61.5,110.5,8.));
#484 = LINE('',#485,#486);
#485 = CARTESIAN_POINT('',(61.5,132.25,8.));
#486 = VECTOR('',#487,1.);
#487 = DIRECTION('',(2.7E-16,-1.,-7.216449660064E-16));
#488 = ORIENTED_EDGE('',*,*,#489,.F.);
#489 = EDGE_CURVE('',#490,#482,#492,.T.);
#490 = VERTEX_POINT('',#491);
#491 = CARTESIAN_POINT('',(63.5,108.5,8.));
#492 = CIRCLE('',#493,2.);
#493 = AXIS2_PLACEMENT_3D('',#494,#495,#496);
#494 = CARTESIAN_POINT('',(63.5,110.5,8.));
#495 = DIRECTION('',(0.,9.416449660064E-16,-1.));
#496 = DIRECTION('',(-1.,1.433E-14,1.349377236287E-29));
#497 = ORIENTED_EDGE('',*,*,#498,.T.);
#498 = EDGE_CURVE('',#490,#499,#501,.T.);
#499 = VERTEX_POINT('',#500);
#500 = CARTESIAN_POINT('',(100.5,108.5,8.));
#501 = LINE('',#502,#503);
#502 = CARTESIAN_POINT('',(95.75,108.5,8.));
#503 = VECTOR('',#504,1.);
#504 = DIRECTION('',(1.,0.,0.));
#505 = ORIENTED_EDGE('',*,*,#506,.F.);
#506 = EDGE_CURVE('',#507,#499,#509,.T.);
#507 = VERTEX_POINT('',#508);
#508 = CARTESIAN_POINT('',(102.5,110.5,8.));
#509 = CIRCLE('',#510,2.);
#510 = AXIS2_PLACEMENT_3D('',#511,#512,#513);
#511 = CARTESIAN_POINT('',(100.5,110.5,8.));
#512 = DIRECTION('',(0.,9.416449660064E-16,-1.));
#513 = DIRECTION('',(-7.11E-15,-1.,-9.416449660064E-16));
#514 = ORIENTED_EDGE('',*,*,#515,.T.);
#515 = EDGE_CURVE('',#507,#516,#518,.T.);
#516 = VERTEX_POINT('',#517);
#517 = CARTESIAN_POINT('',(102.5,111.5,8.));
#518 = LINE('',#519,#520);
#519 = CARTESIAN_POINT('',(102.5,119.25,8.));
#520 = VECTOR('',#521,1.);
#521 = DIRECTION('',(5.5E-16,1.,7.216449660064E-16));
#522 = ORIENTED_EDGE('',*,*,#523,.T.);
#523 = EDGE_CURVE('',#516,#524,#526,.T.);
#524 = VERTEX_POINT('',#525);
#525 = CARTESIAN_POINT('',(104.5,111.5,8.));
#526 = LINE('',#527,#528);
#527 = CARTESIAN_POINT('',(101.25,111.5,8.));
#528 = VECTOR('',#529,1.);
#529 = DIRECTION('',(1.,0.,0.));
#530 = ORIENTED_EDGE('',*,*,#531,.T.);
#531 = EDGE_CURVE('',#524,#532,#534,.T.);
#532 = VERTEX_POINT('',#533);
#533 = CARTESIAN_POINT('',(104.5,110.5,8.));
#534 = LINE('',#535,#536);
#535 = CARTESIAN_POINT('',(104.5,132.25,8.));
#536 = VECTOR('',#537,1.);
#537 = DIRECTION('',(0.,-1.,-7.216449660064E-16));
#538 = ORIENTED_EDGE('',*,*,#539,.F.);
#539 = EDGE_CURVE('',#540,#532,#542,.T.);
#540 = VERTEX_POINT('',#541);
#541 = CARTESIAN_POINT('',(106.5,108.5,8.));
#542 = CIRCLE('',#543,2.);
#543 = AXIS2_PLACEMENT_3D('',#544,#545,#546);
#544 = CARTESIAN_POINT('',(106.5,110.5,8.));
#545 = DIRECTION('',(0.,9.416449660064E-16,-1.));
#546 = DIRECTION('',(-1.,1.433E-14,1.349377236287E-29));
#547 = ORIENTED_EDGE('',*,*,#548,.T.);
#548 = EDGE_CURVE('',#540,#549,#551,.T.);
#549 = VERTEX_POINT('',#550);
#550 = CARTESIAN_POINT('',(149.5,108.5,8.));
#551 = LINE('',#552,#553);
#552 = CARTESIAN_POINT('',(117.25,108.5,8.));
#553 = VECTOR('',#554,1.);
#554 = DIRECTION('',(1.,0.,0.));
#555 = ORIENTED_EDGE('',*,*,#556,.F.);
#556 = EDGE_CURVE('',#557,#549,#559,.T.);
#557 = VERTEX_POINT('',#558);
#558 = CARTESIAN_POINT('',(151.5,110.5,8.));
#559 = CIRCLE('',#560,2.);
#560 = AXIS2_PLACEMENT_3D('',#561,#562,#563);
#561 = CARTESIAN_POINT('',(149.5,110.5,8.));
#562 = DIRECTION('',(0.,9.416449660064E-16,-1.));
#563 = DIRECTION('',(-1.421E-14,-1.,-9.416449660064E-16));
#564 = ORIENTED_EDGE('',*,*,#565,.T.);
#565 = EDGE_CURVE('',#557,#566,#568,.T.);
#566 = VERTEX_POINT('',#567);
#567 = CARTESIAN_POINT('',(151.5,111.5,8.));
#568 = LINE('',#569,#570);
#569 = CARTESIAN_POINT('',(151.5,119.25,8.));
#570 = VECTOR('',#571,1.);
#571 = DIRECTION('',(0.,1.,7.216449660064E-16));
#572 = ORIENTED_EDGE('',*,*,#573,.T.);
#573 = EDGE_CURVE('',#566,#574,#576,.T.);
#574 = VERTEX_POINT('',#575);
#575 = CARTESIAN_POINT('',(153.5,111.5,8.));
#576 = LINE('',#577,#578);
#577 = CARTESIAN_POINT('',(101.25,111.5,8.));
#578 = VECTOR('',#579,1.);
#579 = DIRECTION('',(1.,0.,0.));
#580 = ORIENTED_EDGE('',*,*,#581,.T.);
#581 = EDGE_CURVE('',#574,#582,#584,.T.);
#582 = VERTEX_POINT('',#583);
#583 = CARTESIAN_POINT('',(153.5,110.5,8.));
#584 = LINE('',#585,#586);
#585 = CARTESIAN_POINT('',(153.5,132.25,8.));
#586 = VECTOR('',#587,1.);
#587 = DIRECTION('',(0.,-1.,-7.216449660064E-16));
#588 = ORIENTED_EDGE('',*,*,#589,.F.);
#589 = EDGE_CURVE('',#590,#582,#592,.T.);
#590 = VERTEX_POINT('',#591);
#591 = CARTESIAN_POINT('',(155.5,108.5,8.));
#592 = CIRCLE('',#593,2.);
#593 = AXIS2_PLACEMENT_3D('',#594,#595,#596);
#594 = CARTESIAN_POINT('',(155.5,110.5,8.));
#595 = DIRECTION('',(0.,9.416449660064E-16,-1.));
#596 = DIRECTION('',(-1.,1.433E-14,1.349377236287E-29));
#597 = ORIENTED_EDGE('',*,*,#598,.T.);
#598 = EDGE_CURVE('',#590,#599,#601,.T.);
#599 = VERTEX_POINT('',#600);
#600 = CARTESIAN_POINT('',(191.5,108.5,8.));
#601 = LINE('',#602,#603);
#602 = CARTESIAN_POINT('',(141.75,108.5,8.));
#603 = VECTOR('',#604,1.);
#604 = DIRECTION('',(1.,0.,0.));
#605 = ORIENTED_EDGE('',*,*,#606,.F.);
#606 = EDGE_CURVE('',#607,#599,#609,.T.);
#607 = VERTEX_POINT('',#608);
#608 = CARTESIAN_POINT('',(193.5,110.5,8.));
#609 = CIRCLE('',#610,2.);
#610 = AXIS2_PLACEMENT_3D('',#611,#612,#613);
#611 = CARTESIAN_POINT('',(191.5,110.5,8.));
#612 = DIRECTION('',(0.,9.416449660064E-16,-1.));
#613 = DIRECTION('',(-1.421E-14,-1.,-9.416449660064E-16));
#614 = ORIENTED_EDGE('',*,*,#615,.T.);
#615 = EDGE_CURVE('',#607,#616,#618,.T.);
#616 = VERTEX_POINT('',#617);
#617 = CARTESIAN_POINT('',(193.5,136.5,8.));
#618 = LINE('',#619,#620);
#619 = CARTESIAN_POINT('',(193.5,119.25,8.));
#620 = VECTOR('',#621,1.);
#621 = DIRECTION('',(1.09E-15,1.,7.216449660064E-16));
#622 = ORIENTED_EDGE('',*,*,#623,.F.);
#623 = EDGE_CURVE('',#395,#616,#624,.T.);
#624 = CIRCLE('',#625,2.);
#625 = AXIS2_PLACEMENT_3D('',#626,#627,#628);
#626 = CARTESIAN_POINT('',(191.5,136.5,8.));
#627 = DIRECTION('',(0.,9.416449660064E-16,-1.));
#628 = DIRECTION('',(1.,-1.42E-14,-1.337135851729E-29));
#629 = FACE_BOUND('',#630,.F.);
#630 = EDGE_LOOP('',(#631));
#631 = ORIENTED_EDGE('',*,*,#632,.T.);
#632 = EDGE_CURVE('',#633,#633,#635,.T.);
#633 = VERTEX_POINT('',#634);
#634 = CARTESIAN_POINT('',(194.75,146.5,8.));
#635 = CIRCLE('',#636,2.25);
#636 = AXIS2_PLACEMENT_3D('',#637,#638,#639);
#637 = CARTESIAN_POINT('',(192.5,146.5,8.));
#638 = DIRECTION('',(0.,-5.016449660064E-16,1.));
#639 = DIRECTION('',(1.,0.,0.));
#640 = PLANE('',#641);
#641 = AXIS2_PLACEMENT_3D('',#642,#643,#644);
#642 = CARTESIAN_POINT('',(128.,128.,8.));
#643 = DIRECTION('',(0.,7.216449660064E-16,-1.));
#644 = DIRECTION('',(0.,1.,7.216449660064E-16));
#645 = ADVANCED_FACE('',(#646),#657,.F.);
#646 = FACE_BOUND('',#647,.F.);
#647 = EDGE_LOOP('',(#648,#654,#655,#656));
#648 = ORIENTED_EDGE('',*,*,#649,.T.);
#649 = EDGE_CURVE('',#130,#341,#650,.T.);
#650 = LINE('',#651,#652);
#651 = CARTESIAN_POINT('',(193.5,152.5,8.526512829121E-14));
#652 = VECTOR('',#653,1.);
#653 = DIRECTION('',(0.,-5.016449660064E-16,1.));
#654 = ORIENTED_EDGE('',*,*,#340,.T.);
#655 = ORIENTED_EDGE('',*,*,#61,.F.);
#656 = ORIENTED_EDGE('',*,*,#129,.F.);
#657 = PLANE('',#658);
#658 = AXIS2_PLACEMENT_3D('',#659,#660,#661);
#659 = CARTESIAN_POINT('',(193.5,152.5,8.526512829121E-14));
#660 = DIRECTION('',(-1.1E-16,-1.,-5.016449660064E-16));
#661 = DIRECTION('',(-1.,1.1E-16,7.93809462607E-32));
#662 = ADVANCED_FACE('',(#663),#674,.F.);
#663 = FACE_BOUND('',#664,.F.);
#664 = EDGE_LOOP('',(#665,#666,#667,#673));
#665 = ORIENTED_EDGE('',*,*,#104,.T.);
#666 = ORIENTED_EDGE('',*,*,#374,.T.);
#667 = ORIENTED_EDGE('',*,*,#668,.F.);
#668 = EDGE_CURVE('',#155,#366,#669,.T.);
#669 = LINE('',#670,#671);
#670 = CARTESIAN_POINT('',(193.5,103.5,2.84217094304E-14));
#671 = VECTOR('',#672,1.);
#672 = DIRECTION('',(0.,-5.016449660064E-16,1.));
#673 = ORIENTED_EDGE('',*,*,#163,.F.);
#674 = PLANE('',#675);
#675 = AXIS2_PLACEMENT_3D('',#676,#677,#678);
#676 = CARTESIAN_POINT('',(62.5,103.5,2.84217094304E-14));
#677 = DIRECTION('',(0.,1.,5.016449660064E-16));
#678 = DIRECTION('',(1.,0.,0.));
#679 = ADVANCED_FACE('',(#680),#691,.T.);
#680 = FACE_BOUND('',#681,.F.);
#681 = EDGE_LOOP('',(#682,#688,#689,#690));
#682 = ORIENTED_EDGE('',*,*,#683,.T.);
#683 = EDGE_CURVE('',#138,#349,#684,.T.);
#684 = LINE('',#685,#686);
#685 = CARTESIAN_POINT('',(197.5,148.5,5.684341886081E-14));
#686 = VECTOR('',#687,1.);
#687 = DIRECTION('',(0.,-5.016449660064E-16,1.));
#688 = ORIENTED_EDGE('',*,*,#348,.T.);
#689 = ORIENTED_EDGE('',*,*,#649,.F.);
#690 = ORIENTED_EDGE('',*,*,#137,.F.);
#691 = CYLINDRICAL_SURFACE('',#692,4.);
#692 = AXIS2_PLACEMENT_3D('',#693,#694,#695);
#693 = CARTESIAN_POINT('',(193.5,148.5,5.684341886081E-14));
#694 = DIRECTION('',(0.,9.416449660064E-16,-1.));
#695 = DIRECTION('',(1.,3.6E-15,3.389921877623E-30));
#696 = ADVANCED_FACE('',(#697),#708,.T.);
#697 = FACE_BOUND('',#698,.F.);
#698 = EDGE_LOOP('',(#699,#700,#701,#707));
#699 = ORIENTED_EDGE('',*,*,#668,.T.);
#700 = ORIENTED_EDGE('',*,*,#365,.T.);
#701 = ORIENTED_EDGE('',*,*,#702,.F.);
#702 = EDGE_CURVE('',#147,#358,#703,.T.);
#703 = LINE('',#704,#705);
#704 = CARTESIAN_POINT('',(197.5,107.5,2.84217094304E-14));
#705 = VECTOR('',#706,1.);
#706 = DIRECTION('',(0.,-5.016449660064E-16,1.));
#707 = ORIENTED_EDGE('',*,*,#154,.F.);
#708 = CYLINDRICAL_SURFACE('',#709,4.);
#709 = AXIS2_PLACEMENT_3D('',#710,#711,#712);
#710 = CARTESIAN_POINT('',(193.5,107.5,2.84217094304E-14));
#711 = DIRECTION('',(0.,9.416449660064E-16,-1.));
#712 = DIRECTION('',(1.1E-16,-1.,-9.416449660064E-16));
#713 = ADVANCED_FACE('',(#714),#720,.F.);
#714 = FACE_BOUND('',#715,.F.);
#715 = EDGE_LOOP('',(#716,#717,#718,#719));
#716 = ORIENTED_EDGE('',*,*,#702,.T.);
#717 = ORIENTED_EDGE('',*,*,#357,.T.);
#718 = ORIENTED_EDGE('',*,*,#683,.F.);
#719 = ORIENTED_EDGE('',*,*,#146,.F.);
#720 = PLANE('',#721);
#721 = AXIS2_PLACEMENT_3D('',#722,#723,#724);
#722 = CARTESIAN_POINT('',(197.5,107.5,2.84217094304E-14));
#723 = DIRECTION('',(-1.,-6.9E-16,-4.979350265444E-31));
#724 = DIRECTION('',(-6.9E-16,1.,9.416449660064E-16));
#725 = ADVANCED_FACE('',(#726),#743,.F.);
#726 = FACE_BOUND('',#727,.F.);
#727 = EDGE_LOOP('',(#728,#736,#737));
#728 = ORIENTED_EDGE('',*,*,#729,.T.);
#729 = EDGE_CURVE('',#730,#175,#732,.T.);
#730 = VERTEX_POINT('',#731);
#731 = CARTESIAN_POINT('',(167.5,118.5,1.4));
#732 = LINE('',#733,#734);
#733 = CARTESIAN_POINT('',(167.5,118.5,1.4));
#734 = VECTOR('',#735,1.);
#735 = DIRECTION('',(0.,-0.707106781187,-0.707106781187));
#736 = ORIENTED_EDGE('',*,*,#172,.F.);
#737 = ORIENTED_EDGE('',*,*,#738,.T.);
#738 = EDGE_CURVE('',#173,#730,#739,.T.);
#739 = LINE('',#740,#741);
#740 = CARTESIAN_POINT('',(167.5,120.,-9.999999999991E-02));
#741 = VECTOR('',#742,1.);
#742 = DIRECTION('',(0.,-0.707106781187,0.707106781187));
#743 = PLANE('',#744);
#744 = AXIS2_PLACEMENT_3D('',#745,#746,#747);
#745 = CARTESIAN_POINT('',(167.5,118.5,0.33933982822));
#746 = DIRECTION('',(1.,0.,0.));
#747 = DIRECTION('',(0.,1.,7.216449660064E-16));
#748 = ADVANCED_FACE('',(#749),#767,.T.);
#749 = FACE_BOUND('',#750,.T.);
#750 = EDGE_LOOP('',(#751,#759,#760,#761));
#751 = ORIENTED_EDGE('',*,*,#752,.F.);
#752 = EDGE_CURVE('',#183,#753,#755,.T.);
#753 = VERTEX_POINT('',#754);
#754 = CARTESIAN_POINT('',(87.5,118.5,1.4));
#755 = LINE('',#756,#757);
#756 = CARTESIAN_POINT('',(87.5,120.,-9.999999999991E-02));
#757 = VECTOR('',#758,1.);
#758 = DIRECTION('',(0.,-0.707106781187,0.707106781187));
#759 = ORIENTED_EDGE('',*,*,#182,.F.);
#760 = ORIENTED_EDGE('',*,*,#738,.T.);
#761 = ORIENTED_EDGE('',*,*,#762,.F.);
#762 = EDGE_CURVE('',#753,#730,#763,.T.);
#763 = LINE('',#764,#765);
#764 = CARTESIAN_POINT('',(87.5,118.5,1.4));
#765 = VECTOR('',#766,1.);
#766 = DIRECTION('',(1.,0.,0.));
#767 = PLANE('',#768);
#768 = AXIS2_PLACEMENT_3D('',#769,#770,#771);
#769 = CARTESIAN_POINT('',(87.5,120.,-9.999999999997E-02));
#770 = DIRECTION('',(0.,-0.707106781187,-0.707106781187));
#771 = DIRECTION('',(1.6E-16,-0.707106781187,0.707106781187));
#772 = ADVANCED_FACE('',(#773),#784,.T.);
#773 = FACE_BOUND('',#774,.T.);
#774 = EDGE_LOOP('',(#775,#781,#782,#783));
#775 = ORIENTED_EDGE('',*,*,#776,.F.);
#776 = EDGE_CURVE('',#753,#191,#777,.T.);
#777 = LINE('',#778,#779);
#778 = CARTESIAN_POINT('',(87.5,118.5,1.4));
#779 = VECTOR('',#780,1.);
#780 = DIRECTION('',(0.,-0.707106781187,-0.707106781187));
#781 = ORIENTED_EDGE('',*,*,#762,.T.);
#782 = ORIENTED_EDGE('',*,*,#729,.T.);
#783 = ORIENTED_EDGE('',*,*,#198,.F.);
#784 = PLANE('',#785);
#785 = AXIS2_PLACEMENT_3D('',#786,#787,#788);
#786 = CARTESIAN_POINT('',(87.5,118.5,1.4));
#787 = DIRECTION('',(0.,0.707106781187,-0.707106781187));
#788 = DIRECTION('',(-4.7E-16,-0.707106781187,-0.707106781187));
#789 = ADVANCED_FACE('',(#790),#795,.T.);
#790 = FACE_BOUND('',#791,.T.);
#791 = EDGE_LOOP('',(#792,#793,#794));
#792 = ORIENTED_EDGE('',*,*,#776,.T.);
#793 = ORIENTED_EDGE('',*,*,#190,.F.);
#794 = ORIENTED_EDGE('',*,*,#752,.T.);
#795 = PLANE('',#796);
#796 = AXIS2_PLACEMENT_3D('',#797,#798,#799);
#797 = CARTESIAN_POINT('',(87.5,118.5,0.33933982822));
#798 = DIRECTION('',(1.,0.,0.));
#799 = DIRECTION('',(0.,1.,7.216449660064E-16));
#800 = ADVANCED_FACE('',(#801),#818,.F.);
#801 = FACE_BOUND('',#802,.F.);
#802 = EDGE_LOOP('',(#803,#811,#812));
#803 = ORIENTED_EDGE('',*,*,#804,.T.);
#804 = EDGE_CURVE('',#805,#209,#807,.T.);
#805 = VERTEX_POINT('',#806);
#806 = CARTESIAN_POINT('',(167.5,124.5,1.4));
#807 = LINE('',#808,#809);
#808 = CARTESIAN_POINT('',(167.5,124.5,1.4));
#809 = VECTOR('',#810,1.);
#810 = DIRECTION('',(0.,-0.707106781187,-0.707106781187));
#811 = ORIENTED_EDGE('',*,*,#206,.F.);
#812 = ORIENTED_EDGE('',*,*,#813,.T.);
#813 = EDGE_CURVE('',#207,#805,#814,.T.);
#814 = LINE('',#815,#816);
#815 = CARTESIAN_POINT('',(167.5,126.,-9.999999999991E-02));
#816 = VECTOR('',#817,1.);
#817 = DIRECTION('',(0.,-0.707106781187,0.707106781187));
#818 = PLANE('',#819);
#819 = AXIS2_PLACEMENT_3D('',#820,#821,#822);
#820 = CARTESIAN_POINT('',(167.5,124.5,0.33933982822));
#821 = DIRECTION('',(1.,0.,0.));
#822 = DIRECTION('',(0.,1.,7.216449660064E-16));
#823 = ADVANCED_FACE('',(#824),#842,.T.);
#824 = FACE_BOUND('',#825,.T.);
#825 = EDGE_LOOP('',(#826,#834,#835,#836));
#826 = ORIENTED_EDGE('',*,*,#827,.F.);
#827 = EDGE_CURVE('',#217,#828,#830,.T.);
#828 = VERTEX_POINT('',#829);
#829 = CARTESIAN_POINT('',(87.5,124.5,1.4));
#830 = LINE('',#831,#832);
#831 = CARTESIAN_POINT('',(87.5,126.,-9.999999999991E-02));
#832 = VECTOR('',#833,1.);
#833 = DIRECTION('',(0.,-0.707106781187,0.707106781187));
#834 = ORIENTED_EDGE('',*,*,#216,.F.);
#835 = ORIENTED_EDGE('',*,*,#813,.T.);
#836 = ORIENTED_EDGE('',*,*,#837,.F.);
#837 = EDGE_CURVE('',#828,#805,#838,.T.);
#838 = LINE('',#839,#840);
#839 = CARTESIAN_POINT('',(87.5,124.5,1.4));
#840 = VECTOR('',#841,1.);
#841 = DIRECTION('',(1.,0.,0.));
#842 = PLANE('',#843);
#843 = AXIS2_PLACEMENT_3D('',#844,#845,#846);
#844 = CARTESIAN_POINT('',(87.5,126.,-9.999999999997E-02));
#845 = DIRECTION('',(0.,-0.707106781187,-0.707106781187));
#846 = DIRECTION('',(1.6E-16,-0.707106781187,0.707106781187));
#847 = ADVANCED_FACE('',(#848),#859,.T.);
#848 = FACE_BOUND('',#849,.T.);
#849 = EDGE_LOOP('',(#850,#856,#857,#858));
#850 = ORIENTED_EDGE('',*,*,#851,.F.);
#851 = EDGE_CURVE('',#828,#225,#852,.T.);
#852 = LINE('',#853,#854);
#853 = CARTESIAN_POINT('',(87.5,124.5,1.4));
#854 = VECTOR('',#855,1.);
#855 = DIRECTION('',(0.,-0.707106781187,-0.707106781187));
#856 = ORIENTED_EDGE('',*,*,#837,.T.);
#857 = ORIENTED_EDGE('',*,*,#804,.T.);
#858 = ORIENTED_EDGE('',*,*,#232,.F.);
#859 = PLANE('',#860);
#860 = AXIS2_PLACEMENT_3D('',#861,#862,#863);
#861 = CARTESIAN_POINT('',(87.5,124.5,1.4));
#862 = DIRECTION('',(0.,0.707106781187,-0.707106781187));
#863 = DIRECTION('',(-4.7E-16,-0.707106781187,-0.707106781187));
#864 = ADVANCED_FACE('',(#865),#870,.T.);
#865 = FACE_BOUND('',#866,.T.);
#866 = EDGE_LOOP('',(#867,#868,#869));
#867 = ORIENTED_EDGE('',*,*,#851,.T.);
#868 = ORIENTED_EDGE('',*,*,#224,.F.);
#869 = ORIENTED_EDGE('',*,*,#827,.T.);
#870 = PLANE('',#871);
#871 = AXIS2_PLACEMENT_3D('',#872,#873,#874);
#872 = CARTESIAN_POINT('',(87.5,124.5,0.33933982822));
#873 = DIRECTION('',(1.,0.,0.));
#874 = DIRECTION('',(0.,1.,7.216449660064E-16));
#875 = ADVANCED_FACE('',(#876),#887,.F.);
#876 = FACE_BOUND('',#877,.T.);
#877 = EDGE_LOOP('',(#878,#879,#885,#886));
#878 = ORIENTED_EDGE('',*,*,#383,.T.);
#879 = ORIENTED_EDGE('',*,*,#880,.T.);
#880 = EDGE_CURVE('',#384,#241,#881,.T.);
#881 = LINE('',#882,#883);
#882 = CARTESIAN_POINT('',(64.75,146.5,9.));
#883 = VECTOR('',#884,1.);
#884 = DIRECTION('',(0.,9.416449660064E-16,-1.));
#885 = ORIENTED_EDGE('',*,*,#240,.F.);
#886 = ORIENTED_EDGE('',*,*,#880,.F.);
#887 = CYLINDRICAL_SURFACE('',#888,2.25);
#888 = AXIS2_PLACEMENT_3D('',#889,#890,#891);
#889 = CARTESIAN_POINT('',(62.5,146.5,9.));
#890 = DIRECTION('',(0.,-5.016449660064E-16,1.));
#891 = DIRECTION('',(1.,0.,0.));
#892 = ADVANCED_FACE('',(#893),#919,.F.);
#893 = FACE_BOUND('',#894,.T.);
#894 = EDGE_LOOP('',(#895,#903,#904,#912));
#895 = ORIENTED_EDGE('',*,*,#896,.F.);
#896 = EDGE_CURVE('',#252,#897,#899,.T.);
#897 = VERTEX_POINT('',#898);
#898 = CARTESIAN_POINT('',(174.5,141.5,2.4));
#899 = LINE('',#900,#901);
#900 = CARTESIAN_POINT('',(174.5,141.5,-1.));
#901 = VECTOR('',#902,1.);
#902 = DIRECTION('',(0.,-5.016449660064E-16,1.));
#903 = ORIENTED_EDGE('',*,*,#251,.T.);
#904 = ORIENTED_EDGE('',*,*,#905,.T.);
#905 = EDGE_CURVE('',#254,#906,#908,.T.);
#906 = VERTEX_POINT('',#907);
#907 = CARTESIAN_POINT('',(176.5,143.5,2.4));
#908 = LINE('',#909,#910);
#909 = CARTESIAN_POINT('',(176.5,143.5,-1.));
#910 = VECTOR('',#911,1.);
#911 = DIRECTION('',(0.,-5.016449660064E-16,1.));
#912 = ORIENTED_EDGE('',*,*,#913,.F.);
#913 = EDGE_CURVE('',#897,#906,#914,.T.);
#914 = CIRCLE('',#915,2.);
#915 = AXIS2_PLACEMENT_3D('',#916,#917,#918);
#916 = CARTESIAN_POINT('',(176.5,141.5,2.4));
#917 = DIRECTION('',(2.189528850508E-47,9.416449660064E-16,-1.));
#918 = DIRECTION('',(1.1E-16,1.,9.416449660064E-16));
#919 = CYLINDRICAL_SURFACE('',#920,2.);
#920 = AXIS2_PLACEMENT_3D('',#921,#922,#923);
#921 = CARTESIAN_POINT('',(176.5,141.5,-1.));
#922 = DIRECTION('',(0.,9.416449660064E-16,-1.));
#923 = DIRECTION('',(1.1E-16,1.,9.416449660064E-16));
#924 = ADVANCED_FACE('',(#925),#943,.T.);
#925 = FACE_BOUND('',#926,.T.);
#926 = EDGE_LOOP('',(#927,#928,#929,#937));
#927 = ORIENTED_EDGE('',*,*,#262,.F.);
#928 = ORIENTED_EDGE('',*,*,#896,.T.);
#929 = ORIENTED_EDGE('',*,*,#930,.F.);
#930 = EDGE_CURVE('',#931,#897,#933,.T.);
#931 = VERTEX_POINT('',#932);
#932 = CARTESIAN_POINT('',(174.5,136.5,2.4));
#933 = LINE('',#934,#935);
#934 = CARTESIAN_POINT('',(174.5,143.,2.4));
#935 = VECTOR('',#936,1.);
#936 = DIRECTION('',(0.,1.,7.216449660064E-16));
#937 = ORIENTED_EDGE('',*,*,#938,.F.);
#938 = EDGE_CURVE('',#263,#931,#939,.T.);
#939 = LINE('',#940,#941);
#940 = CARTESIAN_POINT('',(174.5,136.5,-1.));
#941 = VECTOR('',#942,1.);
#942 = DIRECTION('',(0.,-5.016449660064E-16,1.));
#943 = PLANE('',#944);
#944 = AXIS2_PLACEMENT_3D('',#945,#946,#947);
#945 = CARTESIAN_POINT('',(174.5,141.5,-1.));
#946 = DIRECTION('',(1.,0.,0.));
#947 = DIRECTION('',(0.,-1.,-9.416449660064E-16));
#948 = ADVANCED_FACE('',(#949),#967,.T.);
#949 = FACE_BOUND('',#950,.T.);
#950 = EDGE_LOOP('',(#951,#952,#960,#966));
#951 = ORIENTED_EDGE('',*,*,#313,.F.);
#952 = ORIENTED_EDGE('',*,*,#953,.T.);
#953 = EDGE_CURVE('',#305,#954,#956,.T.);
#954 = VERTEX_POINT('',#955);
#955 = CARTESIAN_POINT('',(182.5,143.5,2.4));
#956 = LINE('',#957,#958);
#957 = CARTESIAN_POINT('',(182.5,143.5,-1.));
#958 = VECTOR('',#959,1.);
#959 = DIRECTION('',(0.,-5.016449660064E-16,1.));
#960 = ORIENTED_EDGE('',*,*,#961,.F.);
#961 = EDGE_CURVE('',#906,#954,#962,.T.);
#962 = LINE('',#963,#964);
#963 = CARTESIAN_POINT('',(155.25,143.5,2.4));
#964 = VECTOR('',#965,1.);
#965 = DIRECTION('',(1.,2.37E-15,1.710298569435E-30));
#966 = ORIENTED_EDGE('',*,*,#905,.F.);
#967 = PLANE('',#968);
#968 = AXIS2_PLACEMENT_3D('',#969,#970,#971);
#969 = CARTESIAN_POINT('',(182.5,143.5,-1.));
#970 = DIRECTION('',(2.37E-15,-1.,-5.016449660064E-16));
#971 = DIRECTION('',(-1.,-2.37E-15,-1.710298569435E-30));
#972 = ADVANCED_FACE('',(#973),#992,.F.);
#973 = FACE_BOUND('',#974,.T.);
#974 = EDGE_LOOP('',(#975,#983,#984,#985));
#975 = ORIENTED_EDGE('',*,*,#976,.F.);
#976 = EDGE_CURVE('',#271,#977,#979,.T.);
#977 = VERTEX_POINT('',#978);
#978 = CARTESIAN_POINT('',(176.5,134.5,2.4));
#979 = LINE('',#980,#981);
#980 = CARTESIAN_POINT('',(176.5,134.5,-1.));
#981 = VECTOR('',#982,1.);
#982 = DIRECTION('',(0.,-5.016449660064E-16,1.));
#983 = ORIENTED_EDGE('',*,*,#270,.T.);
#984 = ORIENTED_EDGE('',*,*,#938,.T.);
#985 = ORIENTED_EDGE('',*,*,#986,.F.);
#986 = EDGE_CURVE('',#977,#931,#987,.T.);
#987 = CIRCLE('',#988,2.);
#988 = AXIS2_PLACEMENT_3D('',#989,#990,#991);
#989 = CARTESIAN_POINT('',(176.5,136.5,2.4));
#990 = DIRECTION('',(0.,9.416449660064E-16,-1.));
#991 = DIRECTION('',(-1.,-1.2E-16,-1.129973959208E-31));
#992 = CYLINDRICAL_SURFACE('',#993,2.);
#993 = AXIS2_PLACEMENT_3D('',#994,#995,#996);
#994 = CARTESIAN_POINT('',(176.5,136.5,-1.));
#995 = DIRECTION('',(0.,9.416449660064E-16,-1.));
#996 = DIRECTION('',(-1.,-1.2E-16,-1.129973959208E-31));
#997 = ADVANCED_FACE('',(#998),#1017,.F.);
#998 = FACE_BOUND('',#999,.T.);
#999 = EDGE_LOOP('',(#1000,#1001,#1002,#1010));
#1000 = ORIENTED_EDGE('',*,*,#953,.F.);
#1001 = ORIENTED_EDGE('',*,*,#304,.T.);
#1002 = ORIENTED_EDGE('',*,*,#1003,.T.);
#1003 = EDGE_CURVE('',#297,#1004,#1006,.T.);
#1004 = VERTEX_POINT('',#1005);
#1005 = CARTESIAN_POINT('',(184.5,141.5,2.4));
#1006 = LINE('',#1007,#1008);
#1007 = CARTESIAN_POINT('',(184.5,141.5,-1.));
#1008 = VECTOR('',#1009,1.);
#1009 = DIRECTION('',(0.,-5.016449660064E-16,1.));
#1010 = ORIENTED_EDGE('',*,*,#1011,.F.);
#1011 = EDGE_CURVE('',#954,#1004,#1012,.T.);
#1012 = CIRCLE('',#1013,2.);
#1013 = AXIS2_PLACEMENT_3D('',#1014,#1015,#1016);
#1014 = CARTESIAN_POINT('',(182.5,141.5,2.4));
#1015 = DIRECTION('',(0.,9.416449660064E-16,-1.));
#1016 = DIRECTION('',(1.,0.,0.));
#1017 = CYLINDRICAL_SURFACE('',#1018,2.);
#1018 = AXIS2_PLACEMENT_3D('',#1019,#1020,#1021);
#1019 = CARTESIAN_POINT('',(182.5,141.5,-1.));
#1020 = DIRECTION('',(0.,9.416449660064E-16,-1.));
#1021 = DIRECTION('',(1.,0.,0.));
#1022 = ADVANCED_FACE('',(#1023),#1041,.T.);
#1023 = FACE_BOUND('',#1024,.T.);
#1024 = EDGE_LOOP('',(#1025,#1026,#1027,#1035));
#1025 = ORIENTED_EDGE('',*,*,#279,.F.);
#1026 = ORIENTED_EDGE('',*,*,#976,.T.);
#1027 = ORIENTED_EDGE('',*,*,#1028,.F.);
#1028 = EDGE_CURVE('',#1029,#977,#1031,.T.);
#1029 = VERTEX_POINT('',#1030);
#1030 = CARTESIAN_POINT('',(182.5,134.5,2.4));
#1031 = LINE('',#1032,#1033);
#1032 = CARTESIAN_POINT('',(175.,134.5,2.4));
#1033 = VECTOR('',#1034,1.);
#1034 = DIRECTION('',(-1.,0.,0.));
#1035 = ORIENTED_EDGE('',*,*,#1036,.F.);
#1036 = EDGE_CURVE('',#280,#1029,#1037,.T.);
#1037 = LINE('',#1038,#1039);
#1038 = CARTESIAN_POINT('',(182.5,134.5,-1.));
#1039 = VECTOR('',#1040,1.);
#1040 = DIRECTION('',(0.,-5.016449660064E-16,1.));
#1041 = PLANE('',#1042);
#1042 = AXIS2_PLACEMENT_3D('',#1043,#1044,#1045);
#1043 = CARTESIAN_POINT('',(176.5,134.5,-1.));
#1044 = DIRECTION('',(0.,1.,5.016449660064E-16));
#1045 = DIRECTION('',(1.,0.,0.));
#1046 = ADVANCED_FACE('',(#1047),#1073,.T.);
#1047 = FACE_BOUND('',#1048,.T.);
#1048 = EDGE_LOOP('',(#1049,#1050,#1058,#1066,#1072));
#1049 = ORIENTED_EDGE('',*,*,#296,.F.);
#1050 = ORIENTED_EDGE('',*,*,#1051,.T.);
#1051 = EDGE_CURVE('',#288,#1052,#1054,.T.);
#1052 = VERTEX_POINT('',#1053);
#1053 = CARTESIAN_POINT('',(184.5,136.5,2.4));
#1054 = LINE('',#1055,#1056);
#1055 = CARTESIAN_POINT('',(184.5,136.5,-1.));
#1056 = VECTOR('',#1057,1.);
#1057 = DIRECTION('',(0.,-5.016449660064E-16,1.));
#1058 = ORIENTED_EDGE('',*,*,#1059,.F.);
#1059 = EDGE_CURVE('',#1060,#1052,#1062,.T.);
#1060 = VERTEX_POINT('',#1061);
#1061 = CARTESIAN_POINT('',(184.5,138.5,2.4));
#1062 = LINE('',#1063,#1064);
#1063 = CARTESIAN_POINT('',(184.5,130.,2.4));
#1064 = VECTOR('',#1065,1.);
#1065 = DIRECTION('',(2.84E-15,-1.,-7.216449660064E-16));
#1066 = ORIENTED_EDGE('',*,*,#1067,.F.);
#1067 = EDGE_CURVE('',#1004,#1060,#1068,.T.);
#1068 = LINE('',#1069,#1070);
#1069 = CARTESIAN_POINT('',(184.5,140.5,2.4));
#1070 = VECTOR('',#1071,1.);
#1071 = DIRECTION('',(2.84E-15,-1.,-7.216449660064E-16));
#1072 = ORIENTED_EDGE('',*,*,#1003,.F.);
#1073 = PLANE('',#1074);
#1074 = AXIS2_PLACEMENT_3D('',#1075,#1076,#1077);
#1075 = CARTESIAN_POINT('',(184.5,136.5,-1.));
#1076 = DIRECTION('',(-1.,-2.84E-15,-2.049471703458E-30));
#1077 = DIRECTION('',(-2.84E-15,1.,9.416449660064E-16));
#1078 = ADVANCED_FACE('',(#1079),#1091,.F.);
#1079 = FACE_BOUND('',#1080,.T.);
#1080 = EDGE_LOOP('',(#1081,#1082,#1083,#1084));
#1081 = ORIENTED_EDGE('',*,*,#1051,.F.);
#1082 = ORIENTED_EDGE('',*,*,#287,.T.);
#1083 = ORIENTED_EDGE('',*,*,#1036,.T.);
#1084 = ORIENTED_EDGE('',*,*,#1085,.F.);
#1085 = EDGE_CURVE('',#1052,#1029,#1086,.T.);
#1086 = CIRCLE('',#1087,2.);
#1087 = AXIS2_PLACEMENT_3D('',#1088,#1089,#1090);
#1088 = CARTESIAN_POINT('',(182.5,136.5,2.4));
#1089 = DIRECTION('',(-2.189528850508E-47,9.416449660064E-16,-1.));
#1090 = DIRECTION('',(1.1E-16,-1.,-9.416449660064E-16));
#1091 = CYLINDRICAL_SURFACE('',#1092,2.);
#1092 = AXIS2_PLACEMENT_3D('',#1093,#1094,#1095);
#1093 = CARTESIAN_POINT('',(182.5,136.5,-1.));
#1094 = DIRECTION('',(0.,9.416449660064E-16,-1.));
#1095 = DIRECTION('',(1.1E-16,-1.,-9.416449660064E-16));
#1096 = ADVANCED_FACE('',(#1097),#1108,.F.);
#1097 = FACE_BOUND('',#1098,.T.);
#1098 = EDGE_LOOP('',(#1099,#1100,#1106,#1107));
#1099 = ORIENTED_EDGE('',*,*,#632,.T.);
#1100 = ORIENTED_EDGE('',*,*,#1101,.T.);
#1101 = EDGE_CURVE('',#633,#322,#1102,.T.);
#1102 = LINE('',#1103,#1104);
#1103 = CARTESIAN_POINT('',(194.75,146.5,9.));
#1104 = VECTOR('',#1105,1.);
#1105 = DIRECTION('',(0.,9.416449660064E-16,-1.));
#1106 = ORIENTED_EDGE('',*,*,#321,.F.);
#1107 = ORIENTED_EDGE('',*,*,#1101,.F.);
#1108 = CYLINDRICAL_SURFACE('',#1109,2.25);
#1109 = AXIS2_PLACEMENT_3D('',#1110,#1111,#1112);
#1110 = CARTESIAN_POINT('',(192.5,146.5,9.));
#1111 = DIRECTION('',(0.,-5.016449660064E-16,1.));
#1112 = DIRECTION('',(1.,0.,0.));
#1113 = ADVANCED_FACE('',(#1114),#1137,.T.);
#1114 = FACE_BOUND('',#1115,.T.);
#1115 = EDGE_LOOP('',(#1116,#1124,#1130,#1131));
#1116 = ORIENTED_EDGE('',*,*,#1117,.F.);
#1117 = EDGE_CURVE('',#1118,#1060,#1120,.T.);
#1118 = VERTEX_POINT('',#1119);
#1119 = CARTESIAN_POINT('',(191.5,138.5,2.4));
#1120 = LINE('',#1121,#1122);
#1121 = CARTESIAN_POINT('',(191.5,138.5,2.4));
#1122 = VECTOR('',#1123,1.);
#1123 = DIRECTION('',(-1.,-3.9E-16,-2.814415367425E-31));
#1124 = ORIENTED_EDGE('',*,*,#1125,.T.);
#1125 = EDGE_CURVE('',#1118,#395,#1126,.T.);
#1126 = LINE('',#1127,#1128);
#1127 = CARTESIAN_POINT('',(191.5,138.5,2.4));
#1128 = VECTOR('',#1129,1.);
#1129 = DIRECTION('',(0.,-5.016449660064E-16,1.));
#1130 = ORIENTED_EDGE('',*,*,#394,.T.);
#1131 = ORIENTED_EDGE('',*,*,#1132,.F.);
#1132 = EDGE_CURVE('',#1060,#397,#1133,.T.);
#1133 = LINE('',#1134,#1135);
#1134 = CARTESIAN_POINT('',(184.5,138.5,0.7));
#1135 = VECTOR('',#1136,1.);
#1136 = DIRECTION('',(0.,-5.016449660064E-16,1.));
#1137 = PLANE('',#1138);
#1138 = AXIS2_PLACEMENT_3D('',#1139,#1140,#1141);
#1139 = CARTESIAN_POINT('',(191.5,138.5,2.4));
#1140 = DIRECTION('',(3.9E-16,-1.,-5.016449660064E-16));
#1141 = DIRECTION('',(-1.,-3.9E-16,-2.814415367425E-31));
#1142 = ADVANCED_FACE('',(#1143),#1162,.F.);
#1143 = FACE_BOUND('',#1144,.T.);
#1144 = EDGE_LOOP('',(#1145,#1154,#1160,#1161));
#1145 = ORIENTED_EDGE('',*,*,#1146,.F.);
#1146 = EDGE_CURVE('',#1147,#1118,#1149,.T.);
#1147 = VERTEX_POINT('',#1148);
#1148 = CARTESIAN_POINT('',(193.5,136.5,2.4));
#1149 = CIRCLE('',#1150,2.);
#1150 = AXIS2_PLACEMENT_3D('',#1151,#1152,#1153);
#1151 = CARTESIAN_POINT('',(191.5,136.5,2.4));
#1152 = DIRECTION('',(0.,-7.216449660064E-16,1.));
#1153 = DIRECTION('',(1.,-1.42E-14,-1.024735851729E-29));
#1154 = ORIENTED_EDGE('',*,*,#1155,.T.);
#1155 = EDGE_CURVE('',#1147,#616,#1156,.T.);
#1156 = LINE('',#1157,#1158);
#1157 = CARTESIAN_POINT('',(193.5,136.5,2.4));
#1158 = VECTOR('',#1159,1.);
#1159 = DIRECTION('',(0.,-5.016449660064E-16,1.));
#1160 = ORIENTED_EDGE('',*,*,#623,.F.);
#1161 = ORIENTED_EDGE('',*,*,#1125,.F.);
#1162 = CYLINDRICAL_SURFACE('',#1163,2.);
#1163 = AXIS2_PLACEMENT_3D('',#1164,#1165,#1166);
#1164 = CARTESIAN_POINT('',(191.5,136.5,2.4));
#1165 = DIRECTION('',(0.,9.416449660064E-16,-1.));
#1166 = DIRECTION('',(1.,-1.42E-14,-1.337135851729E-29));
#1167 = ADVANCED_FACE('',(#1168),#1186,.T.);
#1168 = FACE_BOUND('',#1169,.T.);
#1169 = EDGE_LOOP('',(#1170,#1178,#1184,#1185));
#1170 = ORIENTED_EDGE('',*,*,#1171,.F.);
#1171 = EDGE_CURVE('',#1172,#1147,#1174,.T.);
#1172 = VERTEX_POINT('',#1173);
#1173 = CARTESIAN_POINT('',(193.5,110.5,2.4));
#1174 = LINE('',#1175,#1176);
#1175 = CARTESIAN_POINT('',(193.5,110.5,2.4));
#1176 = VECTOR('',#1177,1.);
#1177 = DIRECTION('',(1.09E-15,1.,7.216449660064E-16));
#1178 = ORIENTED_EDGE('',*,*,#1179,.T.);
#1179 = EDGE_CURVE('',#1172,#607,#1180,.T.);
#1180 = LINE('',#1181,#1182);
#1181 = CARTESIAN_POINT('',(193.5,110.5,2.4));
#1182 = VECTOR('',#1183,1.);
#1183 = DIRECTION('',(0.,-5.016449660064E-16,1.));
#1184 = ORIENTED_EDGE('',*,*,#615,.T.);
#1185 = ORIENTED_EDGE('',*,*,#1155,.F.);
#1186 = PLANE('',#1187);
#1187 = AXIS2_PLACEMENT_3D('',#1188,#1189,#1190);
#1188 = CARTESIAN_POINT('',(193.5,110.5,2.4));
#1189 = DIRECTION('',(-1.,1.09E-15,7.865930129469E-31));
#1190 = DIRECTION('',(1.09E-15,1.,9.416449660064E-16));
#1191 = ADVANCED_FACE('',(#1192),#1211,.F.);
#1192 = FACE_BOUND('',#1193,.T.);
#1193 = EDGE_LOOP('',(#1194,#1203,#1209,#1210));
#1194 = ORIENTED_EDGE('',*,*,#1195,.F.);
#1195 = EDGE_CURVE('',#1196,#1172,#1198,.T.);
#1196 = VERTEX_POINT('',#1197);
#1197 = CARTESIAN_POINT('',(191.5,108.5,2.4));
#1198 = CIRCLE('',#1199,2.);
#1199 = AXIS2_PLACEMENT_3D('',#1200,#1201,#1202);
#1200 = CARTESIAN_POINT('',(191.5,110.5,2.4));
#1201 = DIRECTION('',(0.,-7.216449660064E-16,1.));
#1202 = DIRECTION('',(-1.421E-14,-1.,-7.216449660064E-16));
#1203 = ORIENTED_EDGE('',*,*,#1204,.T.);
#1204 = EDGE_CURVE('',#1196,#599,#1205,.T.);
#1205 = LINE('',#1206,#1207);
#1206 = CARTESIAN_POINT('',(191.5,108.5,2.4));
#1207 = VECTOR('',#1208,1.);
#1208 = DIRECTION('',(0.,-5.016449660064E-16,1.));
#1209 = ORIENTED_EDGE('',*,*,#606,.F.);
#1210 = ORIENTED_EDGE('',*,*,#1179,.F.);
#1211 = CYLINDRICAL_SURFACE('',#1212,2.);
#1212 = AXIS2_PLACEMENT_3D('',#1213,#1214,#1215);
#1213 = CARTESIAN_POINT('',(191.5,110.5,2.4));
#1214 = DIRECTION('',(0.,9.416449660064E-16,-1.));
#1215 = DIRECTION('',(-1.421E-14,-1.,-9.416449660064E-16));
#1216 = ADVANCED_FACE('',(#1217),#1235,.T.);
#1217 = FACE_BOUND('',#1218,.T.);
#1218 = EDGE_LOOP('',(#1219,#1227,#1233,#1234));
#1219 = ORIENTED_EDGE('',*,*,#1220,.F.);
#1220 = EDGE_CURVE('',#1221,#1196,#1223,.T.);
#1221 = VERTEX_POINT('',#1222);
#1222 = CARTESIAN_POINT('',(155.5,108.5,2.4));
#1223 = LINE('',#1224,#1225);
#1224 = CARTESIAN_POINT('',(155.5,108.5,2.4));
#1225 = VECTOR('',#1226,1.);
#1226 = DIRECTION('',(1.,0.,0.));
#1227 = ORIENTED_EDGE('',*,*,#1228,.T.);
#1228 = EDGE_CURVE('',#1221,#590,#1229,.T.);
#1229 = LINE('',#1230,#1231);
#1230 = CARTESIAN_POINT('',(155.5,108.5,2.4));
#1231 = VECTOR('',#1232,1.);
#1232 = DIRECTION('',(0.,-5.016449660064E-16,1.));
#1233 = ORIENTED_EDGE('',*,*,#598,.T.);
#1234 = ORIENTED_EDGE('',*,*,#1204,.F.);
#1235 = PLANE('',#1236);
#1236 = AXIS2_PLACEMENT_3D('',#1237,#1238,#1239);
#1237 = CARTESIAN_POINT('',(155.5,108.5,2.4));
#1238 = DIRECTION('',(0.,1.,5.016449660064E-16));
#1239 = DIRECTION('',(1.,0.,0.));
#1240 = ADVANCED_FACE('',(#1241),#1260,.F.);
#1241 = FACE_BOUND('',#1242,.T.);
#1242 = EDGE_LOOP('',(#1243,#1252,#1258,#1259));
#1243 = ORIENTED_EDGE('',*,*,#1244,.F.);
#1244 = EDGE_CURVE('',#1245,#1221,#1247,.T.);
#1245 = VERTEX_POINT('',#1246);
#1246 = CARTESIAN_POINT('',(153.5,110.5,2.4));
#1247 = CIRCLE('',#1248,2.);
#1248 = AXIS2_PLACEMENT_3D('',#1249,#1250,#1251);
#1249 = CARTESIAN_POINT('',(155.5,110.5,2.4));
#1250 = DIRECTION('',(0.,-7.216449660064E-16,1.));
#1251 = DIRECTION('',(-1.,1.433E-14,1.034117236287E-29));
#1252 = ORIENTED_EDGE('',*,*,#1253,.T.);
#1253 = EDGE_CURVE('',#1245,#582,#1254,.T.);
#1254 = LINE('',#1255,#1256);
#1255 = CARTESIAN_POINT('',(153.5,110.5,2.4));
#1256 = VECTOR('',#1257,1.);
#1257 = DIRECTION('',(0.,-5.016449660064E-16,1.));
#1258 = ORIENTED_EDGE('',*,*,#589,.F.);
#1259 = ORIENTED_EDGE('',*,*,#1228,.F.);
#1260 = CYLINDRICAL_SURFACE('',#1261,2.);
#1261 = AXIS2_PLACEMENT_3D('',#1262,#1263,#1264);
#1262 = CARTESIAN_POINT('',(155.5,110.5,2.4));
#1263 = DIRECTION('',(0.,9.416449660064E-16,-1.));
#1264 = DIRECTION('',(-1.,1.433E-14,1.349377236287E-29));
#1265 = ADVANCED_FACE('',(#1266),#1300,.T.);
#1266 = FACE_BOUND('',#1267,.T.);
#1267 = EDGE_LOOP('',(#1268,#1276,#1284,#1292,#1298,#1299));
#1268 = ORIENTED_EDGE('',*,*,#1269,.F.);
#1269 = EDGE_CURVE('',#1270,#1245,#1272,.T.);
#1270 = VERTEX_POINT('',#1271);
#1271 = CARTESIAN_POINT('',(153.5,136.5,2.4));
#1272 = LINE('',#1273,#1274);
#1273 = CARTESIAN_POINT('',(153.5,136.5,2.4));
#1274 = VECTOR('',#1275,1.);
#1275 = DIRECTION('',(0.,-1.,-9.416449660064E-16));
#1276 = ORIENTED_EDGE('',*,*,#1277,.T.);
#1277 = EDGE_CURVE('',#1270,#1278,#1280,.T.);
#1278 = VERTEX_POINT('',#1279);
#1279 = CARTESIAN_POINT('',(153.5,136.5,13.));
#1280 = LINE('',#1281,#1282);
#1281 = CARTESIAN_POINT('',(153.5,136.5,2.4));
#1282 = VECTOR('',#1283,1.);
#1283 = DIRECTION('',(0.,-5.016449660064E-16,1.));
#1284 = ORIENTED_EDGE('',*,*,#1285,.T.);
#1285 = EDGE_CURVE('',#1278,#1286,#1288,.T.);
#1286 = VERTEX_POINT('',#1287);
#1287 = CARTESIAN_POINT('',(153.5,111.5,13.));
#1288 = LINE('',#1289,#1290);
#1289 = CARTESIAN_POINT('',(153.5,130.5,13.));
#1290 = VECTOR('',#1291,1.);
#1291 = DIRECTION('',(0.,-1.,-7.216449660064E-16));
#1292 = ORIENTED_EDGE('',*,*,#1293,.T.);
#1293 = EDGE_CURVE('',#1286,#574,#1294,.T.);
#1294 = LINE('',#1295,#1296);
#1295 = CARTESIAN_POINT('',(153.5,111.5,4.7));
#1296 = VECTOR('',#1297,1.);
#1297 = DIRECTION('',(0.,5.016449660064E-16,-1.));
#1298 = ORIENTED_EDGE('',*,*,#581,.T.);
#1299 = ORIENTED_EDGE('',*,*,#1253,.F.);
#1300 = PLANE('',#1301);
#1301 = AXIS2_PLACEMENT_3D('',#1302,#1303,#1304);
#1302 = CARTESIAN_POINT('',(153.5,123.56830601092,7.631693989071));
#1303 = DIRECTION('',(1.,0.,0.));
#1304 = DIRECTION('',(0.,1.,7.216449660064E-16));
#1305 = ADVANCED_FACE('',(#1306),#1324,.F.);
#1306 = FACE_BOUND('',#1307,.F.);
#1307 = EDGE_LOOP('',(#1308,#1309,#1317,#1323));
#1308 = ORIENTED_EDGE('',*,*,#573,.F.);
#1309 = ORIENTED_EDGE('',*,*,#1310,.T.);
#1310 = EDGE_CURVE('',#566,#1311,#1313,.T.);
#1311 = VERTEX_POINT('',#1312);
#1312 = CARTESIAN_POINT('',(151.5,111.5,13.));
#1313 = LINE('',#1314,#1315);
#1314 = CARTESIAN_POINT('',(151.5,111.5,4.7));
#1315 = VECTOR('',#1316,1.);
#1316 = DIRECTION('',(0.,-5.016449660064E-16,1.));
#1317 = ORIENTED_EDGE('',*,*,#1318,.T.);
#1318 = EDGE_CURVE('',#1311,#1286,#1319,.T.);
#1319 = LINE('',#1320,#1321);
#1320 = CARTESIAN_POINT('',(74.5,111.5,13.));
#1321 = VECTOR('',#1322,1.);
#1322 = DIRECTION('',(1.,0.,0.));
#1323 = ORIENTED_EDGE('',*,*,#1293,.T.);
#1324 = PLANE('',#1325);
#1325 = AXIS2_PLACEMENT_3D('',#1326,#1327,#1328);
#1326 = CARTESIAN_POINT('',(74.5,111.5,7.));
#1327 = DIRECTION('',(0.,1.,5.016449660064E-16));
#1328 = DIRECTION('',(1.,0.,0.));
#1329 = ADVANCED_FACE('',(#1330),#1364,.T.);
#1330 = FACE_BOUND('',#1331,.T.);
#1331 = EDGE_LOOP('',(#1332,#1340,#1341,#1342,#1350,#1358));
#1332 = ORIENTED_EDGE('',*,*,#1333,.T.);
#1333 = EDGE_CURVE('',#1334,#557,#1336,.T.);
#1334 = VERTEX_POINT('',#1335);
#1335 = CARTESIAN_POINT('',(151.5,110.5,2.4));
#1336 = LINE('',#1337,#1338);
#1337 = CARTESIAN_POINT('',(151.5,110.5,2.4));
#1338 = VECTOR('',#1339,1.);
#1339 = DIRECTION('',(0.,-5.016449660064E-16,1.));
#1340 = ORIENTED_EDGE('',*,*,#565,.T.);
#1341 = ORIENTED_EDGE('',*,*,#1310,.T.);
#1342 = ORIENTED_EDGE('',*,*,#1343,.T.);
#1343 = EDGE_CURVE('',#1311,#1344,#1346,.T.);
#1344 = VERTEX_POINT('',#1345);
#1345 = CARTESIAN_POINT('',(151.5,136.5,13.));
#1346 = LINE('',#1347,#1348);
#1347 = CARTESIAN_POINT('',(151.5,117.5,13.));
#1348 = VECTOR('',#1349,1.);
#1349 = DIRECTION('',(0.,1.,7.216449660064E-16));
#1350 = ORIENTED_EDGE('',*,*,#1351,.F.);
#1351 = EDGE_CURVE('',#1352,#1344,#1354,.T.);
#1352 = VERTEX_POINT('',#1353);
#1353 = CARTESIAN_POINT('',(151.5,136.5,2.4));
#1354 = LINE('',#1355,#1356);
#1355 = CARTESIAN_POINT('',(151.5,136.5,2.4));
#1356 = VECTOR('',#1357,1.);
#1357 = DIRECTION('',(0.,-5.016449660064E-16,1.));
#1358 = ORIENTED_EDGE('',*,*,#1359,.F.);
#1359 = EDGE_CURVE('',#1334,#1352,#1360,.T.);
#1360 = LINE('',#1361,#1362);
#1361 = CARTESIAN_POINT('',(151.5,110.5,2.4));
#1362 = VECTOR('',#1363,1.);
#1363 = DIRECTION('',(0.,1.,9.416449660064E-16));
#1364 = PLANE('',#1365);
#1365 = AXIS2_PLACEMENT_3D('',#1366,#1367,#1368);
#1366 = CARTESIAN_POINT('',(151.5,123.56830601092,7.631693989071));
#1367 = DIRECTION('',(-1.,-0.,0.));
#1368 = DIRECTION('',(0.,-1.,-7.216449660064E-16));
#1369 = ADVANCED_FACE('',(#1370),#1389,.F.);
#1370 = FACE_BOUND('',#1371,.T.);
#1371 = EDGE_LOOP('',(#1372,#1381,#1387,#1388));
#1372 = ORIENTED_EDGE('',*,*,#1373,.F.);
#1373 = EDGE_CURVE('',#1374,#1334,#1376,.T.);
#1374 = VERTEX_POINT('',#1375);
#1375 = CARTESIAN_POINT('',(149.5,108.5,2.4));
#1376 = CIRCLE('',#1377,2.);
#1377 = AXIS2_PLACEMENT_3D('',#1378,#1379,#1380);
#1378 = CARTESIAN_POINT('',(149.5,110.5,2.4));
#1379 = DIRECTION('',(0.,-7.216449660064E-16,1.));
#1380 = DIRECTION('',(-1.421E-14,-1.,-7.216449660064E-16));
#1381 = ORIENTED_EDGE('',*,*,#1382,.T.);
#1382 = EDGE_CURVE('',#1374,#549,#1383,.T.);
#1383 = LINE('',#1384,#1385);
#1384 = CARTESIAN_POINT('',(149.5,108.5,2.4));
#1385 = VECTOR('',#1386,1.);
#1386 = DIRECTION('',(0.,-5.016449660064E-16,1.));
#1387 = ORIENTED_EDGE('',*,*,#556,.F.);
#1388 = ORIENTED_EDGE('',*,*,#1333,.F.);
#1389 = CYLINDRICAL_SURFACE('',#1390,2.);
#1390 = AXIS2_PLACEMENT_3D('',#1391,#1392,#1393);
#1391 = CARTESIAN_POINT('',(149.5,110.5,2.4));
#1392 = DIRECTION('',(0.,9.416449660064E-16,-1.));
#1393 = DIRECTION('',(-1.421E-14,-1.,-9.416449660064E-16));
#1394 = ADVANCED_FACE('',(#1395),#1413,.T.);
#1395 = FACE_BOUND('',#1396,.T.);
#1396 = EDGE_LOOP('',(#1397,#1405,#1411,#1412));
#1397 = ORIENTED_EDGE('',*,*,#1398,.F.);
#1398 = EDGE_CURVE('',#1399,#1374,#1401,.T.);
#1399 = VERTEX_POINT('',#1400);
#1400 = CARTESIAN_POINT('',(106.5,108.5,2.4));
#1401 = LINE('',#1402,#1403);
#1402 = CARTESIAN_POINT('',(106.5,108.5,2.4));
#1403 = VECTOR('',#1404,1.);
#1404 = DIRECTION('',(1.,0.,0.));
#1405 = ORIENTED_EDGE('',*,*,#1406,.T.);
#1406 = EDGE_CURVE('',#1399,#540,#1407,.T.);
#1407 = LINE('',#1408,#1409);
#1408 = CARTESIAN_POINT('',(106.5,108.5,2.4));
#1409 = VECTOR('',#1410,1.);
#1410 = DIRECTION('',(0.,-5.016449660064E-16,1.));
#1411 = ORIENTED_EDGE('',*,*,#548,.T.);
#1412 = ORIENTED_EDGE('',*,*,#1382,.F.);
#1413 = PLANE('',#1414);
#1414 = AXIS2_PLACEMENT_3D('',#1415,#1416,#1417);
#1415 = CARTESIAN_POINT('',(106.5,108.5,2.4));
#1416 = DIRECTION('',(0.,1.,5.016449660064E-16));
#1417 = DIRECTION('',(1.,0.,0.));
#1418 = ADVANCED_FACE('',(#1419),#1438,.F.);
#1419 = FACE_BOUND('',#1420,.T.);
#1420 = EDGE_LOOP('',(#1421,#1430,#1436,#1437));
#1421 = ORIENTED_EDGE('',*,*,#1422,.F.);
#1422 = EDGE_CURVE('',#1423,#1399,#1425,.T.);
#1423 = VERTEX_POINT('',#1424);
#1424 = CARTESIAN_POINT('',(104.5,110.5,2.4));
#1425 = CIRCLE('',#1426,2.);
#1426 = AXIS2_PLACEMENT_3D('',#1427,#1428,#1429);
#1427 = CARTESIAN_POINT('',(106.5,110.5,2.4));
#1428 = DIRECTION('',(0.,-7.216449660064E-16,1.));
#1429 = DIRECTION('',(-1.,1.433E-14,1.034117236287E-29));
#1430 = ORIENTED_EDGE('',*,*,#1431,.T.);
#1431 = EDGE_CURVE('',#1423,#532,#1432,.T.);
#1432 = LINE('',#1433,#1434);
#1433 = CARTESIAN_POINT('',(104.5,110.5,2.4));
#1434 = VECTOR('',#1435,1.);
#1435 = DIRECTION('',(0.,-5.016449660064E-16,1.));
#1436 = ORIENTED_EDGE('',*,*,#539,.F.);
#1437 = ORIENTED_EDGE('',*,*,#1406,.F.);
#1438 = CYLINDRICAL_SURFACE('',#1439,2.);
#1439 = AXIS2_PLACEMENT_3D('',#1440,#1441,#1442);
#1440 = CARTESIAN_POINT('',(106.5,110.5,2.4));
#1441 = DIRECTION('',(0.,9.416449660064E-16,-1.));
#1442 = DIRECTION('',(-1.,1.433E-14,1.349377236287E-29));
#1443 = ADVANCED_FACE('',(#1444),#1478,.T.);
#1444 = FACE_BOUND('',#1445,.T.);
#1445 = EDGE_LOOP('',(#1446,#1454,#1462,#1470,#1476,#1477));
#1446 = ORIENTED_EDGE('',*,*,#1447,.F.);
#1447 = EDGE_CURVE('',#1448,#1423,#1450,.T.);
#1448 = VERTEX_POINT('',#1449);
#1449 = CARTESIAN_POINT('',(104.5,136.5,2.4));
#1450 = LINE('',#1451,#1452);
#1451 = CARTESIAN_POINT('',(104.5,136.5,2.4));
#1452 = VECTOR('',#1453,1.);
#1453 = DIRECTION('',(0.,-1.,-9.416449660064E-16));
#1454 = ORIENTED_EDGE('',*,*,#1455,.T.);
#1455 = EDGE_CURVE('',#1448,#1456,#1458,.T.);
#1456 = VERTEX_POINT('',#1457);
#1457 = CARTESIAN_POINT('',(104.5,136.5,13.));
#1458 = LINE('',#1459,#1460);
#1459 = CARTESIAN_POINT('',(104.5,136.5,2.4));
#1460 = VECTOR('',#1461,1.);
#1461 = DIRECTION('',(0.,-5.016449660064E-16,1.));
#1462 = ORIENTED_EDGE('',*,*,#1463,.T.);
#1463 = EDGE_CURVE('',#1456,#1464,#1466,.T.);
#1464 = VERTEX_POINT('',#1465);
#1465 = CARTESIAN_POINT('',(104.5,111.5,13.));
#1466 = LINE('',#1467,#1468);
#1467 = CARTESIAN_POINT('',(104.5,130.5,13.));
#1468 = VECTOR('',#1469,1.);
#1469 = DIRECTION('',(0.,-1.,-7.216449660064E-16));
#1470 = ORIENTED_EDGE('',*,*,#1471,.T.);
#1471 = EDGE_CURVE('',#1464,#524,#1472,.T.);
#1472 = LINE('',#1473,#1474);
#1473 = CARTESIAN_POINT('',(104.5,111.5,4.7));
#1474 = VECTOR('',#1475,1.);
#1475 = DIRECTION('',(0.,5.016449660064E-16,-1.));
#1476 = ORIENTED_EDGE('',*,*,#531,.T.);
#1477 = ORIENTED_EDGE('',*,*,#1431,.F.);
#1478 = PLANE('',#1479);
#1479 = AXIS2_PLACEMENT_3D('',#1480,#1481,#1482);
#1480 = CARTESIAN_POINT('',(104.5,123.56830601092,7.631693989071));
#1481 = DIRECTION('',(1.,0.,0.));
#1482 = DIRECTION('',(0.,1.,7.216449660064E-16));
#1483 = ADVANCED_FACE('',(#1484),#1502,.F.);
#1484 = FACE_BOUND('',#1485,.F.);
#1485 = EDGE_LOOP('',(#1486,#1487,#1495,#1501));
#1486 = ORIENTED_EDGE('',*,*,#523,.F.);
#1487 = ORIENTED_EDGE('',*,*,#1488,.T.);
#1488 = EDGE_CURVE('',#516,#1489,#1491,.T.);
#1489 = VERTEX_POINT('',#1490);
#1490 = CARTESIAN_POINT('',(102.5,111.5,13.));
#1491 = LINE('',#1492,#1493);
#1492 = CARTESIAN_POINT('',(102.5,111.5,4.7));
#1493 = VECTOR('',#1494,1.);
#1494 = DIRECTION('',(0.,-5.016449660064E-16,1.));
#1495 = ORIENTED_EDGE('',*,*,#1496,.T.);
#1496 = EDGE_CURVE('',#1489,#1464,#1497,.T.);
#1497 = LINE('',#1498,#1499);
#1498 = CARTESIAN_POINT('',(74.5,111.5,13.));
#1499 = VECTOR('',#1500,1.);
#1500 = DIRECTION('',(1.,0.,0.));
#1501 = ORIENTED_EDGE('',*,*,#1471,.T.);
#1502 = PLANE('',#1503);
#1503 = AXIS2_PLACEMENT_3D('',#1504,#1505,#1506);
#1504 = CARTESIAN_POINT('',(74.5,111.5,7.));
#1505 = DIRECTION('',(0.,1.,5.016449660064E-16));
#1506 = DIRECTION('',(1.,0.,0.));
#1507 = ADVANCED_FACE('',(#1508),#1542,.T.);
#1508 = FACE_BOUND('',#1509,.T.);
#1509 = EDGE_LOOP('',(#1510,#1518,#1519,#1520,#1528,#1536));
#1510 = ORIENTED_EDGE('',*,*,#1511,.T.);
#1511 = EDGE_CURVE('',#1512,#507,#1514,.T.);
#1512 = VERTEX_POINT('',#1513);
#1513 = CARTESIAN_POINT('',(102.5,110.5,2.4));
#1514 = LINE('',#1515,#1516);
#1515 = CARTESIAN_POINT('',(102.5,110.5,2.4));
#1516 = VECTOR('',#1517,1.);
#1517 = DIRECTION('',(0.,-5.016449660064E-16,1.));
#1518 = ORIENTED_EDGE('',*,*,#515,.T.);
#1519 = ORIENTED_EDGE('',*,*,#1488,.T.);
#1520 = ORIENTED_EDGE('',*,*,#1521,.T.);
#1521 = EDGE_CURVE('',#1489,#1522,#1524,.T.);
#1522 = VERTEX_POINT('',#1523);
#1523 = CARTESIAN_POINT('',(102.5,136.5,13.));
#1524 = LINE('',#1525,#1526);
#1525 = CARTESIAN_POINT('',(102.5,117.5,13.));
#1526 = VECTOR('',#1527,1.);
#1527 = DIRECTION('',(5.5E-16,1.,7.216449660064E-16));
#1528 = ORIENTED_EDGE('',*,*,#1529,.F.);
#1529 = EDGE_CURVE('',#1530,#1522,#1532,.T.);
#1530 = VERTEX_POINT('',#1531);
#1531 = CARTESIAN_POINT('',(102.5,136.5,2.4));
#1532 = LINE('',#1533,#1534);
#1533 = CARTESIAN_POINT('',(102.5,136.5,2.4));
#1534 = VECTOR('',#1535,1.);
#1535 = DIRECTION('',(0.,-5.016449660064E-16,1.));
#1536 = ORIENTED_EDGE('',*,*,#1537,.F.);
#1537 = EDGE_CURVE('',#1512,#1530,#1538,.T.);
#1538 = LINE('',#1539,#1540);
#1539 = CARTESIAN_POINT('',(102.5,110.5,2.4));
#1540 = VECTOR('',#1541,1.);
#1541 = DIRECTION('',(5.5E-16,1.,9.416449660064E-16));
#1542 = PLANE('',#1543);
#1543 = AXIS2_PLACEMENT_3D('',#1544,#1545,#1546);
#1544 = CARTESIAN_POINT('',(102.5,123.56830601092,7.631693989071));
#1545 = DIRECTION('',(-1.,6.1E-16,-4.6E-16));
#1546 = DIRECTION('',(-6.1E-16,-1.,-7.216449660064E-16));
#1547 = ADVANCED_FACE('',(#1548),#1567,.F.);
#1548 = FACE_BOUND('',#1549,.T.);
#1549 = EDGE_LOOP('',(#1550,#1559,#1565,#1566));
#1550 = ORIENTED_EDGE('',*,*,#1551,.F.);
#1551 = EDGE_CURVE('',#1552,#1512,#1554,.T.);
#1552 = VERTEX_POINT('',#1553);
#1553 = CARTESIAN_POINT('',(100.5,108.5,2.4));
#1554 = CIRCLE('',#1555,2.);
#1555 = AXIS2_PLACEMENT_3D('',#1556,#1557,#1558);
#1556 = CARTESIAN_POINT('',(100.5,110.5,2.4));
#1557 = DIRECTION('',(0.,-7.216449660064E-16,1.));
#1558 = DIRECTION('',(-7.11E-15,-1.,-7.216449660064E-16));
#1559 = ORIENTED_EDGE('',*,*,#1560,.T.);
#1560 = EDGE_CURVE('',#1552,#499,#1561,.T.);
#1561 = LINE('',#1562,#1563);
#1562 = CARTESIAN_POINT('',(100.5,108.5,2.4));
#1563 = VECTOR('',#1564,1.);
#1564 = DIRECTION('',(0.,-5.016449660064E-16,1.));
#1565 = ORIENTED_EDGE('',*,*,#506,.F.);
#1566 = ORIENTED_EDGE('',*,*,#1511,.F.);
#1567 = CYLINDRICAL_SURFACE('',#1568,2.);
#1568 = AXIS2_PLACEMENT_3D('',#1569,#1570,#1571);
#1569 = CARTESIAN_POINT('',(100.5,110.5,2.4));
#1570 = DIRECTION('',(0.,9.416449660064E-16,-1.));
#1571 = DIRECTION('',(-7.11E-15,-1.,-9.416449660064E-16));
#1572 = ADVANCED_FACE('',(#1573),#1591,.T.);
#1573 = FACE_BOUND('',#1574,.T.);
#1574 = EDGE_LOOP('',(#1575,#1583,#1589,#1590));
#1575 = ORIENTED_EDGE('',*,*,#1576,.F.);
#1576 = EDGE_CURVE('',#1577,#1552,#1579,.T.);
#1577 = VERTEX_POINT('',#1578);
#1578 = CARTESIAN_POINT('',(63.5,108.5,2.4));
#1579 = LINE('',#1580,#1581);
#1580 = CARTESIAN_POINT('',(63.5,108.5,2.4));
#1581 = VECTOR('',#1582,1.);
#1582 = DIRECTION('',(1.,0.,0.));
#1583 = ORIENTED_EDGE('',*,*,#1584,.T.);
#1584 = EDGE_CURVE('',#1577,#490,#1585,.T.);
#1585 = LINE('',#1586,#1587);
#1586 = CARTESIAN_POINT('',(63.5,108.5,2.4));
#1587 = VECTOR('',#1588,1.);
#1588 = DIRECTION('',(0.,-5.016449660064E-16,1.));
#1589 = ORIENTED_EDGE('',*,*,#498,.T.);
#1590 = ORIENTED_EDGE('',*,*,#1560,.F.);
#1591 = PLANE('',#1592);
#1592 = AXIS2_PLACEMENT_3D('',#1593,#1594,#1595);
#1593 = CARTESIAN_POINT('',(63.5,108.5,2.4));
#1594 = DIRECTION('',(0.,1.,5.016449660064E-16));
#1595 = DIRECTION('',(1.,0.,0.));
#1596 = ADVANCED_FACE('',(#1597),#1616,.F.);
#1597 = FACE_BOUND('',#1598,.T.);
#1598 = EDGE_LOOP('',(#1599,#1608,#1614,#1615));
#1599 = ORIENTED_EDGE('',*,*,#1600,.F.);
#1600 = EDGE_CURVE('',#1601,#1577,#1603,.T.);
#1601 = VERTEX_POINT('',#1602);
#1602 = CARTESIAN_POINT('',(61.5,110.5,2.4));
#1603 = CIRCLE('',#1604,2.);
#1604 = AXIS2_PLACEMENT_3D('',#1605,#1606,#1607);
#1605 = CARTESIAN_POINT('',(63.5,110.5,2.4));
#1606 = DIRECTION('',(0.,-7.216449660064E-16,1.));
#1607 = DIRECTION('',(-1.,1.433E-14,1.034117236287E-29));
#1608 = ORIENTED_EDGE('',*,*,#1609,.T.);
#1609 = EDGE_CURVE('',#1601,#482,#1610,.T.);
#1610 = LINE('',#1611,#1612);
#1611 = CARTESIAN_POINT('',(61.5,110.5,2.4));
#1612 = VECTOR('',#1613,1.);
#1613 = DIRECTION('',(0.,-5.016449660064E-16,1.));
#1614 = ORIENTED_EDGE('',*,*,#489,.F.);
#1615 = ORIENTED_EDGE('',*,*,#1584,.F.);
#1616 = CYLINDRICAL_SURFACE('',#1617,2.);
#1617 = AXIS2_PLACEMENT_3D('',#1618,#1619,#1620);
#1618 = CARTESIAN_POINT('',(63.5,110.5,2.4));
#1619 = DIRECTION('',(0.,9.416449660064E-16,-1.));
#1620 = DIRECTION('',(-1.,1.433E-14,1.349377236287E-29));
#1621 = ADVANCED_FACE('',(#1622),#1640,.T.);
#1622 = FACE_BOUND('',#1623,.T.);
#1623 = EDGE_LOOP('',(#1624,#1632,#1638,#1639));
#1624 = ORIENTED_EDGE('',*,*,#1625,.F.);
#1625 = EDGE_CURVE('',#1626,#1601,#1628,.T.);
#1626 = VERTEX_POINT('',#1627);
#1627 = CARTESIAN_POINT('',(61.5,136.5,2.4));
#1628 = LINE('',#1629,#1630);
#1629 = CARTESIAN_POINT('',(61.5,136.5,2.4));
#1630 = VECTOR('',#1631,1.);
#1631 = DIRECTION('',(2.7E-16,-1.,-7.216449660064E-16));
#1632 = ORIENTED_EDGE('',*,*,#1633,.T.);
#1633 = EDGE_CURVE('',#1626,#473,#1634,.T.);
#1634 = LINE('',#1635,#1636);
#1635 = CARTESIAN_POINT('',(61.5,136.5,2.4));
#1636 = VECTOR('',#1637,1.);
#1637 = DIRECTION('',(0.,-5.016449660064E-16,1.));
#1638 = ORIENTED_EDGE('',*,*,#481,.T.);
#1639 = ORIENTED_EDGE('',*,*,#1609,.F.);
#1640 = PLANE('',#1641);
#1641 = AXIS2_PLACEMENT_3D('',#1642,#1643,#1644);
#1642 = CARTESIAN_POINT('',(61.5,136.5,2.4));
#1643 = DIRECTION('',(1.,2.7E-16,1.948441408217E-31));
#1644 = DIRECTION('',(2.7E-16,-1.,-9.416449660064E-16));
#1645 = ADVANCED_FACE('',(#1646),#1665,.F.);
#1646 = FACE_BOUND('',#1647,.T.);
#1647 = EDGE_LOOP('',(#1648,#1657,#1663,#1664));
#1648 = ORIENTED_EDGE('',*,*,#1649,.F.);
#1649 = EDGE_CURVE('',#1650,#1626,#1652,.T.);
#1650 = VERTEX_POINT('',#1651);
#1651 = CARTESIAN_POINT('',(63.5,138.5,2.4));
#1652 = CIRCLE('',#1653,2.);
#1653 = AXIS2_PLACEMENT_3D('',#1654,#1655,#1656);
#1654 = CARTESIAN_POINT('',(63.5,136.5,2.4));
#1655 = DIRECTION('',(0.,-7.216449660064E-16,1.));
#1656 = DIRECTION('',(-2.22E-15,1.,7.216449660064E-16));
#1657 = ORIENTED_EDGE('',*,*,#1658,.T.);
#1658 = EDGE_CURVE('',#1650,#465,#1659,.T.);
#1659 = LINE('',#1660,#1661);
#1660 = CARTESIAN_POINT('',(63.5,138.5,2.4));
#1661 = VECTOR('',#1662,1.);
#1662 = DIRECTION('',(0.,-5.016449660064E-16,1.));
#1663 = ORIENTED_EDGE('',*,*,#472,.F.);
#1664 = ORIENTED_EDGE('',*,*,#1633,.F.);
#1665 = CYLINDRICAL_SURFACE('',#1666,2.);
#1666 = AXIS2_PLACEMENT_3D('',#1667,#1668,#1669);
#1667 = CARTESIAN_POINT('',(63.5,136.5,2.4));
#1668 = DIRECTION('',(0.,9.416449660064E-16,-1.));
#1669 = DIRECTION('',(-2.22E-15,1.,9.416449660064E-16));
#1670 = ADVANCED_FACE('',(#1671),#1689,.T.);
#1671 = FACE_BOUND('',#1672,.T.);
#1672 = EDGE_LOOP('',(#1673,#1681,#1687,#1688));
#1673 = ORIENTED_EDGE('',*,*,#1674,.F.);
#1674 = EDGE_CURVE('',#1675,#1650,#1677,.T.);
#1675 = VERTEX_POINT('',#1676);
#1676 = CARTESIAN_POINT('',(71.5,138.5,2.4));
#1677 = LINE('',#1678,#1679);
#1678 = CARTESIAN_POINT('',(100.5,138.5,2.4));
#1679 = VECTOR('',#1680,1.);
#1680 = DIRECTION('',(-1.,0.,0.));
#1681 = ORIENTED_EDGE('',*,*,#1682,.T.);
#1682 = EDGE_CURVE('',#1675,#456,#1683,.T.);
#1683 = LINE('',#1684,#1685);
#1684 = CARTESIAN_POINT('',(71.5,138.5,2.4));
#1685 = VECTOR('',#1686,1.);
#1686 = DIRECTION('',(0.,-5.016449660064E-16,1.));
#1687 = ORIENTED_EDGE('',*,*,#464,.T.);
#1688 = ORIENTED_EDGE('',*,*,#1658,.F.);
#1689 = PLANE('',#1690);
#1690 = AXIS2_PLACEMENT_3D('',#1691,#1692,#1693);
#1691 = CARTESIAN_POINT('',(100.5,138.5,2.4));
#1692 = DIRECTION('',(0.,-1.,-5.016449660064E-16));
#1693 = DIRECTION('',(-1.,0.,0.));
#1694 = ADVANCED_FACE('',(#1695),#1714,.F.);
#1695 = FACE_BOUND('',#1696,.T.);
#1696 = EDGE_LOOP('',(#1697,#1706,#1712,#1713));
#1697 = ORIENTED_EDGE('',*,*,#1698,.F.);
#1698 = EDGE_CURVE('',#1699,#1675,#1701,.T.);
#1699 = VERTEX_POINT('',#1700);
#1700 = CARTESIAN_POINT('',(69.5,140.5,2.4));
#1701 = CIRCLE('',#1702,2.);
#1702 = AXIS2_PLACEMENT_3D('',#1703,#1704,#1705);
#1703 = CARTESIAN_POINT('',(71.5,140.5,2.4));
#1704 = DIRECTION('',(0.,-7.216449660064E-16,1.));
#1705 = DIRECTION('',(-1.,-1.2E-16,-8.659739592076E-32));
#1706 = ORIENTED_EDGE('',*,*,#1707,.T.);
#1707 = EDGE_CURVE('',#1699,#448,#1708,.T.);
#1708 = LINE('',#1709,#1710);
#1709 = CARTESIAN_POINT('',(69.5,140.5,2.4));
#1710 = VECTOR('',#1711,1.);
#1711 = DIRECTION('',(0.,-5.016449660064E-16,1.));
#1712 = ORIENTED_EDGE('',*,*,#455,.F.);
#1713 = ORIENTED_EDGE('',*,*,#1682,.F.);
#1714 = CYLINDRICAL_SURFACE('',#1715,2.);
#1715 = AXIS2_PLACEMENT_3D('',#1716,#1717,#1718);
#1716 = CARTESIAN_POINT('',(71.5,140.5,2.4));
#1717 = DIRECTION('',(0.,9.416449660064E-16,-1.));
#1718 = DIRECTION('',(-1.,-1.2E-16,-1.129973959208E-31));
#1719 = ADVANCED_FACE('',(#1720),#1738,.T.);
#1720 = FACE_BOUND('',#1721,.T.);
#1721 = EDGE_LOOP('',(#1722,#1730,#1736,#1737));
#1722 = ORIENTED_EDGE('',*,*,#1723,.F.);
#1723 = EDGE_CURVE('',#1724,#1699,#1726,.T.);
#1724 = VERTEX_POINT('',#1725);
#1725 = CARTESIAN_POINT('',(69.5,148.5,2.4));
#1726 = LINE('',#1727,#1728);
#1727 = CARTESIAN_POINT('',(69.5,148.5,2.4));
#1728 = VECTOR('',#1729,1.);
#1729 = DIRECTION('',(4.4E-16,-1.,-7.216449660064E-16));
#1730 = ORIENTED_EDGE('',*,*,#1731,.T.);
#1731 = EDGE_CURVE('',#1724,#439,#1732,.T.);
#1732 = LINE('',#1733,#1734);
#1733 = CARTESIAN_POINT('',(69.5,148.5,2.4));
#1734 = VECTOR('',#1735,1.);
#1735 = DIRECTION('',(0.,-5.016449660064E-16,1.));
#1736 = ORIENTED_EDGE('',*,*,#447,.T.);
#1737 = ORIENTED_EDGE('',*,*,#1707,.F.);
#1738 = PLANE('',#1739);
#1739 = AXIS2_PLACEMENT_3D('',#1740,#1741,#1742);
#1740 = CARTESIAN_POINT('',(69.5,148.5,2.4));
#1741 = DIRECTION('',(1.,4.4E-16,3.175237850428E-31));
#1742 = DIRECTION('',(4.4E-16,-1.,-9.416449660064E-16));
#1743 = ADVANCED_FACE('',(#1744),#1763,.F.);
#1744 = FACE_BOUND('',#1745,.T.);
#1745 = EDGE_LOOP('',(#1746,#1755,#1761,#1762));
#1746 = ORIENTED_EDGE('',*,*,#1747,.F.);
#1747 = EDGE_CURVE('',#1748,#1724,#1750,.T.);
#1748 = VERTEX_POINT('',#1749);
#1749 = CARTESIAN_POINT('',(71.5,150.5,2.4));
#1750 = CIRCLE('',#1751,2.);
#1751 = AXIS2_PLACEMENT_3D('',#1752,#1753,#1754);
#1752 = CARTESIAN_POINT('',(71.5,148.5,2.4));
#1753 = DIRECTION('',(0.,-7.216449660064E-16,1.));
#1754 = DIRECTION('',(-1.78E-15,1.,7.216449660064E-16));
#1755 = ORIENTED_EDGE('',*,*,#1756,.T.);
#1756 = EDGE_CURVE('',#1748,#431,#1757,.T.);
#1757 = LINE('',#1758,#1759);
#1758 = CARTESIAN_POINT('',(71.5,150.5,2.4));
#1759 = VECTOR('',#1760,1.);
#1760 = DIRECTION('',(0.,-5.016449660064E-16,1.));
#1761 = ORIENTED_EDGE('',*,*,#438,.F.);
#1762 = ORIENTED_EDGE('',*,*,#1731,.F.);
#1763 = CYLINDRICAL_SURFACE('',#1764,2.);
#1764 = AXIS2_PLACEMENT_3D('',#1765,#1766,#1767);
#1765 = CARTESIAN_POINT('',(71.5,148.5,2.4));
#1766 = DIRECTION('',(0.,9.416449660064E-16,-1.));
#1767 = DIRECTION('',(-1.78E-15,1.,9.416449660064E-16));
#1768 = ADVANCED_FACE('',(#1769),#1787,.T.);
#1769 = FACE_BOUND('',#1770,.T.);
#1770 = EDGE_LOOP('',(#1771,#1779,#1785,#1786));
#1771 = ORIENTED_EDGE('',*,*,#1772,.F.);
#1772 = EDGE_CURVE('',#1773,#1748,#1775,.T.);
#1773 = VERTEX_POINT('',#1774);
#1774 = CARTESIAN_POINT('',(184.5,150.5,2.4));
#1775 = LINE('',#1776,#1777);
#1776 = CARTESIAN_POINT('',(184.5,150.5,2.4));
#1777 = VECTOR('',#1778,1.);
#1778 = DIRECTION('',(-1.,0.,0.));
#1779 = ORIENTED_EDGE('',*,*,#1780,.T.);
#1780 = EDGE_CURVE('',#1773,#422,#1781,.T.);
#1781 = LINE('',#1782,#1783);
#1782 = CARTESIAN_POINT('',(184.5,150.5,2.4));
#1783 = VECTOR('',#1784,1.);
#1784 = DIRECTION('',(0.,-5.016449660064E-16,1.));
#1785 = ORIENTED_EDGE('',*,*,#430,.T.);
#1786 = ORIENTED_EDGE('',*,*,#1756,.F.);
#1787 = PLANE('',#1788);
#1788 = AXIS2_PLACEMENT_3D('',#1789,#1790,#1791);
#1789 = CARTESIAN_POINT('',(184.5,150.5,2.4));
#1790 = DIRECTION('',(0.,-1.,-5.016449660064E-16));
#1791 = DIRECTION('',(-1.,0.,0.));
#1792 = ADVANCED_FACE('',(#1793),#1812,.F.);
#1793 = FACE_BOUND('',#1794,.T.);
#1794 = EDGE_LOOP('',(#1795,#1804,#1810,#1811));
#1795 = ORIENTED_EDGE('',*,*,#1796,.F.);
#1796 = EDGE_CURVE('',#1797,#1773,#1799,.T.);
#1797 = VERTEX_POINT('',#1798);
#1798 = CARTESIAN_POINT('',(186.5,148.5,2.4));
#1799 = CIRCLE('',#1800,2.);
#1800 = AXIS2_PLACEMENT_3D('',#1801,#1802,#1803);
#1801 = CARTESIAN_POINT('',(184.5,148.5,2.4));
#1802 = DIRECTION('',(0.,-7.216449660064E-16,1.));
#1803 = DIRECTION('',(1.,-1.42E-14,-1.024735851729E-29));
#1804 = ORIENTED_EDGE('',*,*,#1805,.T.);
#1805 = EDGE_CURVE('',#1797,#414,#1806,.T.);
#1806 = LINE('',#1807,#1808);
#1807 = CARTESIAN_POINT('',(186.5,148.5,2.4));
#1808 = VECTOR('',#1809,1.);
#1809 = DIRECTION('',(0.,-5.016449660064E-16,1.));
#1810 = ORIENTED_EDGE('',*,*,#421,.F.);
#1811 = ORIENTED_EDGE('',*,*,#1780,.F.);
#1812 = CYLINDRICAL_SURFACE('',#1813,2.);
#1813 = AXIS2_PLACEMENT_3D('',#1814,#1815,#1816);
#1814 = CARTESIAN_POINT('',(184.5,148.5,2.4));
#1815 = DIRECTION('',(0.,9.416449660064E-16,-1.));
#1816 = DIRECTION('',(1.,-1.42E-14,-1.337135851729E-29));
#1817 = ADVANCED_FACE('',(#1818),#1836,.T.);
#1818 = FACE_BOUND('',#1819,.T.);
#1819 = EDGE_LOOP('',(#1820,#1828,#1834,#1835));
#1820 = ORIENTED_EDGE('',*,*,#1821,.F.);
#1821 = EDGE_CURVE('',#1822,#1797,#1824,.T.);
#1822 = VERTEX_POINT('',#1823);
#1823 = CARTESIAN_POINT('',(186.5,140.5,2.4));
#1824 = LINE('',#1825,#1826);
#1825 = CARTESIAN_POINT('',(186.5,140.5,2.4));
#1826 = VECTOR('',#1827,1.);
#1827 = DIRECTION('',(0.,1.,7.216449660064E-16));
#1828 = ORIENTED_EDGE('',*,*,#1829,.T.);
#1829 = EDGE_CURVE('',#1822,#405,#1830,.T.);
#1830 = LINE('',#1831,#1832);
#1831 = CARTESIAN_POINT('',(186.5,140.5,2.4));
#1832 = VECTOR('',#1833,1.);
#1833 = DIRECTION('',(0.,-5.016449660064E-16,1.));
#1834 = ORIENTED_EDGE('',*,*,#413,.T.);
#1835 = ORIENTED_EDGE('',*,*,#1805,.F.);
#1836 = PLANE('',#1837);
#1837 = AXIS2_PLACEMENT_3D('',#1838,#1839,#1840);
#1838 = CARTESIAN_POINT('',(186.5,140.5,2.4));
#1839 = DIRECTION('',(-1.,0.,0.));
#1840 = DIRECTION('',(0.,1.,9.416449660064E-16));
#1841 = ADVANCED_FACE('',(#1842),#1854,.F.);
#1842 = FACE_BOUND('',#1843,.T.);
#1843 = EDGE_LOOP('',(#1844,#1851,#1852,#1853));
#1844 = ORIENTED_EDGE('',*,*,#1845,.F.);
#1845 = EDGE_CURVE('',#1060,#1822,#1846,.T.);
#1846 = CIRCLE('',#1847,2.);
#1847 = AXIS2_PLACEMENT_3D('',#1848,#1849,#1850);
#1848 = CARTESIAN_POINT('',(184.5,140.5,2.4));
#1849 = DIRECTION('',(0.,-7.216449660064E-16,1.));
#1850 = DIRECTION('',(-7.11E-15,-1.,-7.216449660064E-16));
#1851 = ORIENTED_EDGE('',*,*,#1132,.T.);
#1852 = ORIENTED_EDGE('',*,*,#404,.F.);
#1853 = ORIENTED_EDGE('',*,*,#1829,.F.);
#1854 = CYLINDRICAL_SURFACE('',#1855,2.);
#1855 = AXIS2_PLACEMENT_3D('',#1856,#1857,#1858);
#1856 = CARTESIAN_POINT('',(184.5,140.5,2.4));
#1857 = DIRECTION('',(0.,9.416449660064E-16,-1.));
#1858 = DIRECTION('',(-7.11E-15,-1.,-9.416449660064E-16));
#1859 = ADVANCED_FACE('',(#1860),#1904,.F.);
#1860 = FACE_BOUND('',#1861,.T.);
#1861 = EDGE_LOOP('',(#1862,#1871,#1879,#1888,#1896,#1903));
#1862 = ORIENTED_EDGE('',*,*,#1863,.F.);
#1863 = EDGE_CURVE('',#1864,#1270,#1866,.T.);
#1864 = VERTEX_POINT('',#1865);
#1865 = CARTESIAN_POINT('',(155.5,138.5,2.4));
#1866 = CIRCLE('',#1867,2.);
#1867 = AXIS2_PLACEMENT_3D('',#1868,#1869,#1870);
#1868 = CARTESIAN_POINT('',(155.5,136.5,2.4));
#1869 = DIRECTION('',(0.,-7.216449660064E-16,1.));
#1870 = DIRECTION('',(1.1E-16,1.,7.216449660064E-16));
#1871 = ORIENTED_EDGE('',*,*,#1872,.T.);
#1872 = EDGE_CURVE('',#1864,#1873,#1875,.T.);
#1873 = VERTEX_POINT('',#1874);
#1874 = CARTESIAN_POINT('',(155.5,138.5,8.));
#1875 = LINE('',#1876,#1877);
#1876 = CARTESIAN_POINT('',(155.5,138.5,2.4));
#1877 = VECTOR('',#1878,1.);
#1878 = DIRECTION('',(0.,-5.016449660064E-16,1.));
#1879 = ORIENTED_EDGE('',*,*,#1880,.F.);
#1880 = EDGE_CURVE('',#1881,#1873,#1883,.T.);
#1881 = VERTEX_POINT('',#1882);
#1882 = CARTESIAN_POINT('',(153.76794919243,137.5,8.));
#1883 = CIRCLE('',#1884,2.);
#1884 = AXIS2_PLACEMENT_3D('',#1885,#1886,#1887);
#1885 = CARTESIAN_POINT('',(155.5,136.5,8.));
#1886 = DIRECTION('',(2.189528850508E-47,9.416449660064E-16,-1.));
#1887 = DIRECTION('',(1.1E-16,1.,9.416449660064E-16));
#1888 = ORIENTED_EDGE('',*,*,#1889,.F.);
#1889 = EDGE_CURVE('',#1890,#1881,#1892,.T.);
#1890 = VERTEX_POINT('',#1891);
#1891 = CARTESIAN_POINT('',(153.76794919243,137.5,13.));
#1892 = LINE('',#1893,#1894);
#1893 = CARTESIAN_POINT('',(153.76794919243,137.5,2.4));
#1894 = VECTOR('',#1895,1.);
#1895 = DIRECTION('',(0.,9.416449660064E-16,-1.));
#1896 = ORIENTED_EDGE('',*,*,#1897,.F.);
#1897 = EDGE_CURVE('',#1278,#1890,#1898,.T.);
#1898 = CIRCLE('',#1899,2.);
#1899 = AXIS2_PLACEMENT_3D('',#1900,#1901,#1902);
#1900 = CARTESIAN_POINT('',(155.5,136.5,13.));
#1901 = DIRECTION('',(2.189528850508E-47,9.416449660064E-16,-1.));
#1902 = DIRECTION('',(1.1E-16,1.,9.416449660064E-16));
#1903 = ORIENTED_EDGE('',*,*,#1277,.F.);
#1904 = CYLINDRICAL_SURFACE('',#1905,2.);
#1905 = AXIS2_PLACEMENT_3D('',#1906,#1907,#1908);
#1906 = CARTESIAN_POINT('',(155.5,136.5,2.4));
#1907 = DIRECTION('',(0.,9.416449660064E-16,-1.));
#1908 = DIRECTION('',(1.1E-16,1.,9.416449660064E-16));
#1909 = ADVANCED_FACE('',(#1910),#1931,.F.);
#1910 = FACE_BOUND('',#1911,.F.);
#1911 = EDGE_LOOP('',(#1912,#1921,#1927,#1928,#1929,#1930));
#1912 = ORIENTED_EDGE('',*,*,#1913,.F.);
#1913 = EDGE_CURVE('',#1914,#1344,#1916,.T.);
#1914 = VERTEX_POINT('',#1915);
#1915 = CARTESIAN_POINT('',(151.23205080756,137.5,13.));
#1916 = CIRCLE('',#1917,2.);
#1917 = AXIS2_PLACEMENT_3D('',#1918,#1919,#1920);
#1918 = CARTESIAN_POINT('',(149.5,136.5,13.));
#1919 = DIRECTION('',(0.,9.416449660064E-16,-1.));
#1920 = DIRECTION('',(1.,0.,0.));
#1921 = ORIENTED_EDGE('',*,*,#1922,.F.);
#1922 = EDGE_CURVE('',#1890,#1914,#1923,.T.);
#1923 = LINE('',#1924,#1925);
#1924 = CARTESIAN_POINT('',(180.5,137.5,13.));
#1925 = VECTOR('',#1926,1.);
#1926 = DIRECTION('',(-1.,1.3E-16,9.381384558083E-32));
#1927 = ORIENTED_EDGE('',*,*,#1897,.F.);
#1928 = ORIENTED_EDGE('',*,*,#1285,.T.);
#1929 = ORIENTED_EDGE('',*,*,#1318,.F.);
#1930 = ORIENTED_EDGE('',*,*,#1343,.T.);
#1931 = PLANE('',#1932);
#1932 = AXIS2_PLACEMENT_3D('',#1933,#1934,#1935);
#1933 = CARTESIAN_POINT('',(127.5,124.5,13.));
#1934 = DIRECTION('',(0.,7.216449660064E-16,-1.));
#1935 = DIRECTION('',(0.,1.,7.216449660064E-16));
#1936 = ADVANCED_FACE('',(#1937),#1973,.F.);
#1937 = FACE_BOUND('',#1938,.T.);
#1938 = EDGE_LOOP('',(#1939,#1948,#1949,#1950,#1958,#1967));
#1939 = ORIENTED_EDGE('',*,*,#1940,.F.);
#1940 = EDGE_CURVE('',#1352,#1941,#1943,.T.);
#1941 = VERTEX_POINT('',#1942);
#1942 = CARTESIAN_POINT('',(149.5,138.5,2.4));
#1943 = CIRCLE('',#1944,2.);
#1944 = AXIS2_PLACEMENT_3D('',#1945,#1946,#1947);
#1945 = CARTESIAN_POINT('',(149.5,136.5,2.4));
#1946 = DIRECTION('',(0.,-7.216449660064E-16,1.));
#1947 = DIRECTION('',(1.,0.,0.));
#1948 = ORIENTED_EDGE('',*,*,#1351,.T.);
#1949 = ORIENTED_EDGE('',*,*,#1913,.F.);
#1950 = ORIENTED_EDGE('',*,*,#1951,.T.);
#1951 = EDGE_CURVE('',#1914,#1952,#1954,.T.);
#1952 = VERTEX_POINT('',#1953);
#1953 = CARTESIAN_POINT('',(151.23205080756,137.5,8.));
#1954 = LINE('',#1955,#1956);
#1955 = CARTESIAN_POINT('',(151.23205080756,137.5,2.4));
#1956 = VECTOR('',#1957,1.);
#1957 = DIRECTION('',(0.,9.416449660064E-16,-1.));
#1958 = ORIENTED_EDGE('',*,*,#1959,.F.);
#1959 = EDGE_CURVE('',#1960,#1952,#1962,.T.);
#1960 = VERTEX_POINT('',#1961);
#1961 = CARTESIAN_POINT('',(149.5,138.5,8.));
#1962 = CIRCLE('',#1963,2.);
#1963 = AXIS2_PLACEMENT_3D('',#1964,#1965,#1966);
#1964 = CARTESIAN_POINT('',(149.5,136.5,8.));
#1965 = DIRECTION('',(0.,9.416449660064E-16,-1.));
#1966 = DIRECTION('',(1.,0.,0.));
#1967 = ORIENTED_EDGE('',*,*,#1968,.F.);
#1968 = EDGE_CURVE('',#1941,#1960,#1969,.T.);
#1969 = LINE('',#1970,#1971);
#1970 = CARTESIAN_POINT('',(149.5,138.5,2.4));
#1971 = VECTOR('',#1972,1.);
#1972 = DIRECTION('',(0.,-5.016449660064E-16,1.));
#1973 = CYLINDRICAL_SURFACE('',#1974,2.);
#1974 = AXIS2_PLACEMENT_3D('',#1975,#1976,#1977);
#1975 = CARTESIAN_POINT('',(149.5,136.5,2.4));
#1976 = DIRECTION('',(0.,9.416449660064E-16,-1.));
#1977 = DIRECTION('',(1.,0.,0.));
#1978 = ADVANCED_FACE('',(#1979),#2023,.F.);
#1979 = FACE_BOUND('',#1980,.T.);
#1980 = EDGE_LOOP('',(#1981,#1990,#1998,#2007,#2015,#2022));
#1981 = ORIENTED_EDGE('',*,*,#1982,.F.);
#1982 = EDGE_CURVE('',#1983,#1448,#1985,.T.);
#1983 = VERTEX_POINT('',#1984);
#1984 = CARTESIAN_POINT('',(106.5,138.5,2.4));
#1985 = CIRCLE('',#1986,2.);
#1986 = AXIS2_PLACEMENT_3D('',#1987,#1988,#1989);
#1987 = CARTESIAN_POINT('',(106.5,136.5,2.4));
#1988 = DIRECTION('',(0.,-7.216449660064E-16,1.));
#1989 = DIRECTION('',(-3.55E-15,1.,7.216449660064E-16));
#1990 = ORIENTED_EDGE('',*,*,#1991,.T.);
#1991 = EDGE_CURVE('',#1983,#1992,#1994,.T.);
#1992 = VERTEX_POINT('',#1993);
#1993 = CARTESIAN_POINT('',(106.5,138.5,8.));
#1994 = LINE('',#1995,#1996);
#1995 = CARTESIAN_POINT('',(106.5,138.5,2.4));
#1996 = VECTOR('',#1997,1.);
#1997 = DIRECTION('',(0.,-5.016449660064E-16,1.));
#1998 = ORIENTED_EDGE('',*,*,#1999,.F.);
#1999 = EDGE_CURVE('',#2000,#1992,#2002,.T.);
#2000 = VERTEX_POINT('',#2001);
#2001 = CARTESIAN_POINT('',(104.76794919243,137.5,8.));
#2002 = CIRCLE('',#2003,2.);
#2003 = AXIS2_PLACEMENT_3D('',#2004,#2005,#2006);
#2004 = CARTESIAN_POINT('',(106.5,136.5,8.));
#2005 = DIRECTION('',(0.,9.416449660064E-16,-1.));
#2006 = DIRECTION('',(-3.55E-15,1.,9.416449660064E-16));
#2007 = ORIENTED_EDGE('',*,*,#2008,.F.);
#2008 = EDGE_CURVE('',#2009,#2000,#2011,.T.);
#2009 = VERTEX_POINT('',#2010);
#2010 = CARTESIAN_POINT('',(104.76794919243,137.5,13.));
#2011 = LINE('',#2012,#2013);
#2012 = CARTESIAN_POINT('',(104.76794919243,137.5,2.4));
#2013 = VECTOR('',#2014,1.);
#2014 = DIRECTION('',(0.,9.416449660064E-16,-1.));
#2015 = ORIENTED_EDGE('',*,*,#2016,.F.);
#2016 = EDGE_CURVE('',#1456,#2009,#2017,.T.);
#2017 = CIRCLE('',#2018,2.);
#2018 = AXIS2_PLACEMENT_3D('',#2019,#2020,#2021);
#2019 = CARTESIAN_POINT('',(106.5,136.5,13.));
#2020 = DIRECTION('',(0.,9.416449660064E-16,-1.));
#2021 = DIRECTION('',(-3.55E-15,1.,9.416449660064E-16));
#2022 = ORIENTED_EDGE('',*,*,#1455,.F.);
#2023 = CYLINDRICAL_SURFACE('',#2024,2.);
#2024 = AXIS2_PLACEMENT_3D('',#2025,#2026,#2027);
#2025 = CARTESIAN_POINT('',(106.5,136.5,2.4));
#2026 = DIRECTION('',(0.,9.416449660064E-16,-1.));
#2027 = DIRECTION('',(-3.55E-15,1.,9.416449660064E-16));
#2028 = ADVANCED_FACE('',(#2029),#2050,.F.);
#2029 = FACE_BOUND('',#2030,.F.);
#2030 = EDGE_LOOP('',(#2031,#2040,#2046,#2047,#2048,#2049));
#2031 = ORIENTED_EDGE('',*,*,#2032,.F.);
#2032 = EDGE_CURVE('',#2033,#1522,#2035,.T.);
#2033 = VERTEX_POINT('',#2034);
#2034 = CARTESIAN_POINT('',(102.23205080756,137.5,13.));
#2035 = CIRCLE('',#2036,2.);
#2036 = AXIS2_PLACEMENT_3D('',#2037,#2038,#2039);
#2037 = CARTESIAN_POINT('',(100.5,136.5,13.));
#2038 = DIRECTION('',(0.,9.416449660064E-16,-1.));
#2039 = DIRECTION('',(1.,0.,0.));
#2040 = ORIENTED_EDGE('',*,*,#2041,.F.);
#2041 = EDGE_CURVE('',#2009,#2033,#2042,.T.);
#2042 = LINE('',#2043,#2044);
#2043 = CARTESIAN_POINT('',(180.5,137.5,13.));
#2044 = VECTOR('',#2045,1.);
#2045 = DIRECTION('',(-1.,1.3E-16,9.381384558083E-32));
#2046 = ORIENTED_EDGE('',*,*,#2016,.F.);
#2047 = ORIENTED_EDGE('',*,*,#1463,.T.);
#2048 = ORIENTED_EDGE('',*,*,#1496,.F.);
#2049 = ORIENTED_EDGE('',*,*,#1521,.T.);
#2050 = PLANE('',#2051);
#2051 = AXIS2_PLACEMENT_3D('',#2052,#2053,#2054);
#2052 = CARTESIAN_POINT('',(127.5,124.5,13.));
#2053 = DIRECTION('',(0.,7.216449660064E-16,-1.));
#2054 = DIRECTION('',(0.,1.,7.216449660064E-16));
#2055 = ADVANCED_FACE('',(#2056),#2092,.F.);
#2056 = FACE_BOUND('',#2057,.T.);
#2057 = EDGE_LOOP('',(#2058,#2067,#2068,#2069,#2077,#2086));
#2058 = ORIENTED_EDGE('',*,*,#2059,.F.);
#2059 = EDGE_CURVE('',#1530,#2060,#2062,.T.);
#2060 = VERTEX_POINT('',#2061);
#2061 = CARTESIAN_POINT('',(100.5,138.5,2.4));
#2062 = CIRCLE('',#2063,2.);
#2063 = AXIS2_PLACEMENT_3D('',#2064,#2065,#2066);
#2064 = CARTESIAN_POINT('',(100.5,136.5,2.4));
#2065 = DIRECTION('',(0.,-7.216449660064E-16,1.));
#2066 = DIRECTION('',(1.,0.,0.));
#2067 = ORIENTED_EDGE('',*,*,#1529,.T.);
#2068 = ORIENTED_EDGE('',*,*,#2032,.F.);
#2069 = ORIENTED_EDGE('',*,*,#2070,.T.);
#2070 = EDGE_CURVE('',#2033,#2071,#2073,.T.);
#2071 = VERTEX_POINT('',#2072);
#2072 = CARTESIAN_POINT('',(102.23205080756,137.5,8.));
#2073 = LINE('',#2074,#2075);
#2074 = CARTESIAN_POINT('',(102.23205080756,137.5,2.4));
#2075 = VECTOR('',#2076,1.);
#2076 = DIRECTION('',(0.,9.416449660064E-16,-1.));
#2077 = ORIENTED_EDGE('',*,*,#2078,.F.);
#2078 = EDGE_CURVE('',#2079,#2071,#2081,.T.);
#2079 = VERTEX_POINT('',#2080);
#2080 = CARTESIAN_POINT('',(100.5,138.5,8.));
#2081 = CIRCLE('',#2082,2.);
#2082 = AXIS2_PLACEMENT_3D('',#2083,#2084,#2085);
#2083 = CARTESIAN_POINT('',(100.5,136.5,8.));
#2084 = DIRECTION('',(0.,9.416449660064E-16,-1.));
#2085 = DIRECTION('',(1.,0.,0.));
#2086 = ORIENTED_EDGE('',*,*,#2087,.F.);
#2087 = EDGE_CURVE('',#2060,#2079,#2088,.T.);
#2088 = LINE('',#2089,#2090);
#2089 = CARTESIAN_POINT('',(100.5,138.5,2.4));
#2090 = VECTOR('',#2091,1.);
#2091 = DIRECTION('',(0.,-5.016449660064E-16,1.));
#2092 = CYLINDRICAL_SURFACE('',#2093,2.);
#2093 = AXIS2_PLACEMENT_3D('',#2094,#2095,#2096);
#2094 = CARTESIAN_POINT('',(100.5,136.5,2.4));
#2095 = DIRECTION('',(0.,9.416449660064E-16,-1.));
#2096 = DIRECTION('',(1.,0.,0.));
#2097 = ADVANCED_FACE('',(#2098),#2114,.T.);
#2098 = FACE_BOUND('',#2099,.T.);
#2099 = EDGE_LOOP('',(#2100,#2106,#2107,#2113));
#2100 = ORIENTED_EDGE('',*,*,#2101,.F.);
#2101 = EDGE_CURVE('',#2060,#1983,#2102,.T.);
#2102 = LINE('',#2103,#2104);
#2103 = CARTESIAN_POINT('',(71.5,138.5,2.4));
#2104 = VECTOR('',#2105,1.);
#2105 = DIRECTION('',(1.,0.,0.));
#2106 = ORIENTED_EDGE('',*,*,#2087,.T.);
#2107 = ORIENTED_EDGE('',*,*,#2108,.T.);
#2108 = EDGE_CURVE('',#2079,#1992,#2109,.T.);
#2109 = LINE('',#2110,#2111);
#2110 = CARTESIAN_POINT('',(99.75,138.5,8.));
#2111 = VECTOR('',#2112,1.);
#2112 = DIRECTION('',(1.,0.,0.));
#2113 = ORIENTED_EDGE('',*,*,#1991,.F.);
#2114 = PLANE('',#2115);
#2115 = AXIS2_PLACEMENT_3D('',#2116,#2117,#2118);
#2116 = CARTESIAN_POINT('',(71.5,138.5,2.4));
#2117 = DIRECTION('',(0.,1.,5.016449660064E-16));
#2118 = DIRECTION('',(1.,0.,0.));
#2119 = ADVANCED_FACE('',(#2120),#2136,.T.);
#2120 = FACE_BOUND('',#2121,.T.);
#2121 = EDGE_LOOP('',(#2122,#2128,#2129,#2135));
#2122 = ORIENTED_EDGE('',*,*,#2123,.F.);
#2123 = EDGE_CURVE('',#1941,#1864,#2124,.T.);
#2124 = LINE('',#2125,#2126);
#2125 = CARTESIAN_POINT('',(71.5,138.5,2.4));
#2126 = VECTOR('',#2127,1.);
#2127 = DIRECTION('',(1.,0.,0.));
#2128 = ORIENTED_EDGE('',*,*,#1968,.T.);
#2129 = ORIENTED_EDGE('',*,*,#2130,.T.);
#2130 = EDGE_CURVE('',#1960,#1873,#2131,.T.);
#2131 = LINE('',#2132,#2133);
#2132 = CARTESIAN_POINT('',(99.75,138.5,8.));
#2133 = VECTOR('',#2134,1.);
#2134 = DIRECTION('',(1.,0.,0.));
#2135 = ORIENTED_EDGE('',*,*,#1872,.F.);
#2136 = PLANE('',#2137);
#2137 = AXIS2_PLACEMENT_3D('',#2138,#2139,#2140);
#2138 = CARTESIAN_POINT('',(71.5,138.5,2.4));
#2139 = DIRECTION('',(0.,1.,5.016449660064E-16));
#2140 = DIRECTION('',(1.,0.,0.));
#2141 = ADVANCED_FACE('',(#2142),#2153,.F.);
#2142 = FACE_BOUND('',#2143,.F.);
#2143 = EDGE_LOOP('',(#2144,#2150,#2151,#2152));
#2144 = ORIENTED_EDGE('',*,*,#2145,.F.);
#2145 = EDGE_CURVE('',#1881,#1952,#2146,.T.);
#2146 = LINE('',#2147,#2148);
#2147 = CARTESIAN_POINT('',(154.25,137.5,8.));
#2148 = VECTOR('',#2149,1.);
#2149 = DIRECTION('',(-1.,1.3E-16,9.381384558083E-32));
#2150 = ORIENTED_EDGE('',*,*,#1889,.F.);
#2151 = ORIENTED_EDGE('',*,*,#1922,.T.);
#2152 = ORIENTED_EDGE('',*,*,#1951,.T.);
#2153 = PLANE('',#2154);
#2154 = AXIS2_PLACEMENT_3D('',#2155,#2156,#2157);
#2155 = CARTESIAN_POINT('',(180.5,137.5,7.));
#2156 = DIRECTION('',(-1.3E-16,-1.,-5.016449660064E-16));
#2157 = DIRECTION('',(-1.,1.3E-16,9.381384558083E-32));
#2158 = ADVANCED_FACE('',(#2159),#2165,.F.);
#2159 = FACE_BOUND('',#2160,.F.);
#2160 = EDGE_LOOP('',(#2161,#2162,#2163,#2164));
#2161 = ORIENTED_EDGE('',*,*,#2130,.T.);
#2162 = ORIENTED_EDGE('',*,*,#1880,.F.);
#2163 = ORIENTED_EDGE('',*,*,#2145,.T.);
#2164 = ORIENTED_EDGE('',*,*,#1959,.F.);
#2165 = PLANE('',#2166);
#2166 = AXIS2_PLACEMENT_3D('',#2167,#2168,#2169);
#2167 = CARTESIAN_POINT('',(128.,128.,8.));
#2168 = DIRECTION('',(0.,7.216449660064E-16,-1.));
#2169 = DIRECTION('',(0.,1.,7.216449660064E-16));
#2170 = ADVANCED_FACE('',(#2171),#2182,.F.);
#2171 = FACE_BOUND('',#2172,.F.);
#2172 = EDGE_LOOP('',(#2173,#2179,#2180,#2181));
#2173 = ORIENTED_EDGE('',*,*,#2174,.F.);
#2174 = EDGE_CURVE('',#2000,#2071,#2175,.T.);
#2175 = LINE('',#2176,#2177);
#2176 = CARTESIAN_POINT('',(154.25,137.5,8.));
#2177 = VECTOR('',#2178,1.);
#2178 = DIRECTION('',(-1.,1.3E-16,9.381384558083E-32));
#2179 = ORIENTED_EDGE('',*,*,#2008,.F.);
#2180 = ORIENTED_EDGE('',*,*,#2041,.T.);
#2181 = ORIENTED_EDGE('',*,*,#2070,.T.);
#2182 = PLANE('',#2183);
#2183 = AXIS2_PLACEMENT_3D('',#2184,#2185,#2186);
#2184 = CARTESIAN_POINT('',(180.5,137.5,7.));
#2185 = DIRECTION('',(-1.3E-16,-1.,-5.016449660064E-16));
#2186 = DIRECTION('',(-1.,1.3E-16,9.381384558083E-32));
#2187 = ADVANCED_FACE('',(#2188),#2194,.F.);
#2188 = FACE_BOUND('',#2189,.F.);
#2189 = EDGE_LOOP('',(#2190,#2191,#2192,#2193));
#2190 = ORIENTED_EDGE('',*,*,#2108,.T.);
#2191 = ORIENTED_EDGE('',*,*,#1999,.F.);
#2192 = ORIENTED_EDGE('',*,*,#2174,.T.);
#2193 = ORIENTED_EDGE('',*,*,#2078,.F.);
#2194 = PLANE('',#2195);
#2195 = AXIS2_PLACEMENT_3D('',#2196,#2197,#2198);
#2196 = CARTESIAN_POINT('',(128.,128.,8.));
#2197 = DIRECTION('',(0.,7.216449660064E-16,-1.));
#2198 = DIRECTION('',(0.,1.,7.216449660064E-16));
#2199 = ADVANCED_FACE('',(#2200,#2234),#2245,.T.);
#2200 = FACE_BOUND('',#2201,.T.);
#2201 = EDGE_LOOP('',(#2202,#2203,#2204,#2205,#2206,#2207,#2208,#2209,
    #2210,#2211,#2212,#2213,#2214,#2215,#2216,#2217,#2218,#2219,#2220,
    #2221,#2222,#2223,#2224,#2225,#2226,#2227,#2228,#2229,#2230,#2231,
    #2232,#2233));
#2202 = ORIENTED_EDGE('',*,*,#1723,.T.);
#2203 = ORIENTED_EDGE('',*,*,#1698,.T.);
#2204 = ORIENTED_EDGE('',*,*,#1674,.T.);
#2205 = ORIENTED_EDGE('',*,*,#1649,.T.);
#2206 = ORIENTED_EDGE('',*,*,#1625,.T.);
#2207 = ORIENTED_EDGE('',*,*,#1600,.T.);
#2208 = ORIENTED_EDGE('',*,*,#1576,.T.);
#2209 = ORIENTED_EDGE('',*,*,#1551,.T.);
#2210 = ORIENTED_EDGE('',*,*,#1537,.T.);
#2211 = ORIENTED_EDGE('',*,*,#2059,.T.);
#2212 = ORIENTED_EDGE('',*,*,#2101,.T.);
#2213 = ORIENTED_EDGE('',*,*,#1982,.T.);
#2214 = ORIENTED_EDGE('',*,*,#1447,.T.);
#2215 = ORIENTED_EDGE('',*,*,#1422,.T.);
#2216 = ORIENTED_EDGE('',*,*,#1398,.T.);
#2217 = ORIENTED_EDGE('',*,*,#1373,.T.);
#2218 = ORIENTED_EDGE('',*,*,#1359,.T.);
#2219 = ORIENTED_EDGE('',*,*,#1940,.T.);
#2220 = ORIENTED_EDGE('',*,*,#2123,.T.);
#2221 = ORIENTED_EDGE('',*,*,#1863,.T.);
#2222 = ORIENTED_EDGE('',*,*,#1269,.T.);
#2223 = ORIENTED_EDGE('',*,*,#1244,.T.);
#2224 = ORIENTED_EDGE('',*,*,#1220,.T.);
#2225 = ORIENTED_EDGE('',*,*,#1195,.T.);
#2226 = ORIENTED_EDGE('',*,*,#1171,.T.);
#2227 = ORIENTED_EDGE('',*,*,#1146,.T.);
#2228 = ORIENTED_EDGE('',*,*,#1117,.T.);
#2229 = ORIENTED_EDGE('',*,*,#1845,.T.);
#2230 = ORIENTED_EDGE('',*,*,#1821,.T.);
#2231 = ORIENTED_EDGE('',*,*,#1796,.T.);
#2232 = ORIENTED_EDGE('',*,*,#1772,.T.);
#2233 = ORIENTED_EDGE('',*,*,#1747,.T.);
#2234 = FACE_BOUND('',#2235,.T.);
#2235 = EDGE_LOOP('',(#2236,#2237,#2238,#2239,#2240,#2241,#2242,#2243,
    #2244));
#2236 = ORIENTED_EDGE('',*,*,#930,.T.);
#2237 = ORIENTED_EDGE('',*,*,#913,.T.);
#2238 = ORIENTED_EDGE('',*,*,#961,.T.);
#2239 = ORIENTED_EDGE('',*,*,#1011,.T.);
#2240 = ORIENTED_EDGE('',*,*,#1067,.T.);
#2241 = ORIENTED_EDGE('',*,*,#1059,.T.);
#2242 = ORIENTED_EDGE('',*,*,#1085,.T.);
#2243 = ORIENTED_EDGE('',*,*,#1028,.T.);
#2244 = ORIENTED_EDGE('',*,*,#986,.T.);
#2245 = PLANE('',#2246);
#2246 = AXIS2_PLACEMENT_3D('',#2247,#2248,#2249);
#2247 = CARTESIAN_POINT('',(127.66461394451,128.34178825055,2.4));
#2248 = DIRECTION('',(-0.,-7.216449660064E-16,1.));
#2249 = DIRECTION('',(0.,-1.,-7.216449660064E-16));
#2250 = ( GEOMETRIC_REPRESENTATION_CONTEXT(3) 
GLOBAL_UNCERTAINTY_ASSIGNED_CONTEXT((#2254)) 
GLOBAL_UNIT_ASSIGNED_CONTEXT((#2251,#2252,#2253)) REPRESENTATION_CONTEXT
('Context #1','3D Context with UNIT and UNCERTAINTY') );
#2251 = ( LENGTH_UNIT() NAMED_UNIT(*) SI_UNIT(.MILLI.,.METRE.) );
#2252 = ( NAMED_UNIT(*) PLANE_ANGLE_UNIT() SI_UNIT($,.RADIAN.) );
#2253 = ( NAMED_UNIT(*) SI_UNIT($,.STERADIAN.) SOLID_ANGLE_UNIT() );
#2254 = UNCERTAINTY_MEASURE_WITH_UNIT(LENGTH_MEASURE(5.E-05),#2251,
  'distance_accuracy_value','confusion accuracy');
#2255 = PRODUCT_RELATED_PRODUCT_CATEGORY('part',$,(#7));
ENDSEC;
END-ISO-10303-21;
