solid dell_fan_right
  facet normal -0.999300645847389 0 -0.037392769474753
    outer loop
      vertex 0.0862638931274414 0.0432000007629395 0.171118789672852
      vertex 0.0862638931274414 0.0452000007629395 0.171118789672852
      vertex 0.0863338012695312 0.0452000007629395 0.169250534057617
    endloop
  endfacet
  facet normal -0.993711999628219 0 -0.111966342241257
    outer loop
      vertex 0.0863338012695312 0.0432000007629395 0.169250534057617
      vertex 0.0863338012695312 0.0452000007629395 0.169250534057617
      vertex 0.0865431289672852 0.0452000007629395 0.167392730712891
    endloop
  endfacet
  facet normal -0.999300645847389 0 -0.037392769474753
    outer loop
      vertex 0.0863338012695312 0.0432000007629395 0.169250534057617
      vertex 0.0862638931274414 0.0432000007629395 0.171118789672852
      vertex 0.0863338012695312 0.0452000007629395 0.169250534057617
    endloop
  endfacet
  facet normal -0.982566397730824 0 -0.185912006202593
    outer loop
      vertex 0.0865431289672852 0.0432000007629395 0.167392730712891
      vertex 0.0865431289672852 0.0452000007629395 0.167392730712891
      vertex 0.0868907012939453 0.0452000007629395 0.165555770874023
    endloop
  endfacet
  facet normal -0.993711999628219 0 -0.111966342241257
    outer loop
      vertex 0.0865431289672852 0.0432000007629395 0.167392730712891
      vertex 0.0863338012695312 0.0432000007629395 0.169250534057617
      vertex 0.0865431289672852 0.0452000007629395 0.167392730712891
    endloop
  endfacet
  facet normal -0.965925865006058 0 -0.258818900608705
    outer loop
      vertex 0.0868907012939453 0.0432000007629395 0.165555770874023
      vertex 0.0868907012939453 0.0452000007629395 0.165555770874023
      vertex 0.0873745803833008 0.0452000007629395 0.163749908447266
    endloop
  endfacet
  facet normal -0.982566397730824 0 -0.185912006202593
    outer loop
      vertex 0.0868907012939453 0.0432000007629395 0.165555770874023
      vertex 0.0865431289672852 0.0432000007629395 0.167392730712891
      vertex 0.0868907012939453 0.0452000007629395 0.165555770874023
    endloop
  endfacet
  facet normal -0.943884565365764 0 -0.330275532342744
    outer loop
      vertex 0.0873745803833008 0.0432000007629395 0.163749908447266
      vertex 0.0873745803833008 0.0452000007629395 0.163749908447266
      vertex 0.0879920501708984 0.0452000007629395 0.161985260009766
    endloop
  endfacet
  facet normal -0.965925865006058 0 -0.258818900608705
    outer loop
      vertex 0.0873745803833008 0.0432000007629395 0.163749908447266
      vertex 0.0868907012939453 0.0432000007629395 0.165555770874023
      vertex 0.0873745803833008 0.0452000007629395 0.163749908447266
    endloop
  endfacet
  facet normal -0.916560727623616 0 -0.399895527079346
    outer loop
      vertex 0.0879920501708984 0.0432000007629395 0.161985260009766
      vertex 0.0879920501708984 0.0452000007629395 0.161985260009766
      vertex 0.0887396774291992 0.0452000007629395 0.160271697998047
    endloop
  endfacet
  facet normal -0.943884565365764 0 -0.330275532342744
    outer loop
      vertex 0.0879920501708984 0.0432000007629395 0.161985260009766
      vertex 0.0873745803833008 0.0432000007629395 0.163749908447266
      vertex 0.0879920501708984 0.0452000007629395 0.161985260009766
    endloop
  endfacet
  facet normal -0.884116857065209 0 -0.467265859070762
    outer loop
      vertex 0.0887396774291992 0.0432000007629395 0.160271697998047
      vertex 0.0887396774291992 0.0452000007629395 0.160271697998047
      vertex 0.0896132583618164 0.0452000007629395 0.158618789672852
    endloop
  endfacet
  facet normal -0.916560727623616 0 -0.399895527079346
    outer loop
      vertex 0.0887396774291992 0.0432000007629395 0.160271697998047
      vertex 0.0879920501708984 0.0432000007629395 0.161985260009766
      vertex 0.0887396774291992 0.0452000007629395 0.160271697998047
    endloop
  endfacet
  facet normal -0.846724845067016 0 -0.532031048667499
    outer loop
      vertex 0.0896132583618164 0.0432000007629395 0.158618789672852
      vertex 0.0896132583618164 0.0452000007629395 0.158618789672852
      vertex 0.0906079254150391 0.0452000007629395 0.157035781860352
    endloop
  endfacet
  facet normal -0.884116857065209 0 -0.467265859070762
    outer loop
      vertex 0.0896132583618164 0.0432000007629395 0.158618789672852
      vertex 0.0887396774291992 0.0432000007629395 0.160271697998047
      vertex 0.0896132583618164 0.0452000007629395 0.158618789672852
    endloop
  endfacet
  facet normal -0.846724845067016 0 -0.532031048667499
    outer loop
      vertex 0.0906079254150391 0.0432000007629395 0.157035781860352
      vertex 0.0896132583618164 0.0432000007629395 0.158618789672852
      vertex 0.0906079254150391 0.0452000007629395 0.157035781860352
    endloop
  endfacet
  facet normal -0.804597105469188 0 -0.593821099213058
    outer loop
      vertex 0.0906079254150391 0.0432000007629395 0.157035781860352
      vertex 0.0906079254150391 0.0452000007629395 0.157035781860352
      vertex 0.0917181091308594 0.0452000007629395 0.155531539916992
    endloop
  endfacet
  facet normal -0.804597105469188 0 -0.593821099213058
    outer loop
      vertex 0.0917181091308594 0.0432000007629395 0.155531539916992
      vertex 0.0906079254150391 0.0432000007629395 0.157035781860352
      vertex 0.0917181091308594 0.0452000007629395 0.155531539916992
    endloop
  endfacet
  facet normal -0.75797066104023 0 -0.652288645464748
    outer loop
      vertex 0.0917181091308594 0.0432000007629395 0.155531539916992
      vertex 0.0917181091308594 0.0452000007629395 0.155531539916992
      vertex 0.0929375991821289 0.0452000007629395 0.154114471435547
    endloop
  endfacet
  facet normal -0.75797066104023 0 -0.652288645464748
    outer loop
      vertex 0.0929375991821289 0.0432000007629395 0.154114471435547
      vertex 0.0917181091308594 0.0432000007629395 0.155531539916992
      vertex 0.0929375991821289 0.0452000007629395 0.154114471435547
    endloop
  endfacet
  facet normal -0.707106781186547 0 -0.707106781186547
    outer loop
      vertex 0.0929375991821289 0.0432000007629395 0.154114471435547
      vertex 0.0929375991821289 0.0452000007629395 0.154114471435547
      vertex 0.0942595748901367 0.0452000007629395 0.152792495727539
    endloop
  endfacet
  facet normal -0.707106781186547 0 -0.707106781186547
    outer loop
      vertex 0.0942595748901367 0.0432000007629395 0.152792495727539
      vertex 0.0929375991821289 0.0432000007629395 0.154114471435547
      vertex 0.0942595748901367 0.0452000007629395 0.152792495727539
    endloop
  endfacet
  facet normal -0.652288972355425 0 -0.757970379727007
    outer loop
      vertex 0.0942595748901367 0.0432000007629395 0.152792495727539
      vertex 0.0942595748901367 0.0452000007629395 0.152792495727539
      vertex 0.0956766510009766 0.0452000007629395 0.151572998046875
    endloop
  endfacet
  facet normal -0.652288972355425 0 -0.757970379727007
    outer loop
      vertex 0.0956766510009766 0.0432000007629395 0.151572998046875
      vertex 0.0942595748901367 0.0432000007629395 0.152792495727539
      vertex 0.0956766510009766 0.0452000007629395 0.151572998046875
    endloop
  endfacet
  facet normal -0.593821099213058 0 -0.804597105469188
    outer loop
      vertex 0.0956766510009766 0.0432000007629395 0.151572998046875
      vertex 0.0956766510009766 0.0452000007629395 0.151572998046875
      vertex 0.0971808929443359 0.0452000007629395 0.150462814331055
    endloop
  endfacet
  facet normal -0.593821099213058 0 -0.804597105469188
    outer loop
      vertex 0.0971808929443359 0.0432000007629395 0.150462814331055
      vertex 0.0956766510009766 0.0432000007629395 0.151572998046875
      vertex 0.0971808929443359 0.0452000007629395 0.150462814331055
    endloop
  endfacet
  facet normal -0.532029961284791 0 -0.846725528312041
    outer loop
      vertex 0.0971808929443359 0.0432000007629395 0.150462814331055
      vertex 0.0971808929443359 0.0452000007629395 0.150462814331055
      vertex 0.0987638931274414 0.0452000007629395 0.149468154907227
    endloop
  endfacet
  facet normal -0.532029961284791 0 -0.846725528312041
    outer loop
      vertex 0.0987638931274414 0.0432000007629395 0.149468154907227
      vertex 0.0971808929443359 0.0432000007629395 0.150462814331055
      vertex 0.0987638931274414 0.0452000007629395 0.149468154907227
    endloop
  endfacet
  facet normal -0.467265859070762 0 -0.884116857065209
    outer loop
      vertex 0.0987638931274414 0.0432000007629395 0.149468154907227
      vertex 0.0987638931274414 0.0452000007629395 0.149468154907227
      vertex 0.100416801452637 0.0452000007629395 0.148594573974609
    endloop
  endfacet
  facet normal -0.467265859070762 0 -0.884116857065209
    outer loop
      vertex 0.100416801452637 0.0432000007629395 0.148594573974609
      vertex 0.0987638931274414 0.0432000007629395 0.149468154907227
      vertex 0.100416801452637 0.0452000007629395 0.148594573974609
    endloop
  endfacet
  facet normal -0.399890603071193 0 -0.916562875953067
    outer loop
      vertex 0.100416801452637 0.0432000007629395 0.148594573974609
      vertex 0.100416801452637 0.0452000007629395 0.148594573974609
      vertex 0.10213037109375 0.0452000007629395 0.147846954345703
    endloop
  endfacet
  facet normal -0.399890603071193 0 -0.916562875953067
    outer loop
      vertex 0.10213037109375 0.0432000007629395 0.147846954345703
      vertex 0.100416801452637 0.0432000007629395 0.148594573974609
      vertex 0.10213037109375 0.0452000007629395 0.147846954345703
    endloop
  endfacet
  facet normal -0.330279168039504 0 -0.943883293187846
    outer loop
      vertex 0.10213037109375 0.0432000007629395 0.147846954345703
      vertex 0.10213037109375 0.0452000007629395 0.147846954345703
      vertex 0.10389501953125 0.0452000007629395 0.147229476928711
    endloop
  endfacet
  facet normal -0.330279168039504 0 -0.943883293187846
    outer loop
      vertex 0.10389501953125 0.0432000007629395 0.147229476928711
      vertex 0.10213037109375 0.0432000007629395 0.147846954345703
      vertex 0.10389501953125 0.0452000007629395 0.147229476928711
    endloop
  endfacet
  facet normal -0.258823728300729 0 -0.965924571417722
    outer loop
      vertex 0.10389501953125 0.0432000007629395 0.147229476928711
      vertex 0.10389501953125 0.0452000007629395 0.147229476928711
      vertex 0.105700874328613 0.0452000007629395 0.146745590209961
    endloop
  endfacet
  facet normal -0.258823728300729 0 -0.965924571417722
    outer loop
      vertex 0.105700874328613 0.0432000007629395 0.146745590209961
      vertex 0.10389501953125 0.0432000007629395 0.147229476928711
      vertex 0.105700874328613 0.0452000007629395 0.146745590209961
    endloop
  endfacet
  facet normal -0.185907320942531 0 -0.982567284220257
    outer loop
      vertex 0.105700874328613 0.0432000007629395 0.146745590209961
      vertex 0.105700874328613 0.0452000007629395 0.146745590209961
      vertex 0.107537841796875 0.0452000007629395 0.146398025512695
    endloop
  endfacet
  facet normal -0.111970371931263 0 -0.993711545575261
    outer loop
      vertex 0.107537841796875 0.0432000007629395 0.146398025512695
      vertex 0.107537841796875 0.0452000007629395 0.146398025512695
      vertex 0.109395645141602 0.0452000007629395 0.146188690185547
    endloop
  endfacet
  facet normal -0.185907320942531 0 -0.982567284220257
    outer loop
      vertex 0.107537841796875 0.0432000007629395 0.146398025512695
      vertex 0.105700874328613 0.0432000007629395 0.146745590209961
      vertex 0.107537841796875 0.0452000007629395 0.146398025512695
    endloop
  endfacet
  facet normal -0.111970371931263 0 -0.993711545575261
    outer loop
      vertex 0.109395645141602 0.0432000007629395 0.146188690185547
      vertex 0.107537841796875 0.0432000007629395 0.146398025512695
      vertex 0.109395645141602 0.0452000007629395 0.146188690185547
    endloop
  endfacet
  facet normal -0.0373888468075557 0 -0.999300792621722
    outer loop
      vertex 0.109395645141602 0.0432000007629395 0.146188690185547
      vertex 0.109395645141602 0.0452000007629395 0.146188690185547
      vertex 0.111263893127441 0.0452000007629395 0.146118789672852
    endloop
  endfacet
  facet normal 0.0373886943361813 0 -0.999300798326428
    outer loop
      vertex 0.111263893127441 0.0432000007629395 0.146118789672852
      vertex 0.111263893127441 0.0452000007629395 0.146118789672852
      vertex 0.113132148742676 0.0452000007629395 0.146188690185547
    endloop
  endfacet
  facet normal -0.0373888468075557 0 -0.999300792621722
    outer loop
      vertex 0.111263893127441 0.0432000007629395 0.146118789672852
      vertex 0.109395645141602 0.0432000007629395 0.146188690185547
      vertex 0.111263893127441 0.0452000007629395 0.146118789672852
    endloop
  endfacet
  facet normal 0.111970371931263 0 -0.993711545575261
    outer loop
      vertex 0.113132148742676 0.0432000007629395 0.146188690185547
      vertex 0.113132148742676 0.0452000007629395 0.146188690185547
      vertex 0.114989952087402 0.0452000007629395 0.146398025512695
    endloop
  endfacet
  facet normal 0.0373886943361813 0 -0.999300798326428
    outer loop
      vertex 0.113132148742676 0.0432000007629395 0.146188690185547
      vertex 0.111263893127441 0.0432000007629395 0.146118789672852
      vertex 0.113132148742676 0.0452000007629395 0.146188690185547
    endloop
  endfacet
  facet normal 0.185907320942531 0 -0.982567284220257
    outer loop
      vertex 0.114989952087402 0.0432000007629395 0.146398025512695
      vertex 0.114989952087402 0.0452000007629395 0.146398025512695
      vertex 0.116826919555664 0.0452000007629395 0.146745590209961
    endloop
  endfacet
  facet normal 0.111970371931263 0 -0.993711545575261
    outer loop
      vertex 0.114989952087402 0.0432000007629395 0.146398025512695
      vertex 0.113132148742676 0.0432000007629395 0.146188690185547
      vertex 0.114989952087402 0.0452000007629395 0.146398025512695
    endloop
  endfacet
  facet normal 0.258823728300729 0 -0.965924571417722
    outer loop
      vertex 0.116826919555664 0.0432000007629395 0.146745590209961
      vertex 0.116826919555664 0.0452000007629395 0.146745590209961
      vertex 0.118632774353027 0.0452000007629395 0.147229476928711
    endloop
  endfacet
  facet normal 0.185907320942531 0 -0.982567284220257
    outer loop
      vertex 0.116826919555664 0.0432000007629395 0.146745590209961
      vertex 0.114989952087402 0.0432000007629395 0.146398025512695
      vertex 0.116826919555664 0.0452000007629395 0.146745590209961
    endloop
  endfacet
  facet normal 0.330279168039504 0 -0.943883293187846
    outer loop
      vertex 0.118632774353027 0.0432000007629395 0.147229476928711
      vertex 0.118632774353027 0.0452000007629395 0.147229476928711
      vertex 0.120397422790527 0.0452000007629395 0.147846954345703
    endloop
  endfacet
  facet normal 0.258823728300729 0 -0.965924571417722
    outer loop
      vertex 0.118632774353027 0.0432000007629395 0.147229476928711
      vertex 0.116826919555664 0.0432000007629395 0.146745590209961
      vertex 0.118632774353027 0.0452000007629395 0.147229476928711
    endloop
  endfacet
  facet normal 0.399890603071193 0 -0.916562875953067
    outer loop
      vertex 0.120397422790527 0.0432000007629395 0.147846954345703
      vertex 0.120397422790527 0.0452000007629395 0.147846954345703
      vertex 0.122110992431641 0.0452000007629395 0.148594573974609
    endloop
  endfacet
  facet normal 0.330279168039504 0 -0.943883293187846
    outer loop
      vertex 0.120397422790527 0.0432000007629395 0.147846954345703
      vertex 0.118632774353027 0.0432000007629395 0.147229476928711
      vertex 0.120397422790527 0.0452000007629395 0.147846954345703
    endloop
  endfacet
  facet normal 0.467267544948389 0 -0.884115966057567
    outer loop
      vertex 0.122110992431641 0.0432000007629395 0.148594573974609
      vertex 0.122110992431641 0.0452000007629395 0.148594573974609
      vertex 0.123763893127441 0.0452000007629395 0.149468154907227
    endloop
  endfacet
  facet normal 0.399890603071193 0 -0.916562875953067
    outer loop
      vertex 0.122110992431641 0.0432000007629395 0.148594573974609
      vertex 0.120397422790527 0.0432000007629395 0.147846954345703
      vertex 0.122110992431641 0.0452000007629395 0.148594573974609
    endloop
  endfacet
  facet normal 0.532028122930124 0 -0.846726683417647
    outer loop
      vertex 0.123763893127441 0.0432000007629395 0.149468154907227
      vertex 0.123763893127441 0.0452000007629395 0.149468154907227
      vertex 0.125346900939941 0.0452000007629395 0.150462814331055
    endloop
  endfacet
  facet normal 0.467267544948389 0 -0.884115966057567
    outer loop
      vertex 0.123763893127441 0.0432000007629395 0.149468154907227
      vertex 0.122110992431641 0.0432000007629395 0.148594573974609
      vertex 0.123763893127441 0.0452000007629395 0.149468154907227
    endloop
  endfacet
  facet normal 0.593821099213058 0 -0.804597105469188
    outer loop
      vertex 0.125346900939941 0.0432000007629395 0.150462814331055
      vertex 0.125346900939941 0.0452000007629395 0.150462814331055
      vertex 0.126851142883301 0.0452000007629395 0.151572998046875
    endloop
  endfacet
  facet normal 0.532028122930124 0 -0.846726683417647
    outer loop
      vertex 0.125346900939941 0.0432000007629395 0.150462814331055
      vertex 0.123763893127441 0.0432000007629395 0.149468154907227
      vertex 0.125346900939941 0.0452000007629395 0.150462814331055
    endloop
  endfacet
  facet normal 0.652288972355425 0 -0.757970379727007
    outer loop
      vertex 0.126851142883301 0.0432000007629395 0.151572998046875
      vertex 0.126851142883301 0.0452000007629395 0.151572998046875
      vertex 0.128268218994141 0.0452000007629395 0.152792495727539
    endloop
  endfacet
  facet normal 0.593821099213058 0 -0.804597105469188
    outer loop
      vertex 0.126851142883301 0.0432000007629395 0.151572998046875
      vertex 0.125346900939941 0.0432000007629395 0.150462814331055
      vertex 0.126851142883301 0.0452000007629395 0.151572998046875
    endloop
  endfacet
  facet normal 0.707106781186547 0 -0.707106781186547
    outer loop
      vertex 0.128268218994141 0.0432000007629395 0.152792495727539
      vertex 0.128268218994141 0.0452000007629395 0.152792495727539
      vertex 0.129590194702148 0.0452000007629395 0.154114471435547
    endloop
  endfacet
  facet normal 0.652288972355425 0 -0.757970379727007
    outer loop
      vertex 0.128268218994141 0.0432000007629395 0.152792495727539
      vertex 0.126851142883301 0.0432000007629395 0.151572998046875
      vertex 0.128268218994141 0.0452000007629395 0.152792495727539
    endloop
  endfacet
  facet normal 0.707106781186547 0 -0.707106781186547
    outer loop
      vertex 0.129590194702148 0.0432000007629395 0.154114471435547
      vertex 0.128268218994141 0.0432000007629395 0.152792495727539
      vertex 0.129590194702148 0.0452000007629395 0.154114471435547
    endloop
  endfacet
  facet normal 0.757972678682746 0 -0.652286300921998
    outer loop
      vertex 0.129590194702148 0.0432000007629395 0.154114471435547
      vertex 0.129590194702148 0.0452000007629395 0.154114471435547
      vertex 0.130809677124023 0.0452000007629395 0.155531539916992
    endloop
  endfacet
  facet normal 0.757972678682746 0 -0.652286300921998
    outer loop
      vertex 0.130809677124023 0.0432000007629395 0.155531539916992
      vertex 0.129590194702148 0.0432000007629395 0.154114471435547
      vertex 0.130809677124023 0.0452000007629395 0.155531539916992
    endloop
  endfacet
  facet normal 0.804597105469188 0 -0.593821099213058
    outer loop
      vertex 0.130809677124023 0.0432000007629395 0.155531539916992
      vertex 0.130809677124023 0.0452000007629395 0.155531539916992
      vertex 0.131919860839844 0.0452000007629395 0.157035781860352
    endloop
  endfacet
  facet normal 0.804597105469188 0 -0.593821099213058
    outer loop
      vertex 0.131919860839844 0.0432000007629395 0.157035781860352
      vertex 0.130809677124023 0.0432000007629395 0.155531539916992
      vertex 0.131919860839844 0.0452000007629395 0.157035781860352
    endloop
  endfacet
  facet normal 0.846723006714257 0 -0.532033974385818
    outer loop
      vertex 0.131919860839844 0.0432000007629395 0.157035781860352
      vertex 0.131919860839844 0.0452000007629395 0.157035781860352
      vertex 0.132914535522461 0.0452000007629395 0.158618789672852
    endloop
  endfacet
  facet normal 0.846723006714257 0 -0.532033974385818
    outer loop
      vertex 0.132914535522461 0.0432000007629395 0.158618789672852
      vertex 0.131919860839844 0.0432000007629395 0.157035781860352
      vertex 0.132914535522461 0.0452000007629395 0.158618789672852
    endloop
  endfacet
  facet normal 0.884116857065209 0 -0.467265859070762
    outer loop
      vertex 0.132914535522461 0.0432000007629395 0.158618789672852
      vertex 0.132914535522461 0.0452000007629395 0.158618789672852
      vertex 0.133788116455078 0.0452000007629395 0.160271697998047
    endloop
  endfacet
  facet normal 0.884116857065209 0 -0.467265859070762
    outer loop
      vertex 0.133788116455078 0.0432000007629395 0.160271697998047
      vertex 0.132914535522461 0.0432000007629395 0.158618789672852
      vertex 0.133788116455078 0.0452000007629395 0.160271697998047
    endloop
  endfacet
  facet normal 0.916562223370585 0 -0.399892098809129
    outer loop
      vertex 0.133788116455078 0.0432000007629395 0.160271697998047
      vertex 0.133788116455078 0.0452000007629395 0.160271697998047
      vertex 0.134535736083984 0.0452000007629395 0.161985260009766
    endloop
  endfacet
  facet normal 0.916562223370585 0 -0.399892098809129
    outer loop
      vertex 0.134535736083984 0.0432000007629395 0.161985260009766
      vertex 0.133788116455078 0.0432000007629395 0.160271697998047
      vertex 0.134535736083984 0.0452000007629395 0.161985260009766
    endloop
  endfacet
  facet normal 0.943883293187846 0 -0.330279168039504
    outer loop
      vertex 0.134535736083984 0.0432000007629395 0.161985260009766
      vertex 0.134535736083984 0.0452000007629395 0.161985260009766
      vertex 0.135153213500977 0.0452000007629395 0.163749908447266
    endloop
  endfacet
  facet normal 0.943883293187846 0 -0.330279168039504
    outer loop
      vertex 0.135153213500977 0.0432000007629395 0.163749908447266
      vertex 0.134535736083984 0.0432000007629395 0.161985260009766
      vertex 0.135153213500977 0.0452000007629395 0.163749908447266
    endloop
  endfacet
  facet normal 0.965924844791006 0 -0.258822708075374
    outer loop
      vertex 0.135153213500977 0.0432000007629395 0.163749908447266
      vertex 0.135153213500977 0.0452000007629395 0.163749908447266
      vertex 0.135637100219727 0.0452000007629395 0.165555770874023
    endloop
  endfacet
  facet normal 0.982567143178891 0 -0.18590806638033
    outer loop
      vertex 0.135637100219727 0.0432000007629395 0.165555770874023
      vertex 0.135637100219727 0.0452000007629395 0.165555770874023
      vertex 0.135984664916992 0.0452000007629395 0.167392730712891
    endloop
  endfacet
  facet normal 0.965924844791006 0 -0.258822708075374
    outer loop
      vertex 0.135637100219727 0.0432000007629395 0.165555770874023
      vertex 0.135153213500977 0.0432000007629395 0.163749908447266
      vertex 0.135637100219727 0.0452000007629395 0.165555770874023
    endloop
  endfacet
  facet normal 0.993712453665251 0 -0.111962312545727
    outer loop
      vertex 0.135984664916992 0.0432000007629395 0.167392730712891
      vertex 0.135984664916992 0.0452000007629395 0.167392730712891
      vertex 0.136193984985352 0.0452000007629395 0.169250534057617
    endloop
  endfacet
  facet normal 0.982567143178891 0 -0.18590806638033
    outer loop
      vertex 0.135984664916992 0.0432000007629395 0.167392730712891
      vertex 0.135637100219727 0.0432000007629395 0.165555770874023
      vertex 0.135984664916992 0.0452000007629395 0.167392730712891
    endloop
  endfacet
  facet normal 0.999300493351778 0 -0.0373968446114592
    outer loop
      vertex 0.136193984985352 0.0432000007629395 0.169250534057617
      vertex 0.136193984985352 0.0452000007629395 0.169250534057617
      vertex 0.136263900756836 0.0452000007629395 0.171118789672852
    endloop
  endfacet
  facet normal 0.993712453665251 0 -0.111962312545727
    outer loop
      vertex 0.136193984985352 0.0432000007629395 0.169250534057617
      vertex 0.135984664916992 0.0432000007629395 0.167392730712891
      vertex 0.136193984985352 0.0452000007629395 0.169250534057617
    endloop
  endfacet
  facet normal 0.999300493351778 -0 0.0373968446114592
    outer loop
      vertex 0.136263900756836 0.0432000007629395 0.171118789672852
      vertex 0.136263900756836 0.0452000007629395 0.171118789672852
      vertex 0.136193984985352 0.0452000007629395 0.172987045288086
    endloop
  endfacet
  facet normal 0.999300493351778 0 -0.0373968446114592
    outer loop
      vertex 0.136263900756836 0.0432000007629395 0.171118789672852
      vertex 0.136193984985352 0.0432000007629395 0.169250534057617
      vertex 0.136263900756836 0.0452000007629395 0.171118789672852
    endloop
  endfacet
  facet normal 0.993712453665251 -0 0.111962312545727
    outer loop
      vertex 0.136193984985352 0.0432000007629395 0.172987045288086
      vertex 0.136193984985352 0.0452000007629395 0.172987045288086
      vertex 0.135984664916992 0.0452000007629395 0.174844848632812
    endloop
  endfacet
  facet normal 0.999300493351778 -0 0.0373968446114592
    outer loop
      vertex 0.136193984985352 0.0432000007629395 0.172987045288086
      vertex 0.136263900756836 0.0432000007629395 0.171118789672852
      vertex 0.136193984985352 0.0452000007629395 0.172987045288086
    endloop
  endfacet
  facet normal 0.982567143178891 -0 0.18590806638033
    outer loop
      vertex 0.135984664916992 0.0432000007629395 0.174844848632812
      vertex 0.135984664916992 0.0452000007629395 0.174844848632812
      vertex 0.135637100219727 0.0452000007629395 0.17668180847168
    endloop
  endfacet
  facet normal 0.993712453665251 -0 0.111962312545727
    outer loop
      vertex 0.135984664916992 0.0432000007629395 0.174844848632812
      vertex 0.136193984985352 0.0432000007629395 0.172987045288086
      vertex 0.135984664916992 0.0452000007629395 0.174844848632812
    endloop
  endfacet
  facet normal 0.965924844791006 -0 0.258822708075374
    outer loop
      vertex 0.135637100219727 0.0432000007629395 0.17668180847168
      vertex 0.135637100219727 0.0452000007629395 0.17668180847168
      vertex 0.135153213500977 0.0452000007629395 0.178487670898438
    endloop
  endfacet
  facet normal 0.982567143178891 -0 0.18590806638033
    outer loop
      vertex 0.135637100219727 0.0432000007629395 0.17668180847168
      vertex 0.135984664916992 0.0432000007629395 0.174844848632812
      vertex 0.135637100219727 0.0452000007629395 0.17668180847168
    endloop
  endfacet
  facet normal 0.943883293187846 -0 0.330279168039504
    outer loop
      vertex 0.135153213500977 0.0432000007629395 0.178487670898438
      vertex 0.135153213500977 0.0452000007629395 0.178487670898438
      vertex 0.134535736083984 0.0452000007629395 0.180252319335937
    endloop
  endfacet
  facet normal 0.965924844791006 -0 0.258822708075374
    outer loop
      vertex 0.135153213500977 0.0432000007629395 0.178487670898438
      vertex 0.135637100219727 0.0432000007629395 0.17668180847168
      vertex 0.135153213500977 0.0452000007629395 0.178487670898438
    endloop
  endfacet
  facet normal 0.943883293187846 -0 0.330279168039504
    outer loop
      vertex 0.134535736083984 0.0432000007629395 0.180252319335937
      vertex 0.135153213500977 0.0432000007629395 0.178487670898438
      vertex 0.134535736083984 0.0452000007629395 0.180252319335937
    endloop
  endfacet
  facet normal 0.884116857065209 -0 0.467265859070762
    outer loop
      vertex 0.133788116455078 0.0432000007629395 0.181965881347656
      vertex 0.133788116455078 0.0452000007629395 0.181965881347656
      vertex 0.132914535522461 0.0452000007629395 0.183618789672852
    endloop
  endfacet
  facet normal 0.916562223370585 -0 0.399892098809129
    outer loop
      vertex 0.133788116455078 0.0432000007629395 0.181965881347656
      vertex 0.134535736083984 0.0452000007629395 0.180252319335937
      vertex 0.133788116455078 0.0452000007629395 0.181965881347656
    endloop
  endfacet
  facet normal 0.916562223370585 0 0.399892098809129
    outer loop
      vertex 0.133788116455078 0.0432000007629395 0.181965881347656
      vertex 0.134535736083984 0.0432000007629395 0.180252319335937
      vertex 0.134535736083984 0.0452000007629395 0.180252319335937
    endloop
  endfacet
  facet normal 0.846723006714257 -0 0.532033974385818
    outer loop
      vertex 0.132914535522461 0.0432000007629395 0.183618789672852
      vertex 0.132914535522461 0.0452000007629395 0.183618789672852
      vertex 0.131919860839844 0.0452000007629395 0.185201797485352
    endloop
  endfacet
  facet normal 0.884116857065209 -0 0.467265859070762
    outer loop
      vertex 0.132914535522461 0.0432000007629395 0.183618789672852
      vertex 0.133788116455078 0.0432000007629395 0.181965881347656
      vertex 0.132914535522461 0.0452000007629395 0.183618789672852
    endloop
  endfacet
  facet normal 0.804597105469188 -0 0.593821099213058
    outer loop
      vertex 0.131919860839844 0.0432000007629395 0.185201797485352
      vertex 0.131919860839844 0.0452000007629395 0.185201797485352
      vertex 0.130809677124023 0.0452000007629395 0.186706039428711
    endloop
  endfacet
  facet normal 0.846723006714257 -0 0.532033974385818
    outer loop
      vertex 0.131919860839844 0.0432000007629395 0.185201797485352
      vertex 0.132914535522461 0.0432000007629395 0.183618789672852
      vertex 0.131919860839844 0.0452000007629395 0.185201797485352
    endloop
  endfacet
  facet normal 0.757972678682746 -0 0.652286300921998
    outer loop
      vertex 0.130809677124023 0.0432000007629395 0.186706039428711
      vertex 0.130809677124023 0.0452000007629395 0.186706039428711
      vertex 0.129590194702148 0.0452000007629395 0.188123107910156
    endloop
  endfacet
  facet normal 0.804597105469188 -0 0.593821099213058
    outer loop
      vertex 0.130809677124023 0.0432000007629395 0.186706039428711
      vertex 0.131919860839844 0.0432000007629395 0.185201797485352
      vertex 0.130809677124023 0.0452000007629395 0.186706039428711
    endloop
  endfacet
  facet normal 0.707106781186547 -0 0.707106781186547
    outer loop
      vertex 0.129590194702148 0.0432000007629395 0.188123107910156
      vertex 0.129590194702148 0.0452000007629395 0.188123107910156
      vertex 0.128268218994141 0.0452000007629395 0.189445083618164
    endloop
  endfacet
  facet normal 0.757972678682746 -0 0.652286300921998
    outer loop
      vertex 0.129590194702148 0.0432000007629395 0.188123107910156
      vertex 0.130809677124023 0.0432000007629395 0.186706039428711
      vertex 0.129590194702148 0.0452000007629395 0.188123107910156
    endloop
  endfacet
  facet normal 0.652288972355425 -0 0.757970379727007
    outer loop
      vertex 0.128268218994141 0.0432000007629395 0.189445083618164
      vertex 0.128268218994141 0.0452000007629395 0.189445083618164
      vertex 0.126851142883301 0.0452000007629395 0.190664581298828
    endloop
  endfacet
  facet normal 0.707106781186547 -0 0.707106781186547
    outer loop
      vertex 0.128268218994141 0.0432000007629395 0.189445083618164
      vertex 0.129590194702148 0.0432000007629395 0.188123107910156
      vertex 0.128268218994141 0.0452000007629395 0.189445083618164
    endloop
  endfacet
  facet normal 0.593821099213058 -0 0.804597105469188
    outer loop
      vertex 0.126851142883301 0.0432000007629395 0.190664581298828
      vertex 0.126851142883301 0.0452000007629395 0.190664581298828
      vertex 0.125346900939941 0.0452000007629395 0.191774765014648
    endloop
  endfacet
  facet normal 0.652288972355425 -0 0.757970379727007
    outer loop
      vertex 0.126851142883301 0.0432000007629395 0.190664581298828
      vertex 0.128268218994141 0.0432000007629395 0.189445083618164
      vertex 0.126851142883301 0.0452000007629395 0.190664581298828
    endloop
  endfacet
  facet normal 0.532028122930124 -0 0.846726683417647
    outer loop
      vertex 0.125346900939941 0.0432000007629395 0.191774765014648
      vertex 0.125346900939941 0.0452000007629395 0.191774765014648
      vertex 0.123763893127441 0.0452000007629395 0.192769424438477
    endloop
  endfacet
  facet normal 0.593821099213058 -0 0.804597105469188
    outer loop
      vertex 0.125346900939941 0.0432000007629395 0.191774765014648
      vertex 0.126851142883301 0.0432000007629395 0.190664581298828
      vertex 0.125346900939941 0.0452000007629395 0.191774765014648
    endloop
  endfacet
  facet normal 0.467267544948389 -0 0.884115966057567
    outer loop
      vertex 0.123763893127441 0.0432000007629395 0.192769424438477
      vertex 0.123763893127441 0.0452000007629395 0.192769424438477
      vertex 0.122110992431641 0.0452000007629395 0.193643005371094
    endloop
  endfacet
  facet normal 0.532028122930124 -0 0.846726683417647
    outer loop
      vertex 0.123763893127441 0.0432000007629395 0.192769424438477
      vertex 0.125346900939941 0.0432000007629395 0.191774765014648
      vertex 0.123763893127441 0.0452000007629395 0.192769424438477
    endloop
  endfacet
  facet normal 0.467267544948389 -0 0.884115966057567
    outer loop
      vertex 0.122110992431641 0.0432000007629395 0.193643005371094
      vertex 0.123763893127441 0.0432000007629395 0.192769424438477
      vertex 0.122110992431641 0.0452000007629395 0.193643005371094
    endloop
  endfacet
  facet normal 0.39989745957896 -0 0.916559884471437
    outer loop
      vertex 0.122110992431641 0.0432000007629395 0.193643005371094
      vertex 0.122110992431641 0.0452000007629395 0.193643005371094
      vertex 0.120397422790527 0.0452000007629395 0.194390640258789
    endloop
  endfacet
  facet normal 0.39989745957896 -0 0.916559884471437
    outer loop
      vertex 0.120397422790527 0.0432000007629395 0.194390640258789
      vertex 0.122110992431641 0.0432000007629395 0.193643005371094
      vertex 0.120397422790527 0.0452000007629395 0.194390640258789
    endloop
  endfacet
  facet normal 0.330279168039504 -0 0.943883293187846
    outer loop
      vertex 0.120397422790527 0.0432000007629395 0.194390640258789
      vertex 0.120397422790527 0.0452000007629395 0.194390640258789
      vertex 0.118632774353027 0.0452000007629395 0.195008117675781
    endloop
  endfacet
  facet normal 0.258816113329621 -0 0.965926611850481
    outer loop
      vertex 0.118632774353027 0.0432000007629395 0.195008117675781
      vertex 0.118632774353027 0.0452000007629395 0.195008117675781
      vertex 0.116826919555664 0.0452000007629395 0.195491989135742
    endloop
  endfacet
  facet normal 0.330279168039504 -0 0.943883293187846
    outer loop
      vertex 0.118632774353027 0.0432000007629395 0.195008117675781
      vertex 0.120397422790527 0.0432000007629395 0.194390640258789
      vertex 0.118632774353027 0.0452000007629395 0.195008117675781
    endloop
  endfacet
  facet normal 0.185907320942531 -0 0.982567284220257
    outer loop
      vertex 0.116826919555664 0.0432000007629395 0.195491989135742
      vertex 0.116826919555664 0.0452000007629395 0.195491989135742
      vertex 0.114989952087402 0.0452000007629395 0.195839553833008
    endloop
  endfacet
  facet normal 0.258816113329621 -0 0.965926611850481
    outer loop
      vertex 0.116826919555664 0.0432000007629395 0.195491989135742
      vertex 0.118632774353027 0.0432000007629395 0.195008117675781
      vertex 0.116826919555664 0.0452000007629395 0.195491989135742
    endloop
  endfacet
  facet normal 0.111970371931263 -0 0.993711545575261
    outer loop
      vertex 0.114989952087402 0.0432000007629395 0.195839553833008
      vertex 0.114989952087402 0.0452000007629395 0.195839553833008
      vertex 0.113132148742676 0.0452000007629395 0.196048889160156
    endloop
  endfacet
  facet normal 0.185907320942531 -0 0.982567284220257
    outer loop
      vertex 0.114989952087402 0.0432000007629395 0.195839553833008
      vertex 0.116826919555664 0.0432000007629395 0.195491989135742
      vertex 0.114989952087402 0.0452000007629395 0.195839553833008
    endloop
  endfacet
  facet normal 0.111970371931263 -0 0.993711545575261
    outer loop
      vertex 0.113132148742676 0.0432000007629395 0.196048889160156
      vertex 0.114989952087402 0.0432000007629395 0.195839553833008
      vertex 0.113132148742676 0.0452000007629395 0.196048889160156
    endloop
  endfacet
  facet normal -0.0373888468075557 0 0.999300792621722
    outer loop
      vertex 0.111263893127441 0.0432000007629395 0.196118789672852
      vertex 0.111263893127441 0.0452000007629395 0.196118789672852
      vertex 0.109395645141602 0.0452000007629395 0.196048889160156
    endloop
  endfacet
  facet normal 0.0373886943361813 -0 0.999300798326428
    outer loop
      vertex 0.111263893127441 0.0432000007629395 0.196118789672852
      vertex 0.113132148742676 0.0452000007629395 0.196048889160156
      vertex 0.111263893127441 0.0452000007629395 0.196118789672852
    endloop
  endfacet
  facet normal 0.0373886943361813 0 0.999300798326428
    outer loop
      vertex 0.111263893127441 0.0432000007629395 0.196118789672852
      vertex 0.113132148742676 0.0432000007629395 0.196048889160156
      vertex 0.113132148742676 0.0452000007629395 0.196048889160156
    endloop
  endfacet
  facet normal -0.0373888468075557 0 0.999300792621722
    outer loop
      vertex 0.109395645141602 0.0432000007629395 0.196048889160156
      vertex 0.111263893127441 0.0432000007629395 0.196118789672852
      vertex 0.109395645141602 0.0452000007629395 0.196048889160156
    endloop
  endfacet
  facet normal -0.185907320942531 0 0.982567284220257
    outer loop
      vertex 0.107537841796875 0.0432000007629395 0.195839553833008
      vertex 0.107537841796875 0.0452000007629395 0.195839553833008
      vertex 0.105700874328613 0.0452000007629395 0.195491989135742
    endloop
  endfacet
  facet normal -0.111970371931263 0 0.993711545575261
    outer loop
      vertex 0.107537841796875 0.0432000007629395 0.195839553833008
      vertex 0.109395645141602 0.0452000007629395 0.196048889160156
      vertex 0.107537841796875 0.0452000007629395 0.195839553833008
    endloop
  endfacet
  facet normal -0.111970371931263 0 0.993711545575261
    outer loop
      vertex 0.107537841796875 0.0432000007629395 0.195839553833008
      vertex 0.109395645141602 0.0432000007629395 0.196048889160156
      vertex 0.109395645141602 0.0452000007629395 0.196048889160156
    endloop
  endfacet
  facet normal -0.258816113329621 0 0.965926611850481
    outer loop
      vertex 0.105700874328613 0.0432000007629395 0.195491989135742
      vertex 0.105700874328613 0.0452000007629395 0.195491989135742
      vertex 0.10389501953125 0.0452000007629395 0.195008117675781
    endloop
  endfacet
  facet normal -0.185907320942531 0 0.982567284220257
    outer loop
      vertex 0.105700874328613 0.0432000007629395 0.195491989135742
      vertex 0.107537841796875 0.0432000007629395 0.195839553833008
      vertex 0.105700874328613 0.0452000007629395 0.195491989135742
    endloop
  endfacet
  facet normal -0.258816113329621 0 0.965926611850481
    outer loop
      vertex 0.10389501953125 0.0432000007629395 0.195008117675781
      vertex 0.105700874328613 0.0432000007629395 0.195491989135742
      vertex 0.10389501953125 0.0452000007629395 0.195008117675781
    endloop
  endfacet
  facet normal -0.39989745957896 0 0.916559884471437
    outer loop
      vertex 0.10213037109375 0.0432000007629395 0.194390640258789
      vertex 0.10213037109375 0.0452000007629395 0.194390640258789
      vertex 0.100416801452637 0.0452000007629395 0.193643005371094
    endloop
  endfacet
  facet normal -0.330279168039504 0 0.943883293187846
    outer loop
      vertex 0.10213037109375 0.0432000007629395 0.194390640258789
      vertex 0.10389501953125 0.0452000007629395 0.195008117675781
      vertex 0.10213037109375 0.0452000007629395 0.194390640258789
    endloop
  endfacet
  facet normal -0.330279168039504 0 0.943883293187846
    outer loop
      vertex 0.10213037109375 0.0432000007629395 0.194390640258789
      vertex 0.10389501953125 0.0432000007629395 0.195008117675781
      vertex 0.10389501953125 0.0452000007629395 0.195008117675781
    endloop
  endfacet
  facet normal -0.39989745957896 0 0.916559884471437
    outer loop
      vertex 0.100416801452637 0.0432000007629395 0.193643005371094
      vertex 0.10213037109375 0.0432000007629395 0.194390640258789
      vertex 0.100416801452637 0.0452000007629395 0.193643005371094
    endloop
  endfacet
  facet normal -0.467265859070762 0 0.884116857065209
    outer loop
      vertex 0.0987638931274414 0.0432000007629395 0.192769424438477
      vertex 0.100416801452637 0.0432000007629395 0.193643005371094
      vertex 0.100416801452637 0.0452000007629395 0.193643005371094
    endloop
  endfacet
  facet normal -0.467265859070762 0 0.884116857065209
    outer loop
      vertex 0.0987638931274414 0.0432000007629395 0.192769424438477
      vertex 0.100416801452637 0.0452000007629395 0.193643005371094
      vertex 0.0987638931274414 0.0452000007629395 0.192769424438477
    endloop
  endfacet
  facet normal -0.532029961284791 0 0.846725528312041
    outer loop
      vertex 0.0971808929443359 0.0432000007629395 0.191774765014648
      vertex 0.0987638931274414 0.0432000007629395 0.192769424438477
      vertex 0.0987638931274414 0.0452000007629395 0.192769424438477
    endloop
  endfacet
  facet normal -0.532029961284791 0 0.846725528312041
    outer loop
      vertex 0.0971808929443359 0.0432000007629395 0.191774765014648
      vertex 0.0987638931274414 0.0452000007629395 0.192769424438477
      vertex 0.0971808929443359 0.0452000007629395 0.191774765014648
    endloop
  endfacet
  facet normal -0.593821099213058 0 0.804597105469188
    outer loop
      vertex 0.0956766510009766 0.0432000007629395 0.190664581298828
      vertex 0.0971808929443359 0.0432000007629395 0.191774765014648
      vertex 0.0971808929443359 0.0452000007629395 0.191774765014648
    endloop
  endfacet
  facet normal -0.652288972355425 0 0.757970379727007
    outer loop
      vertex 0.0956766510009766 0.0432000007629395 0.190664581298828
      vertex 0.0956766510009766 0.0452000007629395 0.190664581298828
      vertex 0.0942595748901367 0.0452000007629395 0.189445083618164
    endloop
  endfacet
  facet normal -0.593821099213058 0 0.804597105469188
    outer loop
      vertex 0.0956766510009766 0.0432000007629395 0.190664581298828
      vertex 0.0971808929443359 0.0452000007629395 0.191774765014648
      vertex 0.0956766510009766 0.0452000007629395 0.190664581298828
    endloop
  endfacet
  facet normal -0.652288972355425 0 0.757970379727007
    outer loop
      vertex 0.0942595748901367 0.0432000007629395 0.189445083618164
      vertex 0.0956766510009766 0.0432000007629395 0.190664581298828
      vertex 0.0942595748901367 0.0452000007629395 0.189445083618164
    endloop
  endfacet
  facet normal -0.707106781186547 0 0.707106781186547
    outer loop
      vertex 0.0942595748901367 0.0432000007629395 0.189445083618164
      vertex 0.0942595748901367 0.0452000007629395 0.189445083618164
      vertex 0.0929375991821289 0.0452000007629395 0.188123107910156
    endloop
  endfacet
  facet normal -0.707106781186547 0 0.707106781186547
    outer loop
      vertex 0.0929375991821289 0.0432000007629395 0.188123107910156
      vertex 0.0942595748901367 0.0432000007629395 0.189445083618164
      vertex 0.0929375991821289 0.0452000007629395 0.188123107910156
    endloop
  endfacet
  facet normal -0.75797066104023 0 0.652288645464748
    outer loop
      vertex 0.0929375991821289 0.0432000007629395 0.188123107910156
      vertex 0.0929375991821289 0.0452000007629395 0.188123107910156
      vertex 0.0917181091308594 0.0452000007629395 0.186706039428711
    endloop
  endfacet
  facet normal -0.75797066104023 0 0.652288645464748
    outer loop
      vertex 0.0917181091308594 0.0432000007629395 0.186706039428711
      vertex 0.0929375991821289 0.0432000007629395 0.188123107910156
      vertex 0.0917181091308594 0.0452000007629395 0.186706039428711
    endloop
  endfacet
  facet normal -0.804597105469188 0 0.593821099213058
    outer loop
      vertex 0.0917181091308594 0.0432000007629395 0.186706039428711
      vertex 0.0917181091308594 0.0452000007629395 0.186706039428711
      vertex 0.0906079254150391 0.0452000007629395 0.185201797485352
    endloop
  endfacet
  facet normal -0.804597105469188 0 0.593821099213058
    outer loop
      vertex 0.0906079254150391 0.0432000007629395 0.185201797485352
      vertex 0.0917181091308594 0.0432000007629395 0.186706039428711
      vertex 0.0906079254150391 0.0452000007629395 0.185201797485352
    endloop
  endfacet
  facet normal -0.846724845067016 0 0.532031048667499
    outer loop
      vertex 0.0896132583618164 0.0432000007629395 0.183618789672852
      vertex 0.0906079254150391 0.0432000007629395 0.185201797485352
      vertex 0.0906079254150391 0.0452000007629395 0.185201797485352
    endloop
  endfacet
  facet normal -0.846724845067016 0 0.532031048667499
    outer loop
      vertex 0.0896132583618164 0.0432000007629395 0.183618789672852
      vertex 0.0906079254150391 0.0452000007629395 0.185201797485352
      vertex 0.0896132583618164 0.0452000007629395 0.183618789672852
    endloop
  endfacet
  facet normal -0.884116857065209 0 0.467265859070762
    outer loop
      vertex 0.0887396774291992 0.0432000007629395 0.181965881347656
      vertex 0.0896132583618164 0.0432000007629395 0.183618789672852
      vertex 0.0896132583618164 0.0452000007629395 0.183618789672852
    endloop
  endfacet
  facet normal -0.916560727623616 0 0.399895527079346
    outer loop
      vertex 0.0887396774291992 0.0432000007629395 0.181965881347656
      vertex 0.0887396774291992 0.0452000007629395 0.181965881347656
      vertex 0.0879920501708984 0.0452000007629395 0.180252319335937
    endloop
  endfacet
  facet normal -0.884116857065209 0 0.467265859070762
    outer loop
      vertex 0.0887396774291992 0.0432000007629395 0.181965881347656
      vertex 0.0896132583618164 0.0452000007629395 0.183618789672852
      vertex 0.0887396774291992 0.0452000007629395 0.181965881347656
    endloop
  endfacet
  facet normal -0.916560727623616 0 0.399895527079346
    outer loop
      vertex 0.0879920501708984 0.0432000007629395 0.180252319335937
      vertex 0.0887396774291992 0.0432000007629395 0.181965881347656
      vertex 0.0879920501708984 0.0452000007629395 0.180252319335937
    endloop
  endfacet
  facet normal -0.943884565365764 0 0.330275532342744
    outer loop
      vertex 0.0873745803833008 0.0432000007629395 0.178487670898438
      vertex 0.0879920501708984 0.0432000007629395 0.180252319335937
      vertex 0.0879920501708984 0.0452000007629395 0.180252319335937
    endloop
  endfacet
  facet normal -0.965925865006058 0 0.258818900608705
    outer loop
      vertex 0.0873745803833008 0.0432000007629395 0.178487670898438
      vertex 0.0873745803833008 0.0452000007629395 0.178487670898438
      vertex 0.0868907012939453 0.0452000007629395 0.17668180847168
    endloop
  endfacet
  facet normal -0.943884565365764 0 0.330275532342744
    outer loop
      vertex 0.0873745803833008 0.0432000007629395 0.178487670898438
      vertex 0.0879920501708984 0.0452000007629395 0.180252319335937
      vertex 0.0873745803833008 0.0452000007629395 0.178487670898438
    endloop
  endfacet
  facet normal -0.982566397730824 0 0.185912006202593
    outer loop
      vertex 0.0868907012939453 0.0432000007629395 0.17668180847168
      vertex 0.0868907012939453 0.0452000007629395 0.17668180847168
      vertex 0.0865431289672852 0.0452000007629395 0.174844848632812
    endloop
  endfacet
  facet normal -0.965925865006058 0 0.258818900608705
    outer loop
      vertex 0.0868907012939453 0.0432000007629395 0.17668180847168
      vertex 0.0873745803833008 0.0432000007629395 0.178487670898438
      vertex 0.0868907012939453 0.0452000007629395 0.17668180847168
    endloop
  endfacet
  facet normal -0.982566397730824 0 0.185912006202593
    outer loop
      vertex 0.0865431289672852 0.0432000007629395 0.174844848632812
      vertex 0.0868907012939453 0.0432000007629395 0.17668180847168
      vertex 0.0865431289672852 0.0452000007629395 0.174844848632812
    endloop
  endfacet
  facet normal -0.993711999628219 0 0.111966342241257
    outer loop
      vertex 0.0863338012695312 0.0432000007629395 0.172987045288086
      vertex 0.0865431289672852 0.0432000007629395 0.174844848632812
      vertex 0.0865431289672852 0.0452000007629395 0.174844848632812
    endloop
  endfacet
  facet normal -0.993711999628219 0 0.111966342241257
    outer loop
      vertex 0.0863338012695312 0.0432000007629395 0.172987045288086
      vertex 0.0865431289672852 0.0452000007629395 0.174844848632812
      vertex 0.0863338012695312 0.0452000007629395 0.172987045288086
    endloop
  endfacet
  facet normal -0.999300645847389 0 0.037392769474753
    outer loop
      vertex 0.0862638931274414 0.0432000007629395 0.171118789672852
      vertex 0.0863338012695312 0.0432000007629395 0.172987045288086
      vertex 0.0863338012695312 0.0452000007629395 0.172987045288086
    endloop
  endfacet
  facet normal -0.999300645847389 0 0.037392769474753
    outer loop
      vertex 0.0862638931274414 0.0432000007629395 0.171118789672852
      vertex 0.0863338012695312 0.0452000007629395 0.172987045288086
      vertex 0.0862638931274414 0.0452000007629395 0.171118789672852
    endloop
  endfacet
  facet normal 0 1 0
    outer loop
      vertex 0.0917181091308594 0.0452000007629395 0.186706039428711
      vertex 0.0929375991821289 0.0452000007629395 0.188123107910156
      vertex 0.0942595748901367 0.0452000007629395 0.189445083618164
    endloop
  endfacet
  facet normal 0 1 0
    outer loop
      vertex 0.0917181091308594 0.0452000007629395 0.186706039428711
      vertex 0.0942595748901367 0.0452000007629395 0.189445083618164
      vertex 0.0956766510009766 0.0452000007629395 0.190664581298828
    endloop
  endfacet
  facet normal 0 1 0
    outer loop
      vertex 0.0987638931274414 0.0452000007629395 0.192769424438477
      vertex 0.0956766510009766 0.0452000007629395 0.190664581298828
      vertex 0.0971808929443359 0.0452000007629395 0.191774765014648
    endloop
  endfacet
  facet normal 0 1 0
    outer loop
      vertex 0.0887396774291992 0.0452000007629395 0.181965881347656
      vertex 0.0896132583618164 0.0452000007629395 0.183618789672852
      vertex 0.0906079254150391 0.0452000007629395 0.185201797485352
    endloop
  endfacet
  facet normal 0 1 0
    outer loop
      vertex 0.0887396774291992 0.0452000007629395 0.181965881347656
      vertex 0.0906079254150391 0.0452000007629395 0.185201797485352
      vertex 0.0917181091308594 0.0452000007629395 0.186706039428711
    endloop
  endfacet
  facet normal 0 1 0
    outer loop
      vertex 0.0873745803833008 0.0452000007629395 0.178487670898438
      vertex 0.0879920501708984 0.0452000007629395 0.180252319335937
      vertex 0.0887396774291992 0.0452000007629395 0.181965881347656
    endloop
  endfacet
  facet normal 0 1 0
    outer loop
      vertex 0.0873745803833008 0.0452000007629395 0.178487670898438
      vertex 0.0917181091308594 0.0452000007629395 0.186706039428711
      vertex 0.0956766510009766 0.0452000007629395 0.190664581298828
    endloop
  endfacet
  facet normal 0 1 0
    outer loop
      vertex 0.0873745803833008 0.0452000007629395 0.178487670898438
      vertex 0.0887396774291992 0.0452000007629395 0.181965881347656
      vertex 0.0917181091308594 0.0452000007629395 0.186706039428711
    endloop
  endfacet
  facet normal 0 1 0
    outer loop
      vertex 0.107537841796875 0.0452000007629395 0.195839553833008
      vertex 0.10389501953125 0.0452000007629395 0.195008117675781
      vertex 0.105700874328613 0.0452000007629395 0.195491989135742
    endloop
  endfacet
  facet normal 0 1 0
    outer loop
      vertex 0.0865431289672852 0.0452000007629395 0.174844848632812
      vertex 0.0868907012939453 0.0452000007629395 0.17668180847168
      vertex 0.0873745803833008 0.0452000007629395 0.178487670898438
    endloop
  endfacet
  facet normal 0 1 0
    outer loop
      vertex 0.0865431289672852 0.0452000007629395 0.174844848632812
      vertex 0.0873745803833008 0.0452000007629395 0.178487670898438
      vertex 0.0956766510009766 0.0452000007629395 0.190664581298828
    endloop
  endfacet
  facet normal 0 1 0
    outer loop
      vertex 0.0865431289672852 0.0452000007629395 0.174844848632812
      vertex 0.0987638931274414 0.0452000007629395 0.192769424438477
      vertex 0.100416801452637 0.0452000007629395 0.193643005371094
    endloop
  endfacet
  facet normal 0 1 0
    outer loop
      vertex 0.0865431289672852 0.0452000007629395 0.174844848632812
      vertex 0.100416801452637 0.0452000007629395 0.193643005371094
      vertex 0.10213037109375 0.0452000007629395 0.194390640258789
    endloop
  endfacet
  facet normal 0 1 0
    outer loop
      vertex 0.0865431289672852 0.0452000007629395 0.174844848632812
      vertex 0.0956766510009766 0.0452000007629395 0.190664581298828
      vertex 0.0987638931274414 0.0452000007629395 0.192769424438477
    endloop
  endfacet
  facet normal 0 1 0
    outer loop
      vertex 0.109395645141602 0.0452000007629395 0.196048889160156
      vertex 0.0865431289672852 0.0452000007629395 0.174844848632812
      vertex 0.10213037109375 0.0452000007629395 0.194390640258789
    endloop
  endfacet
  facet normal 0 1 0
    outer loop
      vertex 0.109395645141602 0.0452000007629395 0.196048889160156
      vertex 0.10389501953125 0.0452000007629395 0.195008117675781
      vertex 0.107537841796875 0.0452000007629395 0.195839553833008
    endloop
  endfacet
  facet normal 0 1 0
    outer loop
      vertex 0.109395645141602 0.0452000007629395 0.196048889160156
      vertex 0.10213037109375 0.0452000007629395 0.194390640258789
      vertex 0.10389501953125 0.0452000007629395 0.195008117675781
    endloop
  endfacet
  facet normal 0 1 0
    outer loop
      vertex 0.113132148742676 0.0452000007629395 0.196048889160156
      vertex 0.109395645141602 0.0452000007629395 0.196048889160156
      vertex 0.111263893127441 0.0452000007629395 0.196118789672852
    endloop
  endfacet
  facet normal 0 1 0
    outer loop
      vertex 0.0868907012939453 0.0452000007629395 0.165555770874023
      vertex 0.0862638931274414 0.0452000007629395 0.171118789672852
      vertex 0.0863338012695312 0.0452000007629395 0.172987045288086
    endloop
  endfacet
  facet normal 0 1 0
    outer loop
      vertex 0.0868907012939453 0.0452000007629395 0.165555770874023
      vertex 0.0865431289672852 0.0452000007629395 0.167392730712891
      vertex 0.0863338012695312 0.0452000007629395 0.169250534057617
    endloop
  endfacet
  facet normal 0 1 0
    outer loop
      vertex 0.0868907012939453 0.0452000007629395 0.165555770874023
      vertex 0.0863338012695312 0.0452000007629395 0.169250534057617
      vertex 0.0862638931274414 0.0452000007629395 0.171118789672852
    endloop
  endfacet
  facet normal 0 1 0
    outer loop
      vertex 0.0873745803833008 0.0452000007629395 0.163749908447266
      vertex 0.0863338012695312 0.0452000007629395 0.172987045288086
      vertex 0.0865431289672852 0.0452000007629395 0.174844848632812
    endloop
  endfacet
  facet normal 0 1 0
    outer loop
      vertex 0.0873745803833008 0.0452000007629395 0.163749908447266
      vertex 0.0868907012939453 0.0452000007629395 0.165555770874023
      vertex 0.0863338012695312 0.0452000007629395 0.172987045288086
    endloop
  endfacet
  facet normal 0 1 0
    outer loop
      vertex 0.0879920501708984 0.0452000007629395 0.161985260009766
      vertex 0.0873745803833008 0.0452000007629395 0.163749908447266
      vertex 0.0865431289672852 0.0452000007629395 0.174844848632812
    endloop
  endfacet
  facet normal 0 1 0
    outer loop
      vertex 0.120397422790527 0.0452000007629395 0.194390640258789
      vertex 0.113132148742676 0.0452000007629395 0.196048889160156
      vertex 0.114989952087402 0.0452000007629395 0.195839553833008
    endloop
  endfacet
  facet normal 0 1 0
    outer loop
      vertex 0.120397422790527 0.0452000007629395 0.194390640258789
      vertex 0.114989952087402 0.0452000007629395 0.195839553833008
      vertex 0.116826919555664 0.0452000007629395 0.195491989135742
    endloop
  endfacet
  facet normal 0 1 0
    outer loop
      vertex 0.120397422790527 0.0452000007629395 0.194390640258789
      vertex 0.116826919555664 0.0452000007629395 0.195491989135742
      vertex 0.118632774353027 0.0452000007629395 0.195008117675781
    endloop
  endfacet
  facet normal 0 1 0
    outer loop
      vertex 0.0887396774291992 0.0452000007629395 0.160271697998047
      vertex 0.0879920501708984 0.0452000007629395 0.161985260009766
      vertex 0.0865431289672852 0.0452000007629395 0.174844848632812
    endloop
  endfacet
  facet normal 0 1 -0
    outer loop
      vertex 0.0906079254150391 0.0452000007629395 0.157035781860352
      vertex 0.0865431289672852 0.0452000007629395 0.174844848632812
      vertex 0.109395645141602 0.0452000007629395 0.196048889160156
    endloop
  endfacet
  facet normal 0 1 0
    outer loop
      vertex 0.0906079254150391 0.0452000007629395 0.157035781860352
      vertex 0.0887396774291992 0.0452000007629395 0.160271697998047
      vertex 0.0865431289672852 0.0452000007629395 0.174844848632812
    endloop
  endfacet
  facet normal 0 1 0
    outer loop
      vertex 0.0906079254150391 0.0452000007629395 0.157035781860352
      vertex 0.0896132583618164 0.0452000007629395 0.158618789672852
      vertex 0.0887396774291992 0.0452000007629395 0.160271697998047
    endloop
  endfacet
  facet normal 0 1 0
    outer loop
      vertex 0.125346900939941 0.0452000007629395 0.191774765014648
      vertex 0.120397422790527 0.0452000007629395 0.194390640258789
      vertex 0.122110992431641 0.0452000007629395 0.193643005371094
    endloop
  endfacet
  facet normal 0 1 0
    outer loop
      vertex 0.125346900939941 0.0452000007629395 0.191774765014648
      vertex 0.122110992431641 0.0452000007629395 0.193643005371094
      vertex 0.123763893127441 0.0452000007629395 0.192769424438477
    endloop
  endfacet
  facet normal 0 1 0
    outer loop
      vertex 0.125346900939941 0.0452000007629395 0.191774765014648
      vertex 0.113132148742676 0.0452000007629395 0.196048889160156
      vertex 0.120397422790527 0.0452000007629395 0.194390640258789
    endloop
  endfacet
  facet normal 0 1 0
    outer loop
      vertex 0.0917181091308594 0.0452000007629395 0.155531539916992
      vertex 0.109395645141602 0.0452000007629395 0.196048889160156
      vertex 0.113132148742676 0.0452000007629395 0.196048889160156
    endloop
  endfacet
  facet normal 0 1 -0
    outer loop
      vertex 0.0917181091308594 0.0452000007629395 0.155531539916992
      vertex 0.0906079254150391 0.0452000007629395 0.157035781860352
      vertex 0.109395645141602 0.0452000007629395 0.196048889160156
    endloop
  endfacet
  facet normal 0 1 0
    outer loop
      vertex 0.0942595748901367 0.0452000007629395 0.152792495727539
      vertex 0.0929375991821289 0.0452000007629395 0.154114471435547
      vertex 0.0917181091308594 0.0452000007629395 0.155531539916992
    endloop
  endfacet
  facet normal 0 1 0
    outer loop
      vertex 0.0956766510009766 0.0452000007629395 0.151572998046875
      vertex 0.113132148742676 0.0452000007629395 0.196048889160156
      vertex 0.125346900939941 0.0452000007629395 0.191774765014648
    endloop
  endfacet
  facet normal 0 1 -0
    outer loop
      vertex 0.0956766510009766 0.0452000007629395 0.151572998046875
      vertex 0.0917181091308594 0.0452000007629395 0.155531539916992
      vertex 0.113132148742676 0.0452000007629395 0.196048889160156
    endloop
  endfacet
  facet normal 0 1 0
    outer loop
      vertex 0.0956766510009766 0.0452000007629395 0.151572998046875
      vertex 0.0942595748901367 0.0452000007629395 0.152792495727539
      vertex 0.0917181091308594 0.0452000007629395 0.155531539916992
    endloop
  endfacet
  facet normal 0 1 0
    outer loop
      vertex 0.130809677124023 0.0452000007629395 0.186706039428711
      vertex 0.125346900939941 0.0452000007629395 0.191774765014648
      vertex 0.126851142883301 0.0452000007629395 0.190664581298828
    endloop
  endfacet
  facet normal 0 1 0
    outer loop
      vertex 0.130809677124023 0.0452000007629395 0.186706039428711
      vertex 0.126851142883301 0.0452000007629395 0.190664581298828
      vertex 0.128268218994141 0.0452000007629395 0.189445083618164
    endloop
  endfacet
  facet normal 0 1 0
    outer loop
      vertex 0.130809677124023 0.0452000007629395 0.186706039428711
      vertex 0.128268218994141 0.0452000007629395 0.189445083618164
      vertex 0.129590194702148 0.0452000007629395 0.188123107910156
    endloop
  endfacet
  facet normal 0 1 0
    outer loop
      vertex 0.130809677124023 0.0452000007629395 0.186706039428711
      vertex 0.0956766510009766 0.0452000007629395 0.151572998046875
      vertex 0.125346900939941 0.0452000007629395 0.191774765014648
    endloop
  endfacet
  facet normal 0 1 0
    outer loop
      vertex 0.0987638931274414 0.0452000007629395 0.149468154907227
      vertex 0.0971808929443359 0.0452000007629395 0.150462814331055
      vertex 0.0956766510009766 0.0452000007629395 0.151572998046875
    endloop
  endfacet
  facet normal 0 1 0
    outer loop
      vertex 0.100416801452637 0.0452000007629395 0.148594573974609
      vertex 0.0987638931274414 0.0452000007629395 0.149468154907227
      vertex 0.0956766510009766 0.0452000007629395 0.151572998046875
    endloop
  endfacet
  facet normal 0 1 0
    outer loop
      vertex 0.133788116455078 0.0452000007629395 0.181965881347656
      vertex 0.131919860839844 0.0452000007629395 0.185201797485352
      vertex 0.132914535522461 0.0452000007629395 0.183618789672852
    endloop
  endfacet
  facet normal 0 1 0
    outer loop
      vertex 0.134535736083984 0.0452000007629395 0.180252319335937
      vertex 0.130809677124023 0.0452000007629395 0.186706039428711
      vertex 0.131919860839844 0.0452000007629395 0.185201797485352
    endloop
  endfacet
  facet normal 0 1 0
    outer loop
      vertex 0.134535736083984 0.0452000007629395 0.180252319335937
      vertex 0.131919860839844 0.0452000007629395 0.185201797485352
      vertex 0.133788116455078 0.0452000007629395 0.181965881347656
    endloop
  endfacet
  facet normal 0 1 0
    outer loop
      vertex 0.10389501953125 0.0452000007629395 0.147229476928711
      vertex 0.10213037109375 0.0452000007629395 0.147846954345703
      vertex 0.100416801452637 0.0452000007629395 0.148594573974609
    endloop
  endfacet
  facet normal 0 1 0
    outer loop
      vertex 0.109395645141602 0.0452000007629395 0.146188690185547
      vertex 0.107537841796875 0.0452000007629395 0.146398025512695
      vertex 0.105700874328613 0.0452000007629395 0.146745590209961
    endloop
  endfacet
  facet normal 0 1 0
    outer loop
      vertex 0.109395645141602 0.0452000007629395 0.146188690185547
      vertex 0.105700874328613 0.0452000007629395 0.146745590209961
      vertex 0.10389501953125 0.0452000007629395 0.147229476928711
    endloop
  endfacet
  facet normal 0 1 0
    outer loop
      vertex 0.109395645141602 0.0452000007629395 0.146188690185547
      vertex 0.10389501953125 0.0452000007629395 0.147229476928711
      vertex 0.100416801452637 0.0452000007629395 0.148594573974609
    endloop
  endfacet
  facet normal 0 1 0
    outer loop
      vertex 0.109395645141602 0.0452000007629395 0.146188690185547
      vertex 0.100416801452637 0.0452000007629395 0.148594573974609
      vertex 0.0956766510009766 0.0452000007629395 0.151572998046875
    endloop
  endfacet
  facet normal 0 1 0
    outer loop
      vertex 0.136263900756836 0.0452000007629395 0.171118789672852
      vertex 0.134535736083984 0.0452000007629395 0.180252319335937
      vertex 0.135153213500977 0.0452000007629395 0.178487670898438
    endloop
  endfacet
  facet normal 0 1 0
    outer loop
      vertex 0.136263900756836 0.0452000007629395 0.171118789672852
      vertex 0.135153213500977 0.0452000007629395 0.178487670898438
      vertex 0.135637100219727 0.0452000007629395 0.17668180847168
    endloop
  endfacet
  facet normal 0 1 0
    outer loop
      vertex 0.136263900756836 0.0452000007629395 0.171118789672852
      vertex 0.135637100219727 0.0452000007629395 0.17668180847168
      vertex 0.135984664916992 0.0452000007629395 0.174844848632812
    endloop
  endfacet
  facet normal 0 1 0
    outer loop
      vertex 0.136263900756836 0.0452000007629395 0.171118789672852
      vertex 0.135984664916992 0.0452000007629395 0.174844848632812
      vertex 0.136193984985352 0.0452000007629395 0.172987045288086
    endloop
  endfacet
  facet normal 0 1 0
    outer loop
      vertex 0.114989952087402 0.0452000007629395 0.146398025512695
      vertex 0.113132148742676 0.0452000007629395 0.146188690185547
      vertex 0.111263893127441 0.0452000007629395 0.146118789672852
    endloop
  endfacet
  facet normal 0 1 0
    outer loop
      vertex 0.114989952087402 0.0452000007629395 0.146398025512695
      vertex 0.111263893127441 0.0452000007629395 0.146118789672852
      vertex 0.109395645141602 0.0452000007629395 0.146188690185547
    endloop
  endfacet
  facet normal 0 1 0
    outer loop
      vertex 0.114989952087402 0.0452000007629395 0.146398025512695
      vertex 0.109395645141602 0.0452000007629395 0.146188690185547
      vertex 0.0956766510009766 0.0452000007629395 0.151572998046875
    endloop
  endfacet
  facet normal 0 1 -0
    outer loop
      vertex 0.135984664916992 0.0452000007629395 0.167392730712891
      vertex 0.134535736083984 0.0452000007629395 0.180252319335937
      vertex 0.136263900756836 0.0452000007629395 0.171118789672852
    endloop
  endfacet
  facet normal 0 1 0
    outer loop
      vertex 0.135984664916992 0.0452000007629395 0.167392730712891
      vertex 0.136263900756836 0.0452000007629395 0.171118789672852
      vertex 0.136193984985352 0.0452000007629395 0.169250534057617
    endloop
  endfacet
  facet normal 0 1 0
    outer loop
      vertex 0.118632774353027 0.0452000007629395 0.147229476928711
      vertex 0.116826919555664 0.0452000007629395 0.146745590209961
      vertex 0.114989952087402 0.0452000007629395 0.146398025512695
    endloop
  endfacet
  facet normal 0 1 0
    outer loop
      vertex 0.120397422790527 0.0452000007629395 0.147846954345703
      vertex 0.134535736083984 0.0452000007629395 0.180252319335937
      vertex 0.135984664916992 0.0452000007629395 0.167392730712891
    endloop
  endfacet
  facet normal 0 1 0
    outer loop
      vertex 0.120397422790527 0.0452000007629395 0.147846954345703
      vertex 0.114989952087402 0.0452000007629395 0.146398025512695
      vertex 0.0956766510009766 0.0452000007629395 0.151572998046875
    endloop
  endfacet
  facet normal 0 1 0
    outer loop
      vertex 0.120397422790527 0.0452000007629395 0.147846954345703
      vertex 0.118632774353027 0.0452000007629395 0.147229476928711
      vertex 0.114989952087402 0.0452000007629395 0.146398025512695
    endloop
  endfacet
  facet normal 0 1 0
    outer loop
      vertex 0.120397422790527 0.0452000007629395 0.147846954345703
      vertex 0.135984664916992 0.0452000007629395 0.167392730712891
      vertex 0.135637100219727 0.0452000007629395 0.165555770874023
    endloop
  endfacet
  facet normal 0 1 -0
    outer loop
      vertex 0.120397422790527 0.0452000007629395 0.147846954345703
      vertex 0.0956766510009766 0.0452000007629395 0.151572998046875
      vertex 0.130809677124023 0.0452000007629395 0.186706039428711
    endloop
  endfacet
  facet normal 0 1 0
    outer loop
      vertex 0.120397422790527 0.0452000007629395 0.147846954345703
      vertex 0.130809677124023 0.0452000007629395 0.186706039428711
      vertex 0.134535736083984 0.0452000007629395 0.180252319335937
    endloop
  endfacet
  facet normal 0 1 0
    outer loop
      vertex 0.134535736083984 0.0452000007629395 0.161985260009766
      vertex 0.135637100219727 0.0452000007629395 0.165555770874023
      vertex 0.135153213500977 0.0452000007629395 0.163749908447266
    endloop
  endfacet
  facet normal 0 1 0
    outer loop
      vertex 0.133788116455078 0.0452000007629395 0.160271697998047
      vertex 0.135637100219727 0.0452000007629395 0.165555770874023
      vertex 0.134535736083984 0.0452000007629395 0.161985260009766
    endloop
  endfacet
  facet normal 0 1 0
    outer loop
      vertex 0.132914535522461 0.0452000007629395 0.158618789672852
      vertex 0.135637100219727 0.0452000007629395 0.165555770874023
      vertex 0.133788116455078 0.0452000007629395 0.160271697998047
    endloop
  endfacet
  facet normal 0 1 0
    outer loop
      vertex 0.125346900939941 0.0452000007629395 0.150462814331055
      vertex 0.123763893127441 0.0452000007629395 0.149468154907227
      vertex 0.122110992431641 0.0452000007629395 0.148594573974609
    endloop
  endfacet
  facet normal 0 1 0
    outer loop
      vertex 0.126851142883301 0.0452000007629395 0.151572998046875
      vertex 0.125346900939941 0.0452000007629395 0.150462814331055
      vertex 0.122110992431641 0.0452000007629395 0.148594573974609
    endloop
  endfacet
  facet normal 0 1 0
    outer loop
      vertex 0.126851142883301 0.0452000007629395 0.151572998046875
      vertex 0.122110992431641 0.0452000007629395 0.148594573974609
      vertex 0.120397422790527 0.0452000007629395 0.147846954345703
    endloop
  endfacet
  facet normal 0 1 0
    outer loop
      vertex 0.128268218994141 0.0452000007629395 0.152792495727539
      vertex 0.135637100219727 0.0452000007629395 0.165555770874023
      vertex 0.132914535522461 0.0452000007629395 0.158618789672852
    endloop
  endfacet
  facet normal 0 1 -0
    outer loop
      vertex 0.128268218994141 0.0452000007629395 0.152792495727539
      vertex 0.120397422790527 0.0452000007629395 0.147846954345703
      vertex 0.135637100219727 0.0452000007629395 0.165555770874023
    endloop
  endfacet
  facet normal 0 1 0
    outer loop
      vertex 0.128268218994141 0.0452000007629395 0.152792495727539
      vertex 0.126851142883301 0.0452000007629395 0.151572998046875
      vertex 0.120397422790527 0.0452000007629395 0.147846954345703
    endloop
  endfacet
  facet normal 0 1 0
    outer loop
      vertex 0.128268218994141 0.0452000007629395 0.152792495727539
      vertex 0.132914535522461 0.0452000007629395 0.158618789672852
      vertex 0.131919860839844 0.0452000007629395 0.157035781860352
    endloop
  endfacet
  facet normal 0 1 0
    outer loop
      vertex 0.128268218994141 0.0452000007629395 0.152792495727539
      vertex 0.131919860839844 0.0452000007629395 0.157035781860352
      vertex 0.130809677124023 0.0452000007629395 0.155531539916992
    endloop
  endfacet
  facet normal 0 1 -0
    outer loop
      vertex 0.129590194702148 0.0452000007629395 0.154114471435547
      vertex 0.128268218994141 0.0452000007629395 0.152792495727539
      vertex 0.130809677124023 0.0452000007629395 0.155531539916992
    endloop
  endfacet
  facet normal 0 -1 -0
    outer loop
      vertex 0.0906079254150391 0.0432000007629395 0.185201797485352
      vertex 0.0896132583618164 0.0432000007629395 0.183618789672852
      vertex 0.0917181091308594 0.0432000007629395 0.186706039428711
    endloop
  endfacet
  facet normal 0 -1 0
    outer loop
      vertex 0.0971808929443359 0.0432000007629395 0.191774765014648
      vertex 0.100416801452637 0.0432000007629395 0.193643005371094
      vertex 0.0987638931274414 0.0432000007629395 0.192769424438477
    endloop
  endfacet
  facet normal 0 -1 0
    outer loop
      vertex 0.0956766510009766 0.0432000007629395 0.190664581298828
      vertex 0.100416801452637 0.0432000007629395 0.193643005371094
      vertex 0.0971808929443359 0.0432000007629395 0.191774765014648
    endloop
  endfacet
  facet normal 0 -1 0
    outer loop
      vertex 0.0942595748901367 0.0432000007629395 0.189445083618164
      vertex 0.100416801452637 0.0432000007629395 0.193643005371094
      vertex 0.0956766510009766 0.0432000007629395 0.190664581298828
    endloop
  endfacet
  facet normal 0 -1 0
    outer loop
      vertex 0.0929375991821289 0.0432000007629395 0.188123107910156
      vertex 0.100416801452637 0.0432000007629395 0.193643005371094
      vertex 0.0942595748901367 0.0432000007629395 0.189445083618164
    endloop
  endfacet
  facet normal 0 -1 0
    outer loop
      vertex 0.0917181091308594 0.0432000007629395 0.186706039428711
      vertex 0.100416801452637 0.0432000007629395 0.193643005371094
      vertex 0.0929375991821289 0.0432000007629395 0.188123107910156
    endloop
  endfacet
  facet normal 0 -1 -0
    outer loop
      vertex 0.0896132583618164 0.0432000007629395 0.183618789672852
      vertex 0.0887396774291992 0.0432000007629395 0.181965881347656
      vertex 0.0917181091308594 0.0432000007629395 0.186706039428711
    endloop
  endfacet
  facet normal 0 -1 0
    outer loop
      vertex 0.0887396774291992 0.0432000007629395 0.181965881347656
      vertex 0.10213037109375 0.0432000007629395 0.194390640258789
      vertex 0.0917181091308594 0.0432000007629395 0.186706039428711
    endloop
  endfacet
  facet normal 0 -1 0
    outer loop
      vertex 0.0917181091308594 0.0432000007629395 0.186706039428711
      vertex 0.10213037109375 0.0432000007629395 0.194390640258789
      vertex 0.100416801452637 0.0432000007629395 0.193643005371094
    endloop
  endfacet
  facet normal 0 -1 -0
    outer loop
      vertex 0.0887396774291992 0.0432000007629395 0.181965881347656
      vertex 0.0879920501708984 0.0432000007629395 0.180252319335937
      vertex 0.10213037109375 0.0432000007629395 0.194390640258789
    endloop
  endfacet
  facet normal 0 -1 -0
    outer loop
      vertex 0.0879920501708984 0.0432000007629395 0.180252319335937
      vertex 0.0873745803833008 0.0432000007629395 0.178487670898438
      vertex 0.10213037109375 0.0432000007629395 0.194390640258789
    endloop
  endfacet
  facet normal 0 -1 -0
    outer loop
      vertex 0.10213037109375 0.0432000007629395 0.194390640258789
      vertex 0.0873745803833008 0.0432000007629395 0.178487670898438
      vertex 0.10389501953125 0.0432000007629395 0.195008117675781
    endloop
  endfacet
  facet normal 0 -1 0
    outer loop
      vertex 0.0873745803833008 0.0432000007629395 0.178487670898438
      vertex 0.105700874328613 0.0432000007629395 0.195491989135742
      vertex 0.10389501953125 0.0432000007629395 0.195008117675781
    endloop
  endfacet
  facet normal 0 -1 0
    outer loop
      vertex 0.0873745803833008 0.0432000007629395 0.178487670898438
      vertex 0.111263893127441 0.0432000007629395 0.196118789672852
      vertex 0.105700874328613 0.0432000007629395 0.195491989135742
    endloop
  endfacet
  facet normal 0 -1 0
    outer loop
      vertex 0.107537841796875 0.0432000007629395 0.195839553833008
      vertex 0.111263893127441 0.0432000007629395 0.196118789672852
      vertex 0.109395645141602 0.0432000007629395 0.196048889160156
    endloop
  endfacet
  facet normal 0 -1 0
    outer loop
      vertex 0.105700874328613 0.0432000007629395 0.195491989135742
      vertex 0.111263893127441 0.0432000007629395 0.196118789672852
      vertex 0.107537841796875 0.0432000007629395 0.195839553833008
    endloop
  endfacet
  facet normal 0 -1 -0
    outer loop
      vertex 0.0865431289672852 0.0432000007629395 0.174844848632812
      vertex 0.0862638931274414 0.0432000007629395 0.171118789672852
      vertex 0.0868907012939453 0.0432000007629395 0.17668180847168
    endloop
  endfacet
  facet normal 0 -1 -0
    outer loop
      vertex 0.0863338012695312 0.0432000007629395 0.172987045288086
      vertex 0.0862638931274414 0.0432000007629395 0.171118789672852
      vertex 0.0865431289672852 0.0432000007629395 0.174844848632812
    endloop
  endfacet
  facet normal 0 -1 0
    outer loop
      vertex 0.113132148742676 0.0432000007629395 0.196048889160156
      vertex 0.116826919555664 0.0432000007629395 0.195491989135742
      vertex 0.114989952087402 0.0432000007629395 0.195839553833008
    endloop
  endfacet
  facet normal 0 -1 0
    outer loop
      vertex 0.111263893127441 0.0432000007629395 0.196118789672852
      vertex 0.116826919555664 0.0432000007629395 0.195491989135742
      vertex 0.113132148742676 0.0432000007629395 0.196048889160156
    endloop
  endfacet
  facet normal 0 -1 0
    outer loop
      vertex 0.0865431289672852 0.0432000007629395 0.167392730712891
      vertex 0.0868907012939453 0.0432000007629395 0.165555770874023
      vertex 0.0863338012695312 0.0432000007629395 0.169250534057617
    endloop
  endfacet
  facet normal 0 -1 0
    outer loop
      vertex 0.0863338012695312 0.0432000007629395 0.169250534057617
      vertex 0.0873745803833008 0.0432000007629395 0.163749908447266
      vertex 0.0862638931274414 0.0432000007629395 0.171118789672852
    endloop
  endfacet
  facet normal 0 -1 0
    outer loop
      vertex 0.0862638931274414 0.0432000007629395 0.171118789672852
      vertex 0.0873745803833008 0.0432000007629395 0.163749908447266
      vertex 0.0868907012939453 0.0432000007629395 0.17668180847168
    endloop
  endfacet
  facet normal 0 -1 0
    outer loop
      vertex 0.0868907012939453 0.0432000007629395 0.165555770874023
      vertex 0.0873745803833008 0.0432000007629395 0.163749908447266
      vertex 0.0863338012695312 0.0432000007629395 0.169250534057617
    endloop
  endfacet
  facet normal 0 -1 0
    outer loop
      vertex 0.0868907012939453 0.0432000007629395 0.17668180847168
      vertex 0.0873745803833008 0.0432000007629395 0.163749908447266
      vertex 0.0873745803833008 0.0432000007629395 0.178487670898438
    endloop
  endfacet
  facet normal 0 -1 0
    outer loop
      vertex 0.118632774353027 0.0432000007629395 0.195008117675781
      vertex 0.122110992431641 0.0432000007629395 0.193643005371094
      vertex 0.120397422790527 0.0432000007629395 0.194390640258789
    endloop
  endfacet
  facet normal 0 -1 0
    outer loop
      vertex 0.116826919555664 0.0432000007629395 0.195491989135742
      vertex 0.122110992431641 0.0432000007629395 0.193643005371094
      vertex 0.118632774353027 0.0432000007629395 0.195008117675781
    endloop
  endfacet
  facet normal 0 -1 0
    outer loop
      vertex 0.0879920501708984 0.0432000007629395 0.161985260009766
      vertex 0.0887396774291992 0.0432000007629395 0.160271697998047
      vertex 0.0873745803833008 0.0432000007629395 0.163749908447266
    endloop
  endfacet
  facet normal 0 -1 0
    outer loop
      vertex 0.0873745803833008 0.0432000007629395 0.178487670898438
      vertex 0.123763893127441 0.0432000007629395 0.192769424438477
      vertex 0.111263893127441 0.0432000007629395 0.196118789672852
    endloop
  endfacet
  facet normal 0 -1 0
    outer loop
      vertex 0.111263893127441 0.0432000007629395 0.196118789672852
      vertex 0.123763893127441 0.0432000007629395 0.192769424438477
      vertex 0.116826919555664 0.0432000007629395 0.195491989135742
    endloop
  endfacet
  facet normal 0 -1 0
    outer loop
      vertex 0.0873745803833008 0.0432000007629395 0.163749908447266
      vertex 0.123763893127441 0.0432000007629395 0.192769424438477
      vertex 0.0873745803833008 0.0432000007629395 0.178487670898438
    endloop
  endfacet
  facet normal 0 -1 0
    outer loop
      vertex 0.116826919555664 0.0432000007629395 0.195491989135742
      vertex 0.123763893127441 0.0432000007629395 0.192769424438477
      vertex 0.122110992431641 0.0432000007629395 0.193643005371094
    endloop
  endfacet
  facet normal 0 -1 0
    outer loop
      vertex 0.0887396774291992 0.0432000007629395 0.160271697998047
      vertex 0.123763893127441 0.0432000007629395 0.192769424438477
      vertex 0.0873745803833008 0.0432000007629395 0.163749908447266
    endloop
  endfacet
  facet normal 0 -1 0
    outer loop
      vertex 0.123763893127441 0.0432000007629395 0.192769424438477
      vertex 0.126851142883301 0.0432000007629395 0.190664581298828
      vertex 0.125346900939941 0.0432000007629395 0.191774765014648
    endloop
  endfacet
  facet normal 0 -1 0
    outer loop
      vertex 0.0917181091308594 0.0432000007629395 0.155531539916992
      vertex 0.0929375991821289 0.0432000007629395 0.154114471435547
      vertex 0.0906079254150391 0.0432000007629395 0.157035781860352
    endloop
  endfacet
  facet normal 0 -1 0
    outer loop
      vertex 0.126851142883301 0.0432000007629395 0.190664581298828
      vertex 0.129590194702148 0.0432000007629395 0.188123107910156
      vertex 0.128268218994141 0.0432000007629395 0.189445083618164
    endloop
  endfacet
  facet normal 0 -1 0
    outer loop
      vertex 0.123763893127441 0.0432000007629395 0.192769424438477
      vertex 0.129590194702148 0.0432000007629395 0.188123107910156
      vertex 0.126851142883301 0.0432000007629395 0.190664581298828
    endloop
  endfacet
  facet normal 0 -1 0
    outer loop
      vertex 0.123763893127441 0.0432000007629395 0.192769424438477
      vertex 0.130809677124023 0.0432000007629395 0.186706039428711
      vertex 0.129590194702148 0.0432000007629395 0.188123107910156
    endloop
  endfacet
  facet normal 0 -1 0
    outer loop
      vertex 0.0942595748901367 0.0432000007629395 0.152792495727539
      vertex 0.0956766510009766 0.0432000007629395 0.151572998046875
      vertex 0.0929375991821289 0.0432000007629395 0.154114471435547
    endloop
  endfacet
  facet normal 0 -1 0
    outer loop
      vertex 0.0929375991821289 0.0432000007629395 0.154114471435547
      vertex 0.0956766510009766 0.0432000007629395 0.151572998046875
      vertex 0.0906079254150391 0.0432000007629395 0.157035781860352
    endloop
  endfacet
  facet normal 0 -1 0
    outer loop
      vertex 0.130809677124023 0.0432000007629395 0.186706039428711
      vertex 0.132914535522461 0.0432000007629395 0.183618789672852
      vertex 0.131919860839844 0.0432000007629395 0.185201797485352
    endloop
  endfacet
  facet normal 0 -1 0
    outer loop
      vertex 0.0906079254150391 0.0432000007629395 0.157035781860352
      vertex 0.0987638931274414 0.0432000007629395 0.149468154907227
      vertex 0.0896132583618164 0.0432000007629395 0.158618789672852
    endloop
  endfacet
  facet normal 0 -1 0
    outer loop
      vertex 0.0971808929443359 0.0432000007629395 0.150462814331055
      vertex 0.0987638931274414 0.0432000007629395 0.149468154907227
      vertex 0.0956766510009766 0.0432000007629395 0.151572998046875
    endloop
  endfacet
  facet normal 0 -1 0
    outer loop
      vertex 0.0956766510009766 0.0432000007629395 0.151572998046875
      vertex 0.0987638931274414 0.0432000007629395 0.149468154907227
      vertex 0.0906079254150391 0.0432000007629395 0.157035781860352
    endloop
  endfacet
  facet normal 0 -1 0
    outer loop
      vertex 0.0896132583618164 0.0432000007629395 0.158618789672852
      vertex 0.100416801452637 0.0432000007629395 0.148594573974609
      vertex 0.0887396774291992 0.0432000007629395 0.160271697998047
    endloop
  endfacet
  facet normal 0 -1 0
    outer loop
      vertex 0.0887396774291992 0.0432000007629395 0.160271697998047
      vertex 0.100416801452637 0.0432000007629395 0.148594573974609
      vertex 0.123763893127441 0.0432000007629395 0.192769424438477
    endloop
  endfacet
  facet normal 0 -1 0
    outer loop
      vertex 0.0987638931274414 0.0432000007629395 0.149468154907227
      vertex 0.100416801452637 0.0432000007629395 0.148594573974609
      vertex 0.0896132583618164 0.0432000007629395 0.158618789672852
    endloop
  endfacet
  facet normal 0 -1 0
    outer loop
      vertex 0.134535736083984 0.0432000007629395 0.180252319335937
      vertex 0.135637100219727 0.0432000007629395 0.17668180847168
      vertex 0.135153213500977 0.0432000007629395 0.178487670898438
    endloop
  endfacet
  facet normal 0 -1 0
    outer loop
      vertex 0.133788116455078 0.0432000007629395 0.181965881347656
      vertex 0.135637100219727 0.0432000007629395 0.17668180847168
      vertex 0.134535736083984 0.0432000007629395 0.180252319335937
    endloop
  endfacet
  facet normal 0 -1 0
    outer loop
      vertex 0.132914535522461 0.0432000007629395 0.183618789672852
      vertex 0.135637100219727 0.0432000007629395 0.17668180847168
      vertex 0.133788116455078 0.0432000007629395 0.181965881347656
    endloop
  endfacet
  facet normal 0 -1 0
    outer loop
      vertex 0.105700874328613 0.0432000007629395 0.146745590209961
      vertex 0.107537841796875 0.0432000007629395 0.146398025512695
      vertex 0.10389501953125 0.0432000007629395 0.147229476928711
    endloop
  endfacet
  facet normal 0 -1 0
    outer loop
      vertex 0.135637100219727 0.0432000007629395 0.17668180847168
      vertex 0.136193984985352 0.0432000007629395 0.172987045288086
      vertex 0.135984664916992 0.0432000007629395 0.174844848632812
    endloop
  endfacet
  facet normal 0 -1 0
    outer loop
      vertex 0.132914535522461 0.0432000007629395 0.183618789672852
      vertex 0.136193984985352 0.0432000007629395 0.172987045288086
      vertex 0.135637100219727 0.0432000007629395 0.17668180847168
    endloop
  endfacet
  facet normal 0 -1 0
    outer loop
      vertex 0.107537841796875 0.0432000007629395 0.146398025512695
      vertex 0.109395645141602 0.0432000007629395 0.146188690185547
      vertex 0.10389501953125 0.0432000007629395 0.147229476928711
    endloop
  endfacet
  facet normal 0 -1 0
    outer loop
      vertex 0.10213037109375 0.0432000007629395 0.147846954345703
      vertex 0.109395645141602 0.0432000007629395 0.146188690185547
      vertex 0.100416801452637 0.0432000007629395 0.148594573974609
    endloop
  endfacet
  facet normal 0 -1 0
    outer loop
      vertex 0.10389501953125 0.0432000007629395 0.147229476928711
      vertex 0.109395645141602 0.0432000007629395 0.146188690185547
      vertex 0.10213037109375 0.0432000007629395 0.147846954345703
    endloop
  endfacet
  facet normal 0 -1 0
    outer loop
      vertex 0.100416801452637 0.0432000007629395 0.148594573974609
      vertex 0.109395645141602 0.0432000007629395 0.146188690185547
      vertex 0.123763893127441 0.0432000007629395 0.192769424438477
    endloop
  endfacet
  facet normal 0 -1 0
    outer loop
      vertex 0.132914535522461 0.0432000007629395 0.183618789672852
      vertex 0.136263900756836 0.0432000007629395 0.171118789672852
      vertex 0.136193984985352 0.0432000007629395 0.172987045288086
    endloop
  endfacet
  facet normal 0 -1 0
    outer loop
      vertex 0.109395645141602 0.0432000007629395 0.146188690185547
      vertex 0.113132148742676 0.0432000007629395 0.146188690185547
      vertex 0.123763893127441 0.0432000007629395 0.192769424438477
    endloop
  endfacet
  facet normal 0 -1 0
    outer loop
      vertex 0.111263893127441 0.0432000007629395 0.146118789672852
      vertex 0.113132148742676 0.0432000007629395 0.146188690185547
      vertex 0.109395645141602 0.0432000007629395 0.146188690185547
    endloop
  endfacet
  facet normal 0 -1 -0
    outer loop
      vertex 0.123763893127441 0.0432000007629395 0.192769424438477
      vertex 0.113132148742676 0.0432000007629395 0.146188690185547
      vertex 0.130809677124023 0.0432000007629395 0.186706039428711
    endloop
  endfacet
  facet normal 0 -1 -0
    outer loop
      vertex 0.130809677124023 0.0432000007629395 0.186706039428711
      vertex 0.113132148742676 0.0432000007629395 0.146188690185547
      vertex 0.132914535522461 0.0432000007629395 0.183618789672852
    endloop
  endfacet
  facet normal 0 -1 0
    outer loop
      vertex 0.136193984985352 0.0432000007629395 0.169250534057617
      vertex 0.135637100219727 0.0432000007629395 0.165555770874023
      vertex 0.135984664916992 0.0432000007629395 0.167392730712891
    endloop
  endfacet
  facet normal 0 -1 -0
    outer loop
      vertex 0.132914535522461 0.0432000007629395 0.183618789672852
      vertex 0.116826919555664 0.0432000007629395 0.146745590209961
      vertex 0.136263900756836 0.0432000007629395 0.171118789672852
    endloop
  endfacet
  facet normal 0 -1 0
    outer loop
      vertex 0.113132148742676 0.0432000007629395 0.146188690185547
      vertex 0.116826919555664 0.0432000007629395 0.146745590209961
      vertex 0.132914535522461 0.0432000007629395 0.183618789672852
    endloop
  endfacet
  facet normal -0 -1 0
    outer loop
      vertex 0.114989952087402 0.0432000007629395 0.146398025512695
      vertex 0.116826919555664 0.0432000007629395 0.146745590209961
      vertex 0.113132148742676 0.0432000007629395 0.146188690185547
    endloop
  endfacet
  facet normal 0 -1 0
    outer loop
      vertex 0.136193984985352 0.0432000007629395 0.169250534057617
      vertex 0.116826919555664 0.0432000007629395 0.146745590209961
      vertex 0.135637100219727 0.0432000007629395 0.165555770874023
    endloop
  endfacet
  facet normal 0 -1 0
    outer loop
      vertex 0.136263900756836 0.0432000007629395 0.171118789672852
      vertex 0.116826919555664 0.0432000007629395 0.146745590209961
      vertex 0.136193984985352 0.0432000007629395 0.169250534057617
    endloop
  endfacet
  facet normal 0 -1 0
    outer loop
      vertex 0.116826919555664 0.0432000007629395 0.146745590209961
      vertex 0.118632774353027 0.0432000007629395 0.147229476928711
      vertex 0.135637100219727 0.0432000007629395 0.165555770874023
    endloop
  endfacet
  facet normal 0 -1 0
    outer loop
      vertex 0.135637100219727 0.0432000007629395 0.165555770874023
      vertex 0.134535736083984 0.0432000007629395 0.161985260009766
      vertex 0.135153213500977 0.0432000007629395 0.163749908447266
    endloop
  endfacet
  facet normal 0 -1 0
    outer loop
      vertex 0.134535736083984 0.0432000007629395 0.161985260009766
      vertex 0.132914535522461 0.0432000007629395 0.158618789672852
      vertex 0.133788116455078 0.0432000007629395 0.160271697998047
    endloop
  endfacet
  facet normal -0 -1 0
    outer loop
      vertex 0.120397422790527 0.0432000007629395 0.147846954345703
      vertex 0.123763893127441 0.0432000007629395 0.149468154907227
      vertex 0.118632774353027 0.0432000007629395 0.147229476928711
    endloop
  endfacet
  facet normal -0 -1 0
    outer loop
      vertex 0.122110992431641 0.0432000007629395 0.148594573974609
      vertex 0.123763893127441 0.0432000007629395 0.149468154907227
      vertex 0.120397422790527 0.0432000007629395 0.147846954345703
    endloop
  endfacet
  facet normal 0 -1 0
    outer loop
      vertex 0.134535736083984 0.0432000007629395 0.161985260009766
      vertex 0.131919860839844 0.0432000007629395 0.157035781860352
      vertex 0.132914535522461 0.0432000007629395 0.158618789672852
    endloop
  endfacet
  facet normal 0 -1 0
    outer loop
      vertex 0.135637100219727 0.0432000007629395 0.165555770874023
      vertex 0.131919860839844 0.0432000007629395 0.157035781860352
      vertex 0.134535736083984 0.0432000007629395 0.161985260009766
    endloop
  endfacet
  facet normal -0 -1 0
    outer loop
      vertex 0.125346900939941 0.0432000007629395 0.150462814331055
      vertex 0.126851142883301 0.0432000007629395 0.151572998046875
      vertex 0.123763893127441 0.0432000007629395 0.149468154907227
    endloop
  endfacet
  facet normal 0 -1 0
    outer loop
      vertex 0.118632774353027 0.0432000007629395 0.147229476928711
      vertex 0.128268218994141 0.0432000007629395 0.152792495727539
      vertex 0.135637100219727 0.0432000007629395 0.165555770874023
    endloop
  endfacet
  facet normal 0 -1 0
    outer loop
      vertex 0.135637100219727 0.0432000007629395 0.165555770874023
      vertex 0.128268218994141 0.0432000007629395 0.152792495727539
      vertex 0.131919860839844 0.0432000007629395 0.157035781860352
    endloop
  endfacet
  facet normal 0 -1 0
    outer loop
      vertex 0.130809677124023 0.0432000007629395 0.155531539916992
      vertex 0.128268218994141 0.0432000007629395 0.152792495727539
      vertex 0.129590194702148 0.0432000007629395 0.154114471435547
    endloop
  endfacet
  facet normal 0 -1 0
    outer loop
      vertex 0.131919860839844 0.0432000007629395 0.157035781860352
      vertex 0.128268218994141 0.0432000007629395 0.152792495727539
      vertex 0.130809677124023 0.0432000007629395 0.155531539916992
    endloop
  endfacet
  facet normal -0 -1 0
    outer loop
      vertex 0.123763893127441 0.0432000007629395 0.149468154907227
      vertex 0.128268218994141 0.0432000007629395 0.152792495727539
      vertex 0.118632774353027 0.0432000007629395 0.147229476928711
    endloop
  endfacet
  facet normal -0 -1 0
    outer loop
      vertex 0.126851142883301 0.0432000007629395 0.151572998046875
      vertex 0.128268218994141 0.0432000007629395 0.152792495727539
      vertex 0.123763893127441 0.0432000007629395 0.149468154907227
    endloop
  endfacet
endsolid dell_fan_right
