solid dell_fan_right
  facet normal 0.0373886943361813 0 0.999300798326428
    outer loop
      vertex 0.111868255615234 0.0452000007629395 0.212230102539062
      vertex 0.11 0.0452000007629395 0.212300003051758
      vertex 0.11 0.0432000007629395 0.212300003051758
    endloop
  endfacet
  facet normal 0.0373886943361813 0 0.999300798326428
    outer loop
      vertex 0.111868255615234 0.0452000007629395 0.212230102539062
      vertex 0.11 0.0432000007629395 0.212300003051758
      vertex 0.111868255615234 0.0432000007629395 0.212230102539062
    endloop
  endfacet
  facet normal 0.111970371931263 0 0.993711545575261
    outer loop
      vertex 0.113726058959961 0.0452000007629395 0.212020767211914
      vertex 0.111868255615234 0.0452000007629395 0.212230102539062
      vertex 0.111868255615234 0.0432000007629395 0.212230102539062
    endloop
  endfacet
  facet normal 0.111970371931263 0 0.993711545575261
    outer loop
      vertex 0.113726058959961 0.0452000007629395 0.212020767211914
      vertex 0.111868255615234 0.0432000007629395 0.212230102539062
      vertex 0.113726058959961 0.0432000007629395 0.212020767211914
    endloop
  endfacet
  facet normal 0.185907320942531 0 0.982567284220257
    outer loop
      vertex 0.115563026428223 0.0452000007629395 0.211673202514648
      vertex 0.113726058959961 0.0432000007629395 0.212020767211914
      vertex 0.115563026428223 0.0432000007629395 0.211673202514648
    endloop
  endfacet
  facet normal 0.185907320942531 0 0.982567284220257
    outer loop
      vertex 0.115563026428223 0.0452000007629395 0.211673202514648
      vertex 0.113726058959961 0.0452000007629395 0.212020767211914
      vertex 0.113726058959961 0.0432000007629395 0.212020767211914
    endloop
  endfacet
  facet normal 0.258823728300729 0 0.965924571417722
    outer loop
      vertex 0.117368881225586 0.0452000007629395 0.211189315795898
      vertex 0.115563026428223 0.0432000007629395 0.211673202514648
      vertex 0.117368881225586 0.0432000007629395 0.211189315795898
    endloop
  endfacet
  facet normal 0.258823728300729 0 0.965924571417722
    outer loop
      vertex 0.117368881225586 0.0452000007629395 0.211189315795898
      vertex 0.115563026428223 0.0452000007629395 0.211673202514648
      vertex 0.115563026428223 0.0432000007629395 0.211673202514648
    endloop
  endfacet
  facet normal 0.33028044022731 0 0.943882848028957
    outer loop
      vertex 0.119133522033691 0.0452000007629395 0.210571838378906
      vertex 0.117368881225586 0.0432000007629395 0.211189315795898
      vertex 0.119133522033691 0.0432000007629395 0.210571838378906
    endloop
  endfacet
  facet normal 0.33028044022731 0 0.943882848028957
    outer loop
      vertex 0.119133522033691 0.0452000007629395 0.210571838378906
      vertex 0.117368881225586 0.0452000007629395 0.211189315795898
      vertex 0.117368881225586 0.0432000007629395 0.211189315795898
    endloop
  endfacet
  facet normal 0.399890603071193 0 0.916562875953067
    outer loop
      vertex 0.120847091674805 0.0452000007629395 0.20982421875
      vertex 0.119133522033691 0.0432000007629395 0.210571838378906
      vertex 0.120847091674805 0.0432000007629395 0.20982421875
    endloop
  endfacet
  facet normal 0.399890603071193 0 0.916562875953067
    outer loop
      vertex 0.120847091674805 0.0452000007629395 0.20982421875
      vertex 0.119133522033691 0.0452000007629395 0.210571838378906
      vertex 0.119133522033691 0.0432000007629395 0.210571838378906
    endloop
  endfacet
  facet normal 0.467265859070762 0 0.884116857065209
    outer loop
      vertex 0.1225 0.0452000007629395 0.208950637817383
      vertex 0.120847091674805 0.0432000007629395 0.20982421875
      vertex 0.1225 0.0432000007629395 0.208950637817383
    endloop
  endfacet
  facet normal 0.467265859070762 0 0.884116857065209
    outer loop
      vertex 0.1225 0.0452000007629395 0.208950637817383
      vertex 0.120847091674805 0.0452000007629395 0.20982421875
      vertex 0.120847091674805 0.0432000007629395 0.20982421875
    endloop
  endfacet
  facet normal 0.532035812744738 0 0.846721851588257
    outer loop
      vertex 0.124083000183105 0.0452000007629395 0.207955963134766
      vertex 0.1225 0.0452000007629395 0.208950637817383
      vertex 0.1225 0.0432000007629395 0.208950637817383
    endloop
  endfacet
  facet normal 0.532035812744738 0 0.846721851588257
    outer loop
      vertex 0.124083000183105 0.0452000007629395 0.207955963134766
      vertex 0.1225 0.0432000007629395 0.208950637817383
      vertex 0.124083000183105 0.0432000007629395 0.207955963134766
    endloop
  endfacet
  facet normal 0.593815815479248 0 0.804601005024674
    outer loop
      vertex 0.125587242126465 0.0452000007629395 0.206845794677734
      vertex 0.124083000183105 0.0452000007629395 0.207955963134766
      vertex 0.124083000183105 0.0432000007629395 0.207955963134766
    endloop
  endfacet
  facet normal 0.593815815479248 0 0.804601005024674
    outer loop
      vertex 0.125587242126465 0.0452000007629395 0.206845794677734
      vertex 0.124083000183105 0.0432000007629395 0.207955963134766
      vertex 0.125587242126465 0.0432000007629395 0.206845794677734
    endloop
  endfacet
  facet normal 0.652288972355425 0 0.757970379727007
    outer loop
      vertex 0.127004318237305 0.0452000007629395 0.20562629699707
      vertex 0.125587242126465 0.0452000007629395 0.206845794677734
      vertex 0.125587242126465 0.0432000007629395 0.206845794677734
    endloop
  endfacet
  facet normal 0.652288972355425 0 0.757970379727007
    outer loop
      vertex 0.127004318237305 0.0452000007629395 0.20562629699707
      vertex 0.125587242126465 0.0432000007629395 0.206845794677734
      vertex 0.127004318237305 0.0432000007629395 0.20562629699707
    endloop
  endfacet
  facet normal 0.707106781186547 0 0.707106781186547
    outer loop
      vertex 0.127004318237305 0.0452000007629395 0.20562629699707
      vertex 0.127004318237305 0.0432000007629395 0.20562629699707
      vertex 0.128326293945313 0.0432000007629395 0.204304321289063
    endloop
  endfacet
  facet normal 0.707106781186547 0 0.707106781186547
    outer loop
      vertex 0.128326293945313 0.0452000007629395 0.204304321289063
      vertex 0.127004318237305 0.0452000007629395 0.20562629699707
      vertex 0.128326293945313 0.0432000007629395 0.204304321289063
    endloop
  endfacet
  facet normal 0.757972116036698 0 0.652286954729934
    outer loop
      vertex 0.129545791625977 0.0452000007629395 0.202887237548828
      vertex 0.128326293945313 0.0452000007629395 0.204304321289063
      vertex 0.128326293945313 0.0432000007629395 0.204304321289063
    endloop
  endfacet
  facet normal 0.757972116036698 0 0.652286954729934
    outer loop
      vertex 0.129545791625977 0.0452000007629395 0.202887237548828
      vertex 0.128326293945313 0.0432000007629395 0.204304321289063
      vertex 0.129545791625977 0.0432000007629395 0.202887237548828
    endloop
  endfacet
  facet normal 0.804597105469188 0 0.593821099213058
    outer loop
      vertex 0.129545791625977 0.0452000007629395 0.202887237548828
      vertex 0.129545791625977 0.0432000007629395 0.202887237548828
      vertex 0.130655975341797 0.0432000007629395 0.201382995605469
    endloop
  endfacet
  facet normal 0.804597105469188 0 0.593821099213058
    outer loop
      vertex 0.130655975341797 0.0452000007629395 0.201382995605469
      vertex 0.129545791625977 0.0452000007629395 0.202887237548828
      vertex 0.130655975341797 0.0432000007629395 0.201382995605469
    endloop
  endfacet
  facet normal 0.84672437319446 0 0.532031799649654
    outer loop
      vertex 0.131650634765625 0.0452000007629395 0.199800003051758
      vertex 0.130655975341797 0.0452000007629395 0.201382995605469
      vertex 0.130655975341797 0.0432000007629395 0.201382995605469
    endloop
  endfacet
  facet normal 0.84672437319446 0 0.532031799649654
    outer loop
      vertex 0.131650634765625 0.0452000007629395 0.199800003051758
      vertex 0.130655975341797 0.0432000007629395 0.201382995605469
      vertex 0.131650634765625 0.0432000007629395 0.199800003051758
    endloop
  endfacet
  facet normal 0.884116857065209 0 0.467265859070762
    outer loop
      vertex 0.132524215698242 0.0452000007629395 0.198147094726563
      vertex 0.131650634765625 0.0452000007629395 0.199800003051758
      vertex 0.131650634765625 0.0432000007629395 0.199800003051758
    endloop
  endfacet
  facet normal 0.884116857065209 0 0.467265859070762
    outer loop
      vertex 0.132524215698242 0.0452000007629395 0.198147094726563
      vertex 0.131650634765625 0.0432000007629395 0.199800003051758
      vertex 0.132524215698242 0.0432000007629395 0.198147094726563
    endloop
  endfacet
  facet normal 0.916559231868706 0 0.399898955332778
    outer loop
      vertex 0.133271850585937 0.0452000007629395 0.196433532714844
      vertex 0.132524215698242 0.0432000007629395 0.198147094726563
      vertex 0.133271850585937 0.0432000007629395 0.196433532714844
    endloop
  endfacet
  facet normal 0.916559231868706 0 0.399898955332778
    outer loop
      vertex 0.133271850585937 0.0452000007629395 0.196433532714844
      vertex 0.132524215698242 0.0452000007629395 0.198147094726563
      vertex 0.132524215698242 0.0432000007629395 0.198147094726563
    endloop
  endfacet
  facet normal 0.943885837533107 0 0.330271896631284
    outer loop
      vertex 0.133889312744141 0.0452000007629395 0.194668884277344
      vertex 0.133271850585937 0.0432000007629395 0.196433532714844
      vertex 0.133889312744141 0.0432000007629395 0.194668884277344
    endloop
  endfacet
  facet normal 0.965924844791006 0 0.258822708075374
    outer loop
      vertex 0.133889312744141 0.0452000007629395 0.194668884277344
      vertex 0.133889312744141 0.0432000007629395 0.194668884277344
      vertex 0.134373199462891 0.0432000007629395 0.192863021850586
    endloop
  endfacet
  facet normal 0.943885837533107 0 0.330271896631284
    outer loop
      vertex 0.133889312744141 0.0452000007629395 0.194668884277344
      vertex 0.133271850585937 0.0452000007629395 0.196433532714844
      vertex 0.133271850585937 0.0432000007629395 0.196433532714844
    endloop
  endfacet
  facet normal 0.965924844791006 0 0.258822708075374
    outer loop
      vertex 0.134373199462891 0.0452000007629395 0.192863021850586
      vertex 0.133889312744141 0.0452000007629395 0.194668884277344
      vertex 0.134373199462891 0.0432000007629395 0.192863021850586
    endloop
  endfacet
  facet normal 0.982567143178891 0 0.18590806638033
    outer loop
      vertex 0.134720764160156 0.0452000007629395 0.191026062011719
      vertex 0.134373199462891 0.0432000007629395 0.192863021850586
      vertex 0.134720764160156 0.0432000007629395 0.191026062011719
    endloop
  endfacet
  facet normal 0.982567143178891 0 0.18590806638033
    outer loop
      vertex 0.134720764160156 0.0452000007629395 0.191026062011719
      vertex 0.134373199462891 0.0452000007629395 0.192863021850586
      vertex 0.134373199462891 0.0432000007629395 0.192863021850586
    endloop
  endfacet
  facet normal 0.993711545575261 0 0.111970371931263
    outer loop
      vertex 0.134930099487305 0.0452000007629395 0.189168258666992
      vertex 0.134720764160156 0.0432000007629395 0.191026062011719
      vertex 0.134930099487305 0.0432000007629395 0.189168258666992
    endloop
  endfacet
  facet normal 0.999300798326428 0 0.0373886943361813
    outer loop
      vertex 0.134930099487305 0.0452000007629395 0.189168258666992
      vertex 0.134930099487305 0.0432000007629395 0.189168258666992
      vertex 0.135 0.0432000007629395 0.187300003051758
    endloop
  endfacet
  facet normal 0.993711545575261 0 0.111970371931263
    outer loop
      vertex 0.134930099487305 0.0452000007629395 0.189168258666992
      vertex 0.134720764160156 0.0452000007629395 0.191026062011719
      vertex 0.134720764160156 0.0432000007629395 0.191026062011719
    endloop
  endfacet
  facet normal 0.999300798326428 0 0.0373886943361813
    outer loop
      vertex 0.135 0.0452000007629395 0.187300003051758
      vertex 0.134930099487305 0.0452000007629395 0.189168258666992
      vertex 0.135 0.0432000007629395 0.187300003051758
    endloop
  endfacet
  facet normal 0.999300798326428 0 -0.0373886943361813
    outer loop
      vertex 0.134930099487305 0.0452000007629395 0.185431747436523
      vertex 0.135 0.0432000007629395 0.187300003051758
      vertex 0.134930099487305 0.0432000007629395 0.185431747436523
    endloop
  endfacet
  facet normal 0.999300798326428 0 -0.0373886943361813
    outer loop
      vertex 0.134930099487305 0.0452000007629395 0.185431747436523
      vertex 0.135 0.0452000007629395 0.187300003051758
      vertex 0.135 0.0432000007629395 0.187300003051758
    endloop
  endfacet
  facet normal 0.993711545575261 0 -0.111970371931263
    outer loop
      vertex 0.134720764160156 0.0452000007629395 0.183573944091797
      vertex 0.134930099487305 0.0432000007629395 0.185431747436523
      vertex 0.134720764160156 0.0432000007629395 0.183573944091797
    endloop
  endfacet
  facet normal 0.993711545575261 0 -0.111970371931263
    outer loop
      vertex 0.134720764160156 0.0452000007629395 0.183573944091797
      vertex 0.134930099487305 0.0452000007629395 0.185431747436523
      vertex 0.134930099487305 0.0432000007629395 0.185431747436523
    endloop
  endfacet
  facet normal 0.982567143178891 0 -0.18590806638033
    outer loop
      vertex 0.134373199462891 0.0452000007629395 0.18173698425293
      vertex 0.134720764160156 0.0432000007629395 0.183573944091797
      vertex 0.134373199462891 0.0432000007629395 0.18173698425293
    endloop
  endfacet
  facet normal 0.982567143178891 0 -0.18590806638033
    outer loop
      vertex 0.134373199462891 0.0452000007629395 0.18173698425293
      vertex 0.134720764160156 0.0452000007629395 0.183573944091797
      vertex 0.134720764160156 0.0432000007629395 0.183573944091797
    endloop
  endfacet
  facet normal 0.965924844791006 0 -0.258822708075374
    outer loop
      vertex 0.133889312744141 0.0452000007629395 0.179931121826172
      vertex 0.134373199462891 0.0432000007629395 0.18173698425293
      vertex 0.133889312744141 0.0432000007629395 0.179931121826172
    endloop
  endfacet
  facet normal 0.965924844791006 0 -0.258822708075374
    outer loop
      vertex 0.133889312744141 0.0452000007629395 0.179931121826172
      vertex 0.134373199462891 0.0452000007629395 0.18173698425293
      vertex 0.134373199462891 0.0432000007629395 0.18173698425293
    endloop
  endfacet
  facet normal 0.943885837533107 0 -0.330271896631284
    outer loop
      vertex 0.133271850585937 0.0452000007629395 0.178166473388672
      vertex 0.133889312744141 0.0432000007629395 0.179931121826172
      vertex 0.133271850585937 0.0432000007629395 0.178166473388672
    endloop
  endfacet
  facet normal 0.943885837533107 0 -0.330271896631284
    outer loop
      vertex 0.133271850585937 0.0452000007629395 0.178166473388672
      vertex 0.133889312744141 0.0452000007629395 0.179931121826172
      vertex 0.133889312744141 0.0432000007629395 0.179931121826172
    endloop
  endfacet
  facet normal 0.916559231868706 0 -0.399898955332778
    outer loop
      vertex 0.132524215698242 0.0452000007629395 0.176452911376953
      vertex 0.133271850585937 0.0432000007629395 0.178166473388672
      vertex 0.132524215698242 0.0432000007629395 0.176452911376953
    endloop
  endfacet
  facet normal 0.916559231868706 0 -0.399898955332778
    outer loop
      vertex 0.132524215698242 0.0452000007629395 0.176452911376953
      vertex 0.133271850585937 0.0452000007629395 0.178166473388672
      vertex 0.133271850585937 0.0432000007629395 0.178166473388672
    endloop
  endfacet
  facet normal 0.884116857065209 0 -0.467265859070762
    outer loop
      vertex 0.131650634765625 0.0452000007629395 0.174800003051758
      vertex 0.132524215698242 0.0432000007629395 0.176452911376953
      vertex 0.131650634765625 0.0432000007629395 0.174800003051758
    endloop
  endfacet
  facet normal 0.846726683417647 0 -0.532028122930124
    outer loop
      vertex 0.131650634765625 0.0452000007629395 0.174800003051758
      vertex 0.131650634765625 0.0432000007629395 0.174800003051758
      vertex 0.130655975341797 0.0432000007629395 0.173216995239258
    endloop
  endfacet
  facet normal 0.884116857065209 0 -0.467265859070762
    outer loop
      vertex 0.131650634765625 0.0452000007629395 0.174800003051758
      vertex 0.132524215698242 0.0452000007629395 0.176452911376953
      vertex 0.132524215698242 0.0432000007629395 0.176452911376953
    endloop
  endfacet
  facet normal 0.846726683417647 0 -0.532028122930124
    outer loop
      vertex 0.130655975341797 0.0452000007629395 0.173216995239258
      vertex 0.131650634765625 0.0452000007629395 0.174800003051758
      vertex 0.130655975341797 0.0432000007629395 0.173216995239258
    endloop
  endfacet
  facet normal 0.804597105469188 0 -0.593821099213058
    outer loop
      vertex 0.129545791625977 0.0452000007629395 0.171712753295898
      vertex 0.130655975341797 0.0432000007629395 0.173216995239258
      vertex 0.129545791625977 0.0432000007629395 0.171712753295898
    endloop
  endfacet
  facet normal 0.804597105469188 0 -0.593821099213058
    outer loop
      vertex 0.129545791625977 0.0452000007629395 0.171712753295898
      vertex 0.130655975341797 0.0452000007629395 0.173216995239258
      vertex 0.130655975341797 0.0432000007629395 0.173216995239258
    endloop
  endfacet
  facet normal 0.757968643401204 0 -0.652290989988776
    outer loop
      vertex 0.128326293945313 0.0452000007629395 0.170295684814453
      vertex 0.129545791625977 0.0432000007629395 0.171712753295898
      vertex 0.128326293945313 0.0432000007629395 0.170295684814453
    endloop
  endfacet
  facet normal 0.757968643401204 0 -0.652290989988776
    outer loop
      vertex 0.128326293945313 0.0452000007629395 0.170295684814453
      vertex 0.129545791625977 0.0452000007629395 0.171712753295898
      vertex 0.129545791625977 0.0432000007629395 0.171712753295898
    endloop
  endfacet
  facet normal 0.707106781186547 0 -0.707106781186547
    outer loop
      vertex 0.127004318237305 0.0452000007629395 0.168973709106445
      vertex 0.128326293945313 0.0452000007629395 0.170295684814453
      vertex 0.128326293945313 0.0432000007629395 0.170295684814453
    endloop
  endfacet
  facet normal 0.707106781186547 0 -0.707106781186547
    outer loop
      vertex 0.127004318237305 0.0452000007629395 0.168973709106445
      vertex 0.128326293945313 0.0432000007629395 0.170295684814453
      vertex 0.127004318237305 0.0432000007629395 0.168973709106445
    endloop
  endfacet
  facet normal 0.652288972355425 0 -0.757970379727007
    outer loop
      vertex 0.127004318237305 0.0452000007629395 0.168973709106445
      vertex 0.127004318237305 0.0432000007629395 0.168973709106445
      vertex 0.125587242126465 0.0432000007629395 0.167754211425781
    endloop
  endfacet
  facet normal 0.652288972355425 0 -0.757970379727007
    outer loop
      vertex 0.125587242126465 0.0452000007629395 0.167754211425781
      vertex 0.127004318237305 0.0452000007629395 0.168973709106445
      vertex 0.125587242126465 0.0432000007629395 0.167754211425781
    endloop
  endfacet
  facet normal 0.593821099213058 0 -0.804597105469188
    outer loop
      vertex 0.124083000183105 0.0452000007629395 0.166644027709961
      vertex 0.125587242126465 0.0452000007629395 0.167754211425781
      vertex 0.125587242126465 0.0432000007629395 0.167754211425781
    endloop
  endfacet
  facet normal 0.593821099213058 0 -0.804597105469188
    outer loop
      vertex 0.124083000183105 0.0452000007629395 0.166644027709961
      vertex 0.125587242126465 0.0432000007629395 0.167754211425781
      vertex 0.124083000183105 0.0432000007629395 0.166644027709961
    endloop
  endfacet
  facet normal 0.532029961284791 0 -0.846725528312041
    outer loop
      vertex 0.1225 0.0452000007629395 0.165649368286133
      vertex 0.124083000183105 0.0452000007629395 0.166644027709961
      vertex 0.124083000183105 0.0432000007629395 0.166644027709961
    endloop
  endfacet
  facet normal 0.532029961284791 0 -0.846725528312041
    outer loop
      vertex 0.1225 0.0452000007629395 0.165649368286133
      vertex 0.124083000183105 0.0432000007629395 0.166644027709961
      vertex 0.1225 0.0432000007629395 0.165649368286133
    endloop
  endfacet
  facet normal 0.467272238735131 0 -0.884113485310262
    outer loop
      vertex 0.120847091674805 0.0452000007629395 0.164775772094727
      vertex 0.1225 0.0452000007629395 0.165649368286133
      vertex 0.1225 0.0432000007629395 0.165649368286133
    endloop
  endfacet
  facet normal 0.467272238735131 0 -0.884113485310262
    outer loop
      vertex 0.120847091674805 0.0452000007629395 0.164775772094727
      vertex 0.1225 0.0432000007629395 0.165649368286133
      vertex 0.120847091674805 0.0432000007629395 0.164775772094727
    endloop
  endfacet
  facet normal 0.399890603071193 0 -0.916562875953067
    outer loop
      vertex 0.119133522033691 0.0452000007629395 0.16402815246582
      vertex 0.120847091674805 0.0432000007629395 0.164775772094727
      vertex 0.119133522033691 0.0432000007629395 0.16402815246582
    endloop
  endfacet
  facet normal 0.399890603071193 0 -0.916562875953067
    outer loop
      vertex 0.119133522033691 0.0452000007629395 0.16402815246582
      vertex 0.120847091674805 0.0452000007629395 0.164775772094727
      vertex 0.120847091674805 0.0432000007629395 0.164775772094727
    endloop
  endfacet
  facet normal 0.33028044022731 0 -0.943882848028957
    outer loop
      vertex 0.117368881225586 0.0452000007629395 0.163410675048828
      vertex 0.119133522033691 0.0432000007629395 0.16402815246582
      vertex 0.117368881225586 0.0432000007629395 0.163410675048828
    endloop
  endfacet
  facet normal 0.33028044022731 0 -0.943882848028957
    outer loop
      vertex 0.117368881225586 0.0452000007629395 0.163410675048828
      vertex 0.119133522033691 0.0452000007629395 0.16402815246582
      vertex 0.119133522033691 0.0432000007629395 0.16402815246582
    endloop
  endfacet
  facet normal 0.258816113329621 0 -0.965926611850481
    outer loop
      vertex 0.115563026428223 0.0452000007629395 0.162926803588867
      vertex 0.117368881225586 0.0432000007629395 0.163410675048828
      vertex 0.115563026428223 0.0432000007629395 0.162926803588867
    endloop
  endfacet
  facet normal 0.258816113329621 0 -0.965926611850481
    outer loop
      vertex 0.115563026428223 0.0452000007629395 0.162926803588867
      vertex 0.117368881225586 0.0452000007629395 0.163410675048828
      vertex 0.117368881225586 0.0432000007629395 0.163410675048828
    endloop
  endfacet
  facet normal 0.185915200548758 0 -0.982565793321198
    outer loop
      vertex 0.113726058959961 0.0452000007629395 0.162579223632812
      vertex 0.115563026428223 0.0432000007629395 0.162926803588867
      vertex 0.113726058959961 0.0432000007629395 0.162579223632812
    endloop
  endfacet
  facet normal 0.185915200548758 0 -0.982565793321198
    outer loop
      vertex 0.113726058959961 0.0452000007629395 0.162579223632812
      vertex 0.115563026428223 0.0452000007629395 0.162926803588867
      vertex 0.115563026428223 0.0432000007629395 0.162926803588867
    endloop
  endfacet
  facet normal 0.111962312545727 0 -0.993712453665251
    outer loop
      vertex 0.111868255615234 0.0452000007629395 0.162369903564453
      vertex 0.113726058959961 0.0432000007629395 0.162579223632812
      vertex 0.111868255615234 0.0432000007629395 0.162369903564453
    endloop
  endfacet
  facet normal 0.111962312545727 0 -0.993712453665251
    outer loop
      vertex 0.111868255615234 0.0452000007629395 0.162369903564453
      vertex 0.113726058959961 0.0452000007629395 0.162579223632812
      vertex 0.113726058959961 0.0432000007629395 0.162579223632812
    endloop
  endfacet
  facet normal 0.0373886943361813 0 -0.999300798326428
    outer loop
      vertex 0.11 0.0452000007629395 0.162300003051758
      vertex 0.111868255615234 0.0432000007629395 0.162369903564453
      vertex 0.11 0.0432000007629395 0.162300003051758
    endloop
  endfacet
  facet normal -0.0373886943361813 -0 -0.999300798326428
    outer loop
      vertex 0.11 0.0452000007629395 0.162300003051758
      vertex 0.11 0.0432000007629395 0.162300003051758
      vertex 0.108131744384766 0.0432000007629395 0.162369903564453
    endloop
  endfacet
  facet normal 0.0373886943361813 0 -0.999300798326428
    outer loop
      vertex 0.11 0.0452000007629395 0.162300003051758
      vertex 0.111868255615234 0.0452000007629395 0.162369903564453
      vertex 0.111868255615234 0.0432000007629395 0.162369903564453
    endloop
  endfacet
  facet normal -0.0373886943361813 -0 -0.999300798326428
    outer loop
      vertex 0.108131744384766 0.0452000007629395 0.162369903564453
      vertex 0.11 0.0452000007629395 0.162300003051758
      vertex 0.108131744384766 0.0432000007629395 0.162369903564453
    endloop
  endfacet
  facet normal -0.111962312545727 -0 -0.993712453665251
    outer loop
      vertex 0.106273941040039 0.0452000007629395 0.162579223632812
      vertex 0.108131744384766 0.0432000007629395 0.162369903564453
      vertex 0.106273941040039 0.0432000007629395 0.162579223632812
    endloop
  endfacet
  facet normal -0.111962312545727 0 -0.993712453665251
    outer loop
      vertex 0.106273941040039 0.0452000007629395 0.162579223632812
      vertex 0.108131744384766 0.0452000007629395 0.162369903564453
      vertex 0.108131744384766 0.0432000007629395 0.162369903564453
    endloop
  endfacet
  facet normal -0.185915200548758 -0 -0.982565793321198
    outer loop
      vertex 0.104436973571777 0.0452000007629395 0.162926803588867
      vertex 0.106273941040039 0.0432000007629395 0.162579223632812
      vertex 0.104436973571777 0.0432000007629395 0.162926803588867
    endloop
  endfacet
  facet normal -0.185915200548758 0 -0.982565793321198
    outer loop
      vertex 0.104436973571777 0.0452000007629395 0.162926803588867
      vertex 0.106273941040039 0.0452000007629395 0.162579223632812
      vertex 0.106273941040039 0.0432000007629395 0.162579223632812
    endloop
  endfacet
  facet normal -0.258816113329621 -0 -0.965926611850481
    outer loop
      vertex 0.102631118774414 0.0452000007629395 0.163410675048828
      vertex 0.104436973571777 0.0432000007629395 0.162926803588867
      vertex 0.102631118774414 0.0432000007629395 0.163410675048828
    endloop
  endfacet
  facet normal -0.258816113329621 0 -0.965926611850481
    outer loop
      vertex 0.102631118774414 0.0452000007629395 0.163410675048828
      vertex 0.104436973571777 0.0452000007629395 0.162926803588867
      vertex 0.104436973571777 0.0432000007629395 0.162926803588867
    endloop
  endfacet
  facet normal -0.33028044022731 -0 -0.943882848028957
    outer loop
      vertex 0.100866477966309 0.0452000007629395 0.16402815246582
      vertex 0.102631118774414 0.0432000007629395 0.163410675048828
      vertex 0.100866477966309 0.0432000007629395 0.16402815246582
    endloop
  endfacet
  facet normal -0.33028044022731 0 -0.943882848028957
    outer loop
      vertex 0.100866477966309 0.0452000007629395 0.16402815246582
      vertex 0.102631118774414 0.0452000007629395 0.163410675048828
      vertex 0.102631118774414 0.0432000007629395 0.163410675048828
    endloop
  endfacet
  facet normal -0.399890603071193 -0 -0.916562875953067
    outer loop
      vertex 0.0991529083251953 0.0452000007629395 0.164775772094727
      vertex 0.100866477966309 0.0432000007629395 0.16402815246582
      vertex 0.0991529083251953 0.0432000007629395 0.164775772094727
    endloop
  endfacet
  facet normal -0.399890603071193 0 -0.916562875953067
    outer loop
      vertex 0.0991529083251953 0.0452000007629395 0.164775772094727
      vertex 0.100866477966309 0.0452000007629395 0.16402815246582
      vertex 0.100866477966309 0.0432000007629395 0.16402815246582
    endloop
  endfacet
  facet normal -0.467272238735131 -0 -0.884113485310262
    outer loop
      vertex 0.0975 0.0452000007629395 0.165649368286133
      vertex 0.0991529083251953 0.0432000007629395 0.164775772094727
      vertex 0.0975 0.0432000007629395 0.165649368286133
    endloop
  endfacet
  facet normal -0.467272238735131 0 -0.884113485310262
    outer loop
      vertex 0.0975 0.0452000007629395 0.165649368286133
      vertex 0.0991529083251953 0.0452000007629395 0.164775772094727
      vertex 0.0991529083251953 0.0432000007629395 0.164775772094727
    endloop
  endfacet
  facet normal -0.532029961284791 -0 -0.846725528312041
    outer loop
      vertex 0.0959169998168945 0.0452000007629395 0.166644027709961
      vertex 0.0975 0.0432000007629395 0.165649368286133
      vertex 0.0959169998168945 0.0432000007629395 0.166644027709961
    endloop
  endfacet
  facet normal -0.532029961284791 0 -0.846725528312041
    outer loop
      vertex 0.0959169998168945 0.0452000007629395 0.166644027709961
      vertex 0.0975 0.0452000007629395 0.165649368286133
      vertex 0.0975 0.0432000007629395 0.165649368286133
    endloop
  endfacet
  facet normal -0.593821099213058 -0 -0.804597105469188
    outer loop
      vertex 0.0944127578735352 0.0452000007629395 0.167754211425781
      vertex 0.0959169998168945 0.0432000007629395 0.166644027709961
      vertex 0.0944127578735352 0.0432000007629395 0.167754211425781
    endloop
  endfacet
  facet normal -0.593821099213058 0 -0.804597105469188
    outer loop
      vertex 0.0944127578735352 0.0452000007629395 0.167754211425781
      vertex 0.0959169998168945 0.0452000007629395 0.166644027709961
      vertex 0.0959169998168945 0.0432000007629395 0.166644027709961
    endloop
  endfacet
  facet normal -0.652288972355425 -0 -0.757970379727007
    outer loop
      vertex 0.0929956817626953 0.0452000007629395 0.168973709106445
      vertex 0.0944127578735352 0.0432000007629395 0.167754211425781
      vertex 0.0929956817626953 0.0432000007629395 0.168973709106445
    endloop
  endfacet
  facet normal -0.707106781186547 -0 -0.707106781186547
    outer loop
      vertex 0.0929956817626953 0.0452000007629395 0.168973709106445
      vertex 0.0929956817626953 0.0432000007629395 0.168973709106445
      vertex 0.0916737060546875 0.0432000007629395 0.170295684814453
    endloop
  endfacet
  facet normal -0.652288972355425 0 -0.757970379727007
    outer loop
      vertex 0.0929956817626953 0.0452000007629395 0.168973709106445
      vertex 0.0944127578735352 0.0452000007629395 0.167754211425781
      vertex 0.0944127578735352 0.0432000007629395 0.167754211425781
    endloop
  endfacet
  facet normal -0.707106781186547 -0 -0.707106781186547
    outer loop
      vertex 0.0916737060546875 0.0452000007629395 0.170295684814453
      vertex 0.0929956817626953 0.0452000007629395 0.168973709106445
      vertex 0.0916737060546875 0.0432000007629395 0.170295684814453
    endloop
  endfacet
  facet normal -0.75797066104023 -0 -0.652288645464748
    outer loop
      vertex 0.090454216003418 0.0452000007629395 0.171712753295898
      vertex 0.0916737060546875 0.0432000007629395 0.170295684814453
      vertex 0.090454216003418 0.0432000007629395 0.171712753295898
    endloop
  endfacet
  facet normal -0.75797066104023 0 -0.652288645464748
    outer loop
      vertex 0.090454216003418 0.0452000007629395 0.171712753295898
      vertex 0.0916737060546875 0.0452000007629395 0.170295684814453
      vertex 0.0916737060546875 0.0432000007629395 0.170295684814453
    endloop
  endfacet
  facet normal -0.804597105469188 -0 -0.593821099213058
    outer loop
      vertex 0.0893440322875977 0.0452000007629395 0.173216995239258
      vertex 0.090454216003418 0.0432000007629395 0.171712753295898
      vertex 0.0893440322875977 0.0432000007629395 0.173216995239258
    endloop
  endfacet
  facet normal -0.804597105469188 0 -0.593821099213058
    outer loop
      vertex 0.0893440322875977 0.0452000007629395 0.173216995239258
      vertex 0.090454216003418 0.0452000007629395 0.171712753295898
      vertex 0.090454216003418 0.0432000007629395 0.171712753295898
    endloop
  endfacet
  facet normal -0.846724845067016 -0 -0.532031048667499
    outer loop
      vertex 0.088349365234375 0.0452000007629395 0.174800003051758
      vertex 0.0893440322875977 0.0432000007629395 0.173216995239258
      vertex 0.088349365234375 0.0432000007629395 0.174800003051758
    endloop
  endfacet
  facet normal -0.846724845067016 0 -0.532031048667499
    outer loop
      vertex 0.088349365234375 0.0452000007629395 0.174800003051758
      vertex 0.0893440322875977 0.0452000007629395 0.173216995239258
      vertex 0.0893440322875977 0.0432000007629395 0.173216995239258
    endloop
  endfacet
  facet normal -0.884115171190275 -0 -0.46726904891207
    outer loop
      vertex 0.0874757766723633 0.0452000007629395 0.176452911376953
      vertex 0.088349365234375 0.0432000007629395 0.174800003051758
      vertex 0.0874757766723633 0.0432000007629395 0.176452911376953
    endloop
  endfacet
  facet normal -0.884115171190275 0 -0.46726904891207
    outer loop
      vertex 0.0874757766723633 0.0452000007629395 0.176452911376953
      vertex 0.088349365234375 0.0452000007629395 0.174800003051758
      vertex 0.088349365234375 0.0432000007629395 0.174800003051758
    endloop
  endfacet
  facet normal -0.916562223370585 0 -0.399892098809129
    outer loop
      vertex 0.086728157043457 0.0452000007629395 0.178166473388672
      vertex 0.0874757766723633 0.0452000007629395 0.176452911376953
      vertex 0.0874757766723633 0.0432000007629395 0.176452911376953
    endloop
  endfacet
  facet normal -0.916562223370585 -0 -0.399892098809129
    outer loop
      vertex 0.086728157043457 0.0452000007629395 0.178166473388672
      vertex 0.0874757766723633 0.0432000007629395 0.176452911376953
      vertex 0.086728157043457 0.0432000007629395 0.178166473388672
    endloop
  endfacet
  facet normal -0.943883293187846 0 -0.330279168039504
    outer loop
      vertex 0.0861106796264648 0.0452000007629395 0.179931121826172
      vertex 0.086728157043457 0.0452000007629395 0.178166473388672
      vertex 0.086728157043457 0.0432000007629395 0.178166473388672
    endloop
  endfacet
  facet normal -0.943883293187846 -0 -0.330279168039504
    outer loop
      vertex 0.0861106796264648 0.0452000007629395 0.179931121826172
      vertex 0.086728157043457 0.0432000007629395 0.178166473388672
      vertex 0.0861106796264648 0.0432000007629395 0.179931121826172
    endloop
  endfacet
  facet normal -0.965925865006058 0 -0.258818900608705
    outer loop
      vertex 0.0856268005371094 0.0452000007629395 0.18173698425293
      vertex 0.0861106796264648 0.0452000007629395 0.179931121826172
      vertex 0.0861106796264648 0.0432000007629395 0.179931121826172
    endloop
  endfacet
  facet normal -0.965925865006058 -0 -0.258818900608705
    outer loop
      vertex 0.0856268005371094 0.0452000007629395 0.18173698425293
      vertex 0.0861106796264648 0.0432000007629395 0.179931121826172
      vertex 0.0856268005371094 0.0432000007629395 0.18173698425293
    endloop
  endfacet
  facet normal -0.982566397730824 0 -0.185912006202593
    outer loop
      vertex 0.0852792282104492 0.0452000007629395 0.183573944091797
      vertex 0.0856268005371094 0.0452000007629395 0.18173698425293
      vertex 0.0856268005371094 0.0432000007629395 0.18173698425293
    endloop
  endfacet
  facet normal -0.982566397730824 -0 -0.185912006202593
    outer loop
      vertex 0.0852792282104492 0.0452000007629395 0.183573944091797
      vertex 0.0856268005371094 0.0432000007629395 0.18173698425293
      vertex 0.0852792282104492 0.0432000007629395 0.183573944091797
    endloop
  endfacet
  facet normal -0.993712453665251 0 -0.111962312545727
    outer loop
      vertex 0.0850699081420898 0.0452000007629395 0.185431747436523
      vertex 0.0852792282104492 0.0452000007629395 0.183573944091797
      vertex 0.0852792282104492 0.0432000007629395 0.183573944091797
    endloop
  endfacet
  facet normal -0.993712453665251 -0 -0.111962312545727
    outer loop
      vertex 0.0850699081420898 0.0452000007629395 0.185431747436523
      vertex 0.0852792282104492 0.0432000007629395 0.183573944091797
      vertex 0.0850699081420898 0.0432000007629395 0.185431747436523
    endloop
  endfacet
  facet normal -0.999300645847389 0 -0.037392769474753
    outer loop
      vertex 0.085 0.0452000007629395 0.187300003051758
      vertex 0.0850699081420898 0.0452000007629395 0.185431747436523
      vertex 0.0850699081420898 0.0432000007629395 0.185431747436523
    endloop
  endfacet
  facet normal -0.999300645847389 -0 -0.037392769474753
    outer loop
      vertex 0.085 0.0452000007629395 0.187300003051758
      vertex 0.0850699081420898 0.0432000007629395 0.185431747436523
      vertex 0.085 0.0432000007629395 0.187300003051758
    endloop
  endfacet
  facet normal -0.999300645847389 0 0.037392769474753
    outer loop
      vertex 0.085 0.0452000007629395 0.187300003051758
      vertex 0.085 0.0432000007629395 0.187300003051758
      vertex 0.0850699081420898 0.0432000007629395 0.189168258666992
    endloop
  endfacet
  facet normal -0.999300645847389 0 0.037392769474753
    outer loop
      vertex 0.0850699081420898 0.0452000007629395 0.189168258666992
      vertex 0.085 0.0452000007629395 0.187300003051758
      vertex 0.0850699081420898 0.0432000007629395 0.189168258666992
    endloop
  endfacet
  facet normal -0.993712453665251 0 0.111962312545727
    outer loop
      vertex 0.0852792282104492 0.0452000007629395 0.191026062011719
      vertex 0.0850699081420898 0.0452000007629395 0.189168258666992
      vertex 0.0850699081420898 0.0432000007629395 0.189168258666992
    endloop
  endfacet
  facet normal -0.993712453665251 0 0.111962312545727
    outer loop
      vertex 0.0852792282104492 0.0452000007629395 0.191026062011719
      vertex 0.0850699081420898 0.0432000007629395 0.189168258666992
      vertex 0.0852792282104492 0.0432000007629395 0.191026062011719
    endloop
  endfacet
  facet normal -0.982566397730824 0 0.185912006202593
    outer loop
      vertex 0.0856268005371094 0.0452000007629395 0.192863021850586
      vertex 0.0852792282104492 0.0452000007629395 0.191026062011719
      vertex 0.0852792282104492 0.0432000007629395 0.191026062011719
    endloop
  endfacet
  facet normal -0.982566397730824 0 0.185912006202593
    outer loop
      vertex 0.0856268005371094 0.0452000007629395 0.192863021850586
      vertex 0.0852792282104492 0.0432000007629395 0.191026062011719
      vertex 0.0856268005371094 0.0432000007629395 0.192863021850586
    endloop
  endfacet
  facet normal -0.965925865006058 0 0.258818900608705
    outer loop
      vertex 0.0856268005371094 0.0452000007629395 0.192863021850586
      vertex 0.0856268005371094 0.0432000007629395 0.192863021850586
      vertex 0.0861106796264648 0.0432000007629395 0.194668884277344
    endloop
  endfacet
  facet normal -0.965925865006058 0 0.258818900608705
    outer loop
      vertex 0.0861106796264648 0.0452000007629395 0.194668884277344
      vertex 0.0856268005371094 0.0452000007629395 0.192863021850586
      vertex 0.0861106796264648 0.0432000007629395 0.194668884277344
    endloop
  endfacet
  facet normal -0.943883293187846 0 0.330279168039504
    outer loop
      vertex 0.086728157043457 0.0452000007629395 0.196433532714844
      vertex 0.0861106796264648 0.0452000007629395 0.194668884277344
      vertex 0.0861106796264648 0.0432000007629395 0.194668884277344
    endloop
  endfacet
  facet normal -0.943883293187846 0 0.330279168039504
    outer loop
      vertex 0.086728157043457 0.0452000007629395 0.196433532714844
      vertex 0.0861106796264648 0.0432000007629395 0.194668884277344
      vertex 0.086728157043457 0.0432000007629395 0.196433532714844
    endloop
  endfacet
  facet normal -0.916562223370585 0 0.399892098809129
    outer loop
      vertex 0.0874757766723633 0.0452000007629395 0.198147094726563
      vertex 0.086728157043457 0.0452000007629395 0.196433532714844
      vertex 0.086728157043457 0.0432000007629395 0.196433532714844
    endloop
  endfacet
  facet normal -0.916562223370585 0 0.399892098809129
    outer loop
      vertex 0.0874757766723633 0.0452000007629395 0.198147094726563
      vertex 0.086728157043457 0.0432000007629395 0.196433532714844
      vertex 0.0874757766723633 0.0432000007629395 0.198147094726563
    endloop
  endfacet
  facet normal -0.884115171190275 0 0.46726904891207
    outer loop
      vertex 0.088349365234375 0.0452000007629395 0.199800003051758
      vertex 0.0874757766723633 0.0452000007629395 0.198147094726563
      vertex 0.0874757766723633 0.0432000007629395 0.198147094726563
    endloop
  endfacet
  facet normal -0.884115171190275 0 0.46726904891207
    outer loop
      vertex 0.088349365234375 0.0452000007629395 0.199800003051758
      vertex 0.0874757766723633 0.0432000007629395 0.198147094726563
      vertex 0.088349365234375 0.0432000007629395 0.199800003051758
    endloop
  endfacet
  facet normal -0.846722534823435 0 0.532034725391282
    outer loop
      vertex 0.0893440322875977 0.0452000007629395 0.201382995605469
      vertex 0.088349365234375 0.0452000007629395 0.199800003051758
      vertex 0.088349365234375 0.0432000007629395 0.199800003051758
    endloop
  endfacet
  facet normal -0.846722534823435 0 0.532034725391282
    outer loop
      vertex 0.0893440322875977 0.0452000007629395 0.201382995605469
      vertex 0.088349365234375 0.0432000007629395 0.199800003051758
      vertex 0.0893440322875977 0.0432000007629395 0.201382995605469
    endloop
  endfacet
  facet normal -0.804597105469188 0 0.593821099213058
    outer loop
      vertex 0.090454216003418 0.0452000007629395 0.202887237548828
      vertex 0.0893440322875977 0.0432000007629395 0.201382995605469
      vertex 0.090454216003418 0.0432000007629395 0.202887237548828
    endloop
  endfacet
  facet normal -0.804597105469188 0 0.593821099213058
    outer loop
      vertex 0.090454216003418 0.0452000007629395 0.202887237548828
      vertex 0.0893440322875977 0.0452000007629395 0.201382995605469
      vertex 0.0893440322875977 0.0432000007629395 0.201382995605469
    endloop
  endfacet
  facet normal -0.757974133660004 0 0.652284610198927
    outer loop
      vertex 0.0916737060546875 0.0452000007629395 0.204304321289063
      vertex 0.090454216003418 0.0432000007629395 0.202887237548828
      vertex 0.0916737060546875 0.0432000007629395 0.204304321289063
    endloop
  endfacet
  facet normal -0.757974133660004 0 0.652284610198927
    outer loop
      vertex 0.0916737060546875 0.0452000007629395 0.204304321289063
      vertex 0.090454216003418 0.0452000007629395 0.202887237548828
      vertex 0.090454216003418 0.0432000007629395 0.202887237548828
    endloop
  endfacet
  facet normal -0.707106781186547 0 0.707106781186547
    outer loop
      vertex 0.0929956817626953 0.0452000007629395 0.20562629699707
      vertex 0.0916737060546875 0.0432000007629395 0.204304321289063
      vertex 0.0929956817626953 0.0432000007629395 0.20562629699707
    endloop
  endfacet
  facet normal -0.707106781186547 0 0.707106781186547
    outer loop
      vertex 0.0929956817626953 0.0452000007629395 0.20562629699707
      vertex 0.0916737060546875 0.0452000007629395 0.204304321289063
      vertex 0.0916737060546875 0.0432000007629395 0.204304321289063
    endloop
  endfacet
  facet normal -0.652288972355425 0 0.757970379727007
    outer loop
      vertex 0.0944127578735352 0.0452000007629395 0.206845794677734
      vertex 0.0929956817626953 0.0432000007629395 0.20562629699707
      vertex 0.0944127578735352 0.0432000007629395 0.206845794677734
    endloop
  endfacet
  facet normal -0.652288972355425 0 0.757970379727007
    outer loop
      vertex 0.0944127578735352 0.0452000007629395 0.206845794677734
      vertex 0.0929956817626953 0.0452000007629395 0.20562629699707
      vertex 0.0929956817626953 0.0432000007629395 0.20562629699707
    endloop
  endfacet
  facet normal -0.593815815479248 0 0.804601005024674
    outer loop
      vertex 0.0959169998168945 0.0452000007629395 0.207955963134766
      vertex 0.0944127578735352 0.0432000007629395 0.206845794677734
      vertex 0.0959169998168945 0.0432000007629395 0.207955963134766
    endloop
  endfacet
  facet normal -0.593815815479248 0 0.804601005024674
    outer loop
      vertex 0.0959169998168945 0.0452000007629395 0.207955963134766
      vertex 0.0944127578735352 0.0452000007629395 0.206845794677734
      vertex 0.0944127578735352 0.0432000007629395 0.206845794677734
    endloop
  endfacet
  facet normal -0.532035812744738 0 0.846721851588257
    outer loop
      vertex 0.0975 0.0452000007629395 0.208950637817383
      vertex 0.0959169998168945 0.0432000007629395 0.207955963134766
      vertex 0.0975 0.0432000007629395 0.208950637817383
    endloop
  endfacet
  facet normal -0.532035812744738 0 0.846721851588257
    outer loop
      vertex 0.0975 0.0452000007629395 0.208950637817383
      vertex 0.0959169998168945 0.0452000007629395 0.207955963134766
      vertex 0.0959169998168945 0.0432000007629395 0.207955963134766
    endloop
  endfacet
  facet normal -0.467265859070762 0 0.884116857065209
    outer loop
      vertex 0.0991529083251953 0.0452000007629395 0.20982421875
      vertex 0.0975 0.0432000007629395 0.208950637817383
      vertex 0.0991529083251953 0.0432000007629395 0.20982421875
    endloop
  endfacet
  facet normal -0.467265859070762 0 0.884116857065209
    outer loop
      vertex 0.0991529083251953 0.0452000007629395 0.20982421875
      vertex 0.0975 0.0452000007629395 0.208950637817383
      vertex 0.0975 0.0432000007629395 0.208950637817383
    endloop
  endfacet
  facet normal -0.399890603071193 0 0.916562875953067
    outer loop
      vertex 0.100866477966309 0.0452000007629395 0.210571838378906
      vertex 0.0991529083251953 0.0432000007629395 0.20982421875
      vertex 0.100866477966309 0.0432000007629395 0.210571838378906
    endloop
  endfacet
  facet normal -0.399890603071193 0 0.916562875953067
    outer loop
      vertex 0.100866477966309 0.0452000007629395 0.210571838378906
      vertex 0.0991529083251953 0.0452000007629395 0.20982421875
      vertex 0.0991529083251953 0.0432000007629395 0.20982421875
    endloop
  endfacet
  facet normal -0.33028044022731 0 0.943882848028957
    outer loop
      vertex 0.102631118774414 0.0452000007629395 0.211189315795898
      vertex 0.100866477966309 0.0432000007629395 0.210571838378906
      vertex 0.102631118774414 0.0432000007629395 0.211189315795898
    endloop
  endfacet
  facet normal -0.33028044022731 0 0.943882848028957
    outer loop
      vertex 0.102631118774414 0.0452000007629395 0.211189315795898
      vertex 0.100866477966309 0.0452000007629395 0.210571838378906
      vertex 0.100866477966309 0.0432000007629395 0.210571838378906
    endloop
  endfacet
  facet normal -0.258823728300729 0 0.965924571417722
    outer loop
      vertex 0.104436973571777 0.0452000007629395 0.211673202514648
      vertex 0.102631118774414 0.0432000007629395 0.211189315795898
      vertex 0.104436973571777 0.0432000007629395 0.211673202514648
    endloop
  endfacet
  facet normal -0.258823728300729 0 0.965924571417722
    outer loop
      vertex 0.104436973571777 0.0452000007629395 0.211673202514648
      vertex 0.102631118774414 0.0452000007629395 0.211189315795898
      vertex 0.102631118774414 0.0432000007629395 0.211189315795898
    endloop
  endfacet
  facet normal -0.185907320942531 0 0.982567284220257
    outer loop
      vertex 0.106273941040039 0.0452000007629395 0.212020767211914
      vertex 0.104436973571777 0.0432000007629395 0.211673202514648
      vertex 0.106273941040039 0.0432000007629395 0.212020767211914
    endloop
  endfacet
  facet normal -0.185907320942531 0 0.982567284220257
    outer loop
      vertex 0.106273941040039 0.0452000007629395 0.212020767211914
      vertex 0.104436973571777 0.0452000007629395 0.211673202514648
      vertex 0.104436973571777 0.0432000007629395 0.211673202514648
    endloop
  endfacet
  facet normal -0.111970371931263 0 0.993711545575261
    outer loop
      vertex 0.108131744384766 0.0452000007629395 0.212230102539062
      vertex 0.106273941040039 0.0452000007629395 0.212020767211914
      vertex 0.106273941040039 0.0432000007629395 0.212020767211914
    endloop
  endfacet
  facet normal -0.111970371931263 0 0.993711545575261
    outer loop
      vertex 0.108131744384766 0.0452000007629395 0.212230102539062
      vertex 0.106273941040039 0.0432000007629395 0.212020767211914
      vertex 0.108131744384766 0.0432000007629395 0.212230102539062
    endloop
  endfacet
  facet normal -0.0373886943361813 0 0.999300798326428
    outer loop
      vertex 0.11 0.0452000007629395 0.212300003051758
      vertex 0.108131744384766 0.0452000007629395 0.212230102539062
      vertex 0.108131744384766 0.0432000007629395 0.212230102539062
    endloop
  endfacet
  facet normal -0.0373886943361813 0 0.999300798326428
    outer loop
      vertex 0.11 0.0452000007629395 0.212300003051758
      vertex 0.108131744384766 0.0432000007629395 0.212230102539062
      vertex 0.11 0.0432000007629395 0.212300003051758
    endloop
  endfacet
  facet normal 0 1 0
    outer loop
      vertex 0.0944127578735352 0.0452000007629395 0.167754211425781
      vertex 0.0929956817626953 0.0452000007629395 0.168973709106445
      vertex 0.0916737060546875 0.0452000007629395 0.170295684814453
    endloop
  endfacet
  facet normal 0 1 0
    outer loop
      vertex 0.0959169998168945 0.0452000007629395 0.166644027709961
      vertex 0.0916737060546875 0.0452000007629395 0.170295684814453
      vertex 0.090454216003418 0.0452000007629395 0.171712753295898
    endloop
  endfacet
  facet normal 0 1 0
    outer loop
      vertex 0.0959169998168945 0.0452000007629395 0.166644027709961
      vertex 0.0944127578735352 0.0452000007629395 0.167754211425781
      vertex 0.0916737060546875 0.0452000007629395 0.170295684814453
    endloop
  endfacet
  facet normal 0 1 0
    outer loop
      vertex 0.088349365234375 0.0452000007629395 0.174800003051758
      vertex 0.090454216003418 0.0452000007629395 0.171712753295898
      vertex 0.0893440322875977 0.0452000007629395 0.173216995239258
    endloop
  endfacet
  facet normal 0 1 0
    outer loop
      vertex 0.088349365234375 0.0452000007629395 0.174800003051758
      vertex 0.0959169998168945 0.0452000007629395 0.166644027709961
      vertex 0.090454216003418 0.0452000007629395 0.171712753295898
    endloop
  endfacet
  facet normal 0 1 0
    outer loop
      vertex 0.0861106796264648 0.0452000007629395 0.179931121826172
      vertex 0.0874757766723633 0.0452000007629395 0.176452911376953
      vertex 0.086728157043457 0.0452000007629395 0.178166473388672
    endloop
  endfacet
  facet normal 0 1 0
    outer loop
      vertex 0.0856268005371094 0.0452000007629395 0.18173698425293
      vertex 0.0874757766723633 0.0452000007629395 0.176452911376953
      vertex 0.0861106796264648 0.0452000007629395 0.179931121826172
    endloop
  endfacet
  facet normal 0 1 0
    outer loop
      vertex 0.0856268005371094 0.0452000007629395 0.18173698425293
      vertex 0.088349365234375 0.0452000007629395 0.174800003051758
      vertex 0.0874757766723633 0.0452000007629395 0.176452911376953
    endloop
  endfacet
  facet normal 0 1 0
    outer loop
      vertex 0.104436973571777 0.0452000007629395 0.162926803588867
      vertex 0.102631118774414 0.0452000007629395 0.163410675048828
      vertex 0.100866477966309 0.0452000007629395 0.16402815246582
    endloop
  endfacet
  facet normal 0 1 0
    outer loop
      vertex 0.085 0.0452000007629395 0.187300003051758
      vertex 0.088349365234375 0.0452000007629395 0.174800003051758
      vertex 0.0856268005371094 0.0452000007629395 0.18173698425293
    endloop
  endfacet
  facet normal 0 1 0
    outer loop
      vertex 0.085 0.0452000007629395 0.187300003051758
      vertex 0.0856268005371094 0.0452000007629395 0.18173698425293
      vertex 0.0852792282104492 0.0452000007629395 0.183573944091797
    endloop
  endfacet
  facet normal 0 1 0
    outer loop
      vertex 0.085 0.0452000007629395 0.187300003051758
      vertex 0.0852792282104492 0.0452000007629395 0.183573944091797
      vertex 0.0850699081420898 0.0452000007629395 0.185431747436523
    endloop
  endfacet
  facet normal 0 1 0
    outer loop
      vertex 0.111868255615234 0.0452000007629395 0.162369903564453
      vertex 0.11 0.0452000007629395 0.162300003051758
      vertex 0.108131744384766 0.0452000007629395 0.162369903564453
    endloop
  endfacet
  facet normal 0 1 0
    outer loop
      vertex 0.111868255615234 0.0452000007629395 0.162369903564453
      vertex 0.108131744384766 0.0452000007629395 0.162369903564453
      vertex 0.106273941040039 0.0452000007629395 0.162579223632812
    endloop
  endfacet
  facet normal 0 1 0
    outer loop
      vertex 0.111868255615234 0.0452000007629395 0.162369903564453
      vertex 0.106273941040039 0.0452000007629395 0.162579223632812
      vertex 0.104436973571777 0.0452000007629395 0.162926803588867
    endloop
  endfacet
  facet normal 0 1 0
    outer loop
      vertex 0.111868255615234 0.0452000007629395 0.162369903564453
      vertex 0.104436973571777 0.0452000007629395 0.162926803588867
      vertex 0.100866477966309 0.0452000007629395 0.16402815246582
    endloop
  endfacet
  facet normal 0 1 0
    outer loop
      vertex 0.0856268005371094 0.0452000007629395 0.192863021850586
      vertex 0.085 0.0452000007629395 0.187300003051758
      vertex 0.0850699081420898 0.0452000007629395 0.189168258666992
    endloop
  endfacet
  facet normal 0 1 0
    outer loop
      vertex 0.0856268005371094 0.0452000007629395 0.192863021850586
      vertex 0.0850699081420898 0.0452000007629395 0.189168258666992
      vertex 0.0852792282104492 0.0452000007629395 0.191026062011719
    endloop
  endfacet
  facet normal 0 1 0
    outer loop
      vertex 0.115563026428223 0.0452000007629395 0.162926803588867
      vertex 0.0959169998168945 0.0452000007629395 0.166644027709961
      vertex 0.088349365234375 0.0452000007629395 0.174800003051758
    endloop
  endfacet
  facet normal 0 1 0
    outer loop
      vertex 0.115563026428223 0.0452000007629395 0.162926803588867
      vertex 0.088349365234375 0.0452000007629395 0.174800003051758
      vertex 0.085 0.0452000007629395 0.187300003051758
    endloop
  endfacet
  facet normal 0 1 0
    outer loop
      vertex 0.115563026428223 0.0452000007629395 0.162926803588867
      vertex 0.085 0.0452000007629395 0.187300003051758
      vertex 0.0856268005371094 0.0452000007629395 0.192863021850586
    endloop
  endfacet
  facet normal 0 1 0
    outer loop
      vertex 0.115563026428223 0.0452000007629395 0.162926803588867
      vertex 0.111868255615234 0.0452000007629395 0.162369903564453
      vertex 0.100866477966309 0.0452000007629395 0.16402815246582
    endloop
  endfacet
  facet normal 0 1 0
    outer loop
      vertex 0.115563026428223 0.0452000007629395 0.162926803588867
      vertex 0.113726058959961 0.0452000007629395 0.162579223632812
      vertex 0.111868255615234 0.0452000007629395 0.162369903564453
    endloop
  endfacet
  facet normal 0 1 0
    outer loop
      vertex 0.115563026428223 0.0452000007629395 0.162926803588867
      vertex 0.100866477966309 0.0452000007629395 0.16402815246582
      vertex 0.0991529083251953 0.0452000007629395 0.164775772094727
    endloop
  endfacet
  facet normal 0 1 0
    outer loop
      vertex 0.115563026428223 0.0452000007629395 0.162926803588867
      vertex 0.0991529083251953 0.0452000007629395 0.164775772094727
      vertex 0.0975 0.0452000007629395 0.165649368286133
    endloop
  endfacet
  facet normal 0 1 0
    outer loop
      vertex 0.115563026428223 0.0452000007629395 0.162926803588867
      vertex 0.0975 0.0452000007629395 0.165649368286133
      vertex 0.0959169998168945 0.0452000007629395 0.166644027709961
    endloop
  endfacet
  facet normal 0 1 0
    outer loop
      vertex 0.119133522033691 0.0452000007629395 0.16402815246582
      vertex 0.117368881225586 0.0452000007629395 0.163410675048828
      vertex 0.115563026428223 0.0452000007629395 0.162926803588867
    endloop
  endfacet
  facet normal 0 1 0
    outer loop
      vertex 0.086728157043457 0.0452000007629395 0.196433532714844
      vertex 0.115563026428223 0.0452000007629395 0.162926803588867
      vertex 0.0856268005371094 0.0452000007629395 0.192863021850586
    endloop
  endfacet
  facet normal 0 1 0
    outer loop
      vertex 0.086728157043457 0.0452000007629395 0.196433532714844
      vertex 0.119133522033691 0.0452000007629395 0.16402815246582
      vertex 0.115563026428223 0.0452000007629395 0.162926803588867
    endloop
  endfacet
  facet normal 0 1 0
    outer loop
      vertex 0.086728157043457 0.0452000007629395 0.196433532714844
      vertex 0.0856268005371094 0.0452000007629395 0.192863021850586
      vertex 0.0861106796264648 0.0452000007629395 0.194668884277344
    endloop
  endfacet
  facet normal 0 1 0
    outer loop
      vertex 0.124083000183105 0.0452000007629395 0.166644027709961
      vertex 0.1225 0.0452000007629395 0.165649368286133
      vertex 0.120847091674805 0.0452000007629395 0.164775772094727
    endloop
  endfacet
  facet normal 0 1 0
    outer loop
      vertex 0.124083000183105 0.0452000007629395 0.166644027709961
      vertex 0.120847091674805 0.0452000007629395 0.164775772094727
      vertex 0.119133522033691 0.0452000007629395 0.16402815246582
    endloop
  endfacet
  facet normal 0 1 0
    outer loop
      vertex 0.090454216003418 0.0452000007629395 0.202887237548828
      vertex 0.086728157043457 0.0452000007629395 0.196433532714844
      vertex 0.0874757766723633 0.0452000007629395 0.198147094726563
    endloop
  endfacet
  facet normal 0 1 0
    outer loop
      vertex 0.090454216003418 0.0452000007629395 0.202887237548828
      vertex 0.0874757766723633 0.0452000007629395 0.198147094726563
      vertex 0.088349365234375 0.0452000007629395 0.199800003051758
    endloop
  endfacet
  facet normal 0 1 0
    outer loop
      vertex 0.090454216003418 0.0452000007629395 0.202887237548828
      vertex 0.088349365234375 0.0452000007629395 0.199800003051758
      vertex 0.0893440322875977 0.0452000007629395 0.201382995605469
    endloop
  endfacet
  facet normal 0 1 0
    outer loop
      vertex 0.128326293945313 0.0452000007629395 0.170295684814453
      vertex 0.127004318237305 0.0452000007629395 0.168973709106445
      vertex 0.125587242126465 0.0452000007629395 0.167754211425781
    endloop
  endfacet
  facet normal 0 1 0
    outer loop
      vertex 0.128326293945313 0.0452000007629395 0.170295684814453
      vertex 0.125587242126465 0.0452000007629395 0.167754211425781
      vertex 0.124083000183105 0.0452000007629395 0.166644027709961
    endloop
  endfacet
  facet normal 0 1 0
    outer loop
      vertex 0.128326293945313 0.0452000007629395 0.170295684814453
      vertex 0.124083000183105 0.0452000007629395 0.166644027709961
      vertex 0.119133522033691 0.0452000007629395 0.16402815246582
    endloop
  endfacet
  facet normal 0 1 0
    outer loop
      vertex 0.0944127578735352 0.0452000007629395 0.206845794677734
      vertex 0.129545791625977 0.0452000007629395 0.171712753295898
      vertex 0.128326293945313 0.0452000007629395 0.170295684814453
    endloop
  endfacet
  facet normal 0 1 0
    outer loop
      vertex 0.0944127578735352 0.0452000007629395 0.206845794677734
      vertex 0.119133522033691 0.0452000007629395 0.16402815246582
      vertex 0.086728157043457 0.0452000007629395 0.196433532714844
    endloop
  endfacet
  facet normal 0 1 0
    outer loop
      vertex 0.0944127578735352 0.0452000007629395 0.206845794677734
      vertex 0.086728157043457 0.0452000007629395 0.196433532714844
      vertex 0.090454216003418 0.0452000007629395 0.202887237548828
    endloop
  endfacet
  facet normal 0 1 0
    outer loop
      vertex 0.0944127578735352 0.0452000007629395 0.206845794677734
      vertex 0.128326293945313 0.0452000007629395 0.170295684814453
      vertex 0.119133522033691 0.0452000007629395 0.16402815246582
    endloop
  endfacet
  facet normal 0 1 0
    outer loop
      vertex 0.0944127578735352 0.0452000007629395 0.206845794677734
      vertex 0.090454216003418 0.0452000007629395 0.202887237548828
      vertex 0.0916737060546875 0.0452000007629395 0.204304321289063
    endloop
  endfacet
  facet normal 0 1 0
    outer loop
      vertex 0.0944127578735352 0.0452000007629395 0.206845794677734
      vertex 0.0916737060546875 0.0452000007629395 0.204304321289063
      vertex 0.0929956817626953 0.0452000007629395 0.20562629699707
    endloop
  endfacet
  facet normal 0 1 0
    outer loop
      vertex 0.0991529083251953 0.0452000007629395 0.20982421875
      vertex 0.0959169998168945 0.0452000007629395 0.207955963134766
      vertex 0.0975 0.0452000007629395 0.208950637817383
    endloop
  endfacet
  facet normal 0 1 0
    outer loop
      vertex 0.133271850585937 0.0452000007629395 0.178166473388672
      vertex 0.132524215698242 0.0452000007629395 0.176452911376953
      vertex 0.131650634765625 0.0452000007629395 0.174800003051758
    endloop
  endfacet
  facet normal 0 1 0
    outer loop
      vertex 0.133271850585937 0.0452000007629395 0.178166473388672
      vertex 0.131650634765625 0.0452000007629395 0.174800003051758
      vertex 0.130655975341797 0.0452000007629395 0.173216995239258
    endloop
  endfacet
  facet normal 0 1 0
    outer loop
      vertex 0.133271850585937 0.0452000007629395 0.178166473388672
      vertex 0.130655975341797 0.0452000007629395 0.173216995239258
      vertex 0.129545791625977 0.0452000007629395 0.171712753295898
    endloop
  endfacet
  facet normal 0 1 0
    outer loop
      vertex 0.133271850585937 0.0452000007629395 0.178166473388672
      vertex 0.129545791625977 0.0452000007629395 0.171712753295898
      vertex 0.0944127578735352 0.0452000007629395 0.206845794677734
    endloop
  endfacet
  facet normal 0 1 0
    outer loop
      vertex 0.133271850585937 0.0452000007629395 0.178166473388672
      vertex 0.0944127578735352 0.0452000007629395 0.206845794677734
      vertex 0.0959169998168945 0.0452000007629395 0.207955963134766
    endloop
  endfacet
  facet normal 0 1 0
    outer loop
      vertex 0.133271850585937 0.0452000007629395 0.178166473388672
      vertex 0.0959169998168945 0.0452000007629395 0.207955963134766
      vertex 0.0991529083251953 0.0452000007629395 0.20982421875
    endloop
  endfacet
  facet normal 0 1 0
    outer loop
      vertex 0.102631118774414 0.0452000007629395 0.211189315795898
      vertex 0.0991529083251953 0.0452000007629395 0.20982421875
      vertex 0.100866477966309 0.0452000007629395 0.210571838378906
    endloop
  endfacet
  facet normal 0 1 0
    outer loop
      vertex 0.134373199462891 0.0452000007629395 0.18173698425293
      vertex 0.133889312744141 0.0452000007629395 0.179931121826172
      vertex 0.133271850585937 0.0452000007629395 0.178166473388672
    endloop
  endfacet
  facet normal 0 1 0
    outer loop
      vertex 0.106273941040039 0.0452000007629395 0.212020767211914
      vertex 0.102631118774414 0.0452000007629395 0.211189315795898
      vertex 0.104436973571777 0.0452000007629395 0.211673202514648
    endloop
  endfacet
  facet normal 0 1 0
    outer loop
      vertex 0.106273941040039 0.0452000007629395 0.212020767211914
      vertex 0.133271850585937 0.0452000007629395 0.178166473388672
      vertex 0.0991529083251953 0.0452000007629395 0.20982421875
    endloop
  endfacet
  facet normal 0 1 0
    outer loop
      vertex 0.106273941040039 0.0452000007629395 0.212020767211914
      vertex 0.134373199462891 0.0452000007629395 0.18173698425293
      vertex 0.133271850585937 0.0452000007629395 0.178166473388672
    endloop
  endfacet
  facet normal 0 1 0
    outer loop
      vertex 0.106273941040039 0.0452000007629395 0.212020767211914
      vertex 0.0991529083251953 0.0452000007629395 0.20982421875
      vertex 0.102631118774414 0.0452000007629395 0.211189315795898
    endloop
  endfacet
  facet normal 0 1 0
    outer loop
      vertex 0.134930099487305 0.0452000007629395 0.185431747436523
      vertex 0.134720764160156 0.0452000007629395 0.183573944091797
      vertex 0.134373199462891 0.0452000007629395 0.18173698425293
    endloop
  endfacet
  facet normal 0 1 0
    outer loop
      vertex 0.11 0.0452000007629395 0.212300003051758
      vertex 0.106273941040039 0.0452000007629395 0.212020767211914
      vertex 0.108131744384766 0.0452000007629395 0.212230102539062
    endloop
  endfacet
  facet normal 0 1 0
    outer loop
      vertex 0.134930099487305 0.0452000007629395 0.189168258666992
      vertex 0.134930099487305 0.0452000007629395 0.185431747436523
      vertex 0.134373199462891 0.0452000007629395 0.18173698425293
    endloop
  endfacet
  facet normal 0 1 0
    outer loop
      vertex 0.134930099487305 0.0452000007629395 0.189168258666992
      vertex 0.135 0.0452000007629395 0.187300003051758
      vertex 0.134930099487305 0.0452000007629395 0.185431747436523
    endloop
  endfacet
  facet normal 0 1 0
    outer loop
      vertex 0.111868255615234 0.0452000007629395 0.212230102539062
      vertex 0.106273941040039 0.0452000007629395 0.212020767211914
      vertex 0.11 0.0452000007629395 0.212300003051758
    endloop
  endfacet
  facet normal 0 1 0
    outer loop
      vertex 0.134373199462891 0.0452000007629395 0.192863021850586
      vertex 0.134720764160156 0.0452000007629395 0.191026062011719
      vertex 0.134930099487305 0.0452000007629395 0.189168258666992
    endloop
  endfacet
  facet normal 0 1 0
    outer loop
      vertex 0.117368881225586 0.0452000007629395 0.211189315795898
      vertex 0.113726058959961 0.0452000007629395 0.212020767211914
      vertex 0.115563026428223 0.0452000007629395 0.211673202514648
    endloop
  endfacet
  facet normal 0 1 0
    outer loop
      vertex 0.133271850585937 0.0452000007629395 0.196433532714844
      vertex 0.133889312744141 0.0452000007629395 0.194668884277344
      vertex 0.134373199462891 0.0452000007629395 0.192863021850586
    endloop
  endfacet
  facet normal 0 1 0
    outer loop
      vertex 0.132524215698242 0.0452000007629395 0.198147094726563
      vertex 0.133271850585937 0.0452000007629395 0.196433532714844
      vertex 0.134373199462891 0.0452000007629395 0.192863021850586
    endloop
  endfacet
  facet normal 0 1 0
    outer loop
      vertex 0.132524215698242 0.0452000007629395 0.198147094726563
      vertex 0.134373199462891 0.0452000007629395 0.192863021850586
      vertex 0.134930099487305 0.0452000007629395 0.189168258666992
    endloop
  endfacet
  facet normal 0 1 0
    outer loop
      vertex 0.120847091674805 0.0452000007629395 0.20982421875
      vertex 0.111868255615234 0.0452000007629395 0.212230102539062
      vertex 0.113726058959961 0.0452000007629395 0.212020767211914
    endloop
  endfacet
  facet normal 0 1 0
    outer loop
      vertex 0.120847091674805 0.0452000007629395 0.20982421875
      vertex 0.117368881225586 0.0452000007629395 0.211189315795898
      vertex 0.119133522033691 0.0452000007629395 0.210571838378906
    endloop
  endfacet
  facet normal 0 1 0
    outer loop
      vertex 0.120847091674805 0.0452000007629395 0.20982421875
      vertex 0.113726058959961 0.0452000007629395 0.212020767211914
      vertex 0.117368881225586 0.0452000007629395 0.211189315795898
    endloop
  endfacet
  facet normal 0 1 0
    outer loop
      vertex 0.1225 0.0452000007629395 0.208950637817383
      vertex 0.106273941040039 0.0452000007629395 0.212020767211914
      vertex 0.111868255615234 0.0452000007629395 0.212230102539062
    endloop
  endfacet
  facet normal 0 1 0
    outer loop
      vertex 0.1225 0.0452000007629395 0.208950637817383
      vertex 0.111868255615234 0.0452000007629395 0.212230102539062
      vertex 0.120847091674805 0.0452000007629395 0.20982421875
    endloop
  endfacet
  facet normal 0 1 0
    outer loop
      vertex 0.131650634765625 0.0452000007629395 0.199800003051758
      vertex 0.132524215698242 0.0452000007629395 0.198147094726563
      vertex 0.134930099487305 0.0452000007629395 0.189168258666992
    endloop
  endfacet
  facet normal 0 1 0
    outer loop
      vertex 0.131650634765625 0.0452000007629395 0.199800003051758
      vertex 0.134930099487305 0.0452000007629395 0.189168258666992
      vertex 0.134373199462891 0.0452000007629395 0.18173698425293
    endloop
  endfacet
  facet normal 0 1 0
    outer loop
      vertex 0.129545791625977 0.0452000007629395 0.202887237548828
      vertex 0.130655975341797 0.0452000007629395 0.201382995605469
      vertex 0.131650634765625 0.0452000007629395 0.199800003051758
    endloop
  endfacet
  facet normal 0 1 0
    outer loop
      vertex 0.127004318237305 0.0452000007629395 0.20562629699707
      vertex 0.134373199462891 0.0452000007629395 0.18173698425293
      vertex 0.106273941040039 0.0452000007629395 0.212020767211914
    endloop
  endfacet
  facet normal 0 1 0
    outer loop
      vertex 0.127004318237305 0.0452000007629395 0.20562629699707
      vertex 0.1225 0.0452000007629395 0.208950637817383
      vertex 0.124083000183105 0.0452000007629395 0.207955963134766
    endloop
  endfacet
  facet normal 0 1 0
    outer loop
      vertex 0.127004318237305 0.0452000007629395 0.20562629699707
      vertex 0.124083000183105 0.0452000007629395 0.207955963134766
      vertex 0.125587242126465 0.0452000007629395 0.206845794677734
    endloop
  endfacet
  facet normal 0 1 0
    outer loop
      vertex 0.127004318237305 0.0452000007629395 0.20562629699707
      vertex 0.128326293945313 0.0452000007629395 0.204304321289063
      vertex 0.129545791625977 0.0452000007629395 0.202887237548828
    endloop
  endfacet
  facet normal 0 1 0
    outer loop
      vertex 0.127004318237305 0.0452000007629395 0.20562629699707
      vertex 0.131650634765625 0.0452000007629395 0.199800003051758
      vertex 0.134373199462891 0.0452000007629395 0.18173698425293
    endloop
  endfacet
  facet normal 0 1 0
    outer loop
      vertex 0.127004318237305 0.0452000007629395 0.20562629699707
      vertex 0.106273941040039 0.0452000007629395 0.212020767211914
      vertex 0.1225 0.0452000007629395 0.208950637817383
    endloop
  endfacet
  facet normal 0 1 0
    outer loop
      vertex 0.127004318237305 0.0452000007629395 0.20562629699707
      vertex 0.129545791625977 0.0452000007629395 0.202887237548828
      vertex 0.131650634765625 0.0452000007629395 0.199800003051758
    endloop
  endfacet
  facet normal 0 -1 0
    outer loop
      vertex 0.0929956817626953 0.0432000007629395 0.168973709106445
      vertex 0.0944127578735352 0.0432000007629395 0.167754211425781
      vertex 0.0916737060546875 0.0432000007629395 0.170295684814453
    endloop
  endfacet
  facet normal 0 -1 0
    outer loop
      vertex 0.0916737060546875 0.0432000007629395 0.170295684814453
      vertex 0.0959169998168945 0.0432000007629395 0.166644027709961
      vertex 0.090454216003418 0.0432000007629395 0.171712753295898
    endloop
  endfacet
  facet normal 0 -1 0
    outer loop
      vertex 0.0944127578735352 0.0432000007629395 0.167754211425781
      vertex 0.0959169998168945 0.0432000007629395 0.166644027709961
      vertex 0.0916737060546875 0.0432000007629395 0.170295684814453
    endloop
  endfacet
  facet normal 0 -1 0
    outer loop
      vertex 0.090454216003418 0.0432000007629395 0.171712753295898
      vertex 0.088349365234375 0.0432000007629395 0.174800003051758
      vertex 0.0893440322875977 0.0432000007629395 0.173216995239258
    endloop
  endfacet
  facet normal 0 -1 0
    outer loop
      vertex 0.0959169998168945 0.0432000007629395 0.166644027709961
      vertex 0.088349365234375 0.0432000007629395 0.174800003051758
      vertex 0.090454216003418 0.0432000007629395 0.171712753295898
    endloop
  endfacet
  facet normal 0 -1 0
    outer loop
      vertex 0.0874757766723633 0.0432000007629395 0.176452911376953
      vertex 0.0861106796264648 0.0432000007629395 0.179931121826172
      vertex 0.086728157043457 0.0432000007629395 0.178166473388672
    endloop
  endfacet
  facet normal 0 -1 0
    outer loop
      vertex 0.0874757766723633 0.0432000007629395 0.176452911376953
      vertex 0.0856268005371094 0.0432000007629395 0.18173698425293
      vertex 0.0861106796264648 0.0432000007629395 0.179931121826172
    endloop
  endfacet
  facet normal 0 -1 0
    outer loop
      vertex 0.088349365234375 0.0432000007629395 0.174800003051758
      vertex 0.0856268005371094 0.0432000007629395 0.18173698425293
      vertex 0.0874757766723633 0.0432000007629395 0.176452911376953
    endloop
  endfacet
  facet normal 0 -1 0
    outer loop
      vertex 0.102631118774414 0.0432000007629395 0.163410675048828
      vertex 0.104436973571777 0.0432000007629395 0.162926803588867
      vertex 0.100866477966309 0.0432000007629395 0.16402815246582
    endloop
  endfacet
  facet normal 0 -1 0
    outer loop
      vertex 0.088349365234375 0.0432000007629395 0.174800003051758
      vertex 0.085 0.0432000007629395 0.187300003051758
      vertex 0.0856268005371094 0.0432000007629395 0.18173698425293
    endloop
  endfacet
  facet normal 0 -1 0
    outer loop
      vertex 0.0856268005371094 0.0432000007629395 0.18173698425293
      vertex 0.085 0.0432000007629395 0.187300003051758
      vertex 0.0852792282104492 0.0432000007629395 0.183573944091797
    endloop
  endfacet
  facet normal 0 -1 0
    outer loop
      vertex 0.0852792282104492 0.0432000007629395 0.183573944091797
      vertex 0.085 0.0432000007629395 0.187300003051758
      vertex 0.0850699081420898 0.0432000007629395 0.185431747436523
    endloop
  endfacet
  facet normal 0 -1 0
    outer loop
      vertex 0.11 0.0432000007629395 0.162300003051758
      vertex 0.111868255615234 0.0432000007629395 0.162369903564453
      vertex 0.108131744384766 0.0432000007629395 0.162369903564453
    endloop
  endfacet
  facet normal 0 -1 0
    outer loop
      vertex 0.108131744384766 0.0432000007629395 0.162369903564453
      vertex 0.111868255615234 0.0432000007629395 0.162369903564453
      vertex 0.106273941040039 0.0432000007629395 0.162579223632812
    endloop
  endfacet
  facet normal 0 -1 0
    outer loop
      vertex 0.106273941040039 0.0432000007629395 0.162579223632812
      vertex 0.111868255615234 0.0432000007629395 0.162369903564453
      vertex 0.104436973571777 0.0432000007629395 0.162926803588867
    endloop
  endfacet
  facet normal 0 -1 0
    outer loop
      vertex 0.104436973571777 0.0432000007629395 0.162926803588867
      vertex 0.111868255615234 0.0432000007629395 0.162369903564453
      vertex 0.100866477966309 0.0432000007629395 0.16402815246582
    endloop
  endfacet
  facet normal 0 -1 0
    outer loop
      vertex 0.085 0.0432000007629395 0.187300003051758
      vertex 0.0856268005371094 0.0432000007629395 0.192863021850586
      vertex 0.0850699081420898 0.0432000007629395 0.189168258666992
    endloop
  endfacet
  facet normal 0 -1 0
    outer loop
      vertex 0.0850699081420898 0.0432000007629395 0.189168258666992
      vertex 0.0856268005371094 0.0432000007629395 0.192863021850586
      vertex 0.0852792282104492 0.0432000007629395 0.191026062011719
    endloop
  endfacet
  facet normal 0 -1 0
    outer loop
      vertex 0.0959169998168945 0.0432000007629395 0.166644027709961
      vertex 0.115563026428223 0.0432000007629395 0.162926803588867
      vertex 0.088349365234375 0.0432000007629395 0.174800003051758
    endloop
  endfacet
  facet normal 0 -1 0
    outer loop
      vertex 0.088349365234375 0.0432000007629395 0.174800003051758
      vertex 0.115563026428223 0.0432000007629395 0.162926803588867
      vertex 0.085 0.0432000007629395 0.187300003051758
    endloop
  endfacet
  facet normal 0 -1 0
    outer loop
      vertex 0.085 0.0432000007629395 0.187300003051758
      vertex 0.115563026428223 0.0432000007629395 0.162926803588867
      vertex 0.0856268005371094 0.0432000007629395 0.192863021850586
    endloop
  endfacet
  facet normal 0 -1 0
    outer loop
      vertex 0.111868255615234 0.0432000007629395 0.162369903564453
      vertex 0.115563026428223 0.0432000007629395 0.162926803588867
      vertex 0.100866477966309 0.0432000007629395 0.16402815246582
    endloop
  endfacet
  facet normal -0 -1 0
    outer loop
      vertex 0.113726058959961 0.0432000007629395 0.162579223632812
      vertex 0.115563026428223 0.0432000007629395 0.162926803588867
      vertex 0.111868255615234 0.0432000007629395 0.162369903564453
    endloop
  endfacet
  facet normal 0 -1 0
    outer loop
      vertex 0.100866477966309 0.0432000007629395 0.16402815246582
      vertex 0.115563026428223 0.0432000007629395 0.162926803588867
      vertex 0.0991529083251953 0.0432000007629395 0.164775772094727
    endloop
  endfacet
  facet normal 0 -1 0
    outer loop
      vertex 0.0991529083251953 0.0432000007629395 0.164775772094727
      vertex 0.115563026428223 0.0432000007629395 0.162926803588867
      vertex 0.0975 0.0432000007629395 0.165649368286133
    endloop
  endfacet
  facet normal 0 -1 0
    outer loop
      vertex 0.0975 0.0432000007629395 0.165649368286133
      vertex 0.115563026428223 0.0432000007629395 0.162926803588867
      vertex 0.0959169998168945 0.0432000007629395 0.166644027709961
    endloop
  endfacet
  facet normal -0 -1 0
    outer loop
      vertex 0.117368881225586 0.0432000007629395 0.163410675048828
      vertex 0.119133522033691 0.0432000007629395 0.16402815246582
      vertex 0.115563026428223 0.0432000007629395 0.162926803588867
    endloop
  endfacet
  facet normal 0 -1 0
    outer loop
      vertex 0.115563026428223 0.0432000007629395 0.162926803588867
      vertex 0.086728157043457 0.0432000007629395 0.196433532714844
      vertex 0.0856268005371094 0.0432000007629395 0.192863021850586
    endloop
  endfacet
  facet normal -0 -1 0
    outer loop
      vertex 0.119133522033691 0.0432000007629395 0.16402815246582
      vertex 0.086728157043457 0.0432000007629395 0.196433532714844
      vertex 0.115563026428223 0.0432000007629395 0.162926803588867
    endloop
  endfacet
  facet normal 0 -1 0
    outer loop
      vertex 0.0856268005371094 0.0432000007629395 0.192863021850586
      vertex 0.086728157043457 0.0432000007629395 0.196433532714844
      vertex 0.0861106796264648 0.0432000007629395 0.194668884277344
    endloop
  endfacet
  facet normal -0 -1 0
    outer loop
      vertex 0.1225 0.0432000007629395 0.165649368286133
      vertex 0.124083000183105 0.0432000007629395 0.166644027709961
      vertex 0.120847091674805 0.0432000007629395 0.164775772094727
    endloop
  endfacet
  facet normal -0 -1 0
    outer loop
      vertex 0.120847091674805 0.0432000007629395 0.164775772094727
      vertex 0.124083000183105 0.0432000007629395 0.166644027709961
      vertex 0.119133522033691 0.0432000007629395 0.16402815246582
    endloop
  endfacet
  facet normal 0 -1 0
    outer loop
      vertex 0.086728157043457 0.0432000007629395 0.196433532714844
      vertex 0.090454216003418 0.0432000007629395 0.202887237548828
      vertex 0.0874757766723633 0.0432000007629395 0.198147094726563
    endloop
  endfacet
  facet normal 0 -1 0
    outer loop
      vertex 0.0874757766723633 0.0432000007629395 0.198147094726563
      vertex 0.090454216003418 0.0432000007629395 0.202887237548828
      vertex 0.088349365234375 0.0432000007629395 0.199800003051758
    endloop
  endfacet
  facet normal 0 -1 0
    outer loop
      vertex 0.088349365234375 0.0432000007629395 0.199800003051758
      vertex 0.090454216003418 0.0432000007629395 0.202887237548828
      vertex 0.0893440322875977 0.0432000007629395 0.201382995605469
    endloop
  endfacet
  facet normal -0 -1 0
    outer loop
      vertex 0.127004318237305 0.0432000007629395 0.168973709106445
      vertex 0.128326293945313 0.0432000007629395 0.170295684814453
      vertex 0.125587242126465 0.0432000007629395 0.167754211425781
    endloop
  endfacet
  facet normal -0 -1 0
    outer loop
      vertex 0.125587242126465 0.0432000007629395 0.167754211425781
      vertex 0.128326293945313 0.0432000007629395 0.170295684814453
      vertex 0.124083000183105 0.0432000007629395 0.166644027709961
    endloop
  endfacet
  facet normal -0 -1 0
    outer loop
      vertex 0.124083000183105 0.0432000007629395 0.166644027709961
      vertex 0.128326293945313 0.0432000007629395 0.170295684814453
      vertex 0.119133522033691 0.0432000007629395 0.16402815246582
    endloop
  endfacet
  facet normal -0 -1 0
    outer loop
      vertex 0.129545791625977 0.0432000007629395 0.171712753295898
      vertex 0.0944127578735352 0.0432000007629395 0.206845794677734
      vertex 0.128326293945313 0.0432000007629395 0.170295684814453
    endloop
  endfacet
  facet normal 0 -1 0
    outer loop
      vertex 0.119133522033691 0.0432000007629395 0.16402815246582
      vertex 0.0944127578735352 0.0432000007629395 0.206845794677734
      vertex 0.086728157043457 0.0432000007629395 0.196433532714844
    endloop
  endfacet
  facet normal 0 -1 0
    outer loop
      vertex 0.086728157043457 0.0432000007629395 0.196433532714844
      vertex 0.0944127578735352 0.0432000007629395 0.206845794677734
      vertex 0.090454216003418 0.0432000007629395 0.202887237548828
    endloop
  endfacet
  facet normal -0 -1 0
    outer loop
      vertex 0.128326293945313 0.0432000007629395 0.170295684814453
      vertex 0.0944127578735352 0.0432000007629395 0.206845794677734
      vertex 0.119133522033691 0.0432000007629395 0.16402815246582
    endloop
  endfacet
  facet normal 0 -1 0
    outer loop
      vertex 0.090454216003418 0.0432000007629395 0.202887237548828
      vertex 0.0944127578735352 0.0432000007629395 0.206845794677734
      vertex 0.0916737060546875 0.0432000007629395 0.204304321289063
    endloop
  endfacet
  facet normal 0 -1 0
    outer loop
      vertex 0.0916737060546875 0.0432000007629395 0.204304321289063
      vertex 0.0944127578735352 0.0432000007629395 0.206845794677734
      vertex 0.0929956817626953 0.0432000007629395 0.20562629699707
    endloop
  endfacet
  facet normal 0 -1 0
    outer loop
      vertex 0.0959169998168945 0.0432000007629395 0.207955963134766
      vertex 0.0991529083251953 0.0432000007629395 0.20982421875
      vertex 0.0975 0.0432000007629395 0.208950637817383
    endloop
  endfacet
  facet normal -0 -1 0
    outer loop
      vertex 0.132524215698242 0.0432000007629395 0.176452911376953
      vertex 0.133271850585937 0.0432000007629395 0.178166473388672
      vertex 0.131650634765625 0.0432000007629395 0.174800003051758
    endloop
  endfacet
  facet normal -0 -1 0
    outer loop
      vertex 0.131650634765625 0.0432000007629395 0.174800003051758
      vertex 0.133271850585937 0.0432000007629395 0.178166473388672
      vertex 0.130655975341797 0.0432000007629395 0.173216995239258
    endloop
  endfacet
  facet normal -0 -1 0
    outer loop
      vertex 0.130655975341797 0.0432000007629395 0.173216995239258
      vertex 0.133271850585937 0.0432000007629395 0.178166473388672
      vertex 0.129545791625977 0.0432000007629395 0.171712753295898
    endloop
  endfacet
  facet normal 0 -1 0
    outer loop
      vertex 0.129545791625977 0.0432000007629395 0.171712753295898
      vertex 0.133271850585937 0.0432000007629395 0.178166473388672
      vertex 0.0944127578735352 0.0432000007629395 0.206845794677734
    endloop
  endfacet
  facet normal 0 -1 0
    outer loop
      vertex 0.0944127578735352 0.0432000007629395 0.206845794677734
      vertex 0.133271850585937 0.0432000007629395 0.178166473388672
      vertex 0.0959169998168945 0.0432000007629395 0.207955963134766
    endloop
  endfacet
  facet normal 0 -1 0
    outer loop
      vertex 0.0959169998168945 0.0432000007629395 0.207955963134766
      vertex 0.133271850585937 0.0432000007629395 0.178166473388672
      vertex 0.0991529083251953 0.0432000007629395 0.20982421875
    endloop
  endfacet
  facet normal 0 -1 0
    outer loop
      vertex 0.0991529083251953 0.0432000007629395 0.20982421875
      vertex 0.102631118774414 0.0432000007629395 0.211189315795898
      vertex 0.100866477966309 0.0432000007629395 0.210571838378906
    endloop
  endfacet
  facet normal -0 -1 0
    outer loop
      vertex 0.133889312744141 0.0432000007629395 0.179931121826172
      vertex 0.134373199462891 0.0432000007629395 0.18173698425293
      vertex 0.133271850585937 0.0432000007629395 0.178166473388672
    endloop
  endfacet
  facet normal 0 -1 0
    outer loop
      vertex 0.102631118774414 0.0432000007629395 0.211189315795898
      vertex 0.106273941040039 0.0432000007629395 0.212020767211914
      vertex 0.104436973571777 0.0432000007629395 0.211673202514648
    endloop
  endfacet
  facet normal 0 -1 0
    outer loop
      vertex 0.133271850585937 0.0432000007629395 0.178166473388672
      vertex 0.106273941040039 0.0432000007629395 0.212020767211914
      vertex 0.0991529083251953 0.0432000007629395 0.20982421875
    endloop
  endfacet
  facet normal -0 -1 0
    outer loop
      vertex 0.134373199462891 0.0432000007629395 0.18173698425293
      vertex 0.106273941040039 0.0432000007629395 0.212020767211914
      vertex 0.133271850585937 0.0432000007629395 0.178166473388672
    endloop
  endfacet
  facet normal 0 -1 0
    outer loop
      vertex 0.0991529083251953 0.0432000007629395 0.20982421875
      vertex 0.106273941040039 0.0432000007629395 0.212020767211914
      vertex 0.102631118774414 0.0432000007629395 0.211189315795898
    endloop
  endfacet
  facet normal -0 -1 0
    outer loop
      vertex 0.134720764160156 0.0432000007629395 0.183573944091797
      vertex 0.134930099487305 0.0432000007629395 0.185431747436523
      vertex 0.134373199462891 0.0432000007629395 0.18173698425293
    endloop
  endfacet
  facet normal 0 -1 0
    outer loop
      vertex 0.106273941040039 0.0432000007629395 0.212020767211914
      vertex 0.11 0.0432000007629395 0.212300003051758
      vertex 0.108131744384766 0.0432000007629395 0.212230102539062
    endloop
  endfacet
  facet normal -0 -1 0
    outer loop
      vertex 0.134930099487305 0.0432000007629395 0.185431747436523
      vertex 0.134930099487305 0.0432000007629395 0.189168258666992
      vertex 0.134373199462891 0.0432000007629395 0.18173698425293
    endloop
  endfacet
  facet normal -0 -1 0
    outer loop
      vertex 0.135 0.0432000007629395 0.187300003051758
      vertex 0.134930099487305 0.0432000007629395 0.189168258666992
      vertex 0.134930099487305 0.0432000007629395 0.185431747436523
    endloop
  endfacet
  facet normal 0 -1 0
    outer loop
      vertex 0.106273941040039 0.0432000007629395 0.212020767211914
      vertex 0.111868255615234 0.0432000007629395 0.212230102539062
      vertex 0.11 0.0432000007629395 0.212300003051758
    endloop
  endfacet
  facet normal -0 -1 -0
    outer loop
      vertex 0.134720764160156 0.0432000007629395 0.191026062011719
      vertex 0.134373199462891 0.0432000007629395 0.192863021850586
      vertex 0.134930099487305 0.0432000007629395 0.189168258666992
    endloop
  endfacet
  facet normal 0 -1 0
    outer loop
      vertex 0.113726058959961 0.0432000007629395 0.212020767211914
      vertex 0.117368881225586 0.0432000007629395 0.211189315795898
      vertex 0.115563026428223 0.0432000007629395 0.211673202514648
    endloop
  endfacet
  facet normal -0 -1 -0
    outer loop
      vertex 0.133889312744141 0.0432000007629395 0.194668884277344
      vertex 0.133271850585937 0.0432000007629395 0.196433532714844
      vertex 0.134373199462891 0.0432000007629395 0.192863021850586
    endloop
  endfacet
  facet normal -0 -1 -0
    outer loop
      vertex 0.133271850585937 0.0432000007629395 0.196433532714844
      vertex 0.132524215698242 0.0432000007629395 0.198147094726563
      vertex 0.134373199462891 0.0432000007629395 0.192863021850586
    endloop
  endfacet
  facet normal -0 -1 -0
    outer loop
      vertex 0.134373199462891 0.0432000007629395 0.192863021850586
      vertex 0.132524215698242 0.0432000007629395 0.198147094726563
      vertex 0.134930099487305 0.0432000007629395 0.189168258666992
    endloop
  endfacet
  facet normal 0 -1 0
    outer loop
      vertex 0.111868255615234 0.0432000007629395 0.212230102539062
      vertex 0.120847091674805 0.0432000007629395 0.20982421875
      vertex 0.113726058959961 0.0432000007629395 0.212020767211914
    endloop
  endfacet
  facet normal 0 -1 0
    outer loop
      vertex 0.117368881225586 0.0432000007629395 0.211189315795898
      vertex 0.120847091674805 0.0432000007629395 0.20982421875
      vertex 0.119133522033691 0.0432000007629395 0.210571838378906
    endloop
  endfacet
  facet normal 0 -1 0
    outer loop
      vertex 0.113726058959961 0.0432000007629395 0.212020767211914
      vertex 0.120847091674805 0.0432000007629395 0.20982421875
      vertex 0.117368881225586 0.0432000007629395 0.211189315795898
    endloop
  endfacet
  facet normal 0 -1 0
    outer loop
      vertex 0.106273941040039 0.0432000007629395 0.212020767211914
      vertex 0.1225 0.0432000007629395 0.208950637817383
      vertex 0.111868255615234 0.0432000007629395 0.212230102539062
    endloop
  endfacet
  facet normal 0 -1 0
    outer loop
      vertex 0.111868255615234 0.0432000007629395 0.212230102539062
      vertex 0.1225 0.0432000007629395 0.208950637817383
      vertex 0.120847091674805 0.0432000007629395 0.20982421875
    endloop
  endfacet
  facet normal -0 -1 -0
    outer loop
      vertex 0.132524215698242 0.0432000007629395 0.198147094726563
      vertex 0.131650634765625 0.0432000007629395 0.199800003051758
      vertex 0.134930099487305 0.0432000007629395 0.189168258666992
    endloop
  endfacet
  facet normal -0 -1 0
    outer loop
      vertex 0.134930099487305 0.0432000007629395 0.189168258666992
      vertex 0.131650634765625 0.0432000007629395 0.199800003051758
      vertex 0.134373199462891 0.0432000007629395 0.18173698425293
    endloop
  endfacet
  facet normal -0 -1 -0
    outer loop
      vertex 0.130655975341797 0.0432000007629395 0.201382995605469
      vertex 0.129545791625977 0.0432000007629395 0.202887237548828
      vertex 0.131650634765625 0.0432000007629395 0.199800003051758
    endloop
  endfacet
  facet normal 0 -1 0
    outer loop
      vertex 0.134373199462891 0.0432000007629395 0.18173698425293
      vertex 0.127004318237305 0.0432000007629395 0.20562629699707
      vertex 0.106273941040039 0.0432000007629395 0.212020767211914
    endloop
  endfacet
  facet normal 0 -1 0
    outer loop
      vertex 0.1225 0.0432000007629395 0.208950637817383
      vertex 0.127004318237305 0.0432000007629395 0.20562629699707
      vertex 0.124083000183105 0.0432000007629395 0.207955963134766
    endloop
  endfacet
  facet normal 0 -1 0
    outer loop
      vertex 0.124083000183105 0.0432000007629395 0.207955963134766
      vertex 0.127004318237305 0.0432000007629395 0.20562629699707
      vertex 0.125587242126465 0.0432000007629395 0.206845794677734
    endloop
  endfacet
  facet normal -0 -1 -0
    outer loop
      vertex 0.128326293945313 0.0432000007629395 0.204304321289063
      vertex 0.127004318237305 0.0432000007629395 0.20562629699707
      vertex 0.129545791625977 0.0432000007629395 0.202887237548828
    endloop
  endfacet
  facet normal -0 -1 -0
    outer loop
      vertex 0.131650634765625 0.0432000007629395 0.199800003051758
      vertex 0.127004318237305 0.0432000007629395 0.20562629699707
      vertex 0.134373199462891 0.0432000007629395 0.18173698425293
    endloop
  endfacet
  facet normal 0 -1 0
    outer loop
      vertex 0.106273941040039 0.0432000007629395 0.212020767211914
      vertex 0.127004318237305 0.0432000007629395 0.20562629699707
      vertex 0.1225 0.0432000007629395 0.208950637817383
    endloop
  endfacet
  facet normal -0 -1 -0
    outer loop
      vertex 0.129545791625977 0.0432000007629395 0.202887237548828
      vertex 0.127004318237305 0.0432000007629395 0.20562629699707
      vertex 0.131650634765625 0.0432000007629395 0.199800003051758
    endloop
  endfacet
endsolid dell_fan_right
