solid intake_grille
  facet normal -1 0 0
    outer loop
      vertex -0.145 0.04 0.182300003051758
      vertex -0.145 0.04 0.212300003051758
      vertex -0.145 0.0400999984741211 0.182300003051758
    endloop
  endfacet
  facet normal -1 0 0
    outer loop
      vertex -0.145 0.0400999984741211 0.182300003051758
      vertex -0.145 0.04 0.212300003051758
      vertex -0.145 0.0400999984741211 0.212300003051758
    endloop
  endfacet
  facet normal 1 0 0
    outer loop
      vertex 0.145 0.04 0.212300003051758
      vertex 0.145 0.04 0.182300003051758
      vertex 0.145 0.0400999984741211 0.182300003051758
    endloop
  endfacet
  facet normal 1 -0 0
    outer loop
      vertex 0.145 0.04 0.212300003051758
      vertex 0.145 0.0400999984741211 0.182300003051758
      vertex 0.145 0.0400999984741211 0.212300003051758
    endloop
  endfacet
  facet normal 0 -1 0
    outer loop
      vertex -0.145 0.04 0.182300003051758
      vertex 0.145 0.04 0.182300003051758
      vertex -0.145 0.04 0.212300003051758
    endloop
  endfacet
  facet normal 0 -1 0
    outer loop
      vertex 0.145 0.04 0.182300003051758
      vertex 0.145 0.04 0.212300003051758
      vertex -0.145 0.04 0.212300003051758
    endloop
  endfacet
  facet normal 0 1 0
    outer loop
      vertex 0.145 0.0400999984741211 0.182300003051758
      vertex -0.145 0.0400999984741211 0.182300003051758
      vertex -0.145 0.0400999984741211 0.212300003051758
    endloop
  endfacet
  facet normal 0 1 0
    outer loop
      vertex 0.145 0.0400999984741211 0.212300003051758
      vertex 0.145 0.0400999984741211 0.182300003051758
      vertex -0.145 0.0400999984741211 0.212300003051758
    endloop
  endfacet
  facet normal 0 0 -1
    outer loop
      vertex -0.145 0.0400999984741211 0.182300003051758
      vertex 0.145 0.04 0.182300003051758
      vertex -0.145 0.04 0.182300003051758
    endloop
  endfacet
  facet normal 0 0 -1
    outer loop
      vertex -0.145 0.0400999984741211 0.182300003051758
      vertex 0.145 0.0400999984741211 0.182300003051758
      vertex 0.145 0.04 0.182300003051758
    endloop
  endfacet
  facet normal 0 0 1
    outer loop
      vertex 0.145 0.04 0.212300003051758
      vertex -0.145 0.0400999984741211 0.212300003051758
      vertex -0.145 0.04 0.212300003051758
    endloop
  endfacet
  facet normal 0 0 1
    outer loop
      vertex 0.145 0.0400999984741211 0.212300003051758
      vertex -0.145 0.0400999984741211 0.212300003051758
      vertex 0.145 0.04 0.212300003051758
    endloop
  endfacet
endsolid intake_grille
