solid ambient_openings
  facet normal -1 0 0
    outer loop
      vertex -0.4 0 -0.3
      vertex -0.4 0.45 0.5
      vertex -0.4 0.45 -0.3
    endloop
  endfacet
  facet normal -1 0 0
    outer loop
      vertex -0.4 0 -0.3
      vertex -0.4 0 0.5
      vertex -0.4 0.45 0.5
    endloop
  endfacet
  facet normal 0 0 1
    outer loop
      vertex 0.4 0 0.5
      vertex -0.4 0.45 0.5
      vertex -0.4 0 0.5
    endloop
  endfacet
  facet normal 0 0 1
    outer loop
      vertex 0.4 0.45 0.5
      vertex -0.4 0.45 0.5
      vertex 0.4 0 0.5
    endloop
  endfacet
  facet normal 0 1 0
    outer loop
      vertex 0.4 0.45 0.5
      vertex 0.4 0.45 -0.3
      vertex -0.4 0.45 -0.3
    endloop
  endfacet
  facet normal 0 1 0
    outer loop
      vertex 0.4 0.45 0.5
      vertex -0.4 0.45 -0.3
      vertex -0.4 0.45 0.5
    endloop
  endfacet
  facet normal 0 0 -1
    outer loop
      vertex -0.4 0.45 -0.3
      vertex 0.4 0 -0.3
      vertex -0.4 0 -0.3
    endloop
  endfacet
  facet normal 0 0 -1
    outer loop
      vertex -0.4 0.45 -0.3
      vertex 0.4 0.45 -0.3
      vertex 0.4 0 -0.3
    endloop
  endfacet
  facet normal 1 0 0
    outer loop
      vertex 0.4 0.45 0.5
      vertex 0.4 0 -0.3
      vertex 0.4 0.45 -0.3
    endloop
  endfacet
  facet normal 1 -0 0
    outer loop
      vertex 0.4 0 0.5
      vertex 0.4 0 -0.3
      vertex 0.4 0.45 0.5
    endloop
  endfacet
endsolid ambient_openings
