solid wall_plane
  facet normal 0 -1 5.43933051936331e-17
    outer loop
      vertex -0.4 0 -0.3
      vertex -0.14 1.29999999412783e-17 -0.061
      vertex -0.184 1.29999999412783e-17 -0.061
    endloop
  endfacet
  facet normal 3.03519283157591e-16 -1 -2.19917009291888e-16
    outer loop
      vertex -0.184 1.29999999412783e-17 -0.061
      vertex -0.184 -3.99999992980668e-17 0.18
      vertex -0.4 0 -0.3
    endloop
  endfacet
  facet normal 0 -1 4.28571210759255e-15
    outer loop
      vertex -0.184 -3.99999992980668e-17 0.18
      vertex -0.18 -1.29999999412783e-17 0.186300003051758
      vertex -0.184 -1.29999999412783e-17 0.186300003051758
    endloop
  endfacet
  facet normal 0 -1 4.28571210759255e-15
    outer loop
      vertex -0.184 -3.99999992980668e-17 0.18
      vertex -0.14 -3.99999992980668e-17 0.18
      vertex -0.18 -1.29999999412783e-17 0.186300003051758
    endloop
  endfacet
  facet normal 5.36585372964954e-16 -1 -3.1958773602981e-15
    outer loop
      vertex -0.18 -1.29999999412783e-17 0.186300003051758
      vertex -0.139 -2.20000002915631e-17 0.196
      vertex -0.18 -4.40000005831262e-17 0.196
    endloop
  endfacet
  facet normal -4.92959832170217e-16 -1 1.15580992741712e-15
    outer loop
      vertex -0.14 -3.99999992980668e-17 0.18
      vertex -0.139 -2.20000002915631e-17 0.196
      vertex -0.18 -1.29999999412783e-17 0.186300003051758
    endloop
  endfacet
  facet normal 0 -1 5.43933051936331e-17
    outer loop
      vertex -0.4 0 -0.3
      vertex 0.4 0 -0.3
      vertex -0.14 1.29999999412783e-17 -0.061
    endloop
  endfacet
  facet normal 0 -1 5.43933051936331e-17
    outer loop
      vertex -0.14 1.29999999412783e-17 -0.061
      vertex 0.4 0 -0.3
      vertex 0.14 1.29999999412783e-17 -0.061
    endloop
  endfacet
  facet normal 1.33027460255242e-16 -1 1.33037716807171e-16
    outer loop
      vertex -0.184 -7.00000013127157e-18 0.231399993896484
      vertex -0.4 0 0.5
      vertex -0.184 -1.29999999412783e-17 0.186300003051758
    endloop
  endfacet
  facet normal -1.85185181935494e-16 -1 0
    outer loop
      vertex -0.184 -3.99999992980668e-17 0.18
      vertex -0.4 0 0.5
      vertex -0.4 0 -0.3
    endloop
  endfacet
  facet normal 6.16401794042385e-15 -1 4.28571210759255e-15
    outer loop
      vertex -0.184 -1.29999999412783e-17 0.186300003051758
      vertex -0.4 0 0.5
      vertex -0.184 -3.99999992980668e-17 0.18
    endloop
  endfacet
  facet normal 0 -1 5.43933051936331e-17
    outer loop
      vertex 0.4 0 -0.3
      vertex 0.184 1.29999999412783e-17 -0.061
      vertex 0.14 1.29999999412783e-17 -0.061
    endloop
  endfacet
  facet normal -0 -1 -6.04651160059456e-17
    outer loop
      vertex 0.14 1.29999999412783e-17 -0.061
      vertex 0.000200000002980232 0 0.154
      vertex -0.14 1.29999999412783e-17 -0.061
    endloop
  endfacet
  facet normal 0 -1 -9.57446827753001e-16
    outer loop
      vertex -0.000200000002980232 0 0.154
      vertex 0.000200000002980232 -4.5000000904391e-17 0.201
      vertex -0.000200000002980232 -4.5000000904391e-17 0.201
    endloop
  endfacet
  facet normal -0 -1 -9.57446827753001e-16
    outer loop
      vertex 0.000200000002980232 0 0.154
      vertex 0.000200000002980232 -4.5000000904391e-17 0.201
      vertex -0.000200000002980232 0 0.154
    endloop
  endfacet
  facet normal 0 -1 1.55172416911693e-15
    outer loop
      vertex -0.000200000002980232 -4.5000000904391e-17 0.201
      vertex -0.000200000002980232 0 0.23
      vertex -0.136 -4.5000000904391e-17 0.201
    endloop
  endfacet
  facet normal 0 -1 1.55172416911693e-15
    outer loop
      vertex -0.136 -4.5000000904391e-17 0.201
      vertex -0.000200000002980232 0 0.23
      vertex -0.136 0 0.23
    endloop
  endfacet
  facet normal 0 -1 1.55172416911693e-15
    outer loop
      vertex -0.000200000002980232 -4.5000000904391e-17 0.201
      vertex 0.000200000002980232 0 0.23
      vertex -0.000200000002980232 0 0.23
    endloop
  endfacet
  facet normal 0 -1 1.55172416911693e-15
    outer loop
      vertex 0.000200000002980232 -4.5000000904391e-17 0.201
      vertex 0.000200000002980232 0 0.23
      vertex -0.000200000002980232 -4.5000000904391e-17 0.201
    endloop
  endfacet
  facet normal 0 -1 -2.85715532371581e-15
    outer loop
      vertex -0.000200000002980232 0 0.23
      vertex 0.000200000002980232 -4.00000001450997e-18 0.231399993896484
      vertex -0.000200000002980232 -4.00000001450997e-18 0.231399993896484
    endloop
  endfacet
  facet normal -0 -1 -2.85715532371581e-15
    outer loop
      vertex 0.000200000002980232 0 0.23
      vertex 0.000200000002980232 -4.00000001450997e-18 0.231399993896484
      vertex -0.000200000002980232 0 0.23
    endloop
  endfacet
  facet normal 0 -1 -6.04651160059456e-17
    outer loop
      vertex 0.14 1.29999999412783e-17 -0.061
      vertex 0.139 0 0.154
      vertex 0.000200000002980232 0 0.154
    endloop
  endfacet
  facet normal -3.03519283157591e-16 -1 -2.19917009291888e-16
    outer loop
      vertex 0.4 0 -0.3
      vertex 0.184 -3.99999992980668e-17 0.18
      vertex 0.184 1.29999999412783e-17 -0.061
    endloop
  endfacet
  facet normal 0 -1 1.55172416911693e-15
    outer loop
      vertex 0.136 -4.5000000904391e-17 0.201
      vertex 0.136 0 0.23
      vertex 0.000200000002980232 -4.5000000904391e-17 0.201
    endloop
  endfacet
  facet normal 0 -1 1.55172416911693e-15
    outer loop
      vertex 0.000200000002980232 -4.5000000904391e-17 0.201
      vertex 0.136 0 0.23
      vertex 0.000200000002980232 0 0.23
    endloop
  endfacet
  facet normal 4.92959832170217e-16 -1 1.15580992741712e-15
    outer loop
      vertex 0.14 -3.99999992980668e-17 0.18
      vertex 0.18 -1.29999999412783e-17 0.186300003051758
      vertex 0.139 -2.20000002915631e-17 0.196
    endloop
  endfacet
  facet normal 0 -1 4.28571210759255e-15
    outer loop
      vertex 0.184 -3.99999992980668e-17 0.18
      vertex 0.18 -1.29999999412783e-17 0.186300003051758
      vertex 0.14 -3.99999992980668e-17 0.18
    endloop
  endfacet
  facet normal 0 -1 4.28571210759255e-15
    outer loop
      vertex 0.184 -3.99999992980668e-17 0.18
      vertex 0.184 -1.29999999412783e-17 0.186300003051758
      vertex 0.18 -1.29999999412783e-17 0.186300003051758
    endloop
  endfacet
  facet normal -5.36585372964954e-16 -1 -3.1958773602981e-15
    outer loop
      vertex 0.18 -1.29999999412783e-17 0.186300003051758
      vertex 0.18 -4.40000005831262e-17 0.196
      vertex 0.139 -2.20000002915631e-17 0.196
    endloop
  endfacet
  facet normal 1.85185181935494e-16 -1 0
    outer loop
      vertex 0.4 0 -0.3
      vertex 0.4 0 0.5
      vertex 0.184 -3.99999992980668e-17 0.18
    endloop
  endfacet
  facet normal -6.16401794042385e-15 -1 4.28571210759255e-15
    outer loop
      vertex 0.184 -3.99999992980668e-17 0.18
      vertex 0.4 0 0.5
      vertex 0.184 -1.29999999412783e-17 0.186300003051758
    endloop
  endfacet
  facet normal -1.33027460255242e-16 -1 1.33037716807171e-16
    outer loop
      vertex 0.184 -1.29999999412783e-17 0.186300003051758
      vertex 0.4 0 0.5
      vertex 0.184 -7.00000013127157e-18 0.231399993896484
    endloop
  endfacet
  facet normal 0 -1 1.48920324780946e-17
    outer loop
      vertex -0.000200000002980232 -4.00000001450997e-18 0.231399993896484
      vertex 0.4 0 0.5
      vertex -0.4 0 0.5
    endloop
  endfacet
  facet normal 0 -1 1.48920324780946e-17
    outer loop
      vertex 0.000200000002980232 -4.00000001450997e-18 0.231399993896484
      vertex 0.4 0 0.5
      vertex -0.000200000002980232 -4.00000001450997e-18 0.231399993896484
    endloop
  endfacet
  facet normal 3.42821570564777e-14 -1 -2.19917009291888e-16
    outer loop
      vertex -0.14 -3.99999992980668e-17 0.18
      vertex -0.14 1.29999999412783e-17 -0.061
      vertex -0.139 0 0.154
    endloop
  endfacet
  facet normal 2.63809514985277e-14 -1 -5.23809530751502e-16
    outer loop
      vertex -0.139 0 0.154
      vertex -0.139 -2.20000002915631e-17 0.196
      vertex -0.14 -3.99999992980668e-17 0.18
    endloop
  endfacet
  facet normal -0 -1 -6.04651160059456e-17
    outer loop
      vertex -0.000200000002980232 0 0.154
      vertex -0.139 0 0.154
      vertex -0.14 1.29999999412783e-17 -0.061
    endloop
  endfacet
  facet normal 0 -1 -6.04651160059456e-17
    outer loop
      vertex -0.000200000002980232 0 0.154
      vertex -0.14 1.29999999412783e-17 -0.061
      vertex 0.000200000002980232 0 0.154
    endloop
  endfacet
  facet normal 1.63220898629502e-17 -1 3.91867881701104e-17
    outer loop
      vertex -0.184 -7.00000013127157e-18 0.231399993896484
      vertex -0.000200000002980232 -4.00000001450997e-18 0.231399993896484
      vertex -0.4 0 0.5
    endloop
  endfacet
  facet normal -3.42821570564777e-14 -1 -2.19917009291888e-16
    outer loop
      vertex 0.14 1.29999999412783e-17 -0.061
      vertex 0.14 -3.99999992980668e-17 0.18
      vertex 0.139 0 0.154
    endloop
  endfacet
  facet normal -2.63809514985277e-14 -1 -5.23809530751502e-16
    outer loop
      vertex 0.139 0 0.154
      vertex 0.14 -3.99999992980668e-17 0.18
      vertex 0.139 -2.20000002915631e-17 0.196
    endloop
  endfacet
  facet normal -1.63220898629502e-17 -1 3.91867881701104e-17
    outer loop
      vertex 0.000200000002980232 -4.00000001450997e-18 0.231399993896484
      vertex 0.184 -7.00000013127157e-18 0.231399993896484
      vertex 0.4 0 0.5
    endloop
  endfacet
  facet normal -5.7066569553537e-21 -1 2.19995277082386e-16
    outer loop
      vertex -0.164474868774414 -1.17544718736587e-17 0.171525131225586
      vertex -0.16481608581543 -1.16672418796517e-17 0.171921630859375
      vertex -0.164652908325195 -1.17122616807982e-17 0.171716995239258
    endloop
  endfacet
  facet normal -2.01692371455192e-19 -1 2.19767230193988e-16
    outer loop
      vertex -0.164283004760742 -1.17936378301068e-17 0.171347091674805
      vertex -0.164078369140625 -1.18295401686092e-17 0.17118391418457
      vertex -0.164474868774414 -1.17544718736587e-17 0.171525131225586
    endloop
  endfacet
  facet normal 2.43758098115347e-21 -1 2.2000228579698e-16
    outer loop
      vertex -0.164474868774414 -1.17544718736587e-17 0.171525131225586
      vertex -0.163862106323242 -1.18619772953243e-17 0.171036468505859
      vertex -0.16481608581543 -1.16672418796517e-17 0.171921630859375
    endloop
  endfacet
  facet normal 2.57854872483757e-20 -1 2.20031563087218e-16
    outer loop
      vertex -0.164078369140625 -1.18295401686092e-17 0.17118391418457
      vertex -0.163862106323242 -1.18619772953243e-17 0.171036468505859
      vertex -0.164474868774414 -1.17544718736587e-17 0.171525131225586
    endloop
  endfacet
  facet normal 6.49706948658107e-20 -1 2.20040475928386e-16
    outer loop
      vertex -0.16481608581543 -1.16672418796517e-17 0.171921630859375
      vertex -0.165207962036133 -1.15179167473143e-17 0.172600372314453
      vertex -0.164963531494141 -1.16196648860373e-17 0.172137893676758
    endloop
  endfacet
  facet normal 3.8101693042981e-20 -1 2.20026275046133e-16
    outer loop
      vertex -0.164963531494141 -1.16196648860373e-17 0.172137893676758
      vertex -0.165207962036133 -1.15179167473143e-17 0.172600372314453
      vertex -0.16509440612793 -1.15697966683007e-17 0.172364562988281
    endloop
  endfacet
  facet normal 5.5350458144788e-20 -1 2.20130650725255e-16
    outer loop
      vertex -0.163399627685547 -1.19157528760466e-17 0.170792037963867
      vertex -0.163155975341797 -1.19367897863246e-17 0.170696411132813
      vertex -0.163635437011719 -1.18907687922344e-17 0.17090559387207
    endloop
  endfacet
  facet normal -1.93397649890141e-20 -1 2.19959455438122e-16
    outer loop
      vertex -0.163635437011719 -1.18907687922344e-17 0.17090559387207
      vertex -0.163155975341797 -1.19367897863246e-17 0.170696411132813
      vertex -0.163862106323242 -1.18619772953243e-17 0.171036468505859
    endloop
  endfacet
  facet normal 1.05997415048397e-19 -1 2.20035130136308e-16
    outer loop
      vertex -0.165207962036133 -1.15179167473143e-17 0.172600372314453
      vertex -0.165380737304687 -1.14092907010596e-17 0.173094131469727
      vertex -0.165303588867187 -1.14643148083462e-17 0.172844024658203
    endloop
  endfacet
  facet normal -5.35745864633304e-21 -1 2.19985093802862e-16
    outer loop
      vertex -0.162905868530273 -1.19537626325217e-17 0.170619262695312
      vertex -0.162650695800781 -1.19665765469477e-17 0.170561019897461
      vertex -0.163155975341797 -1.19367897863246e-17 0.170696411132813
    endloop
  endfacet
  facet normal -9.33500229569013e-20 -1 2.19981836579349e-16
    outer loop
      vertex -0.165380737304687 -1.14092907010596e-17 0.173094131469727
      vertex -0.165477996826172 -1.12962126496341e-17 0.173608123779297
      vertex -0.165438980102539 -1.13531518984144e-17 0.173349304199219
    endloop
  endfacet
  facet normal -9.10574205217977e-21 -1 2.19997777593049e-16
    outer loop
      vertex -0.165380737304687 -1.14092907010596e-17 0.173094131469727
      vertex -0.16549755859375 -1.11812084452865e-17 0.174130874633789
      vertex -0.165477996826172 -1.12962126496341e-17 0.173608123779297
    endloop
  endfacet
  facet normal -1.3808480363143e-19 -1 2.19992951090321e-16
    outer loop
      vertex -0.165477996826172 -1.12962126496341e-17 0.173608123779297
      vertex -0.16549755859375 -1.11812084452865e-17 0.174130874633789
      vertex -0.16549755859375 -1.12387914391067e-17 0.173869125366211
    endloop
  endfacet
  facet normal -1.13552851573339e-20 -1 2.19996408579369e-16
    outer loop
      vertex -0.16481608581543 -1.16672418796517e-17 0.171921630859375
      vertex -0.16549755859375 -1.11812084452865e-17 0.174130874633789
      vertex -0.165207962036133 -1.15179167473143e-17 0.172600372314453
    endloop
  endfacet
  facet normal 3.22005271942358e-21 -1 2.19999166476317e-16
    outer loop
      vertex -0.165207962036133 -1.15179167473143e-17 0.172600372314453
      vertex -0.16549755859375 -1.11812084452865e-17 0.174130874633789
      vertex -0.165380737304687 -1.14092907010596e-17 0.173094131469727
    endloop
  endfacet
  facet normal 0 -1 2.19966184286107e-16
    outer loop
      vertex -0.162130874633789 -1.19794616121414e-17 0.17050244140625
      vertex -0.161869125366211 -1.19794616121414e-17 0.17050244140625
      vertex -0.162391876220703 -1.19751586847693e-17 0.170522003173828
    endloop
  endfacet
  facet normal -2.83224550321436e-22 -1 2.19958615651264e-16
    outer loop
      vertex -0.162391876220703 -1.19751586847693e-17 0.170522003173828
      vertex -0.161869125366211 -1.19794616121414e-17 0.17050244140625
      vertex -0.162650695800781 -1.19665765469477e-17 0.170561019897461
    endloop
  endfacet
  facet normal -9.75121496191287e-20 -1 2.20010608809939e-16
    outer loop
      vertex -0.16549755859375 -1.11812084452865e-17 0.174130874633789
      vertex -0.165438980102539 -1.10668479859789e-17 0.174650695800781
      vertex -0.165477996826172 -1.11237872347592e-17 0.174391876220703
    endloop
  endfacet
  facet normal 5.35745864633304e-21 -1 2.19985093802862e-16
    outer loop
      vertex -0.161094131469727 -1.19537626325217e-17 0.170619262695312
      vertex -0.160844024658203 -1.19367897863246e-17 0.170696411132813
      vertex -0.161349304199219 -1.19665765469477e-17 0.170561019897461
    endloop
  endfacet
  facet normal 8.09565858996221e-22 -1 2.19999528965347e-16
    outer loop
      vertex -0.16549755859375 -1.11812084452865e-17 0.174130874633789
      vertex -0.165207962036133 -1.0902083137079e-17 0.175399627685547
      vertex -0.165438980102539 -1.10668479859789e-17 0.174650695800781
    endloop
  endfacet
  facet normal -4.19485470532863e-20 -1 2.20012718277712e-16
    outer loop
      vertex -0.165438980102539 -1.10668479859789e-17 0.174650695800781
      vertex -0.165207962036133 -1.0902083137079e-17 0.175399627685547
      vertex -0.165380737304687 -1.10107091833337e-17 0.174905868530273
    endloop
  endfacet
  facet normal -1.05997415048397e-19 -1 2.20035130136308e-16
    outer loop
      vertex -0.165380737304687 -1.10107091833337e-17 0.174905868530273
      vertex -0.165207962036133 -1.0902083137079e-17 0.175399627685547
      vertex -0.165303588867187 -1.09556850760471e-17 0.175155975341797
    endloop
  endfacet
  facet normal -1.1260178324262e-20 -1 2.2003518944851e-16
    outer loop
      vertex -0.161349304199219 -1.19665765469477e-17 0.170561019897461
      vertex -0.160600372314453 -1.19157528760466e-17 0.170792037963867
      vertex -0.161608123779297 -1.19751586847693e-17 0.170522003173828
    endloop
  endfacet
  facet normal -2.80765185074539e-21 -1 2.20003645194771e-16
    outer loop
      vertex -0.161608123779297 -1.19751586847693e-17 0.170522003173828
      vertex -0.160600372314453 -1.19157528760466e-17 0.170792037963867
      vertex -0.161869125366211 -1.19794616121414e-17 0.17050244140625
    endloop
  endfacet
  facet normal 1.30630593641182e-20 -1 2.19956336532247e-16
    outer loop
      vertex -0.160844024658203 -1.19367897863246e-17 0.170696411132813
      vertex -0.160600372314453 -1.19157528760466e-17 0.170792037963867
      vertex -0.161349304199219 -1.19665765469477e-17 0.170561019897461
    endloop
  endfacet
  facet normal -3.8101693042981e-20 -1 2.20026275046133e-16
    outer loop
      vertex -0.165207962036133 -1.0902083137079e-17 0.175399627685547
      vertex -0.164963531494141 -1.08003349983559e-17 0.175862106323242
      vertex -0.16509440612793 -1.08502032160926e-17 0.175635437011719
    endloop
  endfacet
  facet normal 6.60388970749594e-20 -1 2.19878574523217e-16
    outer loop
      vertex -0.160364562988281 -1.18907687922344e-17 0.17090559387207
      vertex -0.160137893676758 -1.18619772953243e-17 0.171036468505859
      vertex -0.160600372314453 -1.19157528760466e-17 0.170792037963867
    endloop
  endfacet
  facet normal 2.29974911515982e-20 -1 2.1996001168984e-16
    outer loop
      vertex -0.160137893676758 -1.18619772953243e-17 0.171036468505859
      vertex -0.159921630859375 -1.18295401686092e-17 0.17118391418457
      vertex -0.160600372314453 -1.19157528760466e-17 0.170792037963867
    endloop
  endfacet
  facet normal 6.54294702991326e-20 -1 2.19947653805531e-16
    outer loop
      vertex -0.164963531494141 -1.08003349983559e-17 0.175862106323242
      vertex -0.164652908325195 -1.0707739050628e-17 0.176283004760742
      vertex -0.16481608581543 -1.07527588517745e-17 0.176078369140625
    endloop
  endfacet
  facet normal 4.91028373438997e-21 -1 2.19998592964619e-16
    outer loop
      vertex -0.16549755859375 -1.11812084452865e-17 0.174130874633789
      vertex -0.164474868774414 -1.06655280107345e-17 0.176474868774414
      vertex -0.165207962036133 -1.0902083137079e-17 0.175399627685547
    endloop
  endfacet
  facet normal -2.73805841643723e-20 -1 2.20020608694781e-16
    outer loop
      vertex -0.165207962036133 -1.0902083137079e-17 0.175399627685547
      vertex -0.164474868774414 -1.06655280107345e-17 0.176474868774414
      vertex -0.164963531494141 -1.08003349983559e-17 0.175862106323242
    endloop
  endfacet
  facet normal 4.7626828259907e-20 -1 2.19960792160519e-16
    outer loop
      vertex -0.164963531494141 -1.08003349983559e-17 0.175862106323242
      vertex -0.164474868774414 -1.06655280107345e-17 0.176474868774414
      vertex -0.164652908325195 -1.0707739050628e-17 0.176283004760742
    endloop
  endfacet
  facet normal 1.10645834033654e-21 -1 2.20000252582037e-16
    outer loop
      vertex -0.16481608581543 -1.16672418796517e-17 0.171921630859375
      vertex -0.164474868774414 -1.06655280107345e-17 0.176474868774414
      vertex -0.16549755859375 -1.11812084452865e-17 0.174130874633789
    endloop
  endfacet
  facet normal -2.40201885644055e-14 -1 3.03429628290003e-14
    outer loop
      vertex -0.159716995239258 -1.17936378301068e-17 0.171347091674805
      vertex -0.159525131225586 -1.10000001457815e-17 0.171525131225586
      vertex -0.159921630859375 -1.18295401686092e-17 0.17118391418457
    endloop
  endfacet
  facet normal -1.57093164307119e-20 -1 2.20001512746566e-16
    outer loop
      vertex -0.16481608581543 -1.16672418796517e-17 0.171921630859375
      vertex -0.164283004760742 -1.06263620542864e-17 0.176652908325195
      vertex -0.164474868774414 -1.06655280107345e-17 0.176474868774414
    endloop
  endfacet
  facet normal 7.060174218538e-23 -1 2.19999734796428e-16
    outer loop
      vertex -0.163862106323242 -1.18619772953243e-17 0.171036468505859
      vertex -0.164283004760742 -1.06263620542864e-17 0.176652908325195
      vertex -0.16481608581543 -1.16672418796517e-17 0.171921630859375
    endloop
  endfacet
  facet normal -1.24250821754063e-19 -1 2.2017598502512e-16
    outer loop
      vertex -0.164283004760742 -1.06263620542864e-17 0.176652908325195
      vertex -0.163862106323242 -1.0558022589069e-17 0.176963531494141
      vertex -0.164078369140625 -1.05904597157841e-17 0.17681608581543
    endloop
  endfacet
  facet normal 6.60388970749594e-20 -1 2.19878574523217e-16
    outer loop
      vertex -0.163862106323242 -1.0558022589069e-17 0.176963531494141
      vertex -0.163399627685547 -1.05042470083467e-17 0.177207962036133
      vertex -0.163635437011719 -1.05292310921589e-17 0.17709440612793
    endloop
  endfacet
  facet normal -7.63256780817597e-21 -1 2.2001796577293e-16
    outer loop
      vertex -0.164283004760742 -1.06263620542864e-17 0.176652908325195
      vertex -0.163399627685547 -1.05042470083467e-17 0.177207962036133
      vertex -0.163862106323242 -1.0558022589069e-17 0.176963531494141
    endloop
  endfacet
  facet normal 3.65380646998876e-21 -1 2.20000003323345e-16
    outer loop
      vertex -0.163862106323242 -1.18619772953243e-17 0.171036468505859
      vertex -0.163399627685547 -1.05042470083467e-17 0.177207962036133
      vertex -0.164283004760742 -1.06263620542864e-17 0.176652908325195
    endloop
  endfacet
  facet normal 3.07963833271935e-22 -1 2.20000254053697e-16
    outer loop
      vertex -0.163155975341797 -1.19367897863246e-17 0.170696411132813
      vertex -0.163399627685547 -1.05042470083467e-17 0.177207962036133
      vertex -0.163862106323242 -1.18619772953243e-17 0.171036468505859
    endloop
  endfacet
  facet normal 1.85052410876184e-20 -1 2.19942470127626e-16
    outer loop
      vertex -0.163399627685547 -1.05042470083467e-17 0.177207962036133
      vertex -0.162905868530273 -1.04662372518716e-17 0.177380737304688
      vertex -0.163155975341797 -1.04832100980686e-17 0.177303588867188
    endloop
  endfacet
  facet normal -1.68826348390602e-21 -1 2.20000179357903e-16
    outer loop
      vertex -0.163155975341797 -1.19367897863246e-17 0.170696411132813
      vertex -0.162905868530273 -1.04662372518716e-17 0.177380737304688
      vertex -0.163399627685547 -1.05042470083467e-17 0.177207962036133
    endloop
  endfacet
  facet normal -1.31893976239959e-21 -1 2.20000165538952e-16
    outer loop
      vertex -0.162650695800781 -1.19665765469477e-17 0.170561019897461
      vertex -0.162905868530273 -1.04662372518716e-17 0.177380737304688
      vertex -0.163155975341797 -1.19367897863246e-17 0.170696411132813
    endloop
  endfacet
  facet normal 2.80021626801995e-21 -1 2.19999755771648e-16
    outer loop
      vertex -0.161869125366211 -1.19794616121414e-17 0.17050244140625
      vertex -0.162130874633789 -1.04405382722519e-17 0.17749755859375
      vertex -0.162650695800781 -1.19665765469477e-17 0.170561019897461
    endloop
  endfacet
  facet normal -3.82136881771863e-21 -1 2.20010764848304e-16
    outer loop
      vertex -0.162905868530273 -1.04662372518716e-17 0.177380737304688
      vertex -0.162130874633789 -1.04405382722519e-17 0.17749755859375
      vertex -0.162650695800781 -1.04534241844785e-17 0.177438980102539
    endloop
  endfacet
  facet normal -2.38782598725657e-21 -1 2.19998043696023e-16
    outer loop
      vertex -0.162650695800781 -1.04534241844785e-17 0.177438980102539
      vertex -0.162130874633789 -1.04405382722519e-17 0.17749755859375
      vertex -0.162391876220703 -1.04448411996239e-17 0.177477996826172
    endloop
  endfacet
  facet normal -2.21857250651143e-21 -1 2.20000131877478e-16
    outer loop
      vertex -0.162650695800781 -1.19665765469477e-17 0.170561019897461
      vertex -0.162130874633789 -1.04405382722519e-17 0.17749755859375
      vertex -0.162905868530273 -1.04662372518716e-17 0.177380737304688
    endloop
  endfacet
  facet normal 0 -1 2.19966184286107e-16
    outer loop
      vertex -0.162130874633789 -1.04405382722519e-17 0.17749755859375
      vertex -0.161608123779297 -1.04448411996239e-17 0.177477996826172
      vertex -0.161869125366211 -1.04405382722519e-17 0.17749755859375
    endloop
  endfacet
  facet normal -2.00265977296265e-21 -1 2.20000118439606e-16
    outer loop
      vertex -0.160600372314453 -1.19157528760466e-17 0.170792037963867
      vertex -0.161094131469727 -1.04662372518716e-17 0.177380737304688
      vertex -0.161869125366211 -1.19794616121414e-17 0.17050244140625
    endloop
  endfacet
  facet normal 5.24727731293121e-21 -1 2.20017012023511e-16
    outer loop
      vertex -0.161608123779297 -1.04448411996239e-17 0.177477996826172
      vertex -0.161094131469727 -1.04662372518716e-17 0.177380737304688
      vertex -0.161349304199219 -1.04534241844785e-17 0.177438980102539
    endloop
  endfacet
  facet normal 1.07737760918051e-21 -1 2.19994975143762e-16
    outer loop
      vertex -0.162130874633789 -1.04405382722519e-17 0.17749755859375
      vertex -0.161094131469727 -1.04662372518716e-17 0.177380737304688
      vertex -0.161608123779297 -1.04448411996239e-17 0.177477996826172
    endloop
  endfacet
  facet normal 1.61104969431196e-21 -1 2.19999711274398e-16
    outer loop
      vertex -0.161869125366211 -1.19794616121414e-17 0.17050244140625
      vertex -0.161094131469727 -1.04662372518716e-17 0.177380737304688
      vertex -0.162130874633789 -1.04405382722519e-17 0.17749755859375
    endloop
  endfacet
  facet normal -1.85052410876184e-20 -1 2.19942470127626e-16
    outer loop
      vertex -0.161094131469727 -1.04662372518716e-17 0.177380737304688
      vertex -0.160600372314453 -1.05042470083467e-17 0.177207962036133
      vertex -0.160844024658203 -1.04832100980686e-17 0.177303588867188
    endloop
  endfacet
  facet normal 1.90283179679111e-15 -1 2.20000478329883e-16
    outer loop
      vertex -0.159525131225586 -1.10000001457815e-17 0.171525131225586
      vertex -0.159921630859375 -1.05904597157841e-17 0.17681608581543
      vertex -0.159921630859375 -1.18295401686092e-17 0.17118391418457
    endloop
  endfacet
  facet normal -3.66212134494316e-22 -1 2.20000478329883e-16
    outer loop
      vertex -0.159921630859375 -1.18295401686092e-17 0.17118391418457
      vertex -0.159921630859375 -1.05904597157841e-17 0.17681608581543
      vertex -0.160600372314453 -1.19157528760466e-17 0.170792037963867
    endloop
  endfacet
  facet normal -4.60478676694876e-20 -1 2.19920087741228e-16
    outer loop
      vertex -0.160600372314453 -1.05042470083467e-17 0.177207962036133
      vertex -0.159921630859375 -1.05904597157841e-17 0.17681608581543
      vertex -0.160364562988281 -1.05292310921589e-17 0.17709440612793
    endloop
  endfacet
  facet normal 2.98489898188479e-21 -1 2.19998120808681e-16
    outer loop
      vertex -0.160364562988281 -1.05292310921589e-17 0.17709440612793
      vertex -0.159921630859375 -1.05904597157841e-17 0.17681608581543
      vertex -0.160137893676758 -1.0558022589069e-17 0.176963531494141
    endloop
  endfacet
  facet normal 3.98782630418764e-21 -1 2.20006751075054e-16
    outer loop
      vertex -0.161094131469727 -1.04662372518716e-17 0.177380737304688
      vertex -0.159921630859375 -1.05904597157841e-17 0.17681608581543
      vertex -0.160600372314453 -1.05042470083467e-17 0.177207962036133
    endloop
  endfacet
  facet normal 8.98387206997764e-22 -1 2.20000335844959e-16
    outer loop
      vertex -0.160600372314453 -1.19157528760466e-17 0.170792037963867
      vertex -0.159921630859375 -1.05904597157841e-17 0.17681608581543
      vertex -0.161094131469727 -1.04662372518716e-17 0.177380737304688
    endloop
  endfacet
  facet normal -1.20950580639994e-16 -1 6.83399494225862e-17
    outer loop
      vertex -0.159525131225586 -1.10000001457815e-17 0.171525131225586
      vertex -0.159716995239258 -1.06263620542864e-17 0.176652908325195
      vertex -0.159921630859375 -1.05904597157841e-17 0.17681608581543
    endloop
  endfacet
  facet normal -1.94741100399436e-15 -1 0
    outer loop
      vertex -0.159525131225586 -1.10000001457815e-17 0.171525131225586
      vertex -0.159525131225586 -1.10000001457815e-17 0.176474868774414
      vertex -0.159716995239258 -1.06263620542864e-17 0.176652908325195
    endloop
  endfacet
  facet normal -0 -1 0
    outer loop
      vertex -0.157650253295898 -1.10000001457815e-17 0.173399993896484
      vertex -0.157650253295898 -1.10000001457815e-17 0.174600006103516
      vertex -0.159525131225586 -1.10000001457815e-17 0.171525131225586
    endloop
  endfacet
  facet normal 0 -1 0
    outer loop
      vertex -0.159525131225586 -1.10000001457815e-17 0.171525131225586
      vertex -0.157650253295898 -1.10000001457815e-17 0.174600006103516
      vertex -0.159525131225586 -1.10000001457815e-17 0.176474868774414
    endloop
  endfacet
  facet normal 1.52782233533262e-14 -1 2.09221991536394e-14
    outer loop
      vertex 0.159716995239258 -1.17936378301068e-17 0.171347091674805
      vertex 0.160137893676758 -1.18619772953243e-17 0.171036468505859
      vertex 0.159525131225586 -1.10000001457815e-17 0.171525131225586
    endloop
  endfacet
  facet normal 1.24250821754063e-19 -1 2.2017598502512e-16
    outer loop
      vertex 0.159921630859375 -1.18295401686092e-17 0.17118391418457
      vertex 0.160137893676758 -1.18619772953243e-17 0.171036468505859
      vertex 0.159716995239258 -1.17936378301068e-17 0.171347091674805
    endloop
  endfacet
  facet normal -1.93397649890141e-20 -1 2.19959455438122e-16
    outer loop
      vertex 0.160364562988281 -1.18907687922344e-17 0.17090559387207
      vertex 0.160844024658203 -1.19367897863246e-17 0.170696411132813
      vertex 0.160137893676758 -1.18619772953243e-17 0.171036468505859
    endloop
  endfacet
  facet normal 5.5350458144788e-20 -1 2.20130650725255e-16
    outer loop
      vertex 0.160600372314453 -1.19157528760466e-17 0.170792037963867
      vertex 0.160844024658203 -1.19367897863246e-17 0.170696411132813
      vertex 0.160364562988281 -1.18907687922344e-17 0.17090559387207
    endloop
  endfacet
  facet normal -2.44342667428735e-21 -1 2.1999454077637e-16
    outer loop
      vertex 0.160844024658203 -1.19367897863246e-17 0.170696411132813
      vertex 0.161094131469727 -1.19537626325217e-17 0.170619262695312
      vertex 0.160137893676758 -1.18619772953243e-17 0.171036468505859
    endloop
  endfacet
  facet normal 0 -1 0
    outer loop
      vertex 0.159525131225586 -1.10000001457815e-17 0.171525131225586
      vertex 0.157650253295898 -1.10000001457815e-17 0.174600006103516
      vertex 0.157650253295898 -1.10000001457815e-17 0.173399993896484
    endloop
  endfacet
  facet normal 1.02768850728938e-20 -1 2.20053590824088e-16
    outer loop
      vertex 0.161349304199219 -1.19665765469477e-17 0.170561019897461
      vertex 0.161869125366211 -1.19794616121414e-17 0.17050244140625
      vertex 0.161094131469727 -1.19537626325217e-17 0.170619262695312
    endloop
  endfacet
  facet normal -8.48107327397682e-22 -1 2.19954868470323e-16
    outer loop
      vertex 0.161608123779297 -1.19751586847693e-17 0.170522003173828
      vertex 0.161869125366211 -1.19794616121414e-17 0.17050244140625
      vertex 0.161349304199219 -1.19665765469477e-17 0.170561019897461
    endloop
  endfacet
  facet normal 3.39181417576353e-21 -1 2.20007915177423e-16
    outer loop
      vertex 0.161094131469727 -1.19537626325217e-17 0.170619262695312
      vertex 0.161869125366211 -1.19794616121414e-17 0.17050244140625
      vertex 0.160137893676758 -1.18619772953243e-17 0.171036468505859
    endloop
  endfacet
  facet normal 0 -1 2.19966184286107e-16
    outer loop
      vertex 0.162130874633789 -1.19794616121414e-17 0.17050244140625
      vertex 0.162391876220703 -1.19751586847693e-17 0.170522003173828
      vertex 0.161869125366211 -1.19794616121414e-17 0.17050244140625
    endloop
  endfacet
  facet normal -2.13426313036066e-20 -1 2.20102071954351e-16
    outer loop
      vertex 0.162650695800781 -1.19665765469477e-17 0.170561019897461
      vertex 0.162905868530273 -1.19537626325217e-17 0.170619262695312
      vertex 0.162391876220703 -1.19751586847693e-17 0.170522003173828
    endloop
  endfacet
  facet normal -1.29476249859388e-21 -1 2.20000784339492e-16
    outer loop
      vertex 0.162391876220703 -1.19751586847693e-17 0.170522003173828
      vertex 0.163155975341797 -1.19367897863246e-17 0.170696411132813
      vertex 0.161869125366211 -1.19794616121414e-17 0.17050244140625
    endloop
  endfacet
  facet normal -4.78419546805488e-22 -1 2.19995368489678e-16
    outer loop
      vertex 0.161869125366211 -1.19794616121414e-17 0.17050244140625
      vertex 0.163155975341797 -1.19367897863246e-17 0.170696411132813
      vertex 0.160137893676758 -1.18619772953243e-17 0.171036468505859
    endloop
  endfacet
  facet normal -6.4520470306624e-21 -1 2.20023378930938e-16
    outer loop
      vertex 0.162905868530273 -1.19537626325217e-17 0.170619262695312
      vertex 0.163155975341797 -1.19367897863246e-17 0.170696411132813
      vertex 0.162391876220703 -1.19751586847693e-17 0.170522003173828
    endloop
  endfacet
  facet normal -5.5350458144788e-20 -1 2.20130650725255e-16
    outer loop
      vertex 0.163399627685547 -1.19157528760466e-17 0.170792037963867
      vertex 0.163635437011719 -1.18907687922344e-17 0.17090559387207
      vertex 0.163155975341797 -1.19367897863246e-17 0.170696411132813
    endloop
  endfacet
  facet normal 0 -1 0
    outer loop
      vertex 0.159525131225586 -1.10000001457815e-17 0.171525131225586
      vertex 0.159525131225586 -1.10000001457815e-17 0.176474868774414
      vertex 0.157650253295898 -1.10000001457815e-17 0.174600006103516
    endloop
  endfacet
  facet normal -1.40670686967555e-15 -1 0
    outer loop
      vertex 0.160137893676758 -1.18619772953243e-17 0.171036468505859
      vertex 0.159525131225586 -1.10000001457815e-17 0.176474868774414
      vertex 0.159525131225586 -1.10000001457815e-17 0.171525131225586
    endloop
  endfacet
  facet normal 6.2750609500284e-21 -1 2.19989400666097e-16
    outer loop
      vertex 0.163635437011719 -1.18907687922344e-17 0.17090559387207
      vertex 0.164474868774414 -1.17544718736587e-17 0.171525131225586
      vertex 0.163155975341797 -1.19367897863246e-17 0.170696411132813
    endloop
  endfacet
  facet normal -1.31340723858906e-20 -1 2.20015698746296e-16
    outer loop
      vertex 0.163862106323242 -1.18619772953243e-17 0.171036468505859
      vertex 0.164474868774414 -1.17544718736587e-17 0.171525131225586
      vertex 0.163635437011719 -1.18907687922344e-17 0.17090559387207
    endloop
  endfacet
  facet normal -2.57854872483757e-20 -1 2.20031563087218e-16
    outer loop
      vertex 0.164078369140625 -1.18295401686092e-17 0.17118391418457
      vertex 0.164474868774414 -1.17544718736587e-17 0.171525131225586
      vertex 0.163862106323242 -1.18619772953243e-17 0.171036468505859
    endloop
  endfacet
  facet normal 2.01692371455192e-19 -1 2.19767230193988e-16
    outer loop
      vertex 0.164283004760742 -1.17936378301068e-17 0.171347091674805
      vertex 0.164474868774414 -1.17544718736587e-17 0.171525131225586
      vertex 0.164078369140625 -1.18295401686092e-17 0.17118391418457
    endloop
  endfacet
  facet normal -1.06485090770201e-14 -1 1.35739714688615e-14
    outer loop
      vertex 0.159525131225586 -1.10000001457815e-17 0.176474868774414
      vertex 0.159921630859375 -1.05904597157841e-17 0.17681608581543
      vertex 0.159716995239258 -1.06263620542864e-17 0.176652908325195
    endloop
  endfacet
  facet normal 5.7066569553537e-21 -1 2.19995277082386e-16
    outer loop
      vertex 0.164652908325195 -1.17122616807982e-17 0.171716995239258
      vertex 0.16481608581543 -1.16672418796517e-17 0.171921630859375
      vertex 0.164474868774414 -1.17544718736587e-17 0.171525131225586
    endloop
  endfacet
  facet normal -2.98489898188479e-21 -1 2.19998120808681e-16
    outer loop
      vertex 0.159921630859375 -1.05904597157841e-17 0.17681608581543
      vertex 0.160364562988281 -1.05292310921589e-17 0.17709440612793
      vertex 0.160137893676758 -1.0558022589069e-17 0.176963531494141
    endloop
  endfacet
  facet normal -6.49706948658107e-20 -1 2.20040475928386e-16
    outer loop
      vertex 0.164963531494141 -1.16196648860373e-17 0.172137893676758
      vertex 0.165207962036133 -1.15179167473143e-17 0.172600372314453
      vertex 0.16481608581543 -1.16672418796517e-17 0.171921630859375
    endloop
  endfacet
  facet normal -3.8101693042981e-20 -1 2.20026275046133e-16
    outer loop
      vertex 0.16509440612793 -1.15697966683007e-17 0.172364562988281
      vertex 0.165207962036133 -1.15179167473143e-17 0.172600372314453
      vertex 0.164963531494141 -1.16196648860373e-17 0.172137893676758
    endloop
  endfacet
  facet normal -8.55674479442123e-22 -1 2.20000924450311e-16
    outer loop
      vertex 0.16481608581543 -1.16672418796517e-17 0.171921630859375
      vertex 0.165303588867187 -1.14643148083462e-17 0.172844024658203
      vertex 0.164474868774414 -1.17544718736587e-17 0.171525131225586
    endloop
  endfacet
  facet normal 5.1034851331119e-20 -1 2.19973499298795e-16
    outer loop
      vertex 0.165207962036133 -1.15179167473143e-17 0.172600372314453
      vertex 0.165303588867187 -1.14643148083462e-17 0.172844024658203
      vertex 0.16481608581543 -1.16672418796517e-17 0.171921630859375
    endloop
  endfacet
  facet normal -1.03772987765365e-21 -1 2.2000103884391e-16
    outer loop
      vertex 0.164474868774414 -1.17544718736587e-17 0.171525131225586
      vertex 0.165303588867187 -1.14643148083462e-17 0.172844024658203
      vertex 0.163155975341797 -1.19367897863246e-17 0.170696411132813
    endloop
  endfacet
  facet normal -5.24727731293121e-21 -1 2.20017012023511e-16
    outer loop
      vertex 0.161094131469727 -1.04662372518716e-17 0.177380737304688
      vertex 0.161608123779297 -1.04448411996239e-17 0.177477996826172
      vertex 0.161349304199219 -1.04534241844785e-17 0.177438980102539
    endloop
  endfacet
  facet normal -6.4520470306624e-21 -1 2.20023378930938e-16
    outer loop
      vertex 0.160844024658203 -1.04832100980686e-17 0.177303588867188
      vertex 0.161608123779297 -1.04448411996239e-17 0.177477996826172
      vertex 0.161094131469727 -1.04662372518716e-17 0.177380737304688
    endloop
  endfacet
  facet normal 9.33500229569013e-20 -1 2.19981836579349e-16
    outer loop
      vertex 0.165438980102539 -1.13531518984144e-17 0.173349304199219
      vertex 0.165477996826172 -1.12962126496341e-17 0.173608123779297
      vertex 0.165380737304687 -1.14092907010596e-17 0.173094131469727
    endloop
  endfacet
  facet normal 1.61582389402073e-16 -1 1.76704310658311e-16
    outer loop
      vertex 0.160137893676758 -1.18619772953243e-17 0.171036468505859
      vertex 0.161869125366211 -1.04405382722519e-17 0.17749755859375
      vertex 0.159525131225586 -1.10000001457815e-17 0.176474868774414
    endloop
  endfacet
  facet normal -5.78053411828608e-16 -1 1.87194166562381e-15
    outer loop
      vertex 0.159525131225586 -1.10000001457815e-17 0.176474868774414
      vertex 0.161869125366211 -1.04405382722519e-17 0.17749755859375
      vertex 0.159921630859375 -1.05904597157841e-17 0.17681608581543
    endloop
  endfacet
  facet normal 2.25979374979053e-21 -1 2.19989774156235e-16
    outer loop
      vertex 0.159921630859375 -1.05904597157841e-17 0.17681608581543
      vertex 0.161869125366211 -1.04405382722519e-17 0.17749755859375
      vertex 0.160364562988281 -1.05292310921589e-17 0.17709440612793
    endloop
  endfacet
  facet normal -3.22804338572814e-21 -1 2.20009254240954e-16
    outer loop
      vertex 0.160844024658203 -1.04832100980686e-17 0.177303588867188
      vertex 0.161869125366211 -1.04405382722519e-17 0.17749755859375
      vertex 0.161608123779297 -1.04448411996239e-17 0.177477996826172
    endloop
  endfacet
  facet normal 9.4046949731768e-22 -1 2.19987224279972e-16
    outer loop
      vertex 0.160600372314453 -1.05042470083467e-17 0.177207962036133
      vertex 0.161869125366211 -1.04405382722519e-17 0.17749755859375
      vertex 0.160844024658203 -1.04832100980686e-17 0.177303588867188
    endloop
  endfacet
  facet normal -1.05730850957892e-20 -1 2.20037666376545e-16
    outer loop
      vertex 0.160364562988281 -1.05292310921589e-17 0.17709440612793
      vertex 0.161869125366211 -1.04405382722519e-17 0.17749755859375
      vertex 0.160600372314453 -1.05042470083467e-17 0.177207962036133
    endloop
  endfacet
  facet normal 4.61160875612014e-20 -1 2.19999844039401e-16
    outer loop
      vertex 0.16549755859375 -1.12387914391067e-17 0.173869125366211
      vertex 0.165477996826172 -1.11237872347592e-17 0.174391876220703
      vertex 0.165477996826172 -1.12962126496341e-17 0.173608123779297
    endloop
  endfacet
  facet normal -1.3808480363143e-19 -1 2.19992951090321e-16
    outer loop
      vertex 0.16549755859375 -1.11812084452865e-17 0.174130874633789
      vertex 0.165477996826172 -1.11237872347592e-17 0.174391876220703
      vertex 0.16549755859375 -1.12387914391067e-17 0.173869125366211
    endloop
  endfacet
  facet normal 1.69155586131327e-21 -1 2.19999423512346e-16
    outer loop
      vertex 0.160137893676758 -1.18619772953243e-17 0.171036468505859
      vertex 0.162650695800781 -1.04534241844785e-17 0.177438980102539
      vertex 0.161869125366211 -1.04405382722519e-17 0.17749755859375
    endloop
  endfacet
  facet normal 2.38782598725657e-21 -1 2.19998043696023e-16
    outer loop
      vertex 0.162130874633789 -1.04405382722519e-17 0.17749755859375
      vertex 0.162650695800781 -1.04534241844785e-17 0.177438980102539
      vertex 0.162391876220703 -1.04448411996239e-17 0.177477996826172
    endloop
  endfacet
  facet normal 0 -1 2.19976854306102e-16
    outer loop
      vertex 0.161869125366211 -1.04405382722519e-17 0.17749755859375
      vertex 0.162650695800781 -1.04534241844785e-17 0.177438980102539
      vertex 0.162130874633789 -1.04405382722519e-17 0.17749755859375
    endloop
  endfacet
  facet normal 5.10196879341614e-23 -1 2.2000006737573e-16
    outer loop
      vertex 0.163155975341797 -1.19367897863246e-17 0.170696411132813
      vertex 0.162650695800781 -1.04534241844785e-17 0.177438980102539
      vertex 0.160137893676758 -1.18619772953243e-17 0.171036468505859
    endloop
  endfacet
  facet normal -9.33500229569013e-20 -1 2.19981836579349e-16
    outer loop
      vertex 0.165438980102539 -1.10668479859789e-17 0.174650695800781
      vertex 0.165380737304687 -1.10107091833337e-17 0.174905868530273
      vertex 0.165477996826172 -1.11237872347592e-17 0.174391876220703
    endloop
  endfacet
  facet normal 7.40753236019847e-21 -1 2.20026476510059e-16
    outer loop
      vertex 0.162650695800781 -1.04534241844785e-17 0.177438980102539
      vertex 0.163155975341797 -1.04832100980686e-17 0.177303588867188
      vertex 0.162905868530273 -1.04662372518716e-17 0.177380737304688
    endloop
  endfacet
  facet normal 1.59293543058959e-21 -1 2.20000182924934e-16
    outer loop
      vertex 0.163155975341797 -1.19367897863246e-17 0.170696411132813
      vertex 0.163399627685547 -1.05042470083467e-17 0.177207962036133
      vertex 0.162650695800781 -1.04534241844785e-17 0.177438980102539
    endloop
  endfacet
  facet normal -7.77932417404922e-21 -1 2.1996979922309e-16
    outer loop
      vertex 0.162650695800781 -1.04534241844785e-17 0.177438980102539
      vertex 0.163399627685547 -1.05042470083467e-17 0.177207962036133
      vertex 0.163155975341797 -1.04832100980686e-17 0.177303588867188
    endloop
  endfacet
  facet normal 1.05997415048397e-19 -1 2.20035130136308e-16
    outer loop
      vertex 0.165303588867187 -1.09556850760471e-17 0.175155975341797
      vertex 0.165207962036133 -1.0902083137079e-17 0.175399627685547
      vertex 0.165380737304687 -1.10107091833337e-17 0.174905868530273
    endloop
  endfacet
  facet normal -7.5107398224982e-20 -1 2.19971758283015e-16
    outer loop
      vertex 0.165207962036133 -1.0902083137079e-17 0.175399627685547
      vertex 0.16509440612793 -1.08502032160926e-17 0.175635437011719
      vertex 0.165380737304687 -1.10107091833337e-17 0.174905868530273
    endloop
  endfacet
  facet normal -2.90399200186144e-22 -1 2.20000291513233e-16
    outer loop
      vertex 0.165303588867187 -1.14643148083462e-17 0.172844024658203
      vertex 0.16509440612793 -1.08502032160926e-17 0.175635437011719
      vertex 0.163155975341797 -1.19367897863246e-17 0.170696411132813
    endloop
  endfacet
  facet normal 5.53127573647644e-21 -1 2.20000727777659e-16
    outer loop
      vertex 0.165380737304687 -1.14092907010596e-17 0.173094131469727
      vertex 0.16509440612793 -1.08502032160926e-17 0.175635437011719
      vertex 0.165303588867187 -1.14643148083462e-17 0.172844024658203
    endloop
  endfacet
  facet normal -2.00052839804216e-21 -1 2.19999879162526e-16
    outer loop
      vertex 0.165477996826172 -1.12962126496341e-17 0.173608123779297
      vertex 0.16509440612793 -1.08502032160926e-17 0.175635437011719
      vertex 0.165380737304687 -1.14092907010596e-17 0.173094131469727
    endloop
  endfacet
  facet normal -2.18615744990825e-21 -1 2.19999844039401e-16
    outer loop
      vertex 0.165477996826172 -1.11237872347592e-17 0.174391876220703
      vertex 0.16509440612793 -1.08502032160926e-17 0.175635437011719
      vertex 0.165477996826172 -1.12962126496341e-17 0.173608123779297
    endloop
  endfacet
  facet normal -8.535625424227e-21 -1 2.19997885472621e-16
    outer loop
      vertex 0.165380737304687 -1.10107091833337e-17 0.174905868530273
      vertex 0.16509440612793 -1.08502032160926e-17 0.175635437011719
      vertex 0.165477996826172 -1.11237872347592e-17 0.174391876220703
    endloop
  endfacet
  facet normal -1.83044268175146e-22 -1 2.20000249379397e-16
    outer loop
      vertex 0.163155975341797 -1.19367897863246e-17 0.170696411132813
      vertex 0.16509440612793 -1.08502032160926e-17 0.175635437011719
      vertex 0.163399627685547 -1.05042470083467e-17 0.177207962036133
    endloop
  endfacet
  facet normal 7.65282867361351e-21 -1 2.20008694439623e-16
    outer loop
      vertex 0.16509440612793 -1.08502032160926e-17 0.175635437011719
      vertex 0.164963531494141 -1.08003349983559e-17 0.175862106323242
      vertex 0.163399627685547 -1.05042470083467e-17 0.177207962036133
    endloop
  endfacet
  facet normal 2.98489898188479e-21 -1 2.19998120808681e-16
    outer loop
      vertex 0.163635437011719 -1.05292310921589e-17 0.17709440612793
      vertex 0.164078369140625 -1.05904597157841e-17 0.17681608581543
      vertex 0.163862106323242 -1.0558022589069e-17 0.176963531494141
    endloop
  endfacet
  facet normal -1.85485310326584e-20 -1 2.19979616729127e-16
    outer loop
      vertex 0.16481608581543 -1.07527588517745e-17 0.176078369140625
      vertex 0.164283004760742 -1.06263620542864e-17 0.176652908325195
      vertex 0.164963531494141 -1.08003349983559e-17 0.175862106323242
    endloop
  endfacet
  facet normal -2.03926282312084e-20 -1 2.19973363214256e-16
    outer loop
      vertex 0.163399627685547 -1.05042470083467e-17 0.177207962036133
      vertex 0.164283004760742 -1.06263620542864e-17 0.176652908325195
      vertex 0.163635437011719 -1.05292310921589e-17 0.17709440612793
    endloop
  endfacet
  facet normal 7.94226393842682e-20 -1 2.20119767449493e-16
    outer loop
      vertex 0.163635437011719 -1.05292310921589e-17 0.17709440612793
      vertex 0.164283004760742 -1.06263620542864e-17 0.176652908325195
      vertex 0.164078369140625 -1.05904597157841e-17 0.17681608581543
    endloop
  endfacet
  facet normal -1.40084920880667e-20 -1 2.19983523671529e-16
    outer loop
      vertex 0.164963531494141 -1.08003349983559e-17 0.175862106323242
      vertex 0.164283004760742 -1.06263620542864e-17 0.176652908325195
      vertex 0.163399627685547 -1.05042470083467e-17 0.177207962036133
    endloop
  endfacet
  facet normal -3.95254711083579e-20 -1 2.1996830978699e-16
    outer loop
      vertex 0.164652908325195 -1.0707739050628e-17 0.176283004760742
      vertex 0.164474868774414 -1.06655280107345e-17 0.176474868774414
      vertex 0.16481608581543 -1.07527588517745e-17 0.176078369140625
    endloop
  endfacet
  facet normal 8.17263102629051e-20 -1 2.20072655845678e-16
    outer loop
      vertex 0.16481608581543 -1.07527588517745e-17 0.176078369140625
      vertex 0.164474868774414 -1.06655280107345e-17 0.176474868774414
      vertex 0.164283004760742 -1.06263620542864e-17 0.176652908325195
    endloop
  endfacet
  facet normal 3.02375253856891e-20 -1 2.20024256775034e-16
    outer loop
      vertex -0.164474868774414 -1.17544718736587e-17 -0.0384748725891113
      vertex -0.164963531494141 -1.16196648860373e-17 -0.0378621139526367
      vertex -0.164652908325195 -1.17122616807982e-17 -0.0382830047607422
    endloop
  endfacet
  facet normal 3.55853961758345e-20 -1 2.2002820357677e-16
    outer loop
      vertex -0.164652908325195 -1.17122616807982e-17 -0.0382830047607422
      vertex -0.164963531494141 -1.16196648860373e-17 -0.0378621139526367
      vertex -0.16481608581543 -1.16672418796517e-17 -0.038078369140625
    endloop
  endfacet
  facet normal 4.51725573185378e-21 -1 2.2000359311369e-16
    outer loop
      vertex -0.164283004760742 -1.17936378301068e-17 -0.0386529006958008
      vertex -0.16509440612793 -1.15697966683007e-17 -0.037635440826416
      vertex -0.164474868774414 -1.17544718736587e-17 -0.0384748725891113
    endloop
  endfacet
  facet normal 1.95547901105417e-21 -1 2.20001702410431e-16
    outer loop
      vertex -0.164474868774414 -1.17544718736587e-17 -0.0384748725891113
      vertex -0.16509440612793 -1.15697966683007e-17 -0.037635440826416
      vertex -0.164963531494141 -1.16196648860373e-17 -0.0378621139526367
    endloop
  endfacet
  facet normal -2.39051962510441e-20 -1 2.19964371225019e-16
    outer loop
      vertex -0.163862106323242 -1.18619772953243e-17 -0.0389635353088379
      vertex -0.163635437011719 -1.18907687922344e-17 -0.0390944023132324
      vertex -0.164078369140625 -1.18295401686092e-17 -0.0388160934448242
    endloop
  endfacet
  facet normal -8.3623478731976e-21 -1 2.19989107867299e-16
    outer loop
      vertex -0.164078369140625 -1.18295401686092e-17 -0.0388160934448242
      vertex -0.163635437011719 -1.18907687922344e-17 -0.0390944023132324
      vertex -0.164283004760742 -1.17936378301068e-17 -0.0386529006958008
    endloop
  endfacet
  facet normal -2.0657796822117e-21 -1 2.19998343290974e-16
    outer loop
      vertex -0.164283004760742 -1.17936378301068e-17 -0.0386529006958008
      vertex -0.163635437011719 -1.18907687922344e-17 -0.0390944023132324
      vertex -0.16509440612793 -1.15697966683007e-17 -0.037635440826416
    endloop
  endfacet
  facet normal -4.30648388433959e-20 -1 2.19980071385851e-16
    outer loop
      vertex -0.16509440612793 -1.15697966683007e-17 -0.037635440826416
      vertex -0.165303588867187 -1.14643148083462e-17 -0.0371559753417969
      vertex -0.165207962036133 -1.15179167473143e-17 -0.0373996238708496
    endloop
  endfacet
  facet normal -1.02975631205224e-20 -1 2.19972157895498e-16
    outer loop
      vertex -0.163399627685547 -1.19157528760466e-17 -0.0392079696655273
      vertex -0.163155975341797 -1.19367897863246e-17 -0.0393035926818848
      vertex -0.163635437011719 -1.18907687922344e-17 -0.0390944023132324
    endloop
  endfacet
  facet normal 3.59858086366237e-21 -1 2.20004007681141e-16
    outer loop
      vertex -0.163635437011719 -1.18907687922344e-17 -0.0390944023132324
      vertex -0.163155975341797 -1.19367897863246e-17 -0.0393035926818848
      vertex -0.16509440612793 -1.15697966683007e-17 -0.037635440826416
    endloop
  endfacet
  facet normal -3.21536334823947e-20 -1 2.19992515792987e-16
    outer loop
      vertex -0.165303588867187 -1.14643148083462e-17 -0.0371559753417969
      vertex -0.165438980102539 -1.13531518984144e-17 -0.036650691986084
      vertex -0.165380737304687 -1.14092907010596e-17 -0.0369058685302734
    endloop
  endfacet
  facet normal 1.34944131273918e-20 -1 2.20004747237685e-16
    outer loop
      vertex -0.16509440612793 -1.15697966683007e-17 -0.037635440826416
      vertex -0.165438980102539 -1.13531518984144e-17 -0.036650691986084
      vertex -0.165303588867187 -1.14643148083462e-17 -0.0371559753417969
    endloop
  endfacet
  facet normal -8.30601280326812e-22 -1 2.19998003370306e-16
    outer loop
      vertex -0.162391876220703 -1.19751586847693e-17 -0.0394779930114746
      vertex -0.162130874633789 -1.19794616121414e-17 -0.0394975509643555
      vertex -0.162650695800781 -1.19665765469477e-17 -0.0394389839172363
    endloop
  endfacet
  facet normal 7.09836643547e-22 -1 2.20011675772769e-16
    outer loop
      vertex -0.162650695800781 -1.19665765469477e-17 -0.0394389839172363
      vertex -0.162130874633789 -1.19794616121414e-17 -0.0394975509643555
      vertex -0.162905868530273 -1.19537626325217e-17 -0.0393807411193848
    endloop
  endfacet
  facet normal -1.32757160908125e-21 -1 2.19998158256665e-16
    outer loop
      vertex -0.162905868530273 -1.19537626325217e-17 -0.0393807411193848
      vertex -0.162130874633789 -1.19794616121414e-17 -0.0394975509643555
      vertex -0.163155975341797 -1.19367897863246e-17 -0.0393035926818848
    endloop
  endfacet
  facet normal -9.6251225408525e-21 -1 2.19999363570313e-16
    outer loop
      vertex -0.165477996826172 -1.12962126496341e-17 -0.0363918762207031
      vertex -0.16549755859375 -1.11812084452865e-17 -0.0358691291809082
      vertex -0.16549755859375 -1.12387914391067e-17 -0.0361308708190918
    endloop
  endfacet
  facet normal 0 -1 2.20009087774363e-16
    outer loop
      vertex -0.161869125366211 -1.19794616121414e-17 -0.0394975509643555
      vertex -0.161608123779297 -1.19751586847693e-17 -0.0394779930114746
      vertex -0.162130874633789 -1.19794616121414e-17 -0.0394975509643555
    endloop
  endfacet
  facet normal -6.89876260608962e-22 -1 2.19999697937029e-16
    outer loop
      vertex -0.165477996826172 -1.12962126496341e-17 -0.0363918762207031
      vertex -0.165438980102539 -1.10668479859789e-17 -0.035349308013916
      vertex -0.16549755859375 -1.11812084452865e-17 -0.0358691291809082
    endloop
  endfacet
  facet normal 2.76664674577501e-21 -1 2.19999568581269e-16
    outer loop
      vertex -0.165438980102539 -1.13531518984144e-17 -0.036650691986084
      vertex -0.165438980102539 -1.10668479859789e-17 -0.035349308013916
      vertex -0.165477996826172 -1.12962126496341e-17 -0.0363918762207031
    endloop
  endfacet
  facet normal -1.2314056726453e-20 -1 2.20001007862435e-16
    outer loop
      vertex -0.16549755859375 -1.11812084452865e-17 -0.0358691291809082
      vertex -0.165438980102539 -1.10668479859789e-17 -0.035349308013916
      vertex -0.165477996826172 -1.11237872347592e-17 -0.0356081237792969
    endloop
  endfacet
  facet normal -1.05831127653043e-21 -1 2.19999655086383e-16
    outer loop
      vertex -0.16509440612793 -1.15697966683007e-17 -0.037635440826416
      vertex -0.165380737304687 -1.10107091833337e-17 -0.0350941314697266
      vertex -0.165438980102539 -1.13531518984144e-17 -0.036650691986084
    endloop
  endfacet
  facet normal 1.25357017686857e-21 -1 2.19999568581269e-16
    outer loop
      vertex -0.165438980102539 -1.13531518984144e-17 -0.036650691986084
      vertex -0.165380737304687 -1.10107091833337e-17 -0.0350941314697266
      vertex -0.165438980102539 -1.10668479859789e-17 -0.035349308013916
    endloop
  endfacet
  facet normal 5.35745864633304e-21 -1 2.19985093802862e-16
    outer loop
      vertex -0.161094131469727 -1.19537626325217e-17 -0.0393807411193848
      vertex -0.160844024658203 -1.19367897863246e-17 -0.0393035926818848
      vertex -0.161349304199219 -1.19665765469477e-17 -0.0394389839172363
    endloop
  endfacet
  facet normal -5.42062516384525e-22 -1 2.20007110791906e-16
    outer loop
      vertex -0.161349304199219 -1.19665765469477e-17 -0.0394389839172363
      vertex -0.160844024658203 -1.19367897863246e-17 -0.0393035926818848
      vertex -0.161608123779297 -1.19751586847693e-17 -0.0394779930114746
    endloop
  endfacet
  facet normal -2.79618144714881e-20 -1 2.20011059121939e-16
    outer loop
      vertex -0.165380737304687 -1.10107091833337e-17 -0.0350941314697266
      vertex -0.16509440612793 -1.08502032160926e-17 -0.034364559173584
      vertex -0.165303588867187 -1.09556850760471e-17 -0.0348440246582031
    endloop
  endfacet
  facet normal 4.30648388433959e-20 -1 2.19980071385851e-16
    outer loop
      vertex -0.165303588867187 -1.09556850760471e-17 -0.0348440246582031
      vertex -0.16509440612793 -1.08502032160926e-17 -0.034364559173584
      vertex -0.165207962036133 -1.0902083137079e-17 -0.0346003761291504
    endloop
  endfacet
  facet normal -3.55386914183109e-20 -1 2.20067331517834e-16
    outer loop
      vertex -0.160364562988281 -1.18907687922344e-17 -0.0390944023132324
      vertex -0.160137893676758 -1.18619772953243e-17 -0.0389635353088379
      vertex -0.160600372314453 -1.19157528760466e-17 -0.0392079696655273
    endloop
  endfacet
  facet normal -2.58289087631556e-21 -1 2.20004977952054e-16
    outer loop
      vertex -0.160600372314453 -1.19157528760466e-17 -0.0392079696655273
      vertex -0.160137893676758 -1.18619772953243e-17 -0.0389635353088379
      vertex -0.160844024658203 -1.19367897863246e-17 -0.0393035926818848
    endloop
  endfacet
  facet normal 3.24128419300369e-22 -1 2.2000042437236e-16
    outer loop
      vertex -0.161608123779297 -1.19751586847693e-17 -0.0394779930114746
      vertex -0.160137893676758 -1.18619772953243e-17 -0.0389635353088379
      vertex -0.162130874633789 -1.19794616121414e-17 -0.0394975509643555
    endloop
  endfacet
  facet normal -2.92509624172948e-23 -1 2.19999771031358e-16
    outer loop
      vertex -0.16509440612793 -1.15697966683007e-17 -0.037635440826416
      vertex -0.160137893676758 -1.18619772953243e-17 -0.0389635353088379
      vertex -0.165380737304687 -1.10107091833337e-17 -0.0350941314697266
    endloop
  endfacet
  facet normal 2.22202224542718e-21 -1 2.19995000523869e-16
    outer loop
      vertex -0.160844024658203 -1.19367897863246e-17 -0.0393035926818848
      vertex -0.160137893676758 -1.18619772953243e-17 -0.0389635353088379
      vertex -0.161608123779297 -1.19751586847693e-17 -0.0394779930114746
    endloop
  endfacet
  facet normal -2.10697808246126e-23 -1 2.19999801563921e-16
    outer loop
      vertex -0.163155975341797 -1.19367897863246e-17 -0.0393035926818848
      vertex -0.160137893676758 -1.18619772953243e-17 -0.0389635353088379
      vertex -0.16509440612793 -1.15697966683007e-17 -0.037635440826416
    endloop
  endfacet
  facet normal -3.92653539768034e-22 -1 2.2000309944898e-16
    outer loop
      vertex -0.162130874633789 -1.19794616121414e-17 -0.0394975509643555
      vertex -0.160137893676758 -1.18619772953243e-17 -0.0389635353088379
      vertex -0.163155975341797 -1.19367897863246e-17 -0.0393035926818848
    endloop
  endfacet
  facet normal 9.33103852960344e-22 -1 2.19999718894233e-16
    outer loop
      vertex -0.165380737304687 -1.10107091833337e-17 -0.0350941314697266
      vertex -0.16481608581543 -1.07527588517745e-17 -0.033921630859375
      vertex -0.16509440612793 -1.08502032160926e-17 -0.034364559173584
    endloop
  endfacet
  facet normal -5.25858619599731e-21 -1 2.20003609530831e-16
    outer loop
      vertex -0.16509440612793 -1.08502032160926e-17 -0.034364559173584
      vertex -0.16481608581543 -1.07527588517745e-17 -0.033921630859375
      vertex -0.164963531494141 -1.08003349983559e-17 -0.0341378860473633
    endloop
  endfacet
  facet normal 6.01882061130894e-21 -1 2.1999502816149e-16
    outer loop
      vertex -0.16481608581543 -1.07527588517745e-17 -0.033921630859375
      vertex -0.164474868774414 -1.06655280107345e-17 -0.0335251274108887
      vertex -0.164652908325195 -1.0707739050628e-17 -0.0337169952392578
    endloop
  endfacet
  facet normal -2.40473551045231e-14 -1 3.03741912073724e-14
    outer loop
      vertex -0.159716995239258 -1.17936378301068e-17 -0.0386529006958008
      vertex -0.159525131225586 -1.10000001457815e-17 -0.0384748725891113
      vertex -0.159921630859375 -1.18295401686092e-17 -0.0388160934448242
    endloop
  endfacet
  facet normal 4.9312539181847e-21 -1 2.19993410289088e-16
    outer loop
      vertex -0.164474868774414 -1.06655280107345e-17 -0.0335251274108887
      vertex -0.164078369140625 -1.05904597157841e-17 -0.0331839065551758
      vertex -0.164283004760742 -1.06263620542864e-17 -0.0333470993041992
    endloop
  endfacet
  facet normal 9.65175146468093e-22 -1 2.19998018884238e-16
    outer loop
      vertex -0.164474868774414 -1.06655280107345e-17 -0.0335251274108887
      vertex -0.163862106323242 -1.0558022589069e-17 -0.0330364646911621
      vertex -0.164078369140625 -1.05904597157841e-17 -0.0331839065551758
    endloop
  endfacet
  facet normal -5.29664140749752e-22 -1 2.20000423332354e-16
    outer loop
      vertex -0.165380737304687 -1.10107091833337e-17 -0.0350941314697266
      vertex -0.163399627685547 -1.05042470083467e-17 -0.0327920303344727
      vertex -0.16481608581543 -1.07527588517745e-17 -0.033921630859375
    endloop
  endfacet
  facet normal -3.55386914183109e-20 -1 2.20067331517834e-16
    outer loop
      vertex -0.163862106323242 -1.0558022589069e-17 -0.0330364646911621
      vertex -0.163399627685547 -1.05042470083467e-17 -0.0327920303344727
      vertex -0.163635437011719 -1.05292310921589e-17 -0.0329055976867676
    endloop
  endfacet
  facet normal -1.1403362295505e-21 -1 2.20001189082215e-16
    outer loop
      vertex -0.16481608581543 -1.07527588517745e-17 -0.033921630859375
      vertex -0.163399627685547 -1.05042470083467e-17 -0.0327920303344727
      vertex -0.164474868774414 -1.06655280107345e-17 -0.0335251274108887
    endloop
  endfacet
  facet normal 1.35070566850055e-21 -1 2.19997535445215e-16
    outer loop
      vertex -0.164474868774414 -1.06655280107345e-17 -0.0335251274108887
      vertex -0.163399627685547 -1.05042470083467e-17 -0.0327920303344727
      vertex -0.163862106323242 -1.0558022589069e-17 -0.0330364646911621
    endloop
  endfacet
  facet normal 5.8594019178361e-21 -1 2.19983466557577e-16
    outer loop
      vertex -0.163399627685547 -1.05042470083467e-17 -0.0327920303344727
      vertex -0.162905868530273 -1.04662372518716e-17 -0.0326192588806152
      vertex -0.163155975341797 -1.04832100980686e-17 -0.0326964073181152
    endloop
  endfacet
  facet normal 1.3846484920146e-20 -1 2.19933358634508e-16
    outer loop
      vertex -0.162905868530273 -1.04662372518716e-17 -0.0326192588806152
      vertex -0.162391876220703 -1.04448411996239e-17 -0.0325220069885254
      vertex -0.162650695800781 -1.04534241844785e-17 -0.0325610160827637
    endloop
  endfacet
  facet normal 0 -1 2.20009087774363e-16
    outer loop
      vertex -0.162391876220703 -1.04448411996239e-17 -0.0325220069885254
      vertex -0.161869125366211 -1.04405382722519e-17 -0.0325024490356445
      vertex -0.162130874633789 -1.04405382722519e-17 -0.0325024490356445
    endloop
  endfacet
  facet normal 1.12241577886056e-21 -1 2.199970042701e-16
    outer loop
      vertex -0.163399627685547 -1.05042470083467e-17 -0.0327920303344727
      vertex -0.161869125366211 -1.04405382722519e-17 -0.0325024490356445
      vertex -0.162905868530273 -1.04662372518716e-17 -0.0326192588806152
    endloop
  endfacet
  facet normal 1.18834319975808e-22 -1 2.20005911534872e-16
    outer loop
      vertex -0.162905868530273 -1.04662372518716e-17 -0.0326192588806152
      vertex -0.161869125366211 -1.04405382722519e-17 -0.0325024490356445
      vertex -0.162391876220703 -1.04448411996239e-17 -0.0325220069885254
    endloop
  endfacet
  facet normal 2.40533547061207e-21 -1 2.20041187063011e-16
    outer loop
      vertex -0.161869125366211 -1.04405382722519e-17 -0.0325024490356445
      vertex -0.161349304199219 -1.04534241844785e-17 -0.0325610160827637
      vertex -0.161608123779297 -1.04448411996239e-17 -0.0325220069885254
    endloop
  endfacet
  facet normal 4.0630380968338e-21 -1 2.20011823647192e-16
    outer loop
      vertex -0.161349304199219 -1.04534241844785e-17 -0.0325610160827637
      vertex -0.160600372314453 -1.05042470083467e-17 -0.0327920303344727
      vertex -0.161094131469727 -1.04662372518716e-17 -0.0326192588806152
    endloop
  endfacet
  facet normal -5.8594019178361e-21 -1 2.19983466557577e-16
    outer loop
      vertex -0.161094131469727 -1.04662372518716e-17 -0.0326192588806152
      vertex -0.160600372314453 -1.05042470083467e-17 -0.0327920303344727
      vertex -0.160844024658203 -1.04832100980686e-17 -0.0326964073181152
    endloop
  endfacet
  facet normal -3.76066287822343e-21 -1 2.19986459761311e-16
    outer loop
      vertex -0.161869125366211 -1.04405382722519e-17 -0.0325024490356445
      vertex -0.160600372314453 -1.05042470083467e-17 -0.0327920303344727
      vertex -0.161349304199219 -1.04534241844785e-17 -0.0325610160827637
    endloop
  endfacet
  facet normal -4.07683280928883e-21 -1 2.1998507451452e-16
    outer loop
      vertex -0.161869125366211 -1.04405382722519e-17 -0.0325024490356445
      vertex -0.160364562988281 -1.05292310921589e-17 -0.0329055976867676
      vertex -0.160600372314453 -1.05042470083467e-17 -0.0327920303344727
    endloop
  endfacet
  facet normal -3.05250252896216e-22 -1 2.19999882301917e-16
    outer loop
      vertex -0.159921630859375 -1.18295401686092e-17 -0.0388160934448242
      vertex -0.159921630859375 -1.05904597157841e-17 -0.0331839065551758
      vertex -0.160137893676758 -1.18619772953243e-17 -0.0389635353088379
    endloop
  endfacet
  facet normal 4.32465908647182e-23 -1 2.19999869261822e-16
    outer loop
      vertex -0.160137893676758 -1.18619772953243e-17 -0.0389635353088379
      vertex -0.159921630859375 -1.05904597157841e-17 -0.0331839065551758
      vertex -0.165380737304687 -1.10107091833337e-17 -0.0350941314697266
    endloop
  endfacet
  facet normal 1.90283019311233e-15 -1 2.19999882301917e-16
    outer loop
      vertex -0.159525131225586 -1.10000001457815e-17 -0.0384748725891113
      vertex -0.159921630859375 -1.05904597157841e-17 -0.0331839065551758
      vertex -0.159921630859375 -1.18295401686092e-17 -0.0388160934448242
    endloop
  endfacet
  facet normal 1.26832890188865e-23 -1 2.19999956606677e-16
    outer loop
      vertex -0.165380737304687 -1.10107091833337e-17 -0.0350941314697266
      vertex -0.159921630859375 -1.05904597157841e-17 -0.0331839065551758
      vertex -0.163399627685547 -1.05042470083467e-17 -0.0327920303344727
    endloop
  endfacet
  facet normal 9.9381600877719e-22 -1 2.2000399832196e-16
    outer loop
      vertex -0.161869125366211 -1.04405382722519e-17 -0.0325024490356445
      vertex -0.159921630859375 -1.05904597157841e-17 -0.0331839065551758
      vertex -0.160364562988281 -1.05292310921589e-17 -0.0329055976867676
    endloop
  endfacet
  facet normal 2.18386182796831e-22 -1 2.2000178226992e-16
    outer loop
      vertex -0.163399627685547 -1.05042470083467e-17 -0.0327920303344727
      vertex -0.159921630859375 -1.05904597157841e-17 -0.0331839065551758
      vertex -0.161869125366211 -1.04405382722519e-17 -0.0325024490356445
    endloop
  endfacet
  facet normal -2.39051962510441e-20 -1 2.19964371225019e-16
    outer loop
      vertex -0.160364562988281 -1.05292310921589e-17 -0.0329055976867676
      vertex -0.159921630859375 -1.05904597157841e-17 -0.0331839065551758
      vertex -0.160137893676758 -1.0558022589069e-17 -0.0330364646911621
    endloop
  endfacet
  facet normal -1.20945286305318e-16 -1 6.83401983588101e-17
    outer loop
      vertex -0.159525131225586 -1.10000001457815e-17 -0.0384748725891113
      vertex -0.159716995239258 -1.06263620542864e-17 -0.0333470993041992
      vertex -0.159921630859375 -1.05904597157841e-17 -0.0331839065551758
    endloop
  endfacet
  facet normal -0 -1 -0
    outer loop
      vertex -0.157650253295898 -1.10000001457815e-17 -0.0354000015258789
      vertex -0.159525131225586 -1.10000001457815e-17 -0.0335251274108887
      vertex -0.157650253295898 -1.10000001457815e-17 -0.0365999984741211
    endloop
  endfacet
  facet normal -0 -1 0
    outer loop
      vertex -0.157650253295898 -1.10000001457815e-17 -0.0365999984741211
      vertex -0.159525131225586 -1.10000001457815e-17 -0.0335251274108887
      vertex -0.159525131225586 -1.10000001457815e-17 -0.0384748725891113
    endloop
  endfacet
  facet normal -1.94741100399436e-15 -1 0
    outer loop
      vertex -0.159525131225586 -1.10000001457815e-17 -0.0384748725891113
      vertex -0.159525131225586 -1.10000001457815e-17 -0.0335251274108887
      vertex -0.159716995239258 -1.06263620542864e-17 -0.0333470993041992
    endloop
  endfacet
  facet normal 2.40473551045231e-14 -1 3.03741912073724e-14
    outer loop
      vertex 0.159716995239258 -1.17936378301068e-17 -0.0386529006958008
      vertex 0.159921630859375 -1.18295401686092e-17 -0.0388160934448242
      vertex 0.159525131225586 -1.10000001457815e-17 -0.0384748725891113
    endloop
  endfacet
  facet normal -2.39051962510441e-20 -1 2.19964371225019e-16
    outer loop
      vertex 0.160137893676758 -1.18619772953243e-17 -0.0389635353088379
      vertex 0.160364562988281 -1.18907687922344e-17 -0.0390944023132324
      vertex 0.159921630859375 -1.18295401686092e-17 -0.0388160934448242
    endloop
  endfacet
  facet normal -8.53804800633826e-21 -1 2.1997581132287e-16
    outer loop
      vertex 0.160600372314453 -1.19157528760466e-17 -0.0392079696655273
      vertex 0.161094131469727 -1.19537626325217e-17 -0.0393807411193848
      vertex 0.160364562988281 -1.18907687922344e-17 -0.0390944023132324
    endloop
  endfacet
  facet normal -5.8594019178361e-21 -1 2.19983466557577e-16
    outer loop
      vertex 0.160844024658203 -1.19367897863246e-17 -0.0393035926818848
      vertex 0.161094131469727 -1.19537626325217e-17 -0.0393807411193848
      vertex 0.160600372314453 -1.19157528760466e-17 -0.0392079696655273
    endloop
  endfacet
  facet normal 2.24148730454647e-21 -1 2.20018386224433e-16
    outer loop
      vertex 0.161349304199219 -1.19665765469477e-17 -0.0394389839172363
      vertex 0.161608123779297 -1.19751586847693e-17 -0.0394779930114746
      vertex 0.161094131469727 -1.19537626325217e-17 -0.0393807411193848
    endloop
  endfacet
  facet normal 0 -1 0
    outer loop
      vertex 0.159525131225586 -1.10000001457815e-17 -0.0384748725891113
      vertex 0.157650253295898 -1.10000001457815e-17 -0.0354000015258789
      vertex 0.157650253295898 -1.10000001457815e-17 -0.0365999984741211
    endloop
  endfacet
  facet normal 1.30383805358226e-15 -1 3.94615777743139e-15
    outer loop
      vertex 0.159921630859375 -1.18295401686092e-17 -0.0388160934448242
      vertex 0.161869125366211 -1.19794616121414e-17 -0.0394975509643555
      vertex 0.159525131225586 -1.10000001457815e-17 -0.0384748725891113
    endloop
  endfacet
  facet normal 9.9381600877719e-22 -1 2.2000399832196e-16
    outer loop
      vertex 0.160364562988281 -1.18907687922344e-17 -0.0390944023132324
      vertex 0.161869125366211 -1.19794616121414e-17 -0.0394975509643555
      vertex 0.159921630859375 -1.18295401686092e-17 -0.0388160934448242
    endloop
  endfacet
  facet normal -2.3002813845761e-21 -1 2.19991704655608e-16
    outer loop
      vertex 0.161094131469727 -1.19537626325217e-17 -0.0393807411193848
      vertex 0.161869125366211 -1.19794616121414e-17 -0.0394975509643555
      vertex 0.160364562988281 -1.18907687922344e-17 -0.0390944023132324
    endloop
  endfacet
  facet normal -3.16156487274455e-22 -1 2.20004868654632e-16
    outer loop
      vertex 0.161608123779297 -1.19751586847693e-17 -0.0394779930114746
      vertex 0.161869125366211 -1.19794616121414e-17 -0.0394975509643555
      vertex 0.161094131469727 -1.19537626325217e-17 -0.0393807411193848
    endloop
  endfacet
  facet normal 0 -1 2.20009087774363e-16
    outer loop
      vertex 0.162130874633789 -1.19794616121414e-17 -0.0394975509643555
      vertex 0.162391876220703 -1.19751586847693e-17 -0.0394779930114746
      vertex 0.161869125366211 -1.19794616121414e-17 -0.0394975509643555
    endloop
  endfacet
  facet normal -2.24148730454647e-21 -1 2.20018386224433e-16
    outer loop
      vertex 0.162650695800781 -1.19665765469477e-17 -0.0394389839172363
      vertex 0.162905868530273 -1.19537626325217e-17 -0.0393807411193848
      vertex 0.162391876220703 -1.19751586847693e-17 -0.0394779930114746
    endloop
  endfacet
  facet normal 1.18834319975808e-22 -1 2.20005911534872e-16
    outer loop
      vertex 0.162391876220703 -1.19751586847693e-17 -0.0394779930114746
      vertex 0.162905868530273 -1.19537626325217e-17 -0.0393807411193848
      vertex 0.161869125366211 -1.19794616121414e-17 -0.0394975509643555
    endloop
  endfacet
  facet normal 1.02975631205224e-20 -1 2.19972157895498e-16
    outer loop
      vertex 0.163399627685547 -1.19157528760466e-17 -0.0392079696655273
      vertex 0.163635437011719 -1.18907687922344e-17 -0.0390944023132324
      vertex 0.163155975341797 -1.19367897863246e-17 -0.0393035926818848
    endloop
  endfacet
  facet normal -1.78891407268196e-20 -1 2.20036761462972e-16
    outer loop
      vertex 0.163635437011719 -1.18907687922344e-17 -0.0390944023132324
      vertex 0.163862106323242 -1.18619772953243e-17 -0.0389635353088379
      vertex 0.163155975341797 -1.19367897863246e-17 -0.0393035926818848
    endloop
  endfacet
  facet normal 2.44342667428735e-21 -1 2.1999454077637e-16
    outer loop
      vertex 0.163155975341797 -1.19367897863246e-17 -0.0393035926818848
      vertex 0.163862106323242 -1.18619772953243e-17 -0.0389635353088379
      vertex 0.162905868530273 -1.19537626325217e-17 -0.0393807411193848
    endloop
  endfacet
  facet normal 1.01540374338308e-21 -1 2.19997954053025e-16
    outer loop
      vertex 0.162905868530273 -1.19537626325217e-17 -0.0393807411193848
      vertex 0.164283004760742 -1.17936378301068e-17 -0.0386529006958008
      vertex 0.161869125366211 -1.19794616121414e-17 -0.0394975509643555
    endloop
  endfacet
  facet normal 6.64730758678566e-22 -1 2.19998617556256e-16
    outer loop
      vertex 0.163862106323242 -1.18619772953243e-17 -0.0389635353088379
      vertex 0.164283004760742 -1.17936378301068e-17 -0.0386529006958008
      vertex 0.162905868530273 -1.19537626325217e-17 -0.0393807411193848
    endloop
  endfacet
  facet normal -7.48373820381415e-22 -1 2.20000532260813e-16
    outer loop
      vertex 0.164078369140625 -1.18295401686092e-17 -0.0388160934448242
      vertex 0.164283004760742 -1.17936378301068e-17 -0.0386529006958008
      vertex 0.163862106323242 -1.18619772953243e-17 -0.0389635353088379
    endloop
  endfacet
  facet normal 0 -1 0
    outer loop
      vertex 0.159525131225586 -1.10000001457815e-17 -0.0384748725891113
      vertex 0.159525131225586 -1.10000001457815e-17 -0.0335251274108887
      vertex 0.157650253295898 -1.10000001457815e-17 -0.0354000015258789
    endloop
  endfacet
  facet normal 1.68654257297212e-20 -1 2.19980548622769e-16
    outer loop
      vertex 0.164474868774414 -1.17544718736587e-17 -0.0384748725891113
      vertex 0.164652908325195 -1.17122616807982e-17 -0.0382830047607422
      vertex 0.164283004760742 -1.17936378301068e-17 -0.0386529006958008
    endloop
  endfacet
  facet normal 7.21286945483196e-16 -1 0
    outer loop
      vertex 0.159525131225586 -1.10000001457815e-17 -0.0384748725891113
      vertex 0.160137893676758 -1.0558022589069e-17 -0.0330364646911621
      vertex 0.159525131225586 -1.10000001457815e-17 -0.0335251274108887
    endloop
  endfacet
  facet normal -7.48373820381415e-22 -1 2.20000532260813e-16
    outer loop
      vertex 0.159716995239258 -1.06263620542864e-17 -0.0333470993041992
      vertex 0.160137893676758 -1.0558022589069e-17 -0.0330364646911621
      vertex 0.159921630859375 -1.05904597157841e-17 -0.0331839065551758
    endloop
  endfacet
  facet normal -6.77651796542995e-15 -1 9.40193129156753e-15
    outer loop
      vertex 0.159525131225586 -1.10000001457815e-17 -0.0335251274108887
      vertex 0.160137893676758 -1.0558022589069e-17 -0.0330364646911621
      vertex 0.159716995239258 -1.06263620542864e-17 -0.0333470993041992
    endloop
  endfacet
  facet normal -3.6448460331171e-16 -1 1.22337281082417e-16
    outer loop
      vertex 0.161869125366211 -1.19794616121414e-17 -0.0394975509643555
      vertex 0.160137893676758 -1.0558022589069e-17 -0.0330364646911621
      vertex 0.159525131225586 -1.10000001457815e-17 -0.0384748725891113
    endloop
  endfacet
  facet normal -1.04212832077561e-20 -1 2.20007835894517e-16
    outer loop
      vertex 0.164652908325195 -1.17122616807982e-17 -0.0382830047607422
      vertex 0.165207962036133 -1.15179167473143e-17 -0.0373996238708496
      vertex 0.164283004760742 -1.17936378301068e-17 -0.0386529006958008
    endloop
  endfacet
  facet normal -8.63694122946435e-21 -1 2.20006714740949e-16
    outer loop
      vertex 0.16481608581543 -1.16672418796517e-17 -0.038078369140625
      vertex 0.165207962036133 -1.15179167473143e-17 -0.0373996238708496
      vertex 0.164652908325195 -1.17122616807982e-17 -0.0382830047607422
    endloop
  endfacet
  facet normal 2.11834143168479e-20 -1 2.19989497842722e-16
    outer loop
      vertex 0.164963531494141 -1.16196648860373e-17 -0.0378621139526367
      vertex 0.165207962036133 -1.15179167473143e-17 -0.0373996238708496
      vertex 0.16481608581543 -1.16672418796517e-17 -0.038078369140625
    endloop
  endfacet
  facet normal -2.45820768091804e-21 -1 2.20001992671705e-16
    outer loop
      vertex 0.16509440612793 -1.15697966683007e-17 -0.037635440826416
      vertex 0.165207962036133 -1.15179167473143e-17 -0.0373996238708496
      vertex 0.164963531494141 -1.16196648860373e-17 -0.0378621139526367
    endloop
  endfacet
  facet normal 1.02975631205224e-20 -1 2.19972157895498e-16
    outer loop
      vertex 0.160364562988281 -1.05292310921589e-17 -0.0329055976867676
      vertex 0.160844024658203 -1.04832100980686e-17 -0.0326964073181152
      vertex 0.160600372314453 -1.05042470083467e-17 -0.0327920303344727
    endloop
  endfacet
  facet normal -6.49937141143145e-20 -1 2.20022482054316e-16
    outer loop
      vertex 0.165303588867187 -1.14643148083462e-17 -0.0371559753417969
      vertex 0.165380737304687 -1.14092907010596e-17 -0.0369058685302734
      vertex 0.165207962036133 -1.15179167473143e-17 -0.0373996238708496
    endloop
  endfacet
  facet normal 7.05578967071139e-21 -1 2.199795879991e-16
    outer loop
      vertex 0.160364562988281 -1.05292310921589e-17 -0.0329055976867676
      vertex 0.161094131469727 -1.04662372518716e-17 -0.0326192588806152
      vertex 0.160844024658203 -1.04832100980686e-17 -0.0326964073181152
    endloop
  endfacet
  facet normal -1.00640012364009e-20 -1 2.20023207863354e-16
    outer loop
      vertex 0.160137893676758 -1.0558022589069e-17 -0.0330364646911621
      vertex 0.161094131469727 -1.04662372518716e-17 -0.0326192588806152
      vertex 0.160364562988281 -1.05292310921589e-17 -0.0329055976867676
    endloop
  endfacet
  facet normal 9.07417999553297e-21 -1 2.19997783565338e-16
    outer loop
      vertex 0.165438980102539 -1.13531518984144e-17 -0.036650691986084
      vertex 0.165477996826172 -1.12962126496341e-17 -0.0363918762207031
      vertex 0.165380737304687 -1.14092907010596e-17 -0.0369058685302734
    endloop
  endfacet
  facet normal 1.48593882608012e-21 -1 2.19999219440333e-16
    outer loop
      vertex 0.165380737304687 -1.14092907010596e-17 -0.0369058685302734
      vertex 0.165477996826172 -1.12962126496341e-17 -0.0363918762207031
      vertex 0.165207962036133 -1.15179167473143e-17 -0.0373996238708496
    endloop
  endfacet
  facet normal 1.3846484920146e-20 -1 2.19933358634508e-16
    outer loop
      vertex 0.161094131469727 -1.04662372518716e-17 -0.0326192588806152
      vertex 0.161608123779297 -1.04448411996239e-17 -0.0325220069885254
      vertex 0.161349304199219 -1.04534241844785e-17 -0.0325610160827637
    endloop
  endfacet
  facet normal 1.57164679406826e-21 -1 2.19996538900192e-16
    outer loop
      vertex 0.160137893676758 -1.0558022589069e-17 -0.0330364646911621
      vertex 0.161869125366211 -1.04405382722519e-17 -0.0325024490356445
      vertex 0.161094131469727 -1.04662372518716e-17 -0.0326192588806152
    endloop
  endfacet
  facet normal 3.16156487274455e-22 -1 2.20004868654632e-16
    outer loop
      vertex 0.161094131469727 -1.04662372518716e-17 -0.0326192588806152
      vertex 0.161869125366211 -1.04405382722519e-17 -0.0325024490356445
      vertex 0.161608123779297 -1.04448411996239e-17 -0.0325220069885254
    endloop
  endfacet
  facet normal 9.6251225408525e-21 -1 2.19999363570313e-16
    outer loop
      vertex 0.16549755859375 -1.12387914391067e-17 -0.0361308708190918
      vertex 0.16549755859375 -1.11812084452865e-17 -0.0358691291809082
      vertex 0.165477996826172 -1.12962126496341e-17 -0.0363918762207031
    endloop
  endfacet
  facet normal -3.21440190609207e-21 -1 2.19999844039401e-16
    outer loop
      vertex 0.16549755859375 -1.11812084452865e-17 -0.0358691291809082
      vertex 0.165477996826172 -1.11237872347592e-17 -0.0356081237792969
      vertex 0.165477996826172 -1.12962126496341e-17 -0.0363918762207031
    endloop
  endfacet
  facet normal -2.48704731564353e-22 -1 2.200024403194e-16
    outer loop
      vertex 0.160137893676758 -1.0558022589069e-17 -0.0330364646911621
      vertex 0.162391876220703 -1.04448411996239e-17 -0.0325220069885254
      vertex 0.161869125366211 -1.04405382722519e-17 -0.0325024490356445
    endloop
  endfacet
  facet normal 0 -1 2.20009087774363e-16
    outer loop
      vertex 0.161869125366211 -1.04405382722519e-17 -0.0325024490356445
      vertex 0.162391876220703 -1.04448411996239e-17 -0.0325220069885254
      vertex 0.162130874633789 -1.04405382722519e-17 -0.0325024490356445
    endloop
  endfacet
  facet normal 4.59388646387131e-21 -1 2.19999844039401e-16
    outer loop
      vertex 0.165477996826172 -1.11237872347592e-17 -0.0356081237792969
      vertex 0.165438980102539 -1.10668479859789e-17 -0.035349308013916
      vertex 0.165477996826172 -1.12962126496341e-17 -0.0363918762207031
    endloop
  endfacet
  facet normal -1.3846484920146e-20 -1 2.19933358634508e-16
    outer loop
      vertex 0.162391876220703 -1.04448411996239e-17 -0.0325220069885254
      vertex 0.162905868530273 -1.04662372518716e-17 -0.0326192588806152
      vertex 0.162650695800781 -1.04534241844785e-17 -0.0325610160827637
    endloop
  endfacet
  facet normal -5.36797122523661e-22 -1 2.20003702532439e-16
    outer loop
      vertex 0.160137893676758 -1.0558022589069e-17 -0.0330364646911621
      vertex 0.162905868530273 -1.04662372518716e-17 -0.0326192588806152
      vertex 0.162391876220703 -1.04448411996239e-17 -0.0325220069885254
    endloop
  endfacet
  facet normal -5.8594019178361e-21 -1 2.19983466557577e-16
    outer loop
      vertex 0.162905868530273 -1.04662372518716e-17 -0.0326192588806152
      vertex 0.163399627685547 -1.05042470083467e-17 -0.0327920303344727
      vertex 0.163155975341797 -1.04832100980686e-17 -0.0326964073181152
    endloop
  endfacet
  facet normal 3.66248085475478e-22 -1 2.1999980923916e-16
    outer loop
      vertex 0.164283004760742 -1.17936378301068e-17 -0.0386529006958008
      vertex 0.16509440612793 -1.08502032160926e-17 -0.034364559173584
      vertex 0.161869125366211 -1.19794616121414e-17 -0.0394975509643555
    endloop
  endfacet
  facet normal 4.8490583031911e-22 -1 2.1999978678781e-16
    outer loop
      vertex 0.165207962036133 -1.15179167473143e-17 -0.0373996238708496
      vertex 0.16509440612793 -1.08502032160926e-17 -0.034364559173584
      vertex 0.164283004760742 -1.17936378301068e-17 -0.0386529006958008
    endloop
  endfacet
  facet normal -1.40301258040676e-21 -1 2.19999534471772e-16
    outer loop
      vertex 0.165380737304687 -1.10107091833337e-17 -0.0350941314697266
      vertex 0.16509440612793 -1.08502032160926e-17 -0.034364559173584
      vertex 0.165438980102539 -1.10668479859789e-17 -0.035349308013916
    endloop
  endfacet
  facet normal 2.79618144714881e-20 -1 2.20011059121939e-16
    outer loop
      vertex 0.165303588867187 -1.09556850760471e-17 -0.0348440246582031
      vertex 0.16509440612793 -1.08502032160926e-17 -0.034364559173584
      vertex 0.165380737304687 -1.10107091833337e-17 -0.0350941314697266
    endloop
  endfacet
  facet normal -4.30648388433959e-20 -1 2.19980071385851e-16
    outer loop
      vertex 0.165207962036133 -1.0902083137079e-17 -0.0346003761291504
      vertex 0.16509440612793 -1.08502032160926e-17 -0.034364559173584
      vertex 0.165303588867187 -1.09556850760471e-17 -0.0348440246582031
    endloop
  endfacet
  facet normal -4.94589892887891e-22 -1 2.19999750140312e-16
    outer loop
      vertex 0.165477996826172 -1.12962126496341e-17 -0.0363918762207031
      vertex 0.16509440612793 -1.08502032160926e-17 -0.034364559173584
      vertex 0.165207962036133 -1.15179167473143e-17 -0.0373996238708496
    endloop
  endfacet
  facet normal -1.13054771987962e-21 -1 2.19999629810092e-16
    outer loop
      vertex 0.165438980102539 -1.10668479859789e-17 -0.035349308013916
      vertex 0.16509440612793 -1.08502032160926e-17 -0.034364559173584
      vertex 0.165477996826172 -1.12962126496341e-17 -0.0363918762207031
    endloop
  endfacet
  facet normal 5.25858619599731e-21 -1 2.20003609530831e-16
    outer loop
      vertex 0.164963531494141 -1.08003349983559e-17 -0.0341378860473633
      vertex 0.16481608581543 -1.07527588517745e-17 -0.033921630859375
      vertex 0.16509440612793 -1.08502032160926e-17 -0.034364559173584
    endloop
  endfacet
  facet normal 2.82549108331162e-21 -1 2.20002080660875e-16
    outer loop
      vertex 0.16481608581543 -1.07527588517745e-17 -0.033921630859375
      vertex 0.164652908325195 -1.0707739050628e-17 -0.0337169952392578
      vertex 0.16509440612793 -1.08502032160926e-17 -0.034364559173584
    endloop
  endfacet
  facet normal 3.73513579909237e-23 -1 2.20000016658762e-16
    outer loop
      vertex 0.161869125366211 -1.19794616121414e-17 -0.0394975509643555
      vertex 0.164283004760742 -1.06263620542864e-17 -0.0333470993041992
      vertex 0.160137893676758 -1.0558022589069e-17 -0.0330364646911621
    endloop
  endfacet
  facet normal 7.48373820381415e-22 -1 2.20000532260813e-16
    outer loop
      vertex 0.163862106323242 -1.0558022589069e-17 -0.0330364646911621
      vertex 0.164283004760742 -1.06263620542864e-17 -0.0333470993041992
      vertex 0.164078369140625 -1.05904597157841e-17 -0.0331839065551758
    endloop
  endfacet
  facet normal -1.65957518187875e-20 -1 2.19977031610612e-16
    outer loop
      vertex 0.163635437011719 -1.05292310921589e-17 -0.0329055976867676
      vertex 0.164283004760742 -1.06263620542864e-17 -0.0333470993041992
      vertex 0.163862106323242 -1.0558022589069e-17 -0.0330364646911621
    endloop
  endfacet
  facet normal 1.2849585042836e-20 -1 2.2002022024177e-16
    outer loop
      vertex 0.163399627685547 -1.05042470083467e-17 -0.0327920303344727
      vertex 0.164283004760742 -1.06263620542864e-17 -0.0333470993041992
      vertex 0.163635437011719 -1.05292310921589e-17 -0.0329055976867676
    endloop
  endfacet
  facet normal 3.1177443956899e-23 -1 2.19999934273998e-16
    outer loop
      vertex 0.160137893676758 -1.0558022589069e-17 -0.0330364646911621
      vertex 0.164283004760742 -1.06263620542864e-17 -0.0333470993041992
      vertex 0.162905868530273 -1.04662372518716e-17 -0.0326192588806152
    endloop
  endfacet
  facet normal -3.48637213098189e-22 -1 2.19999215632235e-16
    outer loop
      vertex 0.162905868530273 -1.04662372518716e-17 -0.0326192588806152
      vertex 0.164283004760742 -1.06263620542864e-17 -0.0333470993041992
      vertex 0.163399627685547 -1.05042470083467e-17 -0.0327920303344727
    endloop
  endfacet
  facet normal 3.41311158299103e-23 -1 2.20000017922617e-16
    outer loop
      vertex 0.16509440612793 -1.08502032160926e-17 -0.034364559173584
      vertex 0.164283004760742 -1.06263620542864e-17 -0.0333470993041992
      vertex 0.161869125366211 -1.19794616121414e-17 -0.0394975509643555
    endloop
  endfacet
  facet normal 1.41394670737309e-21 -1 2.20001118294524e-16
    outer loop
      vertex 0.164652908325195 -1.0707739050628e-17 -0.0337169952392578
      vertex 0.164283004760742 -1.06263620542864e-17 -0.0333470993041992
      vertex 0.16509440612793 -1.08502032160926e-17 -0.034364559173584
    endloop
  endfacet
  facet normal 1.26070730862886e-20 -1 2.2001231165177e-16
    outer loop
      vertex 0.164652908325195 -1.0707739050628e-17 -0.0337169952392578
      vertex 0.164474868774414 -1.06655280107345e-17 -0.0335251274108887
      vertex 0.164283004760742 -1.06263620542864e-17 -0.0333470993041992
    endloop
  endfacet
endsolid wall_plane
