DBRep_DrawableShape

CASCADE Topology V1, (c) Matra-Datavision
Locations 0
Curve2ds 0
Curves 33
2 182 5.999999999999968 180.00000000000003 -1 0 -0 0 1 2.2204460492503126e-16 0 2.2204460492503126e-16 -1 4.300000000000006
1 182 10.299999999999994 19.499999999999986 0 2.5152770599391498e-16 -1 
2 182 11.000000000000014 163.00000000000003 -1 -0 0 0 -7.3274719625260332e-15 1 0 1 7.3274719625260332e-15 3.2999999999999998
1 182 36.499999999999979 166.30000000000004 -0 1 2.2204460492503126e-16 
2 182 22.999999999999968 163.00000000000003 -1 0 -0 0 1 2.2204460492503126e-16 0 2.2204460492503126e-16 -1 3.3000000000000069
1 182 26.299999999999983 105.04145728643218 0 2.713434479635899e-16 -1 
1 182 42.019067796610202 153.99999999999997 0 1 -1.4880880183228993e-15 
2 182 38.999999999999986 153.69999999999999 1 0 0 0 0 -1 -0 1 0 0.29999999999999999
1 182 39.299999999999983 88.75366707242847 0 0 -1 
1 182 57 24.300000000000015 -0 1 8.5401771125011985e-17 
1 182 63.699999999999974 93.763932022500228 0 -3.7730721116497492e-16 1 
2 182 65.999999999999673 87.527864045000499 -1 -0 0 0 -0.89442719099989609 0.44721359549999756 0 0.44721359549999756 0.89442719099989609 2.2999999999996725
1 182 65.95527864044999 92.581377674149948 -0 0.44721359549995882 0.89442719099991541 
2 182 68.236067977499786 92.000000000000057 -1 0 -0 0 6.9944050551384862e-15 1 0 1 -6.9944050551384862e-15 2.2999999999999572
1 182 61.683115082500734 94.300000000000026 -0 1 2.2204460492503126e-16 
2 182 73.366230165001468 91.999999999999986 -1 0 -0 0 0.9956342260592872 0.093340708693068875 0 0.093340708693068875 -0.9956342260592872 2.3000000000000291
1 182 79.503917760557385 51.17224229005226 0 0.093340708693058425 -0.99563422605928809 
2 182 84 2.1316282072803006e-14 1 0 0 0 0 -1 -0 1 0 0.29999999999999999
1 182 84.299999999999997 47.500000000000007 0 0 -1 
2 182 82.000000000000028 -9.9999999999999929 -1 0 -0 0 3.3306690738754681e-16 -1 0 -1 -3.3306690738754681e-16 2.3000000000000016
1 182 67.000000000000014 -11.699999999999982 -0 1 2.2204460492503126e-16 
2 182 84.000000000000014 -11.999999999999993 1 0 0 0 -0.88465876095733853 -0.46623907672075982 0 0.46623907672075982 -0.88465876095733853 0.29999999999999999
1 182 56.933211725874614 -26.604042761915899 0 -0.88465876095733853 -0.46623907672075982 
1 182 26.300000000000001 18.999999999999993 0 2.9763425766546736e-16 -1 
2 182 23.000000000000036 -62.000000000000007 -1 -0 0 0 -1.1102230246251567e-15 -1 0 -1 1.1102230246251567e-15 3.2999999999999998
1 182 30.500000000000025 -65.300000000000011 0 -1 -2.2204460492503126e-16 
2 182 11.000000000000036 -62.000000000000021 -1 -0 0 0 -1 -3.4450928483976655e-16 0 -3.4450928483976655e-16 1 3.3000000000000016
2 182 6.0000000000000355 -61.000000000000021 -1 -0 0 0 -2.2204460492503146e-16 -1 0 -1 2.2204460492503146e-16 4.3000000000000069
1 182 27.000000000000025 -65.300000000000011 0 -1 -2.2204460492503126e-16 
2 182 4.000000000000032 -61.000000000000021 -1 -0 0 0 -1 -3.4450928483976655e-16 0 -3.4450928483976655e-16 1 4.2999999999999998
1 182 -0.30000000000001137 79.75 0 -0 1 
2 182 3.9999999999999787 180.00000000000003 -1 -0 0 0 -2.6645352591003757e-15 1 0 1 2.6645352591003757e-15 4.2999999999999998
1 182 27.999999999999968 184.30000000000007 -0 1 2.2204460492503126e-16 
Polygon3D 0
PolygonOnTriangulations 0
Surfaces 0
Triangulations 0

TShapes 67
Ve
1e-07
182 5.99999999999997 184.3
0 0

0101101
*
Ve
1e-07
182 10.3 180
0 0

0101101
*
Ed
 1e-07 1 1 0
1  1 0 4.71238898038469 6.28318530717959
0

0101000
+67 0 -66 0 *
Ve
1e-07
182 10.3 166.224903099319
0 0

0101101
*
Ed
 1e-07 1 1 0
1  2 0 -160.5 -146.724903099319
0

0101000
+66 0 -64 0 *
Ve
1e-07
182 11 166.3
0 0

0101101
*
Ed
 1e-07 1 1 0
1  3 0 6.06944024896782 6.28318530717959
0

0101000
+64 0 -62 0 *
Ve
1e-07
182 23 166.3
0 0

0101101
*
Ed
 1e-07 1 1 0
1  4 0 -25.5 -13.5
0

0101000
+62 0 -60 0 *
Ve
1e-07
182 26.3 163
0 0

0101101
*
Ed
 1e-07 1 1 0
1  5 0 4.71238898038469 6.28318530717959
0

0101000
+60 0 -58 0 *
Ve
1e-07
182 26.3 154
0 0

0101101
*
Ed
 1e-07 1 1 0
1  6 0 -57.9585427135678 -48.9585427135678
0

0101000
+58 0 -56 0 *
Ve
1e-07
182 39 154
0 0

0101101
*
Ed
 1e-07 1 1 0
1  7 0 -15.7190677966102 -3.0190677966102
0

0101000
+56 0 -54 0 *
Ve
1e-07
182 39.3 153.7
0 0

0101101
*
Ed
 1e-07 1 1 0
1  8 0 1.5707963267949 3.14159265358974
0

0101000
+52 0 -54 0 *
Ve
1e-07
182 39.3 24.3
0 0

0101101
*
Ed
 1e-07 1 1 0
1  9 0 -64.9463329275715 64.4536670724284
0

0101000
+52 0 -50 0 *
Ve
1e-07
182 63.7 24.3
0 0

0101101
*
Ed
 1e-07 1 1 0
1  10 0 -17.7 6.7
0

0101000
+50 0 -48 0 *
Ve
1e-07
182 63.7 87.5278640450005
0 0

0101101
*
Ed
 1e-07 1 1 0
1  11 0 -69.4639320225002 -6.23606797749973
0

0101000
+48 0 -46 0 *
Ve
1e-07
182 63.9428174607002 88.5564553146503
0 0

0101101
*
Ed
 1e-07 1 1 0
1  12 0 5.81953769817874 6.28318530717954
0

0101000
+46 0 -44 0 *
Ve
1e-07
182 66.1788854382 93.02859126965
0 0

0101101
*
Ed
 1e-07 1 1 0
1  13 0 -4.50000000000007 0.500000000000056
0

0101000
+44 0 -42 0 *
Ve
1e-07
182 68.2360679774998 94.3
0 0

0101101
*
Ed
 1e-07 1 1 0
1  14 0 5.17603658938549 6.28318530717958
0

0101000
+42 0 -40 0 *
Ve
1e-07
182 73.3662301650015 94.3
0 0

0101101
*
Ed
 1e-07 1 1 0
1  15 0 6.55295289499905 11.6831150825007
0

0101000
+40 0 -38 0 *
Ve
1e-07
182 75.6561888849379 92.214683629994
0 0

0101101
*
Ed
 1e-07 1 1 0
1  16 0 4.80586576154329 6.2831853071796
0

0101000
+38 0 -36 0 *
Ve
1e-07
182 84.2986902678178 0.0280022126079444
0 0

0101101
*
Ed
 1e-07 1 1 0
1  17 0 -41.2224090591857 51.3685033507464
0

0101000
+36 0 -34 0 *
Ve
1e-07
182 84.3 2.12979123708158e-14
0 0

0101101
*
Ed
 1e-07 1 1 0
1  18 0 1.5707963267949 1.66427310795349
0

0101000
+32 0 -34 0 *
Ve
1e-07
182 84.3 -9.99999999999999
0 0

0101101
*
Ed
 1e-07 1 1 0
1  19 0 47.5 57.5
0

0101000
+32 0 -30 0 *
Ve
1e-07
182 83.549193338483 -11.7
0 0

0101101
*
Ed
 1e-07 1 1 0
1  20 0 4.71238898038469 5.54416742816565
0

0101000
+30 0 -28 0 *
Ve
1e-07
182 84 -11.7
0 0

0101101
*
Ed
 1e-07 1 1 0
1  21 0 16.549193338483 17
0

0101000
+28 0 -26 0 *
Ve
1e-07
182 84.1398717230162 -12.2653976282872
0 0

0101101
*
Ed
 1e-07 1 1 0
1  22 0 1.57079632679492 4.22735425853215
0

0101000
+24 0 -26 0 *
Ve
1e-07
182 26.3 -42.7485732660931
0 0

0101101
*
Ed
 1e-07 1 1 0
1  23 0 -30.7538467913886 34.6271501259137
0

0101000
+24 0 -22 0 *
Ve
1e-07
182 26.3 -62
0 0

0101101
*
Ed
 1e-07 1 1 0
1  24 0 61.7485732660931 81
0

0101000
+22 0 -20 0 *
Ve
1e-07
182 23 -65.3
0 0

0101101
*
Ed
 1e-07 1 1 0
1  25 0 4.71238898038469 6.28318530717958
0

0101000
+20 0 -18 0 *
Ve
1e-07
182 11 -65.3
0 0

0101101
*
Ed
 1e-07 1 1 0
1  26 0 7.49999999999999 19.5
0

0101000
+18 0 -16 0 *
Ve
1e-07
182 8.68888450755368 -64.3555774622318
0 0

0101101
*
Ed
 1e-07 1 1 0
1  27 0 4.71238898038469 5.48825992076403
0

0101000
+16 0 -14 0 *
Ve
1e-07
182 6.00000000000004 -65.3
0 0

0101101
*
Ed
 1e-07 1 1 0
1  28 0 5.60764124352045 6.28318530717959
0

0101000
+14 0 -12 0 *
Ve
1e-07
182 4.00000000000003 -65.3
0 0

0101101
*
Ed
 1e-07 1 1 0
1  29 0 21 23
0

0101000
+12 0 -10 0 *
Ve
1e-07
182 -0.299999999999968 -61
0 0

0101101
*
Ed
 1e-07 1 1 0
1  30 0 4.71238898038469 6.28318530717959
0

0101000
+10 0 -8 0 *
Ve
1e-07
182 -0.300000000000011 180
0 0

0101101
*
Ed
 1e-07 1 1 0
1  31 0 -140.75 100.25
0

0101000
+8 0 -6 0 *
Ve
1e-07
182 3.99999999999998 184.3
0 0

0101101
*
Ed
 1e-07 1 1 0
1  32 0 4.71238898038469 6.28318530717959
0

0101000
+6 0 -4 0 *
Ed
 1e-07 1 1 0
1  33 0 -24 -22
0

0101000
+4 0 -67 0 *
Wi

0101100
-65 0 -63 0 -61 0 -59 0 -57 0 -55 0 -53 0 +51 0 -49 0 -47 0 
-45 0 -43 0 -41 0 -39 0 -37 0 -35 0 -33 0 +31 0 -29 0 -27 0 
-25 0 +23 0 -21 0 -19 0 -17 0 -15 0 -13 0 -11 0 -9 0 -7 0 
-5 0 -3 0 -2 0 *

-1 0 