DBRep_DrawableShape

CASCADE Topology V1, (c) Matra-Datavision
Locations 220
1
              1               0               0               0 
              0               1               0               0 
              0               0               1               0 
1
              1               0               0               0 
              0               1               0               0 
              0               0               1               0 
1
              1               0               0               0 
              0               1               0               0 
              0               0               1               0 
1
              1               0               0               0 
              0               1               0               0 
              0               0               1               0 
1
              1               0               0               0 
              0               1               0               0 
              0               0               1               0 
1
              1               0               0               0 
              0               1               0               0 
              0               0               1               0 
1
              1               0               0               0 
              0               1               0               0 
              0               0               1               0 
1
              1               0               0               0 
              0               1               0               0 
              0               0               1               0 
1
              1               0               0               0 
              0               1               0               0 
              0               0               1               0 
1
              1               0               0               0 
              0               1               0               0 
              0               0               1               0 
1
              1               0               0               0 
              0               1               0               0 
              0               0               1               0 
1
              1               0               0               0 
              0               1               0               0 
              0               0               1               0 
1
              1               0               0               0 
              0               1               0               0 
              0               0               1               0 
2  1 1 2 1 3 1 4 1 5 1 6 1 7 1 8 1 9 1 10 1 11 1 12 1 13 1 0
1
              1               0               0               0 
              0               1               0               0 
              0               0               1               0 
1
              1               0               0               0 
              0               1               0               0 
              0               0               1               0 
1
              1               0               0               0 
              0               1               0               0 
              0               0               1               0 
1
              1               0               0               0 
              0               1               0               0 
              0               0               1               0 
1
              1               0               0               0 
              0               1               0               0 
              0               0               1               0 
1
              1               0               0               0 
              0               1               0               0 
              0               0               1               0 
1
              1               0               0               0 
              0               1               0               0 
              0               0               1               0 
1
              1               0               0               0 
              0               1               0               0 
              0               0               1               0 
1
              1               0               0               0 
              0               1               0               0 
              0               0               1               0 
1
              1               0               0               0 
              0               1               0               0 
              0               0               1               0 
1
              1               0               0               0 
              0               1               0               0 
              0               0               1               0 
1
              1               0               0               0 
              0               1               0               0 
              0               0               1               0 
2  15 1 16 1 17 1 18 1 19 1 20 1 21 1 22 1 23 1 24 1 25 1 26 1 0
1
              1               0               0               0 
              0               1               0               0 
              0               0               1               0 
1
             -0               0               1             0.2 
              1              -0               0               0 
              0               1              -0               0 
2  28 1 29 1 15 1 16 1 17 1 18 1 19 1 20 1 21 1 22 1 23 1 24 1 25 1 26 1 0
2  29 -1 28 -1 0
2  26 -1 25 -1 24 -1 23 -1 22 -1 21 -1 20 -1 19 -1 18 -1 17 -1 16 -1 15 -1 0
1
              1               0               0               0 
              0               1               0               0 
              0               0               1               0 
1
              1               0               0               0 
              0               1               0               0 
              0               0               1               0 
2  33 1 34 1 0
2  13 -1 12 -1 11 -1 10 -1 9 -1 8 -1 7 -1 6 -1 5 -1 4 -1 3 -1 2 -1 1 -1 0
2  15 1 16 1 17 1 18 1 19 1 20 1 21 1 22 1 23 1 24 1 25 1 26 1 1 1 2 1 3 1 4 1 5 1 6 1 7 1 8 1 9 1 10 1 11 1 12 1 13 1 0
2  28 1 29 1 15 1 16 1 17 1 18 1 19 1 20 1 21 1 22 1 23 1 24 1 25 1 26 1 1 1 2 1 3 1 4 1 5 1 6 1 7 1 8 1 9 1 10 1 11 1 12 1 13 1 0
2  13 -1 12 -1 11 -1 10 -1 9 -1 8 -1 7 -1 6 -1 5 -1 4 -1 3 -1 2 -1 1 -1 26 -1 25 -1 24 -1 23 -1 22 -1 21 -1 20 -1 19 -1 18 -1 17 -1 16 -1 15 -1 29 -1 28 -1 0
2  17 1 18 1 19 1 20 1 21 1 22 1 23 1 24 1 25 1 26 1 1 1 2 1 3 1 4 1 5 1 6 1 7 1 8 1 9 1 10 1 11 1 12 1 13 1 0
2  15 1 16 1 0
1
              1               0               0               0 
              0               1               0               0 
              0               0               1               0 
1
              1               0               0               0 
              0               1               0               0 
              0               0               1               0 
1
              1               0               0               0 
              0               1               0               0 
              0               0               1               0 
1
              1               0               0            69.6 
              0               1               0               1 
              0               0               1             176 
2  42 1 43 1 44 1 45 1 0
1
              1               0               0               0 
              0               1               0               0 
              0               0               1               0 
1
              1               0               0               0 
              0               1               0               0 
              0               0               1             -22 
2  47 1 48 1 42 1 43 1 44 1 45 1 17 1 18 1 19 1 20 1 21 1 22 1 23 1 24 1 25 1 26 1 1 1 2 1 3 1 4 1 5 1 6 1 7 1 8 1 9 1 10 1 11 1 12 1 13 1 0
2  48 -1 47 -1 0
2  42 1 43 1 44 1 45 1 17 1 18 1 19 1 20 1 21 1 22 1 23 1 24 1 25 1 26 1 1 1 2 1 3 1 4 1 5 1 6 1 7 1 8 1 9 1 10 1 11 1 12 1 13 1 0
2  26 -1 25 -1 24 -1 23 -1 22 -1 21 -1 20 -1 19 -1 18 -1 17 -1 45 -1 44 -1 43 -1 42 -1 0
1
              1               0               0               0 
              0               1               0               0 
              0               0               1               0 
1
              1               0               0               0 
              0               1               0               0 
              0               0               1               0 
1
              1               0               0               0 
              0               1               0               0 
              0               0               1               0 
1
              1               0               0             182 
              0               1               0            19.5 
              0               0               1             193 
2  53 1 54 1 55 1 56 1 21 1 22 1 23 1 24 1 25 1 26 1 1 1 2 1 3 1 4 1 5 1 6 1 7 1 8 1 9 1 10 1 11 1 12 1 13 1 0
2  13 -1 12 -1 11 -1 10 -1 9 -1 8 -1 7 -1 6 -1 5 -1 4 -1 3 -1 2 -1 1 -1 26 -1 25 -1 24 -1 23 -1 22 -1 21 -1 56 -1 55 -1 54 -1 53 -1 0
2  9 1 10 1 11 1 12 1 13 1 0
2  1 1 2 1 3 1 4 1 5 1 6 1 7 1 8 1 0
1
              1               0               0               0 
              0               1               0               0 
              0               0               1            30.6 
1
              1               0               0               0 
              0               1               0               0 
              0               0               1               0 
1
              1               0               0               0 
              0               1               0               0 
              0               0               1               0 
1
              1               0               0               0 
              0               1               0               0 
              0               0               1               0 
1
              1               0               0             182 
              0               1               0              13 
              0               0               1             169 
2  61 1 62 1 63 1 64 1 65 1 0
2  13 -1 12 -1 11 -1 10 -1 9 -1 0
1
              1               0               0               0 
              0               1               0               0 
              0               0               1               0 
1
             -0               0               1             136 
              1              -0               0               0 
              0               1              -0               0 
1
              1               0               0               4 
              0               1               0               0 
              0               0               1               0 
2  68 1 69 1 70 1 33 1 34 1 1 1 2 1 3 1 4 1 5 1 6 1 7 1 8 1 9 1 10 1 11 1 12 1 13 1 0
2  34 -1 33 -1 70 -1 69 -1 68 -1 0
1
              1               0               0               0 
              0               1               0               0 
              0               0               1               0 
1
              1               0               0               0 
              0               1               0               0 
              0               0               1              -3 
1
              1               0               0               0 
              0               1               0               0 
              0               0               1               0 
1
              1               0               0               0 
              0               1               0               0 
              0               0               1               0 
1
              1               0               0               0 
              0               1               0               0 
              0               0               1               0 
1
              1               0               0             160 
              0               1               0               2 
              0               0               1             229 
2  73 1 74 1 75 1 76 1 77 1 78 1 25 1 26 1 1 1 2 1 3 1 4 1 5 1 6 1 7 1 8 1 9 1 10 1 11 1 12 1 13 1 0
2  26 -1 25 -1 78 -1 77 -1 76 -1 75 -1 74 -1 73 -1 0
2  78 -1 77 -1 76 -1 75 -1 74 -1 73 -1 0
2  56 -1 55 -1 54 -1 53 -1 0
2  24 -1 23 -1 22 -1 21 -1 56 -1 55 -1 54 -1 53 -1 0
2  20 -1 19 -1 18 -1 17 -1 16 -1 15 -1 0
2  23 1 24 1 25 1 26 1 1 1 2 1 3 1 4 1 5 1 6 1 7 1 8 1 0
1
              1               0               0               0 
              0               1               0              -4 
              0               0               1           1e-15 
1
              1               0               0               0 
              0               1               0               0 
              0               0               1               0 
1
              1               0               0               0 
              0               1               0               0 
              0               0               1               0 
2  86 1 87 1 88 1 19 1 20 1 21 1 22 1 23 1 24 1 25 1 26 1 1 1 2 1 3 1 4 1 5 1 6 1 7 1 8 1 0
1
              1               0               0               0 
              0               1               0               0 
              0               0               1               0 
1
              1               0               0               0 
              0              -0              -1            30.3 
              0               1              -0               0 
2  90 1 91 1 86 1 87 1 88 1 19 1 20 1 21 1 22 1 23 1 24 1 25 1 26 1 1 1 2 1 3 1 4 1 5 1 6 1 7 1 8 1 9 1 10 1 11 1 12 1 13 1 0
2  91 -1 90 -1 0
2  88 -1 87 -1 86 -1 91 -1 90 -1 0
2  19 1 20 1 21 1 22 1 23 1 24 1 25 1 26 1 1 1 2 1 3 1 4 1 5 1 6 1 7 1 8 1 9 1 10 1 11 1 12 1 13 1 0
2  15 1 16 1 17 1 18 1 0
2  86 1 87 1 88 1 0
2  20 -1 19 -1 0
2  21 1 22 1 23 1 24 1 25 1 26 1 1 1 2 1 3 1 4 1 5 1 6 1 7 1 8 1 9 1 10 1 11 1 12 1 13 1 0
2  25 1 26 1 1 1 2 1 3 1 4 1 5 1 6 1 7 1 8 1 0
2  62 1 63 1 64 1 65 1 0
2  7 1 8 1 9 1 10 1 11 1 12 1 13 1 0
2  86 1 87 1 88 1 19 1 20 1 21 1 22 1 23 1 24 1 25 1 26 1 1 1 2 1 3 1 4 1 5 1 6 1 0
1
              1               0               0               0 
              0               1               0               0 
              0               0               1               0 
1
              1               0               0               0 
              0               1               0               0 
              0               0               1               0 
2  104 1 105 1 0
1
              1               0               0               0 
              0               1               0               0 
              0               0               1               0 
1
              1               0               0               0 
              0               1               0               0 
              0               0               1               0 
2  107 1 108 1 104 1 105 1 0
2  5 1 6 1 7 1 8 1 9 1 10 1 11 1 12 1 13 1 0
2  86 1 87 1 88 1 19 1 20 1 21 1 22 1 23 1 24 1 25 1 26 1 1 1 2 1 3 1 4 1 0
1
              1               0               0               0 
              0               1               0               0 
              0               0               1               0 
1
              1               0               0               0 
              0               1               0               0 
              0               0               1               0 
2  112 1 113 1 0
2  6 -1 5 -1 0
1
              1               0               0               9 
              0               1               0               0 
              0               0               1               0 
2  116 1 112 1 113 1 0
2  3 1 4 1 5 1 6 1 7 1 8 1 9 1 10 1 11 1 12 1 13 1 0
2  86 1 87 1 88 1 19 1 20 1 21 1 22 1 23 1 24 1 25 1 26 1 1 1 2 1 0
1
              1               0               0               9 
              0               1               0               0 
              0               0               1               0 
1
              1               0               0               0 
              0               1               0               0 
              0               0               1               0 
1
              1               0               0               0 
              0               1               0               0 
              0               0               1               0 
2  120 1 121 1 122 1 0
2  6 -1 5 -1 4 -1 3 -1 0
2  121 1 122 1 0
2  87 1 88 1 0
1
              1               0               0           179.8 
              0               1               0               0 
              0               0               1               0 
2  28 1 29 1 127 1 15 1 16 1 17 1 18 1 19 1 20 1 21 1 22 1 23 1 24 1 25 1 26 1 1 1 2 1 3 1 4 1 5 1 6 1 7 1 8 1 9 1 10 1 11 1 12 1 13 1 0
2  13 -1 12 -1 11 -1 10 -1 9 -1 8 -1 7 -1 6 -1 5 -1 4 -1 3 -1 2 -1 1 -1 26 -1 25 -1 24 -1 23 -1 22 -1 21 -1 20 -1 19 -1 18 -1 17 -1 16 -1 15 -1 127 -1 29 -1 28 -1 0
2  20 -1 19 -1 18 -1 17 -1 16 -1 15 -1 127 -1 29 -1 28 -1 0
2  19 1 20 1 21 1 22 1 23 1 24 1 25 1 26 1 0
2  26 -1 25 -1 24 -1 23 -1 22 -1 21 -1 20 -1 19 -1 18 -1 17 -1 0
2  42 1 43 1 44 1 45 1 17 1 18 1 19 1 20 1 21 1 22 1 23 1 24 1 25 1 26 1 0
2  17 1 18 1 19 1 20 1 21 1 22 1 23 1 24 1 25 1 26 1 0
2  16 -1 15 -1 29 -1 28 -1 0
2  47 1 48 1 42 1 43 1 44 1 45 1 17 1 18 1 19 1 20 1 21 1 22 1 23 1 24 1 25 1 26 1 0
2  45 -1 44 -1 43 -1 42 -1 0
2  87 1 88 1 19 1 20 1 21 1 22 1 23 1 24 1 25 1 26 1 1 1 2 1 3 1 4 1 5 1 6 1 7 1 8 1 0
2  8 -1 7 -1 6 -1 5 -1 4 -1 3 -1 2 -1 1 -1 26 -1 25 -1 24 -1 23 -1 0
1
              1               0               0               0 
              0               1               0               0 
              0               0               1               0 
1
              1               0               0               0 
              0               1               0               0 
              0               0               1               0 
1
              1               0               0               0 
              0               1               0               0 
              0               0               1               0 
1
              1               0               0           178.7 
              0               1               0              38 
              0               0               1             193 
2  140 1 141 1 142 1 143 1 0
1
              1               0               0               0 
              0               1               0               0 
              0               0               1               0 
1
              1               0               0               0 
              0               1               0               0 
              0               0               1             -39 
2  145 1 146 1 140 1 141 1 142 1 143 1 23 1 24 1 25 1 26 1 1 1 2 1 3 1 4 1 5 1 6 1 7 1 8 1 0
2  146 -1 145 -1 0
2  143 -1 142 -1 141 -1 140 -1 146 -1 145 -1 0
1
              1               0               0               0 
              0               1               0               0 
              0               0               1               0 
1
              1               0               0               0 
              0               1               0               0 
              0               0               1             -39 
2  150 1 151 1 53 1 54 1 55 1 56 1 21 1 22 1 23 1 24 1 25 1 26 1 1 1 2 1 3 1 4 1 5 1 6 1 7 1 8 1 0
2  22 -1 21 -1 56 -1 55 -1 54 -1 53 -1 151 -1 150 -1 0
2  56 -1 55 -1 54 -1 53 -1 151 -1 150 -1 0
2  90 1 91 1 87 1 88 1 19 1 20 1 21 1 22 1 23 1 24 1 25 1 26 1 1 1 2 1 3 1 4 1 5 1 6 1 7 1 8 1 0
2  20 -1 19 -1 88 -1 87 -1 91 -1 90 -1 0
2  87 1 88 1 19 1 20 1 21 1 22 1 23 1 24 1 25 1 26 1 1 1 2 1 3 1 4 1 5 1 6 1 7 1 8 1 9 1 10 1 11 1 12 1 13 1 0
2  90 1 91 1 0
2  90 1 91 1 86 1 0
2  90 1 91 1 87 1 88 1 19 1 20 1 21 1 22 1 23 1 24 1 25 1 26 1 1 1 2 1 3 1 4 1 5 1 6 1 7 1 8 1 9 1 10 1 11 1 12 1 13 1 0
2  13 -1 12 -1 11 -1 10 -1 9 -1 8 -1 7 -1 6 -1 5 -1 4 -1 3 -1 2 -1 1 -1 26 -1 25 -1 24 -1 23 -1 22 -1 21 -1 20 -1 19 -1 88 -1 87 -1 91 -1 90 -1 0
2  13 -1 12 -1 11 -1 10 -1 9 -1 8 -1 7 -1 6 -1 5 -1 4 -1 3 -1 2 -1 1 -1 26 -1 25 -1 24 -1 23 -1 22 -1 21 -1 20 -1 19 -1 0
1
              1               0               0               0 
              0               1               0               0 
              0               0               1               0 
1
              1               0               0               0 
              0               1               0               0 
              0               0               1               0 
2  163 1 164 1 108 -1 107 -1 0
2  108 -1 107 -1 0
2  105 -1 104 -1 108 -1 107 -1 0
2  112 1 113 1 5 1 6 1 0
2  87 1 88 1 19 1 20 1 21 1 22 1 23 1 24 1 25 1 26 1 1 1 2 1 3 1 4 1 5 1 6 1 0
1
              1               0               0               0 
              0               1               0               0 
              0               0               1               0 
1
             -0               0               1             168 
              1              -0               0               0 
              0               1              -0               0 
2  170 1 171 1 112 1 113 1 5 1 6 1 0
2  6 -1 5 -1 113 -1 112 -1 171 -1 170 -1 0
2  171 -1 170 -1 0
2  5 1 6 1 0
2  113 -1 112 -1 171 -1 170 -1 0
2  170 1 171 1 112 1 113 1 0
2  170 1 171 1 116 1 112 1 113 1 0
2  113 -1 112 -1 116 -1 171 -1 170 -1 0
2  170 1 171 1 116 1 112 1 113 1 5 1 6 1 0
2  3 1 4 1 5 1 6 1 0
2  120 1 121 1 122 1 3 1 4 1 5 1 6 1 0
1
              1               0               0               0 
              0               1               0               0 
              0               0               1               0 
1
             -0               0               1             143 
              1              -0               0               0 
              0               1              -0               0 
2  183 1 184 1 120 1 121 1 122 1 3 1 4 1 5 1 6 1 0
2  184 -1 183 -1 0
2  122 -1 121 -1 120 -1 184 -1 183 -1 0
2  121 1 122 1 3 1 4 1 5 1 6 1 0
2  183 1 184 1 121 1 122 1 3 1 4 1 5 1 6 1 0
2  122 -1 121 -1 184 -1 183 -1 0
2  183 1 184 1 121 1 122 1 0
2  183 1 184 1 120 1 121 1 122 1 0
2  47 1 48 1 0
2  140 1 141 1 142 1 143 1 23 1 24 1 25 1 26 1 1 1 2 1 3 1 4 1 5 1 6 1 7 1 8 1 9 1 10 1 11 1 12 1 13 1 0
2  145 1 146 1 140 1 141 1 142 1 143 1 23 1 24 1 25 1 26 1 1 1 2 1 3 1 4 1 5 1 6 1 7 1 8 1 9 1 10 1 11 1 12 1 13 1 0
2  13 -1 12 -1 11 -1 10 -1 9 -1 8 -1 7 -1 6 -1 5 -1 4 -1 3 -1 2 -1 1 -1 26 -1 25 -1 24 -1 23 -1 143 -1 142 -1 141 -1 140 -1 0
2  23 1 24 1 25 1 26 1 1 1 2 1 3 1 4 1 5 1 6 1 7 1 8 1 9 1 10 1 11 1 12 1 13 1 0
2  53 1 54 1 55 1 56 1 21 1 22 1 0
2  13 -1 12 -1 11 -1 10 -1 9 -1 8 -1 7 -1 6 -1 5 -1 4 -1 3 -1 2 -1 1 -1 26 -1 25 -1 24 -1 23 -1 0
2  150 1 151 1 53 1 54 1 55 1 56 1 21 1 22 1 23 1 24 1 25 1 26 1 1 1 2 1 3 1 4 1 5 1 6 1 7 1 8 1 9 1 10 1 11 1 12 1 13 1 0
2  87 1 88 1 19 1 20 1 0
2  53 1 54 1 55 1 56 1 0
2  13 -1 12 -1 11 -1 10 -1 9 -1 8 -1 7 -1 6 -1 5 -1 4 -1 3 -1 2 -1 1 -1 26 -1 25 -1 24 -1 23 -1 22 -1 21 -1 0
2  112 1 113 1 5 1 6 1 7 1 8 1 9 1 10 1 11 1 12 1 13 1 0
2  170 1 171 1 0
2  170 1 171 1 116 1 0
2  121 1 122 1 3 1 4 1 5 1 6 1 7 1 8 1 9 1 10 1 11 1 12 1 13 1 0
2  183 1 184 1 0
2  183 1 184 1 120 1 0
2  70 1 33 1 34 1 1 1 2 1 3 1 4 1 5 1 6 1 7 1 8 1 9 1 10 1 11 1 12 1 13 1 0
2  75 1 76 1 77 1 78 1 25 1 26 1 0
2  70 1 33 1 34 1 0
2  73 1 74 1 75 1 76 1 77 1 78 1 25 1 26 1 0
2  25 1 26 1 0
2  53 1 54 1 55 1 56 1 21 1 22 1 23 1 24 1 0
2  75 1 76 1 77 1 78 1 0
2  28 1 29 1 127 1 15 1 16 1 17 1 18 1 19 1 20 1 21 1 22 1 23 1 24 1 25 1 26 1 0
2  25 1 26 1 1 1 2 1 3 1 4 1 5 1 6 1 7 1 8 1 9 1 10 1 11 1 12 1 13 1 0
2  13 -1 12 -1 11 -1 10 -1 9 -1 8 -1 7 -1 6 -1 5 -1 4 -1 3 -1 2 -1 1 -1 26 -1 25 -1 0
2  75 1 76 1 77 1 78 1 25 1 26 1 1 1 2 1 3 1 4 1 5 1 6 1 7 1 8 1 9 1 10 1 11 1 12 1 13 1 0
Curve2ds 152
8 -8.5395324057504958 27.948273776589406
1 8.5395324057504958 -135.79999999999995 1 -3.2000000000000002e-16 
8 -8.5395324057504958 27.948273776589406
1 9.2000794640874606 2.9256449626229823 -0.70160425299535867 -0.71256681944841138 
8 -7.00531620428265 -2.0053162042826198
1 7.0053162042826198 -135.79999999999995 1 1.2999999999999999e-16 
8 -7.00531620428265 -2.0053162042826198
1 15.191451718553674 7.0053162042825932 2.2e-16 -1 
8 -4.703560794390035 20.896439205609948
1 4.7035607943898681 9.7219515455849432 -1 0 
8 -4.703560794390035 20.896439205609948
1 135.80000000000007 4.703560794390035 -1.2300000000000001e-15 1 
8 -2.0067281170099704e-14 135.80000000000001
1 2.0000000000000568 1.9627281170099693e-14 -2.2e-16 -1 
8 -2.0067281170099704e-14 135.80000000000001
1 2.0067281170099704e-14 25.599999999999959 1 0 
1 0 0 0 -1 
1 0 0 0 1 
1 0 0 0 1 
1 0 0 1 0 
1 0 0 1 0 
1 0 0 1 0 
8 -38.826728110599049 -34.526728110599038
1 2.1170506912443159 36.826728110599021 0 -1 
8 -38.826728110599049 -34.526728110599038
1 -36.826728110599049 -13.000000000000018 -1 0 
1 -6.7391741071428726 1.5087053571428761 1 0 
8 -96.783319619863306 -56.783319619863271
1 34.265973566271924 -83.016680380136705 1.2e-16 1 
8 -96.783319619863306 -56.783319619863271
1 36.927001390829616 -83.016680380136705 0 -1 
1 6.2831853071795862 0 0 1 
8 -10.950000000000017 19.349999999999994
1 -19.650000000000006 -6.8000000000000007 -1 0 
8 -10.950000000000017 19.349999999999994
1 0.30000000000001137 -19.650000000000006 0 1 
2 -13.089665275837149 -4.233360760273456 0 1 1 -0 10.000000000000002
1 12.566370614359171 -27.299999999999965 -1 0 
8 3.1311764896040537 10.302749364857878
1 -17.946656958811673 -13.518504701029826 -0.70710678118654757 0.70710678118654757 
8 3.1311764896040537 10.302749364857878
1 -3.131176489604067 -14.699999999999999 1 0 
8 -3.116680380136728 0.88331961986327201
1 -25.231800899568071 -3.1166803801366996 0 1 
8 -3.116680380136728 0.88331961986327201
1 3.116680380136728 -14.699999999999996 1 0 
8 -9.7104010280293735 -2.5388281527755492
1 -18.365510484607682 4.6329296546869614 0.70710678118654757 0.70710678118654757 
8 -9.7104010280293735 -2.5388281527755492
1 9.7104010280293735 -14.699999999999998 1 -0 
8 -0.82778100134379429 19.7722189986562
1 -11.31744627718092 1.7666392397265724 -1 0 
8 -0.82778100134379429 19.7722189986562
1 11.317446277180949 -4.6550114749571136 -1 -2.2999999999999999e-16 
8 0.88331961986326657 9.883319619863272
1 -31.08966527583712 0.88331961986330043 0 1 
8 0.88331961986326657 9.883319619863272
1 12.299999999999999 0.88331961986326657 -4.4e-16 -1 
8 -0.82778100134379429 19.7722189986562
1 -11.31744627718092 10.766639239726572 -1 0 
8 -0.82778100134379429 19.7722189986562
1 11.317446277180949 -4.6550114749571136 -1 -2.2999999999999999e-16 
8 -9.883319619863272 -0.88331961986326923
1 -10.789665275837137 0.88331961986330043 0 -1 
8 -9.883319619863272 -0.88331961986326923
1 0.42426406871193945 0.88331961986327201 -1.6000000000000001e-16 1 
8 -0.82778100134379429 19.7722189986562
1 -11.31744627718092 -14.233360760273399 -1 0 
8 -0.82778100134379429 19.7722189986562
1 11.317446277180949 -4.6550114749571136 -1 -2.2999999999999999e-16 
8 2.616680380136728 11.616680380136732
1 -10.789665275837137 -11.6166803801367 0 -1 
8 2.616680380136728 11.616680380136732
1 0.42426406871194139 -11.616680380136728 -1.6000000000000001e-16 1 
8 -0.82778100134379429 19.7722189986562
1 -11.31744627718092 -23.233360760273399 -1 0 
8 -0.82778100134379429 19.7722189986562
1 11.317446277180949 -4.6550114749571136 -1 -2.2999999999999999e-16 
8 -11.616680380136733 -2.616680380136728
1 -31.08966527583712 -11.6166803801367 0 1 
8 -11.616680380136733 -2.616680380136728
1 12.299999999999994 -11.616680380136733 -4.4e-16 -1 
8 57.480326537006221 60.654366452438403
1 -13.039781248845941 -139.89041817583143 0.82299036322735697 -0.56805533360307714 
8 57.480326537006221 60.654366452438403
1 59.329858707482316 -34.786177148501821 -0.84447496416242895 0.53559502882575805 
8 9.3914855054991655 11.627553482998955
1 -8.4000000000000412 -37.800000000000068 0.89442719099991586 -0.44721359549995821 
8 9.3914855054991655 11.627553482998955
1 -9.3914855054991531 -138.79999999999995 1 -2.9999999999999999e-16 
1 69.399999999999977 -43.000000000000085 1 0 
8 54.584339629191611 62.693104400456313
1 -40.389140271493176 -137.62805429864252 0.73994007339594392 -0.67267279399631241 
8 54.584339629191611 62.693104400456313
1 62.693104400456313 -2.2999999999999932 -1 0 
8 -1.150000000000031 1.1499999999999702
1 2.702921590421604 -1.1499999999999777 -2.3636363636363664e-17 -1 
8 -1.150000000000031 1.1499999999999702
1 38.181818181818187 1.1499999999999702 -2.0271911928161596e-16 -1 
1 2.3561944901923457 -41.999999999999964 0 1 
1 2.3561944901923448 -41.999999999999964 0 1 
3 3.6769552621700834 6.0000000000000284 1 1.6000000000000001e-16 -1.6000000000000001e-16 1 14.142135623730953 10.000000000000002
7 0 0  7 8 2  5.9224097166091587 -28.53000000000004  6.0861488243188546 -26.998018721619975  6.2498879320285852 -25.355623073533025  6.4136270397381381 -23.669897853997099  6.5773661474481102 -22.015186447624728  6.7411052551575992 -20.465728441342435  6.9048443628673342 -19.086742522204105  7.0685834705770301 -17.928932188134493 
 4.3516133898142613 8 5.4977871437821344 8
1 0.78539816339744362 -41.999999999999964 0 1 
1 7.0685834705770301 -41.999999999999964 0 1 
2 -13.089665275837149 -4.233360760273456 0 1 1 -0 10.000000000000002
1 12.566370614359171 -31.299999999999965 -1 0 
8 3.1311764896040533 10.302749364857878
1 -17.946656958811673 -13.518504701029826 -0.70710678118654757 0.70710678118654757 
8 3.1311764896040533 10.302749364857878
1 -3.1311764896040666 -10.699999999999996 1 0 
8 -3.116680380136728 0.88331961986327201
1 -25.231800899568071 -3.1166803801366996 0 1 
8 -3.116680380136728 0.88331961986327201
1 3.116680380136728 -10.699999999999996 1 0 
8 -9.7104010280293718 -2.5388281527755474
1 -18.365510484607682 4.6329296546869614 0.70710678118654757 0.70710678118654757 
8 -9.7104010280293718 -2.5388281527755474
1 9.7104010280293718 -10.699999999999994 1 -0 
8 -11.150483202455614 -9.2953393339529509
1 6.0873424774344542 -6.437734478532148 -0.81649658092772592 -0.57735026918962606 
8 -11.150483202455614 -9.2953393339529509
1 14.761185659989415 -18.704401145198808 0.81649658092772592 0.57735026918962595 
8 5.0224942625214402 17.322494262521442
1 1.4030916547937977 -9.6775057374785582 2.2e-16 1 
8 5.0224942625214402 17.322494262521442
1 5.6568542494923815 -9.6775057374785547 3.1000000000000001e-16 -1 
8 -5.5 -3.5
1 5.5 -76 1 0 
8 -5.5 -3.5
1 33.399999999999977 5.5 0 -1 
8 0 78
1 2 0 0 -1 
8 0 78
1 6.6000000000000227 0 0 -1 
8 16.699999999999989 23.300000000000011
1 -16.699999999999989 -76 1 0 
8 16.699999999999989 23.300000000000011
1 16.699999999999989 9 1 0 
8 -61.455167362081426 16.544832637918546
1 -16.544832637918574 13.766639239726544 -1 0 
8 -61.455167362081426 16.544832637918546
1 8.7000000000000348 -16.544832637918574 -2.2999999999999999e-16 1 
8 -3.5 3.2000000000000526
1 5.5 -76 1 0 
8 -3.5 3.2000000000000526
1 40 5.5 0 -1 
8 -13.116680380136728 26.883319619863272
1 42.910334724162851 -13.116680380136728 0 1 
8 -13.116680380136728 26.883319619863272
1 13.116680380136728 2.299999999999951 1 0 
1 0 0 0 -1 
1 0 0 0 1 
1 0 0 0 1 
1 0 11 1 0 
1 0 0 0 1 
1 0 28 1 0 
1 0 0 1 0 
1 0 0 1 0 
1 2 0 0 -1 
1 0 0 0 1 
1 0 -11 1 0 
1 0 0 1 0 
2 9.0000000000000284 -22.999999999999968 2.2204460492503126e-16 -1 1 2.2204460492503126e-16 3.3000000000000069
1 6.2831853071795862 -2 -1 0 
8 5.5000000000000071 17.499999999999964
1 12.30000000000004 -5.5000000000000053 2.2204460492503126e-16 -1 
8 5.5000000000000071 17.499999999999964
1 -5.5000000000000089 -2 1 0 
2 9.0000000000000284 -11.000000000000014 1 7.3274719625260332e-15 -7.3274719625260332e-15 1 3.2999999999999998
1 6.2831853071795862 -2 -1 0 
8 -13.000000000000028 0.77509690068058035
1 13 -10.299999999999955 -1 -2.5152770599391498e-16 
8 -13.000000000000028 0.77509690068058035
1 13 -2 1 -0 
2 26.000000000000028 -5.999999999999968 2.2204460492503126e-16 -1 1 2.2204460492503126e-16 4.300000000000006
1 6.2831853071795862 -2 -1 0 
8 30.639522117905472 30.650000000000006
1 -0.34999999999999432 -6.3000000000000007 1 0 
8 30.639522117905472 30.650000000000006
1 0.34999999999999432 41 1 0 
1 4.7822131453680594 0 0 1 
1 30.989522117905466 43 0 1 
8 30.639522117905472 30.650000000000006
1 -0.34999999999999432 -6.3000000000000007 1 0 
8 30.639522117905472 30.650000000000006
1 0.34999999999999432 45 1 0 
1 31 0 0 1 
1 0 8.3000000000000007 1 0 
8 -6.2042741407231325 -2.2042741407231325
1 -19.999999999999972 4.2042741407231325 -1.03e-15 1 
8 -6.2042741407231325 -2.2042741407231325
1 -4.2042741407231521 8.0106324085651863 1 0 
8 4.0053162042825647 10.005316204282565
1 43.999999999999972 4.0053162042825647 -3.5000000000000002e-16 -1 
8 4.0053162042825647 10.005316204282565
1 -6.4085482814462846 4.0053162042826216 -0 1 
8 -20.395725859276787 5.2042741407232143
1 -5.2042741407230704 12.010632408565186 -1 0 
8 -20.395725859276787 5.2042741407232143
1 139.80000000000001 5.2042741407232143 1.03e-15 -1 
8 -7.00531620428265 -2.0053162042826189
1 7.0053162042826189 -139.79999999999995 1 1.2999999999999999e-16 
8 -7.00531620428265 -2.0053162042826189
1 15.191451718553674 7.0053162042825932 2.2e-16 -1 
8 -8.5395324057504958 27.948273776589406
1 8.5395324057504958 -139.79999999999995 1 -3.2000000000000002e-16 
8 -8.5395324057504958 27.948273776589406
1 9.2000794640874606 2.9256449626229823 -0.70160425299535867 -0.71256681944841138 
8 16.5 20.5
1 18.5 -72 1 0 
8 16.5 20.5
1 20 18.5 0 -1 
8 -42 -36
1 35 -36 0 1 
8 -42 -36
1 4 36 0 1 
8 -6.1000000000000014 19.5
1 19.5 -76 1 0 
8 -6.1000000000000014 19.5
1 179.80000000000001 19.5 0 -1 
8 -87.900000000000006 -47.900000000000034
1 91.900000000000006 -4 1 0 
8 -87.900000000000006 -47.900000000000034
1 91.899999999999991 4 -1 0 
8 139.79999999999998 179.80000000000004
1 2.0000000000000568 1.9627281170099693e-14 -2.2e-16 -1 
8 139.79999999999998 179.80000000000004
1 2.0067281170099704e-14 25.599999999999959 1 0 
1 4.7123889803846897 0 0 -1 
8 -17.499999999999964 -5.5000000000000071
1 12.30000000000004 -5.5000000000000053 -2.2204460492503126e-16 1 
8 -17.499999999999964 -5.5000000000000071
1 -5.5000000000000089 -2 -1 0 
1 6.2831853071795862 0 0 1 
1 6.0694402489678243 0 0 -1 
8 -0.77509690068058035 13.000000000000028
1 13 -10.299999999999955 1 2.5152770599391498e-16 
8 -0.77509690068058035 13.000000000000028
1 13 -2 -1 -0 
1 6.2831853071795862 0 0 1 
2 26.000000000000028 -5.999999999999968 2.2204460492503126e-16 -1 -1 -2.2204460492503126e-16 4.300000000000006
1 0 -2 1 0 
1 0 2 1 0 
2 9.0000000000000284 -11.000000000000014 1 7.3274719625260332e-15 7.3274719625260332e-15 -1 3.2999999999999998
1 0 -2 1 0 
1 -8.8817841970012523e-16 2 1 0 
2 9.0000000000000284 -22.999999999999968 2.2204460492503126e-16 -1 -1 -2.2204460492503126e-16 3.3000000000000069
1 0 -2 1 0 
1 0 2 1 0 
Curves 136
1 25.600000000000001 227 0 -0.70160425299535878 -0.71256681944841127 0 
1 0.20000000000004464 -4.4630000000000001e-14 201.00000000000006 1 0 0 
1 136 19.608627745533745 220.9150125540578 4.7000000000000004e-16 -0.70160425299535867 -0.71256681944841138 
1 0.20000000000003904 25.599999999999959 227.00000000000006 1 0 0 
1 136 25.599999999999959 224.99468379571741 -3.5000000000000002e-16 2.2e-16 -1 
1 136.00000000000006 4.703560794390035 230 -1.2300000000000001e-15 1 0 
1 136 0 226 0 0 1 
1 25.600000000000001 232 0 0 -1 0 
1 0.20000000000002008 25.599999999999959 230 1 0 0 
1 0.20000000000000001 0 230 -0 1 0 
1 0.20000000000000001 0 230 1 0 -0 
1 184 0 154 0 0 1 
1 180 0 232 1 0 0 
1 0.20000000000000001 0 230 0 0 1 
1 0.20000000000004464 -4.4630000000000001e-14 201.00000000000006 -2.2e-16 2.2e-16 -1 
1 -69.400000000000006 -1 0 1 0 0 
1 69.400000000000006 -1 -22 0 0 1 
1 0.20000000000004353 -4.352e-14 196.00000000000006 1 0 0 
1 -2 -19.5 -39 0 0 1 
1 145.17327188940095 -1.7500000000000001e-14 184.30000000000001 -1 0 0 
1 0 232 0 0 -1 0 
1 -24 -2 0 1 0 0 
1 177.56082589285717 26.300000000000001 154.00000000000006 -1 0 4.8000000000000001e-16 
1 140 188 0 0 -1 0 
1 180 232 0 -0.67267279399631252 -0.73994007339594381 0 
1 83.216680380136751 26.299999999999962 224.01666666666677 -1 0 0 
1 180 26.300000000000001 154 0 0 1 
1 182 26.299999999999976 163.00000000000003 1 0 0 
1 184 26.300000000000001 173.34999999999999 0 0 -1 
2 162 26.299999999999965 174 0 -1 2.2e-16 1 0 0 -0 2.2e-16 1 10.000000000000002
1 152.71485605924363 26.299999999999965 169.14300831702548 0.70710678118654757 1.6000000000000001e-16 -0.70710678118654757 
1 163.11668038013676 26.299999999999969 161.85786437626908 1 0 0 
1 170.86629041496042 26.299999999999965 168.72415479122947 0.70710678118654757 -1.6000000000000001e-16 0.70710678118654757 
1 168.00000000000003 26.299999999999965 175.77221899865623 0 2.2999999999999999e-16 -1 
1 167.11668038013676 26.299999999999969 156.00000000000003 1 0 -0 
1 177.00000000000003 26.299999999999965 175.77221899865623 0 2.2999999999999999e-16 -1 
1 167.11668038013676 26.299999999999965 176.30000000000001 -1 0 0 
1 152.00000000000006 26.299999999999965 175.77221899865623 0 2.2999999999999999e-16 -1 
1 154.61668038013676 26.299999999999965 176.30000000000001 -1 0 0 
1 143.00000000000006 26.299999999999965 175.77221899865623 0 2.2999999999999999e-16 -1 
1 154.61668038013676 26.299999999999969 156.00000000000003 1 0 -0 
1 140.09041817583147 -4.4861771485018664 188.0994599934146 0.56805533360307703 0.53559502882575794 0.62486086696338461 
1 4 198 0 0.65079137345596849 0.75925660236529657 0 
1 0.2000000000000422 3.9999999999999569 198.00000000000006 1 0 0 
1 0.20000000000003776 27.999999999999957 226.00000000000006 1 0 0 
1 139 -8.4000000000000412 191.80000000000007 0 0.89442719099991586 0.44721359549995821 
1 69.600000000000023 2 197.00000000000009 -1 0 0 
1 0 196 0 0.89442719099991597 0.44721359549995798 0 
1 69.400000000000006 -1 0 0 1 0 
1 69.400000000000006 1 -22 0 0 1 
1 69.400000000000006 1 0 -1 0 0 
1 -69.400000000000006 1 -22 0 0 1 
1 140.00000000000003 30.299999999999965 154.00000000000003 0 -1 2.2e-16 
1 184 0 154 0 1 0 
1 184 39 154 -1 0 0 
1 -5.2999999999999972 1 0 0 -1 0 
1 -5.2999999999999972 -1 0 1 0 0 
1 -2 19.5 0 0 -1 0 
1 140 154 0 1 0 0 
1 140.00000000000003 30.299999999999958 188.00000000000003 0 -1 2.2e-16 
1 137.82805429864257 27.999999999999964 185.61085972850685 0.67267279399631252 -1.6000000000000001e-16 0.73994007339594381 
1 178.18181818181819 29.14999999999997 230 -2.0271911928161596e-16 -1 0 
1 154.92893218813455 40.999999999999964 166.92893218813455 0 -1 2.2e-16 
3 162 23.99999999999994 174 0 0.70710678118654746 -0.70710678118654757 0 -0.70710678118654757 -0.70710678118654746 -1 0 -0 14.142135623730953 10.000000000000002
1 169.0710678118655 40.999999999999964 166.92893218813455 0 -1 2.2e-16 
2 162 30.299999999999965 174 0 -1 2.2e-16 1 0 0 -0 2.2e-16 1 10.000000000000002
1 152.71485605924363 30.299999999999969 169.14300831702548 0.70710678118654757 1.6000000000000001e-16 -0.70710678118654757 
1 160.00000000000003 40.999999999999964 161.85786437626908 0 -1 2.2e-16 
1 163.11668038013676 30.299999999999969 161.85786437626908 1 0 0 
1 164.00000000000003 40.999999999999964 161.85786437626908 0 -1 2.2e-16 
1 170.86629041496042 30.299999999999969 168.72415479122947 0.70710678118654757 -1.6000000000000001e-16 0.70710678118654757 
1 174.43773447853218 22.295598854801153 172.2955988548012 0.57735026918962584 0.57735026918962584 0.57735026918962573 
1 168.00000000000003 31.32249426252141 165.85786437626908 0 -1 2.2e-16 
1 26.600000000000001 176.59999999999999 0 -0.70710678118654768 -0.70710678118654735 0 
1 14 156 0 1 0 0 
1 14 164 0 0 -1 0 
1 168.00000000000003 13.99999999999997 156.00000000000003 1 0 0 
1 168.00000000000003 13.999999999999968 164.00000000000003 1 0 0 
1 152.00000000000003 26.599999999999969 176.60000000000002 1.6000000000000001e-16 -0.70710678118654757 -0.70710678118654746 
1 14 164 0 0 -1 0 
1 14 156 0 1 0 0 
1 26.600000000000001 176.59999999999999 0 -0.70710678118654768 -0.70710678118654735 0 
1 143.00000000000003 13.999999999999968 164.00000000000003 1 0 0 
1 143.00000000000003 13.99999999999997 156.00000000000003 1 0 0 
1 -69.400000000000006 1 0 0 -1 0 
1 -5.2999999999999972 -1 -39 0 0 1 
1 173.39999999999998 33.5 230 0 -1 0 
1 -5.2999999999999972 1 -39 0 0 1 
1 180 37 154 0 0 1 
1 156.69999999999999 37 230 1 0 0 
1 180 30.299999999999965 170.54483263791857 0 2.2999999999999999e-16 -1 
1 180 33.5 230 0 -1 0 
1 153.11668038013673 30.299999999999951 230 1 0 0 
1 140 28 230 -0 1 0 
1 140 39 230 1 0 -0 
1 0.20000000000000001 28 230 1 0 -0 
1 140 28 230 0 0 1 
1 140 28 232 -0 1 0 
1 140 39 230 0 0 1 
1 180 26 184.30000000000001 0 -1 0 
2 180 22.999999999999968 163.00000000000003 1 0 -0 0 1 2.2204460492503126e-16 0 -2.2204460492503126e-16 1 3.3000000000000069
1 180 5.5000000000000053 166.30000000000004 0 1 2.2204460492503126e-16 
2 180 11.000000000000014 163.00000000000003 1 0 -0 0 -7.3274719625260332e-15 1 -0 -1 -7.3274719625260332e-15 3.2999999999999998
1 180 10.299999999999955 167 -0 2.5152770599391498e-16 -1 
2 180 5.999999999999968 180.00000000000003 1 0 -0 0 1 2.2204460492503126e-16 0 -2.2204460492503126e-16 1 4.300000000000006
1 180 6.3000000000000007 153.65000000000001 0 0 1 
1 182 6.3000000000000007 184.28952211790548 1 -0 -0 
1 184 6.3000000000000007 153.65000000000001 0 0 1 
1 139 6.3000000000000007 184.30000000000001 1 0 -0 
1 184 16.25 184.30000000000001 0 -1 0 
1 140.00000000000003 6.2042741407231325 226 -1.03e-15 1 0 
1 140.00000000000003 4 221.99468379571744 3.5000000000000002e-16 0 1 
1 140 5.2042741407232143 230 1.03e-15 -1 0 
1 140 25.599999999999959 224.99468379571741 -3.5000000000000002e-16 2.2e-16 -1 
1 140 19.608627745533745 220.9150125540578 4.7000000000000004e-16 -0.70160425299535867 -0.71256681944841138 
1 24 2 0 -1 0 0 
1 180 20.5 226 0 -1 0 
1 180 4 190 0 0 -1 
1 180 19.5 230 0 -1 0 
1 92.099999999999994 4 230 -1 0 0 
1 0.20000000000002008 25.599999999999959 230 1 0 0 
1 182 22.999999999999968 166.30000000000004 -1 0 0 
1 184 5.5000000000000053 166.30000000000004 0 -1 -2.2204460492503126e-16 
1 182 11.000000000000012 166.30000000000004 1 0 0 
1 182 10.299999999999956 166.22490309931942 -1 0 0 
1 184 10.299999999999955 167 0 -2.5152770599391498e-16 1 
1 182 10.299999999999974 180.00000000000003 1 0 0 
2 184 5.999999999999968 180.00000000000003 -1 0 0 0 1 2.2204460492503126e-16 0 2.2204460492503126e-16 -1 4.300000000000006
2 184 11.000000000000014 163.00000000000003 -1 0 0 0 -7.3274719625260332e-15 1 0 1 7.3274719625260332e-15 3.2999999999999998
2 184 22.999999999999968 163.00000000000003 -1 0 0 0 1 2.2204460492503126e-16 0 2.2204460492503126e-16 -1 3.3000000000000069
1 184 39 154 0 0 1 
1 184 0 232 0 1 0 
1 0.20000000000000001 0 232 -0 1 0 
1 0.20000000000000001 28 226 0 0 1 
1 0.20000000000003909 27.999999999999957 232.00000000000006 1 0 0 
1 140 39 232 1 0 -0 
Polygon3D 0
PolygonOnTriangulations 0
Surfaces 73
1 0.20000000000003904 25.599999999999959 227.00000000000006 0 0.71256681944841138 -0.70160425299535867 1.5000000000000002e-16 -0.70160425299535867 -0.71256681944841138 -1 -1.0524063794930382e-16 -1.0688502291726172e-16 
1 136.00000000000003 10.408548281446285 217.98936759143481 1 1.03e-15 -3.5000000000000002e-16 -1.03e-15 1 0 3.5000000000000002e-16 3.6050000000000002e-31 1 
1 136.00000000000006 9.4071215887799031 220.27804845441506 -1 -1.2300000000000001e-15 6.5000000000000001e-16 1.2300000000000001e-15 -1 0 6.5000000000000001e-16 7.9950000000000005e-31 1 
1 0.20000000000004015 25.599999999999959 232.00000000000006 -0 1 2.2e-16 -2.2e-16 2.2e-16 -1 -1 -4.8400000000000002e-32 2.2e-16 
1 0.20000000000000001 0 230 0 0 1 1 0 -0 -0 1 0 
1 0.20000000000000001 0 230 1 0 -0 0 0 1 0 -1 0 
1 0.20000000000000001 0 230 -0 1 0 0 0 1 1 0 -0 
1 89.209039824089942 -1.1934637185438561e-14 202.63536525775723 -0 -1 -0 0 0 -1 1 -0 0 
1 108.34654377880193 -1.791e-14 186.41705069124433 -0 -1 -3.1000000000000001e-16 0 3.1000000000000001e-16 -1 1 -0 0 
1 0 -4.5999999999999998e-16 -15.300000000000008 0 0 1 1 0 -0 -0 1 0 
1 164.61514768222443 26.299999999999972 183.76700532165958 4.5999999999999998e-16 -1 -3.8000000000000001e-16 -1 -4.5999999999999998e-16 0 -1.748e-31 3.8000000000000001e-16 -1 
1 170.82165178571429 24.791294642857125 154.00000000000006 -4.8000000000000001e-16 -0 -1 -1 0 4.8000000000000001e-16 0 1 -0 
1 0.2000000000000422 3.9999999999999569 198.00000000000006 0 -0.7592566023652968 0.65079137345596838 -1.2e-16 0.65079137345596838 0.7592566023652968 -1 -7.8094964814716205e-17 -9.1110792283835616e-17 
1 166.23336076027346 30.299999999999962 187.08966527583715 0 1 2.2999999999999999e-16 0 -2.2999999999999999e-16 1 1 0 -0 
2 182 22.999999999999968 163.00000000000003 1 -0 -0 0 1 2.2204460492503126e-16 0 2.2204460492503126e-16 -1 3.3000000000000069
1 184 19.5 193 1 0 0 -0 0 1 0 -1 0 
1 2.3000000000000114 13.300000000000001 -15.300000000000011 0 -1 0 -1 0 0 -0 -0 -1 
2 162 -1 174 0 -1 2.2e-16 1 0 0 0 -2.2e-16 -1 10.000000000000002
1 154.92893218813455 40.999999999999964 166.92893218813455 0.70710678118654757 1.6000000000000001e-16 0.70710678118654757 0.70710678118654757 1.6000000000000001e-16 -0.70710678118654757 -2.2627416997969518e-16 1 0 
1 160.00000000000003 40.999999999999964 161.85786437626908 -0 2.2e-16 1 1 0 0 0 1 -2.2e-16 
1 164.00000000000003 40.999999999999964 161.85786437626908 -0.70710678118654757 1.6000000000000001e-16 0.70710678118654757 0.70710678118654757 -1.6000000000000001e-16 0.70710678118654757 2.2627416997969518e-16 1 0 
1 168.00000000000003 21.644988525042852 164.45477272147528 1 0 0 -0 0 1 0 -1 0 
1 168.00000000000003 13.99999999999997 156.00000000000003 0 -2.2e-16 1 -4.4e-16 1 2.2e-16 -1 -4.4e-16 -9.6800000000000004e-32 
1 168.00000000000003 26.599999999999969 176.60000000000002 0 0.70710678118654746 -0.70710678118654757 1.6000000000000004e-16 -0.70710678118654757 -0.70710678118654746 -1 -1.1313708498984764e-16 -1.1313708498984761e-16 
1 143.00000000000006 21.644988525042852 164.45477272147528 1 0 0 -0 0 1 0 -1 0 
1 143.00000000000003 26.599999999999969 176.60000000000002 0 0.70710678118654746 -0.70710678118654757 1.6000000000000004e-16 -0.70710678118654757 -0.70710678118654746 -1 -1.1313708498984764e-16 -1.1313708498984761e-16 
1 143.00000000000003 13.99999999999997 156.00000000000003 0 -2.2e-16 1 -4.4e-16 1 2.2e-16 -1 -4.4e-16 -9.6800000000000004e-32 
1 90.515327233283813 16.035717682780191 212.0416706299103 0 0.75925660236529657 -0.6507913734559686 0 0.6507913734559686 0.75925660236529657 1 -0 0 
1 180.00000000000003 30.299999999999947 232.00000000000006 0.73994007339594381 -1.5e-16 -0.67267279399631252 -0.67267279399631252 1.6000000000000001e-16 -0.73994007339594381 2.1861865804880154e-16 1 1.7489492643904133e-17 
1 90.942140982597621 2.7532337934905744 197.37661689674542 -0 0.44721359549995715 -0.8944271909999163 0 -0.8944271909999163 -0.44721359549995715 -1 -0 0 
1 69.400000000000006 -1 -22 -1 0 0 0 1 0 0 0 -1 
1 0.20000000000004353 -4.352e-14 196.00000000000006 0 -0.44721359549995821 0.89442719099991586 -2.9999999999999999e-16 0.89442719099991586 0.44721359549995821 -1 -2.683281572999747e-16 -1.3416407864998743e-16 
1 69.400000000000006 1 -22 0 -1 0 -1 0 0 -0 -0 -1 
1 140.00000000000003 30.299999999999958 188.00000000000003 1 0 0 0 2.2e-16 -1 -0 1 2.2e-16 
1 0.20000000000003776 27.999999999999957 226.00000000000006 0 -1 -2.2e-16 2.2e-16 -2.2e-16 1 -1 -4.8400000000000002e-32 2.2e-16 
1 140 28 230 0 0 1 1 0 -0 -0 1 0 
2 162 -1 174 -0 -1 2.2e-16 1 0 0 0 -2.2e-16 -1 10.000000000000002
1 152.00000000000003 21.454340475719427 164.34870670429723 1 -1.5100000000000001e-15 0 1.5100000000000001e-15 1 0 -0 0 1 
1 6.0999999999999995e-16 0 -22 0 0 1 1 0 -0 -0 1 0 
1 -5.2999999999999972 1 -39 1 0 -0 0 -1 0 0 -0 -1 
1 -5.2999999999999972 -1 -39 0 1 0 1 0 0 0 0 -1 
1 -2 19.5 -39 1 0 -0 0 -1 0 0 -0 -1 
1 140 28 230 1 0 -0 0 0 1 0 -1 0 
1 140 39 230 -0 1 0 0 0 1 1 0 -0 
1 0.20000000000000001 28 230 -0 1 0 0 0 1 1 0 -0 
1 168.00000000000003 13.999999999999968 164.00000000000003 -0 1 2.2e-16 -2.2e-16 2.2e-16 -1 -1 -4.8400000000000002e-32 2.2e-16 
1 143.00000000000003 13.999999999999968 164.00000000000003 -0 1 2.2e-16 -2.2e-16 2.2e-16 -1 -1 -4.8400000000000002e-32 2.2e-16 
1 140 28 230 -0 1 0 0 0 1 1 0 -0 
1 140 28 232 0 0 1 1 0 -0 -0 1 0 
1 180.00000000000006 17.274923719951509 191.4266840553075 -1 -0 -0 0 0 -1 0 -1 0 
1 180 0 154 1 0 -0 0 0 1 0 -1 0 
1 182 11.000000000000014 166.30000000000004 0 2.2204460492503126e-16 -1 0 1 2.2204460492503126e-16 1 -0 0 
2 182 11.000000000000014 163.00000000000003 1 -0 -0 0 -7.3274719625260332e-15 1 0 1 7.3274719625260332e-15 3.2999999999999998
1 182 10.299999999999953 180 -0 -1 -2.5152770599391498e-16 0 2.5152770599391498e-16 -1 1 -0 0 
2 182 5.999999999999968 180.00000000000003 1 -0 -0 0 1 2.2204460492503126e-16 0 2.2204460492503126e-16 -1 4.300000000000006
1 139 6.3000000000000007 153.30000000000001 -0 1 0 0 0 1 1 0 -0 
1 184 0 154 1 0 -0 0 0 1 0 -1 0 
1 139 -2 184.30000000000001 0 0 1 1 0 -0 -0 1 0 
1 181.99999999999997 3.1499999999999906 184.30000000000001 -0 -0 -1 -1 0 0 0 1 -0 
1 0 0 -3 0 0 1 1 0 -0 -0 1 0 
1 24 2 -3 0 -1 0 -1 0 0 -0 -0 -1 
1 182.00000000000003 16.999999999999989 166.30000000000007 -0 -0 -1 -1 0 0 0 1 -0 
1 182 11.000000000000014 166.30000000000004 0 -2.2204460492503126e-16 1 -0 1 2.2204460492503126e-16 -1 -0 0 
1 181.99999999999997 10.299999999999956 173.11245154965974 -0 -1 -0 0 0 -1 1 -0 0 
1 182 10.299999999999953 180 -0 1 2.5152770599391498e-16 0 2.5152770599391498e-16 -1 -1 0 -0 
1 184 21.72381346889501 195.42808931589767 1 0 0 -0 0 1 0 -1 0 
2 182 5.999999999999968 180.00000000000003 -1 0 0 0 1 2.2204460492503126e-16 0 2.2204460492503126e-16 -1 4.300000000000006
2 182 11.000000000000014 163.00000000000003 -1 0 0 0 -7.3274719625260332e-15 1 0 1 7.3274719625260332e-15 3.2999999999999998
2 182 22.999999999999968 163.00000000000003 -1 0 0 0 1 2.2204460492503126e-16 0 2.2204460492503126e-16 -1 3.3000000000000069
1 0.20000000000000578 9.1139718628900948 203.14500773918064 -1 -3.0273460817978811e-16 -0 3.0273460817978811e-16 -1 0 -0 0 1 
1 88.430581674860846 27.999999999999964 228.8171880375958 0 1 -8.0317218677865543e-16 0 8.0317218677865543e-16 1 1 -0 0 
1 172.40327868852464 39 203.40327868852461 0 1 0 0 -0 1 1 0 -0 
1 95.551077199281892 16.048922800718117 232.00000000000003 0 -9.3539462713599843e-16 1 0 1 9.3539462713599843e-16 -1 0 0 
Triangulations 0

TShapes 359
Ve
0.000102041543679316
0.200000000000039 25.6 227
0 0

0101101
*
Ve
0.000102041543679316
0.200000000000045 -4.5e-14 201
0 0

0101101
*
Ed
 0.000102041543679316 1 1 0
1  1 0 0 36.4878061823399
0

0101000
+359 31 -358 31 *
Ve
0.000102041543679316
136 -4.5e-14 201
0 0

0101101
*
Ed
 0.000102041543679316 1 1 0
1  2 0 0 135.8
0

0101000
+358 0 -356 32 *
Ve
0.000101819666906
136 25.6 227
0 0

0101101
*
Ed
 0.000101819666866 1 1 0
1  3 0 -8.5395324057505 27.9482737765894
2  1 1 27 -8.5395324057505 27.9482737765894
2  2 2 35 -8.5395324057505 27.9482737765894
0

0101000
+354 0 -356 0 *
Ed
 1e-07 1 1 0
1  4 0 0 135.8
0

0101000
+359 0 -354 32 *
Wi

0101100
-357 30 -355 27 +353 0 +352 27 *
Fa
0  1e-07 1 27

0111000
+351 0 *
Ve
0.000101919667866
136 25.6 230
0 0

0101101
*
Ed
 0.000101819666866 1 1 0
1  5 0 -5.00531620428259 -2.00531620428262
2  3 4 27 -5.00531620428259 -2.00531620428262
2  4 2 35 -5.00531620428259 -2.00531620428262
0

0101000
+349 36 -354 0 *
Ve
0.000102041543679316
136 0 230
0 0

0101101
*
Ed
 0.000101869666866 1 1 0
1  6 0 -4.70356079439004 20.8964392056099
2  5 3 14 -4.70356079439004 20.8964392056099
2  6 5 0 -4.70356079439004 20.8964392056099
0

0101000
+347 0 -349 0 *
Ed
 0.000102041543679316 1 1 0
1  7 0 -24.9999999999999 4
0

0101000
+356 0 -347 36 *
Wi

0101100
+353 14 +348 14 +346 0 +345 14 *
Fa
0  0.000101819666866 3 14

0101000
+344 0 *
Ve
0.000102041543679316
0.2 25.6 230
0 0

0101101
*
Ed
 0.000102041543679316 1 1 0
1  8 0 2 5
0

0101000
+342 39 -359 31 *
Ed
 1.5e-07 1 1 0
1  9 0 -2.00672811700997e-14 135.8
2  7 4 37 -2.00672811700997e-14 135.8
2  8 5 0 -2.00672811700997e-14 135.8
0

0101000
+342 0 -349 0 *
Wi

0101100
-341 38 -352 37 +348 14 +340 0 *
Fa
0  1e-07 4 37

0101000
+339 0 *
Ve
0.000102041543679316
0.2 0 230
0 0

0101101
*
Ed
 0.000102041543679316 1 1 0
1  10 0 0 25.6
2  9 6 0 0 25.6
2  10 5 0 0 25.6
0

0101000
+337 0 -342 0 *
Ed
 0.000102041543679316 1 1 0
1  11 0 0 135.8
2  11 7 0 0 135.8
2  12 5 0 0 135.8
0

0101000
+337 0 -347 0 *
Wi

0101100
-336 0 -340 0 +346 0 +335 0 *
Fa
0  1e-07 5 0

0101000
+334 0 *
Ve
0.000102041543682
184 0 184.3
0 0

0101101
*
Ve
0.000102041543679316
184 0 232
0 0

0101101
*
Ed
 1e-07 1 1 0
1  12 0 30.3 78
0

0101000
+332 0 -331 0 *
Ve
0.000102041543679316
0.2 0 232
0 0

0101101
*
Ed
 1e-07 1 1 0
1  13 0 -179.8 4
0

0101000
+329 0 -331 0 *
Ed
 0.000102041543679316 1 1 0
1  14 0 0 2
2  13 6 0 0 2
2  14 7 0 0 2
0

0101000
-329 0 +337 0 *
Ve
0.000102041543679316
-69.4 -1 -22
0 0

0101101
*
Ed
 0.000102041543679316 1 1 0
1  15 0 0 47.0000000000001
0

0101000
+358 41 -326 46 *
Ve
0.000102041543679316
69.4 -1 -22
0 0

0101101
*
Ed
 0.000102041543679316 1 1 0
1  16 0 0 138.8
0

0101000
+326 50 -324 50 *
Ve
0.000102041543679316
139 -2.2e-14 196
0 0

0101101
*
Ed
 0.000102041543679316 1 1 0
1  17 0 0 42.0000000000001
0

0101000
+324 0 -322 52 *
Ve
0.000102041543679316
180 -4.4e-14 196
0 0

0101101
*
Ed
 0.000102041543679316 1 1 0
1  18 0 138.8 179.8
0

0101000
+322 0 -320 36 *
Ve
0.000102041543682
180 0 184.3
0 0

0101101
*
Ed
 0.000102041543679316 1 1 0
1  19 0 30.3 42.0000000000001
0

0101000
+318 58 -320 58 *
Ed
 0.000102041543679316 1 1 0
1  20 0 -38.826728110599 -34.826728110599
2  15 9 60 -38.826728110599 -34.826728110599
2  16 10 66 -38.826728110599 -34.826728110599
0

0101000
+332 67 -318 67 *
Wi

0101000
+330 0 -328 0 -327 0 +335 0 -345 14 -355 37 +325 40 +323 49 +321 51 +319 14 
-317 57 -316 59 *
Ve
0.000101819666904
140 -2.5e-14 226
0 0

0101101
*
Ve
0.000101819666924
140 -4.5e-14 201
0 0

0101101
*
Ed
 1e-07 1 1 0
1  21 0 6.00000000000006 31
0

0101000
+314 72 -313 72 *
Ve
0.000101819666866
180 0 226
0 0

0101101
*
Ed
 1.00000071e-07 1 1 0
1  22 0 4.00000000000006 44
0

0101000
+314 80 -311 81 *
Ve
1.00000072e-07
180 -4.5e-14 201
0 0

0101101
*
Ed
 1.00000071e-07 1 1 0
1  19 0 47.0000000000001 72
0

0101000
+309 82 -311 83 *
Ed
 1.00000071e-07 1 1 0
1  2 0 139.8 179.8
0

0101000
+313 32 -309 84 *
Wi

0101100
-312 71 +310 79 -308 57 -307 37 *
Fa
0  0.000102041543679316 8 0

0111000
+315 0 +306 0 *
Ve
0.000102041543715
184 26.3 154
0 0

0101101
*
Ve
0.000102041543658
140 30.3 154
0 0

0101101
*
Ed
 1e-07 1 1 0
1  23 0 -6.43917410714283 37.5608258928571
2  17 12 85 -6.43917410714283 37.5608258928571
0

0101000
+304 0 -303 89 *
Ve
0.000102041543658
140 30.3 188
0 0

0101101
*
Ed
 0.000102041543658 1 1 0
1  24 0 0 34
0

0101000
+301 93 -303 93 *
Ve
0.000102041543658
172.742424242424 26.2999999999999 224.016666666667
0 0

0101101
*
Ed
 0.000102041543658 1 1 0
1  25 0 10.7891620150993 59.464274989274
0

0101000
+299 94 -301 93 *
Ve
0.000102041543679316
180 26.3 224.016666666667
0 0

0101101
*
Ed
 0.000102041543658 1 1 0
1  26 0 -96.7833196198633 -89.5257438622875
2  18 13 96 -96.7833196198633 -89.5257438622875
2  19 14 97 -96.7833196198633 -89.5257438622875
0

0101000
+297 98 -299 0 *
Ve
0.000102041543679316
180 26.3 163
0 0

0101101
*
Ed
 1e-07 1 1 0
1  27 0 9.00000000000003 70.0166666666667
0

0101000
+295 0 -297 99 *
Ve
0.000102041543679316
184 26.3 163
0 0

0101101
*
Ed
 1e-07 1 1 0
1  28 0 -2 2
2  20 15 0 -2 2
0

0101000
+295 0 -293 0 *
Ed
 0.000102041543679316 1 1 0
1  29 0 10.35 19.35
2  21 16 100 10.35 19.35
2  22 17 101 10.35 19.35
0

0101000
+293 67 -304 0 *
Wi

0101000
-302 59 +300 92 +298 92 +296 95 +294 0 -292 0 -291 59 *
Ve
0.000101819666866
171.731906288082 26.3 176.3
0 0

0101101
*
Ve
0.000101819666866
152 26.3 174
0 0

0101101
*
Ed
 1e-07 1 1 0
1  30 0 6.51526299004229 9.42477796076938
2  23 14 103 6.51526299004229 9.42477796076938
2  24 18 106 6.51526299004229 9.42477796076938
0

0101000
+289 0 -288 0 *
Ve
0.000102117846149
154.928932188135 26.3 166.928932188135
0 0

0101101
*
Ed
 1e-07 1 1 0
1  30 0 9.42477796076938 10.2101761241668
2  23 14 103 9.42477796076938 10.2101761241668
2  24 18 106 9.42477796076938 10.2101761241668
0

0101000
+288 0 -286 0 *
Ve
0.000102117846152
160 26.3 161.857864376269
0 0

0101101
*
Ed
 0.000102117846149 1 1 0
1  31 0 3.13117648960405 10.3027493648579
2  25 14 103 3.13117648960405 10.3027493648579
2  26 19 109 3.13117648960405 10.3027493648579
0

0101000
+286 0 -284 0 *
Ve
0.000102117846152
164 26.3 161.857864376269
0 0

0101101
*
Ed
 0.000102117846149 1 1 0
1  32 0 -3.11668038013673 0.883319619863272
2  27 14 103 -3.11668038013673 0.883319619863272
2  28 20 109 -3.11668038013673 0.883319619863272
0

0101000
+284 0 -282 0 *
Ve
0.000102117846152
168 26.3 165.857864376269
0 0

0101101
*
Ed
 0.000102117846149 1 1 0
1  33 0 -9.71040102802937 -4.05354677853699
2  29 14 103 -9.71040102802937 -4.05354677853699
2  30 21 109 -9.71040102802937 -4.05354677853699
0

0101000
+282 0 -280 0 *
Ve
0.000101819666866
168 26.3 156
0 0

0101101
*
Ed
 0.000101819666866 1 1 0
1  34 0 9.91435462238715 19.7722189986562
2  31 14 111 9.91435462238715 19.7722189986562
2  32 22 114 9.91435462238715 19.7722189986562
0

0101000
+280 115 -278 0 *
Ve
0.000101819666866
177 26.3 156
0 0

0101101
*
Ed
 0.000101819666866 1 1 0
1  35 0 0.883319619863267 9.88331961986327
2  33 14 111 0.883319619863267 9.88331961986327
2  34 23 114 0.883319619863267 9.88331961986327
0

0101000
+278 0 -276 0 *
Ve
0.000101819666866
177 26.3 176.3
0 0

0101101
*
Ed
 0.000101819666866 1 1 0
1  36 0 -0.527781001343783 19.7722189986562
2  35 14 111 -0.527781001343783 19.7722189986562
2  36 22 117 -0.527781001343783 19.7722189986562
0

0101000
+274 0 -276 0 *
Ed
 0.000101819666866 1 1 0
1  37 0 -9.88331961986327 -4.61522590794513
2  37 14 111 -9.88331961986327 -4.61522590794513
2  38 24 114 -9.88331961986327 -4.61522590794513
0

0101000
+274 0 -289 115 *
Wi

0101100
-287 102 -285 102 -283 102 -281 102 -279 102 -277 110 -275 110 +273 110 -272 110 *
Ve
0.000101819666895
152 26.3 176.3
0 0

0101101
*
Ed
 0.000101819666866 1 1 0
1  38 0 -0.527781001343783 1.77221899865623
2  39 14 119 -0.527781001343783 1.77221899865623
2  40 25 123 -0.527781001343783 1.77221899865623
0

0101000
+270 0 -288 124 *
Ve
0.000101819666895
143 26.3 176.3
0 0

0101101
*
Ed
 0.000101819666866 1 1 0
1  39 0 2.61668038013673 11.6166803801367
2  41 14 119 2.61668038013673 11.6166803801367
2  42 26 125 2.61668038013673 11.6166803801367
0

0101000
+270 0 -268 0 *
Ve
0.000101819666895
143 26.3 156
0 0

0101101
*
Ed
 0.000101819666866 1 1 0
1  40 0 -0.527781001343783 19.7722189986562
2  43 14 119 -0.527781001343783 19.7722189986562
2  44 25 125 -0.527781001343783 19.7722189986562
0

0101000
+268 0 -266 0 *
Ve
0.000101819666895
152 26.3 156
0 0

0101101
*
Ed
 0.000101819666866 1 1 0
1  41 0 -11.6166803801367 -2.61668038013673
2  45 14 119 -11.6166803801367 -2.61668038013673
2  46 27 125 -11.6166803801367 -2.61668038013673
0

0101000
+266 0 -264 0 *
Ed
 0.000101819666866 1 1 0
1  38 0 1.77221899865623 19.7722189986562
2  39 14 119 1.77221899865623 19.7722189986562
2  40 25 123 1.77221899865623 19.7722189986562
0

0101000
+288 124 -264 0 *
Wi

0101100
+269 118 -267 118 -265 118 -263 118 +262 118 *
Fa
0  0.000102041543658 11 59

0101000
+290 0 +271 0 +261 0 *
Ve
0.000102041543679316
174.545454545455 28 226
0 0

0101101
*
Ed
 0.000101076043912 1 1 0
1  42 0 57.4803265370062 60.6543664524384
2  47 13 96 57.4803265370062 60.6543664524384
2  48 29 126 57.4803265370062 60.6543664524384
0

0101000
+299 0 -259 0 *
Ve
0.000102041543679316
180 3.99999999999996 198
0 0

0101101
*
Ed
 0.000102041543679316 1 1 0
1  43 0 0 34.2659735662719
0

0101000
+257 129 -297 130 *
Ve
0.000102041543679316
0.200000000000042 3.99999999999996 198
0 0

0101101
*
Ed
 0.000101076043912 1 1 0
1  44 0 0 179.8
0

0101000
+255 27 -257 36 *
Ve
0.000102041543679316
0.200000000000038 28 226
0 0

0101101
*
Ed
 0.000102041543679316 1 1 0
1  43 0 0 36.8781778291715
0

0101000
+255 31 -253 31 *
Ed
 0.000102041543679316 1 1 0
1  45 0 0 174.345454545455
0

0101000
+253 27 -259 131 *
Wi

0101100
-258 95 -296 95 -256 128 -254 14 +252 38 +251 14 *
Fa
0  0.000101076043912 28 14

0101000
+250 0 *
Ve
9.9089949131e-05
139 2 197
0 0

0101101
*
Ed
 9.9089949129e-05 1 1 0
1  46 0 9.39148550549917 11.627553482999
2  49 31 46 9.39148550549917 11.627553482999
2  50 32 41 9.39148550549917 11.627553482999
0

0101000
+322 132 -248 132 *
Ve
0.000102041543679316
0.200000000000016 2 197
0 0

0101101
*
Ed
 1e-07 1 1 0
1  47 0 -69.4 69.4
2  51 33 133 -69.4 69.4
0

0101000
+248 0 -246 134 *
Ed
 0.000102041543679316 1 1 0
1  48 0 2.23606797749984 4.47213595499958
0

0101000
+246 135 -255 31 *
Ed
 0.000102041543679316 1 1 0
1  48 0 0 4.47213595499958
0

0101000
+320 129 -257 129 *
Wi

0101100
+247 40 +245 14 +244 38 +254 14 -243 128 -319 14 *
Fa
0  9.9089949129e-05 30 14

0101000
+242 0 *
Ve
1e-07
69.4 1 -22
0 0

0101101
*
Ed
 1e-07 1 1 0
1  49 0 0 2
0

0101000
+324 50 -240 50 *
Ed
 1e-07 1 1 0
1  50 0 0 43.0000000000001
0

0101000
+240 0 -248 52 *
Wi

0101100
-239 136 -238 133 +247 134 +321 133 *
Fa
0  1e-07 31 133

0111000
+237 0 *
Ve
0.000102041543679316
-69.4 1 -22
0 0

0101101
*
Ed
 1e-07 1 1 0
1  51 0 0 138.8
0

0101000
+240 50 -235 50 *
Ed
 0.000102041543679316 1 1 0
1  52 0 0 43.0000000000001
0

0101000
+235 0 -246 137 *
Wi

0101000
-234 136 -233 133 +245 0 +238 133 *
Fa
0  1e-07 33 133

0111000
+232 0 *
Ed
 1.00000071e-07 1 1 0
1  53 0 0 4
0

0101000
+303 0 -303 86 *
Ve
0.000102041543679316
184 39 154
0 0

0101101
*
Ed
 0.000102041543679316 1 1 0
1  54 0 26.3 39
0

0101000
+304 139 -229 0 *
Ve
0.000102041543679316
-5.3 1 -39
0 0

0101101
*
Ed
 0.000102041543679316 1 1 0
1  55 0 0 10.6
0

0101000
+229 0 -227 144 *
Ve
0.000101819666866
-5.3 -1 -39
0 0

0101101
*
Ed
 0.000101819666866 1 1 0
1  56 0 0 2
0

0101000
+227 148 -225 148 *
Ve
0.000101819666866
180 37 154
0 0

0101101
*
Ed
 1.00000071e-07 1 1 0
1  57 0 0 6.60000000000002
0

0101000
+225 148 -223 149 *
Ve
0.000101819665795
180 30.3 154
0 0

0101101
*
Ed
 1.00000071e-07 1 1 0
1  58 0 2 8.70000000000003
0

0101000
+223 153 -221 154 *
Ed
 1.00000071e-07 1 1 0
1  59 0 0 40
0

0101000
+303 93 -221 156 *
Wi

0101000
-230 138 +302 0 -228 85 -226 85 -224 147 -222 147 -220 152 +219 155 *
Fa
0  1.00000071e-07 12 85

0111000
+218 0 *
Ed
 1e-07 1 1 0
1  60 0 0 4
0

0101000
+301 0 -301 86 *
Wi

0101100
+216 0 -230 0 -300 158 +300 159 *
Fa
0  1e-07 34 0

0111000
+215 0 *
Ve
1.50000049737991e-07
178.181818181818 30.3 230
0 0

0101101
*
Ed
 1e-07 1 1 0
1  25 0 2.70292159042154 59.464274989274
0

0101000
+213 161 -301 93 *
Ve
0.000102041543679316
178.181818181818 28 230
0 0

0101101
*
Ed
 0.000102041543679316 1 1 0
1  61 0 54.5843396291916 59.9901828100347
2  52 35 96 54.5843396291916 59.9901828100347
2  53 29 126 54.5843396291916 59.9901828100347
0

0101000
+259 0 -211 162 *
Ed
 1.5e-07 1 1 0
1  62 0 -1.15000000000003 1.14999999999997
2  54 29 157 -1.15000000000003 1.14999999999997
2  55 36 0 -1.15000000000003 1.14999999999997
0

0101000
+213 0 -211 0 *
Wi

0101100
-212 160 -216 157 +298 92 -258 95 -210 95 +209 0 *
Fa
0  1e-07 29 157

0101000
+208 0 *
Ve
0.000102117846152
154.928932188135 30.3 166.928932188135
0 0

0101101
*
Ed
 1.0000004e-07 1 1 0
1  63 0 10.7 14.7
2  56 37 165 10.7 14.7
2  57 18 166 10.7 14.7
0

0101000
+206 167 -286 167 *
Ve
0.000102117846178
169.071067811866 16.9289321881345 166.928932188135
0 0

0101101
*
Ed
 1e-07 1 1 0
1  64 0 4.48031129752198 5.49778714378213
2  58 24 168 4.48031129752198 5.49778714378213
2  59 18 106 4.48031129752198 5.49778714378213
0

0101000
+289 0 -204 0 *
Ve
0.000102117846152
169.071067811866 30.3 166.928932188135
0 0

0101101
*
Ed
 1e-07 1 1 0
1  65 0 10.7 24.0710678118655
2  60 37 165 10.7 24.0710678118655
2  61 18 166 10.7 24.0710678118655
0

0101000
+202 167 -204 167 *
Ed
 1e-07 1 1 0
1  66 0 5.49778714378214 10.2101761241668
2  62 14 169 5.49778714378214 10.2101761241668
2  63 18 106 5.49778714378214 10.2101761241668
0

0101000
+202 0 -206 0 *
Wi

0101100
-205 109 +285 0 +287 0 -203 0 +201 109 -200 0 *
Fa
0  1e-07 18 106

0111000
+199 0 *
Ve
0.000102117846149
160 30.3 161.857864376269
0 0

0101101
*
Ed
 0.000102117846149 1 1 0
1  67 0 3.13117648960405 10.3027493648579
2  64 14 169 3.13117648960405 10.3027493648579
2  65 19 109 3.13117648960405 10.3027493648579
0

0101000
+206 0 -197 0 *
Ed
 1e-07 1 1 0
1  68 0 10.7 14.7
0

0101000
+197 167 -284 167 *
Wi

0101100
-196 0 -195 109 +283 0 +205 109 *
Fa
0  1e-07 19 109

0111000
+194 0 *
Ve
0.000102117846149
164 30.3 161.857864376269
0 0

0101101
*
Ed
 0.000102117846149 1 1 0
1  69 0 -3.11668038013673 0.883319619863272
2  66 14 169 -3.11668038013673 0.883319619863272
2  67 20 109 -3.11668038013673 0.883319619863272
0

0101000
+197 0 -192 0 *
Ed
 1e-07 1 1 0
1  70 0 10.7 14.7
0

0101000
+192 167 -282 167 *
Wi

0101100
-191 0 -190 109 +281 0 +195 109 *
Fa
0  1e-07 20 109

0111000
+189 0 *
Ed
 0.000102117846149 1 1 0
1  71 0 -9.71040102802937 -2.53882815277555
2  68 14 169 -9.71040102802937 -2.53882815277555
2  69 21 109 -9.71040102802937 -2.53882815277555
0

0101000
+192 0 -202 0 *
Ve
0.000102117846179
168 15.857864376269 165.857864376269
0 0

0101101
*
Ed
 0.000102117846149 1 1 0
1  72 0 -11.1504832024556 -9.29533933395295
2  70 24 168 -11.1504832024556 -9.29533933395295
2  71 21 109 -11.1504832024556 -9.29533933395295
0

0101000
+186 0 -204 0 *
Ed
 0.000102117846149 1 1 0
1  73 0 5.02249426252144 15.4646298862524
2  72 22 168 5.02249426252144 15.4646298862524
2  73 21 109 5.02249426252144 15.4646298862524
0

0101000
+280 0 -186 0 *
Wi

0101100
-187 0 -201 109 +185 0 +184 0 +279 0 +190 109 *
Fa
0  1e-07 21 109

0111000
+183 0 *
Ve
1e-07
168 14 164
0 0

0101101
*
Ed
 1e-07 1 1 0
1  74 0 15.1916738879315 17.819090885901
0

0101000
+186 173 -181 174 *
Ve
1e-07
168 14 156
0 0

0101101
*
Ed
 1e-07 1 1 0
1  75 0 0 12.3
0

0101000
+179 174 -278 176 *
Ed
 1e-07 1 1 0
1  76 0 0 8
0

0101000
+181 174 -179 174 *
Wi

0101100
+180 172 +184 0 -277 175 +178 172 +177 172 *
Fa
0  1e-07 22 168

0111000
+176 0 *
Ed
 1e-07 1 1 0
1  75 0 0 12.3
0

0101000
+179 174 -276 179 *
Ed
 1e-07 1 1 0
1  77 0 0 9
0

0101000
+179 0 -179 116 *
Wi

0101100
-178 177 -275 0 +174 178 +173 114 *
Fa
0  1e-07 23 114

0111000
+172 0 *
Ed
 1e-07 1 1 0
1  74 0 0.42426406871194 17.819090885901
0

0101000
+274 179 -181 174 *
Wi

0101100
+177 178 +170 178 -273 0 +174 178 *
Fa
0  1e-07 22 117

0111000
+169 0 *
Ed
 1e-07 1 1 0
1  78 0 0 9
0

0101000
+181 0 -181 116 *
Wi

0101100
-180 172 -167 168 +170 180 -272 175 -203 0 +185 0 *
Fa
0  1e-07 24 168

0111000
+166 0 *
Ve
0.000101819666866
143 14 164
0 0

0101101
*
Ed
 1e-07 1 1 0
1  79 0 0.42426406871194 17.819090885901
0

0101000
+270 181 -164 182 *
Ve
0.000101819666866
143 14 156
0 0

0101101
*
Ed
 0.000101819666866 1 1 0
1  80 0 0 8
0

0101000
+164 186 -162 186 *
Ed
 0.000101819666866 1 1 0
1  81 0 0 12.3
0

0101000
+162 186 -264 187 *
Wi

0101000
+163 0 +161 185 +160 185 -262 181 -269 181 *
Fa
0  0.000101819666866 38 0

0111000
+159 0 *
Ed
 1e-07 1 1 0
1  82 0 0.42426406871194 17.819090885901
0

0101000
+268 190 -164 186 *
Ed
 1e-07 1 1 0
1  83 0 0 9
0

0101000
+164 0 -164 120 *
Wi

0101000
-157 189 -156 188 +163 0 -267 181 *
Fa
0  1e-07 26 188

0111000
+155 0 *
Ed
 1e-07 1 1 0
1  81 0 0 12.3
0

0101000
+162 186 -266 190 *
Wi

0101100
+161 191 +157 191 -265 0 +153 191 *
Fa
0  1e-07 25 125

0111000
+152 0 *
Ed
 1e-07 1 1 0
1  84 0 0 9
0

0101000
+162 0 -162 120 *
Wi

0101100
-153 191 -263 0 +160 192 +150 125 *
Fa
0  1e-07 27 125

0111000
+149 0 *
Ed
 0.000102041543679316 1 1 0
1  85 0 0 2
0

0101000
+235 50 -326 50 *
Wi

0101100
+323 0 +239 0 +234 0 +147 0 *
Fa
0  1e-07 39 0

0111000
+146 193 *
Ve
1.5e-07
173.4 37 230
0 0

0101101
*
Ed
 1e-07 1 1 0
1  86 0 0 76
0

0101000
+225 0 -144 196 *
Ve
0.000102041543679316
173.4 39 230
0 0

0101101
*
Ed
 1.5e-07 1 1 0
1  87 0 -5.5 -3.5
2  74 40 194 -5.5 -3.5
2  75 36 0 -5.5 -3.5
0

0101000
+142 0 -144 0 *
Ed
 0.000102041543679316 1 1 0
1  88 0 0 76
0

0101000
+227 0 -142 196 *
Wi

0101100
-224 195 -143 194 +141 0 +140 194 *
Fa
0  1e-07 40 194

0101000
+139 0 *
Ve
0.000101919667866
180 37 230
0 0

0101101
*
Ed
 0.000101819666866 1 1 0
1  89 0 0 76
2  76 42 198 0 76
2  77 41 144 0 76
0

0101000
+223 0 -137 199 *
Ed
 1.5e-07 1 1 0
1  90 0 16.7 23.3
2  78 41 194 16.7 23.3
2  79 36 0 16.7 23.3
0

0101000
+144 0 -137 0 *
Wi

0101100
-222 195 -136 197 +135 0 +143 194 *
Fa
0  1e-07 41 194

0101000
+134 0 *
Ve
0.000101919666767
180 30.3 230
0 0

0101101
*
Ed
 0.000101819665767 1 1 0
1  91 0 -59.4551673620814 16.5448326379185
2  80 14 201 -59.4551673620814 16.5448326379185
2  81 42 202 -59.4551673620814 16.5448326379185
0

0101000
+132 203 -221 0 *
Ed
 1.5e-07 1 1 0
1  92 0 -3.5 3.20000000000005
2  82 42 57 -3.5 3.20000000000005
2  83 36 0 -3.5 3.20000000000005
0

0101000
+137 0 -132 0 *
Wi

0101100
-220 200 +131 99 +130 0 +136 197 *
Fa
0  1e-07 42 57

0101000
+129 0 *
Ed
 1.5e-07 1 1 0
1  93 0 25.0651378016815 26.8833196198633
2  84 14 157 25.0651378016815 26.8833196198633
2  85 36 0 25.0651378016815 26.8833196198633
0

0101000
+213 0 -132 0 *
Wi

0101100
-219 160 +131 99 +127 0 -212 160 -300 160 *
Wi

0101100
+191 102 +196 102 +187 102 +200 102 *
Fa
0  1e-07 14 157

0101000
+126 0 +125 0 *
Ve
0.000102041543679316
140 28 230
0 0

0101101
*
Ve
0.000102041543679316
140 39 230
0 0

0101101
*
Ed
 1e-07 1 1 0
1  94 0 0 11
2  86 43 0 0 11
2  87 36 0 0 11
0

0101000
+123 0 -122 0 *
Ed
 0.000102041543679316 1 1 0
1  95 0 0 33.4
2  88 44 0 0 33.4
2  89 36 0 0 33.4
0

0101000
+122 0 -142 0 *
Ed
 0.000102041543679316 1 1 0
1  96 0 139.8 177.981818181818
2  90 45 0 139.8 177.981818181818
2  91 5 0 139.8 177.981818181818
0

0101000
+123 0 -211 0 *
Wi

0101100
-121 0 -120 0 -141 0 -135 0 -130 0 +127 0 -209 0 +119 0 *
Fa
0  1e-07 36 0

0101000
+118 0 *
Wi

0101100
+167 0 -173 0 -177 205 +177 206 *
Fa
0  1e-07 46 0

0111000
+116 0 *
Wi

0101100
+156 0 -150 0 -161 208 +161 209 *
Fa
0  1e-07 47 0

0111000
+114 0 *
Ve
0.000102041543679316
140 28 232
0 0

0101101
*
Ed
 0.000102041543679316 1 1 0
1  97 0 0 2
2  92 43 0 0 2
2  93 48 0 0 2
0

0101000
+123 0 -112 0 *
Ve
0.000102041543679316
140 39 232
0 0

0101101
*
Ed
 0.000102041543679316 1 1 0
1  98 0 0 11
2  94 43 0 0 11
2  95 49 0 0 11
0

0101000
+112 0 -110 0 *
Ed
 0.000102041543679316 1 1 0
1  99 0 0 2
2  96 43 0 0 2
2  97 44 0 0 2
0

0101000
-110 0 +122 0 *
Wi

0101100
-111 0 -109 0 +108 0 +121 0 *
Fa
0  1e-07 43 0

0101000
+107 0 *
Ve
0.000102041543679316
180 6.3 184.3
0 0

0101101
*
Ed
 1e-07 1 1 0
1  100 0 19.7 26
0

0101000
+105 0 -318 0 *
Ve
0.000102041543679316
180 23 166.3
0 0

0101101
*
Ed
 0.000102041543679316 1 1 0
1  101 0 0 1.5707963267949
2  98 51 0 0 1.5707963267949
2  99 15 0 0 1.5707963267949
0

0101000
+295 0 -103 0 *
Ve
0.000102041543679316
180 11 166.3
0 0

0101101
*
Ed
 0.000102041543679316 1 1 0
1  102 0 5.50000000000001 17.5
2  100 51 0 5.50000000000001 17.5
2  101 52 0 5.50000000000001 17.5
0

0101000
+101 0 -103 0 *
Ve
0.000102041543679316
180 10.3 166.224903099319
0 0

0101101
*
Ed
 0.000102041543679316 1 1 0
1  103 0 -7.105427357601e-15 0.213745058211764
2  102 51 0 -7.105427357601e-15 0.213745058211764
2  103 53 0 -7.105427357601e-15 0.213745058211764
0

0101000
+101 0 -99 0 *
Ve
0.000102041543679316
180 10.3 180
0 0

0101101
*
Ed
 0.000102041543679316 1 1 0
1  104 0 -13 0.77509690068058
2  104 51 0 -13 0.77509690068058
2  105 54 0 -13 0.77509690068058
0

0101000
+97 0 -99 0 *
Ve
0.000102041543679316
180 6.3 184.289522117905
0 0

0101101
*
Ed
 0.000102041543679316 1 1 0
1  105 0 0 1.50097216181155
2  106 51 0 0 1.50097216181155
2  107 55 0 0 1.50097216181155
0

0101000
+97 0 -95 0 *
Ed
 0.000102041543679316 1 1 0
1  106 0 30.6395221179055 30.65
2  108 51 0 30.6395221179055 30.65
2  109 56 0 30.6395221179055 30.65
0

0101000
+95 0 -105 0 *
Wi

0101000
+104 0 +317 57 +243 128 +256 128 -294 0 +102 0 -100 0 +98 0 -96 0 +94 0 
+93 0 *
Fa
0  0.000102041543679316 50 0

0111000
+92 0 *
Ve
0.000102041543679316
184 6.3 184.289522117905
0 0

0101101
*
Ed
 1e-07 1 1 0
1  107 0 -2 2
2  110 55 0 -2 2
2  111 56 0 -2 2
0

0101000
+95 0 -90 0 *
Ve
0.000102041543679316
184 6.3 184.3
0 0

0101101
*
Ed
 0.000102041543679316 1 1 0
1  108 0 30.6395221179055 30.65
2  112 57 0 30.6395221179055 30.65
2  113 56 0 30.6395221179055 30.65
0

0101000
+90 0 -88 0 *
Ed
 0.000102041543679316 1 1 0
1  109 0 41 45
2  114 56 0 41 45
2  115 58 0 41 45
0

0101000
+105 0 -88 0 *
Wi

0101000
-89 0 -87 0 +86 0 +93 0 *
Fa
0  1e-07 56 0

0101000
+85 0 *
Ed
 1e-07 1 1 0
1  110 0 9.95 16.25
0

0101000
+88 0 -332 0 *
Wi

0101000
+83 0 +316 59 -104 0 +86 0 *
Fa
0  0.000102041543679316 59 0

0111000
+82 0 *
Ve
0.000101819666866
140 4 226
0 0

0101101
*
Ed
 0.000101819666866 1 1 0
1  111 0 -6.20427414072313 -2.20427414072313
2  116 60 211 -6.20427414072313 -2.20427414072313
2  117 2 212 -6.20427414072313 -2.20427414072313
0

0101000
+314 0 -80 0 *
Ve
0.000101919667866
140 4 230
0 0

0101101
*
Ed
 0.000101819666866 1 1 0
1  112 0 4.00531620428256 8.00531620428256
2  118 61 211 4.00531620428256 8.00531620428256
2  119 2 212 4.00531620428256 8.00531620428256
0

0101000
+80 0 -78 36 *
Ve
0.000101919667866
140 25.6 230
0 0

0101101
*
Ed
 1.5e-07 1 1 0
1  113 0 -20.3957258592768 1.20427414072321
2  120 2 210 -20.3957258592768 1.20427414072321
2  121 5 0 -20.3957258592768 1.20427414072321
0

0101000
+76 0 -78 0 *
Ve
0.000101819666906
140 25.6 227
0 0

0101101
*
Ed
 0.000101819666866 1 1 0
1  114 0 -5.00531620428259 -2.00531620428262
2  122 4 27 -5.00531620428259 -2.00531620428262
2  123 2 212 -5.00531620428259 -2.00531620428262
0

0101000
+76 36 -74 0 *
Ed
 0.000101819666866 1 1 0
1  115 0 -8.5395324057505 27.9482737765894
2  124 1 27 -8.5395324057505 27.9482737765894
2  125 2 212 -8.5395324057505 27.9482737765894
0

0101000
+74 0 -313 0 *
Wi

0101100
-79 14 -77 14 +75 0 -73 14 -72 14 +312 71 *
Fa
0  1e-07 2 210

0101000
+71 0 *
Ve
0.000101819666866
180 4 226
0 0

0101101
*
Ed
 1e-07 1 1 0
1  116 0 4 44
0

0101000
+69 81 -80 80 *
Ed
 0.000101819666866 1 1 0
1  117 0 16.5 20.5
2  126 42 215 16.5 20.5
2  127 60 216 16.5 20.5
0

0101000
+69 0 -311 0 *
Wi

0101100
+68 213 -67 214 +310 213 -79 0 *
Fa
0  1e-07 60 211

0111000
+66 0 *
Ve
1.00000071e-07
180 25.6 227
0 0

0101101
*
Ed
 1.00000071e-07 1 1 0
1  1 0 0 36.4878061823399
0

0101000
+64 130 -309 130 *
Ed
 1e-07 1 1 0
1  4 0 139.8 179.8
0

0101000
+74 32 -64 84 *
Wi

0101100
-72 0 -307 27 +63 217 +62 27 *
Fa
0  1e-07 1 27

0111000
+61 0 *
Ve
1.50000071054274e-07
180 25.6 230
0 0

0101101
*
Ed
 1.00000071e-07 1 1 0
1  8 0 2 5
0

0101000
+59 129 -64 130 *
Ve
0.000101919667866
180 4 230
0 0

0101101
*
Ed
 0.000101819666866 1 1 0
1  118 0 -40 -36
2  128 42 215 -40 -36
2  129 61 216 -40 -36
0

0101000
+57 219 -69 0 *
Ed
 1.5e-07 1 1 0
1  119 0 -6.1 15.5
2  130 42 57 -6.1 15.5
2  131 5 0 -6.1 15.5
0

0101000
+59 0 -57 0 *
Wi

0101100
-58 128 -63 128 -308 57 +67 218 +56 218 +55 0 *
Fa
0  1e-07 42 57

0101000
+54 0 *
Ed
 1.5e-07 1 1 0
1  120 0 -87.9 -47.9
2  132 61 220 -87.9 -47.9
2  133 5 0 -87.9 -47.9
0

0101000
+57 0 -78 0 *
Wi

0101100
-68 79 -77 14 +52 0 -56 218 *
Fa
0  1e-07 61 220

0101000
+51 0 *
Ed
 1.5e-07 1 1 0
1  121 0 139.8 179.8
2  134 4 37 139.8 179.8
2  135 5 0 139.8 179.8
0

0101000
+76 0 -59 0 *
Wi

0101100
-49 0 -55 0 -52 0 +75 0 *
Fa
0  1e-07 5 0

0101000
+48 0 *
Wi

0101100
-73 14 -62 37 +58 128 +49 0 *
Fa
0  1e-07 4 37

0101000
+46 0 *
Ve
0.000102041543679316
184 23 166.3
0 0

0101101
*
Ed
 1e-07 1 1 0
1  122 0 -2 2
2  136 15 0 -2 2
0

0101000
+44 0 -103 0 *
Ve
0.000102041543679316
184 11 166.3
0 0

0101101
*
Ed
 0.000102041543679316 1 1 0
1  123 0 -17.5 -5.50000000000001
2  137 57 0 -17.5 -5.50000000000001
2  138 63 0 -17.5 -5.50000000000001
0

0101000
+44 0 -42 0 *
Ed
 1e-07 1 1 0
1  124 0 -2 2
2  139 53 0 -2 2
0

0101000
+101 0 -42 0 *
Wi

0101000
-43 0 +41 0 -40 0 +100 0 *
Fa
0  0.000102041543679316 62 0

0111000
+39 0 *
Ve
0.000102041543679316
184 10.3 166.224903099319
0 0

0101101
*
Ed
 1e-07 1 1 0
1  125 0 -2 2
2  140 53 0 -2 2
0

0101000
+37 0 -99 0 *
Ve
0.000102041543679316
184 10.3 180
0 0

0101101
*
Ed
 0.000102041543679316 1 1 0
1  126 0 -0.77509690068058 13
2  141 57 0 -0.77509690068058 13
2  142 65 0 -0.77509690068058 13
0

0101000
+37 0 -35 0 *
Ed
 1e-07 1 1 0
1  127 0 -2 2
2  143 55 0 -2 2
0

0101000
+97 0 -35 0 *
Wi

0101000
-36 0 +34 0 -33 0 +96 0 *
Fa
0  0.000102041543679316 64 0

0111000
+32 0 *
Ed
 0.000102041543679316 1 1 0
1  128 0 4.78221314536804 6.28318530717959
2  144 57 0 4.78221314536804 6.28318530717959
2  145 67 0 4.78221314536804 6.28318530717959
2  146 55 0 4.78221314536804 6.28318530717959
0

0101000
+90 0 -35 0 *
Ed
 0.000102041543679316 1 1 0
1  129 0 6.06944024896782 6.28318530717959
2  147 57 0 6.06944024896782 6.28318530717959
2  148 68 0 6.06944024896782 6.28318530717959
2  149 53 0 6.06944024896782 6.28318530717959
0

0101000
+37 0 -42 0 *
Ed
 0.000102041543679316 1 1 0
1  130 0 4.71238898038469 6.28318530717959
2  150 57 0 4.71238898038469 6.28318530717959
2  151 69 0 4.71238898038469 6.28318530717959
2  152 15 0 4.71238898038469 6.28318530717959
0

0101000
+44 0 -293 0 *
Ve
0.000102041543679316
184 39 232
0 0

0101101
*
Ed
 1e-07 1 1 0
1  131 0 0 78
0

0101000
+229 197 -27 0 *
Ed
 1e-07 1 1 0
1  132 0 0 39
0

0101000
+331 0 -27 0 *
Wi

0101000
-83 0 -87 0 +30 0 -34 0 +29 0 -41 0 +28 0 +291 59 +228 197 +26 0 
-25 0 -330 0 *
Fa
0  0.000102041543679316 66 0

0111000
+24 0 *
Ve
0.000102041543679316
0.200000000000039 28 232
0 0

0101101
*
Ed
 1e-07 1 1 0
1  133 0 0 28
0

0101000
+329 0 -22 0 *
Ed
 1e-07 1 1 0
1  134 0 5.6843418860808e-14 6.00000000000006
0

0101000
+253 37 -22 0 *
Wi

0101000
-325 40 -357 38 -341 38 -336 0 +327 0 +21 0 -20 0 -252 38 -244 38 -233 51 
+147 49 *
Fa
0  0.000102041543679316 70 0

0111000
+19 0 *
Ed
 0.000102041543679316 1 1 0
1  135 0 0 139.8
0

0101000
+22 36 -112 36 *
Wi

0101000
+20 0 +17 14 -111 0 +119 0 -210 95 -251 14 *
Fa
0  0.000102041543679316 71 0

0111000
+16 0 *
Ed
 1e-07 1 1 0
1  136 0 0 44
0

0101000
+110 0 -27 0 *
Wi

0101000
-26 0 +226 197 +140 194 -120 0 +108 0 +14 0 *
Fa
0  0.000102041543679316 72 0

0111000
+13 0 *
Wi

0101000
-17 14 -21 0 +328 0 +25 0 -14 0 -109 0 *
Fa
0  0.000102041543679316 73 0

0111000
+11 0 *
Wi

0101000
+43 0 -102 0 +292 0 -28 0 *
Fa
0  1e-07 15 0

0111000
+9 0 *
Wi

0101000
+36 0 -98 0 +40 0 -29 0 *
Fa
0  1e-07 53 0

0111000
+7 0 *
Wi

0101000
-89 0 -94 0 +33 0 -30 0 *
Fa
0  1e-07 55 0

0111000
+5 0 *
Sh

0101000
-350 14 +343 0 -338 0 -333 0 +305 0 +260 0 +249 0 +241 0 -236 14 -231 14 
+217 59 -214 157 -207 0 +198 102 +193 102 +188 102 +182 102 -175 102 -171 110 +168 110 
-165 102 +158 102 -154 102 -151 118 -148 118 -145 51 -138 0 -133 0 -128 0 +124 0 
-117 0 -115 204 -113 207 -106 0 +91 0 -84 0 +81 0 +70 0 -65 14 -60 14 
-53 0 -50 0 -47 0 -45 0 +38 0 +31 0 +23 0 +18 0 +15 0 +12 0 
+10 0 +8 0 +6 0 +4 0 *
So

0100000
+3 0 *
Co

1100000
+2 0 *

+1 0 