ISO-10303-21;
HEADER;
FILE_DESCRIPTION(('FreeCAD Model'),'2;1');
FILE_NAME('Open CASCADE Shape Model','2026-09-08T10:16:48',('FreeCAD'),(
    'FreeCAD'),'Open CASCADE STEP processor 7.8','FreeCAD','Unknown');
FILE_SCHEMA(('AUTOMOTIVE_DESIGN { 1 0 10303 214 1 1 1 1 }'));
ENDSEC;
DATA;
#1 = APPLICATION_PROTOCOL_DEFINITION('international standard',
  'automotive_design',2000,#2);
#2 = APPLICATION_CONTEXT(
  'core data for automotive mechanical design processes');
#3 = SHAPE_DEFINITION_REPRESENTATION(#4,#10);
#4 = PRODUCT_DEFINITION_SHAPE('','',#5);
#5 = PRODUCT_DEFINITION('design','',#6,#9);
#6 = PRODUCT_DEFINITION_FORMATION('','',#7);
#7 = PRODUCT('Open CASCADE STEP translator 7.8 6',
  'Open CASCADE STEP translator 7.8 6','',(#8));
#8 = PRODUCT_CONTEXT('',#2,'mechanical');
#9 = PRODUCT_DEFINITION_CONTEXT('part definition',#2,'design');
#10 = ADVANCED_BREP_SHAPE_REPRESENTATION('',(#11,#15),#507);
#11 = AXIS2_PLACEMENT_3D('',#12,#13,#14);
#12 = CARTESIAN_POINT('',(0.,0.,0.));
#13 = DIRECTION('',(0.,0.,1.));
#14 = DIRECTION('',(1.,0.,-0.));
#15 = MANIFOLD_SOLID_BREP('',#16);
#16 = CLOSED_SHELL('',(#17,#57,#174,#198,#308,#325,#342,#359,#376,#393,
    #410,#427,#444,#461,#473,#490));
#17 = ADVANCED_FACE('',(#18),#52,.F.);
#18 = FACE_BOUND('',#19,.F.);
#19 = EDGE_LOOP('',(#20,#30,#38,#46));
#20 = ORIENTED_EDGE('',*,*,#21,.F.);
#21 = EDGE_CURVE('',#22,#24,#26,.T.);
#22 = VERTEX_POINT('',#23);
#23 = CARTESIAN_POINT('',(60.3,110.45,1.42108547152E-14));
#24 = VERTEX_POINT('',#25);
#25 = CARTESIAN_POINT('',(125.,110.45,1.42108547152E-14));
#26 = LINE('',#27,#28);
#27 = CARTESIAN_POINT('',(60.3,110.45,1.387778780781E-14));
#28 = VECTOR('',#29,1.);
#29 = DIRECTION('',(1.,0.,0.));
#30 = ORIENTED_EDGE('',*,*,#31,.T.);
#31 = EDGE_CURVE('',#22,#32,#34,.T.);
#32 = VERTEX_POINT('',#33);
#33 = CARTESIAN_POINT('',(60.3,110.45,3.));
#34 = LINE('',#35,#36);
#35 = CARTESIAN_POINT('',(60.3,110.45,7.105427357601E-15));
#36 = VECTOR('',#37,1.);
#37 = DIRECTION('',(0.,-5.016449660064E-16,1.));
#38 = ORIENTED_EDGE('',*,*,#39,.T.);
#39 = EDGE_CURVE('',#32,#40,#42,.T.);
#40 = VERTEX_POINT('',#41);
#41 = CARTESIAN_POINT('',(125.,110.45,3.));
#42 = LINE('',#43,#44);
#43 = CARTESIAN_POINT('',(60.3,110.45,3.));
#44 = VECTOR('',#45,1.);
#45 = DIRECTION('',(1.,0.,0.));
#46 = ORIENTED_EDGE('',*,*,#47,.T.);
#47 = EDGE_CURVE('',#40,#24,#48,.T.);
#48 = LINE('',#49,#50);
#49 = CARTESIAN_POINT('',(125.,110.45,-0.5));
#50 = VECTOR('',#51,1.);
#51 = DIRECTION('',(0.,5.016449660064E-16,-1.));
#52 = PLANE('',#53);
#53 = AXIS2_PLACEMENT_3D('',#54,#55,#56);
#54 = CARTESIAN_POINT('',(60.3,110.45,7.105427357601E-15));
#55 = DIRECTION('',(0.,1.,5.016449660064E-16));
#56 = DIRECTION('',(1.,0.,0.));
#57 = ADVANCED_FACE('',(#58,#147,#158),#169,.T.);
#58 = FACE_BOUND('',#59,.T.);
#59 = EDGE_LOOP('',(#60,#61,#69,#77,#85,#93,#101,#109,#117,#125,#133,
    #141));
#60 = ORIENTED_EDGE('',*,*,#21,.F.);
#61 = ORIENTED_EDGE('',*,*,#62,.F.);
#62 = EDGE_CURVE('',#63,#22,#65,.T.);
#63 = VERTEX_POINT('',#64);
#64 = CARTESIAN_POINT('',(60.3,145.55,4.263256414561E-14));
#65 = LINE('',#66,#67);
#66 = CARTESIAN_POINT('',(60.3,145.55,3.920752611464E-14));
#67 = VECTOR('',#68,1.);
#68 = DIRECTION('',(0.,-1.,-7.216449660064E-16));
#69 = ORIENTED_EDGE('',*,*,#70,.F.);
#70 = EDGE_CURVE('',#71,#63,#73,.T.);
#71 = VERTEX_POINT('',#72);
#72 = CARTESIAN_POINT('',(195.7,145.55,4.263256414561E-14));
#73 = LINE('',#74,#75);
#74 = CARTESIAN_POINT('',(195.7,145.55,3.920752611464E-14));
#75 = VECTOR('',#76,1.);
#76 = DIRECTION('',(-1.,-1.E-17,-7.216449660064E-33));
#77 = ORIENTED_EDGE('',*,*,#78,.F.);
#78 = EDGE_CURVE('',#79,#71,#81,.T.);
#79 = VERTEX_POINT('',#80);
#80 = CARTESIAN_POINT('',(195.7,110.45,1.42108547152E-14));
#81 = LINE('',#82,#83);
#82 = CARTESIAN_POINT('',(195.7,110.45,1.387778780781E-14));
#83 = VECTOR('',#84,1.);
#84 = DIRECTION('',(0.,1.,7.216449660064E-16));
#85 = ORIENTED_EDGE('',*,*,#86,.F.);
#86 = EDGE_CURVE('',#87,#79,#89,.T.);
#87 = VERTEX_POINT('',#88);
#88 = CARTESIAN_POINT('',(131.,110.45,1.42108547152E-14));
#89 = LINE('',#90,#91);
#90 = CARTESIAN_POINT('',(60.3,110.45,1.387778780781E-14));
#91 = VECTOR('',#92,1.);
#92 = DIRECTION('',(1.,0.,0.));
#93 = ORIENTED_EDGE('',*,*,#94,.T.);
#94 = EDGE_CURVE('',#87,#95,#97,.T.);
#95 = VERTEX_POINT('',#96);
#96 = CARTESIAN_POINT('',(131.,115.45,1.42108547152E-14));
#97 = LINE('',#98,#99);
#98 = CARTESIAN_POINT('',(131.,118.725,2.13162820728E-14));
#99 = VECTOR('',#100,1.);
#100 = DIRECTION('',(0.,1.,9.516449660064E-16));
#101 = ORIENTED_EDGE('',*,*,#102,.F.);
#102 = EDGE_CURVE('',#103,#95,#105,.T.);
#103 = VERTEX_POINT('',#104);
#104 = CARTESIAN_POINT('',(184.,115.45,1.42108547152E-14));
#105 = LINE('',#106,#107);
#106 = CARTESIAN_POINT('',(184.,115.45,1.748601263785E-14));
#107 = VECTOR('',#108,1.);
#108 = DIRECTION('',(-1.,0.,0.));
#109 = ORIENTED_EDGE('',*,*,#110,.F.);
#110 = EDGE_CURVE('',#111,#103,#113,.T.);
#111 = VERTEX_POINT('',#112);
#112 = CARTESIAN_POINT('',(184.,140.55,4.263256414561E-14));
#113 = LINE('',#114,#115);
#114 = CARTESIAN_POINT('',(184.,140.55,3.559930128461E-14));
#115 = VECTOR('',#116,1.);
#116 = DIRECTION('',(0.,-1.,-7.216449660064E-16));
#117 = ORIENTED_EDGE('',*,*,#118,.F.);
#118 = EDGE_CURVE('',#119,#111,#121,.T.);
#119 = VERTEX_POINT('',#120);
#120 = CARTESIAN_POINT('',(72.,140.55,4.263256414561E-14));
#121 = LINE('',#122,#123);
#122 = CARTESIAN_POINT('',(72.,140.55,3.559930128461E-14));
#123 = VECTOR('',#124,1.);
#124 = DIRECTION('',(1.,-2.E-17,-1.443289932013E-32));
#125 = ORIENTED_EDGE('',*,*,#126,.F.);
#126 = EDGE_CURVE('',#127,#119,#129,.T.);
#127 = VERTEX_POINT('',#128);
#128 = CARTESIAN_POINT('',(72.,115.45,1.42108547152E-14));
#129 = LINE('',#130,#131);
#130 = CARTESIAN_POINT('',(72.,115.45,1.748601263785E-14));
#131 = VECTOR('',#132,1.);
#132 = DIRECTION('',(0.,1.,7.216449660064E-16));
#133 = ORIENTED_EDGE('',*,*,#134,.F.);
#134 = EDGE_CURVE('',#135,#127,#137,.T.);
#135 = VERTEX_POINT('',#136);
#136 = CARTESIAN_POINT('',(125.,115.45,1.42108547152E-14));
#137 = LINE('',#138,#139);
#138 = CARTESIAN_POINT('',(184.,115.45,1.748601263785E-14));
#139 = VECTOR('',#140,1.);
#140 = DIRECTION('',(-1.,0.,0.));
#141 = ORIENTED_EDGE('',*,*,#142,.T.);
#142 = EDGE_CURVE('',#135,#24,#143,.T.);
#143 = LINE('',#144,#145);
#144 = CARTESIAN_POINT('',(125.,118.725,2.13162820728E-14));
#145 = VECTOR('',#146,1.);
#146 = DIRECTION('',(0.,-1.,-9.516449660064E-16));
#147 = FACE_BOUND('',#148,.T.);
#148 = EDGE_LOOP('',(#149));
#149 = ORIENTED_EDGE('',*,*,#150,.F.);
#150 = EDGE_CURVE('',#151,#151,#153,.T.);
#151 = VERTEX_POINT('',#152);
#152 = CARTESIAN_POINT('',(66.3,126.45,2.84217094304E-14));
#153 = CIRCLE('',#154,2.3);
#154 = AXIS2_PLACEMENT_3D('',#155,#156,#157);
#155 = CARTESIAN_POINT('',(64.,126.45,2.84217094304E-14));
#156 = DIRECTION('',(0.,9.416449660064E-16,-1.));
#157 = DIRECTION('',(1.,0.,0.));
#158 = FACE_BOUND('',#159,.T.);
#159 = EDGE_LOOP('',(#160));
#160 = ORIENTED_EDGE('',*,*,#161,.F.);
#161 = EDGE_CURVE('',#162,#162,#164,.T.);
#162 = VERTEX_POINT('',#163);
#163 = CARTESIAN_POINT('',(194.3,126.45,2.84217094304E-14));
#164 = CIRCLE('',#165,2.3);
#165 = AXIS2_PLACEMENT_3D('',#166,#167,#168);
#166 = CARTESIAN_POINT('',(192.,126.45,2.84217094304E-14));
#167 = DIRECTION('',(0.,9.416449660064E-16,-1.));
#168 = DIRECTION('',(1.,0.,0.));
#169 = PLANE('',#170);
#170 = AXIS2_PLACEMENT_3D('',#171,#172,#173);
#171 = CARTESIAN_POINT('',(128.,128.,2.84217094304E-14));
#172 = DIRECTION('',(0.,9.516449660064E-16,-1.));
#173 = DIRECTION('',(0.,1.,9.516449660064E-16));
#174 = ADVANCED_FACE('',(#175),#193,.T.);
#175 = FACE_BOUND('',#176,.T.);
#176 = EDGE_LOOP('',(#177,#185,#186,#187));
#177 = ORIENTED_EDGE('',*,*,#178,.T.);
#178 = EDGE_CURVE('',#179,#40,#181,.T.);
#179 = VERTEX_POINT('',#180);
#180 = CARTESIAN_POINT('',(125.,115.45,3.));
#181 = LINE('',#182,#183);
#182 = CARTESIAN_POINT('',(125.,118.725,3.));
#183 = VECTOR('',#184,1.);
#184 = DIRECTION('',(0.,-1.,-9.516449660064E-16));
#185 = ORIENTED_EDGE('',*,*,#47,.T.);
#186 = ORIENTED_EDGE('',*,*,#142,.F.);
#187 = ORIENTED_EDGE('',*,*,#188,.T.);
#188 = EDGE_CURVE('',#135,#179,#189,.T.);
#189 = LINE('',#190,#191);
#190 = CARTESIAN_POINT('',(125.,115.45,-0.5));
#191 = VECTOR('',#192,1.);
#192 = DIRECTION('',(0.,-5.016449660064E-16,1.));
#193 = PLANE('',#194);
#194 = AXIS2_PLACEMENT_3D('',#195,#196,#197);
#195 = CARTESIAN_POINT('',(125.,109.45,-1.));
#196 = DIRECTION('',(1.,0.,0.));
#197 = DIRECTION('',(0.,-7.216449660064E-16,1.));
#198 = ADVANCED_FACE('',(#199,#281,#292),#303,.F.);
#199 = FACE_BOUND('',#200,.F.);
#200 = EDGE_LOOP('',(#201,#202,#210,#218,#226,#234,#242,#250,#258,#266,
    #274,#280));
#201 = ORIENTED_EDGE('',*,*,#39,.F.);
#202 = ORIENTED_EDGE('',*,*,#203,.F.);
#203 = EDGE_CURVE('',#204,#32,#206,.T.);
#204 = VERTEX_POINT('',#205);
#205 = CARTESIAN_POINT('',(60.3,145.55,3.));
#206 = LINE('',#207,#208);
#207 = CARTESIAN_POINT('',(60.3,145.55,3.));
#208 = VECTOR('',#209,1.);
#209 = DIRECTION('',(0.,-1.,-7.216449660064E-16));
#210 = ORIENTED_EDGE('',*,*,#211,.F.);
#211 = EDGE_CURVE('',#212,#204,#214,.T.);
#212 = VERTEX_POINT('',#213);
#213 = CARTESIAN_POINT('',(195.7,145.55,3.));
#214 = LINE('',#215,#216);
#215 = CARTESIAN_POINT('',(195.7,145.55,3.));
#216 = VECTOR('',#217,1.);
#217 = DIRECTION('',(-1.,-1.E-17,-7.216449660064E-33));
#218 = ORIENTED_EDGE('',*,*,#219,.F.);
#219 = EDGE_CURVE('',#220,#212,#222,.T.);
#220 = VERTEX_POINT('',#221);
#221 = CARTESIAN_POINT('',(195.7,110.45,3.));
#222 = LINE('',#223,#224);
#223 = CARTESIAN_POINT('',(195.7,110.45,3.));
#224 = VECTOR('',#225,1.);
#225 = DIRECTION('',(0.,1.,7.216449660064E-16));
#226 = ORIENTED_EDGE('',*,*,#227,.F.);
#227 = EDGE_CURVE('',#228,#220,#230,.T.);
#228 = VERTEX_POINT('',#229);
#229 = CARTESIAN_POINT('',(131.,110.45,3.));
#230 = LINE('',#231,#232);
#231 = CARTESIAN_POINT('',(60.3,110.45,3.));
#232 = VECTOR('',#233,1.);
#233 = DIRECTION('',(1.,0.,0.));
#234 = ORIENTED_EDGE('',*,*,#235,.T.);
#235 = EDGE_CURVE('',#228,#236,#238,.T.);
#236 = VERTEX_POINT('',#237);
#237 = CARTESIAN_POINT('',(131.,115.45,3.));
#238 = LINE('',#239,#240);
#239 = CARTESIAN_POINT('',(131.,118.725,3.));
#240 = VECTOR('',#241,1.);
#241 = DIRECTION('',(0.,1.,9.516449660064E-16));
#242 = ORIENTED_EDGE('',*,*,#243,.F.);
#243 = EDGE_CURVE('',#244,#236,#246,.T.);
#244 = VERTEX_POINT('',#245);
#245 = CARTESIAN_POINT('',(184.,115.45,3.));
#246 = LINE('',#247,#248);
#247 = CARTESIAN_POINT('',(184.,115.45,3.));
#248 = VECTOR('',#249,1.);
#249 = DIRECTION('',(-1.,0.,0.));
#250 = ORIENTED_EDGE('',*,*,#251,.F.);
#251 = EDGE_CURVE('',#252,#244,#254,.T.);
#252 = VERTEX_POINT('',#253);
#253 = CARTESIAN_POINT('',(184.,140.55,3.));
#254 = LINE('',#255,#256);
#255 = CARTESIAN_POINT('',(184.,140.55,3.));
#256 = VECTOR('',#257,1.);
#257 = DIRECTION('',(0.,-1.,-7.216449660064E-16));
#258 = ORIENTED_EDGE('',*,*,#259,.F.);
#259 = EDGE_CURVE('',#260,#252,#262,.T.);
#260 = VERTEX_POINT('',#261);
#261 = CARTESIAN_POINT('',(72.,140.55,3.));
#262 = LINE('',#263,#264);
#263 = CARTESIAN_POINT('',(72.,140.55,3.));
#264 = VECTOR('',#265,1.);
#265 = DIRECTION('',(1.,-2.E-17,-1.443289932013E-32));
#266 = ORIENTED_EDGE('',*,*,#267,.F.);
#267 = EDGE_CURVE('',#268,#260,#270,.T.);
#268 = VERTEX_POINT('',#269);
#269 = CARTESIAN_POINT('',(72.,115.45,3.));
#270 = LINE('',#271,#272);
#271 = CARTESIAN_POINT('',(72.,115.45,3.));
#272 = VECTOR('',#273,1.);
#273 = DIRECTION('',(0.,1.,7.216449660064E-16));
#274 = ORIENTED_EDGE('',*,*,#275,.F.);
#275 = EDGE_CURVE('',#179,#268,#276,.T.);
#276 = LINE('',#277,#278);
#277 = CARTESIAN_POINT('',(184.,115.45,3.));
#278 = VECTOR('',#279,1.);
#279 = DIRECTION('',(-1.,0.,0.));
#280 = ORIENTED_EDGE('',*,*,#178,.T.);
#281 = FACE_BOUND('',#282,.F.);
#282 = EDGE_LOOP('',(#283));
#283 = ORIENTED_EDGE('',*,*,#284,.F.);
#284 = EDGE_CURVE('',#285,#285,#287,.T.);
#285 = VERTEX_POINT('',#286);
#286 = CARTESIAN_POINT('',(66.3,126.45,3.));
#287 = CIRCLE('',#288,2.3);
#288 = AXIS2_PLACEMENT_3D('',#289,#290,#291);
#289 = CARTESIAN_POINT('',(64.,126.45,3.));
#290 = DIRECTION('',(0.,9.416449660064E-16,-1.));
#291 = DIRECTION('',(1.,0.,0.));
#292 = FACE_BOUND('',#293,.F.);
#293 = EDGE_LOOP('',(#294));
#294 = ORIENTED_EDGE('',*,*,#295,.F.);
#295 = EDGE_CURVE('',#296,#296,#298,.T.);
#296 = VERTEX_POINT('',#297);
#297 = CARTESIAN_POINT('',(194.3,126.45,3.));
#298 = CIRCLE('',#299,2.3);
#299 = AXIS2_PLACEMENT_3D('',#300,#301,#302);
#300 = CARTESIAN_POINT('',(192.,126.45,3.));
#301 = DIRECTION('',(0.,9.416449660064E-16,-1.));
#302 = DIRECTION('',(1.,0.,0.));
#303 = PLANE('',#304);
#304 = AXIS2_PLACEMENT_3D('',#305,#306,#307);
#305 = CARTESIAN_POINT('',(128.,128.,3.));
#306 = DIRECTION('',(0.,9.516449660064E-16,-1.));
#307 = DIRECTION('',(0.,1.,9.516449660064E-16));
#308 = ADVANCED_FACE('',(#309),#320,.F.);
#309 = FACE_BOUND('',#310,.F.);
#310 = EDGE_LOOP('',(#311,#317,#318,#319));
#311 = ORIENTED_EDGE('',*,*,#312,.T.);
#312 = EDGE_CURVE('',#63,#204,#313,.T.);
#313 = LINE('',#314,#315);
#314 = CARTESIAN_POINT('',(60.3,145.55,4.263256414561E-14));
#315 = VECTOR('',#316,1.);
#316 = DIRECTION('',(0.,-5.016449660064E-16,1.));
#317 = ORIENTED_EDGE('',*,*,#203,.T.);
#318 = ORIENTED_EDGE('',*,*,#31,.F.);
#319 = ORIENTED_EDGE('',*,*,#62,.F.);
#320 = PLANE('',#321);
#321 = AXIS2_PLACEMENT_3D('',#322,#323,#324);
#322 = CARTESIAN_POINT('',(60.3,145.55,4.263256414561E-14));
#323 = DIRECTION('',(1.,0.,0.));
#324 = DIRECTION('',(0.,-1.,-9.416449660064E-16));
#325 = ADVANCED_FACE('',(#326),#337,.F.);
#326 = FACE_BOUND('',#327,.F.);
#327 = EDGE_LOOP('',(#328,#329,#330,#331));
#328 = ORIENTED_EDGE('',*,*,#134,.F.);
#329 = ORIENTED_EDGE('',*,*,#188,.T.);
#330 = ORIENTED_EDGE('',*,*,#275,.T.);
#331 = ORIENTED_EDGE('',*,*,#332,.F.);
#332 = EDGE_CURVE('',#127,#268,#333,.T.);
#333 = LINE('',#334,#335);
#334 = CARTESIAN_POINT('',(72.,115.45,7.105427357601E-15));
#335 = VECTOR('',#336,1.);
#336 = DIRECTION('',(0.,-5.016449660064E-16,1.));
#337 = PLANE('',#338);
#338 = AXIS2_PLACEMENT_3D('',#339,#340,#341);
#339 = CARTESIAN_POINT('',(184.,115.45,7.105427357601E-15));
#340 = DIRECTION('',(0.,-1.,-5.016449660064E-16));
#341 = DIRECTION('',(-1.,0.,0.));
#342 = ADVANCED_FACE('',(#343),#354,.F.);
#343 = FACE_BOUND('',#344,.F.);
#344 = EDGE_LOOP('',(#345,#346,#347,#353));
#345 = ORIENTED_EDGE('',*,*,#332,.T.);
#346 = ORIENTED_EDGE('',*,*,#267,.T.);
#347 = ORIENTED_EDGE('',*,*,#348,.F.);
#348 = EDGE_CURVE('',#119,#260,#349,.T.);
#349 = LINE('',#350,#351);
#350 = CARTESIAN_POINT('',(72.,140.55,3.552713678801E-14));
#351 = VECTOR('',#352,1.);
#352 = DIRECTION('',(0.,-5.016449660064E-16,1.));
#353 = ORIENTED_EDGE('',*,*,#126,.F.);
#354 = PLANE('',#355);
#355 = AXIS2_PLACEMENT_3D('',#356,#357,#358);
#356 = CARTESIAN_POINT('',(72.,115.45,7.105427357601E-15));
#357 = DIRECTION('',(-1.,0.,0.));
#358 = DIRECTION('',(0.,1.,9.416449660064E-16));
#359 = ADVANCED_FACE('',(#360),#371,.F.);
#360 = FACE_BOUND('',#361,.F.);
#361 = EDGE_LOOP('',(#362,#363,#364,#370));
#362 = ORIENTED_EDGE('',*,*,#348,.T.);
#363 = ORIENTED_EDGE('',*,*,#259,.T.);
#364 = ORIENTED_EDGE('',*,*,#365,.F.);
#365 = EDGE_CURVE('',#111,#252,#366,.T.);
#366 = LINE('',#367,#368);
#367 = CARTESIAN_POINT('',(184.,140.55,3.552713678801E-14));
#368 = VECTOR('',#369,1.);
#369 = DIRECTION('',(0.,-5.016449660064E-16,1.));
#370 = ORIENTED_EDGE('',*,*,#118,.F.);
#371 = PLANE('',#372);
#372 = AXIS2_PLACEMENT_3D('',#373,#374,#375);
#373 = CARTESIAN_POINT('',(72.,140.55,3.552713678801E-14));
#374 = DIRECTION('',(2.E-17,1.,5.016449660064E-16));
#375 = DIRECTION('',(1.,-2.E-17,-1.443289932013E-32));
#376 = ADVANCED_FACE('',(#377),#388,.F.);
#377 = FACE_BOUND('',#378,.F.);
#378 = EDGE_LOOP('',(#379,#380,#381,#387));
#379 = ORIENTED_EDGE('',*,*,#365,.T.);
#380 = ORIENTED_EDGE('',*,*,#251,.T.);
#381 = ORIENTED_EDGE('',*,*,#382,.F.);
#382 = EDGE_CURVE('',#103,#244,#383,.T.);
#383 = LINE('',#384,#385);
#384 = CARTESIAN_POINT('',(184.,115.45,7.105427357601E-15));
#385 = VECTOR('',#386,1.);
#386 = DIRECTION('',(0.,-5.016449660064E-16,1.));
#387 = ORIENTED_EDGE('',*,*,#110,.F.);
#388 = PLANE('',#389);
#389 = AXIS2_PLACEMENT_3D('',#390,#391,#392);
#390 = CARTESIAN_POINT('',(184.,140.55,3.552713678801E-14));
#391 = DIRECTION('',(1.,0.,0.));
#392 = DIRECTION('',(0.,-1.,-9.416449660064E-16));
#393 = ADVANCED_FACE('',(#394),#405,.F.);
#394 = FACE_BOUND('',#395,.F.);
#395 = EDGE_LOOP('',(#396,#397,#398,#399));
#396 = ORIENTED_EDGE('',*,*,#102,.F.);
#397 = ORIENTED_EDGE('',*,*,#382,.T.);
#398 = ORIENTED_EDGE('',*,*,#243,.T.);
#399 = ORIENTED_EDGE('',*,*,#400,.T.);
#400 = EDGE_CURVE('',#236,#95,#401,.T.);
#401 = LINE('',#402,#403);
#402 = CARTESIAN_POINT('',(131.,115.45,1.65));
#403 = VECTOR('',#404,1.);
#404 = DIRECTION('',(0.,5.016449660064E-16,-1.));
#405 = PLANE('',#406);
#406 = AXIS2_PLACEMENT_3D('',#407,#408,#409);
#407 = CARTESIAN_POINT('',(184.,115.45,7.105427357601E-15));
#408 = DIRECTION('',(0.,-1.,-5.016449660064E-16));
#409 = DIRECTION('',(-1.,0.,0.));
#410 = ADVANCED_FACE('',(#411),#422,.T.);
#411 = FACE_BOUND('',#412,.T.);
#412 = EDGE_LOOP('',(#413,#414,#420,#421));
#413 = ORIENTED_EDGE('',*,*,#94,.F.);
#414 = ORIENTED_EDGE('',*,*,#415,.T.);
#415 = EDGE_CURVE('',#87,#228,#416,.T.);
#416 = LINE('',#417,#418);
#417 = CARTESIAN_POINT('',(131.,110.45,1.65));
#418 = VECTOR('',#419,1.);
#419 = DIRECTION('',(0.,-5.016449660064E-16,1.));
#420 = ORIENTED_EDGE('',*,*,#235,.T.);
#421 = ORIENTED_EDGE('',*,*,#400,.T.);
#422 = PLANE('',#423);
#423 = AXIS2_PLACEMENT_3D('',#424,#425,#426);
#424 = CARTESIAN_POINT('',(131.,109.45,3.3));
#425 = DIRECTION('',(-1.,0.,0.));
#426 = DIRECTION('',(0.,7.216449660064E-16,-1.));
#427 = ADVANCED_FACE('',(#428),#439,.F.);
#428 = FACE_BOUND('',#429,.F.);
#429 = EDGE_LOOP('',(#430,#431,#432,#433));
#430 = ORIENTED_EDGE('',*,*,#86,.F.);
#431 = ORIENTED_EDGE('',*,*,#415,.T.);
#432 = ORIENTED_EDGE('',*,*,#227,.T.);
#433 = ORIENTED_EDGE('',*,*,#434,.F.);
#434 = EDGE_CURVE('',#79,#220,#435,.T.);
#435 = LINE('',#436,#437);
#436 = CARTESIAN_POINT('',(195.7,110.45,7.105427357601E-15));
#437 = VECTOR('',#438,1.);
#438 = DIRECTION('',(0.,-5.016449660064E-16,1.));
#439 = PLANE('',#440);
#440 = AXIS2_PLACEMENT_3D('',#441,#442,#443);
#441 = CARTESIAN_POINT('',(60.3,110.45,7.105427357601E-15));
#442 = DIRECTION('',(0.,1.,5.016449660064E-16));
#443 = DIRECTION('',(1.,0.,0.));
#444 = ADVANCED_FACE('',(#445),#456,.F.);
#445 = FACE_BOUND('',#446,.F.);
#446 = EDGE_LOOP('',(#447,#448,#449,#455));
#447 = ORIENTED_EDGE('',*,*,#434,.T.);
#448 = ORIENTED_EDGE('',*,*,#219,.T.);
#449 = ORIENTED_EDGE('',*,*,#450,.F.);
#450 = EDGE_CURVE('',#71,#212,#451,.T.);
#451 = LINE('',#452,#453);
#452 = CARTESIAN_POINT('',(195.7,145.55,4.263256414561E-14));
#453 = VECTOR('',#454,1.);
#454 = DIRECTION('',(0.,-5.016449660064E-16,1.));
#455 = ORIENTED_EDGE('',*,*,#78,.F.);
#456 = PLANE('',#457);
#457 = AXIS2_PLACEMENT_3D('',#458,#459,#460);
#458 = CARTESIAN_POINT('',(195.7,110.45,7.105427357601E-15));
#459 = DIRECTION('',(-1.,0.,0.));
#460 = DIRECTION('',(0.,1.,9.416449660064E-16));
#461 = ADVANCED_FACE('',(#462),#468,.F.);
#462 = FACE_BOUND('',#463,.F.);
#463 = EDGE_LOOP('',(#464,#465,#466,#467));
#464 = ORIENTED_EDGE('',*,*,#450,.T.);
#465 = ORIENTED_EDGE('',*,*,#211,.T.);
#466 = ORIENTED_EDGE('',*,*,#312,.F.);
#467 = ORIENTED_EDGE('',*,*,#70,.F.);
#468 = PLANE('',#469);
#469 = AXIS2_PLACEMENT_3D('',#470,#471,#472);
#470 = CARTESIAN_POINT('',(195.7,145.55,4.263256414561E-14));
#471 = DIRECTION('',(1.E-17,-1.,-5.016449660064E-16));
#472 = DIRECTION('',(-1.,-1.E-17,-7.216449660064E-33));
#473 = ADVANCED_FACE('',(#474),#485,.F.);
#474 = FACE_BOUND('',#475,.T.);
#475 = EDGE_LOOP('',(#476,#477,#483,#484));
#476 = ORIENTED_EDGE('',*,*,#150,.T.);
#477 = ORIENTED_EDGE('',*,*,#478,.T.);
#478 = EDGE_CURVE('',#151,#285,#479,.T.);
#479 = LINE('',#480,#481);
#480 = CARTESIAN_POINT('',(66.3,126.45,-1.));
#481 = VECTOR('',#482,1.);
#482 = DIRECTION('',(0.,-5.016449660064E-16,1.));
#483 = ORIENTED_EDGE('',*,*,#284,.F.);
#484 = ORIENTED_EDGE('',*,*,#478,.F.);
#485 = CYLINDRICAL_SURFACE('',#486,2.3);
#486 = AXIS2_PLACEMENT_3D('',#487,#488,#489);
#487 = CARTESIAN_POINT('',(64.,126.45,-1.));
#488 = DIRECTION('',(0.,9.416449660064E-16,-1.));
#489 = DIRECTION('',(1.,0.,0.));
#490 = ADVANCED_FACE('',(#491),#502,.F.);
#491 = FACE_BOUND('',#492,.T.);
#492 = EDGE_LOOP('',(#493,#494,#500,#501));
#493 = ORIENTED_EDGE('',*,*,#161,.T.);
#494 = ORIENTED_EDGE('',*,*,#495,.T.);
#495 = EDGE_CURVE('',#162,#296,#496,.T.);
#496 = LINE('',#497,#498);
#497 = CARTESIAN_POINT('',(194.3,126.45,-1.));
#498 = VECTOR('',#499,1.);
#499 = DIRECTION('',(0.,-5.016449660064E-16,1.));
#500 = ORIENTED_EDGE('',*,*,#295,.F.);
#501 = ORIENTED_EDGE('',*,*,#495,.F.);
#502 = CYLINDRICAL_SURFACE('',#503,2.3);
#503 = AXIS2_PLACEMENT_3D('',#504,#505,#506);
#504 = CARTESIAN_POINT('',(192.,126.45,-1.));
#505 = DIRECTION('',(0.,9.416449660064E-16,-1.));
#506 = DIRECTION('',(1.,0.,0.));
#507 = ( GEOMETRIC_REPRESENTATION_CONTEXT(3) 
GLOBAL_UNCERTAINTY_ASSIGNED_CONTEXT((#511)) GLOBAL_UNIT_ASSIGNED_CONTEXT
((#508,#509,#510)) REPRESENTATION_CONTEXT('Context #1',
  '3D Context with UNIT and UNCERTAINTY') );
#508 = ( LENGTH_UNIT() NAMED_UNIT(*) SI_UNIT(.MILLI.,.METRE.) );
#509 = ( NAMED_UNIT(*) PLANE_ANGLE_UNIT() SI_UNIT($,.RADIAN.) );
#510 = ( NAMED_UNIT(*) SI_UNIT($,.STERADIAN.) SOLID_ANGLE_UNIT() );
#511 = UNCERTAINTY_MEASURE_WITH_UNIT(LENGTH_MEASURE(2.E-05),#508,
  'distance_accuracy_value','confusion accuracy');
#512 = PRODUCT_RELATED_PRODUCT_CATEGORY('part',$,(#7));
ENDSEC;
END-ISO-10303-21;
