ISO-10303-21;
HEADER;
FILE_DESCRIPTION(('FreeCAD Model'),'2;1');
FILE_NAME('Open CASCADE Shape Model','2026-09-08T10:16:49',('FreeCAD'),(
    'FreeCAD'),'Open CASCADE STEP processor 7.8','FreeCAD','Unknown');
FILE_SCHEMA(('AUTOMOTIVE_DESIGN { 1 0 10303 214 1 1 1 1 }'));
ENDSEC;
DATA;
#1 = APPLICATION_PROTOCOL_DEFINITION('international standard',
  'automotive_design',2000,#2);
#2 = APPLICATION_CONTEXT(
  'core data for automotive mechanical design processes');
#3 = SHAPE_DEFINITION_REPRESENTATION(#4,#10);
#4 = PRODUCT_DEFINITION_SHAPE('','',#5);
#5 = PRODUCT_DEFINITION('design','',#6,#9);
#6 = PRODUCT_DEFINITION_FORMATION('','',#7);
#7 = PRODUCT('Open CASCADE STEP translator 7.8 10',
  'Open CASCADE STEP translator 7.8 10','',(#8));
#8 = PRODUCT_CONTEXT('',#2,'mechanical');
#9 = PRODUCT_DEFINITION_CONTEXT('part definition',#2,'design');
#10 = ADVANCED_BREP_SHAPE_REPRESENTATION('',(#11,#15),#527);
#11 = AXIS2_PLACEMENT_3D('',#12,#13,#14);
#12 = CARTESIAN_POINT('',(0.,0.,0.));
#13 = DIRECTION('',(0.,0.,1.));
#14 = DIRECTION('',(1.,0.,-0.));
#15 = MANIFOLD_SOLID_BREP('',#16);
#16 = CLOSED_SHELL('',(#17,#57,#156,#187,#204,#221,#233,#275,#299,#334,
    #351,#393,#417,#452,#469,#481,#498,#510));
#17 = ADVANCED_FACE('',(#18),#52,.F.);
#18 = FACE_BOUND('',#19,.F.);
#19 = EDGE_LOOP('',(#20,#30,#38,#46));
#20 = ORIENTED_EDGE('',*,*,#21,.T.);
#21 = EDGE_CURVE('',#22,#24,#26,.T.);
#22 = VERTEX_POINT('',#23);
#23 = CARTESIAN_POINT('',(112.,122.,3.));
#24 = VERTEX_POINT('',#25);
#25 = CARTESIAN_POINT('',(144.,122.,3.));
#26 = LINE('',#27,#28);
#27 = CARTESIAN_POINT('',(112.,122.,3.));
#28 = VECTOR('',#29,1.);
#29 = DIRECTION('',(1.,0.,1.110223024625E-16));
#30 = ORIENTED_EDGE('',*,*,#31,.T.);
#31 = EDGE_CURVE('',#24,#32,#34,.T.);
#32 = VERTEX_POINT('',#33);
#33 = CARTESIAN_POINT('',(144.,122.,0.));
#34 = LINE('',#35,#36);
#35 = CARTESIAN_POINT('',(144.,122.,3.));
#36 = VECTOR('',#37,1.);
#37 = DIRECTION('',(1.110223024625E-16,0.,-1.));
#38 = ORIENTED_EDGE('',*,*,#39,.F.);
#39 = EDGE_CURVE('',#40,#32,#42,.T.);
#40 = VERTEX_POINT('',#41);
#41 = CARTESIAN_POINT('',(112.,122.,0.));
#42 = LINE('',#43,#44);
#43 = CARTESIAN_POINT('',(112.,122.,1.110223024625E-14));
#44 = VECTOR('',#45,1.);
#45 = DIRECTION('',(1.,0.,1.110223024625E-16));
#46 = ORIENTED_EDGE('',*,*,#47,.F.);
#47 = EDGE_CURVE('',#22,#40,#48,.T.);
#48 = LINE('',#49,#50);
#49 = CARTESIAN_POINT('',(112.,122.,3.));
#50 = VECTOR('',#51,1.);
#51 = DIRECTION('',(1.110223024625E-16,0.,-1.));
#52 = PLANE('',#53);
#53 = AXIS2_PLACEMENT_3D('',#54,#55,#56);
#54 = CARTESIAN_POINT('',(112.,122.,3.));
#55 = DIRECTION('',(0.,1.,0.));
#56 = DIRECTION('',(1.110223024625E-16,0.,-1.));
#57 = ADVANCED_FACE('',(#58,#83,#117),#151,.F.);
#58 = FACE_BOUND('',#59,.F.);
#59 = EDGE_LOOP('',(#60,#70,#76,#77));
#60 = ORIENTED_EDGE('',*,*,#61,.T.);
#61 = EDGE_CURVE('',#62,#64,#66,.T.);
#62 = VERTEX_POINT('',#63);
#63 = CARTESIAN_POINT('',(112.,134.,3.));
#64 = VERTEX_POINT('',#65);
#65 = CARTESIAN_POINT('',(144.,134.,3.));
#66 = LINE('',#67,#68);
#67 = CARTESIAN_POINT('',(112.,134.,3.));
#68 = VECTOR('',#69,1.);
#69 = DIRECTION('',(1.,0.,1.110223024625E-16));
#70 = ORIENTED_EDGE('',*,*,#71,.T.);
#71 = EDGE_CURVE('',#64,#24,#72,.T.);
#72 = LINE('',#73,#74);
#73 = CARTESIAN_POINT('',(144.,134.,3.));
#74 = VECTOR('',#75,1.);
#75 = DIRECTION('',(1.110223024625E-33,-1.,-1.E-17));
#76 = ORIENTED_EDGE('',*,*,#21,.F.);
#77 = ORIENTED_EDGE('',*,*,#78,.F.);
#78 = EDGE_CURVE('',#62,#22,#79,.T.);
#79 = LINE('',#80,#81);
#80 = CARTESIAN_POINT('',(112.,134.,3.));
#81 = VECTOR('',#82,1.);
#82 = DIRECTION('',(1.110223024625E-33,-1.,-1.E-17));
#83 = FACE_BOUND('',#84,.F.);
#84 = EDGE_LOOP('',(#85,#95,#103,#111));
#85 = ORIENTED_EDGE('',*,*,#86,.F.);
#86 = EDGE_CURVE('',#87,#89,#91,.T.);
#87 = VERTEX_POINT('',#88);
#88 = CARTESIAN_POINT('',(137.5,124.,3.));
#89 = VERTEX_POINT('',#90);
#90 = CARTESIAN_POINT('',(137.5,132.,3.));
#91 = LINE('',#92,#93);
#92 = CARTESIAN_POINT('',(137.5,124.,3.));
#93 = VECTOR('',#94,1.);
#94 = DIRECTION('',(-9.992007221626E-33,1.,9.E-17));
#95 = ORIENTED_EDGE('',*,*,#96,.T.);
#96 = EDGE_CURVE('',#87,#97,#99,.T.);
#97 = VERTEX_POINT('',#98);
#98 = CARTESIAN_POINT('',(142.5,124.,3.));
#99 = LINE('',#100,#101);
#100 = CARTESIAN_POINT('',(137.5,124.,3.));
#101 = VECTOR('',#102,1.);
#102 = DIRECTION('',(1.,0.,1.110223024625E-16));
#103 = ORIENTED_EDGE('',*,*,#104,.T.);
#104 = EDGE_CURVE('',#97,#105,#107,.T.);
#105 = VERTEX_POINT('',#106);
#106 = CARTESIAN_POINT('',(142.5,132.,3.));
#107 = LINE('',#108,#109);
#108 = CARTESIAN_POINT('',(142.5,124.,3.));
#109 = VECTOR('',#110,1.);
#110 = DIRECTION('',(-9.992007221626E-33,1.,9.E-17));
#111 = ORIENTED_EDGE('',*,*,#112,.F.);
#112 = EDGE_CURVE('',#89,#105,#113,.T.);
#113 = LINE('',#114,#115);
#114 = CARTESIAN_POINT('',(137.5,132.,3.));
#115 = VECTOR('',#116,1.);
#116 = DIRECTION('',(1.,0.,1.110223024625E-16));
#117 = FACE_BOUND('',#118,.F.);
#118 = EDGE_LOOP('',(#119,#129,#137,#145));
#119 = ORIENTED_EDGE('',*,*,#120,.F.);
#120 = EDGE_CURVE('',#121,#123,#125,.T.);
#121 = VERTEX_POINT('',#122);
#122 = CARTESIAN_POINT('',(113.5,124.,3.));
#123 = VERTEX_POINT('',#124);
#124 = CARTESIAN_POINT('',(113.5,132.,3.));
#125 = LINE('',#126,#127);
#126 = CARTESIAN_POINT('',(113.5,124.,3.));
#127 = VECTOR('',#128,1.);
#128 = DIRECTION('',(-9.992007221626E-33,1.,9.E-17));
#129 = ORIENTED_EDGE('',*,*,#130,.T.);
#130 = EDGE_CURVE('',#121,#131,#133,.T.);
#131 = VERTEX_POINT('',#132);
#132 = CARTESIAN_POINT('',(118.5,124.,3.));
#133 = LINE('',#134,#135);
#134 = CARTESIAN_POINT('',(113.5,124.,3.));
#135 = VECTOR('',#136,1.);
#136 = DIRECTION('',(1.,0.,1.110223024625E-16));
#137 = ORIENTED_EDGE('',*,*,#138,.T.);
#138 = EDGE_CURVE('',#131,#139,#141,.T.);
#139 = VERTEX_POINT('',#140);
#140 = CARTESIAN_POINT('',(118.5,132.,3.));
#141 = LINE('',#142,#143);
#142 = CARTESIAN_POINT('',(118.5,124.,3.));
#143 = VECTOR('',#144,1.);
#144 = DIRECTION('',(-9.992007221626E-33,1.,9.E-17));
#145 = ORIENTED_EDGE('',*,*,#146,.F.);
#146 = EDGE_CURVE('',#123,#139,#147,.T.);
#147 = LINE('',#148,#149);
#148 = CARTESIAN_POINT('',(113.5,132.,3.));
#149 = VECTOR('',#150,1.);
#150 = DIRECTION('',(1.,0.,1.110223024625E-16));
#151 = PLANE('',#152);
#152 = AXIS2_PLACEMENT_3D('',#153,#154,#155);
#153 = CARTESIAN_POINT('',(112.,134.,3.));
#154 = DIRECTION('',(1.110223024625E-16,1.E-17,-1.));
#155 = DIRECTION('',(1.110223024625E-33,-1.,-1.E-17));
#156 = ADVANCED_FACE('',(#157),#182,.F.);
#157 = FACE_BOUND('',#158,.F.);
#158 = EDGE_LOOP('',(#159,#160,#168,#176));
#159 = ORIENTED_EDGE('',*,*,#39,.T.);
#160 = ORIENTED_EDGE('',*,*,#161,.T.);
#161 = EDGE_CURVE('',#32,#162,#164,.T.);
#162 = VERTEX_POINT('',#163);
#163 = CARTESIAN_POINT('',(144.,134.,0.));
#164 = LINE('',#165,#166);
#165 = CARTESIAN_POINT('',(144.,122.,1.465494392505E-14));
#166 = VECTOR('',#167,1.);
#167 = DIRECTION('',(0.,1.,0.));
#168 = ORIENTED_EDGE('',*,*,#169,.F.);
#169 = EDGE_CURVE('',#170,#162,#172,.T.);
#170 = VERTEX_POINT('',#171);
#171 = CARTESIAN_POINT('',(112.,134.,0.));
#172 = LINE('',#173,#174);
#173 = CARTESIAN_POINT('',(112.,134.,1.110223024625E-14));
#174 = VECTOR('',#175,1.);
#175 = DIRECTION('',(1.,0.,1.110223024625E-16));
#176 = ORIENTED_EDGE('',*,*,#177,.F.);
#177 = EDGE_CURVE('',#40,#170,#178,.T.);
#178 = LINE('',#179,#180);
#179 = CARTESIAN_POINT('',(112.,122.,1.110223024625E-14));
#180 = VECTOR('',#181,1.);
#181 = DIRECTION('',(0.,1.,0.));
#182 = PLANE('',#183);
#183 = AXIS2_PLACEMENT_3D('',#184,#185,#186);
#184 = CARTESIAN_POINT('',(112.,122.,1.110223024625E-14));
#185 = DIRECTION('',(-1.110223024625E-16,0.,1.));
#186 = DIRECTION('',(0.,1.,0.));
#187 = ADVANCED_FACE('',(#188),#199,.F.);
#188 = FACE_BOUND('',#189,.F.);
#189 = EDGE_LOOP('',(#190,#191,#192,#198));
#190 = ORIENTED_EDGE('',*,*,#47,.T.);
#191 = ORIENTED_EDGE('',*,*,#177,.T.);
#192 = ORIENTED_EDGE('',*,*,#193,.T.);
#193 = EDGE_CURVE('',#170,#62,#194,.T.);
#194 = LINE('',#195,#196);
#195 = CARTESIAN_POINT('',(112.,134.,1.110223024625E-14));
#196 = VECTOR('',#197,1.);
#197 = DIRECTION('',(-1.110223024625E-16,0.,1.));
#198 = ORIENTED_EDGE('',*,*,#78,.T.);
#199 = PLANE('',#200);
#200 = AXIS2_PLACEMENT_3D('',#201,#202,#203);
#201 = CARTESIAN_POINT('',(112.,128.,1.5));
#202 = DIRECTION('',(1.,0.,1.110223024625E-16));
#203 = DIRECTION('',(1.110223024625E-16,0.,-1.));
#204 = ADVANCED_FACE('',(#205),#216,.T.);
#205 = FACE_BOUND('',#206,.T.);
#206 = EDGE_LOOP('',(#207,#208,#209,#215));
#207 = ORIENTED_EDGE('',*,*,#31,.T.);
#208 = ORIENTED_EDGE('',*,*,#161,.T.);
#209 = ORIENTED_EDGE('',*,*,#210,.T.);
#210 = EDGE_CURVE('',#162,#64,#211,.T.);
#211 = LINE('',#212,#213);
#212 = CARTESIAN_POINT('',(144.,134.,1.465494392505E-14));
#213 = VECTOR('',#214,1.);
#214 = DIRECTION('',(-1.110223024625E-16,0.,1.));
#215 = ORIENTED_EDGE('',*,*,#71,.T.);
#216 = PLANE('',#217);
#217 = AXIS2_PLACEMENT_3D('',#218,#219,#220);
#218 = CARTESIAN_POINT('',(144.,128.,1.5));
#219 = DIRECTION('',(1.,0.,1.110223024625E-16));
#220 = DIRECTION('',(1.110223024625E-16,0.,-1.));
#221 = ADVANCED_FACE('',(#222),#228,.F.);
#222 = FACE_BOUND('',#223,.F.);
#223 = EDGE_LOOP('',(#224,#225,#226,#227));
#224 = ORIENTED_EDGE('',*,*,#169,.T.);
#225 = ORIENTED_EDGE('',*,*,#210,.T.);
#226 = ORIENTED_EDGE('',*,*,#61,.F.);
#227 = ORIENTED_EDGE('',*,*,#193,.F.);
#228 = PLANE('',#229);
#229 = AXIS2_PLACEMENT_3D('',#230,#231,#232);
#230 = CARTESIAN_POINT('',(112.,134.,1.110223024625E-14));
#231 = DIRECTION('',(0.,-1.,0.));
#232 = DIRECTION('',(-1.110223024625E-16,0.,1.));
#233 = ADVANCED_FACE('',(#234,#259),#270,.F.);
#234 = FACE_BOUND('',#235,.F.);
#235 = EDGE_LOOP('',(#236,#244,#245,#253));
#236 = ORIENTED_EDGE('',*,*,#237,.T.);
#237 = EDGE_CURVE('',#238,#87,#240,.T.);
#238 = VERTEX_POINT('',#239);
#239 = CARTESIAN_POINT('',(137.5,124.,25.2));
#240 = LINE('',#241,#242);
#241 = CARTESIAN_POINT('',(137.5,124.,25.2));
#242 = VECTOR('',#243,1.);
#243 = DIRECTION('',(1.110223024625E-16,0.,-1.));
#244 = ORIENTED_EDGE('',*,*,#86,.T.);
#245 = ORIENTED_EDGE('',*,*,#246,.T.);
#246 = EDGE_CURVE('',#89,#247,#249,.T.);
#247 = VERTEX_POINT('',#248);
#248 = CARTESIAN_POINT('',(137.5,132.,25.2));
#249 = LINE('',#250,#251);
#250 = CARTESIAN_POINT('',(137.5,132.,3.));
#251 = VECTOR('',#252,1.);
#252 = DIRECTION('',(-1.110223024625E-16,0.,1.));
#253 = ORIENTED_EDGE('',*,*,#254,.T.);
#254 = EDGE_CURVE('',#247,#238,#255,.T.);
#255 = LINE('',#256,#257);
#256 = CARTESIAN_POINT('',(137.5,132.,25.2));
#257 = VECTOR('',#258,1.);
#258 = DIRECTION('',(0.,-1.,0.));
#259 = FACE_BOUND('',#260,.F.);
#260 = EDGE_LOOP('',(#261));
#261 = ORIENTED_EDGE('',*,*,#262,.T.);
#262 = EDGE_CURVE('',#263,#263,#265,.T.);
#263 = VERTEX_POINT('',#264);
#264 = CARTESIAN_POINT('',(137.5,128.,19.6));
#265 = CIRCLE('',#266,1.8);
#266 = AXIS2_PLACEMENT_3D('',#267,#268,#269);
#267 = CARTESIAN_POINT('',(137.5,128.,21.4));
#268 = DIRECTION('',(-1.,-0.,-1.110223024625E-16));
#269 = DIRECTION('',(1.110223024625E-16,0.,-1.));
#270 = PLANE('',#271);
#271 = AXIS2_PLACEMENT_3D('',#272,#273,#274);
#272 = CARTESIAN_POINT('',(137.5,128.,14.1));
#273 = DIRECTION('',(1.,0.,1.110223024625E-16));
#274 = DIRECTION('',(1.110223024625E-16,0.,-1.));
#275 = ADVANCED_FACE('',(#276),#294,.F.);
#276 = FACE_BOUND('',#277,.F.);
#277 = EDGE_LOOP('',(#278,#279,#287,#293));
#278 = ORIENTED_EDGE('',*,*,#112,.T.);
#279 = ORIENTED_EDGE('',*,*,#280,.T.);
#280 = EDGE_CURVE('',#105,#281,#283,.T.);
#281 = VERTEX_POINT('',#282);
#282 = CARTESIAN_POINT('',(142.5,132.,25.2));
#283 = LINE('',#284,#285);
#284 = CARTESIAN_POINT('',(142.5,132.,3.));
#285 = VECTOR('',#286,1.);
#286 = DIRECTION('',(-1.110223024625E-16,0.,1.));
#287 = ORIENTED_EDGE('',*,*,#288,.F.);
#288 = EDGE_CURVE('',#247,#281,#289,.T.);
#289 = LINE('',#290,#291);
#290 = CARTESIAN_POINT('',(137.5,132.,25.2));
#291 = VECTOR('',#292,1.);
#292 = DIRECTION('',(1.,0.,1.110223024625E-16));
#293 = ORIENTED_EDGE('',*,*,#246,.F.);
#294 = PLANE('',#295);
#295 = AXIS2_PLACEMENT_3D('',#296,#297,#298);
#296 = CARTESIAN_POINT('',(137.5,132.,3.));
#297 = DIRECTION('',(0.,-1.,0.));
#298 = DIRECTION('',(-1.110223024625E-16,0.,1.));
#299 = ADVANCED_FACE('',(#300,#318),#329,.T.);
#300 = FACE_BOUND('',#301,.T.);
#301 = EDGE_LOOP('',(#302,#310,#311,#312));
#302 = ORIENTED_EDGE('',*,*,#303,.T.);
#303 = EDGE_CURVE('',#304,#97,#306,.T.);
#304 = VERTEX_POINT('',#305);
#305 = CARTESIAN_POINT('',(142.5,124.,25.2));
#306 = LINE('',#307,#308);
#307 = CARTESIAN_POINT('',(142.5,124.,25.2));
#308 = VECTOR('',#309,1.);
#309 = DIRECTION('',(1.110223024625E-16,0.,-1.));
#310 = ORIENTED_EDGE('',*,*,#104,.T.);
#311 = ORIENTED_EDGE('',*,*,#280,.T.);
#312 = ORIENTED_EDGE('',*,*,#313,.T.);
#313 = EDGE_CURVE('',#281,#304,#314,.T.);
#314 = LINE('',#315,#316);
#315 = CARTESIAN_POINT('',(142.5,132.,25.2));
#316 = VECTOR('',#317,1.);
#317 = DIRECTION('',(0.,-1.,0.));
#318 = FACE_BOUND('',#319,.T.);
#319 = EDGE_LOOP('',(#320));
#320 = ORIENTED_EDGE('',*,*,#321,.T.);
#321 = EDGE_CURVE('',#322,#322,#324,.T.);
#322 = VERTEX_POINT('',#323);
#323 = CARTESIAN_POINT('',(142.5,128.,19.6));
#324 = CIRCLE('',#325,1.8);
#325 = AXIS2_PLACEMENT_3D('',#326,#327,#328);
#326 = CARTESIAN_POINT('',(142.5,128.,21.4));
#327 = DIRECTION('',(-1.,-0.,-1.110223024625E-16));
#328 = DIRECTION('',(1.110223024625E-16,0.,-1.));
#329 = PLANE('',#330);
#330 = AXIS2_PLACEMENT_3D('',#331,#332,#333);
#331 = CARTESIAN_POINT('',(142.5,128.,14.1));
#332 = DIRECTION('',(1.,0.,1.110223024625E-16));
#333 = DIRECTION('',(1.110223024625E-16,0.,-1.));
#334 = ADVANCED_FACE('',(#335),#346,.F.);
#335 = FACE_BOUND('',#336,.F.);
#336 = EDGE_LOOP('',(#337,#343,#344,#345));
#337 = ORIENTED_EDGE('',*,*,#338,.T.);
#338 = EDGE_CURVE('',#238,#304,#339,.T.);
#339 = LINE('',#340,#341);
#340 = CARTESIAN_POINT('',(137.5,124.,25.2));
#341 = VECTOR('',#342,1.);
#342 = DIRECTION('',(1.,0.,1.110223024625E-16));
#343 = ORIENTED_EDGE('',*,*,#303,.T.);
#344 = ORIENTED_EDGE('',*,*,#96,.F.);
#345 = ORIENTED_EDGE('',*,*,#237,.F.);
#346 = PLANE('',#347);
#347 = AXIS2_PLACEMENT_3D('',#348,#349,#350);
#348 = CARTESIAN_POINT('',(137.5,124.,25.2));
#349 = DIRECTION('',(0.,1.,0.));
#350 = DIRECTION('',(1.110223024625E-16,0.,-1.));
#351 = ADVANCED_FACE('',(#352,#377),#388,.F.);
#352 = FACE_BOUND('',#353,.F.);
#353 = EDGE_LOOP('',(#354,#362,#363,#371));
#354 = ORIENTED_EDGE('',*,*,#355,.T.);
#355 = EDGE_CURVE('',#356,#121,#358,.T.);
#356 = VERTEX_POINT('',#357);
#357 = CARTESIAN_POINT('',(113.5,124.,25.2));
#358 = LINE('',#359,#360);
#359 = CARTESIAN_POINT('',(113.5,124.,25.2));
#360 = VECTOR('',#361,1.);
#361 = DIRECTION('',(1.110223024625E-16,0.,-1.));
#362 = ORIENTED_EDGE('',*,*,#120,.T.);
#363 = ORIENTED_EDGE('',*,*,#364,.T.);
#364 = EDGE_CURVE('',#123,#365,#367,.T.);
#365 = VERTEX_POINT('',#366);
#366 = CARTESIAN_POINT('',(113.5,132.,25.2));
#367 = LINE('',#368,#369);
#368 = CARTESIAN_POINT('',(113.5,132.,3.));
#369 = VECTOR('',#370,1.);
#370 = DIRECTION('',(-1.110223024625E-16,0.,1.));
#371 = ORIENTED_EDGE('',*,*,#372,.T.);
#372 = EDGE_CURVE('',#365,#356,#373,.T.);
#373 = LINE('',#374,#375);
#374 = CARTESIAN_POINT('',(113.5,132.,25.2));
#375 = VECTOR('',#376,1.);
#376 = DIRECTION('',(0.,-1.,0.));
#377 = FACE_BOUND('',#378,.F.);
#378 = EDGE_LOOP('',(#379));
#379 = ORIENTED_EDGE('',*,*,#380,.T.);
#380 = EDGE_CURVE('',#381,#381,#383,.T.);
#381 = VERTEX_POINT('',#382);
#382 = CARTESIAN_POINT('',(113.5,128.,19.6));
#383 = CIRCLE('',#384,1.8);
#384 = AXIS2_PLACEMENT_3D('',#385,#386,#387);
#385 = CARTESIAN_POINT('',(113.5,128.,21.4));
#386 = DIRECTION('',(-1.,-0.,-1.110223024625E-16));
#387 = DIRECTION('',(1.110223024625E-16,0.,-1.));
#388 = PLANE('',#389);
#389 = AXIS2_PLACEMENT_3D('',#390,#391,#392);
#390 = CARTESIAN_POINT('',(113.5,128.,14.1));
#391 = DIRECTION('',(1.,0.,1.110223024625E-16));
#392 = DIRECTION('',(1.110223024625E-16,0.,-1.));
#393 = ADVANCED_FACE('',(#394),#412,.F.);
#394 = FACE_BOUND('',#395,.F.);
#395 = EDGE_LOOP('',(#396,#397,#405,#411));
#396 = ORIENTED_EDGE('',*,*,#146,.T.);
#397 = ORIENTED_EDGE('',*,*,#398,.T.);
#398 = EDGE_CURVE('',#139,#399,#401,.T.);
#399 = VERTEX_POINT('',#400);
#400 = CARTESIAN_POINT('',(118.5,132.,25.2));
#401 = LINE('',#402,#403);
#402 = CARTESIAN_POINT('',(118.5,132.,3.));
#403 = VECTOR('',#404,1.);
#404 = DIRECTION('',(-1.110223024625E-16,0.,1.));
#405 = ORIENTED_EDGE('',*,*,#406,.F.);
#406 = EDGE_CURVE('',#365,#399,#407,.T.);
#407 = LINE('',#408,#409);
#408 = CARTESIAN_POINT('',(113.5,132.,25.2));
#409 = VECTOR('',#410,1.);
#410 = DIRECTION('',(1.,0.,1.110223024625E-16));
#411 = ORIENTED_EDGE('',*,*,#364,.F.);
#412 = PLANE('',#413);
#413 = AXIS2_PLACEMENT_3D('',#414,#415,#416);
#414 = CARTESIAN_POINT('',(113.5,132.,3.));
#415 = DIRECTION('',(0.,-1.,0.));
#416 = DIRECTION('',(-1.110223024625E-16,0.,1.));
#417 = ADVANCED_FACE('',(#418,#436),#447,.T.);
#418 = FACE_BOUND('',#419,.T.);
#419 = EDGE_LOOP('',(#420,#428,#429,#430));
#420 = ORIENTED_EDGE('',*,*,#421,.T.);
#421 = EDGE_CURVE('',#422,#131,#424,.T.);
#422 = VERTEX_POINT('',#423);
#423 = CARTESIAN_POINT('',(118.5,124.,25.2));
#424 = LINE('',#425,#426);
#425 = CARTESIAN_POINT('',(118.5,124.,25.2));
#426 = VECTOR('',#427,1.);
#427 = DIRECTION('',(1.110223024625E-16,0.,-1.));
#428 = ORIENTED_EDGE('',*,*,#138,.T.);
#429 = ORIENTED_EDGE('',*,*,#398,.T.);
#430 = ORIENTED_EDGE('',*,*,#431,.T.);
#431 = EDGE_CURVE('',#399,#422,#432,.T.);
#432 = LINE('',#433,#434);
#433 = CARTESIAN_POINT('',(118.5,132.,25.2));
#434 = VECTOR('',#435,1.);
#435 = DIRECTION('',(0.,-1.,0.));
#436 = FACE_BOUND('',#437,.T.);
#437 = EDGE_LOOP('',(#438));
#438 = ORIENTED_EDGE('',*,*,#439,.T.);
#439 = EDGE_CURVE('',#440,#440,#442,.T.);
#440 = VERTEX_POINT('',#441);
#441 = CARTESIAN_POINT('',(118.5,128.,19.6));
#442 = CIRCLE('',#443,1.8);
#443 = AXIS2_PLACEMENT_3D('',#444,#445,#446);
#444 = CARTESIAN_POINT('',(118.5,128.,21.4));
#445 = DIRECTION('',(-1.,-0.,-1.110223024625E-16));
#446 = DIRECTION('',(1.110223024625E-16,0.,-1.));
#447 = PLANE('',#448);
#448 = AXIS2_PLACEMENT_3D('',#449,#450,#451);
#449 = CARTESIAN_POINT('',(118.5,128.,14.1));
#450 = DIRECTION('',(1.,0.,1.110223024625E-16));
#451 = DIRECTION('',(1.110223024625E-16,0.,-1.));
#452 = ADVANCED_FACE('',(#453),#464,.F.);
#453 = FACE_BOUND('',#454,.F.);
#454 = EDGE_LOOP('',(#455,#461,#462,#463));
#455 = ORIENTED_EDGE('',*,*,#456,.T.);
#456 = EDGE_CURVE('',#356,#422,#457,.T.);
#457 = LINE('',#458,#459);
#458 = CARTESIAN_POINT('',(113.5,124.,25.2));
#459 = VECTOR('',#460,1.);
#460 = DIRECTION('',(1.,0.,1.110223024625E-16));
#461 = ORIENTED_EDGE('',*,*,#421,.T.);
#462 = ORIENTED_EDGE('',*,*,#130,.F.);
#463 = ORIENTED_EDGE('',*,*,#355,.F.);
#464 = PLANE('',#465);
#465 = AXIS2_PLACEMENT_3D('',#466,#467,#468);
#466 = CARTESIAN_POINT('',(113.5,124.,25.2));
#467 = DIRECTION('',(0.,1.,0.));
#468 = DIRECTION('',(1.110223024625E-16,0.,-1.));
#469 = ADVANCED_FACE('',(#470),#476,.F.);
#470 = FACE_BOUND('',#471,.F.);
#471 = EDGE_LOOP('',(#472,#473,#474,#475));
#472 = ORIENTED_EDGE('',*,*,#288,.T.);
#473 = ORIENTED_EDGE('',*,*,#313,.T.);
#474 = ORIENTED_EDGE('',*,*,#338,.F.);
#475 = ORIENTED_EDGE('',*,*,#254,.F.);
#476 = PLANE('',#477);
#477 = AXIS2_PLACEMENT_3D('',#478,#479,#480);
#478 = CARTESIAN_POINT('',(137.5,132.,25.2));
#479 = DIRECTION('',(1.110223024625E-16,0.,-1.));
#480 = DIRECTION('',(0.,-1.,0.));
#481 = ADVANCED_FACE('',(#482),#493,.F.);
#482 = FACE_BOUND('',#483,.T.);
#483 = EDGE_LOOP('',(#484,#485,#491,#492));
#484 = ORIENTED_EDGE('',*,*,#262,.T.);
#485 = ORIENTED_EDGE('',*,*,#486,.T.);
#486 = EDGE_CURVE('',#263,#322,#487,.T.);
#487 = LINE('',#488,#489);
#488 = CARTESIAN_POINT('',(112.5,128.,19.6));
#489 = VECTOR('',#490,1.);
#490 = DIRECTION('',(1.,0.,1.110223024625E-16));
#491 = ORIENTED_EDGE('',*,*,#321,.F.);
#492 = ORIENTED_EDGE('',*,*,#486,.F.);
#493 = CYLINDRICAL_SURFACE('',#494,1.8);
#494 = AXIS2_PLACEMENT_3D('',#495,#496,#497);
#495 = CARTESIAN_POINT('',(112.5,128.,21.4));
#496 = DIRECTION('',(-1.,-0.,-1.110223024625E-16));
#497 = DIRECTION('',(1.110223024625E-16,0.,-1.));
#498 = ADVANCED_FACE('',(#499),#505,.F.);
#499 = FACE_BOUND('',#500,.F.);
#500 = EDGE_LOOP('',(#501,#502,#503,#504));
#501 = ORIENTED_EDGE('',*,*,#406,.T.);
#502 = ORIENTED_EDGE('',*,*,#431,.T.);
#503 = ORIENTED_EDGE('',*,*,#456,.F.);
#504 = ORIENTED_EDGE('',*,*,#372,.F.);
#505 = PLANE('',#506);
#506 = AXIS2_PLACEMENT_3D('',#507,#508,#509);
#507 = CARTESIAN_POINT('',(113.5,132.,25.2));
#508 = DIRECTION('',(1.110223024625E-16,0.,-1.));
#509 = DIRECTION('',(0.,-1.,0.));
#510 = ADVANCED_FACE('',(#511),#522,.F.);
#511 = FACE_BOUND('',#512,.T.);
#512 = EDGE_LOOP('',(#513,#514,#520,#521));
#513 = ORIENTED_EDGE('',*,*,#380,.T.);
#514 = ORIENTED_EDGE('',*,*,#515,.T.);
#515 = EDGE_CURVE('',#381,#440,#516,.T.);
#516 = LINE('',#517,#518);
#517 = CARTESIAN_POINT('',(112.5,128.,19.6));
#518 = VECTOR('',#519,1.);
#519 = DIRECTION('',(1.,0.,1.110223024625E-16));
#520 = ORIENTED_EDGE('',*,*,#439,.F.);
#521 = ORIENTED_EDGE('',*,*,#515,.F.);
#522 = CYLINDRICAL_SURFACE('',#523,1.8);
#523 = AXIS2_PLACEMENT_3D('',#524,#525,#526);
#524 = CARTESIAN_POINT('',(112.5,128.,21.4));
#525 = DIRECTION('',(-1.,-0.,-1.110223024625E-16));
#526 = DIRECTION('',(1.110223024625E-16,0.,-1.));
#527 = ( GEOMETRIC_REPRESENTATION_CONTEXT(3) 
GLOBAL_UNCERTAINTY_ASSIGNED_CONTEXT((#531)) GLOBAL_UNIT_ASSIGNED_CONTEXT
((#528,#529,#530)) REPRESENTATION_CONTEXT('Context #1',
  '3D Context with UNIT and UNCERTAINTY') );
#528 = ( LENGTH_UNIT() NAMED_UNIT(*) SI_UNIT(.MILLI.,.METRE.) );
#529 = ( NAMED_UNIT(*) PLANE_ANGLE_UNIT() SI_UNIT($,.RADIAN.) );
#530 = ( NAMED_UNIT(*) SI_UNIT($,.STERADIAN.) SOLID_ANGLE_UNIT() );
#531 = UNCERTAINTY_MEASURE_WITH_UNIT(LENGTH_MEASURE(1.E-07),#528,
  'distance_accuracy_value','confusion accuracy');
#532 = PRODUCT_RELATED_PRODUCT_CATEGORY('part',$,(#7));
ENDSEC;
END-ISO-10303-21;
