ISO-10303-21;
HEADER;
FILE_DESCRIPTION(('FreeCAD Model'),'2;1');
FILE_NAME('Open CASCADE Shape Model','2026-09-08T10:17:26',('FreeCAD'),(
    'FreeCAD'),'Open CASCADE STEP processor 7.8','FreeCAD','Unknown');
FILE_SCHEMA(('AUTOMOTIVE_DESIGN { 1 0 10303 214 1 1 1 1 }'));
ENDSEC;
DATA;
#1 = APPLICATION_PROTOCOL_DEFINITION('international standard',
  'automotive_design',2000,#2);
#2 = APPLICATION_CONTEXT(
  'core data for automotive mechanical design processes');
#3 = SHAPE_DEFINITION_REPRESENTATION(#4,#10);
#4 = PRODUCT_DEFINITION_SHAPE('','',#5);
#5 = PRODUCT_DEFINITION('design','',#6,#9);
#6 = PRODUCT_DEFINITION_FORMATION('','',#7);
#7 = PRODUCT('Open CASCADE STEP translator 7.8 54',
  'Open CASCADE STEP translator 7.8 54','',(#8));
#8 = PRODUCT_CONTEXT('',#2,'mechanical');
#9 = PRODUCT_DEFINITION_CONTEXT('part definition',#2,'design');
#10 = ADVANCED_BREP_SHAPE_REPRESENTATION('',(#11,#15),#1240);
#11 = AXIS2_PLACEMENT_3D('',#12,#13,#14);
#12 = CARTESIAN_POINT('',(0.,0.,0.));
#13 = DIRECTION('',(0.,0.,1.));
#14 = DIRECTION('',(1.,0.,-0.));
#15 = MANIFOLD_SOLID_BREP('',#16);
#16 = CLOSED_SHELL('',(#17,#97,#144,#168,#296,#320,#478,#502,#526,#550,
    #567,#633,#657,#686,#729,#764,#796,#813,#856,#891,#914,#940,#983,
    #1015,#1032,#1075,#1094,#1111,#1128,#1145,#1162,#1187,#1205,#1217));
#17 = ADVANCED_FACE('',(#18),#92,.F.);
#18 = FACE_BOUND('',#19,.F.);
#19 = EDGE_LOOP('',(#20,#30,#38,#46,#54,#62,#70,#78,#86));
#20 = ORIENTED_EDGE('',*,*,#21,.F.);
#21 = EDGE_CURVE('',#22,#24,#26,.T.);
#22 = VERTEX_POINT('',#23);
#23 = CARTESIAN_POINT('',(42.3,146.,36.));
#24 = VERTEX_POINT('',#25);
#25 = CARTESIAN_POINT('',(42.3,120.,6.));
#26 = LINE('',#27,#28);
#27 = CARTESIAN_POINT('',(42.3,146.,36.));
#28 = VECTOR('',#29,1.);
#29 = DIRECTION('',(0.,-0.654930538418,-0.75568908279));
#30 = ORIENTED_EDGE('',*,*,#31,.T.);
#31 = EDGE_CURVE('',#22,#32,#34,.T.);
#32 = VERTEX_POINT('',#33);
#33 = CARTESIAN_POINT('',(195.7,146.,36.));
#34 = LINE('',#35,#36);
#35 = CARTESIAN_POINT('',(42.3,146.,36.));
#36 = VECTOR('',#37,1.);
#37 = DIRECTION('',(1.,0.,0.));
#38 = ORIENTED_EDGE('',*,*,#39,.T.);
#39 = EDGE_CURVE('',#32,#40,#42,.T.);
#40 = VERTEX_POINT('',#41);
#41 = CARTESIAN_POINT('',(195.7,139.59861351404,28.613784823893));
#42 = LINE('',#43,#44);
#43 = CARTESIAN_POINT('',(195.7,163.68168233994,56.401941161469));
#44 = VECTOR('',#45,1.);
#45 = DIRECTION('',(0.,-0.654930538418,-0.75568908279));
#46 = ORIENTED_EDGE('',*,*,#47,.T.);
#47 = EDGE_CURVE('',#40,#48,#50,.T.);
#48 = VERTEX_POINT('',#49);
#49 = CARTESIAN_POINT('',(199.,139.59861351404,28.613784823893));
#50 = LINE('',#51,#52);
#51 = CARTESIAN_POINT('',(120.65,139.59861351404,28.613784823892));
#52 = VECTOR('',#53,1.);
#53 = DIRECTION('',(1.,5.4E-16,6.2E-16));
#54 = ORIENTED_EDGE('',*,*,#55,.T.);
#55 = EDGE_CURVE('',#48,#56,#58,.T.);
#56 = VERTEX_POINT('',#57);
#57 = CARTESIAN_POINT('',(213.7,126.53194684737,13.536861746969));
#58 = LINE('',#59,#60);
#59 = CARTESIAN_POINT('',(158.81602887924,175.31769895471,
    69.828114178517));
#60 = VECTOR('',#61,1.);
#61 = DIRECTION('',(0.59317542749,-0.527267046658,-0.608385053836));
#62 = ORIENTED_EDGE('',*,*,#63,.T.);
#63 = EDGE_CURVE('',#56,#64,#66,.T.);
#64 = VERTEX_POINT('',#65);
#65 = CARTESIAN_POINT('',(213.7,124.,10.615384615385));
#66 = LINE('',#67,#68);
#67 = CARTESIAN_POINT('',(213.7,146.,36.));
#68 = VECTOR('',#69,1.);
#69 = DIRECTION('',(0.,-0.654930538418,-0.75568908279));
#70 = ORIENTED_EDGE('',*,*,#71,.T.);
#71 = EDGE_CURVE('',#64,#72,#74,.T.);
#72 = VERTEX_POINT('',#73);
#73 = CARTESIAN_POINT('',(209.7,124.,10.615384615385));
#74 = LINE('',#75,#76);
#75 = CARTESIAN_POINT('',(126.,124.,10.615384615384));
#76 = VECTOR('',#77,1.);
#77 = DIRECTION('',(-1.,-0.,0.));
#78 = ORIENTED_EDGE('',*,*,#79,.T.);
#79 = EDGE_CURVE('',#72,#80,#82,.T.);
#80 = VERTEX_POINT('',#81);
#81 = CARTESIAN_POINT('',(209.7,120.,6.));
#82 = LINE('',#83,#84);
#83 = CARTESIAN_POINT('',(209.7,156.0964467005,47.649746192893));
#84 = VECTOR('',#85,1.);
#85 = DIRECTION('',(0.,-0.654930538418,-0.75568908279));
#86 = ORIENTED_EDGE('',*,*,#87,.F.);
#87 = EDGE_CURVE('',#24,#80,#88,.T.);
#88 = LINE('',#89,#90);
#89 = CARTESIAN_POINT('',(42.3,120.,6.));
#90 = VECTOR('',#91,1.);
#91 = DIRECTION('',(1.,0.,0.));
#92 = PLANE('',#93);
#93 = AXIS2_PLACEMENT_3D('',#94,#95,#96);
#94 = CARTESIAN_POINT('',(42.3,146.,36.));
#95 = DIRECTION('',(0.,0.75568908279,-0.654930538418));
#96 = DIRECTION('',(-1.2E-16,-0.654930538418,-0.75568908279));
#97 = ADVANCED_FACE('',(#98),#139,.F.);
#98 = FACE_BOUND('',#99,.F.);
#99 = EDGE_LOOP('',(#100,#101,#109,#117,#125,#133));
#100 = ORIENTED_EDGE('',*,*,#21,.T.);
#101 = ORIENTED_EDGE('',*,*,#102,.T.);
#102 = EDGE_CURVE('',#24,#103,#105,.T.);
#103 = VERTEX_POINT('',#104);
#104 = CARTESIAN_POINT('',(42.3,120.,0.));
#105 = LINE('',#106,#107);
#106 = CARTESIAN_POINT('',(42.3,120.,6.));
#107 = VECTOR('',#108,1.);
#108 = DIRECTION('',(0.,-1.224646799147E-16,-1.));
#109 = ORIENTED_EDGE('',*,*,#110,.T.);
#110 = EDGE_CURVE('',#103,#111,#113,.T.);
#111 = VERTEX_POINT('',#112);
#112 = CARTESIAN_POINT('',(42.3,121.6,0.));
#113 = LINE('',#114,#115);
#114 = CARTESIAN_POINT('',(42.3,120.,5.684341886081E-14));
#115 = VECTOR('',#116,1.);
#116 = DIRECTION('',(0.,1.,-1.224646799147E-16));
#117 = ORIENTED_EDGE('',*,*,#118,.T.);
#118 = EDGE_CURVE('',#111,#119,#121,.T.);
#119 = VERTEX_POINT('',#120);
#120 = CARTESIAN_POINT('',(42.3,121.6,5.403146677996));
#121 = LINE('',#122,#123);
#122 = CARTESIAN_POINT('',(42.3,121.6,5.684341886081E-14));
#123 = VECTOR('',#124,1.);
#124 = DIRECTION('',(0.,1.224646799147E-16,1.));
#125 = ORIENTED_EDGE('',*,*,#126,.T.);
#126 = EDGE_CURVE('',#119,#127,#129,.T.);
#127 = VERTEX_POINT('',#128);
#128 = CARTESIAN_POINT('',(42.3,146.,33.556992831843));
#129 = LINE('',#130,#131);
#130 = CARTESIAN_POINT('',(42.3,121.6,5.403146677996));
#131 = VECTOR('',#132,1.);
#132 = DIRECTION('',(0.,0.654930538418,0.75568908279));
#133 = ORIENTED_EDGE('',*,*,#134,.T.);
#134 = EDGE_CURVE('',#127,#22,#135,.T.);
#135 = LINE('',#136,#137);
#136 = CARTESIAN_POINT('',(42.3,146.,33.556992831843));
#137 = VECTOR('',#138,1.);
#138 = DIRECTION('',(0.,1.224646799147E-16,1.));
#139 = PLANE('',#140);
#140 = AXIS2_PLACEMENT_3D('',#141,#142,#143);
#141 = CARTESIAN_POINT('',(42.3,131.94425148474,18.149005224719));
#142 = DIRECTION('',(1.,-4.33E-15,2.85E-15));
#143 = DIRECTION('',(-4.33E-15,-1.,1.224646799147E-16));
#144 = ADVANCED_FACE('',(#145),#163,.F.);
#145 = FACE_BOUND('',#146,.F.);
#146 = EDGE_LOOP('',(#147,#148,#149,#157));
#147 = ORIENTED_EDGE('',*,*,#102,.F.);
#148 = ORIENTED_EDGE('',*,*,#87,.T.);
#149 = ORIENTED_EDGE('',*,*,#150,.T.);
#150 = EDGE_CURVE('',#80,#151,#153,.T.);
#151 = VERTEX_POINT('',#152);
#152 = CARTESIAN_POINT('',(209.7,120.,2.84217094304E-14));
#153 = LINE('',#154,#155);
#154 = CARTESIAN_POINT('',(209.7,120.,57.));
#155 = VECTOR('',#156,1.);
#156 = DIRECTION('',(0.,9.753532008526E-17,-1.));
#157 = ORIENTED_EDGE('',*,*,#158,.F.);
#158 = EDGE_CURVE('',#103,#151,#159,.T.);
#159 = LINE('',#160,#161);
#160 = CARTESIAN_POINT('',(42.3,120.,0.));
#161 = VECTOR('',#162,1.);
#162 = DIRECTION('',(1.,0.,0.));
#163 = PLANE('',#164);
#164 = AXIS2_PLACEMENT_3D('',#165,#166,#167);
#165 = CARTESIAN_POINT('',(42.3,120.,6.));
#166 = DIRECTION('',(0.,1.,9.753532008526E-17));
#167 = DIRECTION('',(2.2E-16,9.753532008526E-17,-1.));
#168 = ADVANCED_FACE('',(#169),#291,.F.);
#169 = FACE_BOUND('',#170,.F.);
#170 = EDGE_LOOP('',(#171,#181,#189,#197,#205,#213,#221,#229,#237,#245,
    #253,#261,#269,#277,#283,#284,#285));
#171 = ORIENTED_EDGE('',*,*,#172,.F.);
#172 = EDGE_CURVE('',#173,#175,#177,.T.);
#173 = VERTEX_POINT('',#174);
#174 = CARTESIAN_POINT('',(209.7,118.26491106406,108.));
#175 = VERTEX_POINT('',#176);
#176 = CARTESIAN_POINT('',(209.7,124.,108.));
#177 = LINE('',#178,#179);
#178 = CARTESIAN_POINT('',(209.7,110.,108.));
#179 = VECTOR('',#180,1.);
#180 = DIRECTION('',(0.,1.,-1.224646799147E-16));
#181 = ORIENTED_EDGE('',*,*,#182,.F.);
#182 = EDGE_CURVE('',#183,#173,#185,.T.);
#183 = VERTEX_POINT('',#184);
#184 = CARTESIAN_POINT('',(209.7,118.26491106406,105.8));
#185 = LINE('',#186,#187);
#186 = CARTESIAN_POINT('',(209.7,118.26491106406,113.));
#187 = VECTOR('',#188,1.);
#188 = DIRECTION('',(-0.,1.224646799147E-16,1.));
#189 = ORIENTED_EDGE('',*,*,#190,.T.);
#190 = EDGE_CURVE('',#183,#191,#193,.T.);
#191 = VERTEX_POINT('',#192);
#192 = CARTESIAN_POINT('',(209.7,121.3,105.8));
#193 = LINE('',#194,#195);
#194 = CARTESIAN_POINT('',(209.7,115.65,105.8));
#195 = VECTOR('',#196,1.);
#196 = DIRECTION('',(0.,1.,9.753532008526E-17));
#197 = ORIENTED_EDGE('',*,*,#198,.T.);
#198 = EDGE_CURVE('',#191,#199,#201,.T.);
#199 = VERTEX_POINT('',#200);
#200 = CARTESIAN_POINT('',(209.7,121.3,100.2));
#201 = LINE('',#202,#203);
#202 = CARTESIAN_POINT('',(209.7,121.3,104.1));
#203 = VECTOR('',#204,1.);
#204 = DIRECTION('',(0.,9.753532008526E-17,-1.));
#205 = ORIENTED_EDGE('',*,*,#206,.T.);
#206 = EDGE_CURVE('',#199,#207,#209,.T.);
#207 = VERTEX_POINT('',#208);
#208 = CARTESIAN_POINT('',(209.7,118.26491106406,100.2));
#209 = LINE('',#210,#211);
#210 = CARTESIAN_POINT('',(209.7,111.35,100.2));
#211 = VECTOR('',#212,1.);
#212 = DIRECTION('',(0.,-1.,-9.753532008526E-17));
#213 = ORIENTED_EDGE('',*,*,#214,.F.);
#214 = EDGE_CURVE('',#215,#207,#217,.T.);
#215 = VERTEX_POINT('',#216);
#216 = CARTESIAN_POINT('',(209.7,118.26491106406,93.313451914577));
#217 = LINE('',#218,#219);
#218 = CARTESIAN_POINT('',(209.7,118.26491106406,113.));
#219 = VECTOR('',#220,1.);
#220 = DIRECTION('',(-0.,1.224646799147E-16,1.));
#221 = ORIENTED_EDGE('',*,*,#222,.T.);
#222 = EDGE_CURVE('',#215,#223,#225,.T.);
#223 = VERTEX_POINT('',#224);
#224 = CARTESIAN_POINT('',(209.7,120.,91.));
#225 = LINE('',#226,#227);
#226 = CARTESIAN_POINT('',(209.7,114.12,98.84));
#227 = VECTOR('',#228,1.);
#228 = DIRECTION('',(0.,0.6,-0.8));
#229 = ORIENTED_EDGE('',*,*,#230,.T.);
#230 = EDGE_CURVE('',#223,#231,#233,.T.);
#231 = VERTEX_POINT('',#232);
#232 = CARTESIAN_POINT('',(209.7,118.26491106406,88.686548085423));
#233 = LINE('',#234,#235);
#234 = CARTESIAN_POINT('',(209.7,120.78,92.04));
#235 = VECTOR('',#236,1.);
#236 = DIRECTION('',(0.,-0.6,-0.8));
#237 = ORIENTED_EDGE('',*,*,#238,.F.);
#238 = EDGE_CURVE('',#239,#231,#241,.T.);
#239 = VERTEX_POINT('',#240);
#240 = CARTESIAN_POINT('',(209.7,118.26491106406,81.8));
#241 = LINE('',#242,#243);
#242 = CARTESIAN_POINT('',(209.7,118.26491106406,113.));
#243 = VECTOR('',#244,1.);
#244 = DIRECTION('',(-0.,1.224646799147E-16,1.));
#245 = ORIENTED_EDGE('',*,*,#246,.T.);
#246 = EDGE_CURVE('',#239,#247,#249,.T.);
#247 = VERTEX_POINT('',#248);
#248 = CARTESIAN_POINT('',(209.7,121.3,81.8));
#249 = LINE('',#250,#251);
#250 = CARTESIAN_POINT('',(209.7,115.65,81.8));
#251 = VECTOR('',#252,1.);
#252 = DIRECTION('',(0.,1.,9.753532008526E-17));
#253 = ORIENTED_EDGE('',*,*,#254,.T.);
#254 = EDGE_CURVE('',#247,#255,#257,.T.);
#255 = VERTEX_POINT('',#256);
#256 = CARTESIAN_POINT('',(209.7,121.3,76.2));
#257 = LINE('',#258,#259);
#258 = CARTESIAN_POINT('',(209.7,121.3,92.1));
#259 = VECTOR('',#260,1.);
#260 = DIRECTION('',(0.,9.753532008526E-17,-1.));
#261 = ORIENTED_EDGE('',*,*,#262,.T.);
#262 = EDGE_CURVE('',#255,#263,#265,.T.);
#263 = VERTEX_POINT('',#264);
#264 = CARTESIAN_POINT('',(209.7,118.26491106406,76.2));
#265 = LINE('',#266,#267);
#266 = CARTESIAN_POINT('',(209.7,111.35,76.2));
#267 = VECTOR('',#268,1.);
#268 = DIRECTION('',(0.,-1.,-9.753532008526E-17));
#269 = ORIENTED_EDGE('',*,*,#270,.F.);
#270 = EDGE_CURVE('',#271,#263,#273,.T.);
#271 = VERTEX_POINT('',#272);
#272 = CARTESIAN_POINT('',(209.7,118.26491106406,5.684341886081E-14));
#273 = LINE('',#274,#275);
#274 = CARTESIAN_POINT('',(209.7,118.26491106406,113.));
#275 = VECTOR('',#276,1.);
#276 = DIRECTION('',(-0.,1.224646799147E-16,1.));
#277 = ORIENTED_EDGE('',*,*,#278,.T.);
#278 = EDGE_CURVE('',#271,#151,#279,.T.);
#279 = LINE('',#280,#281);
#280 = CARTESIAN_POINT('',(209.7,110.,6.149707669757E-14));
#281 = VECTOR('',#282,1.);
#282 = DIRECTION('',(0.,1.,-1.224646799147E-16));
#283 = ORIENTED_EDGE('',*,*,#150,.F.);
#284 = ORIENTED_EDGE('',*,*,#79,.F.);
#285 = ORIENTED_EDGE('',*,*,#286,.F.);
#286 = EDGE_CURVE('',#175,#72,#287,.T.);
#287 = LINE('',#288,#289);
#288 = CARTESIAN_POINT('',(209.7,124.,108.));
#289 = VECTOR('',#290,1.);
#290 = DIRECTION('',(0.,-1.224646799147E-16,-1.));
#291 = PLANE('',#292);
#292 = AXIS2_PLACEMENT_3D('',#293,#294,#295);
#293 = CARTESIAN_POINT('',(209.7,110.,108.));
#294 = DIRECTION('',(1.,0.,0.));
#295 = DIRECTION('',(0.,1.,-1.224646799147E-16));
#296 = ADVANCED_FACE('',(#297),#315,.F.);
#297 = FACE_BOUND('',#298,.F.);
#298 = EDGE_LOOP('',(#299,#307,#308,#309));
#299 = ORIENTED_EDGE('',*,*,#300,.F.);
#300 = EDGE_CURVE('',#175,#301,#303,.T.);
#301 = VERTEX_POINT('',#302);
#302 = CARTESIAN_POINT('',(213.7,124.,108.));
#303 = LINE('',#304,#305);
#304 = CARTESIAN_POINT('',(209.7,124.,108.));
#305 = VECTOR('',#306,1.);
#306 = DIRECTION('',(1.,0.,0.));
#307 = ORIENTED_EDGE('',*,*,#286,.T.);
#308 = ORIENTED_EDGE('',*,*,#71,.F.);
#309 = ORIENTED_EDGE('',*,*,#310,.F.);
#310 = EDGE_CURVE('',#301,#64,#311,.T.);
#311 = LINE('',#312,#313);
#312 = CARTESIAN_POINT('',(213.7,124.,108.));
#313 = VECTOR('',#314,1.);
#314 = DIRECTION('',(0.,-1.224646799147E-16,-1.));
#315 = PLANE('',#316);
#316 = AXIS2_PLACEMENT_3D('',#317,#318,#319);
#317 = CARTESIAN_POINT('',(209.7,124.,108.));
#318 = DIRECTION('',(0.,-1.,1.224646799147E-16));
#319 = DIRECTION('',(1.,0.,0.));
#320 = ADVANCED_FACE('',(#321,#371,#405,#439),#473,.T.);
#321 = FACE_BOUND('',#322,.T.);
#322 = EDGE_LOOP('',(#323,#333,#339,#340,#341,#349,#357,#365));
#323 = ORIENTED_EDGE('',*,*,#324,.T.);
#324 = EDGE_CURVE('',#325,#327,#329,.T.);
#325 = VERTEX_POINT('',#326);
#326 = CARTESIAN_POINT('',(213.7,124.,8.172377447227));
#327 = VERTEX_POINT('',#328);
#328 = CARTESIAN_POINT('',(213.7,126.53194684737,11.093854578812));
#329 = LINE('',#330,#331);
#330 = CARTESIAN_POINT('',(213.7,121.6,5.403146677996));
#331 = VECTOR('',#332,1.);
#332 = DIRECTION('',(0.,0.654930538418,0.75568908279));
#333 = ORIENTED_EDGE('',*,*,#334,.T.);
#334 = EDGE_CURVE('',#327,#56,#335,.T.);
#335 = LINE('',#336,#337);
#336 = CARTESIAN_POINT('',(213.7,126.53194684737,80.154632248259));
#337 = VECTOR('',#338,1.);
#338 = DIRECTION('',(0.,1.224646799147E-16,1.));
#339 = ORIENTED_EDGE('',*,*,#63,.T.);
#340 = ORIENTED_EDGE('',*,*,#310,.F.);
#341 = ORIENTED_EDGE('',*,*,#342,.T.);
#342 = EDGE_CURVE('',#301,#343,#345,.T.);
#343 = VERTEX_POINT('',#344);
#344 = CARTESIAN_POINT('',(213.7,110.,108.));
#345 = LINE('',#346,#347);
#346 = CARTESIAN_POINT('',(213.7,124.,108.));
#347 = VECTOR('',#348,1.);
#348 = DIRECTION('',(0.,-1.,1.224646799147E-16));
#349 = ORIENTED_EDGE('',*,*,#350,.T.);
#350 = EDGE_CURVE('',#343,#351,#353,.T.);
#351 = VERTEX_POINT('',#352);
#352 = CARTESIAN_POINT('',(213.7,110.,5.684341886081E-14));
#353 = LINE('',#354,#355);
#354 = CARTESIAN_POINT('',(213.7,110.,108.));
#355 = VECTOR('',#356,1.);
#356 = DIRECTION('',(0.,-1.224646799147E-16,-1.));
#357 = ORIENTED_EDGE('',*,*,#358,.F.);
#358 = EDGE_CURVE('',#359,#351,#361,.T.);
#359 = VERTEX_POINT('',#360);
#360 = CARTESIAN_POINT('',(213.7,124.,5.684341886081E-14));
#361 = LINE('',#362,#363);
#362 = CARTESIAN_POINT('',(213.7,124.,5.684341886081E-14));
#363 = VECTOR('',#364,1.);
#364 = DIRECTION('',(0.,-1.,1.224646799147E-16));
#365 = ORIENTED_EDGE('',*,*,#366,.F.);
#366 = EDGE_CURVE('',#325,#359,#367,.T.);
#367 = LINE('',#368,#369);
#368 = CARTESIAN_POINT('',(213.7,124.,108.));
#369 = VECTOR('',#370,1.);
#370 = DIRECTION('',(0.,-1.224646799147E-16,-1.));
#371 = FACE_BOUND('',#372,.T.);
#372 = EDGE_LOOP('',(#373,#383,#391,#399));
#373 = ORIENTED_EDGE('',*,*,#374,.F.);
#374 = EDGE_CURVE('',#375,#377,#379,.T.);
#375 = VERTEX_POINT('',#376);
#376 = CARTESIAN_POINT('',(213.7,121.3,100.2));
#377 = VERTEX_POINT('',#378);
#378 = CARTESIAN_POINT('',(213.7,121.3,105.8));
#379 = LINE('',#380,#381);
#380 = CARTESIAN_POINT('',(213.7,121.3,104.1));
#381 = VECTOR('',#382,1.);
#382 = DIRECTION('',(0.,-9.753532008526E-17,1.));
#383 = ORIENTED_EDGE('',*,*,#384,.F.);
#384 = EDGE_CURVE('',#385,#375,#387,.T.);
#385 = VERTEX_POINT('',#386);
#386 = CARTESIAN_POINT('',(213.7,112.7,100.2));
#387 = LINE('',#388,#389);
#388 = CARTESIAN_POINT('',(213.7,118.35,100.2));
#389 = VECTOR('',#390,1.);
#390 = DIRECTION('',(-0.,1.,9.753532008526E-17));
#391 = ORIENTED_EDGE('',*,*,#392,.F.);
#392 = EDGE_CURVE('',#393,#385,#395,.T.);
#393 = VERTEX_POINT('',#394);
#394 = CARTESIAN_POINT('',(213.7,112.7,105.8));
#395 = LINE('',#396,#397);
#396 = CARTESIAN_POINT('',(213.7,112.7,106.9));
#397 = VECTOR('',#398,1.);
#398 = DIRECTION('',(0.,9.753532008526E-17,-1.));
#399 = ORIENTED_EDGE('',*,*,#400,.F.);
#400 = EDGE_CURVE('',#377,#393,#401,.T.);
#401 = LINE('',#402,#403);
#402 = CARTESIAN_POINT('',(213.7,122.65,105.8));
#403 = VECTOR('',#404,1.);
#404 = DIRECTION('',(0.,-1.,-9.753532008526E-17));
#405 = FACE_BOUND('',#406,.T.);
#406 = EDGE_LOOP('',(#407,#417,#425,#433));
#407 = ORIENTED_EDGE('',*,*,#408,.F.);
#408 = EDGE_CURVE('',#409,#411,#413,.T.);
#409 = VERTEX_POINT('',#410);
#410 = CARTESIAN_POINT('',(213.7,121.3,76.2));
#411 = VERTEX_POINT('',#412);
#412 = CARTESIAN_POINT('',(213.7,121.3,81.8));
#413 = LINE('',#414,#415);
#414 = CARTESIAN_POINT('',(213.7,121.3,92.1));
#415 = VECTOR('',#416,1.);
#416 = DIRECTION('',(0.,-9.753532008526E-17,1.));
#417 = ORIENTED_EDGE('',*,*,#418,.F.);
#418 = EDGE_CURVE('',#419,#409,#421,.T.);
#419 = VERTEX_POINT('',#420);
#420 = CARTESIAN_POINT('',(213.7,112.7,76.2));
#421 = LINE('',#422,#423);
#422 = CARTESIAN_POINT('',(213.7,118.35,76.2));
#423 = VECTOR('',#424,1.);
#424 = DIRECTION('',(-0.,1.,9.753532008526E-17));
#425 = ORIENTED_EDGE('',*,*,#426,.F.);
#426 = EDGE_CURVE('',#427,#419,#429,.T.);
#427 = VERTEX_POINT('',#428);
#428 = CARTESIAN_POINT('',(213.7,112.7,81.8));
#429 = LINE('',#430,#431);
#430 = CARTESIAN_POINT('',(213.7,112.7,94.9));
#431 = VECTOR('',#432,1.);
#432 = DIRECTION('',(0.,9.753532008526E-17,-1.));
#433 = ORIENTED_EDGE('',*,*,#434,.F.);
#434 = EDGE_CURVE('',#411,#427,#435,.T.);
#435 = LINE('',#436,#437);
#436 = CARTESIAN_POINT('',(213.7,122.65,81.8));
#437 = VECTOR('',#438,1.);
#438 = DIRECTION('',(0.,-1.,-9.753532008526E-17));
#439 = FACE_BOUND('',#440,.T.);
#440 = EDGE_LOOP('',(#441,#451,#459,#467));
#441 = ORIENTED_EDGE('',*,*,#442,.F.);
#442 = EDGE_CURVE('',#443,#445,#447,.T.);
#443 = VERTEX_POINT('',#444);
#444 = CARTESIAN_POINT('',(213.7,117.,87.));
#445 = VERTEX_POINT('',#446);
#446 = CARTESIAN_POINT('',(213.7,120.,91.));
#447 = LINE('',#448,#449);
#448 = CARTESIAN_POINT('',(213.7,123.3,95.4));
#449 = VECTOR('',#450,1.);
#450 = DIRECTION('',(-0.,0.6,0.8));
#451 = ORIENTED_EDGE('',*,*,#452,.F.);
#452 = EDGE_CURVE('',#453,#443,#455,.T.);
#453 = VERTEX_POINT('',#454);
#454 = CARTESIAN_POINT('',(213.7,114.,91.));
#455 = LINE('',#456,#457);
#456 = CARTESIAN_POINT('',(213.7,111.72,94.04));
#457 = VECTOR('',#458,1.);
#458 = DIRECTION('',(0.,0.6,-0.8));
#459 = ORIENTED_EDGE('',*,*,#460,.F.);
#460 = EDGE_CURVE('',#461,#453,#463,.T.);
#461 = VERTEX_POINT('',#462);
#462 = CARTESIAN_POINT('',(213.7,117.,95.));
#463 = LINE('',#464,#465);
#464 = CARTESIAN_POINT('',(213.7,121.38,100.84));
#465 = VECTOR('',#466,1.);
#466 = DIRECTION('',(0.,-0.6,-0.8));
#467 = ORIENTED_EDGE('',*,*,#468,.F.);
#468 = EDGE_CURVE('',#445,#461,#469,.T.);
#469 = LINE('',#470,#471);
#470 = CARTESIAN_POINT('',(213.7,116.64,95.48));
#471 = VECTOR('',#472,1.);
#472 = DIRECTION('',(0.,-0.6,0.8));
#473 = PLANE('',#474);
#474 = AXIS2_PLACEMENT_3D('',#475,#476,#477);
#475 = CARTESIAN_POINT('',(213.7,121.05882048587,47.309264496518));
#476 = DIRECTION('',(1.,-8.8E-16,1.07768918325E-31));
#477 = DIRECTION('',(-8.8E-16,-1.,1.224646799147E-16));
#478 = ADVANCED_FACE('',(#479),#497,.T.);
#479 = FACE_BOUND('',#480,.T.);
#480 = EDGE_LOOP('',(#481,#489,#490,#491));
#481 = ORIENTED_EDGE('',*,*,#482,.F.);
#482 = EDGE_CURVE('',#48,#483,#485,.T.);
#483 = VERTEX_POINT('',#484);
#484 = CARTESIAN_POINT('',(199.,139.59861351404,26.170777655735));
#485 = LINE('',#486,#487);
#486 = CARTESIAN_POINT('',(199.,139.59861351404,113.));
#487 = VECTOR('',#488,1.);
#488 = DIRECTION('',(0.,-1.224646799147E-16,-1.));
#489 = ORIENTED_EDGE('',*,*,#55,.T.);
#490 = ORIENTED_EDGE('',*,*,#334,.F.);
#491 = ORIENTED_EDGE('',*,*,#492,.T.);
#492 = EDGE_CURVE('',#327,#483,#493,.T.);
#493 = LINE('',#494,#495);
#494 = CARTESIAN_POINT('',(167.27097527892,167.80219104388,
    58.713367113252));
#495 = VECTOR('',#496,1.);
#496 = DIRECTION('',(-0.59317542749,0.527267046658,0.608385053836));
#497 = PLANE('',#498);
#498 = AXIS2_PLACEMENT_3D('',#499,#500,#501);
#499 = CARTESIAN_POINT('',(214.7,125.64305795848,113.));
#500 = DIRECTION('',(0.66436383883,0.747409318684,-9.153124297788E-17));
#501 = DIRECTION('',(-0.747409318684,0.66436383883,-8.136110486923E-17)
  );
#502 = ADVANCED_FACE('',(#503),#521,.T.);
#503 = FACE_BOUND('',#504,.T.);
#504 = EDGE_LOOP('',(#505,#506,#507,#515));
#505 = ORIENTED_EDGE('',*,*,#47,.T.);
#506 = ORIENTED_EDGE('',*,*,#482,.T.);
#507 = ORIENTED_EDGE('',*,*,#508,.T.);
#508 = EDGE_CURVE('',#483,#509,#511,.T.);
#509 = VERTEX_POINT('',#510);
#510 = CARTESIAN_POINT('',(195.7,139.59861351404,26.170777655735));
#511 = LINE('',#512,#513);
#512 = CARTESIAN_POINT('',(120.65,139.59861351404,26.170777655735));
#513 = VECTOR('',#514,1.);
#514 = DIRECTION('',(-1.,-5.4E-16,-6.2E-16));
#515 = ORIENTED_EDGE('',*,*,#516,.F.);
#516 = EDGE_CURVE('',#40,#509,#517,.T.);
#517 = LINE('',#518,#519);
#518 = CARTESIAN_POINT('',(195.7,139.59861351404,113.));
#519 = VECTOR('',#520,1.);
#520 = DIRECTION('',(0.,-1.224646799147E-16,-1.));
#521 = PLANE('',#522);
#522 = AXIS2_PLACEMENT_3D('',#523,#524,#525);
#523 = CARTESIAN_POINT('',(199.,139.59861351404,113.));
#524 = DIRECTION('',(-5.4E-16,1.,-1.224646799147E-16));
#525 = DIRECTION('',(-1.,-5.4E-16,6.613092715396E-32));
#526 = ADVANCED_FACE('',(#527),#545,.T.);
#527 = FACE_BOUND('',#528,.T.);
#528 = EDGE_LOOP('',(#529,#530,#531,#539));
#529 = ORIENTED_EDGE('',*,*,#39,.T.);
#530 = ORIENTED_EDGE('',*,*,#516,.T.);
#531 = ORIENTED_EDGE('',*,*,#532,.T.);
#532 = EDGE_CURVE('',#509,#533,#535,.T.);
#533 = VERTEX_POINT('',#534);
#534 = CARTESIAN_POINT('',(195.7,146.,33.556992831843));
#535 = LINE('',#536,#537);
#536 = CARTESIAN_POINT('',(195.7,152.08623360617,40.579570069733));
#537 = VECTOR('',#538,1.);
#538 = DIRECTION('',(0.,0.654930538418,0.75568908279));
#539 = ORIENTED_EDGE('',*,*,#540,.T.);
#540 = EDGE_CURVE('',#533,#32,#541,.T.);
#541 = LINE('',#542,#543);
#542 = CARTESIAN_POINT('',(195.7,146.,73.278496415921));
#543 = VECTOR('',#544,1.);
#544 = DIRECTION('',(0.,-9.753532008526E-17,1.));
#545 = PLANE('',#546);
#546 = AXIS2_PLACEMENT_3D('',#547,#548,#549);
#547 = CARTESIAN_POINT('',(195.7,139.59861351404,113.));
#548 = DIRECTION('',(1.,0.,0.));
#549 = DIRECTION('',(0.,1.,-1.224646799147E-16));
#550 = ADVANCED_FACE('',(#551),#562,.F.);
#551 = FACE_BOUND('',#552,.F.);
#552 = EDGE_LOOP('',(#553,#554,#560,#561));
#553 = ORIENTED_EDGE('',*,*,#134,.F.);
#554 = ORIENTED_EDGE('',*,*,#555,.T.);
#555 = EDGE_CURVE('',#127,#533,#556,.T.);
#556 = LINE('',#557,#558);
#557 = CARTESIAN_POINT('',(42.3,146.,33.556992831843));
#558 = VECTOR('',#559,1.);
#559 = DIRECTION('',(1.,0.,0.));
#560 = ORIENTED_EDGE('',*,*,#540,.T.);
#561 = ORIENTED_EDGE('',*,*,#31,.F.);
#562 = PLANE('',#563);
#563 = AXIS2_PLACEMENT_3D('',#564,#565,#566);
#564 = CARTESIAN_POINT('',(42.3,146.,33.556992831843));
#565 = DIRECTION('',(0.,-1.,-9.753532008526E-17));
#566 = DIRECTION('',(-2.2E-16,-9.753532008526E-17,1.));
#567 = ADVANCED_FACE('',(#568),#628,.T.);
#568 = FACE_BOUND('',#569,.T.);
#569 = EDGE_LOOP('',(#570,#571,#579,#587,#593,#594,#602,#610,#619,#626,
    #627));
#570 = ORIENTED_EDGE('',*,*,#110,.T.);
#571 = ORIENTED_EDGE('',*,*,#572,.T.);
#572 = EDGE_CURVE('',#111,#573,#575,.T.);
#573 = VERTEX_POINT('',#574);
#574 = CARTESIAN_POINT('',(209.7,121.6,2.84217094304E-14));
#575 = LINE('',#576,#577);
#576 = CARTESIAN_POINT('',(42.3,121.6,0.));
#577 = VECTOR('',#578,1.);
#578 = DIRECTION('',(1.,0.,0.));
#579 = ORIENTED_EDGE('',*,*,#580,.T.);
#580 = EDGE_CURVE('',#573,#581,#583,.T.);
#581 = VERTEX_POINT('',#582);
#582 = CARTESIAN_POINT('',(209.7,124.,5.684341886081E-14));
#583 = LINE('',#584,#585);
#584 = CARTESIAN_POINT('',(209.7,110.,6.149707669757E-14));
#585 = VECTOR('',#586,1.);
#586 = DIRECTION('',(0.,1.,-1.224646799147E-16));
#587 = ORIENTED_EDGE('',*,*,#588,.T.);
#588 = EDGE_CURVE('',#581,#359,#589,.T.);
#589 = LINE('',#590,#591);
#590 = CARTESIAN_POINT('',(209.7,124.,5.978257117876E-14));
#591 = VECTOR('',#592,1.);
#592 = DIRECTION('',(1.,0.,0.));
#593 = ORIENTED_EDGE('',*,*,#358,.T.);
#594 = ORIENTED_EDGE('',*,*,#595,.T.);
#595 = EDGE_CURVE('',#351,#596,#598,.T.);
#596 = VERTEX_POINT('',#597);
#597 = CARTESIAN_POINT('',(209.7,110.,5.684341886081E-14));
#598 = LINE('',#599,#600);
#599 = CARTESIAN_POINT('',(213.7,110.,6.149707669757E-14));
#600 = VECTOR('',#601,1.);
#601 = DIRECTION('',(-1.,-0.,0.));
#602 = ORIENTED_EDGE('',*,*,#603,.T.);
#603 = EDGE_CURVE('',#596,#604,#606,.T.);
#604 = VERTEX_POINT('',#605);
#605 = CARTESIAN_POINT('',(209.7,115.73508893593,5.684341886081E-14));
#606 = LINE('',#607,#608);
#607 = CARTESIAN_POINT('',(209.7,110.,6.149707669757E-14));
#608 = VECTOR('',#609,1.);
#609 = DIRECTION('',(0.,1.,-1.224646799147E-16));
#610 = ORIENTED_EDGE('',*,*,#611,.T.);
#611 = EDGE_CURVE('',#604,#612,#614,.T.);
#612 = VERTEX_POINT('',#613);
#613 = CARTESIAN_POINT('',(210.1,117.,5.684341886081E-14));
#614 = CIRCLE('',#615,2.2);
#615 = AXIS2_PLACEMENT_3D('',#616,#617,#618);
#616 = CARTESIAN_POINT('',(207.9,117.,5.684341886081E-14));
#617 = DIRECTION('',(-0.,1.224646799147E-16,1.));
#618 = DIRECTION('',(1.,0.,0.));
#619 = ORIENTED_EDGE('',*,*,#620,.T.);
#620 = EDGE_CURVE('',#612,#271,#621,.T.);
#621 = CIRCLE('',#622,2.2);
#622 = AXIS2_PLACEMENT_3D('',#623,#624,#625);
#623 = CARTESIAN_POINT('',(207.9,117.,5.684341886081E-14));
#624 = DIRECTION('',(-0.,1.224646799147E-16,1.));
#625 = DIRECTION('',(1.,0.,0.));
#626 = ORIENTED_EDGE('',*,*,#278,.T.);
#627 = ORIENTED_EDGE('',*,*,#158,.F.);
#628 = PLANE('',#629);
#629 = AXIS2_PLACEMENT_3D('',#630,#631,#632);
#630 = CARTESIAN_POINT('',(133.63290339311,120.42958126232,
    2.84217094304E-14));
#631 = DIRECTION('',(0.,-3.962464679915E-15,-1.));
#632 = DIRECTION('',(0.,-1.,3.962464679915E-15));
#633 = ADVANCED_FACE('',(#634),#652,.F.);
#634 = FACE_BOUND('',#635,.F.);
#635 = EDGE_LOOP('',(#636,#637,#638,#646));
#636 = ORIENTED_EDGE('',*,*,#118,.F.);
#637 = ORIENTED_EDGE('',*,*,#572,.T.);
#638 = ORIENTED_EDGE('',*,*,#639,.T.);
#639 = EDGE_CURVE('',#573,#640,#642,.T.);
#640 = VERTEX_POINT('',#641);
#641 = CARTESIAN_POINT('',(209.7,121.6,5.403146677996));
#642 = LINE('',#643,#644);
#643 = CARTESIAN_POINT('',(209.7,121.6,54.));
#644 = VECTOR('',#645,1.);
#645 = DIRECTION('',(0.,-9.753532008526E-17,1.));
#646 = ORIENTED_EDGE('',*,*,#647,.F.);
#647 = EDGE_CURVE('',#119,#640,#648,.T.);
#648 = LINE('',#649,#650);
#649 = CARTESIAN_POINT('',(42.3,121.6,5.403146677996));
#650 = VECTOR('',#651,1.);
#651 = DIRECTION('',(1.,0.,0.));
#652 = PLANE('',#653);
#653 = AXIS2_PLACEMENT_3D('',#654,#655,#656);
#654 = CARTESIAN_POINT('',(42.3,121.6,0.));
#655 = DIRECTION('',(0.,-1.,-9.753532008526E-17));
#656 = DIRECTION('',(-2.2E-16,-9.753532008526E-17,1.));
#657 = ADVANCED_FACE('',(#658),#681,.F.);
#658 = FACE_BOUND('',#659,.F.);
#659 = EDGE_LOOP('',(#660,#661,#662,#670,#676,#677,#678,#679,#680));
#660 = ORIENTED_EDGE('',*,*,#126,.F.);
#661 = ORIENTED_EDGE('',*,*,#647,.T.);
#662 = ORIENTED_EDGE('',*,*,#663,.T.);
#663 = EDGE_CURVE('',#640,#664,#666,.T.);
#664 = VERTEX_POINT('',#665);
#665 = CARTESIAN_POINT('',(209.7,124.,8.172377447227));
#666 = LINE('',#667,#668);
#667 = CARTESIAN_POINT('',(209.7,144.50099796674,31.827375101157));
#668 = VECTOR('',#669,1.);
#669 = DIRECTION('',(0.,0.654930538418,0.75568908279));
#670 = ORIENTED_EDGE('',*,*,#671,.T.);
#671 = EDGE_CURVE('',#664,#325,#672,.T.);
#672 = LINE('',#673,#674);
#673 = CARTESIAN_POINT('',(126.,124.,8.172377447227));
#674 = VECTOR('',#675,1.);
#675 = DIRECTION('',(1.,0.,0.));
#676 = ORIENTED_EDGE('',*,*,#324,.T.);
#677 = ORIENTED_EDGE('',*,*,#492,.T.);
#678 = ORIENTED_EDGE('',*,*,#508,.T.);
#679 = ORIENTED_EDGE('',*,*,#532,.T.);
#680 = ORIENTED_EDGE('',*,*,#555,.F.);
#681 = PLANE('',#682);
#682 = AXIS2_PLACEMENT_3D('',#683,#684,#685);
#683 = CARTESIAN_POINT('',(42.3,121.6,5.403146677996));
#684 = DIRECTION('',(0.,-0.75568908279,0.654930538418));
#685 = DIRECTION('',(1.2E-16,0.654930538418,0.75568908279));
#686 = ADVANCED_FACE('',(#687),#724,.F.);
#687 = FACE_BOUND('',#688,.F.);
#688 = EDGE_LOOP('',(#689,#690,#691,#692,#700,#708,#717));
#689 = ORIENTED_EDGE('',*,*,#172,.T.);
#690 = ORIENTED_EDGE('',*,*,#300,.T.);
#691 = ORIENTED_EDGE('',*,*,#342,.T.);
#692 = ORIENTED_EDGE('',*,*,#693,.T.);
#693 = EDGE_CURVE('',#343,#694,#696,.T.);
#694 = VERTEX_POINT('',#695);
#695 = CARTESIAN_POINT('',(209.7,110.,108.));
#696 = LINE('',#697,#698);
#697 = CARTESIAN_POINT('',(213.7,110.,108.));
#698 = VECTOR('',#699,1.);
#699 = DIRECTION('',(-1.,-0.,0.));
#700 = ORIENTED_EDGE('',*,*,#701,.T.);
#701 = EDGE_CURVE('',#694,#702,#704,.T.);
#702 = VERTEX_POINT('',#703);
#703 = CARTESIAN_POINT('',(209.7,115.73508893593,108.));
#704 = LINE('',#705,#706);
#705 = CARTESIAN_POINT('',(209.7,110.,108.));
#706 = VECTOR('',#707,1.);
#707 = DIRECTION('',(0.,1.,-1.224646799147E-16));
#708 = ORIENTED_EDGE('',*,*,#709,.T.);
#709 = EDGE_CURVE('',#702,#710,#712,.T.);
#710 = VERTEX_POINT('',#711);
#711 = CARTESIAN_POINT('',(210.1,117.,108.));
#712 = CIRCLE('',#713,2.2);
#713 = AXIS2_PLACEMENT_3D('',#714,#715,#716);
#714 = CARTESIAN_POINT('',(207.9,117.,108.));
#715 = DIRECTION('',(-0.,1.224646799147E-16,1.));
#716 = DIRECTION('',(1.,0.,0.));
#717 = ORIENTED_EDGE('',*,*,#718,.T.);
#718 = EDGE_CURVE('',#710,#173,#719,.T.);
#719 = CIRCLE('',#720,2.2);
#720 = AXIS2_PLACEMENT_3D('',#721,#722,#723);
#721 = CARTESIAN_POINT('',(207.9,117.,108.));
#722 = DIRECTION('',(-0.,1.224646799147E-16,1.));
#723 = DIRECTION('',(1.,0.,0.));
#724 = PLANE('',#725);
#725 = AXIS2_PLACEMENT_3D('',#726,#727,#728);
#726 = CARTESIAN_POINT('',(211.7,117.,108.));
#727 = DIRECTION('',(0.,-1.224646799147E-16,-1.));
#728 = DIRECTION('',(1.,0.,0.));
#729 = ADVANCED_FACE('',(#730),#759,.F.);
#730 = FACE_BOUND('',#731,.T.);
#731 = EDGE_LOOP('',(#732,#733,#741,#750,#757,#758));
#732 = ORIENTED_EDGE('',*,*,#611,.F.);
#733 = ORIENTED_EDGE('',*,*,#734,.T.);
#734 = EDGE_CURVE('',#604,#735,#737,.T.);
#735 = VERTEX_POINT('',#736);
#736 = CARTESIAN_POINT('',(209.7,115.73508893593,76.2));
#737 = LINE('',#738,#739);
#738 = CARTESIAN_POINT('',(209.7,115.73508893593,113.));
#739 = VECTOR('',#740,1.);
#740 = DIRECTION('',(-0.,1.224646799147E-16,1.));
#741 = ORIENTED_EDGE('',*,*,#742,.T.);
#742 = EDGE_CURVE('',#735,#743,#745,.T.);
#743 = VERTEX_POINT('',#744);
#744 = CARTESIAN_POINT('',(210.1,117.,76.2));
#745 = CIRCLE('',#746,2.2);
#746 = AXIS2_PLACEMENT_3D('',#747,#748,#749);
#747 = CARTESIAN_POINT('',(207.9,117.,76.2));
#748 = DIRECTION('',(-0.,1.224646799147E-16,1.));
#749 = DIRECTION('',(1.,0.,0.));
#750 = ORIENTED_EDGE('',*,*,#751,.T.);
#751 = EDGE_CURVE('',#743,#263,#752,.T.);
#752 = CIRCLE('',#753,2.2);
#753 = AXIS2_PLACEMENT_3D('',#754,#755,#756);
#754 = CARTESIAN_POINT('',(207.9,117.,76.2));
#755 = DIRECTION('',(-0.,1.224646799147E-16,1.));
#756 = DIRECTION('',(1.,0.,0.));
#757 = ORIENTED_EDGE('',*,*,#270,.F.);
#758 = ORIENTED_EDGE('',*,*,#620,.F.);
#759 = CYLINDRICAL_SURFACE('',#760,2.2);
#760 = AXIS2_PLACEMENT_3D('',#761,#762,#763);
#761 = CARTESIAN_POINT('',(207.9,117.,113.));
#762 = DIRECTION('',(-0.,1.224646799147E-16,1.));
#763 = DIRECTION('',(1.,0.,0.));
#764 = ADVANCED_FACE('',(#765),#791,.T.);
#765 = FACE_BOUND('',#766,.T.);
#766 = EDGE_LOOP('',(#767,#773,#774,#775,#776,#784,#790));
#767 = ORIENTED_EDGE('',*,*,#768,.F.);
#768 = EDGE_CURVE('',#255,#409,#769,.T.);
#769 = LINE('',#770,#771);
#770 = CARTESIAN_POINT('',(208.7,121.3,76.2));
#771 = VECTOR('',#772,1.);
#772 = DIRECTION('',(1.,0.,0.));
#773 = ORIENTED_EDGE('',*,*,#262,.T.);
#774 = ORIENTED_EDGE('',*,*,#751,.F.);
#775 = ORIENTED_EDGE('',*,*,#742,.F.);
#776 = ORIENTED_EDGE('',*,*,#777,.T.);
#777 = EDGE_CURVE('',#735,#778,#780,.T.);
#778 = VERTEX_POINT('',#779);
#779 = CARTESIAN_POINT('',(209.7,112.7,76.2));
#780 = LINE('',#781,#782);
#781 = CARTESIAN_POINT('',(209.7,111.35,76.2));
#782 = VECTOR('',#783,1.);
#783 = DIRECTION('',(0.,-1.,-9.753532008526E-17));
#784 = ORIENTED_EDGE('',*,*,#785,.T.);
#785 = EDGE_CURVE('',#778,#419,#786,.T.);
#786 = LINE('',#787,#788);
#787 = CARTESIAN_POINT('',(208.7,112.7,76.2));
#788 = VECTOR('',#789,1.);
#789 = DIRECTION('',(1.,0.,0.));
#790 = ORIENTED_EDGE('',*,*,#418,.T.);
#791 = PLANE('',#792);
#792 = AXIS2_PLACEMENT_3D('',#793,#794,#795);
#793 = CARTESIAN_POINT('',(208.7,112.7,76.2));
#794 = DIRECTION('',(0.,-9.753532008526E-17,1.));
#795 = DIRECTION('',(4.4E-16,1.,9.753532008526E-17));
#796 = ADVANCED_FACE('',(#797),#808,.T.);
#797 = FACE_BOUND('',#798,.T.);
#798 = EDGE_LOOP('',(#799,#800,#801,#802));
#799 = ORIENTED_EDGE('',*,*,#254,.T.);
#800 = ORIENTED_EDGE('',*,*,#768,.T.);
#801 = ORIENTED_EDGE('',*,*,#408,.T.);
#802 = ORIENTED_EDGE('',*,*,#803,.F.);
#803 = EDGE_CURVE('',#247,#411,#804,.T.);
#804 = LINE('',#805,#806);
#805 = CARTESIAN_POINT('',(208.7,121.3,81.8));
#806 = VECTOR('',#807,1.);
#807 = DIRECTION('',(1.,0.,0.));
#808 = PLANE('',#809);
#809 = AXIS2_PLACEMENT_3D('',#810,#811,#812);
#810 = CARTESIAN_POINT('',(208.7,121.3,76.2));
#811 = DIRECTION('',(0.,-1.,-9.753532008526E-17));
#812 = DIRECTION('',(-2.2E-16,-9.753532008526E-17,1.));
#813 = ADVANCED_FACE('',(#814),#851,.T.);
#814 = FACE_BOUND('',#815,.T.);
#815 = EDGE_LOOP('',(#816,#824,#832,#841,#848,#849,#850));
#816 = ORIENTED_EDGE('',*,*,#817,.F.);
#817 = EDGE_CURVE('',#818,#427,#820,.T.);
#818 = VERTEX_POINT('',#819);
#819 = CARTESIAN_POINT('',(209.7,112.7,81.8));
#820 = LINE('',#821,#822);
#821 = CARTESIAN_POINT('',(208.7,112.7,81.8));
#822 = VECTOR('',#823,1.);
#823 = DIRECTION('',(1.,0.,0.));
#824 = ORIENTED_EDGE('',*,*,#825,.T.);
#825 = EDGE_CURVE('',#818,#826,#828,.T.);
#826 = VERTEX_POINT('',#827);
#827 = CARTESIAN_POINT('',(209.7,115.73508893593,81.8));
#828 = LINE('',#829,#830);
#829 = CARTESIAN_POINT('',(209.7,115.65,81.8));
#830 = VECTOR('',#831,1.);
#831 = DIRECTION('',(0.,1.,9.753532008526E-17));
#832 = ORIENTED_EDGE('',*,*,#833,.T.);
#833 = EDGE_CURVE('',#826,#834,#836,.T.);
#834 = VERTEX_POINT('',#835);
#835 = CARTESIAN_POINT('',(210.1,117.,81.8));
#836 = CIRCLE('',#837,2.2);
#837 = AXIS2_PLACEMENT_3D('',#838,#839,#840);
#838 = CARTESIAN_POINT('',(207.9,117.,81.8));
#839 = DIRECTION('',(-0.,1.224646799147E-16,1.));
#840 = DIRECTION('',(1.,0.,0.));
#841 = ORIENTED_EDGE('',*,*,#842,.T.);
#842 = EDGE_CURVE('',#834,#239,#843,.T.);
#843 = CIRCLE('',#844,2.2);
#844 = AXIS2_PLACEMENT_3D('',#845,#846,#847);
#845 = CARTESIAN_POINT('',(207.9,117.,81.8));
#846 = DIRECTION('',(-0.,1.224646799147E-16,1.));
#847 = DIRECTION('',(1.,0.,0.));
#848 = ORIENTED_EDGE('',*,*,#246,.T.);
#849 = ORIENTED_EDGE('',*,*,#803,.T.);
#850 = ORIENTED_EDGE('',*,*,#434,.T.);
#851 = PLANE('',#852);
#852 = AXIS2_PLACEMENT_3D('',#853,#854,#855);
#853 = CARTESIAN_POINT('',(208.7,121.3,81.8));
#854 = DIRECTION('',(0.,9.753532008526E-17,-1.));
#855 = DIRECTION('',(-4.4E-16,-1.,-9.753532008526E-17));
#856 = ADVANCED_FACE('',(#857),#886,.F.);
#857 = FACE_BOUND('',#858,.T.);
#858 = EDGE_LOOP('',(#859,#860,#868,#877,#884,#885));
#859 = ORIENTED_EDGE('',*,*,#833,.F.);
#860 = ORIENTED_EDGE('',*,*,#861,.T.);
#861 = EDGE_CURVE('',#826,#862,#864,.T.);
#862 = VERTEX_POINT('',#863);
#863 = CARTESIAN_POINT('',(209.7,115.73508893593,88.686548085423));
#864 = LINE('',#865,#866);
#865 = CARTESIAN_POINT('',(209.7,115.73508893593,113.));
#866 = VECTOR('',#867,1.);
#867 = DIRECTION('',(-0.,1.224646799147E-16,1.));
#868 = ORIENTED_EDGE('',*,*,#869,.T.);
#869 = EDGE_CURVE('',#862,#870,#872,.T.);
#870 = VERTEX_POINT('',#871);
#871 = CARTESIAN_POINT('',(210.1,117.,87.));
#872 = ELLIPSE('',#873,3.666666666667,2.2);
#873 = AXIS2_PLACEMENT_3D('',#874,#875,#876);
#874 = CARTESIAN_POINT('',(207.9,117.,87.));
#875 = DIRECTION('',(-0.,0.8,0.6));
#876 = DIRECTION('',(0.,-0.6,0.8));
#877 = ORIENTED_EDGE('',*,*,#878,.T.);
#878 = EDGE_CURVE('',#870,#231,#879,.T.);
#879 = ELLIPSE('',#880,3.666666666667,2.2);
#880 = AXIS2_PLACEMENT_3D('',#881,#882,#883);
#881 = CARTESIAN_POINT('',(207.9,117.,87.));
#882 = DIRECTION('',(0.,-0.8,0.6));
#883 = DIRECTION('',(0.,0.6,0.8));
#884 = ORIENTED_EDGE('',*,*,#238,.F.);
#885 = ORIENTED_EDGE('',*,*,#842,.F.);
#886 = CYLINDRICAL_SURFACE('',#887,2.2);
#887 = AXIS2_PLACEMENT_3D('',#888,#889,#890);
#888 = CARTESIAN_POINT('',(207.9,117.,113.));
#889 = DIRECTION('',(-0.,1.224646799147E-16,1.));
#890 = DIRECTION('',(1.,0.,0.));
#891 = ADVANCED_FACE('',(#892),#909,.T.);
#892 = FACE_BOUND('',#893,.T.);
#893 = EDGE_LOOP('',(#894,#900,#901,#902,#908));
#894 = ORIENTED_EDGE('',*,*,#895,.F.);
#895 = EDGE_CURVE('',#223,#445,#896,.T.);
#896 = LINE('',#897,#898);
#897 = CARTESIAN_POINT('',(208.7,120.,91.));
#898 = VECTOR('',#899,1.);
#899 = DIRECTION('',(1.,0.,0.));
#900 = ORIENTED_EDGE('',*,*,#230,.T.);
#901 = ORIENTED_EDGE('',*,*,#878,.F.);
#902 = ORIENTED_EDGE('',*,*,#903,.T.);
#903 = EDGE_CURVE('',#870,#443,#904,.T.);
#904 = LINE('',#905,#906);
#905 = CARTESIAN_POINT('',(208.7,117.,87.));
#906 = VECTOR('',#907,1.);
#907 = DIRECTION('',(1.,0.,0.));
#908 = ORIENTED_EDGE('',*,*,#442,.T.);
#909 = PLANE('',#910);
#910 = AXIS2_PLACEMENT_3D('',#911,#912,#913);
#911 = CARTESIAN_POINT('',(208.7,117.,87.));
#912 = DIRECTION('',(0.,-0.8,0.6));
#913 = DIRECTION('',(9.E-17,0.6,0.8));
#914 = ADVANCED_FACE('',(#915),#935,.T.);
#915 = FACE_BOUND('',#916,.T.);
#916 = EDGE_LOOP('',(#917,#926,#927,#928,#929));
#917 = ORIENTED_EDGE('',*,*,#918,.F.);
#918 = EDGE_CURVE('',#215,#919,#921,.T.);
#919 = VERTEX_POINT('',#920);
#920 = CARTESIAN_POINT('',(210.1,117.,95.));
#921 = ELLIPSE('',#922,3.666666666667,2.2);
#922 = AXIS2_PLACEMENT_3D('',#923,#924,#925);
#923 = CARTESIAN_POINT('',(207.9,117.,95.));
#924 = DIRECTION('',(0.,-0.8,-0.6));
#925 = DIRECTION('',(0.,-0.6,0.8));
#926 = ORIENTED_EDGE('',*,*,#222,.T.);
#927 = ORIENTED_EDGE('',*,*,#895,.T.);
#928 = ORIENTED_EDGE('',*,*,#468,.T.);
#929 = ORIENTED_EDGE('',*,*,#930,.F.);
#930 = EDGE_CURVE('',#919,#461,#931,.T.);
#931 = LINE('',#932,#933);
#932 = CARTESIAN_POINT('',(208.7,117.,95.));
#933 = VECTOR('',#934,1.);
#934 = DIRECTION('',(1.,0.,0.));
#935 = PLANE('',#936);
#936 = AXIS2_PLACEMENT_3D('',#937,#938,#939);
#937 = CARTESIAN_POINT('',(208.7,120.,91.));
#938 = DIRECTION('',(0.,-0.8,-0.6));
#939 = DIRECTION('',(-4.4E-16,-0.6,0.8));
#940 = ADVANCED_FACE('',(#941),#978,.F.);
#941 = FACE_BOUND('',#942,.T.);
#942 = EDGE_LOOP('',(#943,#952,#960,#969,#976,#977));
#943 = ORIENTED_EDGE('',*,*,#944,.T.);
#944 = EDGE_CURVE('',#919,#945,#947,.T.);
#945 = VERTEX_POINT('',#946);
#946 = CARTESIAN_POINT('',(209.7,115.73508893593,93.313451914577));
#947 = ELLIPSE('',#948,3.666666666667,2.2);
#948 = AXIS2_PLACEMENT_3D('',#949,#950,#951);
#949 = CARTESIAN_POINT('',(207.9,117.,95.));
#950 = DIRECTION('',(0.,0.8,-0.6));
#951 = DIRECTION('',(0.,0.6,0.8));
#952 = ORIENTED_EDGE('',*,*,#953,.T.);
#953 = EDGE_CURVE('',#945,#954,#956,.T.);
#954 = VERTEX_POINT('',#955);
#955 = CARTESIAN_POINT('',(209.7,115.73508893593,100.2));
#956 = LINE('',#957,#958);
#957 = CARTESIAN_POINT('',(209.7,115.73508893593,113.));
#958 = VECTOR('',#959,1.);
#959 = DIRECTION('',(-0.,1.224646799147E-16,1.));
#960 = ORIENTED_EDGE('',*,*,#961,.T.);
#961 = EDGE_CURVE('',#954,#962,#964,.T.);
#962 = VERTEX_POINT('',#963);
#963 = CARTESIAN_POINT('',(210.1,117.,100.2));
#964 = CIRCLE('',#965,2.2);
#965 = AXIS2_PLACEMENT_3D('',#966,#967,#968);
#966 = CARTESIAN_POINT('',(207.9,117.,100.2));
#967 = DIRECTION('',(-0.,1.224646799147E-16,1.));
#968 = DIRECTION('',(1.,0.,0.));
#969 = ORIENTED_EDGE('',*,*,#970,.T.);
#970 = EDGE_CURVE('',#962,#207,#971,.T.);
#971 = CIRCLE('',#972,2.2);
#972 = AXIS2_PLACEMENT_3D('',#973,#974,#975);
#973 = CARTESIAN_POINT('',(207.9,117.,100.2));
#974 = DIRECTION('',(-0.,1.224646799147E-16,1.));
#975 = DIRECTION('',(1.,0.,0.));
#976 = ORIENTED_EDGE('',*,*,#214,.F.);
#977 = ORIENTED_EDGE('',*,*,#918,.T.);
#978 = CYLINDRICAL_SURFACE('',#979,2.2);
#979 = AXIS2_PLACEMENT_3D('',#980,#981,#982);
#980 = CARTESIAN_POINT('',(207.9,117.,113.));
#981 = DIRECTION('',(-0.,1.224646799147E-16,1.));
#982 = DIRECTION('',(1.,0.,0.));
#983 = ADVANCED_FACE('',(#984),#1010,.T.);
#984 = FACE_BOUND('',#985,.T.);
#985 = EDGE_LOOP('',(#986,#992,#993,#994,#995,#1003,#1009));
#986 = ORIENTED_EDGE('',*,*,#987,.F.);
#987 = EDGE_CURVE('',#199,#375,#988,.T.);
#988 = LINE('',#989,#990);
#989 = CARTESIAN_POINT('',(208.7,121.3,100.2));
#990 = VECTOR('',#991,1.);
#991 = DIRECTION('',(1.,0.,0.));
#992 = ORIENTED_EDGE('',*,*,#206,.T.);
#993 = ORIENTED_EDGE('',*,*,#970,.F.);
#994 = ORIENTED_EDGE('',*,*,#961,.F.);
#995 = ORIENTED_EDGE('',*,*,#996,.T.);
#996 = EDGE_CURVE('',#954,#997,#999,.T.);
#997 = VERTEX_POINT('',#998);
#998 = CARTESIAN_POINT('',(209.7,112.7,100.2));
#999 = LINE('',#1000,#1001);
#1000 = CARTESIAN_POINT('',(209.7,111.35,100.2));
#1001 = VECTOR('',#1002,1.);
#1002 = DIRECTION('',(0.,-1.,-9.753532008526E-17));
#1003 = ORIENTED_EDGE('',*,*,#1004,.T.);
#1004 = EDGE_CURVE('',#997,#385,#1005,.T.);
#1005 = LINE('',#1006,#1007);
#1006 = CARTESIAN_POINT('',(208.7,112.7,100.2));
#1007 = VECTOR('',#1008,1.);
#1008 = DIRECTION('',(1.,0.,0.));
#1009 = ORIENTED_EDGE('',*,*,#384,.T.);
#1010 = PLANE('',#1011);
#1011 = AXIS2_PLACEMENT_3D('',#1012,#1013,#1014);
#1012 = CARTESIAN_POINT('',(208.7,112.7,100.2));
#1013 = DIRECTION('',(0.,-9.753532008526E-17,1.));
#1014 = DIRECTION('',(4.4E-16,1.,9.753532008526E-17));
#1015 = ADVANCED_FACE('',(#1016),#1027,.T.);
#1016 = FACE_BOUND('',#1017,.T.);
#1017 = EDGE_LOOP('',(#1018,#1019,#1020,#1021));
#1018 = ORIENTED_EDGE('',*,*,#198,.T.);
#1019 = ORIENTED_EDGE('',*,*,#987,.T.);
#1020 = ORIENTED_EDGE('',*,*,#374,.T.);
#1021 = ORIENTED_EDGE('',*,*,#1022,.F.);
#1022 = EDGE_CURVE('',#191,#377,#1023,.T.);
#1023 = LINE('',#1024,#1025);
#1024 = CARTESIAN_POINT('',(208.7,121.3,105.8));
#1025 = VECTOR('',#1026,1.);
#1026 = DIRECTION('',(1.,0.,0.));
#1027 = PLANE('',#1028);
#1028 = AXIS2_PLACEMENT_3D('',#1029,#1030,#1031);
#1029 = CARTESIAN_POINT('',(208.7,121.3,100.2));
#1030 = DIRECTION('',(0.,-1.,-9.753532008526E-17));
#1031 = DIRECTION('',(-2.2E-16,-9.753532008526E-17,1.));
#1032 = ADVANCED_FACE('',(#1033),#1070,.T.);
#1033 = FACE_BOUND('',#1034,.T.);
#1034 = EDGE_LOOP('',(#1035,#1043,#1051,#1060,#1067,#1068,#1069));
#1035 = ORIENTED_EDGE('',*,*,#1036,.F.);
#1036 = EDGE_CURVE('',#1037,#393,#1039,.T.);
#1037 = VERTEX_POINT('',#1038);
#1038 = CARTESIAN_POINT('',(209.7,112.7,105.8));
#1039 = LINE('',#1040,#1041);
#1040 = CARTESIAN_POINT('',(208.7,112.7,105.8));
#1041 = VECTOR('',#1042,1.);
#1042 = DIRECTION('',(1.,0.,0.));
#1043 = ORIENTED_EDGE('',*,*,#1044,.T.);
#1044 = EDGE_CURVE('',#1037,#1045,#1047,.T.);
#1045 = VERTEX_POINT('',#1046);
#1046 = CARTESIAN_POINT('',(209.7,115.73508893593,105.8));
#1047 = LINE('',#1048,#1049);
#1048 = CARTESIAN_POINT('',(209.7,115.65,105.8));
#1049 = VECTOR('',#1050,1.);
#1050 = DIRECTION('',(0.,1.,9.753532008526E-17));
#1051 = ORIENTED_EDGE('',*,*,#1052,.T.);
#1052 = EDGE_CURVE('',#1045,#1053,#1055,.T.);
#1053 = VERTEX_POINT('',#1054);
#1054 = CARTESIAN_POINT('',(210.1,117.,105.8));
#1055 = CIRCLE('',#1056,2.2);
#1056 = AXIS2_PLACEMENT_3D('',#1057,#1058,#1059);
#1057 = CARTESIAN_POINT('',(207.9,117.,105.8));
#1058 = DIRECTION('',(-0.,1.224646799147E-16,1.));
#1059 = DIRECTION('',(1.,0.,0.));
#1060 = ORIENTED_EDGE('',*,*,#1061,.T.);
#1061 = EDGE_CURVE('',#1053,#183,#1062,.T.);
#1062 = CIRCLE('',#1063,2.2);
#1063 = AXIS2_PLACEMENT_3D('',#1064,#1065,#1066);
#1064 = CARTESIAN_POINT('',(207.9,117.,105.8));
#1065 = DIRECTION('',(-0.,1.224646799147E-16,1.));
#1066 = DIRECTION('',(1.,0.,0.));
#1067 = ORIENTED_EDGE('',*,*,#190,.T.);
#1068 = ORIENTED_EDGE('',*,*,#1022,.T.);
#1069 = ORIENTED_EDGE('',*,*,#400,.T.);
#1070 = PLANE('',#1071);
#1071 = AXIS2_PLACEMENT_3D('',#1072,#1073,#1074);
#1072 = CARTESIAN_POINT('',(208.7,121.3,105.8));
#1073 = DIRECTION('',(0.,9.753532008526E-17,-1.));
#1074 = DIRECTION('',(-4.4E-16,-1.,-9.753532008526E-17));
#1075 = ADVANCED_FACE('',(#1076),#1089,.F.);
#1076 = FACE_BOUND('',#1077,.T.);
#1077 = EDGE_LOOP('',(#1078,#1079,#1085,#1086,#1087,#1088));
#1078 = ORIENTED_EDGE('',*,*,#1052,.F.);
#1079 = ORIENTED_EDGE('',*,*,#1080,.T.);
#1080 = EDGE_CURVE('',#1045,#702,#1081,.T.);
#1081 = LINE('',#1082,#1083);
#1082 = CARTESIAN_POINT('',(209.7,115.73508893593,113.));
#1083 = VECTOR('',#1084,1.);
#1084 = DIRECTION('',(-0.,1.224646799147E-16,1.));
#1085 = ORIENTED_EDGE('',*,*,#709,.T.);
#1086 = ORIENTED_EDGE('',*,*,#718,.T.);
#1087 = ORIENTED_EDGE('',*,*,#182,.F.);
#1088 = ORIENTED_EDGE('',*,*,#1061,.F.);
#1089 = CYLINDRICAL_SURFACE('',#1090,2.2);
#1090 = AXIS2_PLACEMENT_3D('',#1091,#1092,#1093);
#1091 = CARTESIAN_POINT('',(207.9,117.,113.));
#1092 = DIRECTION('',(-0.,1.224646799147E-16,1.));
#1093 = DIRECTION('',(1.,0.,0.));
#1094 = ADVANCED_FACE('',(#1095),#1106,.F.);
#1095 = FACE_BOUND('',#1096,.F.);
#1096 = EDGE_LOOP('',(#1097,#1098,#1104,#1105));
#1097 = ORIENTED_EDGE('',*,*,#671,.F.);
#1098 = ORIENTED_EDGE('',*,*,#1099,.T.);
#1099 = EDGE_CURVE('',#664,#581,#1100,.T.);
#1100 = LINE('',#1101,#1102);
#1101 = CARTESIAN_POINT('',(209.7,124.,108.));
#1102 = VECTOR('',#1103,1.);
#1103 = DIRECTION('',(0.,-1.224646799147E-16,-1.));
#1104 = ORIENTED_EDGE('',*,*,#588,.T.);
#1105 = ORIENTED_EDGE('',*,*,#366,.F.);
#1106 = PLANE('',#1107);
#1107 = AXIS2_PLACEMENT_3D('',#1108,#1109,#1110);
#1108 = CARTESIAN_POINT('',(209.7,124.,108.));
#1109 = DIRECTION('',(0.,-1.,1.224646799147E-16));
#1110 = DIRECTION('',(1.,0.,0.));
#1111 = ADVANCED_FACE('',(#1112),#1123,.F.);
#1112 = FACE_BOUND('',#1113,.F.);
#1113 = EDGE_LOOP('',(#1114,#1115,#1116,#1122));
#1114 = ORIENTED_EDGE('',*,*,#350,.T.);
#1115 = ORIENTED_EDGE('',*,*,#595,.T.);
#1116 = ORIENTED_EDGE('',*,*,#1117,.F.);
#1117 = EDGE_CURVE('',#694,#596,#1118,.T.);
#1118 = LINE('',#1119,#1120);
#1119 = CARTESIAN_POINT('',(209.7,110.,108.));
#1120 = VECTOR('',#1121,1.);
#1121 = DIRECTION('',(0.,-1.224646799147E-16,-1.));
#1122 = ORIENTED_EDGE('',*,*,#693,.F.);
#1123 = PLANE('',#1124);
#1124 = AXIS2_PLACEMENT_3D('',#1125,#1126,#1127);
#1125 = CARTESIAN_POINT('',(213.7,110.,108.));
#1126 = DIRECTION('',(0.,1.,-1.224646799147E-16));
#1127 = DIRECTION('',(-1.,-0.,0.));
#1128 = ADVANCED_FACE('',(#1129),#1140,.T.);
#1129 = FACE_BOUND('',#1130,.T.);
#1130 = EDGE_LOOP('',(#1131,#1137,#1138,#1139));
#1131 = ORIENTED_EDGE('',*,*,#1132,.T.);
#1132 = EDGE_CURVE('',#997,#1037,#1133,.T.);
#1133 = LINE('',#1134,#1135);
#1134 = CARTESIAN_POINT('',(209.7,112.7,106.9));
#1135 = VECTOR('',#1136,1.);
#1136 = DIRECTION('',(0.,-9.753532008526E-17,1.));
#1137 = ORIENTED_EDGE('',*,*,#1036,.T.);
#1138 = ORIENTED_EDGE('',*,*,#392,.T.);
#1139 = ORIENTED_EDGE('',*,*,#1004,.F.);
#1140 = PLANE('',#1141);
#1141 = AXIS2_PLACEMENT_3D('',#1142,#1143,#1144);
#1142 = CARTESIAN_POINT('',(208.7,112.7,105.8));
#1143 = DIRECTION('',(0.,1.,9.753532008526E-17));
#1144 = DIRECTION('',(2.2E-16,9.753532008526E-17,-1.));
#1145 = ADVANCED_FACE('',(#1146),#1157,.T.);
#1146 = FACE_BOUND('',#1147,.T.);
#1147 = EDGE_LOOP('',(#1148,#1154,#1155,#1156));
#1148 = ORIENTED_EDGE('',*,*,#1149,.T.);
#1149 = EDGE_CURVE('',#778,#818,#1150,.T.);
#1150 = LINE('',#1151,#1152);
#1151 = CARTESIAN_POINT('',(209.7,112.7,94.9));
#1152 = VECTOR('',#1153,1.);
#1153 = DIRECTION('',(0.,-9.753532008526E-17,1.));
#1154 = ORIENTED_EDGE('',*,*,#817,.T.);
#1155 = ORIENTED_EDGE('',*,*,#426,.T.);
#1156 = ORIENTED_EDGE('',*,*,#785,.F.);
#1157 = PLANE('',#1158);
#1158 = AXIS2_PLACEMENT_3D('',#1159,#1160,#1161);
#1159 = CARTESIAN_POINT('',(208.7,112.7,81.8));
#1160 = DIRECTION('',(0.,1.,9.753532008526E-17));
#1161 = DIRECTION('',(2.2E-16,9.753532008526E-17,-1.));
#1162 = ADVANCED_FACE('',(#1163),#1182,.T.);
#1163 = FACE_BOUND('',#1164,.T.);
#1164 = EDGE_LOOP('',(#1165,#1166,#1174,#1180,#1181));
#1165 = ORIENTED_EDGE('',*,*,#869,.F.);
#1166 = ORIENTED_EDGE('',*,*,#1167,.T.);
#1167 = EDGE_CURVE('',#862,#1168,#1170,.T.);
#1168 = VERTEX_POINT('',#1169);
#1169 = CARTESIAN_POINT('',(209.7,114.,91.));
#1170 = LINE('',#1171,#1172);
#1171 = CARTESIAN_POINT('',(209.7,109.2,97.4));
#1172 = VECTOR('',#1173,1.);
#1173 = DIRECTION('',(0.,-0.6,0.8));
#1174 = ORIENTED_EDGE('',*,*,#1175,.T.);
#1175 = EDGE_CURVE('',#1168,#453,#1176,.T.);
#1176 = LINE('',#1177,#1178);
#1177 = CARTESIAN_POINT('',(208.7,114.,91.));
#1178 = VECTOR('',#1179,1.);
#1179 = DIRECTION('',(1.,0.,0.));
#1180 = ORIENTED_EDGE('',*,*,#452,.T.);
#1181 = ORIENTED_EDGE('',*,*,#903,.F.);
#1182 = PLANE('',#1183);
#1183 = AXIS2_PLACEMENT_3D('',#1184,#1185,#1186);
#1184 = CARTESIAN_POINT('',(208.7,114.,91.));
#1185 = DIRECTION('',(0.,0.8,0.6));
#1186 = DIRECTION('',(4.4E-16,0.6,-0.8));
#1187 = ADVANCED_FACE('',(#1188),#1200,.T.);
#1188 = FACE_BOUND('',#1189,.T.);
#1189 = EDGE_LOOP('',(#1190,#1191,#1197,#1198,#1199));
#1190 = ORIENTED_EDGE('',*,*,#1175,.F.);
#1191 = ORIENTED_EDGE('',*,*,#1192,.T.);
#1192 = EDGE_CURVE('',#1168,#945,#1193,.T.);
#1193 = LINE('',#1194,#1195);
#1194 = CARTESIAN_POINT('',(209.7,118.86,97.48));
#1195 = VECTOR('',#1196,1.);
#1196 = DIRECTION('',(0.,0.6,0.8));
#1197 = ORIENTED_EDGE('',*,*,#944,.F.);
#1198 = ORIENTED_EDGE('',*,*,#930,.T.);
#1199 = ORIENTED_EDGE('',*,*,#460,.T.);
#1200 = PLANE('',#1201);
#1201 = AXIS2_PLACEMENT_3D('',#1202,#1203,#1204);
#1202 = CARTESIAN_POINT('',(208.7,117.,95.));
#1203 = DIRECTION('',(0.,0.8,-0.6));
#1204 = DIRECTION('',(-9.E-17,-0.6,-0.8));
#1205 = ADVANCED_FACE('',(#1206),#1212,.F.);
#1206 = FACE_BOUND('',#1207,.F.);
#1207 = EDGE_LOOP('',(#1208,#1209,#1210,#1211));
#1208 = ORIENTED_EDGE('',*,*,#1099,.F.);
#1209 = ORIENTED_EDGE('',*,*,#663,.F.);
#1210 = ORIENTED_EDGE('',*,*,#639,.F.);
#1211 = ORIENTED_EDGE('',*,*,#580,.T.);
#1212 = PLANE('',#1213);
#1213 = AXIS2_PLACEMENT_3D('',#1214,#1215,#1216);
#1214 = CARTESIAN_POINT('',(209.7,110.,108.));
#1215 = DIRECTION('',(1.,0.,0.));
#1216 = DIRECTION('',(0.,1.,-1.224646799147E-16));
#1217 = ADVANCED_FACE('',(#1218),#1235,.F.);
#1218 = FACE_BOUND('',#1219,.F.);
#1219 = EDGE_LOOP('',(#1220,#1221,#1222,#1223,#1224,#1225,#1226,#1227,
    #1228,#1229,#1230,#1231,#1232,#1233,#1234));
#1220 = ORIENTED_EDGE('',*,*,#701,.F.);
#1221 = ORIENTED_EDGE('',*,*,#1117,.T.);
#1222 = ORIENTED_EDGE('',*,*,#603,.T.);
#1223 = ORIENTED_EDGE('',*,*,#734,.T.);
#1224 = ORIENTED_EDGE('',*,*,#777,.T.);
#1225 = ORIENTED_EDGE('',*,*,#1149,.T.);
#1226 = ORIENTED_EDGE('',*,*,#825,.T.);
#1227 = ORIENTED_EDGE('',*,*,#861,.T.);
#1228 = ORIENTED_EDGE('',*,*,#1167,.T.);
#1229 = ORIENTED_EDGE('',*,*,#1192,.T.);
#1230 = ORIENTED_EDGE('',*,*,#953,.T.);
#1231 = ORIENTED_EDGE('',*,*,#996,.T.);
#1232 = ORIENTED_EDGE('',*,*,#1132,.T.);
#1233 = ORIENTED_EDGE('',*,*,#1044,.T.);
#1234 = ORIENTED_EDGE('',*,*,#1080,.T.);
#1235 = PLANE('',#1236);
#1236 = AXIS2_PLACEMENT_3D('',#1237,#1238,#1239);
#1237 = CARTESIAN_POINT('',(209.7,110.,108.));
#1238 = DIRECTION('',(1.,0.,0.));
#1239 = DIRECTION('',(0.,1.,-1.224646799147E-16));
#1240 = ( GEOMETRIC_REPRESENTATION_CONTEXT(3) 
GLOBAL_UNCERTAINTY_ASSIGNED_CONTEXT((#1244)) 
GLOBAL_UNIT_ASSIGNED_CONTEXT((#1241,#1242,#1243)) REPRESENTATION_CONTEXT
('Context #1','3D Context with UNIT and UNCERTAINTY') );
#1241 = ( LENGTH_UNIT() NAMED_UNIT(*) SI_UNIT(.MILLI.,.METRE.) );
#1242 = ( NAMED_UNIT(*) PLANE_ANGLE_UNIT() SI_UNIT($,.RADIAN.) );
#1243 = ( NAMED_UNIT(*) SI_UNIT($,.STERADIAN.) SOLID_ANGLE_UNIT() );
#1244 = UNCERTAINTY_MEASURE_WITH_UNIT(LENGTH_MEASURE(5.E-05),#1241,
  'distance_accuracy_value','confusion accuracy');
#1245 = PRODUCT_RELATED_PRODUCT_CATEGORY('part',$,(#7));
ENDSEC;
END-ISO-10303-21;
