solid fan_left
  facet normal 1.26155402435e-05 0.707099104348 -0.707114457829
    outer loop
      vertex -0.0246537742615 0.0456719551086 -0.113813323975
      vertex -0.0274829921722 0.0433472633362 -0.116138015747
      vertex -0.0305499820709 0.0411785774231 -0.11830670929
    endloop
  endfacet
  facet normal -7.69726002307e-06 0.707112431614 -0.707101130672
    outer loop
      vertex -0.0246537742615 0.0456719551086 -0.113813323975
      vertex -0.0305499820709 0.0411785774231 -0.11830670929
      vertex -0.0338375930786 0.0391780166626 -0.120307266235
    endloop
  endfacet
  facet normal -2.14502130354e-05 0.707115792043 -0.707097769889
    outer loop
      vertex -0.0177438049316 0.0534481163025 -0.106037162781
      vertex -0.019770526886 0.0507365455627 -0.10874874115
      vertex -0.0220781517029 0.0481396484375 -0.11134563446
    endloop
  endfacet
  facet normal -7.04633018367e-06 0.707109911879 -0.707103650445
    outer loop
      vertex -0.0177438049316 0.0534481163025 -0.106037162781
      vertex -0.0220781517029 0.0481396484375 -0.11134563446
      vertex -0.0246537742615 0.0456719551086 -0.113813323975
    endloop
  endfacet
  facet normal -3.32780787923e-06 0.707112174564 -0.707101387761
    outer loop
      vertex -0.048810218811 0.0330654678345 -0.126419815063
      vertex -0.041 0.0357250404358 -0.123760238647
      vertex -0.0448347434998 0.0342919311523 -0.125193351746
    endloop
  endfacet
  facet normal 0 0.707106781187 -0.707106781187
    outer loop
      vertex -0.0160093231201 0.0562592048645 -0.103226074219
      vertex -0.0177438049316 0.0534481163025 -0.106037162781
      vertex -0.0246537742615 0.0456719551086 -0.113813323975
    endloop
  endfacet
  facet normal 2.89696900462e-06 0.7071055985 -0.707107963865
    outer loop
      vertex -0.0145767774582 0.059154083252 -0.100331199646
      vertex -0.0160093231201 0.0562592048645 -0.103226074219
      vertex -0.0246537742615 0.0456719551086 -0.113813323975
    endloop
  endfacet
  facet normal 2.74860019705e-06 0.707101226799 -0.707112335525
    outer loop
      vertex -0.0570937843323 0.0312587089539 -0.128226577759
      vertex -0.048810218811 0.0330654678345 -0.126419815063
      vertex -0.0529042015076 0.0320525054932 -0.127432777405
    endloop
  endfacet
  facet normal 2.90467845046e-07 0.707106861797 -0.707106700576
    outer loop
      vertex -0.0570937843323 0.0312587089539 -0.128226577759
      vertex -0.041 0.0357250404358 -0.123760238647
      vertex -0.048810218811 0.0330654678345 -0.126419815063
    endloop
  endfacet
  facet normal 2.99015771744e-07 0.707106846397 -0.707106715976
    outer loop
      vertex -0.0613555488586 0.0306885204315 -0.128796768188
      vertex -0.041 0.0357250404358 -0.123760238647
      vertex -0.0570937843323 0.0312587089539 -0.128226577759
    endloop
  endfacet
  facet normal 1.4772529796e-06 0.707104625291 -0.707108937074
    outer loop
      vertex -0.0613555488586 0.0306885204315 -0.128796768188
      vertex -0.0338375930786 0.0391780166626 -0.120307266235
      vertex -0.0373274383545 0.0373567771912 -0.122128501892
    endloop
  endfacet
  facet normal 7.47631989287e-07 0.707105939836 -0.707107622536
    outer loop
      vertex -0.0613555488586 0.0306885204315 -0.128796768188
      vertex -0.0373274383545 0.0373567771912 -0.122128501892
      vertex -0.041 0.0357250404358 -0.123760238647
    endloop
  endfacet
  facet normal -1.65391689731e-05 0.707108098792 -0.707105463385
    outer loop
      vertex -0.012 0.0712426376343 -0.0882426376343
      vertex -0.0121621799469 0.0681777954102 -0.0913074874878
      vertex -0.0126478118896 0.0651300888062 -0.0943551940918
    endloop
  endfacet
  facet normal -5.46138209562e-06 0.707107511864 -0.707106050487
    outer loop
      vertex -0.012 0.0712426376343 -0.0882426376343
      vertex -0.0126478118896 0.0651300888062 -0.0943551940918
      vertex -0.0134541807175 0.062116569519 -0.0973687133789
    endloop
  endfacet
  facet normal -2.69197540772e-06 0.707107291229 -0.707106271139
    outer loop
      vertex -0.012 0.0712426376343 -0.0882426376343
      vertex -0.0134541807175 0.062116569519 -0.0973687133789
      vertex -0.0145767774582 0.059154083252 -0.100331199646
    endloop
  endfacet
  facet normal 2.79710022343e-06 0.707077443629 -0.707136117522
    outer loop
      vertex -0.07 0.0302304477692 -0.129254837036
      vertex -0.0613555488586 0.0306885204315 -0.128796768188
      vertex -0.0656656570435 0.0303451251984 -0.129140151978
    endloop
  endfacet
  facet normal -6.9577313346e-07 0.707108147129 -0.707105415242
    outer loop
      vertex -0.0743343429565 0.0303451251984 -0.129140151978
      vertex -0.0338375930786 0.0391780166626 -0.120307266235
      vertex -0.0613555488586 0.0306885204315 -0.128796768188
    endloop
  endfacet
  facet normal -9.3407245083e-07 0.707112650501 -0.707100911823
    outer loop
      vertex -0.0743343429565 0.0303451251984 -0.129140151978
      vertex -0.0613555488586 0.0306885204315 -0.128796768188
      vertex -0.07 0.0302304477692 -0.129254837036
    endloop
  endfacet
  facet normal -2.75485974261e-07 0.70710718367 -0.707106378703
    outer loop
      vertex -0.0743343429565 0.0303451251984 -0.129140151978
      vertex -0.0246537742615 0.0456719551086 -0.113813323975
      vertex -0.0338375930786 0.0391780166626 -0.120307266235
    endloop
  endfacet
  facet normal -1.49264037151e-07 0.707107020231 -0.707106542142
    outer loop
      vertex -0.0786444549561 0.0306885204315 -0.128796768188
      vertex -0.012 0.0712426376343 -0.0882426376343
      vertex -0.0145767774582 0.059154083252 -0.100331199646
    endloop
  endfacet
  facet normal 2.27644586054e-07 0.707106596076 -0.707106966297
    outer loop
      vertex -0.0786444549561 0.0306885204315 -0.128796768188
      vertex -0.0145767774582 0.059154083252 -0.100331199646
      vertex -0.0246537742615 0.0456719551086 -0.113813323975
    endloop
  endfacet
  facet normal 1.48657791884e-06 0.707104327878 -0.707109234485
    outer loop
      vertex -0.0786444549561 0.0306885204315 -0.128796768188
      vertex -0.0246537742615 0.0456719551086 -0.113813323975
      vertex -0.0743343429565 0.0303451251984 -0.129140151978
    endloop
  endfacet
  facet normal 1.1749452974e-06 0.707105932163 -0.707107630208
    outer loop
      vertex -0.0786444549561 0.0306885204315 -0.128796768188
      vertex -0.0121621799469 0.0743074874878 -0.0851777954102
      vertex -0.012 0.0712426376343 -0.0882426376343
    endloop
  endfacet
  facet normal 0 0.707106781187 -0.707106781187
    outer loop
      vertex -0.0134541807175 0.0803687133789 -0.079116569519
      vertex -0.0126478118896 0.0773551940918 -0.0821300888062
      vertex -0.0121621799469 0.0743074874878 -0.0851777954102
    endloop
  endfacet
  facet normal -2.52554013881e-07 0.707107020033 -0.70710654234
    outer loop
      vertex -0.082906211853 0.0312587089539 -0.128226577759
      vertex -0.0121621799469 0.0743074874878 -0.0851777954102
      vertex -0.0786444549561 0.0306885204315 -0.128796768188
    endloop
  endfacet
  facet normal 0 0.707106781187 -0.707106781187
    outer loop
      vertex -0.0145767774582 0.083331199646 -0.076154083252
      vertex -0.0134541807175 0.0803687133789 -0.079116569519
      vertex -0.0121621799469 0.0743074874878 -0.0851777954102
    endloop
  endfacet
  facet normal -4.81911736028e-07 0.70710720849 -0.707106353883
    outer loop
      vertex -0.0870958023071 0.0320525054932 -0.127432777405
      vertex -0.0121621799469 0.0743074874878 -0.0851777954102
      vertex -0.082906211853 0.0312587089539 -0.128226577759
    endloop
  endfacet
  facet normal 0 0.707106781187 -0.707106781187
    outer loop
      vertex -0.0951652603149 0.0342919311523 -0.125193351746
      vertex -0.0870958023071 0.0320525054932 -0.127432777405
      vertex -0.091189781189 0.0330654678345 -0.126419815063
    endloop
  endfacet
  facet normal 0 0.707106781187 -0.707106781187
    outer loop
      vertex -0.019770526886 0.0917487411499 -0.067736541748
      vertex -0.0145767774582 0.083331199646 -0.076154083252
      vertex -0.0121621799469 0.0743074874878 -0.0851777954102
    endloop
  endfacet
  facet normal 0 0.707106781187 -0.707106781187
    outer loop
      vertex -0.019770526886 0.0917487411499 -0.067736541748
      vertex -0.0121621799469 0.0743074874878 -0.0851777954102
      vertex -0.0870958023071 0.0320525054932 -0.127432777405
    endloop
  endfacet
  facet normal 0 0.707106781187 -0.707106781187
    outer loop
      vertex -0.019770526886 0.0917487411499 -0.067736541748
      vertex -0.0870958023071 0.0320525054932 -0.127432777405
      vertex -0.0951652603149 0.0342919311523 -0.125193351746
    endloop
  endfacet
  facet normal -1.47151772545e-05 0.707101281787 -0.70711228039
    outer loop
      vertex -0.019770526886 0.0917487411499 -0.067736541748
      vertex -0.0177438049316 0.0890371627808 -0.0704481201172
      vertex -0.0160093231201 0.0862260742188 -0.0732592010498
    endloop
  endfacet
  facet normal 1.52551492941e-05 0.707111487417 -0.707102074761
    outer loop
      vertex -0.019770526886 0.0917487411499 -0.067736541748
      vertex -0.0160093231201 0.0862260742188 -0.0732592010498
      vertex -0.0145767774582 0.083331199646 -0.076154083252
    endloop
  endfacet
  facet normal -4.71963747959e-07 0.707107090841 -0.707106471531
    outer loop
      vertex -0.099 0.0357250404358 -0.123760238647
      vertex -0.019770526886 0.0917487411499 -0.067736541748
      vertex -0.0951652603149 0.0342919311523 -0.125193351746
    endloop
  endfacet
  facet normal -2.09080091862e-08 0.707106771897 -0.707106790476
    outer loop
      vertex -0.0220781517029 0.0943456344604 -0.0651396484375
      vertex -0.019770526886 0.0917487411499 -0.067736541748
      vertex -0.099 0.0357250404358 -0.123760238647
    endloop
  endfacet
  facet normal -2.95720911722e-06 0.70710345327 -0.707110109082
    outer loop
      vertex -0.109450019836 0.0411785774231 -0.11830670929
      vertex -0.099 0.0357250404358 -0.123760238647
      vertex -0.102672561646 0.0373567771912 -0.122128501892
    endloop
  endfacet
  facet normal 4.86563527795e-07 0.707106506822 -0.707107055551
    outer loop
      vertex -0.109450019836 0.0411785774231 -0.11830670929
      vertex -0.102672561646 0.0373567771912 -0.122128501892
      vertex -0.106162406921 0.0391780166626 -0.120307266235
    endloop
  endfacet
  facet normal -1.26158102647e-05 0.707099104168 -0.707114458009
    outer loop
      vertex -0.115346229553 0.0456719551086 -0.113813323975
      vertex -0.109450019836 0.0411785774231 -0.11830670929
      vertex -0.11251700592 0.0433472633362 -0.116138015747
    endloop
  endfacet
  facet normal 3.62559867842e-06 0.707109760233 -0.707103802118
    outer loop
      vertex -0.115346229553 0.0456719551086 -0.113813323975
      vertex -0.099 0.0357250404358 -0.123760238647
      vertex -0.109450019836 0.0411785774231 -0.11830670929
    endloop
  endfacet
  facet normal -4.86561827605e-07 0.707107055553 -0.70710650682
    outer loop
      vertex -0.0373274383545 0.105128501892 -0.0543567771912
      vertex -0.0338375930786 0.103307266235 -0.0561780166626
      vertex -0.0305499820709 0.10130670929 -0.0581785774231
    endloop
  endfacet
  facet normal -6.92621329209e-06 0.70710063978 -0.707112922506
    outer loop
      vertex -0.041 0.106760238647 -0.0527250404358
      vertex -0.0305499820709 0.10130670929 -0.0581785774231
      vertex -0.0274829921722 0.0991380157471 -0.0603472633362
    endloop
  endfacet
  facet normal 0 0.707106781187 -0.707106781187
    outer loop
      vertex -0.041 0.106760238647 -0.0527250404358
      vertex -0.0274829921722 0.0991380157471 -0.0603472633362
      vertex -0.0246537742615 0.0968133239746 -0.0626719551086
    endloop
  endfacet
  facet normal 2.95720602537e-06 0.707110109078 -0.707103453273
    outer loop
      vertex -0.041 0.106760238647 -0.0527250404358
      vertex -0.0373274383545 0.105128501892 -0.0543567771912
      vertex -0.0305499820709 0.10130670929 -0.0581785774231
    endloop
  endfacet
  facet normal 3.50576916664e-07 0.707106417599 -0.707107144774
    outer loop
      vertex -0.120229476929 0.0507365455627 -0.10874874115
      vertex -0.115346229553 0.0456719551086 -0.113813323975
      vertex -0.117921852112 0.0481396484375 -0.11134563446
    endloop
  endfacet
  facet normal 1.40925866904e-05 0.707113042487 -0.70710051969
    outer loop
      vertex -0.122256195068 0.0534481163025 -0.106037162781
      vertex -0.115346229553 0.0456719551086 -0.113813323975
      vertex -0.120229476929 0.0507365455627 -0.10874874115
    endloop
  endfacet
  facet normal 0 0.707106781187 -0.707106781187
    outer loop
      vertex -0.0529042015076 0.110432777405 -0.0490525054932
      vertex -0.048810218811 0.109419815063 -0.0500654678345
      vertex -0.0448347434998 0.108193351746 -0.0512919311523
    endloop
  endfacet
  facet normal -7.62770653341e-06 0.70710442796 -0.707109134364
    outer loop
      vertex -0.125423225403 0.059154083252 -0.100331199646
      vertex -0.122256195068 0.0534481163025 -0.106037162781
      vertex -0.12399067688 0.0562592048645 -0.103226074219
    endloop
  endfacet
  facet normal -1.41719159971e-06 0.707106151521 -0.70710741085
    outer loop
      vertex -0.125423225403 0.059154083252 -0.100331199646
      vertex -0.115346229553 0.0456719551086 -0.113813323975
      vertex -0.122256195068 0.0534481163025 -0.106037162781
    endloop
  endfacet
  facet normal -2.02925634505e-06 0.707103125105 -0.707110437247
    outer loop
      vertex -0.0570937843323 0.111226570129 -0.0482587089539
      vertex -0.0529042015076 0.110432777405 -0.0490525054932
      vertex -0.0448347434998 0.108193351746 -0.0512919311523
    endloop
  endfacet
  facet normal 2.38514409019e-08 0.70710674253 -0.707106819843
    outer loop
      vertex -0.126545822144 0.062116569519 -0.0973687133789
      vertex -0.0220781517029 0.0943456344604 -0.0651396484375
      vertex -0.099 0.0357250404358 -0.123760238647
    endloop
  endfacet
  facet normal -1.70455938993e-07 0.707106641127 -0.707106921246
    outer loop
      vertex -0.126545822144 0.062116569519 -0.0973687133789
      vertex -0.099 0.0357250404358 -0.123760238647
      vertex -0.115346229553 0.0456719551086 -0.113813323975
    endloop
  endfacet
  facet normal -2.5508695767e-07 0.707107194607 -0.707106367765
    outer loop
      vertex -0.126545822144 0.062116569519 -0.0973687133789
      vertex -0.0246537742615 0.0968133239746 -0.0626719551086
      vertex -0.0220781517029 0.0943456344604 -0.0651396484375
    endloop
  endfacet
  facet normal 5.42942061602e-07 0.707106884057 -0.707106678316
    outer loop
      vertex -0.126545822144 0.062116569519 -0.0973687133789
      vertex -0.115346229553 0.0456719551086 -0.113813323975
      vertex -0.125423225403 0.059154083252 -0.100331199646
    endloop
  endfacet
  facet normal 2.59063675351e-07 0.707107749343 -0.707105813028
    outer loop
      vertex -0.0613555488586 0.111796760559 -0.0476885185242
      vertex -0.0570937843323 0.111226570129 -0.0482587089539
      vertex -0.0448347434998 0.108193351746 -0.0512919311523
    endloop
  endfacet
  facet normal 2.46815722049e-08 0.707106783817 -0.707106778556
    outer loop
      vertex -0.12783782196 0.0681777954102 -0.0913074874878
      vertex -0.0246537742615 0.0968133239746 -0.0626719551086
      vertex -0.126545822144 0.062116569519 -0.0973687133789
    endloop
  endfacet
  facet normal 0 0.707106781187 -0.707106781187
    outer loop
      vertex -0.12783782196 0.0681777954102 -0.0913074874878
      vertex -0.126545822144 0.062116569519 -0.0973687133789
      vertex -0.12735218811 0.0651300888062 -0.0943551940918
    endloop
  endfacet
  facet normal 4.64573022725e-07 0.707108220449 -0.707105341921
    outer loop
      vertex -0.07 0.112254837036 -0.0472304458618
      vertex -0.0613555488586 0.111796760559 -0.0476885185242
      vertex -0.0448347434998 0.108193351746 -0.0512919311523
    endloop
  endfacet
  facet normal 9.3178013949e-07 0.707112628823 -0.707100933501
    outer loop
      vertex -0.07 0.112254837036 -0.0472304458618
      vertex -0.0656656570435 0.112140151978 -0.0473451271057
      vertex -0.0613555488586 0.111796760559 -0.0476885185242
    endloop
  endfacet
  facet normal -5.34676443178e-07 0.707105124738 -0.707108437631
    outer loop
      vertex -0.07 0.112254837036 -0.0472304458618
      vertex -0.0448347434998 0.108193351746 -0.0512919311523
      vertex -0.041 0.106760238647 -0.0527250404358
    endloop
  endfacet
  facet normal -5.34675252232e-07 0.707105124741 -0.707108437628
    outer loop
      vertex -0.0743343429565 0.112140151978 -0.0473451271057
      vertex -0.07 0.112254837036 -0.0472304458618
      vertex -0.041 0.106760238647 -0.0527250404358
    endloop
  endfacet
  facet normal 0 0.707106781187 -0.707106781187
    outer loop
      vertex -0.0743343429565 0.112140151978 -0.0473451271057
      vertex -0.041 0.106760238647 -0.0527250404358
      vertex -0.0246537742615 0.0968133239746 -0.0626719551086
    endloop
  endfacet
  facet normal 1.09847050341e-05 0.707105610403 -0.707107951883
    outer loop
      vertex -0.126545822144 0.0803687133789 -0.079116569519
      vertex -0.128 0.0712426376343 -0.0882426376343
      vertex -0.12783782196 0.0743074874878 -0.0851777954102
    endloop
  endfacet
  facet normal 0 0.707106781187 -0.707106781187
    outer loop
      vertex -0.126545822144 0.0803687133789 -0.079116569519
      vertex -0.12783782196 0.0743074874878 -0.0851777954102
      vertex -0.12735218811 0.0773551940918 -0.0821300888062
    endloop
  endfacet
  facet normal 0 0.707106781187 -0.707106781187
    outer loop
      vertex -0.082906211853 0.111226570129 -0.0482587089539
      vertex -0.0786444549561 0.111796760559 -0.0476885185242
      vertex -0.0743343429565 0.112140151978 -0.0473451271057
    endloop
  endfacet
  facet normal -6.03833430873e-08 0.707106937077 -0.707106625296
    outer loop
      vertex -0.12399067688 0.0862260742188 -0.0732592010498
      vertex -0.0246537742615 0.0968133239746 -0.0626719551086
      vertex -0.12783782196 0.0681777954102 -0.0913074874878
    endloop
  endfacet
  facet normal 5.46137035033e-06 0.707106050489 -0.707107511862
    outer loop
      vertex -0.12399067688 0.0862260742188 -0.0732592010498
      vertex -0.128 0.0712426376343 -0.0882426376343
      vertex -0.126545822144 0.0803687133789 -0.079116569519
    endloop
  endfacet
  facet normal -5.49211230674e-06 0.707107515975 -0.707106046376
    outer loop
      vertex -0.12399067688 0.0862260742188 -0.0732592010498
      vertex -0.12783782196 0.0681777954102 -0.0913074874878
      vertex -0.128 0.0712426376343 -0.0882426376343
    endloop
  endfacet
  facet normal 1.60764716544e-05 0.707103735101 -0.707109827077
    outer loop
      vertex -0.12399067688 0.0862260742188 -0.0732592010498
      vertex -0.126545822144 0.0803687133789 -0.079116569519
      vertex -0.125423225403 0.083331199646 -0.076154083252
    endloop
  endfacet
  facet normal -3.11165326501e-07 0.707108240971 -0.707105321399
    outer loop
      vertex -0.091189781189 0.109419815063 -0.0500654678345
      vertex -0.082906211853 0.111226570129 -0.0482587089539
      vertex -0.0743343429565 0.112140151978 -0.0473451271057
    endloop
  endfacet
  facet normal 2.7485272775e-06 0.707101226951 -0.707112335373
    outer loop
      vertex -0.091189781189 0.109419815063 -0.0500654678345
      vertex -0.0870958023071 0.110432777405 -0.0490525054932
      vertex -0.082906211853 0.111226570129 -0.0482587089539
    endloop
  endfacet
  facet normal 1.47153359894e-05 0.707101281738 -0.707112280439
    outer loop
      vertex -0.120229476929 0.0917487411499 -0.067736541748
      vertex -0.12399067688 0.0862260742188 -0.0732592010498
      vertex -0.122256195068 0.0890371627808 -0.0704481201172
    endloop
  endfacet
  facet normal 6.15378674987e-07 0.707105370501 -0.707108191869
    outer loop
      vertex -0.099 0.106760238647 -0.0527250404358
      vertex -0.091189781189 0.109419815063 -0.0500654678345
      vertex -0.0743343429565 0.112140151978 -0.0473451271057
    endloop
  endfacet
  facet normal 3.3277739179e-06 0.70710138781 -0.707112174514
    outer loop
      vertex -0.099 0.106760238647 -0.0527250404358
      vertex -0.0951652603149 0.108193351746 -0.0512919311523
      vertex -0.091189781189 0.109419815063 -0.0500654678345
    endloop
  endfacet
  facet normal 5.33097003839e-06 0.707104477425 -0.70710908492
    outer loop
      vertex -0.115346229553 0.0968133239746 -0.0626719551086
      vertex -0.12399067688 0.0862260742188 -0.0732592010498
      vertex -0.120229476929 0.0917487411499 -0.067736541748
    endloop
  endfacet
  facet normal 7.0463513777e-06 0.707103650434 -0.70710991189
    outer loop
      vertex -0.115346229553 0.0968133239746 -0.0626719551086
      vertex -0.120229476929 0.0917487411499 -0.067736541748
      vertex -0.117921852112 0.0943456344604 -0.0651396484375
    endloop
  endfacet
  facet normal 4.46152613405e-08 0.707106853495 -0.707106708878
    outer loop
      vertex -0.106162406921 0.103307266235 -0.0561780166626
      vertex -0.0743343429565 0.112140151978 -0.0473451271057
      vertex -0.0246537742615 0.0968133239746 -0.0626719551086
    endloop
  endfacet
  facet normal -3.11165947746e-07 0.707107494498 -0.707106067874
    outer loop
      vertex -0.106162406921 0.103307266235 -0.0561780166626
      vertex -0.099 0.106760238647 -0.0527250404358
      vertex -0.0743343429565 0.112140151978 -0.0473451271057
    endloop
  endfacet
  facet normal -4.42757364637e-06 0.707111763748 -0.707101798576
    outer loop
      vertex -0.106162406921 0.103307266235 -0.0561780166626
      vertex -0.102672561646 0.105128501892 -0.0543567771912
      vertex -0.099 0.106760238647 -0.0527250404358
    endloop
  endfacet
  facet normal 6.36093458586e-07 0.707106394113 -0.707107168259
    outer loop
      vertex -0.11251700592 0.0991380157471 -0.0603472633362
      vertex -0.12399067688 0.0862260742188 -0.0732592010498
      vertex -0.115346229553 0.0968133239746 -0.0626719551086
    endloop
  endfacet
  facet normal 3.34759499755e-08 0.70710649675 -0.707107065623
    outer loop
      vertex -0.109450019836 0.10130670929 -0.0581785774231
      vertex -0.0246537742615 0.0968133239746 -0.0626719551086
      vertex -0.12399067688 0.0862260742188 -0.0732592010498
    endloop
  endfacet
  facet normal -4.33536297139e-06 0.707108602946 -0.707104959409
    outer loop
      vertex -0.109450019836 0.10130670929 -0.0581785774231
      vertex -0.12399067688 0.0862260742188 -0.0732592010498
      vertex -0.11251700592 0.0991380157471 -0.0603472633362
    endloop
  endfacet
  facet normal 1.24248968002e-07 0.707107353255 -0.707106209117
    outer loop
      vertex -0.109450019836 0.10130670929 -0.0581785774231
      vertex -0.106162406921 0.103307266235 -0.0561780166626
      vertex -0.0246537742615 0.0968133239746 -0.0626719551086
    endloop
  endfacet
endsolid fan_left
