solid laptop_shell
  facet normal 0 1 0
    outer loop
      vertex -0.18 0.04 0.232
      vertex -0.175 0.04 0.024
      vertex -0.18 0.04 0.024
    endloop
  endfacet
  facet normal 0 1 0
    outer loop
      vertex 0.175 0.04 0.024
      vertex -0.175 0.04 0
      vertex -0.175 0.04 0.024
    endloop
  endfacet
  facet normal 0 1 0
    outer loop
      vertex 0.175 0.04 0.024
      vertex 0.175 0.04 0
      vertex -0.175 0.04 0
    endloop
  endfacet
  facet normal 0 1 0
    outer loop
      vertex 0.18 0.04 0.232
      vertex 0.18 0.04 0.024
      vertex 0.175 0.04 0.024
    endloop
  endfacet
  facet normal 0 1 0
    outer loop
      vertex 0.18 0.04 0.232
      vertex 0.175 0.04 0.024
      vertex -0.175 0.04 0.024
    endloop
  endfacet
  facet normal 0 1 0
    outer loop
      vertex 0.18 0.04 0.232
      vertex -0.175 0.04 0.024
      vertex -0.18 0.04 0.232
    endloop
  endfacet
endsolid laptop_shell
