solid laptop
  facet normal 1 0 0
    outer loop
      vertex 0.143795989990234 0.0456068153381348 0.232300003051758
      vertex 0.143795989990234 0.0435443153381348 0.229
      vertex 0.143795989990234 0.0492000007629395 0.229
    endloop
  endfacet
  facet normal 1 0 0
    outer loop
      vertex 0.143795989990234 0.0456068153381348 0.232300003051758
      vertex 0.143795989990234 0.0492000007629395 0.229
      vertex 0.143795989990234 0.0492000007629395 0.231230606079102
    endloop
  endfacet
  facet normal 8.30062076467045e-08 -0.285253357060361 -0.958452149189404
    outer loop
      vertex -0.172199996948242 0.0573811302185059 0.228795745849609
      vertex -0.143549285888672 0.0492000007629395 0.231230606079102
      vertex -0.172199996948242 0.0456068153381348 0.232300003051758
    endloop
  endfacet
  facet normal 0 -0.285252749055094 -0.958452330142982
    outer loop
      vertex -0.143549285888672 0.0492000007629395 0.231230606079102
      vertex -0.143549285888672 0.0456068153381348 0.232300003051758
      vertex -0.172199996948242 0.0456068153381348 0.232300003051758
    endloop
  endfacet
  facet normal 0 -0.285253624098647 -0.958452069713759
    outer loop
      vertex -0.172199996948242 0.0573811302185059 0.228795745849609
      vertex -0.0784850997924805 0.0492000007629395 0.231230606079102
      vertex -0.143549285888672 0.0492000007629395 0.231230606079102
    endloop
  endfacet
  facet normal 0 -0.285252749055094 -0.958452330142982
    outer loop
      vertex -0.0784850997924805 0.0492000007629395 0.231230606079102
      vertex 0.078731803894043 0.0456068153381348 0.232300003051758
      vertex -0.0784850997924805 0.0456068153381348 0.232300003051758
    endloop
  endfacet
  facet normal -0 -0.285252749055094 -0.958452330142982
    outer loop
      vertex 0.078731803894043 0.0492000007629395 0.231230606079102
      vertex 0.078731803894043 0.0456068153381348 0.232300003051758
      vertex -0.0784850997924805 0.0492000007629395 0.231230606079102
    endloop
  endfacet
  facet normal 0 -0.285253624098647 -0.958452069713759
    outer loop
      vertex 0.078731803894043 0.0492000007629395 0.231230606079102
      vertex 0.172199996948242 0.0573811302185059 0.228795745849609
      vertex 0.143795989990234 0.0492000007629395 0.231230606079102
    endloop
  endfacet
  facet normal 0 -0.285252749055094 -0.958452330142982
    outer loop
      vertex 0.143795989990234 0.0492000007629395 0.231230606079102
      vertex 0.172199996948242 0.0456068153381348 0.232300003051758
      vertex 0.143795989990234 0.0456068153381348 0.232300003051758
    endloop
  endfacet
  facet normal -8.37271612752494e-08 -0.285253357060361 -0.958452149189404
    outer loop
      vertex 0.172199996948242 0.0573811302185059 0.228795745849609
      vertex 0.172199996948242 0.0456068153381348 0.232300003051758
      vertex 0.143795989990234 0.0492000007629395 0.231230606079102
    endloop
  endfacet
  facet normal 0 -0.285253624098647 -0.958452069713759
    outer loop
      vertex -0.172199996948242 0.0573811302185059 0.228795745849609
      vertex 0.172199996948242 0.0573811302185059 0.228795745849609
      vertex 0.078731803894043 0.0492000007629395 0.231230606079102
    endloop
  endfacet
  facet normal 0 -0.285253624098647 -0.958452069713759
    outer loop
      vertex -0.172199996948242 0.0573811302185059 0.228795745849609
      vertex 0.078731803894043 0.0492000007629395 0.231230606079102
      vertex -0.0784850997924805 0.0492000007629395 0.231230606079102
    endloop
  endfacet
  facet normal 0 1 0
    outer loop
      vertex 0.143795989990234 0.0492000007629395 0.231230606079102
      vertex 0.078731803894043 0.0492000007629395 0.229
      vertex 0.078731803894043 0.0492000007629395 0.231230606079102
    endloop
  endfacet
  facet normal 0 1 -0
    outer loop
      vertex 0.143795989990234 0.0492000007629395 0.229
      vertex 0.078731803894043 0.0492000007629395 0.229
      vertex 0.143795989990234 0.0492000007629395 0.231230606079102
    endloop
  endfacet
  facet normal 0 1 0
    outer loop
      vertex 0.076231803894043 0.0492000007629395 0.140973754882812
      vertex 0.076231803894043 0.0492000007629395 0.229
      vertex 0.078731803894043 0.0492000007629395 0.229
    endloop
  endfacet
  facet normal 0 1 -0
    outer loop
      vertex 0.146295989990234 0.0492000007629395 0.140973754882812
      vertex 0.143795989990234 0.0492000007629395 0.229
      vertex 0.146295989990234 0.0492000007629395 0.229
    endloop
  endfacet
  facet normal 0 1 0
    outer loop
      vertex 0.146295989990234 0.0492000007629395 0.140973754882812
      vertex 0.076231803894043 0.0492000007629395 0.140973754882812
      vertex 0.078731803894043 0.0492000007629395 0.229
    endloop
  endfacet
  facet normal 0 1 0
    outer loop
      vertex 0.146295989990234 0.0492000007629395 0.140973754882812
      vertex 0.078731803894043 0.0492000007629395 0.229
      vertex 0.143795989990234 0.0492000007629395 0.229
    endloop
  endfacet
  facet normal 0 0 1
    outer loop
      vertex 0.143795989990234 0.0435443153381348 0.229
      vertex 0.146295989990234 0.0435443153381348 0.229
      vertex 0.146295989990234 0.0492000007629395 0.229
    endloop
  endfacet
  facet normal 0 0 1
    outer loop
      vertex 0.143795989990234 0.0435443153381348 0.229
      vertex 0.146295989990234 0.0492000007629395 0.229
      vertex 0.143795989990234 0.0492000007629395 0.229
    endloop
  endfacet
  facet normal 0 0.847998524287933 -0.529998587550464
    outer loop
      vertex 0.143795989990234 0.0456068153381348 0.232300003051758
      vertex 0.146295989990234 0.0435443153381348 0.229
      vertex 0.143795989990234 0.0435443153381348 0.229
    endloop
  endfacet
  facet normal 0 0.847998524287933 -0.529998587550464
    outer loop
      vertex 0.143795989990234 0.0456068153381348 0.232300003051758
      vertex 0.172199996948242 0.0456068153381348 0.232300003051758
      vertex 0.146295989990234 0.0435443153381348 0.229
    endloop
  endfacet
  facet normal 0 0.847999530426374 -0.529996977724071
    outer loop
      vertex 0.146295989990234 0.0435443153381348 0.229
      vertex 0.172199996948242 0.042803409576416 0.227814544677734
      vertex 0.146295989990234 0.042803409576416 0.227814544677734
    endloop
  endfacet
  facet normal -7.53726817126945e-08 0.847998790198873 -0.529998162092325
    outer loop
      vertex 0.172199996948242 0.0456068153381348 0.232300003051758
      vertex 0.172199996948242 0.042803409576416 0.227814544677734
      vertex 0.146295989990234 0.0435443153381348 0.229
    endloop
  endfacet
  facet normal -1 0 0
    outer loop
      vertex 0.172199996948242 0.04 0.222207733154297
      vertex 0.172199996948242 0.0384581260681152 0.217161590576172
      vertex 0.172199996948242 0.0383179550170898 0.219404327392578
    endloop
  endfacet
  facet normal -1 0 0
    outer loop
      vertex 0.172199996948242 0.04 0.222207733154297
      vertex 0.172199996948242 0.0398598289489746 0.214358184814453
      vertex 0.172199996948242 0.0384581260681152 0.217161590576172
    endloop
  endfacet
  facet normal -1 0 -0
    outer loop
      vertex 0.172199996948242 0.0456068153381348 0.232300003051758
      vertex 0.172199996948242 0.0573811302185059 0.228795745849609
      vertex 0.172199996948242 0.042803409576416 0.227814544677734
    endloop
  endfacet
  facet normal -1 0 -0
    outer loop
      vertex 0.172199996948242 0.042803409576416 0.227814544677734
      vertex 0.172199996948242 0.0573811302185059 0.228795745849609
      vertex 0.172199996948242 0.04 0.222207733154297
    endloop
  endfacet
  facet normal -1 0 -0
    outer loop
      vertex 0.172199996948242 0.04 0.222207733154297
      vertex 0.172199996948242 0.0573811302185059 0.228795745849609
      vertex 0.172199996948242 0.0398598289489746 0.214358184814453
    endloop
  endfacet
  facet normal -1 0 0
    outer loop
      vertex 0.172199996948242 0.0573811302185059 0.228795745849609
      vertex 0.172199996948242 0.0398598289489746 0.0469947052001953
      vertex 0.172199996948242 0.0398598289489746 0.214358184814453
    endloop
  endfacet
  facet normal -1 0 0
    outer loop
      vertex 0.172199996948242 0.0398598289489746 0.0469947052001953
      vertex 0.172199996948242 0.0388786354064941 0.0377434577941895
      vertex 0.172199996948242 0.0383179550170898 0.039565673828125
    endloop
  endfacet
  facet normal -1 0 0
    outer loop
      vertex 0.172199996948242 0.0388786354064941 0.0377434577941895
      vertex 0.172199996948242 0.0552785758972168 0.002
      vertex 0.172199996948242 0.0405606803894043 0.0207828369140625
    endloop
  endfacet
  facet normal -1 0 0
    outer loop
      vertex 0.172199996948242 0.0405606803894043 0.0207828369140625
      vertex 0.172199996948242 0.0552785758972168 0.002
      vertex 0.172199996948242 0.04406494140625 0.0119520998001099
    endloop
  endfacet
  facet normal -1 0 0
    outer loop
      vertex 0.172199996948242 0.04406494140625 0.0119520998001099
      vertex 0.172199996948242 0.0552785758972168 0.002
      vertex 0.172199996948242 0.0481298828125 0.00466323804855347
    endloop
  endfacet
  facet normal -1 0 -0
    outer loop
      vertex 0.172199996948242 0.0398598289489746 0.0469947052001953
      vertex 0.172199996948242 0.0552785758972168 0.002
      vertex 0.172199996948242 0.0388786354064941 0.0377434577941895
    endloop
  endfacet
  facet normal -1 0 0
    outer loop
      vertex 0.172199996948242 0.0573811302185059 0.228795745849609
      vertex 0.172199996948242 0.0552785758972168 0.002
      vertex 0.172199996948242 0.0398598289489746 0.0469947052001953
    endloop
  endfacet
  facet normal 0 -0.999957029871429 0.00927029722882771
    outer loop
      vertex -0.172199996948242 0.0552785758972168 0.002
      vertex 0.172199996948242 0.0573811302185059 0.228795745849609
      vertex -0.172199996948242 0.0573811302185059 0.228795745849609
    endloop
  endfacet
  facet normal 0 -0.999957029871429 0.00927029722882771
    outer loop
      vertex 0.172199996948242 0.0552785758972168 0.002
      vertex 0.172199996948242 0.0573811302185059 0.228795745849609
      vertex -0.172199996948242 0.0552785758972168 0.002
    endloop
  endfacet
  facet normal 1 0 -0
    outer loop
      vertex -0.172199996948242 0.0384581260681152 0.217161590576172
      vertex -0.172199996948242 0.04 0.222207733154297
      vertex -0.172199996948242 0.0383179550170898 0.219404327392578
    endloop
  endfacet
  facet normal 1 0 -0
    outer loop
      vertex -0.172199996948242 0.0398598289489746 0.214358184814453
      vertex -0.172199996948242 0.04 0.222207733154297
      vertex -0.172199996948242 0.0384581260681152 0.217161590576172
    endloop
  endfacet
  facet normal 1 0 0
    outer loop
      vertex -0.172199996948242 0.0573811302185059 0.228795745849609
      vertex -0.172199996948242 0.0456068153381348 0.232300003051758
      vertex -0.172199996948242 0.042803409576416 0.227814544677734
    endloop
  endfacet
  facet normal 1 0 0
    outer loop
      vertex -0.172199996948242 0.0573811302185059 0.228795745849609
      vertex -0.172199996948242 0.042803409576416 0.227814544677734
      vertex -0.172199996948242 0.04 0.222207733154297
    endloop
  endfacet
  facet normal 1 0 0
    outer loop
      vertex -0.172199996948242 0.0573811302185059 0.228795745849609
      vertex -0.172199996948242 0.04 0.222207733154297
      vertex -0.172199996948242 0.0398598289489746 0.214358184814453
    endloop
  endfacet
  facet normal 1 0 0
    outer loop
      vertex -0.172199996948242 0.0398598289489746 0.0469947052001953
      vertex -0.172199996948242 0.0573811302185059 0.228795745849609
      vertex -0.172199996948242 0.0398598289489746 0.214358184814453
    endloop
  endfacet
  facet normal 1 0 -0
    outer loop
      vertex -0.172199996948242 0.0388786354064941 0.0377434577941895
      vertex -0.172199996948242 0.0398598289489746 0.0469947052001953
      vertex -0.172199996948242 0.0383179550170898 0.039565673828125
    endloop
  endfacet
  facet normal 1 0 0
    outer loop
      vertex -0.172199996948242 0.0552785758972168 0.002
      vertex -0.172199996948242 0.0388786354064941 0.0377434577941895
      vertex -0.172199996948242 0.0405606803894043 0.0207828369140625
    endloop
  endfacet
  facet normal 1 0 0
    outer loop
      vertex -0.172199996948242 0.0552785758972168 0.002
      vertex -0.172199996948242 0.0405606803894043 0.0207828369140625
      vertex -0.172199996948242 0.04406494140625 0.0119520998001099
    endloop
  endfacet
  facet normal 1 0 0
    outer loop
      vertex -0.172199996948242 0.0552785758972168 0.002
      vertex -0.172199996948242 0.04406494140625 0.0119520998001099
      vertex -0.172199996948242 0.0481298828125 0.00466323804855347
    endloop
  endfacet
  facet normal 1 0 0
    outer loop
      vertex -0.172199996948242 0.0552785758972168 0.002
      vertex -0.172199996948242 0.0398598289489746 0.0469947052001953
      vertex -0.172199996948242 0.0388786354064941 0.0377434577941895
    endloop
  endfacet
  facet normal 1 0 -0
    outer loop
      vertex -0.172199996948242 0.0552785758972168 0.002
      vertex -0.172199996948242 0.0573811302185059 0.228795745849609
      vertex -0.172199996948242 0.0398598289489746 0.0469947052001953
    endloop
  endfacet
  facet normal 0 0.847998524287933 -0.529998587550464
    outer loop
      vertex -0.143549285888672 0.0456068153381348 0.232300003051758
      vertex -0.146049285888672 0.0435443153381348 0.229
      vertex -0.172199996948242 0.0456068153381348 0.232300003051758
    endloop
  endfacet
  facet normal 7.4661620752175e-08 0.847998790198873 -0.529998162092325
    outer loop
      vertex -0.172199996948242 0.0456068153381348 0.232300003051758
      vertex -0.146049285888672 0.0435443153381348 0.229
      vertex -0.172199996948242 0.042803409576416 0.227814544677734
    endloop
  endfacet
  facet normal 0 0.847999530426374 -0.52999697772407
    outer loop
      vertex -0.146049285888672 0.0435443153381348 0.229
      vertex -0.146049285888672 0.042803409576416 0.227814544677734
      vertex -0.172199996948242 0.042803409576416 0.227814544677734
    endloop
  endfacet
  facet normal 0 0.847998524287933 -0.529998587550464
    outer loop
      vertex -0.143549285888672 0.0456068153381348 0.232300003051758
      vertex -0.143549285888672 0.0435443153381348 0.229
      vertex -0.146049285888672 0.0435443153381348 0.229
    endloop
  endfacet
  facet normal -1 0 0
    outer loop
      vertex -0.143549285888672 0.0456068153381348 0.232300003051758
      vertex -0.143549285888672 0.0492000007629395 0.231230606079102
      vertex -0.143549285888672 0.0492000007629395 0.229
    endloop
  endfacet
  facet normal -1 0 0
    outer loop
      vertex -0.143549285888672 0.0435443153381348 0.229
      vertex -0.143549285888672 0.0456068153381348 0.232300003051758
      vertex -0.143549285888672 0.0492000007629395 0.229
    endloop
  endfacet
  facet normal 0 1 0
    outer loop
      vertex -0.0784850997924805 0.0492000007629395 0.229
      vertex -0.143549285888672 0.0492000007629395 0.229
      vertex -0.143549285888672 0.0492000007629395 0.231230606079102
    endloop
  endfacet
  facet normal 0 1 -0
    outer loop
      vertex -0.0784850997924805 0.0492000007629395 0.229
      vertex -0.143549285888672 0.0492000007629395 0.231230606079102
      vertex -0.0784850997924805 0.0492000007629395 0.231230606079102
    endloop
  endfacet
  facet normal 0 1 0
    outer loop
      vertex -0.146049285888672 0.0492000007629395 0.140973754882812
      vertex -0.146049285888672 0.0492000007629395 0.229
      vertex -0.143549285888672 0.0492000007629395 0.229
    endloop
  endfacet
  facet normal 0 1 -0
    outer loop
      vertex -0.0759850997924805 0.0492000007629395 0.140973754882812
      vertex -0.0784850997924805 0.0492000007629395 0.229
      vertex -0.0759850997924805 0.0492000007629395 0.229
    endloop
  endfacet
  facet normal 0 1 0
    outer loop
      vertex -0.0759850997924805 0.0492000007629395 0.140973754882812
      vertex -0.143549285888672 0.0492000007629395 0.229
      vertex -0.0784850997924805 0.0492000007629395 0.229
    endloop
  endfacet
  facet normal 0 1 0
    outer loop
      vertex -0.0759850997924805 0.0492000007629395 0.140973754882812
      vertex -0.146049285888672 0.0492000007629395 0.140973754882812
      vertex -0.143549285888672 0.0492000007629395 0.229
    endloop
  endfacet
  facet normal 1 0 0
    outer loop
      vertex -0.0784850997924805 0.0456068153381348 0.232300003051758
      vertex -0.0784850997924805 0.0435443153381348 0.229
      vertex -0.0784850997924805 0.0492000007629395 0.229
    endloop
  endfacet
  facet normal 1 0 0
    outer loop
      vertex -0.0784850997924805 0.0456068153381348 0.232300003051758
      vertex -0.0784850997924805 0.0492000007629395 0.229
      vertex -0.0784850997924805 0.0492000007629395 0.231230606079102
    endloop
  endfacet
  facet normal 0 0.847998524287933 -0.529998587550464
    outer loop
      vertex -0.0784850997924805 0.0456068153381348 0.232300003051758
      vertex -0.0759850997924805 0.0435443153381348 0.229
      vertex -0.0784850997924805 0.0435443153381348 0.229
    endloop
  endfacet
  facet normal 0 0.847998524287933 -0.529998587550464
    outer loop
      vertex 0.078731803894043 0.0456068153381348 0.232300003051758
      vertex 0.076231803894043 0.0435443153381348 0.229
      vertex -0.0784850997924805 0.0456068153381348 0.232300003051758
    endloop
  endfacet
  facet normal 0 0.847999530426374 -0.52999697772407
    outer loop
      vertex -0.0759850997924805 0.0435443153381348 0.229
      vertex 0.076231803894043 0.0435443153381348 0.229
      vertex -0.0759850997924805 0.042803409576416 0.227814544677734
    endloop
  endfacet
  facet normal 0 0.847998524287933 -0.529998587550464
    outer loop
      vertex -0.0784850997924805 0.0456068153381348 0.232300003051758
      vertex 0.076231803894043 0.0435443153381348 0.229
      vertex -0.0759850997924805 0.0435443153381348 0.229
    endloop
  endfacet
  facet normal 0 0.847999530426374 -0.52999697772407
    outer loop
      vertex 0.076231803894043 0.0435443153381348 0.229
      vertex 0.076231803894043 0.042803409576416 0.227814544677734
      vertex -0.0759850997924805 0.042803409576416 0.227814544677734
    endloop
  endfacet
  facet normal 0 0.847998524287933 -0.529998587550464
    outer loop
      vertex 0.078731803894043 0.0456068153381348 0.232300003051758
      vertex 0.078731803894043 0.0435443153381348 0.229
      vertex 0.076231803894043 0.0435443153381348 0.229
    endloop
  endfacet
  facet normal -1 0 0
    outer loop
      vertex 0.078731803894043 0.0456068153381348 0.232300003051758
      vertex 0.078731803894043 0.0492000007629395 0.231230606079102
      vertex 0.078731803894043 0.0492000007629395 0.229
    endloop
  endfacet
  facet normal -1 0 0
    outer loop
      vertex 0.078731803894043 0.0435443153381348 0.229
      vertex 0.078731803894043 0.0456068153381348 0.232300003051758
      vertex 0.078731803894043 0.0492000007629395 0.229
    endloop
  endfacet
  facet normal 0 -0 1
    outer loop
      vertex 0.078731803894043 0.0435443153381348 0.229
      vertex 0.078731803894043 0.0492000007629395 0.229
      vertex 0.076231803894043 0.0492000007629395 0.229
    endloop
  endfacet
  facet normal 0 0 1
    outer loop
      vertex 0.076231803894043 0.0435443153381348 0.229
      vertex 0.078731803894043 0.0435443153381348 0.229
      vertex 0.076231803894043 0.0492000007629395 0.229
    endloop
  endfacet
  facet normal -1 0 0
    outer loop
      vertex 0.076231803894043 0.042803409576416 0.227814544677734
      vertex 0.076231803894043 0.0435443153381348 0.229
      vertex 0.076231803894043 0.0492000007629395 0.229
    endloop
  endfacet
  facet normal -1 0 0
    outer loop
      vertex 0.076231803894043 0.0412000007629395 0.224607727050781
      vertex 0.076231803894043 0.042803409576416 0.227814544677734
      vertex 0.076231803894043 0.0492000007629395 0.229
    endloop
  endfacet
  facet normal -1 0 0
    outer loop
      vertex 0.076231803894043 0.0412000007629395 0.191263824462891
      vertex 0.076231803894043 0.0412000007629395 0.224607727050781
      vertex 0.076231803894043 0.0492000007629395 0.229
    endloop
  endfacet
  facet normal -1 0 0
    outer loop
      vertex 0.076231803894043 0.0398598289489746 0.150973754882813
      vertex 0.076231803894043 0.0398598289489746 0.191263824462891
      vertex 0.076231803894043 0.0412000007629395 0.191263824462891
    endloop
  endfacet
  facet normal -1 0 0
    outer loop
      vertex 0.076231803894043 0.0398598289489746 0.150973754882813
      vertex 0.076231803894043 0.0412000007629395 0.191263824462891
      vertex 0.076231803894043 0.0412000007629395 0.150973754882813
    endloop
  endfacet
  facet normal -1 0 0
    outer loop
      vertex 0.076231803894043 0.0492000007629395 0.140973754882812
      vertex 0.076231803894043 0.0412000007629395 0.150973754882813
      vertex 0.076231803894043 0.0412000007629395 0.191263824462891
    endloop
  endfacet
  facet normal -1 0 0
    outer loop
      vertex 0.076231803894043 0.0492000007629395 0.140973754882812
      vertex 0.076231803894043 0.0412000007629395 0.191263824462891
      vertex 0.076231803894043 0.0492000007629395 0.229
    endloop
  endfacet
  facet normal -1 0 0
    outer loop
      vertex 0.076231803894043 0.0412000007629395 0.140973754882812
      vertex 0.076231803894043 0.0412000007629395 0.150973754882813
      vertex 0.076231803894043 0.0492000007629395 0.140973754882812
    endloop
  endfacet
  facet normal -0 0 -1
    outer loop
      vertex 0.146295989990234 0.0492000007629395 0.140973754882812
      vertex 0.076231803894043 0.0412000007629395 0.140973754882812
      vertex 0.076231803894043 0.0492000007629395 0.140973754882812
    endloop
  endfacet
  facet normal 0 0 -1
    outer loop
      vertex 0.146295989990234 0.0412000007629395 0.140973754882812
      vertex 0.076231803894043 0.0412000007629395 0.140973754882812
      vertex 0.146295989990234 0.0492000007629395 0.140973754882812
    endloop
  endfacet
  facet normal 1 0 0
    outer loop
      vertex 0.146295989990234 0.0412000007629395 0.150973754882813
      vertex 0.146295989990234 0.0412000007629395 0.140973754882812
      vertex 0.146295989990234 0.0492000007629395 0.140973754882812
    endloop
  endfacet
  facet normal 1 0 0
    outer loop
      vertex 0.146295989990234 0.0412000007629395 0.191263824462891
      vertex 0.146295989990234 0.0412000007629395 0.150973754882813
      vertex 0.146295989990234 0.0492000007629395 0.140973754882812
    endloop
  endfacet
  facet normal 1 0 0
    outer loop
      vertex 0.146295989990234 0.0398598289489746 0.191263824462891
      vertex 0.146295989990234 0.0398598289489746 0.150973754882813
      vertex 0.146295989990234 0.0412000007629395 0.150973754882813
    endloop
  endfacet
  facet normal 1 -0 0
    outer loop
      vertex 0.146295989990234 0.0398598289489746 0.191263824462891
      vertex 0.146295989990234 0.0412000007629395 0.150973754882813
      vertex 0.146295989990234 0.0412000007629395 0.191263824462891
    endloop
  endfacet
  facet normal 1 0 0
    outer loop
      vertex 0.146295989990234 0.0492000007629395 0.229
      vertex 0.146295989990234 0.0412000007629395 0.191263824462891
      vertex 0.146295989990234 0.0492000007629395 0.140973754882812
    endloop
  endfacet
  facet normal 1 -0 0
    outer loop
      vertex 0.146295989990234 0.0412000007629395 0.224607727050781
      vertex 0.146295989990234 0.0412000007629395 0.191263824462891
      vertex 0.146295989990234 0.0492000007629395 0.229
    endloop
  endfacet
  facet normal 1 -0 0
    outer loop
      vertex 0.146295989990234 0.042803409576416 0.227814544677734
      vertex 0.146295989990234 0.0412000007629395 0.224607727050781
      vertex 0.146295989990234 0.0492000007629395 0.229
    endloop
  endfacet
  facet normal 1 -0 0
    outer loop
      vertex 0.146295989990234 0.0435443153381348 0.229
      vertex 0.146295989990234 0.042803409576416 0.227814544677734
      vertex 0.146295989990234 0.0492000007629395 0.229
    endloop
  endfacet
  facet normal 0 0.894427190999916 -0.447213595499958
    outer loop
      vertex -0.146049285888672 0.042803409576416 0.227814544677734
      vertex -0.146049285888672 0.0412000007629395 0.224607727050781
      vertex -0.172199996948242 0.042803409576416 0.227814544677734
    endloop
  endfacet
  facet normal -7.46242116273367e-08 0.894426947583856 -0.44721408233174
    outer loop
      vertex -0.172199996948242 0.042803409576416 0.227814544677734
      vertex -0.146049285888672 0.0412000007629395 0.224607727050781
      vertex -0.172199996948242 0.04 0.222207733154297
    endloop
  endfacet
  facet normal 0 0.894427190999916 -0.447213595499958
    outer loop
      vertex 0.076231803894043 0.042803409576416 0.227814544677734
      vertex 0.076231803894043 0.0412000007629395 0.224607727050781
      vertex -0.0759850997924805 0.042803409576416 0.227814544677734
    endloop
  endfacet
  facet normal 0 0.894427190999916 -0.447213595499958
    outer loop
      vertex -0.0759850997924805 0.042803409576416 0.227814544677734
      vertex 0.076231803894043 0.0412000007629395 0.224607727050781
      vertex -0.0759850997924805 0.0412000007629395 0.224607727050781
    endloop
  endfacet
  facet normal 0 0.894427190999916 -0.447213595499958
    outer loop
      vertex 0.146295989990234 0.042803409576416 0.227814544677734
      vertex 0.172199996948242 0.042803409576416 0.227814544677734
      vertex 0.146295989990234 0.0412000007629395 0.224607727050781
    endloop
  endfacet
  facet normal 7.53349163115261e-08 0.894426947583856 -0.44721408233174
    outer loop
      vertex 0.172199996948242 0.042803409576416 0.227814544677734
      vertex 0.172199996948242 0.04 0.222207733154297
      vertex 0.146295989990234 0.0412000007629395 0.224607727050781
    endloop
  endfacet
  facet normal 0 0.894426622336615 -0.447214732824752
    outer loop
      vertex 0.172199996948242 0.04 0.222207733154297
      vertex -0.172199996948242 0.04 0.222207733154297
      vertex 0.076231803894043 0.0412000007629395 0.224607727050781
    endloop
  endfacet
  facet normal 0 0.894426622336615 -0.447214732824752
    outer loop
      vertex 0.172199996948242 0.04 0.222207733154297
      vertex 0.076231803894043 0.0412000007629395 0.224607727050781
      vertex 0.146295989990234 0.0412000007629395 0.224607727050781
    endloop
  endfacet
  facet normal 0 0.894426622336615 -0.447214732824752
    outer loop
      vertex 0.076231803894043 0.0412000007629395 0.224607727050781
      vertex -0.172199996948242 0.04 0.222207733154297
      vertex -0.0759850997924805 0.0412000007629395 0.224607727050781
    endloop
  endfacet
  facet normal 0 0.894426622336615 -0.447214732824752
    outer loop
      vertex -0.0759850997924805 0.0412000007629395 0.224607727050781
      vertex -0.172199996948242 0.04 0.222207733154297
      vertex -0.146049285888672 0.0412000007629395 0.224607727050781
    endloop
  endfacet
  facet normal 0 0.349108959675212 0.937082138488666
    outer loop
      vertex -0.172199996948242 0.0481298828125 0.00466323804855347
      vertex 0.172199996948242 0.0552785758972168 0.002
      vertex -0.172199996948242 0.0552785758972168 0.002
    endloop
  endfacet
  facet normal 0 0.349108959675212 0.937082138488666
    outer loop
      vertex 0.172199996948242 0.0481298828125 0.00466323804855347
      vertex 0.172199996948242 0.0552785758972168 0.002
      vertex -0.172199996948242 0.0481298828125 0.00466323804855347
    endloop
  endfacet
  facet normal 0 0.857492719802735 -0.514496098610386
    outer loop
      vertex -0.172199996948242 0.04 0.222207733154297
      vertex 0.172199996948242 0.0383179550170898 0.219404327392578
      vertex -0.172199996948242 0.0383179550170898 0.219404327392578
    endloop
  endfacet
  facet normal 0 0.857492719802735 -0.514496098610386
    outer loop
      vertex 0.172199996948242 0.04 0.222207733154297
      vertex 0.172199996948242 0.0383179550170898 0.219404327392578
      vertex -0.172199996948242 0.04 0.222207733154297
    endloop
  endfacet
  facet normal 0 0.998052578482889 0.0623782861551805
    outer loop
      vertex -0.172199996948242 0.0383179550170898 0.219404327392578
      vertex 0.172199996948242 0.0384581260681152 0.217161590576172
      vertex -0.172199996948242 0.0384581260681152 0.217161590576172
    endloop
  endfacet
  facet normal 0 0.998052578482889 0.0623782861551805
    outer loop
      vertex 0.172199996948242 0.0383179550170898 0.219404327392578
      vertex 0.172199996948242 0.0384581260681152 0.217161590576172
      vertex -0.172199996948242 0.0383179550170898 0.219404327392578
    endloop
  endfacet
  facet normal 0 0.894427190999916 0.447213595499958
    outer loop
      vertex -0.172199996948242 0.0384581260681152 0.217161590576172
      vertex 0.172199996948242 0.0398598289489746 0.214358184814453
      vertex -0.172199996948242 0.0398598289489746 0.214358184814453
    endloop
  endfacet
  facet normal 0 0.894427190999916 0.447213595499958
    outer loop
      vertex 0.172199996948242 0.0384581260681152 0.217161590576172
      vertex 0.172199996948242 0.0398598289489746 0.214358184814453
      vertex -0.172199996948242 0.0384581260681152 0.217161590576172
    endloop
  endfacet
  facet normal 0 1 0
    outer loop
      vertex -0.146049285888672 0.0398598289489746 0.191263824462891
      vertex -0.146049285888672 0.0398598289489746 0.150973754882813
      vertex -0.172199996948242 0.0398598289489746 0.214358184814453
    endloop
  endfacet
  facet normal 0 1 0
    outer loop
      vertex -0.172199996948242 0.0398598289489746 0.214358184814453
      vertex -0.0759850997924805 0.0398598289489746 0.191263824462891
      vertex -0.146049285888672 0.0398598289489746 0.191263824462891
    endloop
  endfacet
  facet normal 0 1 0
    outer loop
      vertex -0.0759850997924805 0.0398598289489746 0.150973754882813
      vertex -0.172199996948242 0.0398598289489746 0.0469947052001953
      vertex -0.146049285888672 0.0398598289489746 0.150973754882813
    endloop
  endfacet
  facet normal 0 1 0
    outer loop
      vertex -0.146049285888672 0.0398598289489746 0.150973754882813
      vertex -0.172199996948242 0.0398598289489746 0.0469947052001953
      vertex -0.172199996948242 0.0398598289489746 0.214358184814453
    endloop
  endfacet
  facet normal 0 1 0
    outer loop
      vertex -0.0759850997924805 0.0398598289489746 0.191263824462891
      vertex 0.076231803894043 0.0398598289489746 0.150973754882813
      vertex -0.0759850997924805 0.0398598289489746 0.150973754882813
    endloop
  endfacet
  facet normal 0 1 0
    outer loop
      vertex 0.076231803894043 0.0398598289489746 0.191263824462891
      vertex 0.076231803894043 0.0398598289489746 0.150973754882813
      vertex -0.0759850997924805 0.0398598289489746 0.191263824462891
    endloop
  endfacet
  facet normal 0 1 0
    outer loop
      vertex 0.076231803894043 0.0398598289489746 0.191263824462891
      vertex 0.172199996948242 0.0398598289489746 0.214358184814453
      vertex 0.146295989990234 0.0398598289489746 0.191263824462891
    endloop
  endfacet
  facet normal 0 1 0
    outer loop
      vertex 0.172199996948242 0.0398598289489746 0.214358184814453
      vertex 0.146295989990234 0.0398598289489746 0.150973754882813
      vertex 0.146295989990234 0.0398598289489746 0.191263824462891
    endloop
  endfacet
  facet normal 0 1 0
    outer loop
      vertex 0.146295989990234 0.0398598289489746 0.150973754882813
      vertex 0.172199996948242 0.0398598289489746 0.0469947052001953
      vertex 0.076231803894043 0.0398598289489746 0.150973754882813
    endloop
  endfacet
  facet normal 0 1 0
    outer loop
      vertex -0.0759850997924805 0.0398598289489746 0.150973754882813
      vertex 0.172199996948242 0.0398598289489746 0.0469947052001953
      vertex -0.172199996948242 0.0398598289489746 0.0469947052001953
    endloop
  endfacet
  facet normal 0 1 0
    outer loop
      vertex 0.076231803894043 0.0398598289489746 0.150973754882813
      vertex 0.172199996948242 0.0398598289489746 0.0469947052001953
      vertex -0.0759850997924805 0.0398598289489746 0.150973754882813
    endloop
  endfacet
  facet normal 0 1 0
    outer loop
      vertex 0.172199996948242 0.0398598289489746 0.214358184814453
      vertex 0.172199996948242 0.0398598289489746 0.0469947052001953
      vertex 0.146295989990234 0.0398598289489746 0.150973754882813
    endloop
  endfacet
  facet normal -0 1 0
    outer loop
      vertex -0.172199996948242 0.0398598289489746 0.214358184814453
      vertex 0.172199996948242 0.0398598289489746 0.214358184814453
      vertex -0.0759850997924805 0.0398598289489746 0.191263824462891
    endloop
  endfacet
  facet normal 0 1 0
    outer loop
      vertex -0.0759850997924805 0.0398598289489746 0.191263824462891
      vertex 0.172199996948242 0.0398598289489746 0.214358184814453
      vertex 0.076231803894043 0.0398598289489746 0.191263824462891
    endloop
  endfacet
  facet normal 0 0.979133850679488 -0.203216393171312
    outer loop
      vertex -0.172199996948242 0.0398598289489746 0.0469947052001953
      vertex 0.172199996948242 0.0383179550170898 0.039565673828125
      vertex -0.172199996948242 0.0383179550170898 0.039565673828125
    endloop
  endfacet
  facet normal 0 0.979133850679488 -0.203216393171312
    outer loop
      vertex 0.172199996948242 0.0398598289489746 0.0469947052001953
      vertex 0.172199996948242 0.0383179550170898 0.039565673828125
      vertex -0.172199996948242 0.0398598289489746 0.0469947052001953
    endloop
  endfacet
  facet normal 0 0.955779225031428 0.2940851458308
    outer loop
      vertex -0.172199996948242 0.0383179550170898 0.039565673828125
      vertex 0.172199996948242 0.0388786354064941 0.0377434577941895
      vertex -0.172199996948242 0.0388786354064941 0.0377434577941895
    endloop
  endfacet
  facet normal 0 0.955779225031428 0.2940851458308
    outer loop
      vertex 0.172199996948242 0.0383179550170898 0.039565673828125
      vertex 0.172199996948242 0.0388786354064941 0.0377434577941895
      vertex -0.172199996948242 0.0383179550170898 0.039565673828125
    endloop
  endfacet
  facet normal 0 0.995118284314069 0.0986894129267344
    outer loop
      vertex -0.172199996948242 0.0388786354064941 0.0377434577941895
      vertex 0.172199996948242 0.0405606803894043 0.0207828369140625
      vertex -0.172199996948242 0.0405606803894043 0.0207828369140625
    endloop
  endfacet
  facet normal 0 0.995118284314069 0.0986894129267344
    outer loop
      vertex 0.172199996948242 0.0388786354064941 0.0377434577941895
      vertex 0.172199996948242 0.0405606803894043 0.0207828369140625
      vertex -0.172199996948242 0.0388786354064941 0.0377434577941895
    endloop
  endfacet
  facet normal 0 0.92949070188326 0.36884554370707
    outer loop
      vertex -0.172199996948242 0.0405606803894043 0.0207828369140625
      vertex 0.172199996948242 0.04406494140625 0.0119520998001099
      vertex -0.172199996948242 0.04406494140625 0.0119520998001099
    endloop
  endfacet
  facet normal 0 0.92949070188326 0.36884554370707
    outer loop
      vertex 0.172199996948242 0.0405606803894043 0.0207828369140625
      vertex 0.172199996948242 0.04406494140625 0.0119520998001099
      vertex -0.172199996948242 0.0405606803894043 0.0207828369140625
    endloop
  endfacet
  facet normal 0 0.873363911252742 0.487068248319794
    outer loop
      vertex -0.172199996948242 0.04406494140625 0.0119520998001099
      vertex 0.172199996948242 0.0481298828125 0.00466323804855347
      vertex -0.172199996948242 0.0481298828125 0.00466323804855347
    endloop
  endfacet
  facet normal 0 0.873363911252742 0.487068248319794
    outer loop
      vertex 0.172199996948242 0.04406494140625 0.0119520998001099
      vertex 0.172199996948242 0.0481298828125 0.00466323804855347
      vertex -0.172199996948242 0.04406494140625 0.0119520998001099
    endloop
  endfacet
  facet normal -1 0 0
    outer loop
      vertex -0.146049285888672 0.042803409576416 0.227814544677734
      vertex -0.146049285888672 0.0435443153381348 0.229
      vertex -0.146049285888672 0.0492000007629395 0.229
    endloop
  endfacet
  facet normal -1 0 0
    outer loop
      vertex -0.146049285888672 0.0412000007629395 0.224607727050781
      vertex -0.146049285888672 0.042803409576416 0.227814544677734
      vertex -0.146049285888672 0.0492000007629395 0.229
    endloop
  endfacet
  facet normal -1 0 0
    outer loop
      vertex -0.146049285888672 0.0412000007629395 0.191263824462891
      vertex -0.146049285888672 0.0412000007629395 0.224607727050781
      vertex -0.146049285888672 0.0492000007629395 0.229
    endloop
  endfacet
  facet normal -1 0 0
    outer loop
      vertex -0.146049285888672 0.0398598289489746 0.150973754882813
      vertex -0.146049285888672 0.0398598289489746 0.191263824462891
      vertex -0.146049285888672 0.0412000007629395 0.191263824462891
    endloop
  endfacet
  facet normal -1 0 0
    outer loop
      vertex -0.146049285888672 0.0398598289489746 0.150973754882813
      vertex -0.146049285888672 0.0412000007629395 0.191263824462891
      vertex -0.146049285888672 0.0412000007629395 0.150973754882813
    endloop
  endfacet
  facet normal -1 0 0
    outer loop
      vertex -0.146049285888672 0.0492000007629395 0.140973754882812
      vertex -0.146049285888672 0.0412000007629395 0.150973754882813
      vertex -0.146049285888672 0.0412000007629395 0.191263824462891
    endloop
  endfacet
  facet normal -1 0 0
    outer loop
      vertex -0.146049285888672 0.0492000007629395 0.140973754882812
      vertex -0.146049285888672 0.0412000007629395 0.191263824462891
      vertex -0.146049285888672 0.0492000007629395 0.229
    endloop
  endfacet
  facet normal -1 0 0
    outer loop
      vertex -0.146049285888672 0.0412000007629395 0.140973754882812
      vertex -0.146049285888672 0.0412000007629395 0.150973754882813
      vertex -0.146049285888672 0.0492000007629395 0.140973754882812
    endloop
  endfacet
  facet normal 0 0 1
    outer loop
      vertex -0.146049285888672 0.0435443153381348 0.229
      vertex -0.143549285888672 0.0492000007629395 0.229
      vertex -0.146049285888672 0.0492000007629395 0.229
    endloop
  endfacet
  facet normal 0 0 1
    outer loop
      vertex -0.146049285888672 0.0435443153381348 0.229
      vertex -0.143549285888672 0.0435443153381348 0.229
      vertex -0.143549285888672 0.0492000007629395 0.229
    endloop
  endfacet
  facet normal 0 0 -1
    outer loop
      vertex -0.0759850997924805 0.0412000007629395 0.140973754882812
      vertex -0.146049285888672 0.0412000007629395 0.140973754882812
      vertex -0.146049285888672 0.0492000007629395 0.140973754882812
    endloop
  endfacet
  facet normal 0 0 -1
    outer loop
      vertex -0.0759850997924805 0.0412000007629395 0.140973754882812
      vertex -0.146049285888672 0.0492000007629395 0.140973754882812
      vertex -0.0759850997924805 0.0492000007629395 0.140973754882812
    endloop
  endfacet
  facet normal 1 0 0
    outer loop
      vertex -0.0759850997924805 0.0412000007629395 0.150973754882813
      vertex -0.0759850997924805 0.0412000007629395 0.140973754882812
      vertex -0.0759850997924805 0.0492000007629395 0.140973754882812
    endloop
  endfacet
  facet normal 1 0 0
    outer loop
      vertex -0.0759850997924805 0.0412000007629395 0.191263824462891
      vertex -0.0759850997924805 0.0412000007629395 0.150973754882813
      vertex -0.0759850997924805 0.0492000007629395 0.140973754882812
    endloop
  endfacet
  facet normal 1 0 0
    outer loop
      vertex -0.0759850997924805 0.0398598289489746 0.191263824462891
      vertex -0.0759850997924805 0.0398598289489746 0.150973754882813
      vertex -0.0759850997924805 0.0412000007629395 0.150973754882813
    endloop
  endfacet
  facet normal 1 -0 0
    outer loop
      vertex -0.0759850997924805 0.0398598289489746 0.191263824462891
      vertex -0.0759850997924805 0.0412000007629395 0.150973754882813
      vertex -0.0759850997924805 0.0412000007629395 0.191263824462891
    endloop
  endfacet
  facet normal 1 0 0
    outer loop
      vertex -0.0759850997924805 0.0492000007629395 0.229
      vertex -0.0759850997924805 0.0412000007629395 0.191263824462891
      vertex -0.0759850997924805 0.0492000007629395 0.140973754882812
    endloop
  endfacet
  facet normal 1 -0 0
    outer loop
      vertex -0.0759850997924805 0.0412000007629395 0.224607727050781
      vertex -0.0759850997924805 0.0412000007629395 0.191263824462891
      vertex -0.0759850997924805 0.0492000007629395 0.229
    endloop
  endfacet
  facet normal 1 -0 0
    outer loop
      vertex -0.0759850997924805 0.042803409576416 0.227814544677734
      vertex -0.0759850997924805 0.0412000007629395 0.224607727050781
      vertex -0.0759850997924805 0.0492000007629395 0.229
    endloop
  endfacet
  facet normal 1 -0 0
    outer loop
      vertex -0.0759850997924805 0.0435443153381348 0.229
      vertex -0.0759850997924805 0.042803409576416 0.227814544677734
      vertex -0.0759850997924805 0.0492000007629395 0.229
    endloop
  endfacet
  facet normal 0 0 1
    outer loop
      vertex -0.0784850997924805 0.0435443153381348 0.229
      vertex -0.0759850997924805 0.0435443153381348 0.229
      vertex -0.0759850997924805 0.0492000007629395 0.229
    endloop
  endfacet
  facet normal 0 0 1
    outer loop
      vertex -0.0784850997924805 0.0435443153381348 0.229
      vertex -0.0759850997924805 0.0492000007629395 0.229
      vertex -0.0784850997924805 0.0492000007629395 0.229
    endloop
  endfacet
  facet normal 0 -1 0
    outer loop
      vertex 0.146295989990234 0.0412000007629395 0.140973754882812
      vertex 0.076231803894043 0.0412000007629395 0.150973754882813
      vertex 0.076231803894043 0.0412000007629395 0.140973754882812
    endloop
  endfacet
  facet normal 0 -1 0
    outer loop
      vertex 0.146295989990234 0.0412000007629395 0.140973754882812
      vertex 0.146295989990234 0.0412000007629395 0.150973754882813
      vertex 0.076231803894043 0.0412000007629395 0.150973754882813
    endloop
  endfacet
  facet normal 0 -1 0
    outer loop
      vertex 0.146295989990234 0.0412000007629395 0.191263824462891
      vertex 0.146295989990234 0.0412000007629395 0.224607727050781
      vertex 0.076231803894043 0.0412000007629395 0.224607727050781
    endloop
  endfacet
  facet normal 0 -1 0
    outer loop
      vertex 0.146295989990234 0.0412000007629395 0.191263824462891
      vertex 0.076231803894043 0.0412000007629395 0.224607727050781
      vertex 0.076231803894043 0.0412000007629395 0.191263824462891
    endloop
  endfacet
  facet normal -0 0 1
    outer loop
      vertex 0.076231803894043 0.0412000007629395 0.191263824462891
      vertex 0.146295989990234 0.0398598289489746 0.191263824462891
      vertex 0.146295989990234 0.0412000007629395 0.191263824462891
    endloop
  endfacet
  facet normal 0 0 1
    outer loop
      vertex 0.076231803894043 0.0398598289489746 0.191263824462891
      vertex 0.146295989990234 0.0398598289489746 0.191263824462891
      vertex 0.076231803894043 0.0412000007629395 0.191263824462891
    endloop
  endfacet
  facet normal 0 0 -1
    outer loop
      vertex 0.146295989990234 0.0398598289489746 0.150973754882813
      vertex 0.076231803894043 0.0398598289489746 0.150973754882813
      vertex 0.076231803894043 0.0412000007629395 0.150973754882813
    endloop
  endfacet
  facet normal 0 0 -1
    outer loop
      vertex 0.146295989990234 0.0398598289489746 0.150973754882813
      vertex 0.076231803894043 0.0412000007629395 0.150973754882813
      vertex 0.146295989990234 0.0412000007629395 0.150973754882813
    endloop
  endfacet
  facet normal 0 -1 0
    outer loop
      vertex -0.0759850997924805 0.0412000007629395 0.191263824462891
      vertex -0.0759850997924805 0.0412000007629395 0.224607727050781
      vertex -0.146049285888672 0.0412000007629395 0.224607727050781
    endloop
  endfacet
  facet normal 0 -1 0
    outer loop
      vertex -0.0759850997924805 0.0412000007629395 0.191263824462891
      vertex -0.146049285888672 0.0412000007629395 0.224607727050781
      vertex -0.146049285888672 0.0412000007629395 0.191263824462891
    endloop
  endfacet
  facet normal -0 0 -1
    outer loop
      vertex -0.0759850997924805 0.0412000007629395 0.150973754882813
      vertex -0.146049285888672 0.0398598289489746 0.150973754882813
      vertex -0.146049285888672 0.0412000007629395 0.150973754882813
    endloop
  endfacet
  facet normal 0 0 -1
    outer loop
      vertex -0.0759850997924805 0.0398598289489746 0.150973754882813
      vertex -0.146049285888672 0.0398598289489746 0.150973754882813
      vertex -0.0759850997924805 0.0412000007629395 0.150973754882813
    endloop
  endfacet
  facet normal -0 0 1
    outer loop
      vertex -0.146049285888672 0.0412000007629395 0.191263824462891
      vertex -0.0759850997924805 0.0398598289489746 0.191263824462891
      vertex -0.0759850997924805 0.0412000007629395 0.191263824462891
    endloop
  endfacet
  facet normal 0 0 1
    outer loop
      vertex -0.146049285888672 0.0398598289489746 0.191263824462891
      vertex -0.0759850997924805 0.0398598289489746 0.191263824462891
      vertex -0.146049285888672 0.0412000007629395 0.191263824462891
    endloop
  endfacet
  facet normal -0 -1 0
    outer loop
      vertex -0.0759850997924805 0.0412000007629395 0.150973754882813
      vertex -0.146049285888672 0.0412000007629395 0.150973754882813
      vertex -0.146049285888672 0.0412000007629395 0.140973754882812
    endloop
  endfacet
  facet normal 0 -1 0
    outer loop
      vertex -0.0759850997924805 0.0412000007629395 0.140973754882812
      vertex -0.0759850997924805 0.0412000007629395 0.150973754882813
      vertex -0.146049285888672 0.0412000007629395 0.140973754882812
    endloop
  endfacet
endsolid laptop
