ISO-10303-21;
HEADER;
/* Generated by software containing ST-Developer
 * from STEP Tools, Inc. (www.steptools.com) 
 */
/* OPTION: using custom renumber hook */

FILE_DESCRIPTION(
/* description */ ('STEP AP242 Edition 2',
'CAx-IF Rec.Pracs.---Representation and Presentation of Product Manufa
cturing Information (PMI)---4.0---2014-10-13',
'CAx-IF Rec.Pracs.---3D Tessellated Geometry---0.4---2014-09-14','2;1',
'CAx-IF Rec.Pracs.---User Defined Attributes---1.5---2016-08-15'),
/* implementation_level */ '2;1');

FILE_NAME(
/* name */ 'Push pin - native',
/* time_stamp */ '2026-09-07T19:43:43Z',
/* author */ (''),
/* organization */ (''),
/* preprocessor_version */ 'ST-DEVELOPER v20',
/* originating_system */ 'ONSHAPE BY PTC INC, 1.220',
/* authorisation */ '  ');

FILE_SCHEMA (('AP242_MANAGED_MODEL_BASED_3D_ENGINEERING_MIM_LF { 1 0 10303 442 3 1 4 }'));
ENDSEC;

DATA;
#10=SHAPE_REPRESENTATION_RELATIONSHIP('','',#231,#11);
#11=ADVANCED_BREP_SHAPE_REPRESENTATION('',(#229),#401);
#12=B_SPLINE_CURVE_WITH_KNOTS('',3,(#358,#359,#360,#361),.UNSPECIFIED.,
 .F.,.F.,(4,4),(0.00480060336039819,0.0068670494622658),.UNSPECIFIED.);
#13=B_SPLINE_CURVE_WITH_KNOTS('',3,(#363,#364,#365,#366),.UNSPECIFIED.,
 .F.,.F.,(4,4),(0.0163310582099686,0.0184131120643564),.UNSPECIFIED.);
#14=B_SPLINE_CURVE_WITH_KNOTS('',3,(#370,#371,#372,#373),.UNSPECIFIED.,
 .F.,.F.,(4,4),(0.00480060336039819,0.0068670494622658),.UNSPECIFIED.);
#15=B_SPLINE_CURVE_WITH_KNOTS('',3,(#375,#376,#377,#378),.UNSPECIFIED.,
 .F.,.F.,(4,4),(0.0163310582099686,0.0184131120643564),.UNSPECIFIED.);
#16=CONICAL_SURFACE('',#243,0.0021,0.244978663126864);
#17=CONICAL_SURFACE('',#245,0.0021,0.244978663126864);
#18=CONICAL_SURFACE('',#253,0.004,0.785398163397449);
#19=PLANE('',#239);
#20=PLANE('',#241);
#21=PLANE('',#247);
#22=PLANE('',#248);
#23=PLANE('',#249);
#24=PLANE('',#255);
#25=PLANE('',#256);
#26=PLANE('',#257);
#27=PLANE('',#258);
#28=LINE('',#329,#40);
#29=LINE('',#334,#41);
#30=LINE('',#338,#42);
#31=LINE('',#342,#43);
#32=LINE('',#346,#44);
#33=LINE('',#350,#45);
#34=LINE('',#352,#46);
#35=LINE('',#356,#47);
#36=LINE('',#382,#48);
#37=LINE('',#384,#49);
#38=LINE('',#396,#50);
#39=LINE('',#397,#51);
#40=VECTOR('',#265,1.);
#41=VECTOR('',#268,1.);
#42=VECTOR('',#271,1.);
#43=VECTOR('',#274,1.);
#44=VECTOR('',#279,1.);
#45=VECTOR('',#282,1.);
#46=VECTOR('',#285,1.);
#47=VECTOR('',#288,1.);
#48=VECTOR('',#299,1.);
#49=VECTOR('',#302,1.);
#50=VECTOR('',#319,1.);
#51=VECTOR('',#320,1.);
#52=ORIENTED_EDGE('',*,*,#108,.T.);
#53=ORIENTED_EDGE('',*,*,#109,.F.);
#54=ORIENTED_EDGE('',*,*,#110,.F.);
#55=ORIENTED_EDGE('',*,*,#111,.F.);
#56=ORIENTED_EDGE('',*,*,#112,.F.);
#57=ORIENTED_EDGE('',*,*,#113,.F.);
#58=ORIENTED_EDGE('',*,*,#114,.F.);
#59=ORIENTED_EDGE('',*,*,#115,.F.);
#60=ORIENTED_EDGE('',*,*,#116,.F.);
#61=ORIENTED_EDGE('',*,*,#117,.F.);
#62=ORIENTED_EDGE('',*,*,#118,.F.);
#63=ORIENTED_EDGE('',*,*,#119,.F.);
#64=ORIENTED_EDGE('',*,*,#110,.T.);
#65=ORIENTED_EDGE('',*,*,#120,.F.);
#66=ORIENTED_EDGE('',*,*,#121,.F.);
#67=ORIENTED_EDGE('',*,*,#122,.F.);
#68=ORIENTED_EDGE('',*,*,#114,.T.);
#69=ORIENTED_EDGE('',*,*,#123,.F.);
#70=ORIENTED_EDGE('',*,*,#118,.T.);
#71=ORIENTED_EDGE('',*,*,#124,.F.);
#72=ORIENTED_EDGE('',*,*,#125,.F.);
#73=ORIENTED_EDGE('',*,*,#126,.F.);
#74=ORIENTED_EDGE('',*,*,#121,.T.);
#75=ORIENTED_EDGE('',*,*,#127,.F.);
#76=ORIENTED_EDGE('',*,*,#128,.F.);
#77=ORIENTED_EDGE('',*,*,#129,.F.);
#78=ORIENTED_EDGE('',*,*,#125,.T.);
#79=ORIENTED_EDGE('',*,*,#130,.F.);
#80=ORIENTED_EDGE('',*,*,#128,.T.);
#81=ORIENTED_EDGE('',*,*,#131,.F.);
#82=ORIENTED_EDGE('',*,*,#132,.F.);
#83=ORIENTED_EDGE('',*,*,#131,.T.);
#84=ORIENTED_EDGE('',*,*,#133,.F.);
#85=ORIENTED_EDGE('',*,*,#132,.T.);
#86=ORIENTED_EDGE('',*,*,#108,.F.);
#87=ORIENTED_EDGE('',*,*,#133,.T.);
#88=ORIENTED_EDGE('',*,*,#112,.T.);
#89=ORIENTED_EDGE('',*,*,#134,.F.);
#90=ORIENTED_EDGE('',*,*,#116,.T.);
#91=ORIENTED_EDGE('',*,*,#135,.T.);
#92=ORIENTED_EDGE('',*,*,#111,.T.);
#93=ORIENTED_EDGE('',*,*,#119,.T.);
#94=ORIENTED_EDGE('',*,*,#123,.T.);
#95=ORIENTED_EDGE('',*,*,#129,.T.);
#96=ORIENTED_EDGE('',*,*,#124,.T.);
#97=ORIENTED_EDGE('',*,*,#117,.T.);
#98=ORIENTED_EDGE('',*,*,#109,.T.);
#99=ORIENTED_EDGE('',*,*,#134,.T.);
#100=ORIENTED_EDGE('',*,*,#115,.T.);
#101=ORIENTED_EDGE('',*,*,#122,.T.);
#102=ORIENTED_EDGE('',*,*,#126,.T.);
#103=ORIENTED_EDGE('',*,*,#130,.T.);
#104=ORIENTED_EDGE('',*,*,#127,.T.);
#105=ORIENTED_EDGE('',*,*,#120,.T.);
#106=ORIENTED_EDGE('',*,*,#113,.T.);
#107=ORIENTED_EDGE('',*,*,#135,.F.);
#108=EDGE_CURVE('',#136,#136,#156,.T.);
#109=EDGE_CURVE('',#137,#138,#28,.F.);
#110=EDGE_CURVE('',#139,#137,#157,.T.);
#111=EDGE_CURVE('',#140,#139,#29,.T.);
#112=EDGE_CURVE('',#141,#140,#158,.T.);
#113=EDGE_CURVE('',#142,#141,#30,.F.);
#114=EDGE_CURVE('',#143,#142,#159,.T.);
#115=EDGE_CURVE('',#144,#143,#31,.T.);
#116=EDGE_CURVE('',#138,#144,#160,.T.);
#117=EDGE_CURVE('',#145,#137,#32,.T.);
#118=EDGE_CURVE('',#146,#145,#161,.T.);
#119=EDGE_CURVE('',#139,#146,#33,.T.);
#120=EDGE_CURVE('',#147,#142,#34,.T.);
#121=EDGE_CURVE('',#148,#147,#162,.T.);
#122=EDGE_CURVE('',#143,#148,#35,.T.);
#123=EDGE_CURVE('',#146,#149,#12,.T.);
#124=EDGE_CURVE('',#150,#145,#13,.T.);
#125=EDGE_CURVE('',#149,#150,#163,.T.);
#126=EDGE_CURVE('',#148,#151,#14,.T.);
#127=EDGE_CURVE('',#152,#147,#15,.T.);
#128=EDGE_CURVE('',#151,#152,#164,.T.);
#129=EDGE_CURVE('',#149,#150,#36,.T.);
#130=EDGE_CURVE('',#151,#152,#37,.T.);
#131=EDGE_CURVE('',#153,#153,#165,.T.);
#132=EDGE_CURVE('',#154,#154,#166,.T.);
#133=EDGE_CURVE('',#155,#155,#167,.T.);
#134=EDGE_CURVE('',#138,#140,#38,.T.);
#135=EDGE_CURVE('',#144,#141,#39,.T.);
#136=VERTEX_POINT('',#328);
#137=VERTEX_POINT('',#330);
#138=VERTEX_POINT('',#331);
#139=VERTEX_POINT('',#333);
#140=VERTEX_POINT('',#335);
#141=VERTEX_POINT('',#337);
#142=VERTEX_POINT('',#339);
#143=VERTEX_POINT('',#341);
#144=VERTEX_POINT('',#343);
#145=VERTEX_POINT('',#347);
#146=VERTEX_POINT('',#349);
#147=VERTEX_POINT('',#353);
#148=VERTEX_POINT('',#355);
#149=VERTEX_POINT('',#362);
#150=VERTEX_POINT('',#367);
#151=VERTEX_POINT('',#374);
#152=VERTEX_POINT('',#379);
#153=VERTEX_POINT('',#387);
#154=VERTEX_POINT('',#390);
#155=VERTEX_POINT('',#393);
#156=CIRCLE('',#234,0.002);
#157=CIRCLE('',#235,0.002);
#158=CIRCLE('',#236,0.002);
#159=CIRCLE('',#237,0.002);
#160=CIRCLE('',#238,0.002);
#161=CIRCLE('',#240,0.0021);
#162=CIRCLE('',#242,0.0021);
#163=CIRCLE('',#244,0.0016);
#164=CIRCLE('',#246,0.0016);
#165=CIRCLE('',#250,0.004);
#166=CIRCLE('',#252,0.004);
#167=CIRCLE('',#254,0.0034);
#168=EDGE_LOOP('',(#52));
#169=EDGE_LOOP('',(#53,#54,#55,#56,#57,#58,#59,#60));
#170=EDGE_LOOP('',(#61,#62,#63,#64));
#171=EDGE_LOOP('',(#65,#66,#67,#68));
#172=EDGE_LOOP('',(#69,#70,#71,#72));
#173=EDGE_LOOP('',(#73,#74,#75,#76));
#174=EDGE_LOOP('',(#77,#78));
#175=EDGE_LOOP('',(#79,#80));
#176=EDGE_LOOP('',(#81));
#177=EDGE_LOOP('',(#82));
#178=EDGE_LOOP('',(#83));
#179=EDGE_LOOP('',(#84));
#180=EDGE_LOOP('',(#85));
#181=EDGE_LOOP('',(#86));
#182=EDGE_LOOP('',(#87));
#183=EDGE_LOOP('',(#88,#89,#90,#91));
#184=EDGE_LOOP('',(#92,#93,#94,#95,#96,#97,#98,#99));
#185=EDGE_LOOP('',(#100,#101,#102,#103,#104,#105,#106,#107));
#186=FACE_BOUND('',#168,.T.);
#187=FACE_BOUND('',#169,.T.);
#188=FACE_BOUND('',#170,.T.);
#189=FACE_BOUND('',#171,.T.);
#190=FACE_BOUND('',#172,.T.);
#191=FACE_BOUND('',#173,.T.);
#192=FACE_BOUND('',#174,.T.);
#193=FACE_BOUND('',#175,.T.);
#194=FACE_BOUND('',#176,.T.);
#195=FACE_BOUND('',#177,.T.);
#196=FACE_BOUND('',#178,.T.);
#197=FACE_BOUND('',#179,.T.);
#198=FACE_BOUND('',#180,.T.);
#199=FACE_BOUND('',#181,.T.);
#200=FACE_BOUND('',#182,.T.);
#201=FACE_BOUND('',#183,.T.);
#202=FACE_BOUND('',#184,.T.);
#203=FACE_BOUND('',#185,.T.);
#204=CYLINDRICAL_SURFACE('',#233,0.002);
#205=CYLINDRICAL_SURFACE('',#251,0.004);
#206=ADVANCED_FACE('',(#186,#187),#204,.T.);
#207=ADVANCED_FACE('',(#188),#19,.F.);
#208=ADVANCED_FACE('',(#189),#20,.F.);
#209=ADVANCED_FACE('',(#190),#16,.T.);
#210=ADVANCED_FACE('',(#191),#17,.T.);
#211=ADVANCED_FACE('',(#192),#21,.F.);
#212=ADVANCED_FACE('',(#193),#22,.F.);
#213=ADVANCED_FACE('',(#194),#23,.F.);
#214=ADVANCED_FACE('',(#195,#196),#205,.T.);
#215=ADVANCED_FACE('',(#197,#198),#18,.T.);
#216=ADVANCED_FACE('',(#199,#200),#24,.F.);
#217=ADVANCED_FACE('',(#201),#25,.T.);
#218=ADVANCED_FACE('',(#202),#26,.T.);
#219=ADVANCED_FACE('',(#203),#27,.T.);
#220=CLOSED_SHELL('',(#206,#207,#208,#209,#210,#211,#212,#213,#214,#215,
#216,#217,#218,#219));
#221=STYLED_ITEM('',(#222),#229);
#222=PRESENTATION_STYLE_ASSIGNMENT((#223));
#223=SURFACE_STYLE_USAGE(.BOTH.,#224);
#224=SURFACE_SIDE_STYLE('',(#225));
#225=SURFACE_STYLE_FILL_AREA(#226);
#226=FILL_AREA_STYLE('',(#227));
#227=FILL_AREA_STYLE_COLOUR('',#228);
#228=COLOUR_RGB('',0.615686274509804,0.811764705882353,0.929411764705882);
#229=MANIFOLD_SOLID_BREP('Part 1',#220);
#230=SHAPE_DEFINITION_REPRESENTATION(#406,#231);
#231=SHAPE_REPRESENTATION('Part 1',(#232),#401);
#232=AXIS2_PLACEMENT_3D('',#325,#259,#260);
#233=AXIS2_PLACEMENT_3D('',#326,#261,#262);
#234=AXIS2_PLACEMENT_3D('',#327,#263,#264);
#235=AXIS2_PLACEMENT_3D('',#332,#266,#267);
#236=AXIS2_PLACEMENT_3D('',#336,#269,#270);
#237=AXIS2_PLACEMENT_3D('',#340,#272,#273);
#238=AXIS2_PLACEMENT_3D('',#344,#275,#276);
#239=AXIS2_PLACEMENT_3D('',#345,#277,#278);
#240=AXIS2_PLACEMENT_3D('',#348,#280,#281);
#241=AXIS2_PLACEMENT_3D('',#351,#283,#284);
#242=AXIS2_PLACEMENT_3D('',#354,#286,#287);
#243=AXIS2_PLACEMENT_3D('',#357,#289,#290);
#244=AXIS2_PLACEMENT_3D('',#368,#291,#292);
#245=AXIS2_PLACEMENT_3D('',#369,#293,#294);
#246=AXIS2_PLACEMENT_3D('',#380,#295,#296);
#247=AXIS2_PLACEMENT_3D('',#381,#297,#298);
#248=AXIS2_PLACEMENT_3D('',#383,#300,#301);
#249=AXIS2_PLACEMENT_3D('',#385,#303,#304);
#250=AXIS2_PLACEMENT_3D('',#386,#305,#306);
#251=AXIS2_PLACEMENT_3D('',#388,#307,#308);
#252=AXIS2_PLACEMENT_3D('',#389,#309,#310);
#253=AXIS2_PLACEMENT_3D('',#391,#311,#312);
#254=AXIS2_PLACEMENT_3D('',#392,#313,#314);
#255=AXIS2_PLACEMENT_3D('',#394,#315,#316);
#256=AXIS2_PLACEMENT_3D('',#395,#317,#318);
#257=AXIS2_PLACEMENT_3D('',#398,#321,#322);
#258=AXIS2_PLACEMENT_3D('',#399,#323,#324);
#259=DIRECTION('',(0.,0.,1.));
#260=DIRECTION('',(1.,0.,0.));
#261=DIRECTION('',(0.,0.,1.));
#262=DIRECTION('',(1.,0.,0.));
#263=DIRECTION('',(0.,0.,1.));
#264=DIRECTION('',(1.,0.,0.));
#265=DIRECTION('',(0.,0.,1.));
#266=DIRECTION('',(0.,0.,1.));
#267=DIRECTION('',(1.,0.,0.));
#268=DIRECTION('',(0.,0.,1.));
#269=DIRECTION('',(0.,0.,1.));
#270=DIRECTION('',(1.,0.,0.));
#271=DIRECTION('',(0.,0.,1.));
#272=DIRECTION('',(0.,0.,1.));
#273=DIRECTION('',(1.,0.,0.));
#274=DIRECTION('',(0.,0.,1.));
#275=DIRECTION('',(0.,0.,1.));
#276=DIRECTION('',(1.,0.,0.));
#277=DIRECTION('',(0.,0.,1.));
#278=DIRECTION('',(1.,0.,0.));
#279=DIRECTION('',(0.,1.,0.));
#280=DIRECTION('',(0.,0.,1.));
#281=DIRECTION('',(1.,0.,0.));
#282=DIRECTION('',(0.,1.,0.));
#283=DIRECTION('',(0.,0.,1.));
#284=DIRECTION('',(1.,0.,0.));
#285=DIRECTION('',(0.,-1.,0.));
#286=DIRECTION('',(0.,0.,1.));
#287=DIRECTION('',(1.,0.,0.));
#288=DIRECTION('',(0.,-1.,0.));
#289=DIRECTION('',(0.,0.,-1.));
#290=DIRECTION('',(-1.,0.,0.));
#291=DIRECTION('',(0.,0.,1.));
#292=DIRECTION('',(1.,0.,0.));
#293=DIRECTION('',(0.,0.,-1.));
#294=DIRECTION('',(-1.,0.,0.));
#295=DIRECTION('',(0.,0.,1.));
#296=DIRECTION('',(1.,0.,0.));
#297=DIRECTION('',(0.,0.,-1.));
#298=DIRECTION('',(-1.,0.,0.));
#299=DIRECTION('',(0.,-1.,0.));
#300=DIRECTION('',(0.,0.,-1.));
#301=DIRECTION('',(-1.,0.,0.));
#302=DIRECTION('',(0.,1.,0.));
#303=DIRECTION('',(0.,0.,1.));
#304=DIRECTION('',(1.,0.,0.));
#305=DIRECTION('',(0.,0.,1.));
#306=DIRECTION('',(1.,0.,0.));
#307=DIRECTION('',(0.,0.,1.));
#308=DIRECTION('',(1.,0.,0.));
#309=DIRECTION('',(0.,0.,1.));
#310=DIRECTION('',(1.,0.,0.));
#311=DIRECTION('',(0.,0.,-1.));
#312=DIRECTION('',(-1.,0.,0.));
#313=DIRECTION('',(0.,0.,1.));
#314=DIRECTION('',(1.,0.,0.));
#315=DIRECTION('',(0.,0.,-1.));
#316=DIRECTION('',(-1.,0.,0.));
#317=DIRECTION('',(0.,0.,1.));
#318=DIRECTION('',(1.,0.,0.));
#319=DIRECTION('',(0.,1.,0.));
#320=DIRECTION('',(0.,1.,0.));
#321=DIRECTION('',(1.,0.,0.));
#322=DIRECTION('',(0.,0.,-1.));
#323=DIRECTION('',(-1.,0.,0.));
#324=DIRECTION('',(0.,0.,1.));
#325=CARTESIAN_POINT('',(0.,0.,0.));
#326=CARTESIAN_POINT('',(0.,0.,0.007));
#327=CARTESIAN_POINT('',(0.,0.,0.002));
#328=CARTESIAN_POINT('',(0.002,0.,0.002));
#329=CARTESIAN_POINT('',(-0.0005,-0.00193649167310371,0.007));
#330=CARTESIAN_POINT('',(-0.0005,-0.00193649167310371,0.012));
#331=CARTESIAN_POINT('',(-0.0005,-0.00193649167310371,0.004));
#332=CARTESIAN_POINT('',(0.,0.,0.012));
#333=CARTESIAN_POINT('',(-0.0005,0.00193649167310371,0.012));
#334=CARTESIAN_POINT('',(-0.0005,0.00193649167310371,0.007));
#335=CARTESIAN_POINT('',(-0.0005,0.00193649167310371,0.004));
#336=CARTESIAN_POINT('',(0.,0.,0.004));
#337=CARTESIAN_POINT('',(0.0005,0.00193649167310371,0.004));
#338=CARTESIAN_POINT('',(0.0005,0.00193649167310371,0.007));
#339=CARTESIAN_POINT('',(0.0005,0.00193649167310371,0.012));
#340=CARTESIAN_POINT('',(0.,0.,0.012));
#341=CARTESIAN_POINT('',(0.0005,-0.00193649167310371,0.012));
#342=CARTESIAN_POINT('',(0.0005,-0.00193649167310371,0.007));
#343=CARTESIAN_POINT('',(0.0005,-0.00193649167310371,0.004));
#344=CARTESIAN_POINT('',(0.,0.,0.004));
#345=CARTESIAN_POINT('',(0.00205,0.,0.012));
#346=CARTESIAN_POINT('',(-0.0005,0.,0.012));
#347=CARTESIAN_POINT('',(-0.0005,-0.00203960780543712,0.012));
#348=CARTESIAN_POINT('',(0.,0.,0.012));
#349=CARTESIAN_POINT('',(-0.0005,0.00203960780543712,0.012));
#350=CARTESIAN_POINT('',(-0.0005,0.,0.012));
#351=CARTESIAN_POINT('',(0.00205,0.,0.012));
#352=CARTESIAN_POINT('',(0.0005,0.,0.012));
#353=CARTESIAN_POINT('',(0.0005,0.00203960780543712,0.012));
#354=CARTESIAN_POINT('',(0.,0.,0.012));
#355=CARTESIAN_POINT('',(0.0005,-0.00203960780543712,0.012));
#356=CARTESIAN_POINT('',(0.0005,0.,0.012));
#357=CARTESIAN_POINT('',(0.,0.,0.012));
#358=CARTESIAN_POINT('',(-0.0005,0.00203960780543711,0.012));
#359=CARTESIAN_POINT('',(-0.0005,0.00186790165420854,0.0126670727738807));
#360=CARTESIAN_POINT('',(-0.0005,0.00169517712903364,0.0133338845578653));
#361=CARTESIAN_POINT('',(-0.0005,0.00151986841535707,0.014));
#362=CARTESIAN_POINT('',(-0.0005,0.00151986841535707,0.014));
#363=CARTESIAN_POINT('',(-0.0005,-0.00151986841535707,0.014));
#364=CARTESIAN_POINT('',(-0.0005,-0.00169517523973868,0.0133338917365646));
#365=CARTESIAN_POINT('',(-0.0005,-0.00186790249615275,0.012667069502955));
#366=CARTESIAN_POINT('',(-0.0005,-0.00203960780543712,0.012));
#367=CARTESIAN_POINT('',(-0.0005,-0.00151986841535707,0.014));
#368=CARTESIAN_POINT('',(0.,0.,0.014));
#369=CARTESIAN_POINT('',(0.,0.,0.012));
#370=CARTESIAN_POINT('',(0.0005,-0.00203960780543711,0.012));
#371=CARTESIAN_POINT('',(0.0005,-0.00186790165420854,0.0126670727738807));
#372=CARTESIAN_POINT('',(0.0005,-0.00169517712903364,0.0133338845578653));
#373=CARTESIAN_POINT('',(0.0005,-0.00151986841535707,0.014));
#374=CARTESIAN_POINT('',(0.0005,-0.00151986841535707,0.014));
#375=CARTESIAN_POINT('',(0.0005,0.00151986841535707,0.014));
#376=CARTESIAN_POINT('',(0.0005,0.00169517523973868,0.0133338917365646));
#377=CARTESIAN_POINT('',(0.0005,0.00186790249615275,0.012667069502955));
#378=CARTESIAN_POINT('',(0.0005,0.00203960780543712,0.012));
#379=CARTESIAN_POINT('',(0.0005,0.00151986841535707,0.014));
#380=CARTESIAN_POINT('',(0.,0.,0.014));
#381=CARTESIAN_POINT('',(0.0008,0.,0.014));
#382=CARTESIAN_POINT('',(-0.0005,0.,0.014));
#383=CARTESIAN_POINT('',(0.0008,0.,0.014));
#384=CARTESIAN_POINT('',(0.0005,0.,0.014));
#385=CARTESIAN_POINT('',(0.002,0.,0.));
#386=CARTESIAN_POINT('',(0.,0.,0.));
#387=CARTESIAN_POINT('',(0.004,0.,0.));
#388=CARTESIAN_POINT('',(0.,0.,0.007));
#389=CARTESIAN_POINT('',(0.,0.,0.0014));
#390=CARTESIAN_POINT('',(0.004,0.,0.0014));
#391=CARTESIAN_POINT('',(0.,0.,0.0014));
#392=CARTESIAN_POINT('',(0.,0.,0.002));
#393=CARTESIAN_POINT('',(0.0034,0.,0.002));
#394=CARTESIAN_POINT('',(0.0027,0.,0.002));
#395=CARTESIAN_POINT('',(0.,-0.003,0.004));
#396=CARTESIAN_POINT('',(-0.0005,-0.003,0.004));
#397=CARTESIAN_POINT('',(0.0005,-0.003,0.004));
#398=CARTESIAN_POINT('',(-0.0005,-0.003,0.00905));
#399=CARTESIAN_POINT('',(0.0005,-0.003,0.00905));
#400=MECHANICAL_DESIGN_GEOMETRIC_PRESENTATION_REPRESENTATION('',(#221),
#401);
#401=(
GEOMETRIC_REPRESENTATION_CONTEXT(3)
GLOBAL_UNCERTAINTY_ASSIGNED_CONTEXT((#402))
GLOBAL_UNIT_ASSIGNED_CONTEXT((#405,#404,#403))
REPRESENTATION_CONTEXT('Part 1','TOP_LEVEL_ASSEMBLY_PART')
);
#402=UNCERTAINTY_MEASURE_WITH_UNIT(LENGTH_MEASURE(2.E-5),#405,
'DISTANCE_ACCURACY_VALUE','Maximum Tolerance applied to model');
#403=(
NAMED_UNIT(*)
SI_UNIT($,.STERADIAN.)
SOLID_ANGLE_UNIT()
);
#404=(
NAMED_UNIT(*)
PLANE_ANGLE_UNIT()
SI_UNIT($,.RADIAN.)
);
#405=(
LENGTH_UNIT()
NAMED_UNIT(*)
SI_UNIT($,.METRE.)
);
#406=PRODUCT_DEFINITION_SHAPE('','',#407);
#407=PRODUCT_DEFINITION('','',#409,#408);
#408=PRODUCT_DEFINITION_CONTEXT('',#415,'design');
#409=PRODUCT_DEFINITION_FORMATION_WITH_SPECIFIED_SOURCE('','',#411,
 .NOT_KNOWN.);
#410=PRODUCT_RELATED_PRODUCT_CATEGORY('','',(#411));
#411=PRODUCT('Part 1','Part 1','Part 1',(#413));
#412=PRODUCT_CATEGORY('','');
#413=PRODUCT_CONTEXT('',#415,'mechanical');
#414=APPLICATION_PROTOCOL_DEFINITION('international standard',
'ap242_managed_model_based_3d_engineering',2020,#415);
#415=APPLICATION_CONTEXT('managed model based 3d engineering');
ENDSEC;
END-ISO-10303-21;
