ISO-10303-21;
HEADER;
FILE_DESCRIPTION(('FreeCAD Model'),'2;1');
FILE_NAME('Open CASCADE Shape Model','2026-09-07T21:39:56',('Author'),(
    ''),'Open CASCADE STEP processor 7.8','FreeCAD','Unknown');
FILE_SCHEMA(('AUTOMOTIVE_DESIGN { 1 0 10303 214 1 1 1 1 }'));
ENDSEC;
DATA;
#1 = APPLICATION_PROTOCOL_DEFINITION('international standard',
  'automotive_design',2000,#2);
#2 = APPLICATION_CONTEXT(
  'core data for automotive mechanical design processes');
#3 = SHAPE_DEFINITION_REPRESENTATION(#4,#10);
#4 = PRODUCT_DEFINITION_SHAPE('','',#5);
#5 = PRODUCT_DEFINITION('design','',#6,#9);
#6 = PRODUCT_DEFINITION_FORMATION('','',#7);
#7 = PRODUCT('07 left outlet rail (installed)',
  '07 left outlet rail (installed)','',(#8));
#8 = PRODUCT_CONTEXT('',#2,'mechanical');
#9 = PRODUCT_DEFINITION_CONTEXT('part definition',#2,'design');
#10 = ADVANCED_BREP_SHAPE_REPRESENTATION('',(#11,#15),#1879);
#11 = AXIS2_PLACEMENT_3D('',#12,#13,#14);
#12 = CARTESIAN_POINT('',(0.,0.,0.));
#13 = DIRECTION('',(0.,0.,1.));
#14 = DIRECTION('',(1.,0.,-0.));
#15 = MANIFOLD_SOLID_BREP('',#16);
#16 = CLOSED_SHELL('',(#17,#125,#254,#279,#310,#334,#381,#406,#462,#486,
    #650,#675,#700,#717,#741,#772,#850,#881,#905,#929,#953,#970,#987,
    #1034,#1058,#1098,#1115,#1155,#1172,#1203,#1259,#1276,#1300,#1317,
    #1334,#1387,#1413,#1432,#1464,#1481,#1498,#1524,#1556,#1580,#1604,
    #1623,#1655,#1679,#1703,#1720,#1737,#1756,#1768,#1780,#1797,#1814,
    #1826,#1843,#1855,#1867));
#17 = ADVANCED_FACE('',(#18),#120,.T.);
#18 = FACE_BOUND('',#19,.F.);
#19 = EDGE_LOOP('',(#20,#30,#39,#47,#56,#64,#73,#81,#90,#98,#106,#114));
#20 = ORIENTED_EDGE('',*,*,#21,.F.);
#21 = EDGE_CURVE('',#22,#24,#26,.T.);
#22 = VERTEX_POINT('',#23);
#23 = CARTESIAN_POINT('',(-184.,-1.3E-14,186.3));
#24 = VERTEX_POINT('',#25);
#25 = CARTESIAN_POINT('',(-184.,-7.E-15,231.4));
#26 = LINE('',#27,#28);
#27 = CARTESIAN_POINT('',(-184.,0.,154.));
#28 = VECTOR('',#29,1.);
#29 = DIRECTION('',(0.,0.,1.));
#30 = ORIENTED_EDGE('',*,*,#31,.T.);
#31 = EDGE_CURVE('',#22,#32,#34,.T.);
#32 = VERTEX_POINT('',#33);
#33 = CARTESIAN_POINT('',(-184.,2.,184.3));
#34 = CIRCLE('',#35,2.);
#35 = AXIS2_PLACEMENT_3D('',#36,#37,#38);
#36 = CARTESIAN_POINT('',(-184.,2.,186.3));
#37 = DIRECTION('',(1.,-0.,0.));
#38 = DIRECTION('',(0.,0.,-1.));
#39 = ORIENTED_EDGE('',*,*,#40,.F.);
#40 = EDGE_CURVE('',#41,#32,#43,.T.);
#41 = VERTEX_POINT('',#42);
#42 = CARTESIAN_POINT('',(-184.,6.,184.3));
#43 = LINE('',#44,#45);
#44 = CARTESIAN_POINT('',(-184.,16.25,184.3));
#45 = VECTOR('',#46,1.);
#46 = DIRECTION('',(-0.,-1.,-0.));
#47 = ORIENTED_EDGE('',*,*,#48,.T.);
#48 = EDGE_CURVE('',#41,#49,#51,.T.);
#49 = VERTEX_POINT('',#50);
#50 = CARTESIAN_POINT('',(-184.,10.3,180.));
#51 = CIRCLE('',#52,4.3);
#52 = AXIS2_PLACEMENT_3D('',#53,#54,#55);
#53 = CARTESIAN_POINT('',(-184.,6.,180.));
#54 = DIRECTION('',(-1.,0.,0.));
#55 = DIRECTION('',(0.,1.,2.2E-16));
#56 = ORIENTED_EDGE('',*,*,#57,.T.);
#57 = EDGE_CURVE('',#49,#58,#60,.T.);
#58 = VERTEX_POINT('',#59);
#59 = CARTESIAN_POINT('',(-184.,10.3,166.22490309931));
#60 = LINE('',#61,#62);
#61 = CARTESIAN_POINT('',(-184.,10.3,167.));
#62 = VECTOR('',#63,1.);
#63 = DIRECTION('',(-0.,-0.,-1.));
#64 = ORIENTED_EDGE('',*,*,#65,.T.);
#65 = EDGE_CURVE('',#58,#66,#68,.T.);
#66 = VERTEX_POINT('',#67);
#67 = CARTESIAN_POINT('',(-184.,11.,166.3));
#68 = CIRCLE('',#69,3.3);
#69 = AXIS2_PLACEMENT_3D('',#70,#71,#72);
#70 = CARTESIAN_POINT('',(-184.,11.,163.));
#71 = DIRECTION('',(-1.,0.,0.));
#72 = DIRECTION('',(0.,-7.33E-15,1.));
#73 = ORIENTED_EDGE('',*,*,#74,.T.);
#74 = EDGE_CURVE('',#66,#75,#77,.T.);
#75 = VERTEX_POINT('',#76);
#76 = CARTESIAN_POINT('',(-184.,23.,166.3));
#77 = LINE('',#78,#79);
#78 = CARTESIAN_POINT('',(-184.,5.5,166.3));
#79 = VECTOR('',#80,1.);
#80 = DIRECTION('',(0.,1.,0.));
#81 = ORIENTED_EDGE('',*,*,#82,.T.);
#82 = EDGE_CURVE('',#75,#83,#85,.T.);
#83 = VERTEX_POINT('',#84);
#84 = CARTESIAN_POINT('',(-184.,26.3,163.));
#85 = CIRCLE('',#86,3.3);
#86 = AXIS2_PLACEMENT_3D('',#87,#88,#89);
#87 = CARTESIAN_POINT('',(-184.,23.,163.));
#88 = DIRECTION('',(-1.,0.,0.));
#89 = DIRECTION('',(0.,1.,2.2E-16));
#90 = ORIENTED_EDGE('',*,*,#91,.T.);
#91 = EDGE_CURVE('',#83,#92,#94,.T.);
#92 = VERTEX_POINT('',#93);
#93 = CARTESIAN_POINT('',(-184.,26.3,154.));
#94 = LINE('',#95,#96);
#95 = CARTESIAN_POINT('',(-184.,26.3,173.35));
#96 = VECTOR('',#97,1.);
#97 = DIRECTION('',(-0.,-0.,-1.));
#98 = ORIENTED_EDGE('',*,*,#99,.T.);
#99 = EDGE_CURVE('',#92,#100,#102,.T.);
#100 = VERTEX_POINT('',#101);
#101 = CARTESIAN_POINT('',(-184.,39.,154.));
#102 = LINE('',#103,#104);
#103 = CARTESIAN_POINT('',(-184.,0.,154.));
#104 = VECTOR('',#105,1.);
#105 = DIRECTION('',(0.,1.,0.));
#106 = ORIENTED_EDGE('',*,*,#107,.T.);
#107 = EDGE_CURVE('',#100,#108,#110,.T.);
#108 = VERTEX_POINT('',#109);
#109 = CARTESIAN_POINT('',(-184.,39.,231.4));
#110 = LINE('',#111,#112);
#111 = CARTESIAN_POINT('',(-184.,39.,154.));
#112 = VECTOR('',#113,1.);
#113 = DIRECTION('',(0.,0.,1.));
#114 = ORIENTED_EDGE('',*,*,#115,.F.);
#115 = EDGE_CURVE('',#24,#108,#116,.T.);
#116 = LINE('',#117,#118);
#117 = CARTESIAN_POINT('',(-184.,0.,231.4));
#118 = VECTOR('',#119,1.);
#119 = DIRECTION('',(0.,1.,0.));
#120 = PLANE('',#121);
#121 = AXIS2_PLACEMENT_3D('',#122,#123,#124);
#122 = CARTESIAN_POINT('',(-184.,21.724922361975,195.42882287112));
#123 = DIRECTION('',(-1.,-0.,-0.));
#124 = DIRECTION('',(0.,0.,-1.));
#125 = ADVANCED_FACE('',(#126,#215),#249,.T.);
#126 = FACE_BOUND('',#127,.F.);
#127 = EDGE_LOOP('',(#128,#129,#137,#145,#153,#161,#169,#177,#185,#193,
    #201,#209));
#128 = ORIENTED_EDGE('',*,*,#21,.T.);
#129 = ORIENTED_EDGE('',*,*,#130,.F.);
#130 = EDGE_CURVE('',#131,#24,#133,.T.);
#131 = VERTEX_POINT('',#132);
#132 = CARTESIAN_POINT('',(-0.2,-4.E-15,231.4));
#133 = LINE('',#134,#135);
#134 = CARTESIAN_POINT('',(-0.2,-1.13E-14,231.4));
#135 = VECTOR('',#136,1.);
#136 = DIRECTION('',(-1.,-0.,-0.));
#137 = ORIENTED_EDGE('',*,*,#138,.F.);
#138 = EDGE_CURVE('',#139,#131,#141,.T.);
#139 = VERTEX_POINT('',#140);
#140 = CARTESIAN_POINT('',(-0.2,0.,230.));
#141 = LINE('',#142,#143);
#142 = CARTESIAN_POINT('',(-0.2,0.,230.));
#143 = VECTOR('',#144,1.);
#144 = DIRECTION('',(0.,0.,1.));
#145 = ORIENTED_EDGE('',*,*,#146,.T.);
#146 = EDGE_CURVE('',#139,#147,#149,.T.);
#147 = VERTEX_POINT('',#148);
#148 = CARTESIAN_POINT('',(-136.,0.,230.));
#149 = LINE('',#150,#151);
#150 = CARTESIAN_POINT('',(-0.2,0.,230.));
#151 = VECTOR('',#152,1.);
#152 = DIRECTION('',(-1.,-0.,-0.));
#153 = ORIENTED_EDGE('',*,*,#154,.F.);
#154 = EDGE_CURVE('',#155,#147,#157,.T.);
#155 = VERTEX_POINT('',#156);
#156 = CARTESIAN_POINT('',(-136.,-4.5E-14,201.));
#157 = LINE('',#158,#159);
#158 = CARTESIAN_POINT('',(-136.,0.,226.));
#159 = VECTOR('',#160,1.);
#160 = DIRECTION('',(0.,0.,1.));
#161 = ORIENTED_EDGE('',*,*,#162,.F.);
#162 = EDGE_CURVE('',#163,#155,#165,.T.);
#163 = VERTEX_POINT('',#164);
#164 = CARTESIAN_POINT('',(-0.2,-4.5E-14,201.));
#165 = LINE('',#166,#167);
#166 = CARTESIAN_POINT('',(-0.2,-4.463E-14,201.));
#167 = VECTOR('',#168,1.);
#168 = DIRECTION('',(-1.,-0.,-0.));
#169 = ORIENTED_EDGE('',*,*,#170,.T.);
#170 = EDGE_CURVE('',#163,#171,#173,.T.);
#171 = VERTEX_POINT('',#172);
#172 = CARTESIAN_POINT('',(-0.2,0.,154.));
#173 = LINE('',#174,#175);
#174 = CARTESIAN_POINT('',(-0.2,-4.463E-14,201.));
#175 = VECTOR('',#176,1.);
#176 = DIRECTION('',(2.2E-16,2.2E-16,-1.));
#177 = ORIENTED_EDGE('',*,*,#178,.T.);
#178 = EDGE_CURVE('',#171,#179,#181,.T.);
#179 = VERTEX_POINT('',#180);
#180 = CARTESIAN_POINT('',(-139.,0.,154.));
#181 = LINE('',#182,#183);
#182 = CARTESIAN_POINT('',(-0.2,0.,154.));
#183 = VECTOR('',#184,1.);
#184 = DIRECTION('',(-1.,-0.,-0.));
#185 = ORIENTED_EDGE('',*,*,#186,.T.);
#186 = EDGE_CURVE('',#179,#187,#189,.T.);
#187 = VERTEX_POINT('',#188);
#188 = CARTESIAN_POINT('',(-139.,-2.2E-14,196.));
#189 = LINE('',#190,#191);
#190 = CARTESIAN_POINT('',(-139.,0.,154.));
#191 = VECTOR('',#192,1.);
#192 = DIRECTION('',(0.,0.,1.));
#193 = ORIENTED_EDGE('',*,*,#194,.T.);
#194 = EDGE_CURVE('',#187,#195,#197,.T.);
#195 = VERTEX_POINT('',#196);
#196 = CARTESIAN_POINT('',(-180.,-4.4E-14,196.));
#197 = LINE('',#198,#199);
#198 = CARTESIAN_POINT('',(-0.2,-4.352E-14,196.));
#199 = VECTOR('',#200,1.);
#200 = DIRECTION('',(-1.,-0.,-0.));
#201 = ORIENTED_EDGE('',*,*,#202,.F.);
#202 = EDGE_CURVE('',#203,#195,#205,.T.);
#203 = VERTEX_POINT('',#204);
#204 = CARTESIAN_POINT('',(-180.,-1.3E-14,186.3));
#205 = LINE('',#206,#207);
#206 = CARTESIAN_POINT('',(-180.,0.,154.));
#207 = VECTOR('',#208,1.);
#208 = DIRECTION('',(0.,0.,1.));
#209 = ORIENTED_EDGE('',*,*,#210,.F.);
#210 = EDGE_CURVE('',#22,#203,#211,.T.);
#211 = LINE('',#212,#213);
#212 = CARTESIAN_POINT('',(-184.,-1.266E-14,186.3));
#213 = VECTOR('',#214,1.);
#214 = DIRECTION('',(1.,0.,0.));
#215 = FACE_BOUND('',#216,.F.);
#216 = EDGE_LOOP('',(#217,#227,#235,#243));
#217 = ORIENTED_EDGE('',*,*,#218,.F.);
#218 = EDGE_CURVE('',#219,#221,#223,.T.);
#219 = VERTEX_POINT('',#220);
#220 = CARTESIAN_POINT('',(-140.,-2.5E-14,226.));
#221 = VERTEX_POINT('',#222);
#222 = CARTESIAN_POINT('',(-140.,-4.5E-14,201.));
#223 = LINE('',#224,#225);
#224 = CARTESIAN_POINT('',(-140.,1.2434E-13,232.));
#225 = VECTOR('',#226,1.);
#226 = DIRECTION('',(4.4E-16,0.,-1.));
#227 = ORIENTED_EDGE('',*,*,#228,.T.);
#228 = EDGE_CURVE('',#219,#229,#231,.T.);
#229 = VERTEX_POINT('',#230);
#230 = CARTESIAN_POINT('',(-180.,0.,226.));
#231 = LINE('',#232,#233);
#232 = CARTESIAN_POINT('',(-136.,0.,226.));
#233 = VECTOR('',#234,1.);
#234 = DIRECTION('',(-1.,-0.,-0.));
#235 = ORIENTED_EDGE('',*,*,#236,.F.);
#236 = EDGE_CURVE('',#237,#229,#239,.T.);
#237 = VERTEX_POINT('',#238);
#238 = CARTESIAN_POINT('',(-180.,-4.5E-14,201.));
#239 = LINE('',#240,#241);
#240 = CARTESIAN_POINT('',(-180.,0.,154.));
#241 = VECTOR('',#242,1.);
#242 = DIRECTION('',(0.,0.,1.));
#243 = ORIENTED_EDGE('',*,*,#244,.F.);
#244 = EDGE_CURVE('',#221,#237,#245,.T.);
#245 = LINE('',#246,#247);
#246 = CARTESIAN_POINT('',(-0.2,-4.463E-14,201.));
#247 = VECTOR('',#248,1.);
#248 = DIRECTION('',(-1.,-0.,-0.));
#249 = PLANE('',#250);
#250 = AXIS2_PLACEMENT_3D('',#251,#252,#253);
#251 = CARTESIAN_POINT('',(-89.20903982409,-1.193E-14,202.63536525775));
#252 = DIRECTION('',(0.,-1.,0.));
#253 = DIRECTION('',(0.,0.,1.));
#254 = ADVANCED_FACE('',(#255),#274,.T.);
#255 = FACE_BOUND('',#256,.T.);
#256 = EDGE_LOOP('',(#257,#258,#266,#273));
#257 = ORIENTED_EDGE('',*,*,#31,.T.);
#258 = ORIENTED_EDGE('',*,*,#259,.T.);
#259 = EDGE_CURVE('',#32,#260,#262,.T.);
#260 = VERTEX_POINT('',#261);
#261 = CARTESIAN_POINT('',(-180.,2.,184.3));
#262 = LINE('',#263,#264);
#263 = CARTESIAN_POINT('',(-184.,2.,184.3));
#264 = VECTOR('',#265,1.);
#265 = DIRECTION('',(1.,0.,0.));
#266 = ORIENTED_EDGE('',*,*,#267,.F.);
#267 = EDGE_CURVE('',#203,#260,#268,.T.);
#268 = CIRCLE('',#269,2.);
#269 = AXIS2_PLACEMENT_3D('',#270,#271,#272);
#270 = CARTESIAN_POINT('',(-180.,2.,186.3));
#271 = DIRECTION('',(1.,-0.,0.));
#272 = DIRECTION('',(0.,0.,-1.));
#273 = ORIENTED_EDGE('',*,*,#210,.F.);
#274 = CYLINDRICAL_SURFACE('',#275,2.);
#275 = AXIS2_PLACEMENT_3D('',#276,#277,#278);
#276 = CARTESIAN_POINT('',(-184.,2.,186.3));
#277 = DIRECTION('',(1.,0.,0.));
#278 = DIRECTION('',(0.,-1.,0.));
#279 = ADVANCED_FACE('',(#280),#305,.T.);
#280 = FACE_BOUND('',#281,.T.);
#281 = EDGE_LOOP('',(#282,#290,#298,#304));
#282 = ORIENTED_EDGE('',*,*,#283,.T.);
#283 = EDGE_CURVE('',#24,#284,#286,.T.);
#284 = VERTEX_POINT('',#285);
#285 = CARTESIAN_POINT('',(-183.4,0.6,232.));
#286 = LINE('',#287,#288);
#287 = CARTESIAN_POINT('',(-153.1666666666,30.833333333333,
    262.23333333333));
#288 = VECTOR('',#289,1.);
#289 = DIRECTION('',(0.57735026919,0.57735026919,0.57735026919));
#290 = ORIENTED_EDGE('',*,*,#291,.T.);
#291 = EDGE_CURVE('',#284,#292,#294,.T.);
#292 = VERTEX_POINT('',#293);
#293 = CARTESIAN_POINT('',(-183.4,38.4,232.));
#294 = LINE('',#295,#296);
#295 = CARTESIAN_POINT('',(-183.4,0.,232.));
#296 = VECTOR('',#297,1.);
#297 = DIRECTION('',(0.,1.,0.));
#298 = ORIENTED_EDGE('',*,*,#299,.F.);
#299 = EDGE_CURVE('',#108,#292,#300,.T.);
#300 = LINE('',#301,#302);
#301 = CARTESIAN_POINT('',(-177.3,32.3,238.1));
#302 = VECTOR('',#303,1.);
#303 = DIRECTION('',(0.57735026919,-0.57735026919,0.57735026919));
#304 = ORIENTED_EDGE('',*,*,#115,.F.);
#305 = PLANE('',#306);
#306 = AXIS2_PLACEMENT_3D('',#307,#308,#309);
#307 = CARTESIAN_POINT('',(-183.7,0.,231.7));
#308 = DIRECTION('',(-0.707106781187,-2.01E-15,0.707106781187));
#309 = DIRECTION('',(-1.421284630185E-15,1.,1.421284630185E-15));
#310 = ADVANCED_FACE('',(#311),#329,.F.);
#311 = FACE_BOUND('',#312,.T.);
#312 = EDGE_LOOP('',(#313,#314,#322,#328));
#313 = ORIENTED_EDGE('',*,*,#40,.F.);
#314 = ORIENTED_EDGE('',*,*,#315,.F.);
#315 = EDGE_CURVE('',#316,#41,#318,.T.);
#316 = VERTEX_POINT('',#317);
#317 = CARTESIAN_POINT('',(-180.,6.,184.3));
#318 = LINE('',#319,#320);
#319 = CARTESIAN_POINT('',(-139.,6.,184.3));
#320 = VECTOR('',#321,1.);
#321 = DIRECTION('',(-1.,-0.,-0.));
#322 = ORIENTED_EDGE('',*,*,#323,.T.);
#323 = EDGE_CURVE('',#316,#260,#324,.T.);
#324 = LINE('',#325,#326);
#325 = CARTESIAN_POINT('',(-180.,26.,184.3));
#326 = VECTOR('',#327,1.);
#327 = DIRECTION('',(-0.,-1.,-0.));
#328 = ORIENTED_EDGE('',*,*,#259,.F.);
#329 = PLANE('',#330);
#330 = AXIS2_PLACEMENT_3D('',#331,#332,#333);
#331 = CARTESIAN_POINT('',(-182.,13.,184.3));
#332 = DIRECTION('',(0.,0.,1.));
#333 = DIRECTION('',(1.,0.,0.));
#334 = ADVANCED_FACE('',(#335),#376,.T.);
#335 = FACE_BOUND('',#336,.F.);
#336 = EDGE_LOOP('',(#337,#347,#353,#354,#362,#370));
#337 = ORIENTED_EDGE('',*,*,#338,.T.);
#338 = EDGE_CURVE('',#339,#341,#343,.T.);
#339 = VERTEX_POINT('',#340);
#340 = CARTESIAN_POINT('',(-140.,39.,230.));
#341 = VERTEX_POINT('',#342);
#342 = CARTESIAN_POINT('',(-140.,39.,231.4));
#343 = LINE('',#344,#345);
#344 = CARTESIAN_POINT('',(-140.,39.,230.));
#345 = VECTOR('',#346,1.);
#346 = DIRECTION('',(0.,0.,1.));
#347 = ORIENTED_EDGE('',*,*,#348,.F.);
#348 = EDGE_CURVE('',#108,#341,#349,.T.);
#349 = LINE('',#350,#351);
#350 = CARTESIAN_POINT('',(-184.,39.,231.4));
#351 = VECTOR('',#352,1.);
#352 = DIRECTION('',(1.,0.,0.));
#353 = ORIENTED_EDGE('',*,*,#107,.F.);
#354 = ORIENTED_EDGE('',*,*,#355,.T.);
#355 = EDGE_CURVE('',#100,#356,#358,.T.);
#356 = VERTEX_POINT('',#357);
#357 = CARTESIAN_POINT('',(-173.4,39.,154.));
#358 = LINE('',#359,#360);
#359 = CARTESIAN_POINT('',(-184.,39.,154.));
#360 = VECTOR('',#361,1.);
#361 = DIRECTION('',(1.,0.,0.));
#362 = ORIENTED_EDGE('',*,*,#363,.T.);
#363 = EDGE_CURVE('',#356,#364,#366,.T.);
#364 = VERTEX_POINT('',#365);
#365 = CARTESIAN_POINT('',(-173.4,39.,230.));
#366 = LINE('',#367,#368);
#367 = CARTESIAN_POINT('',(-173.4,39.,154.));
#368 = VECTOR('',#369,1.);
#369 = DIRECTION('',(0.,0.,1.));
#370 = ORIENTED_EDGE('',*,*,#371,.T.);
#371 = EDGE_CURVE('',#364,#339,#372,.T.);
#372 = LINE('',#373,#374);
#373 = CARTESIAN_POINT('',(-184.,39.,230.));
#374 = VECTOR('',#375,1.);
#375 = DIRECTION('',(1.,0.,0.));
#376 = PLANE('',#377);
#377 = AXIS2_PLACEMENT_3D('',#378,#379,#380);
#378 = CARTESIAN_POINT('',(-172.4032786885,39.,203.40327868852));
#379 = DIRECTION('',(0.,1.,0.));
#380 = DIRECTION('',(0.,0.,-1.));
#381 = ADVANCED_FACE('',(#382),#401,.F.);
#382 = FACE_BOUND('',#383,.T.);
#383 = EDGE_LOOP('',(#384,#393,#394,#395));
#384 = ORIENTED_EDGE('',*,*,#385,.F.);
#385 = EDGE_CURVE('',#316,#386,#388,.T.);
#386 = VERTEX_POINT('',#387);
#387 = CARTESIAN_POINT('',(-180.,10.3,180.));
#388 = CIRCLE('',#389,4.3);
#389 = AXIS2_PLACEMENT_3D('',#390,#391,#392);
#390 = CARTESIAN_POINT('',(-180.,6.,180.));
#391 = DIRECTION('',(-1.,0.,0.));
#392 = DIRECTION('',(0.,1.,2.2E-16));
#393 = ORIENTED_EDGE('',*,*,#315,.T.);
#394 = ORIENTED_EDGE('',*,*,#48,.T.);
#395 = ORIENTED_EDGE('',*,*,#396,.F.);
#396 = EDGE_CURVE('',#386,#49,#397,.T.);
#397 = LINE('',#398,#399);
#398 = CARTESIAN_POINT('',(-139.,10.3,180.));
#399 = VECTOR('',#400,1.);
#400 = DIRECTION('',(-1.,-0.,-0.));
#401 = CYLINDRICAL_SURFACE('',#402,4.3);
#402 = AXIS2_PLACEMENT_3D('',#403,#404,#405);
#403 = CARTESIAN_POINT('',(-139.,6.,180.));
#404 = DIRECTION('',(1.,0.,0.));
#405 = DIRECTION('',(0.,1.,2.2E-16));
#406 = ADVANCED_FACE('',(#407),#457,.T.);
#407 = FACE_BOUND('',#408,.F.);
#408 = EDGE_LOOP('',(#409,#419,#427,#435,#443,#449,#450,#451));
#409 = ORIENTED_EDGE('',*,*,#410,.F.);
#410 = EDGE_CURVE('',#411,#413,#415,.T.);
#411 = VERTEX_POINT('',#412);
#412 = CARTESIAN_POINT('',(-140.,30.3,154.));
#413 = VERTEX_POINT('',#414);
#414 = CARTESIAN_POINT('',(-140.,26.3,154.));
#415 = LINE('',#416,#417);
#416 = CARTESIAN_POINT('',(-140.,30.3,154.));
#417 = VECTOR('',#418,1.);
#418 = DIRECTION('',(0.,-1.,2.2E-16));
#419 = ORIENTED_EDGE('',*,*,#420,.T.);
#420 = EDGE_CURVE('',#411,#421,#423,.T.);
#421 = VERTEX_POINT('',#422);
#422 = CARTESIAN_POINT('',(-180.,30.3,154.));
#423 = LINE('',#424,#425);
#424 = CARTESIAN_POINT('',(-140.,30.3,154.));
#425 = VECTOR('',#426,1.);
#426 = DIRECTION('',(-1.,0.,-0.));
#427 = ORIENTED_EDGE('',*,*,#428,.F.);
#428 = EDGE_CURVE('',#429,#421,#431,.T.);
#429 = VERTEX_POINT('',#430);
#430 = CARTESIAN_POINT('',(-180.,37.,154.));
#431 = LINE('',#432,#433);
#432 = CARTESIAN_POINT('',(-180.,39.,154.));
#433 = VECTOR('',#434,1.);
#434 = DIRECTION('',(-0.,-1.,-0.));
#435 = ORIENTED_EDGE('',*,*,#436,.F.);
#436 = EDGE_CURVE('',#437,#429,#439,.T.);
#437 = VERTEX_POINT('',#438);
#438 = CARTESIAN_POINT('',(-173.4,37.,154.));
#439 = LINE('',#440,#441);
#440 = CARTESIAN_POINT('',(-173.4,37.,154.));
#441 = VECTOR('',#442,1.);
#442 = DIRECTION('',(-1.,-0.,-0.));
#443 = ORIENTED_EDGE('',*,*,#444,.F.);
#444 = EDGE_CURVE('',#356,#437,#445,.T.);
#445 = LINE('',#446,#447);
#446 = CARTESIAN_POINT('',(-173.4,39.,154.));
#447 = VECTOR('',#448,1.);
#448 = DIRECTION('',(-0.,-1.,-0.));
#449 = ORIENTED_EDGE('',*,*,#355,.F.);
#450 = ORIENTED_EDGE('',*,*,#99,.F.);
#451 = ORIENTED_EDGE('',*,*,#452,.T.);
#452 = EDGE_CURVE('',#92,#413,#453,.T.);
#453 = LINE('',#454,#455);
#454 = CARTESIAN_POINT('',(-177.5608258928,26.3,154.));
#455 = VECTOR('',#456,1.);
#456 = DIRECTION('',(1.,0.,4.8E-16));
#457 = PLANE('',#458);
#458 = AXIS2_PLACEMENT_3D('',#459,#460,#461);
#459 = CARTESIAN_POINT('',(-170.8216517857,24.791294642857,154.));
#460 = DIRECTION('',(4.8E-16,0.,-1.));
#461 = DIRECTION('',(-1.,0.,-4.8E-16));
#462 = ADVANCED_FACE('',(#463),#481,.F.);
#463 = FACE_BOUND('',#464,.T.);
#464 = EDGE_LOOP('',(#465,#473,#474,#475));
#465 = ORIENTED_EDGE('',*,*,#466,.T.);
#466 = EDGE_CURVE('',#467,#386,#469,.T.);
#467 = VERTEX_POINT('',#468);
#468 = CARTESIAN_POINT('',(-180.,10.3,166.22490309931));
#469 = LINE('',#470,#471);
#470 = CARTESIAN_POINT('',(-180.,10.3,167.));
#471 = VECTOR('',#472,1.);
#472 = DIRECTION('',(0.,0.,1.));
#473 = ORIENTED_EDGE('',*,*,#396,.T.);
#474 = ORIENTED_EDGE('',*,*,#57,.T.);
#475 = ORIENTED_EDGE('',*,*,#476,.F.);
#476 = EDGE_CURVE('',#467,#58,#477,.T.);
#477 = LINE('',#478,#479);
#478 = CARTESIAN_POINT('',(-139.,10.3,166.22490309931));
#479 = VECTOR('',#480,1.);
#480 = DIRECTION('',(-1.,-0.,-0.));
#481 = PLANE('',#482);
#482 = AXIS2_PLACEMENT_3D('',#483,#484,#485);
#483 = CARTESIAN_POINT('',(-139.,10.3,180.));
#484 = DIRECTION('',(0.,1.,0.));
#485 = DIRECTION('',(0.,0.,1.));
#486 = ADVANCED_FACE('',(#487,#529,#605),#645,.T.);
#487 = FACE_BOUND('',#488,.F.);
#488 = EDGE_LOOP('',(#489,#490,#491,#499,#507,#515,#523));
#489 = ORIENTED_EDGE('',*,*,#452,.F.);
#490 = ORIENTED_EDGE('',*,*,#91,.F.);
#491 = ORIENTED_EDGE('',*,*,#492,.F.);
#492 = EDGE_CURVE('',#493,#83,#495,.T.);
#493 = VERTEX_POINT('',#494);
#494 = CARTESIAN_POINT('',(-180.,26.3,163.));
#495 = LINE('',#496,#497);
#496 = CARTESIAN_POINT('',(-139.,26.3,163.));
#497 = VECTOR('',#498,1.);
#498 = DIRECTION('',(-1.,-0.,-0.));
#499 = ORIENTED_EDGE('',*,*,#500,.T.);
#500 = EDGE_CURVE('',#493,#501,#503,.T.);
#501 = VERTEX_POINT('',#502);
#502 = CARTESIAN_POINT('',(-180.,26.3,224.01666666666));
#503 = LINE('',#504,#505);
#504 = CARTESIAN_POINT('',(-180.,26.3,154.));
#505 = VECTOR('',#506,1.);
#506 = DIRECTION('',(0.,0.,1.));
#507 = ORIENTED_EDGE('',*,*,#508,.T.);
#508 = EDGE_CURVE('',#501,#509,#511,.T.);
#509 = VERTEX_POINT('',#510);
#510 = CARTESIAN_POINT('',(-172.7424242424,26.3,224.01666666666));
#511 = LINE('',#512,#513);
#512 = CARTESIAN_POINT('',(-83.21668038013,26.3,224.01666666666));
#513 = VECTOR('',#514,1.);
#514 = DIRECTION('',(1.,0.,0.));
#515 = ORIENTED_EDGE('',*,*,#516,.T.);
#516 = EDGE_CURVE('',#509,#517,#519,.T.);
#517 = VERTEX_POINT('',#518);
#518 = CARTESIAN_POINT('',(-140.,26.3,188.));
#519 = LINE('',#520,#521);
#520 = CARTESIAN_POINT('',(-180.,26.3,232.));
#521 = VECTOR('',#522,1.);
#522 = DIRECTION('',(0.672672793996,0.,-0.739940073396));
#523 = ORIENTED_EDGE('',*,*,#524,.T.);
#524 = EDGE_CURVE('',#517,#413,#525,.T.);
#525 = LINE('',#526,#527);
#526 = CARTESIAN_POINT('',(-140.,26.3,188.));
#527 = VECTOR('',#528,1.);
#528 = DIRECTION('',(-0.,0.,-1.));
#529 = FACE_BOUND('',#530,.F.);
#530 = EDGE_LOOP('',(#531,#542,#550,#558,#566,#574,#582,#590,#598));
#531 = ORIENTED_EDGE('',*,*,#532,.F.);
#532 = EDGE_CURVE('',#533,#535,#537,.T.);
#533 = VERTEX_POINT('',#534);
#534 = CARTESIAN_POINT('',(-171.731906288,26.3,176.3));
#535 = VERTEX_POINT('',#536);
#536 = CARTESIAN_POINT('',(-152.,26.3,174.));
#537 = CIRCLE('',#538,10.);
#538 = AXIS2_PLACEMENT_3D('',#539,#540,#541);
#539 = CARTESIAN_POINT('',(-162.,26.3,174.));
#540 = DIRECTION('',(0.,1.,-2.2E-16));
#541 = DIRECTION('',(-1.,0.,0.));
#542 = ORIENTED_EDGE('',*,*,#543,.F.);
#543 = EDGE_CURVE('',#544,#533,#546,.T.);
#544 = VERTEX_POINT('',#545);
#545 = CARTESIAN_POINT('',(-177.,26.3,176.3));
#546 = LINE('',#547,#548);
#547 = CARTESIAN_POINT('',(-167.1166803801,26.3,176.3));
#548 = VECTOR('',#549,1.);
#549 = DIRECTION('',(1.,0.,0.));
#550 = ORIENTED_EDGE('',*,*,#551,.T.);
#551 = EDGE_CURVE('',#544,#552,#554,.T.);
#552 = VERTEX_POINT('',#553);
#553 = CARTESIAN_POINT('',(-177.,26.3,156.));
#554 = LINE('',#555,#556);
#555 = CARTESIAN_POINT('',(-177.,26.3,175.77221899865));
#556 = VECTOR('',#557,1.);
#557 = DIRECTION('',(0.,2.3E-16,-1.));
#558 = ORIENTED_EDGE('',*,*,#559,.F.);
#559 = EDGE_CURVE('',#560,#552,#562,.T.);
#560 = VERTEX_POINT('',#561);
#561 = CARTESIAN_POINT('',(-168.,26.3,156.));
#562 = LINE('',#563,#564);
#563 = CARTESIAN_POINT('',(-167.1166803801,26.3,156.));
#564 = VECTOR('',#565,1.);
#565 = DIRECTION('',(-1.,-0.,-0.));
#566 = ORIENTED_EDGE('',*,*,#567,.F.);
#567 = EDGE_CURVE('',#568,#560,#570,.T.);
#568 = VERTEX_POINT('',#569);
#569 = CARTESIAN_POINT('',(-168.,26.3,165.85786437626));
#570 = LINE('',#571,#572);
#571 = CARTESIAN_POINT('',(-168.,26.3,175.77221899865));
#572 = VECTOR('',#573,1.);
#573 = DIRECTION('',(0.,2.3E-16,-1.));
#574 = ORIENTED_EDGE('',*,*,#575,.F.);
#575 = EDGE_CURVE('',#576,#568,#578,.T.);
#576 = VERTEX_POINT('',#577);
#577 = CARTESIAN_POINT('',(-164.,26.3,161.85786437626));
#578 = LINE('',#579,#580);
#579 = CARTESIAN_POINT('',(-170.8662904149,26.3,168.72415479122));
#580 = VECTOR('',#581,1.);
#581 = DIRECTION('',(-0.707106781187,-1.6E-16,0.707106781187));
#582 = ORIENTED_EDGE('',*,*,#583,.F.);
#583 = EDGE_CURVE('',#584,#576,#586,.T.);
#584 = VERTEX_POINT('',#585);
#585 = CARTESIAN_POINT('',(-160.,26.3,161.85786437626));
#586 = LINE('',#587,#588);
#587 = CARTESIAN_POINT('',(-163.1166803801,26.3,161.85786437626));
#588 = VECTOR('',#589,1.);
#589 = DIRECTION('',(-1.,-0.,-0.));
#590 = ORIENTED_EDGE('',*,*,#591,.F.);
#591 = EDGE_CURVE('',#592,#584,#594,.T.);
#592 = VERTEX_POINT('',#593);
#593 = CARTESIAN_POINT('',(-154.9289321881,26.3,166.92893218813));
#594 = LINE('',#595,#596);
#595 = CARTESIAN_POINT('',(-152.7148560592,26.3,169.14300831702));
#596 = VECTOR('',#597,1.);
#597 = DIRECTION('',(-0.707106781187,1.6E-16,-0.707106781187));
#598 = ORIENTED_EDGE('',*,*,#599,.F.);
#599 = EDGE_CURVE('',#535,#592,#600,.T.);
#600 = CIRCLE('',#601,10.);
#601 = AXIS2_PLACEMENT_3D('',#602,#603,#604);
#602 = CARTESIAN_POINT('',(-162.,26.3,174.));
#603 = DIRECTION('',(0.,1.,-2.2E-16));
#604 = DIRECTION('',(-1.,0.,0.));
#605 = FACE_BOUND('',#606,.F.);
#606 = EDGE_LOOP('',(#607,#615,#623,#631,#639));
#607 = ORIENTED_EDGE('',*,*,#608,.T.);
#608 = EDGE_CURVE('',#609,#535,#611,.T.);
#609 = VERTEX_POINT('',#610);
#610 = CARTESIAN_POINT('',(-152.,26.3,176.3));
#611 = LINE('',#612,#613);
#612 = CARTESIAN_POINT('',(-152.,26.3,175.77221899865));
#613 = VECTOR('',#614,1.);
#614 = DIRECTION('',(0.,2.3E-16,-1.));
#615 = ORIENTED_EDGE('',*,*,#616,.T.);
#616 = EDGE_CURVE('',#535,#617,#619,.T.);
#617 = VERTEX_POINT('',#618);
#618 = CARTESIAN_POINT('',(-152.,26.3,156.));
#619 = LINE('',#620,#621);
#620 = CARTESIAN_POINT('',(-152.,26.3,175.77221899865));
#621 = VECTOR('',#622,1.);
#622 = DIRECTION('',(0.,2.3E-16,-1.));
#623 = ORIENTED_EDGE('',*,*,#624,.F.);
#624 = EDGE_CURVE('',#625,#617,#627,.T.);
#625 = VERTEX_POINT('',#626);
#626 = CARTESIAN_POINT('',(-143.,26.3,156.));
#627 = LINE('',#628,#629);
#628 = CARTESIAN_POINT('',(-154.6166803801,26.3,156.));
#629 = VECTOR('',#630,1.);
#630 = DIRECTION('',(-1.,-0.,-0.));
#631 = ORIENTED_EDGE('',*,*,#632,.F.);
#632 = EDGE_CURVE('',#633,#625,#635,.T.);
#633 = VERTEX_POINT('',#634);
#634 = CARTESIAN_POINT('',(-143.,26.3,176.3));
#635 = LINE('',#636,#637);
#636 = CARTESIAN_POINT('',(-143.,26.3,175.77221899865));
#637 = VECTOR('',#638,1.);
#638 = DIRECTION('',(0.,2.3E-16,-1.));
#639 = ORIENTED_EDGE('',*,*,#640,.F.);
#640 = EDGE_CURVE('',#609,#633,#641,.T.);
#641 = LINE('',#642,#643);
#642 = CARTESIAN_POINT('',(-154.6166803801,26.3,176.3));
#643 = VECTOR('',#644,1.);
#644 = DIRECTION('',(1.,0.,0.));
#645 = PLANE('',#646);
#646 = AXIS2_PLACEMENT_3D('',#647,#648,#649);
#647 = CARTESIAN_POINT('',(-164.6151476822,26.3,183.76700532166));
#648 = DIRECTION('',(-4.6E-16,-1.,-3.8E-16));
#649 = DIRECTION('',(-1.,4.6E-16,0.));
#650 = ADVANCED_FACE('',(#651),#670,.F.);
#651 = FACE_BOUND('',#652,.T.);
#652 = EDGE_LOOP('',(#653,#662,#663,#664));
#653 = ORIENTED_EDGE('',*,*,#654,.F.);
#654 = EDGE_CURVE('',#467,#655,#657,.T.);
#655 = VERTEX_POINT('',#656);
#656 = CARTESIAN_POINT('',(-180.,11.,166.3));
#657 = CIRCLE('',#658,3.3);
#658 = AXIS2_PLACEMENT_3D('',#659,#660,#661);
#659 = CARTESIAN_POINT('',(-180.,11.,163.));
#660 = DIRECTION('',(-1.,0.,0.));
#661 = DIRECTION('',(0.,-7.33E-15,1.));
#662 = ORIENTED_EDGE('',*,*,#476,.T.);
#663 = ORIENTED_EDGE('',*,*,#65,.T.);
#664 = ORIENTED_EDGE('',*,*,#665,.F.);
#665 = EDGE_CURVE('',#655,#66,#666,.T.);
#666 = LINE('',#667,#668);
#667 = CARTESIAN_POINT('',(-139.,11.,166.3));
#668 = VECTOR('',#669,1.);
#669 = DIRECTION('',(-1.,-0.,-0.));
#670 = CYLINDRICAL_SURFACE('',#671,3.3);
#671 = AXIS2_PLACEMENT_3D('',#672,#673,#674);
#672 = CARTESIAN_POINT('',(-139.,11.,163.));
#673 = DIRECTION('',(1.,0.,0.));
#674 = DIRECTION('',(0.,-7.33E-15,1.));
#675 = ADVANCED_FACE('',(#676),#695,.F.);
#676 = FACE_BOUND('',#677,.T.);
#677 = EDGE_LOOP('',(#678,#687,#693,#694));
#678 = ORIENTED_EDGE('',*,*,#679,.F.);
#679 = EDGE_CURVE('',#680,#493,#682,.T.);
#680 = VERTEX_POINT('',#681);
#681 = CARTESIAN_POINT('',(-180.,23.,166.3));
#682 = CIRCLE('',#683,3.3);
#683 = AXIS2_PLACEMENT_3D('',#684,#685,#686);
#684 = CARTESIAN_POINT('',(-180.,23.,163.));
#685 = DIRECTION('',(-1.,0.,0.));
#686 = DIRECTION('',(0.,1.,2.2E-16));
#687 = ORIENTED_EDGE('',*,*,#688,.T.);
#688 = EDGE_CURVE('',#680,#75,#689,.T.);
#689 = LINE('',#690,#691);
#690 = CARTESIAN_POINT('',(-139.,23.,166.3));
#691 = VECTOR('',#692,1.);
#692 = DIRECTION('',(-1.,-0.,-0.));
#693 = ORIENTED_EDGE('',*,*,#82,.T.);
#694 = ORIENTED_EDGE('',*,*,#492,.F.);
#695 = CYLINDRICAL_SURFACE('',#696,3.3);
#696 = AXIS2_PLACEMENT_3D('',#697,#698,#699);
#697 = CARTESIAN_POINT('',(-139.,23.,163.));
#698 = DIRECTION('',(1.,0.,0.));
#699 = DIRECTION('',(0.,1.,2.2E-16));
#700 = ADVANCED_FACE('',(#701),#712,.F.);
#701 = FACE_BOUND('',#702,.T.);
#702 = EDGE_LOOP('',(#703,#709,#710,#711));
#703 = ORIENTED_EDGE('',*,*,#704,.T.);
#704 = EDGE_CURVE('',#680,#655,#705,.T.);
#705 = LINE('',#706,#707);
#706 = CARTESIAN_POINT('',(-180.,18.65,166.3));
#707 = VECTOR('',#708,1.);
#708 = DIRECTION('',(-0.,-1.,-0.));
#709 = ORIENTED_EDGE('',*,*,#665,.T.);
#710 = ORIENTED_EDGE('',*,*,#74,.T.);
#711 = ORIENTED_EDGE('',*,*,#688,.F.);
#712 = PLANE('',#713);
#713 = AXIS2_PLACEMENT_3D('',#714,#715,#716);
#714 = CARTESIAN_POINT('',(-139.,11.,166.3));
#715 = DIRECTION('',(0.,0.,1.));
#716 = DIRECTION('',(0.,-1.,0.));
#717 = ADVANCED_FACE('',(#718),#736,.T.);
#718 = FACE_BOUND('',#719,.F.);
#719 = EDGE_LOOP('',(#720,#728,#729,#730));
#720 = ORIENTED_EDGE('',*,*,#721,.F.);
#721 = EDGE_CURVE('',#131,#722,#724,.T.);
#722 = VERTEX_POINT('',#723);
#723 = CARTESIAN_POINT('',(-0.8,0.6,232.));
#724 = LINE('',#725,#726);
#725 = CARTESIAN_POINT('',(-5.066666666667,4.866666666667,
    236.26666666666));
#726 = VECTOR('',#727,1.);
#727 = DIRECTION('',(-0.57735026919,0.57735026919,0.57735026919));
#728 = ORIENTED_EDGE('',*,*,#130,.T.);
#729 = ORIENTED_EDGE('',*,*,#283,.T.);
#730 = ORIENTED_EDGE('',*,*,#731,.F.);
#731 = EDGE_CURVE('',#722,#284,#732,.T.);
#732 = LINE('',#733,#734);
#733 = CARTESIAN_POINT('',(-0.2,0.6,232.));
#734 = VECTOR('',#735,1.);
#735 = DIRECTION('',(-1.,-0.,-0.));
#736 = PLANE('',#737);
#737 = AXIS2_PLACEMENT_3D('',#738,#739,#740);
#738 = CARTESIAN_POINT('',(-0.2,0.3,231.7));
#739 = DIRECTION('',(0.,-0.707106781187,0.707106781187));
#740 = DIRECTION('',(1.,0.,0.));
#741 = ADVANCED_FACE('',(#742),#767,.T.);
#742 = FACE_BOUND('',#743,.F.);
#743 = EDGE_LOOP('',(#744,#745,#746,#747,#755,#761,#762,#763,#764,#765,
    #766));
#744 = ORIENTED_EDGE('',*,*,#323,.T.);
#745 = ORIENTED_EDGE('',*,*,#267,.F.);
#746 = ORIENTED_EDGE('',*,*,#202,.T.);
#747 = ORIENTED_EDGE('',*,*,#748,.T.);
#748 = EDGE_CURVE('',#195,#749,#751,.T.);
#749 = VERTEX_POINT('',#750);
#750 = CARTESIAN_POINT('',(-180.,4.,198.));
#751 = LINE('',#752,#753);
#752 = CARTESIAN_POINT('',(-180.,1.5987E-13,196.));
#753 = VECTOR('',#754,1.);
#754 = DIRECTION('',(6.E-16,0.894427191,0.4472135955));
#755 = ORIENTED_EDGE('',*,*,#756,.T.);
#756 = EDGE_CURVE('',#749,#501,#757,.T.);
#757 = LINE('',#758,#759);
#758 = CARTESIAN_POINT('',(-180.,4.,198.));
#759 = VECTOR('',#760,1.);
#760 = DIRECTION('',(2.4E-16,0.650791373456,0.759256602365));
#761 = ORIENTED_EDGE('',*,*,#500,.F.);
#762 = ORIENTED_EDGE('',*,*,#679,.F.);
#763 = ORIENTED_EDGE('',*,*,#704,.T.);
#764 = ORIENTED_EDGE('',*,*,#654,.F.);
#765 = ORIENTED_EDGE('',*,*,#466,.T.);
#766 = ORIENTED_EDGE('',*,*,#385,.F.);
#767 = PLANE('',#768);
#768 = AXIS2_PLACEMENT_3D('',#769,#770,#771);
#769 = CARTESIAN_POINT('',(-180.,17.275994370761,191.4272562659));
#770 = DIRECTION('',(1.,-4.4E-16,3.7E-16));
#771 = DIRECTION('',(4.4E-16,1.,0.));
#772 = ADVANCED_FACE('',(#773),#845,.T.);
#773 = FACE_BOUND('',#774,.F.);
#774 = EDGE_LOOP('',(#775,#776,#784,#792,#800,#808,#816,#822,#823,#831,
    #839));
#775 = ORIENTED_EDGE('',*,*,#138,.T.);
#776 = ORIENTED_EDGE('',*,*,#777,.F.);
#777 = EDGE_CURVE('',#778,#131,#780,.T.);
#778 = VERTEX_POINT('',#779);
#779 = CARTESIAN_POINT('',(-0.2,28.,231.4));
#780 = LINE('',#781,#782);
#781 = CARTESIAN_POINT('',(-0.2,28.,231.4));
#782 = VECTOR('',#783,1.);
#783 = DIRECTION('',(-4.4E-16,-1.,-2.2E-16));
#784 = ORIENTED_EDGE('',*,*,#785,.F.);
#785 = EDGE_CURVE('',#786,#778,#788,.T.);
#786 = VERTEX_POINT('',#787);
#787 = CARTESIAN_POINT('',(-0.2,28.,226.));
#788 = LINE('',#789,#790);
#789 = CARTESIAN_POINT('',(-0.2,28.,226.));
#790 = VECTOR('',#791,1.);
#791 = DIRECTION('',(-2.2E-16,-2.2E-16,1.));
#792 = ORIENTED_EDGE('',*,*,#793,.F.);
#793 = EDGE_CURVE('',#794,#786,#796,.T.);
#794 = VERTEX_POINT('',#795);
#795 = CARTESIAN_POINT('',(-0.2,4.,198.));
#796 = LINE('',#797,#798);
#797 = CARTESIAN_POINT('',(-0.2,4.,198.));
#798 = VECTOR('',#799,1.);
#799 = DIRECTION('',(2.4E-16,0.650791373456,0.759256602365));
#800 = ORIENTED_EDGE('',*,*,#801,.F.);
#801 = EDGE_CURVE('',#802,#794,#804,.T.);
#802 = VERTEX_POINT('',#803);
#803 = CARTESIAN_POINT('',(-0.2,2.,197.));
#804 = LINE('',#805,#806);
#805 = CARTESIAN_POINT('',(-0.2,1.8E-16,196.));
#806 = VECTOR('',#807,1.);
#807 = DIRECTION('',(6.E-16,0.894427191,0.4472135955));
#808 = ORIENTED_EDGE('',*,*,#809,.F.);
#809 = EDGE_CURVE('',#810,#802,#812,.T.);
#810 = VERTEX_POINT('',#811);
#811 = CARTESIAN_POINT('',(-0.2,2.,154.));
#812 = LINE('',#813,#814);
#813 = CARTESIAN_POINT('',(-0.2,2.,154.));
#814 = VECTOR('',#815,1.);
#815 = DIRECTION('',(0.,0.,1.));
#816 = ORIENTED_EDGE('',*,*,#817,.T.);
#817 = EDGE_CURVE('',#810,#171,#818,.T.);
#818 = LINE('',#819,#820);
#819 = CARTESIAN_POINT('',(-0.2,2.,154.));
#820 = VECTOR('',#821,1.);
#821 = DIRECTION('',(-0.,-1.,-0.));
#822 = ORIENTED_EDGE('',*,*,#170,.F.);
#823 = ORIENTED_EDGE('',*,*,#824,.F.);
#824 = EDGE_CURVE('',#825,#163,#827,.T.);
#825 = VERTEX_POINT('',#826);
#826 = CARTESIAN_POINT('',(-0.2,25.6,227.));
#827 = LINE('',#828,#829);
#828 = CARTESIAN_POINT('',(-0.2,25.6,227.));
#829 = VECTOR('',#830,1.);
#830 = DIRECTION('',(-3.1E-16,-0.701604252995,-0.712566819448));
#831 = ORIENTED_EDGE('',*,*,#832,.F.);
#832 = EDGE_CURVE('',#833,#825,#835,.T.);
#833 = VERTEX_POINT('',#834);
#834 = CARTESIAN_POINT('',(-0.2,25.6,230.));
#835 = LINE('',#836,#837);
#836 = CARTESIAN_POINT('',(-0.2,25.6,232.));
#837 = VECTOR('',#838,1.);
#838 = DIRECTION('',(4.4E-16,0.,-1.));
#839 = ORIENTED_EDGE('',*,*,#840,.T.);
#840 = EDGE_CURVE('',#833,#139,#841,.T.);
#841 = LINE('',#842,#843);
#842 = CARTESIAN_POINT('',(-0.2,28.,230.));
#843 = VECTOR('',#844,1.);
#844 = DIRECTION('',(-4.1E-16,-1.,-0.));
#845 = PLANE('',#846);
#846 = AXIS2_PLACEMENT_3D('',#847,#848,#849);
#847 = CARTESIAN_POINT('',(-0.2,9.11397186289,203.14500773918));
#848 = DIRECTION('',(1.,0.,0.));
#849 = DIRECTION('',(0.,0.,1.));
#850 = ADVANCED_FACE('',(#851),#876,.T.);
#851 = FACE_BOUND('',#852,.F.);
#852 = EDGE_LOOP('',(#853,#861,#867,#868,#874,#875));
#853 = ORIENTED_EDGE('',*,*,#854,.T.);
#854 = EDGE_CURVE('',#187,#855,#857,.T.);
#855 = VERTEX_POINT('',#856);
#856 = CARTESIAN_POINT('',(-139.,2.,197.));
#857 = LINE('',#858,#859);
#858 = CARTESIAN_POINT('',(-139.,-8.4,191.8));
#859 = VECTOR('',#860,1.);
#860 = DIRECTION('',(0.,0.894427191,0.4472135955));
#861 = ORIENTED_EDGE('',*,*,#862,.T.);
#862 = EDGE_CURVE('',#855,#802,#863,.T.);
#863 = LINE('',#864,#865);
#864 = CARTESIAN_POINT('',(-69.6,2.,197.));
#865 = VECTOR('',#866,1.);
#866 = DIRECTION('',(1.,0.,0.));
#867 = ORIENTED_EDGE('',*,*,#801,.T.);
#868 = ORIENTED_EDGE('',*,*,#869,.T.);
#869 = EDGE_CURVE('',#794,#749,#870,.T.);
#870 = LINE('',#871,#872);
#871 = CARTESIAN_POINT('',(-0.2,4.,198.));
#872 = VECTOR('',#873,1.);
#873 = DIRECTION('',(-1.,-0.,-0.));
#874 = ORIENTED_EDGE('',*,*,#748,.F.);
#875 = ORIENTED_EDGE('',*,*,#194,.F.);
#876 = PLANE('',#877);
#877 = AXIS2_PLACEMENT_3D('',#878,#879,#880);
#878 = CARTESIAN_POINT('',(-90.94214098259,2.753233793491,
    197.37661689674));
#879 = DIRECTION('',(0.,0.4472135955,-0.894427191));
#880 = DIRECTION('',(0.,0.894427191,0.4472135955));
#881 = ADVANCED_FACE('',(#882),#900,.F.);
#882 = FACE_BOUND('',#883,.T.);
#883 = EDGE_LOOP('',(#884,#885,#886,#894));
#884 = ORIENTED_EDGE('',*,*,#840,.T.);
#885 = ORIENTED_EDGE('',*,*,#146,.T.);
#886 = ORIENTED_EDGE('',*,*,#887,.T.);
#887 = EDGE_CURVE('',#147,#888,#890,.T.);
#888 = VERTEX_POINT('',#889);
#889 = CARTESIAN_POINT('',(-136.,25.6,230.));
#890 = LINE('',#891,#892);
#891 = CARTESIAN_POINT('',(-136.,11.70356079439,230.));
#892 = VECTOR('',#893,1.);
#893 = DIRECTION('',(1.23E-15,1.,0.));
#894 = ORIENTED_EDGE('',*,*,#895,.F.);
#895 = EDGE_CURVE('',#833,#888,#896,.T.);
#896 = LINE('',#897,#898);
#897 = CARTESIAN_POINT('',(-46.15,25.6,230.));
#898 = VECTOR('',#899,1.);
#899 = DIRECTION('',(-1.,-0.,-0.));
#900 = PLANE('',#901);
#901 = AXIS2_PLACEMENT_3D('',#902,#903,#904);
#902 = CARTESIAN_POINT('',(-92.1,14.,230.));
#903 = DIRECTION('',(0.,0.,1.));
#904 = DIRECTION('',(1.,0.,0.));
#905 = ADVANCED_FACE('',(#906),#924,.F.);
#906 = FACE_BOUND('',#907,.T.);
#907 = EDGE_LOOP('',(#908,#916,#917,#918));
#908 = ORIENTED_EDGE('',*,*,#909,.F.);
#909 = EDGE_CURVE('',#179,#910,#912,.T.);
#910 = VERTEX_POINT('',#911);
#911 = CARTESIAN_POINT('',(-139.,2.,154.));
#912 = LINE('',#913,#914);
#913 = CARTESIAN_POINT('',(-139.,0.,154.));
#914 = VECTOR('',#915,1.);
#915 = DIRECTION('',(0.,1.,0.));
#916 = ORIENTED_EDGE('',*,*,#186,.T.);
#917 = ORIENTED_EDGE('',*,*,#854,.T.);
#918 = ORIENTED_EDGE('',*,*,#919,.F.);
#919 = EDGE_CURVE('',#910,#855,#920,.T.);
#920 = LINE('',#921,#922);
#921 = CARTESIAN_POINT('',(-139.,2.,154.));
#922 = VECTOR('',#923,1.);
#923 = DIRECTION('',(0.,0.,1.));
#924 = PLANE('',#925);
#925 = AXIS2_PLACEMENT_3D('',#926,#927,#928);
#926 = CARTESIAN_POINT('',(-139.,0.,154.));
#927 = DIRECTION('',(1.,0.,0.));
#928 = DIRECTION('',(0.,-1.,0.));
#929 = ADVANCED_FACE('',(#930),#948,.T.);
#930 = FACE_BOUND('',#931,.F.);
#931 = EDGE_LOOP('',(#932,#940,#941,#942));
#932 = ORIENTED_EDGE('',*,*,#933,.T.);
#933 = EDGE_CURVE('',#934,#155,#936,.T.);
#934 = VERTEX_POINT('',#935);
#935 = CARTESIAN_POINT('',(-136.,25.6,227.));
#936 = LINE('',#937,#938);
#937 = CARTESIAN_POINT('',(-136.,19.608627745534,220.91501255405));
#938 = VECTOR('',#939,1.);
#939 = DIRECTION('',(-4.7E-16,-0.701604252995,-0.712566819448));
#940 = ORIENTED_EDGE('',*,*,#154,.T.);
#941 = ORIENTED_EDGE('',*,*,#887,.T.);
#942 = ORIENTED_EDGE('',*,*,#943,.T.);
#943 = EDGE_CURVE('',#888,#934,#944,.T.);
#944 = LINE('',#945,#946);
#945 = CARTESIAN_POINT('',(-136.,25.6,224.99468379571));
#946 = VECTOR('',#947,1.);
#947 = DIRECTION('',(3.5E-16,2.2E-16,-1.));
#948 = PLANE('',#949);
#949 = AXIS2_PLACEMENT_3D('',#950,#951,#952);
#950 = CARTESIAN_POINT('',(-136.,9.40712158878,220.27804845441));
#951 = DIRECTION('',(1.,-1.23E-15,6.5E-16));
#952 = DIRECTION('',(1.23E-15,1.,0.));
#953 = ADVANCED_FACE('',(#954),#965,.F.);
#954 = FACE_BOUND('',#955,.T.);
#955 = EDGE_LOOP('',(#956,#957,#958,#964));
#956 = ORIENTED_EDGE('',*,*,#178,.T.);
#957 = ORIENTED_EDGE('',*,*,#909,.T.);
#958 = ORIENTED_EDGE('',*,*,#959,.T.);
#959 = EDGE_CURVE('',#910,#810,#960,.T.);
#960 = LINE('',#961,#962);
#961 = CARTESIAN_POINT('',(-139.,2.,154.));
#962 = VECTOR('',#963,1.);
#963 = DIRECTION('',(1.,0.,0.));
#964 = ORIENTED_EDGE('',*,*,#817,.T.);
#965 = PLANE('',#966);
#966 = AXIS2_PLACEMENT_3D('',#967,#968,#969);
#967 = CARTESIAN_POINT('',(-69.6,1.,154.));
#968 = DIRECTION('',(0.,0.,1.));
#969 = DIRECTION('',(1.,0.,0.));
#970 = ADVANCED_FACE('',(#971),#982,.F.);
#971 = FACE_BOUND('',#972,.T.);
#972 = EDGE_LOOP('',(#973,#974,#980,#981));
#973 = ORIENTED_EDGE('',*,*,#824,.F.);
#974 = ORIENTED_EDGE('',*,*,#975,.T.);
#975 = EDGE_CURVE('',#825,#934,#976,.T.);
#976 = LINE('',#977,#978);
#977 = CARTESIAN_POINT('',(-0.2,25.6,227.));
#978 = VECTOR('',#979,1.);
#979 = DIRECTION('',(-1.,-0.,-0.));
#980 = ORIENTED_EDGE('',*,*,#933,.T.);
#981 = ORIENTED_EDGE('',*,*,#162,.F.);
#982 = PLANE('',#983);
#983 = AXIS2_PLACEMENT_3D('',#984,#985,#986);
#984 = CARTESIAN_POINT('',(-0.2,25.6,227.));
#985 = DIRECTION('',(0.,0.712566819448,-0.701604252995));
#986 = DIRECTION('',(1.5E-16,0.701604252995,0.712566819448));
#987 = ADVANCED_FACE('',(#988),#1029,.T.);
#988 = FACE_BOUND('',#989,.F.);
#989 = EDGE_LOOP('',(#990,#998,#999,#1007,#1015,#1023));
#990 = ORIENTED_EDGE('',*,*,#991,.F.);
#991 = EDGE_CURVE('',#219,#992,#994,.T.);
#992 = VERTEX_POINT('',#993);
#993 = CARTESIAN_POINT('',(-140.,4.,226.));
#994 = LINE('',#995,#996);
#995 = CARTESIAN_POINT('',(-140.,6.204274140723,226.));
#996 = VECTOR('',#997,1.);
#997 = DIRECTION('',(1.03E-15,1.,0.));
#998 = ORIENTED_EDGE('',*,*,#218,.T.);
#999 = ORIENTED_EDGE('',*,*,#1000,.F.);
#1000 = EDGE_CURVE('',#1001,#221,#1003,.T.);
#1001 = VERTEX_POINT('',#1002);
#1002 = CARTESIAN_POINT('',(-140.,25.6,227.));
#1003 = LINE('',#1004,#1005);
#1004 = CARTESIAN_POINT('',(-140.,19.608627745534,220.91501255405));
#1005 = VECTOR('',#1006,1.);
#1006 = DIRECTION('',(-4.7E-16,-0.701604252995,-0.712566819448));
#1007 = ORIENTED_EDGE('',*,*,#1008,.F.);
#1008 = EDGE_CURVE('',#1009,#1001,#1011,.T.);
#1009 = VERTEX_POINT('',#1010);
#1010 = CARTESIAN_POINT('',(-140.,25.6,230.));
#1011 = LINE('',#1012,#1013);
#1012 = CARTESIAN_POINT('',(-140.,25.6,224.99468379571));
#1013 = VECTOR('',#1014,1.);
#1014 = DIRECTION('',(3.5E-16,2.2E-16,-1.));
#1015 = ORIENTED_EDGE('',*,*,#1016,.T.);
#1016 = EDGE_CURVE('',#1009,#1017,#1019,.T.);
#1017 = VERTEX_POINT('',#1018);
#1018 = CARTESIAN_POINT('',(-140.,4.,230.));
#1019 = LINE('',#1020,#1021);
#1020 = CARTESIAN_POINT('',(-140.,12.204274140723,230.));
#1021 = VECTOR('',#1022,1.);
#1022 = DIRECTION('',(-1.03E-15,-1.,-0.));
#1023 = ORIENTED_EDGE('',*,*,#1024,.F.);
#1024 = EDGE_CURVE('',#992,#1017,#1025,.T.);
#1025 = LINE('',#1026,#1027);
#1026 = CARTESIAN_POINT('',(-140.,4.,221.99468379571));
#1027 = VECTOR('',#1028,1.);
#1028 = DIRECTION('',(-3.5E-16,0.,1.));
#1029 = PLANE('',#1030);
#1030 = AXIS2_PLACEMENT_3D('',#1031,#1032,#1033);
#1031 = CARTESIAN_POINT('',(-140.,10.408548281446,217.98936759143));
#1032 = DIRECTION('',(-1.,1.03E-15,-3.5E-16));
#1033 = DIRECTION('',(-1.03E-15,-1.,-0.));
#1034 = ADVANCED_FACE('',(#1035),#1053,.F.);
#1035 = FACE_BOUND('',#1036,.T.);
#1036 = EDGE_LOOP('',(#1037,#1045,#1046,#1047));
#1037 = ORIENTED_EDGE('',*,*,#1038,.T.);
#1038 = EDGE_CURVE('',#1039,#992,#1041,.T.);
#1039 = VERTEX_POINT('',#1040);
#1040 = CARTESIAN_POINT('',(-180.,4.,226.));
#1041 = LINE('',#1042,#1043);
#1042 = CARTESIAN_POINT('',(-184.,4.,226.));
#1043 = VECTOR('',#1044,1.);
#1044 = DIRECTION('',(1.,0.,0.));
#1045 = ORIENTED_EDGE('',*,*,#991,.F.);
#1046 = ORIENTED_EDGE('',*,*,#228,.T.);
#1047 = ORIENTED_EDGE('',*,*,#1048,.F.);
#1048 = EDGE_CURVE('',#1039,#229,#1049,.T.);
#1049 = LINE('',#1050,#1051);
#1050 = CARTESIAN_POINT('',(-180.,20.5,226.));
#1051 = VECTOR('',#1052,1.);
#1052 = DIRECTION('',(-0.,-1.,-0.));
#1053 = PLANE('',#1054);
#1054 = AXIS2_PLACEMENT_3D('',#1055,#1056,#1057);
#1055 = CARTESIAN_POINT('',(-160.,2.,226.));
#1056 = DIRECTION('',(0.,0.,1.));
#1057 = DIRECTION('',(1.,0.,0.));
#1058 = ADVANCED_FACE('',(#1059),#1093,.F.);
#1059 = FACE_BOUND('',#1060,.T.);
#1060 = EDGE_LOOP('',(#1061,#1071,#1079,#1085,#1086,#1087));
#1061 = ORIENTED_EDGE('',*,*,#1062,.F.);
#1062 = EDGE_CURVE('',#1063,#1065,#1067,.T.);
#1063 = VERTEX_POINT('',#1064);
#1064 = CARTESIAN_POINT('',(-180.,25.6,230.));
#1065 = VERTEX_POINT('',#1066);
#1066 = CARTESIAN_POINT('',(-180.,25.6,227.));
#1067 = LINE('',#1068,#1069);
#1068 = CARTESIAN_POINT('',(-180.,25.6,232.));
#1069 = VECTOR('',#1070,1.);
#1070 = DIRECTION('',(4.4E-16,0.,-1.));
#1071 = ORIENTED_EDGE('',*,*,#1072,.T.);
#1072 = EDGE_CURVE('',#1063,#1073,#1075,.T.);
#1073 = VERTEX_POINT('',#1074);
#1074 = CARTESIAN_POINT('',(-180.,4.,230.));
#1075 = LINE('',#1076,#1077);
#1076 = CARTESIAN_POINT('',(-180.,26.5,230.));
#1077 = VECTOR('',#1078,1.);
#1078 = DIRECTION('',(-0.,-1.,-0.));
#1079 = ORIENTED_EDGE('',*,*,#1080,.T.);
#1080 = EDGE_CURVE('',#1073,#1039,#1081,.T.);
#1081 = LINE('',#1082,#1083);
#1082 = CARTESIAN_POINT('',(-180.,4.,190.));
#1083 = VECTOR('',#1084,1.);
#1084 = DIRECTION('',(-0.,-0.,-1.));
#1085 = ORIENTED_EDGE('',*,*,#1048,.T.);
#1086 = ORIENTED_EDGE('',*,*,#236,.F.);
#1087 = ORIENTED_EDGE('',*,*,#1088,.F.);
#1088 = EDGE_CURVE('',#1065,#237,#1089,.T.);
#1089 = LINE('',#1090,#1091);
#1090 = CARTESIAN_POINT('',(-180.,25.6,227.));
#1091 = VECTOR('',#1092,1.);
#1092 = DIRECTION('',(-3.1E-16,-0.701604252995,-0.712566819448));
#1093 = PLANE('',#1094);
#1094 = AXIS2_PLACEMENT_3D('',#1095,#1096,#1097);
#1095 = CARTESIAN_POINT('',(-180.,39.,154.));
#1096 = DIRECTION('',(-1.,-0.,-0.));
#1097 = DIRECTION('',(0.,1.,0.));
#1098 = ADVANCED_FACE('',(#1099),#1110,.F.);
#1099 = FACE_BOUND('',#1100,.T.);
#1100 = EDGE_LOOP('',(#1101,#1102,#1108,#1109));
#1101 = ORIENTED_EDGE('',*,*,#1000,.F.);
#1102 = ORIENTED_EDGE('',*,*,#1103,.T.);
#1103 = EDGE_CURVE('',#1001,#1065,#1104,.T.);
#1104 = LINE('',#1105,#1106);
#1105 = CARTESIAN_POINT('',(-0.2,25.6,227.));
#1106 = VECTOR('',#1107,1.);
#1107 = DIRECTION('',(-1.,-0.,-0.));
#1108 = ORIENTED_EDGE('',*,*,#1088,.T.);
#1109 = ORIENTED_EDGE('',*,*,#244,.F.);
#1110 = PLANE('',#1111);
#1111 = AXIS2_PLACEMENT_3D('',#1112,#1113,#1114);
#1112 = CARTESIAN_POINT('',(-0.2,25.6,227.));
#1113 = DIRECTION('',(0.,0.712566819448,-0.701604252995));
#1114 = DIRECTION('',(1.5E-16,0.701604252995,0.712566819448));
#1115 = ADVANCED_FACE('',(#1116),#1150,.T.);
#1116 = FACE_BOUND('',#1117,.F.);
#1117 = EDGE_LOOP('',(#1118,#1128,#1136,#1142,#1143,#1144));
#1118 = ORIENTED_EDGE('',*,*,#1119,.T.);
#1119 = EDGE_CURVE('',#1120,#1122,#1124,.T.);
#1120 = VERTEX_POINT('',#1121);
#1121 = CARTESIAN_POINT('',(-140.6,38.4,232.));
#1122 = VERTEX_POINT('',#1123);
#1123 = CARTESIAN_POINT('',(-140.6,27.4,232.));
#1124 = LINE('',#1125,#1126);
#1125 = CARTESIAN_POINT('',(-140.6,39.,232.));
#1126 = VECTOR('',#1127,1.);
#1127 = DIRECTION('',(-0.,-1.,-0.));
#1128 = ORIENTED_EDGE('',*,*,#1129,.F.);
#1129 = EDGE_CURVE('',#1130,#1122,#1132,.T.);
#1130 = VERTEX_POINT('',#1131);
#1131 = CARTESIAN_POINT('',(-0.8,27.4,232.));
#1132 = LINE('',#1133,#1134);
#1133 = CARTESIAN_POINT('',(-0.2,27.4,232.));
#1134 = VECTOR('',#1135,1.);
#1135 = DIRECTION('',(-1.,-0.,-0.));
#1136 = ORIENTED_EDGE('',*,*,#1137,.T.);
#1137 = EDGE_CURVE('',#1130,#722,#1138,.T.);
#1138 = LINE('',#1139,#1140);
#1139 = CARTESIAN_POINT('',(-0.8,28.,232.));
#1140 = VECTOR('',#1141,1.);
#1141 = DIRECTION('',(-4.4E-16,-1.,-2.2E-16));
#1142 = ORIENTED_EDGE('',*,*,#731,.T.);
#1143 = ORIENTED_EDGE('',*,*,#291,.T.);
#1144 = ORIENTED_EDGE('',*,*,#1145,.T.);
#1145 = EDGE_CURVE('',#292,#1120,#1146,.T.);
#1146 = LINE('',#1147,#1148);
#1147 = CARTESIAN_POINT('',(-184.,38.4,232.));
#1148 = VECTOR('',#1149,1.);
#1149 = DIRECTION('',(1.,0.,0.));
#1150 = PLANE('',#1151);
#1151 = AXIS2_PLACEMENT_3D('',#1152,#1153,#1154);
#1152 = CARTESIAN_POINT('',(-95.55107719928,16.048922800718,232.));
#1153 = DIRECTION('',(0.,-9.1E-16,1.));
#1154 = DIRECTION('',(0.,-1.,-9.1E-16));
#1155 = ADVANCED_FACE('',(#1156),#1167,.T.);
#1156 = FACE_BOUND('',#1157,.F.);
#1157 = EDGE_LOOP('',(#1158,#1159,#1160,#1166));
#1158 = ORIENTED_EDGE('',*,*,#299,.F.);
#1159 = ORIENTED_EDGE('',*,*,#348,.T.);
#1160 = ORIENTED_EDGE('',*,*,#1161,.T.);
#1161 = EDGE_CURVE('',#341,#1120,#1162,.T.);
#1162 = LINE('',#1163,#1164);
#1163 = CARTESIAN_POINT('',(-147.5333333333,31.466666666667,
    238.93333333333));
#1164 = VECTOR('',#1165,1.);
#1165 = DIRECTION('',(-0.57735026919,-0.57735026919,0.57735026919));
#1166 = ORIENTED_EDGE('',*,*,#1145,.F.);
#1167 = PLANE('',#1168);
#1168 = AXIS2_PLACEMENT_3D('',#1169,#1170,#1171);
#1169 = CARTESIAN_POINT('',(-184.,38.7,231.7));
#1170 = DIRECTION('',(-1.E-17,0.707106781187,0.707106781187));
#1171 = DIRECTION('',(-1.,-7.071067811865E-18,-7.071067811866E-18));
#1172 = ADVANCED_FACE('',(#1173),#1198,.F.);
#1173 = FACE_BOUND('',#1174,.T.);
#1174 = EDGE_LOOP('',(#1175,#1176,#1184,#1192));
#1175 = ORIENTED_EDGE('',*,*,#338,.T.);
#1176 = ORIENTED_EDGE('',*,*,#1177,.T.);
#1177 = EDGE_CURVE('',#341,#1178,#1180,.T.);
#1178 = VERTEX_POINT('',#1179);
#1179 = CARTESIAN_POINT('',(-140.,28.,231.4));
#1180 = LINE('',#1181,#1182);
#1181 = CARTESIAN_POINT('',(-140.,39.,231.4));
#1182 = VECTOR('',#1183,1.);
#1183 = DIRECTION('',(-0.,-1.,-0.));
#1184 = ORIENTED_EDGE('',*,*,#1185,.F.);
#1185 = EDGE_CURVE('',#1186,#1178,#1188,.T.);
#1186 = VERTEX_POINT('',#1187);
#1187 = CARTESIAN_POINT('',(-140.,28.,230.));
#1188 = LINE('',#1189,#1190);
#1189 = CARTESIAN_POINT('',(-140.,28.,230.));
#1190 = VECTOR('',#1191,1.);
#1191 = DIRECTION('',(0.,0.,1.));
#1192 = ORIENTED_EDGE('',*,*,#1193,.F.);
#1193 = EDGE_CURVE('',#339,#1186,#1194,.T.);
#1194 = LINE('',#1195,#1196);
#1195 = CARTESIAN_POINT('',(-140.,39.,230.));
#1196 = VECTOR('',#1197,1.);
#1197 = DIRECTION('',(-0.,-1.,-0.));
#1198 = PLANE('',#1199);
#1199 = AXIS2_PLACEMENT_3D('',#1200,#1201,#1202);
#1200 = CARTESIAN_POINT('',(-140.,39.,230.));
#1201 = DIRECTION('',(-1.,-0.,-0.));
#1202 = DIRECTION('',(0.,1.,0.));
#1203 = ADVANCED_FACE('',(#1204),#1254,.F.);
#1204 = FACE_BOUND('',#1205,.T.);
#1205 = EDGE_LOOP('',(#1206,#1207,#1215,#1223,#1231,#1239,#1247,#1253));
#1206 = ORIENTED_EDGE('',*,*,#1193,.T.);
#1207 = ORIENTED_EDGE('',*,*,#1208,.T.);
#1208 = EDGE_CURVE('',#1186,#1209,#1211,.T.);
#1209 = VERTEX_POINT('',#1210);
#1210 = CARTESIAN_POINT('',(-178.1818181818,28.,230.));
#1211 = LINE('',#1212,#1213);
#1212 = CARTESIAN_POINT('',(-140.,28.,230.));
#1213 = VECTOR('',#1214,1.);
#1214 = DIRECTION('',(-1.,-0.,-0.));
#1215 = ORIENTED_EDGE('',*,*,#1216,.F.);
#1216 = EDGE_CURVE('',#1217,#1209,#1219,.T.);
#1217 = VERTEX_POINT('',#1218);
#1218 = CARTESIAN_POINT('',(-178.1818181818,30.3,230.));
#1219 = LINE('',#1220,#1221);
#1220 = CARTESIAN_POINT('',(-178.1818181818,31.9,230.));
#1221 = VECTOR('',#1222,1.);
#1222 = DIRECTION('',(2.E-16,-1.,0.));
#1223 = ORIENTED_EDGE('',*,*,#1224,.T.);
#1224 = EDGE_CURVE('',#1217,#1225,#1227,.T.);
#1225 = VERTEX_POINT('',#1226);
#1226 = CARTESIAN_POINT('',(-180.,30.3,230.));
#1227 = LINE('',#1228,#1229);
#1228 = CARTESIAN_POINT('',(-164.1166803801,30.3,230.));
#1229 = VECTOR('',#1230,1.);
#1230 = DIRECTION('',(-1.,-0.,-0.));
#1231 = ORIENTED_EDGE('',*,*,#1232,.F.);
#1232 = EDGE_CURVE('',#1233,#1225,#1235,.T.);
#1233 = VERTEX_POINT('',#1234);
#1234 = CARTESIAN_POINT('',(-180.,37.,230.));
#1235 = LINE('',#1236,#1237);
#1236 = CARTESIAN_POINT('',(-180.,36.25,230.));
#1237 = VECTOR('',#1238,1.);
#1238 = DIRECTION('',(-0.,-1.,-0.));
#1239 = ORIENTED_EDGE('',*,*,#1240,.F.);
#1240 = EDGE_CURVE('',#1241,#1233,#1243,.T.);
#1241 = VERTEX_POINT('',#1242);
#1242 = CARTESIAN_POINT('',(-173.4,37.,230.));
#1243 = LINE('',#1244,#1245);
#1244 = CARTESIAN_POINT('',(-167.7,37.,230.));
#1245 = VECTOR('',#1246,1.);
#1246 = DIRECTION('',(-1.,-0.,-0.));
#1247 = ORIENTED_EDGE('',*,*,#1248,.F.);
#1248 = EDGE_CURVE('',#364,#1241,#1249,.T.);
#1249 = LINE('',#1250,#1251);
#1250 = CARTESIAN_POINT('',(-173.4,36.25,230.));
#1251 = VECTOR('',#1252,1.);
#1252 = DIRECTION('',(-0.,-1.,-0.));
#1253 = ORIENTED_EDGE('',*,*,#371,.T.);
#1254 = PLANE('',#1255);
#1255 = AXIS2_PLACEMENT_3D('',#1256,#1257,#1258);
#1256 = CARTESIAN_POINT('',(-162.,33.5,230.));
#1257 = DIRECTION('',(0.,0.,1.));
#1258 = DIRECTION('',(1.,0.,0.));
#1259 = ADVANCED_FACE('',(#1260),#1271,.F.);
#1260 = FACE_BOUND('',#1261,.T.);
#1261 = EDGE_LOOP('',(#1262,#1263,#1264,#1265));
#1262 = ORIENTED_EDGE('',*,*,#444,.F.);
#1263 = ORIENTED_EDGE('',*,*,#363,.T.);
#1264 = ORIENTED_EDGE('',*,*,#1248,.T.);
#1265 = ORIENTED_EDGE('',*,*,#1266,.F.);
#1266 = EDGE_CURVE('',#437,#1241,#1267,.T.);
#1267 = LINE('',#1268,#1269);
#1268 = CARTESIAN_POINT('',(-173.4,37.,154.));
#1269 = VECTOR('',#1270,1.);
#1270 = DIRECTION('',(0.,0.,1.));
#1271 = PLANE('',#1272);
#1272 = AXIS2_PLACEMENT_3D('',#1273,#1274,#1275);
#1273 = CARTESIAN_POINT('',(-173.4,39.,154.));
#1274 = DIRECTION('',(-1.,-0.,-0.));
#1275 = DIRECTION('',(0.,1.,0.));
#1276 = ADVANCED_FACE('',(#1277),#1295,.F.);
#1277 = FACE_BOUND('',#1278,.T.);
#1278 = EDGE_LOOP('',(#1279,#1287,#1288,#1289));
#1279 = ORIENTED_EDGE('',*,*,#1280,.T.);
#1280 = EDGE_CURVE('',#1281,#517,#1283,.T.);
#1281 = VERTEX_POINT('',#1282);
#1282 = CARTESIAN_POINT('',(-140.,30.3,188.));
#1283 = LINE('',#1284,#1285);
#1284 = CARTESIAN_POINT('',(-140.,30.3,188.));
#1285 = VECTOR('',#1286,1.);
#1286 = DIRECTION('',(0.,-1.,2.2E-16));
#1287 = ORIENTED_EDGE('',*,*,#524,.T.);
#1288 = ORIENTED_EDGE('',*,*,#410,.F.);
#1289 = ORIENTED_EDGE('',*,*,#1290,.F.);
#1290 = EDGE_CURVE('',#1281,#411,#1291,.T.);
#1291 = LINE('',#1292,#1293);
#1292 = CARTESIAN_POINT('',(-140.,30.3,188.));
#1293 = VECTOR('',#1294,1.);
#1294 = DIRECTION('',(-0.,0.,-1.));
#1295 = PLANE('',#1296);
#1296 = AXIS2_PLACEMENT_3D('',#1297,#1298,#1299);
#1297 = CARTESIAN_POINT('',(-140.,30.3,188.));
#1298 = DIRECTION('',(-1.,-0.,-0.));
#1299 = DIRECTION('',(0.,-2.2E-16,1.));
#1300 = ADVANCED_FACE('',(#1301),#1312,.F.);
#1301 = FACE_BOUND('',#1302,.T.);
#1302 = EDGE_LOOP('',(#1303,#1304,#1305,#1306));
#1303 = ORIENTED_EDGE('',*,*,#436,.F.);
#1304 = ORIENTED_EDGE('',*,*,#1266,.T.);
#1305 = ORIENTED_EDGE('',*,*,#1240,.T.);
#1306 = ORIENTED_EDGE('',*,*,#1307,.F.);
#1307 = EDGE_CURVE('',#429,#1233,#1308,.T.);
#1308 = LINE('',#1309,#1310);
#1309 = CARTESIAN_POINT('',(-180.,37.,154.));
#1310 = VECTOR('',#1311,1.);
#1311 = DIRECTION('',(0.,0.,1.));
#1312 = PLANE('',#1313);
#1313 = AXIS2_PLACEMENT_3D('',#1314,#1315,#1316);
#1314 = CARTESIAN_POINT('',(-173.4,37.,154.));
#1315 = DIRECTION('',(0.,1.,0.));
#1316 = DIRECTION('',(1.,0.,0.));
#1317 = ADVANCED_FACE('',(#1318),#1329,.F.);
#1318 = FACE_BOUND('',#1319,.T.);
#1319 = EDGE_LOOP('',(#1320,#1321,#1322,#1323));
#1320 = ORIENTED_EDGE('',*,*,#428,.F.);
#1321 = ORIENTED_EDGE('',*,*,#1307,.T.);
#1322 = ORIENTED_EDGE('',*,*,#1232,.T.);
#1323 = ORIENTED_EDGE('',*,*,#1324,.T.);
#1324 = EDGE_CURVE('',#1225,#421,#1325,.T.);
#1325 = LINE('',#1326,#1327);
#1326 = CARTESIAN_POINT('',(-180.,30.3,170.54483263791));
#1327 = VECTOR('',#1328,1.);
#1328 = DIRECTION('',(0.,2.3E-16,-1.));
#1329 = PLANE('',#1330);
#1330 = AXIS2_PLACEMENT_3D('',#1331,#1332,#1333);
#1331 = CARTESIAN_POINT('',(-180.,39.,154.));
#1332 = DIRECTION('',(-1.,-0.,-0.));
#1333 = DIRECTION('',(0.,1.,0.));
#1334 = ADVANCED_FACE('',(#1335,#1347),#1382,.T.);
#1335 = FACE_BOUND('',#1336,.F.);
#1336 = EDGE_LOOP('',(#1337,#1338,#1339,#1345,#1346));
#1337 = ORIENTED_EDGE('',*,*,#420,.F.);
#1338 = ORIENTED_EDGE('',*,*,#1290,.F.);
#1339 = ORIENTED_EDGE('',*,*,#1340,.F.);
#1340 = EDGE_CURVE('',#1217,#1281,#1341,.T.);
#1341 = LINE('',#1342,#1343);
#1342 = CARTESIAN_POINT('',(-180.,30.3,232.));
#1343 = VECTOR('',#1344,1.);
#1344 = DIRECTION('',(0.672672793996,0.,-0.739940073396));
#1345 = ORIENTED_EDGE('',*,*,#1224,.T.);
#1346 = ORIENTED_EDGE('',*,*,#1324,.T.);
#1347 = FACE_BOUND('',#1348,.F.);
#1348 = EDGE_LOOP('',(#1349,#1359,#1367,#1376));
#1349 = ORIENTED_EDGE('',*,*,#1350,.T.);
#1350 = EDGE_CURVE('',#1351,#1353,#1355,.T.);
#1351 = VERTEX_POINT('',#1352);
#1352 = CARTESIAN_POINT('',(-160.,30.3,161.85786437626));
#1353 = VERTEX_POINT('',#1354);
#1354 = CARTESIAN_POINT('',(-164.,30.3,161.85786437626));
#1355 = LINE('',#1356,#1357);
#1356 = CARTESIAN_POINT('',(-163.1166803801,30.3,161.85786437626));
#1357 = VECTOR('',#1358,1.);
#1358 = DIRECTION('',(-1.,-0.,-0.));
#1359 = ORIENTED_EDGE('',*,*,#1360,.T.);
#1360 = EDGE_CURVE('',#1353,#1361,#1363,.T.);
#1361 = VERTEX_POINT('',#1362);
#1362 = CARTESIAN_POINT('',(-169.0710678118,30.3,166.92893218813));
#1363 = LINE('',#1364,#1365);
#1364 = CARTESIAN_POINT('',(-170.8662904149,30.3,168.72415479122));
#1365 = VECTOR('',#1366,1.);
#1366 = DIRECTION('',(-0.707106781187,-1.6E-16,0.707106781187));
#1367 = ORIENTED_EDGE('',*,*,#1368,.T.);
#1368 = EDGE_CURVE('',#1361,#1369,#1371,.T.);
#1369 = VERTEX_POINT('',#1370);
#1370 = CARTESIAN_POINT('',(-154.9289321881,30.3,166.92893218813));
#1371 = CIRCLE('',#1372,10.);
#1372 = AXIS2_PLACEMENT_3D('',#1373,#1374,#1375);
#1373 = CARTESIAN_POINT('',(-162.,30.3,174.));
#1374 = DIRECTION('',(0.,1.,-2.2E-16));
#1375 = DIRECTION('',(-1.,0.,0.));
#1376 = ORIENTED_EDGE('',*,*,#1377,.T.);
#1377 = EDGE_CURVE('',#1369,#1351,#1378,.T.);
#1378 = LINE('',#1379,#1380);
#1379 = CARTESIAN_POINT('',(-152.7148560592,30.3,169.14300831702));
#1380 = VECTOR('',#1381,1.);
#1381 = DIRECTION('',(-0.707106781187,1.6E-16,-0.707106781187));
#1382 = PLANE('',#1383);
#1383 = AXIS2_PLACEMENT_3D('',#1384,#1385,#1386);
#1384 = CARTESIAN_POINT('',(-166.2333607602,30.3,187.08966527583));
#1385 = DIRECTION('',(0.,1.,2.3E-16));
#1386 = DIRECTION('',(0.,2.3E-16,-1.));
#1387 = ADVANCED_FACE('',(#1388),#1408,.F.);
#1388 = FACE_BOUND('',#1389,.T.);
#1389 = EDGE_LOOP('',(#1390,#1391,#1392,#1400,#1406,#1407));
#1390 = ORIENTED_EDGE('',*,*,#1340,.F.);
#1391 = ORIENTED_EDGE('',*,*,#1216,.T.);
#1392 = ORIENTED_EDGE('',*,*,#1393,.F.);
#1393 = EDGE_CURVE('',#1394,#1209,#1396,.T.);
#1394 = VERTEX_POINT('',#1395);
#1395 = CARTESIAN_POINT('',(-174.5454545454,28.,226.));
#1396 = LINE('',#1397,#1398);
#1397 = CARTESIAN_POINT('',(-137.8280542986,28.,185.6108597285));
#1398 = VECTOR('',#1399,1.);
#1399 = DIRECTION('',(-0.672672793996,-1.6E-16,0.739940073396));
#1400 = ORIENTED_EDGE('',*,*,#1401,.F.);
#1401 = EDGE_CURVE('',#509,#1394,#1402,.T.);
#1402 = LINE('',#1403,#1404);
#1403 = CARTESIAN_POINT('',(-140.0904181758,-4.486177148502,
    188.09945999341));
#1404 = VECTOR('',#1405,1.);
#1405 = DIRECTION('',(-0.568055333603,0.535595028826,0.624860866963));
#1406 = ORIENTED_EDGE('',*,*,#516,.T.);
#1407 = ORIENTED_EDGE('',*,*,#1280,.F.);
#1408 = PLANE('',#1409);
#1409 = AXIS2_PLACEMENT_3D('',#1410,#1411,#1412);
#1410 = CARTESIAN_POINT('',(-180.,30.3,232.));
#1411 = DIRECTION('',(-0.739940073396,-1.5E-16,-0.672672793996));
#1412 = DIRECTION('',(-0.672672793996,-1.6E-16,0.739940073396));
#1413 = ADVANCED_FACE('',(#1414),#1427,.T.);
#1414 = FACE_BOUND('',#1415,.F.);
#1415 = EDGE_LOOP('',(#1416,#1417,#1418,#1419,#1420,#1421));
#1416 = ORIENTED_EDGE('',*,*,#1401,.F.);
#1417 = ORIENTED_EDGE('',*,*,#508,.F.);
#1418 = ORIENTED_EDGE('',*,*,#756,.F.);
#1419 = ORIENTED_EDGE('',*,*,#869,.F.);
#1420 = ORIENTED_EDGE('',*,*,#793,.T.);
#1421 = ORIENTED_EDGE('',*,*,#1422,.T.);
#1422 = EDGE_CURVE('',#786,#1394,#1423,.T.);
#1423 = LINE('',#1424,#1425);
#1424 = CARTESIAN_POINT('',(-0.2,28.,226.));
#1425 = VECTOR('',#1426,1.);
#1426 = DIRECTION('',(-1.,-0.,-0.));
#1427 = PLANE('',#1428);
#1428 = AXIS2_PLACEMENT_3D('',#1429,#1430,#1431);
#1429 = CARTESIAN_POINT('',(-90.51532723328,16.03571768278,
    212.04167062991));
#1430 = DIRECTION('',(0.,0.759256602365,-0.650791373456));
#1431 = DIRECTION('',(-0.,-0.650791373456,-0.759256602365));
#1432 = ADVANCED_FACE('',(#1433),#1459,.F.);
#1433 = FACE_BOUND('',#1434,.F.);
#1434 = EDGE_LOOP('',(#1435,#1441,#1442,#1450,#1457,#1458));
#1435 = ORIENTED_EDGE('',*,*,#1436,.F.);
#1436 = EDGE_CURVE('',#1369,#592,#1437,.T.);
#1437 = LINE('',#1438,#1439);
#1438 = CARTESIAN_POINT('',(-154.9289321881,41.,166.92893218813));
#1439 = VECTOR('',#1440,1.);
#1440 = DIRECTION('',(0.,-1.,2.2E-16));
#1441 = ORIENTED_EDGE('',*,*,#1368,.F.);
#1442 = ORIENTED_EDGE('',*,*,#1443,.T.);
#1443 = EDGE_CURVE('',#1361,#1444,#1446,.T.);
#1444 = VERTEX_POINT('',#1445);
#1445 = CARTESIAN_POINT('',(-169.0710678118,16.928932188134,
    166.92893218813));
#1446 = LINE('',#1447,#1448);
#1447 = CARTESIAN_POINT('',(-169.0710678118,41.,166.92893218813));
#1448 = VECTOR('',#1449,1.);
#1449 = DIRECTION('',(0.,-1.,2.2E-16));
#1450 = ORIENTED_EDGE('',*,*,#1451,.F.);
#1451 = EDGE_CURVE('',#533,#1444,#1452,.T.);
#1452 = ELLIPSE('',#1453,14.142135623731,10.);
#1453 = AXIS2_PLACEMENT_3D('',#1454,#1455,#1456);
#1454 = CARTESIAN_POINT('',(-162.,24.,174.));
#1455 = DIRECTION('',(0.,-0.707106781187,0.707106781187));
#1456 = DIRECTION('',(-0.,-0.707106781187,-0.707106781187));
#1457 = ORIENTED_EDGE('',*,*,#532,.T.);
#1458 = ORIENTED_EDGE('',*,*,#599,.T.);
#1459 = CYLINDRICAL_SURFACE('',#1460,10.);
#1460 = AXIS2_PLACEMENT_3D('',#1461,#1462,#1463);
#1461 = CARTESIAN_POINT('',(-162.,-1.,174.));
#1462 = DIRECTION('',(0.,-1.,2.2E-16));
#1463 = DIRECTION('',(-1.,0.,0.));
#1464 = ADVANCED_FACE('',(#1465),#1476,.T.);
#1465 = FACE_BOUND('',#1466,.F.);
#1466 = EDGE_LOOP('',(#1467,#1468,#1469,#1470));
#1467 = ORIENTED_EDGE('',*,*,#1377,.F.);
#1468 = ORIENTED_EDGE('',*,*,#1436,.T.);
#1469 = ORIENTED_EDGE('',*,*,#591,.T.);
#1470 = ORIENTED_EDGE('',*,*,#1471,.F.);
#1471 = EDGE_CURVE('',#1351,#584,#1472,.T.);
#1472 = LINE('',#1473,#1474);
#1473 = CARTESIAN_POINT('',(-160.,41.,161.85786437626));
#1474 = VECTOR('',#1475,1.);
#1475 = DIRECTION('',(0.,-1.,2.2E-16));
#1476 = PLANE('',#1477);
#1477 = AXIS2_PLACEMENT_3D('',#1478,#1479,#1480);
#1478 = CARTESIAN_POINT('',(-154.9289321881,41.,166.92893218813));
#1479 = DIRECTION('',(-0.707106781187,1.6E-16,0.707106781187));
#1480 = DIRECTION('',(0.707106781187,-1.6E-16,0.707106781187));
#1481 = ADVANCED_FACE('',(#1482),#1493,.T.);
#1482 = FACE_BOUND('',#1483,.F.);
#1483 = EDGE_LOOP('',(#1484,#1485,#1486,#1487));
#1484 = ORIENTED_EDGE('',*,*,#1350,.F.);
#1485 = ORIENTED_EDGE('',*,*,#1471,.T.);
#1486 = ORIENTED_EDGE('',*,*,#583,.T.);
#1487 = ORIENTED_EDGE('',*,*,#1488,.F.);
#1488 = EDGE_CURVE('',#1353,#576,#1489,.T.);
#1489 = LINE('',#1490,#1491);
#1490 = CARTESIAN_POINT('',(-164.,41.,161.85786437626));
#1491 = VECTOR('',#1492,1.);
#1492 = DIRECTION('',(0.,-1.,2.2E-16));
#1493 = PLANE('',#1494);
#1494 = AXIS2_PLACEMENT_3D('',#1495,#1496,#1497);
#1495 = CARTESIAN_POINT('',(-160.,41.,161.85786437626));
#1496 = DIRECTION('',(0.,2.2E-16,1.));
#1497 = DIRECTION('',(1.,0.,0.));
#1498 = ADVANCED_FACE('',(#1499),#1519,.T.);
#1499 = FACE_BOUND('',#1500,.F.);
#1500 = EDGE_LOOP('',(#1501,#1502,#1503,#1504,#1512,#1518));
#1501 = ORIENTED_EDGE('',*,*,#1360,.F.);
#1502 = ORIENTED_EDGE('',*,*,#1488,.T.);
#1503 = ORIENTED_EDGE('',*,*,#575,.T.);
#1504 = ORIENTED_EDGE('',*,*,#1505,.T.);
#1505 = EDGE_CURVE('',#568,#1506,#1508,.T.);
#1506 = VERTEX_POINT('',#1507);
#1507 = CARTESIAN_POINT('',(-168.,15.857864376269,165.85786437626));
#1508 = LINE('',#1509,#1510);
#1509 = CARTESIAN_POINT('',(-168.,31.322494262521,165.85786437626));
#1510 = VECTOR('',#1511,1.);
#1511 = DIRECTION('',(0.,-1.,2.2E-16));
#1512 = ORIENTED_EDGE('',*,*,#1513,.T.);
#1513 = EDGE_CURVE('',#1506,#1444,#1514,.T.);
#1514 = LINE('',#1515,#1516);
#1515 = CARTESIAN_POINT('',(-174.4377344785,22.295598854801,
    172.2955988548));
#1516 = VECTOR('',#1517,1.);
#1517 = DIRECTION('',(-0.57735026919,0.57735026919,0.57735026919));
#1518 = ORIENTED_EDGE('',*,*,#1443,.F.);
#1519 = PLANE('',#1520);
#1520 = AXIS2_PLACEMENT_3D('',#1521,#1522,#1523);
#1521 = CARTESIAN_POINT('',(-164.,41.,161.85786437626));
#1522 = DIRECTION('',(0.707106781187,1.6E-16,0.707106781187));
#1523 = DIRECTION('',(0.707106781187,1.6E-16,-0.707106781187));
#1524 = ADVANCED_FACE('',(#1525),#1551,.F.);
#1525 = FACE_BOUND('',#1526,.T.);
#1526 = EDGE_LOOP('',(#1527,#1535,#1543,#1549,#1550));
#1527 = ORIENTED_EDGE('',*,*,#1528,.T.);
#1528 = EDGE_CURVE('',#1506,#1529,#1531,.T.);
#1529 = VERTEX_POINT('',#1530);
#1530 = CARTESIAN_POINT('',(-168.,14.,164.));
#1531 = LINE('',#1532,#1533);
#1532 = CARTESIAN_POINT('',(-168.,26.6,176.6));
#1533 = VECTOR('',#1534,1.);
#1534 = DIRECTION('',(-3.1E-16,-0.707106781187,-0.707106781187));
#1535 = ORIENTED_EDGE('',*,*,#1536,.T.);
#1536 = EDGE_CURVE('',#1529,#1537,#1539,.T.);
#1537 = VERTEX_POINT('',#1538);
#1538 = CARTESIAN_POINT('',(-168.,14.,156.));
#1539 = LINE('',#1540,#1541);
#1540 = CARTESIAN_POINT('',(-168.,14.,164.));
#1541 = VECTOR('',#1542,1.);
#1542 = DIRECTION('',(4.4E-16,0.,-1.));
#1543 = ORIENTED_EDGE('',*,*,#1544,.T.);
#1544 = EDGE_CURVE('',#1537,#560,#1545,.T.);
#1545 = LINE('',#1546,#1547);
#1546 = CARTESIAN_POINT('',(-168.,14.,156.));
#1547 = VECTOR('',#1548,1.);
#1548 = DIRECTION('',(8.9E-16,1.,0.));
#1549 = ORIENTED_EDGE('',*,*,#567,.F.);
#1550 = ORIENTED_EDGE('',*,*,#1505,.T.);
#1551 = PLANE('',#1552);
#1552 = AXIS2_PLACEMENT_3D('',#1553,#1554,#1555);
#1553 = CARTESIAN_POINT('',(-168.,21.644988525043,164.45477272147));
#1554 = DIRECTION('',(-1.,-0.,-0.));
#1555 = DIRECTION('',(0.,0.,-1.));
#1556 = ADVANCED_FACE('',(#1557),#1575,.F.);
#1557 = FACE_BOUND('',#1558,.T.);
#1558 = EDGE_LOOP('',(#1559,#1560,#1568,#1574));
#1559 = ORIENTED_EDGE('',*,*,#1544,.F.);
#1560 = ORIENTED_EDGE('',*,*,#1561,.T.);
#1561 = EDGE_CURVE('',#1537,#1562,#1564,.T.);
#1562 = VERTEX_POINT('',#1563);
#1563 = CARTESIAN_POINT('',(-177.,14.,156.));
#1564 = LINE('',#1565,#1566);
#1565 = CARTESIAN_POINT('',(-168.,14.,156.));
#1566 = VECTOR('',#1567,1.);
#1567 = DIRECTION('',(-1.,-0.,-0.));
#1568 = ORIENTED_EDGE('',*,*,#1569,.T.);
#1569 = EDGE_CURVE('',#1562,#552,#1570,.T.);
#1570 = LINE('',#1571,#1572);
#1571 = CARTESIAN_POINT('',(-177.,14.,156.));
#1572 = VECTOR('',#1573,1.);
#1573 = DIRECTION('',(8.9E-16,1.,0.));
#1574 = ORIENTED_EDGE('',*,*,#559,.F.);
#1575 = PLANE('',#1576);
#1576 = AXIS2_PLACEMENT_3D('',#1577,#1578,#1579);
#1577 = CARTESIAN_POINT('',(-168.,14.,156.));
#1578 = DIRECTION('',(0.,-2.2E-16,1.));
#1579 = DIRECTION('',(-4.4E-16,-1.,-2.2E-16));
#1580 = ADVANCED_FACE('',(#1581),#1599,.T.);
#1581 = FACE_BOUND('',#1582,.F.);
#1582 = EDGE_LOOP('',(#1583,#1591,#1592,#1593));
#1583 = ORIENTED_EDGE('',*,*,#1584,.T.);
#1584 = EDGE_CURVE('',#1585,#1562,#1587,.T.);
#1585 = VERTEX_POINT('',#1586);
#1586 = CARTESIAN_POINT('',(-177.,14.,164.));
#1587 = LINE('',#1588,#1589);
#1588 = CARTESIAN_POINT('',(-177.,14.,164.));
#1589 = VECTOR('',#1590,1.);
#1590 = DIRECTION('',(4.4E-16,0.,-1.));
#1591 = ORIENTED_EDGE('',*,*,#1569,.T.);
#1592 = ORIENTED_EDGE('',*,*,#551,.F.);
#1593 = ORIENTED_EDGE('',*,*,#1594,.T.);
#1594 = EDGE_CURVE('',#544,#1585,#1595,.T.);
#1595 = LINE('',#1596,#1597);
#1596 = CARTESIAN_POINT('',(-177.,26.6,176.6));
#1597 = VECTOR('',#1598,1.);
#1598 = DIRECTION('',(-3.1E-16,-0.707106781187,-0.707106781187));
#1599 = PLANE('',#1600);
#1600 = AXIS2_PLACEMENT_3D('',#1601,#1602,#1603);
#1601 = CARTESIAN_POINT('',(-177.,21.644988525043,164.45477272147));
#1602 = DIRECTION('',(-1.,-0.,-0.));
#1603 = DIRECTION('',(0.,0.,-1.));
#1604 = ADVANCED_FACE('',(#1605),#1618,.F.);
#1605 = FACE_BOUND('',#1606,.T.);
#1606 = EDGE_LOOP('',(#1607,#1608,#1609,#1610,#1611,#1612));
#1607 = ORIENTED_EDGE('',*,*,#1528,.F.);
#1608 = ORIENTED_EDGE('',*,*,#1513,.T.);
#1609 = ORIENTED_EDGE('',*,*,#1451,.F.);
#1610 = ORIENTED_EDGE('',*,*,#543,.F.);
#1611 = ORIENTED_EDGE('',*,*,#1594,.T.);
#1612 = ORIENTED_EDGE('',*,*,#1613,.F.);
#1613 = EDGE_CURVE('',#1529,#1585,#1614,.T.);
#1614 = LINE('',#1615,#1616);
#1615 = CARTESIAN_POINT('',(-168.,14.,164.));
#1616 = VECTOR('',#1617,1.);
#1617 = DIRECTION('',(-1.,-0.,-0.));
#1618 = PLANE('',#1619);
#1619 = AXIS2_PLACEMENT_3D('',#1620,#1621,#1622);
#1620 = CARTESIAN_POINT('',(-168.,26.6,176.6));
#1621 = DIRECTION('',(0.,0.707106781187,-0.707106781187));
#1622 = DIRECTION('',(1.6E-16,0.707106781187,0.707106781187));
#1623 = ADVANCED_FACE('',(#1624),#1650,.T.);
#1624 = FACE_BOUND('',#1625,.F.);
#1625 = EDGE_LOOP('',(#1626,#1634,#1642,#1648,#1649));
#1626 = ORIENTED_EDGE('',*,*,#1627,.T.);
#1627 = EDGE_CURVE('',#609,#1628,#1630,.T.);
#1628 = VERTEX_POINT('',#1629);
#1629 = CARTESIAN_POINT('',(-152.,14.,164.));
#1630 = LINE('',#1631,#1632);
#1631 = CARTESIAN_POINT('',(-152.,26.6,176.6));
#1632 = VECTOR('',#1633,1.);
#1633 = DIRECTION('',(-1.6E-16,-0.707106781187,-0.707106781187));
#1634 = ORIENTED_EDGE('',*,*,#1635,.T.);
#1635 = EDGE_CURVE('',#1628,#1636,#1638,.T.);
#1636 = VERTEX_POINT('',#1637);
#1637 = CARTESIAN_POINT('',(-152.,14.,156.));
#1638 = LINE('',#1639,#1640);
#1639 = CARTESIAN_POINT('',(-152.,14.,164.));
#1640 = VECTOR('',#1641,1.);
#1641 = DIRECTION('',(4.4E-16,0.,-1.));
#1642 = ORIENTED_EDGE('',*,*,#1643,.T.);
#1643 = EDGE_CURVE('',#1636,#617,#1644,.T.);
#1644 = LINE('',#1645,#1646);
#1645 = CARTESIAN_POINT('',(-152.,14.,156.));
#1646 = VECTOR('',#1647,1.);
#1647 = DIRECTION('',(8.9E-16,1.,0.));
#1648 = ORIENTED_EDGE('',*,*,#616,.F.);
#1649 = ORIENTED_EDGE('',*,*,#608,.F.);
#1650 = PLANE('',#1651);
#1651 = AXIS2_PLACEMENT_3D('',#1652,#1653,#1654);
#1652 = CARTESIAN_POINT('',(-152.,21.454340475719,164.34870670429));
#1653 = DIRECTION('',(-1.,-1.51E-15,-0.));
#1654 = DIRECTION('',(1.51E-15,-1.,0.));
#1655 = ADVANCED_FACE('',(#1656),#1674,.F.);
#1656 = FACE_BOUND('',#1657,.T.);
#1657 = EDGE_LOOP('',(#1658,#1666,#1667,#1668));
#1658 = ORIENTED_EDGE('',*,*,#1659,.F.);
#1659 = EDGE_CURVE('',#633,#1660,#1662,.T.);
#1660 = VERTEX_POINT('',#1661);
#1661 = CARTESIAN_POINT('',(-143.,14.,164.));
#1662 = LINE('',#1663,#1664);
#1663 = CARTESIAN_POINT('',(-143.,26.6,176.6));
#1664 = VECTOR('',#1665,1.);
#1665 = DIRECTION('',(-3.1E-16,-0.707106781187,-0.707106781187));
#1666 = ORIENTED_EDGE('',*,*,#640,.F.);
#1667 = ORIENTED_EDGE('',*,*,#1627,.T.);
#1668 = ORIENTED_EDGE('',*,*,#1669,.F.);
#1669 = EDGE_CURVE('',#1660,#1628,#1670,.T.);
#1670 = LINE('',#1671,#1672);
#1671 = CARTESIAN_POINT('',(-143.,14.,164.));
#1672 = VECTOR('',#1673,1.);
#1673 = DIRECTION('',(-1.,-0.,-0.));
#1674 = PLANE('',#1675);
#1675 = AXIS2_PLACEMENT_3D('',#1676,#1677,#1678);
#1676 = CARTESIAN_POINT('',(-143.,26.6,176.6));
#1677 = DIRECTION('',(0.,0.707106781187,-0.707106781187));
#1678 = DIRECTION('',(1.6E-16,0.707106781187,0.707106781187));
#1679 = ADVANCED_FACE('',(#1680),#1698,.F.);
#1680 = FACE_BOUND('',#1681,.T.);
#1681 = EDGE_LOOP('',(#1682,#1690,#1696,#1697));
#1682 = ORIENTED_EDGE('',*,*,#1683,.T.);
#1683 = EDGE_CURVE('',#1660,#1684,#1686,.T.);
#1684 = VERTEX_POINT('',#1685);
#1685 = CARTESIAN_POINT('',(-143.,14.,156.));
#1686 = LINE('',#1687,#1688);
#1687 = CARTESIAN_POINT('',(-143.,14.,164.));
#1688 = VECTOR('',#1689,1.);
#1689 = DIRECTION('',(4.4E-16,0.,-1.));
#1690 = ORIENTED_EDGE('',*,*,#1691,.T.);
#1691 = EDGE_CURVE('',#1684,#625,#1692,.T.);
#1692 = LINE('',#1693,#1694);
#1693 = CARTESIAN_POINT('',(-143.,14.,156.));
#1694 = VECTOR('',#1695,1.);
#1695 = DIRECTION('',(8.9E-16,1.,0.));
#1696 = ORIENTED_EDGE('',*,*,#632,.F.);
#1697 = ORIENTED_EDGE('',*,*,#1659,.T.);
#1698 = PLANE('',#1699);
#1699 = AXIS2_PLACEMENT_3D('',#1700,#1701,#1702);
#1700 = CARTESIAN_POINT('',(-143.,21.644988525043,164.45477272147));
#1701 = DIRECTION('',(-1.,-0.,-0.));
#1702 = DIRECTION('',(0.,0.,-1.));
#1703 = ADVANCED_FACE('',(#1704),#1715,.F.);
#1704 = FACE_BOUND('',#1705,.T.);
#1705 = EDGE_LOOP('',(#1706,#1707,#1713,#1714));
#1706 = ORIENTED_EDGE('',*,*,#1691,.F.);
#1707 = ORIENTED_EDGE('',*,*,#1708,.T.);
#1708 = EDGE_CURVE('',#1684,#1636,#1709,.T.);
#1709 = LINE('',#1710,#1711);
#1710 = CARTESIAN_POINT('',(-143.,14.,156.));
#1711 = VECTOR('',#1712,1.);
#1712 = DIRECTION('',(-1.,-0.,-0.));
#1713 = ORIENTED_EDGE('',*,*,#1643,.T.);
#1714 = ORIENTED_EDGE('',*,*,#624,.F.);
#1715 = PLANE('',#1716);
#1716 = AXIS2_PLACEMENT_3D('',#1717,#1718,#1719);
#1717 = CARTESIAN_POINT('',(-143.,14.,156.));
#1718 = DIRECTION('',(0.,-2.2E-16,1.));
#1719 = DIRECTION('',(-4.4E-16,-1.,-2.2E-16));
#1720 = ADVANCED_FACE('',(#1721),#1732,.T.);
#1721 = FACE_BOUND('',#1722,.F.);
#1722 = EDGE_LOOP('',(#1723,#1729,#1730,#1731));
#1723 = ORIENTED_EDGE('',*,*,#1724,.F.);
#1724 = EDGE_CURVE('',#778,#1130,#1725,.T.);
#1725 = LINE('',#1726,#1727);
#1726 = CARTESIAN_POINT('',(-0.4,27.8,231.6));
#1727 = VECTOR('',#1728,1.);
#1728 = DIRECTION('',(-0.57735026919,-0.57735026919,0.57735026919));
#1729 = ORIENTED_EDGE('',*,*,#777,.T.);
#1730 = ORIENTED_EDGE('',*,*,#721,.T.);
#1731 = ORIENTED_EDGE('',*,*,#1137,.F.);
#1732 = PLANE('',#1733);
#1733 = AXIS2_PLACEMENT_3D('',#1734,#1735,#1736);
#1734 = CARTESIAN_POINT('',(-0.5,28.,231.7));
#1735 = DIRECTION('',(0.707106781187,-2.01E-15,0.707106781187));
#1736 = DIRECTION('',(1.531284630185E-15,1.,1.311284630185E-15));
#1737 = ADVANCED_FACE('',(#1738),#1751,.T.);
#1738 = FACE_BOUND('',#1739,.F.);
#1739 = EDGE_LOOP('',(#1740,#1741,#1742,#1743,#1744,#1745));
#1740 = ORIENTED_EDGE('',*,*,#1185,.F.);
#1741 = ORIENTED_EDGE('',*,*,#1208,.T.);
#1742 = ORIENTED_EDGE('',*,*,#1393,.F.);
#1743 = ORIENTED_EDGE('',*,*,#1422,.F.);
#1744 = ORIENTED_EDGE('',*,*,#785,.T.);
#1745 = ORIENTED_EDGE('',*,*,#1746,.T.);
#1746 = EDGE_CURVE('',#778,#1178,#1747,.T.);
#1747 = LINE('',#1748,#1749);
#1748 = CARTESIAN_POINT('',(-0.2,28.,231.4));
#1749 = VECTOR('',#1750,1.);
#1750 = DIRECTION('',(-1.,-0.,-0.));
#1751 = PLANE('',#1752);
#1752 = AXIS2_PLACEMENT_3D('',#1753,#1754,#1755);
#1753 = CARTESIAN_POINT('',(-89.26355482918,28.,229.04443570638));
#1754 = DIRECTION('',(0.,1.,0.));
#1755 = DIRECTION('',(0.,0.,-1.));
#1756 = ADVANCED_FACE('',(#1757),#1763,.F.);
#1757 = FACE_BOUND('',#1758,.T.);
#1758 = EDGE_LOOP('',(#1759,#1760,#1761,#1762));
#1759 = ORIENTED_EDGE('',*,*,#832,.F.);
#1760 = ORIENTED_EDGE('',*,*,#895,.T.);
#1761 = ORIENTED_EDGE('',*,*,#943,.T.);
#1762 = ORIENTED_EDGE('',*,*,#975,.F.);
#1763 = PLANE('',#1764);
#1764 = AXIS2_PLACEMENT_3D('',#1765,#1766,#1767);
#1765 = CARTESIAN_POINT('',(-0.2,25.6,232.));
#1766 = DIRECTION('',(0.,1.,2.2E-16));
#1767 = DIRECTION('',(-2.2E-16,-2.2E-16,1.));
#1768 = ADVANCED_FACE('',(#1769),#1775,.F.);
#1769 = FACE_BOUND('',#1770,.T.);
#1770 = EDGE_LOOP('',(#1771,#1772,#1773,#1774));
#1771 = ORIENTED_EDGE('',*,*,#959,.F.);
#1772 = ORIENTED_EDGE('',*,*,#919,.T.);
#1773 = ORIENTED_EDGE('',*,*,#862,.T.);
#1774 = ORIENTED_EDGE('',*,*,#809,.F.);
#1775 = PLANE('',#1776);
#1776 = AXIS2_PLACEMENT_3D('',#1777,#1778,#1779);
#1777 = CARTESIAN_POINT('',(-139.,2.,154.));
#1778 = DIRECTION('',(-0.,-1.,-0.));
#1779 = DIRECTION('',(-1.,0.,0.));
#1780 = ADVANCED_FACE('',(#1781),#1792,.F.);
#1781 = FACE_BOUND('',#1782,.T.);
#1782 = EDGE_LOOP('',(#1783,#1784,#1785,#1791));
#1783 = ORIENTED_EDGE('',*,*,#1038,.F.);
#1784 = ORIENTED_EDGE('',*,*,#1080,.F.);
#1785 = ORIENTED_EDGE('',*,*,#1786,.T.);
#1786 = EDGE_CURVE('',#1073,#1017,#1787,.T.);
#1787 = LINE('',#1788,#1789);
#1788 = CARTESIAN_POINT('',(-138.05,4.,230.));
#1789 = VECTOR('',#1790,1.);
#1790 = DIRECTION('',(1.,0.,0.));
#1791 = ORIENTED_EDGE('',*,*,#1024,.F.);
#1792 = PLANE('',#1793);
#1793 = AXIS2_PLACEMENT_3D('',#1794,#1795,#1796);
#1794 = CARTESIAN_POINT('',(-184.,4.,226.));
#1795 = DIRECTION('',(-0.,-1.,-0.));
#1796 = DIRECTION('',(-1.,0.,0.));
#1797 = ADVANCED_FACE('',(#1798),#1809,.F.);
#1798 = FACE_BOUND('',#1799,.T.);
#1799 = EDGE_LOOP('',(#1800,#1806,#1807,#1808));
#1800 = ORIENTED_EDGE('',*,*,#1801,.F.);
#1801 = EDGE_CURVE('',#1009,#1063,#1802,.T.);
#1802 = LINE('',#1803,#1804);
#1803 = CARTESIAN_POINT('',(-46.15,25.6,230.));
#1804 = VECTOR('',#1805,1.);
#1805 = DIRECTION('',(-1.,-0.,-0.));
#1806 = ORIENTED_EDGE('',*,*,#1016,.T.);
#1807 = ORIENTED_EDGE('',*,*,#1786,.F.);
#1808 = ORIENTED_EDGE('',*,*,#1072,.F.);
#1809 = PLANE('',#1810);
#1810 = AXIS2_PLACEMENT_3D('',#1811,#1812,#1813);
#1811 = CARTESIAN_POINT('',(-92.1,14.,230.));
#1812 = DIRECTION('',(0.,0.,1.));
#1813 = DIRECTION('',(1.,0.,0.));
#1814 = ADVANCED_FACE('',(#1815),#1821,.F.);
#1815 = FACE_BOUND('',#1816,.T.);
#1816 = EDGE_LOOP('',(#1817,#1818,#1819,#1820));
#1817 = ORIENTED_EDGE('',*,*,#1008,.F.);
#1818 = ORIENTED_EDGE('',*,*,#1801,.T.);
#1819 = ORIENTED_EDGE('',*,*,#1062,.T.);
#1820 = ORIENTED_EDGE('',*,*,#1103,.F.);
#1821 = PLANE('',#1822);
#1822 = AXIS2_PLACEMENT_3D('',#1823,#1824,#1825);
#1823 = CARTESIAN_POINT('',(-0.2,25.6,232.));
#1824 = DIRECTION('',(0.,1.,2.2E-16));
#1825 = DIRECTION('',(-2.2E-16,-2.2E-16,1.));
#1826 = ADVANCED_FACE('',(#1827),#1838,.F.);
#1827 = FACE_BOUND('',#1828,.F.);
#1828 = EDGE_LOOP('',(#1829,#1830,#1831,#1837));
#1829 = ORIENTED_EDGE('',*,*,#1161,.F.);
#1830 = ORIENTED_EDGE('',*,*,#1177,.T.);
#1831 = ORIENTED_EDGE('',*,*,#1832,.T.);
#1832 = EDGE_CURVE('',#1178,#1122,#1833,.T.);
#1833 = LINE('',#1834,#1835);
#1834 = CARTESIAN_POINT('',(-115.0666666666,52.933333333333,
    206.46666666666));
#1835 = VECTOR('',#1836,1.);
#1836 = DIRECTION('',(-0.57735026919,-0.57735026919,0.57735026919));
#1837 = ORIENTED_EDGE('',*,*,#1119,.F.);
#1838 = PLANE('',#1839);
#1839 = AXIS2_PLACEMENT_3D('',#1840,#1841,#1842);
#1840 = CARTESIAN_POINT('',(-140.3,39.,231.7));
#1841 = DIRECTION('',(-0.707106781187,-0.,-0.707106781187));
#1842 = DIRECTION('',(0.,-1.,0.));
#1843 = ADVANCED_FACE('',(#1844),#1850,.T.);
#1844 = FACE_BOUND('',#1845,.T.);
#1845 = EDGE_LOOP('',(#1846,#1847,#1848,#1849));
#1846 = ORIENTED_EDGE('',*,*,#1724,.F.);
#1847 = ORIENTED_EDGE('',*,*,#1746,.T.);
#1848 = ORIENTED_EDGE('',*,*,#1832,.T.);
#1849 = ORIENTED_EDGE('',*,*,#1129,.F.);
#1850 = PLANE('',#1851);
#1851 = AXIS2_PLACEMENT_3D('',#1852,#1853,#1854);
#1852 = CARTESIAN_POINT('',(-0.2,27.7,231.7));
#1853 = DIRECTION('',(-1.E-17,0.707106781187,0.707106781187));
#1854 = DIRECTION('',(-1.,-7.071067811865E-18,-7.071067811866E-18));
#1855 = ADVANCED_FACE('',(#1856),#1862,.F.);
#1856 = FACE_BOUND('',#1857,.T.);
#1857 = EDGE_LOOP('',(#1858,#1859,#1860,#1861));
#1858 = ORIENTED_EDGE('',*,*,#1613,.T.);
#1859 = ORIENTED_EDGE('',*,*,#1584,.T.);
#1860 = ORIENTED_EDGE('',*,*,#1561,.F.);
#1861 = ORIENTED_EDGE('',*,*,#1536,.F.);
#1862 = PLANE('',#1863);
#1863 = AXIS2_PLACEMENT_3D('',#1864,#1865,#1866);
#1864 = CARTESIAN_POINT('',(-168.,14.,164.));
#1865 = DIRECTION('',(0.,1.,2.2E-16));
#1866 = DIRECTION('',(-2.2E-16,-2.2E-16,1.));
#1867 = ADVANCED_FACE('',(#1868),#1874,.F.);
#1868 = FACE_BOUND('',#1869,.T.);
#1869 = EDGE_LOOP('',(#1870,#1871,#1872,#1873));
#1870 = ORIENTED_EDGE('',*,*,#1669,.T.);
#1871 = ORIENTED_EDGE('',*,*,#1635,.T.);
#1872 = ORIENTED_EDGE('',*,*,#1708,.F.);
#1873 = ORIENTED_EDGE('',*,*,#1683,.F.);
#1874 = PLANE('',#1875);
#1875 = AXIS2_PLACEMENT_3D('',#1876,#1877,#1878);
#1876 = CARTESIAN_POINT('',(-143.,14.,164.));
#1877 = DIRECTION('',(0.,1.,2.2E-16));
#1878 = DIRECTION('',(-2.2E-16,-2.2E-16,1.));
#1879 = ( GEOMETRIC_REPRESENTATION_CONTEXT(3) 
GLOBAL_UNCERTAINTY_ASSIGNED_CONTEXT((#1883)) 
GLOBAL_UNIT_ASSIGNED_CONTEXT((#1880,#1881,#1882)) REPRESENTATION_CONTEXT
('Context #1','3D Context with UNIT and UNCERTAINTY') );
#1880 = ( LENGTH_UNIT() NAMED_UNIT(*) SI_UNIT(.MILLI.,.METRE.) );
#1881 = ( NAMED_UNIT(*) PLANE_ANGLE_UNIT() SI_UNIT($,.RADIAN.) );
#1882 = ( NAMED_UNIT(*) SI_UNIT($,.STERADIAN.) SOLID_ANGLE_UNIT() );
#1883 = UNCERTAINTY_MEASURE_WITH_UNIT(LENGTH_MEASURE(1.E-04),#1880,
  'distance_accuracy_value','confusion accuracy');
#1884 = PRODUCT_RELATED_PRODUCT_CATEGORY('part',$,(#7));
ENDSEC;
END-ISO-10303-21;
